<?xml version="1.0" encoding="UTF-8"?>
<svg id="Layer_1" data-name="Layer 1" xmlns="http://www.w3.org/2000/svg" viewBox="0 0 352.51 318.47">
  <defs>
    <style>
      .cls-1 {
        stroke-miterlimit: 10;
      }

      .cls-1, .cls-2 {
        fill: none;
        stroke: #000;
      }

      .cls-2 {
        stroke-miterlimit: 10;
        stroke-width: 1px;
      }
    </style>
  </defs>
  <path class="cls-1" d="m51.52.5C23.34.5.5,23.34.5,51.52v142.4c0,9.76,6.25,18.43,15.51,21.51l3,1c9.26,3.09,15.51,11.75,15.51,21.51v68.69c0,6.26,5.08,11.34,11.34,11.34h260.79c6.26,0,11.34-5.08,11.34-11.34v-68.69c0-9.76,6.25-18.43,15.51-21.51l3-1c9.26-3.09,15.51-11.75,15.51-21.51V51.52c0-28.18-22.84-51.02-51.02-51.02"/>
  <g id="Face_lines" data-name="Face lines">
    <path class="cls-1" d="m171.31,136.78c2.17-3.84,7.7-3.84,9.87,0l12.07,21.34,12.1,20.95c2.18,3.78-.55,8.5-4.91,8.5h-48.39c-4.36,0-7.09-4.72-4.91-8.5l12.1-20.95,12.07-21.34Z"/>
    <circle class="cls-2" cx="255.63" cy="130.89" r="34.02" transform="translate(50.6 332) rotate(-71.56)"/>
    <circle class="cls-1" cx="96.88" cy="130.89" r="34.02"/>
  </g>
</svg>