<?xml version="1.0" encoding="UTF-8"?><svg xmlns="http://www.w3.org/2000/svg" viewBox="0 0 351.5 317.48"><defs><style>.cls-1{stroke-linecap:round;stroke-linejoin:round;}.cls-1,.cls-2,.cls-3{fill:none;}.cls-1,.cls-3{stroke:#fff;}.cls-4{fill:#00538c;}.cls-5{fill:#ffd400;}.cls-6{fill:#1d1d1b;}.cls-7{fill:#9b9b9b;}.cls-8{fill:#5b5b5b;}.cls-9{fill:#4ff900;}.cls-10{fill:#fff;font-family:SpaceMono-Bold, 'Space Mono';font-size:6px;font-weight:700;}.cls-2{stroke:#1d1d1b;}.cls-2,.cls-3{stroke-miterlimit:10;}</style></defs><g id="Board"><path class="cls-6" d="m0,51.02v142.4c0,9.76,6.25,18.43,15.51,21.51l3,1c9.26,3.09,15.51,11.75,15.51,21.51v68.69c0,6.26,5.08,11.34,11.34,11.34h260.79c6.26,0,11.34-5.08,11.34-11.34v-68.69c0-9.76,6.25-18.43,15.51-21.51l3-1c9.26-3.09,15.51-11.75,15.51-21.51V51.02c0-28.18-22.84-51.02-51.02-51.02H51.02C22.84,0,0,22.84,0,51.02Z"/></g><g id="Teeth"><path class="cls-5" d="m39.68,276.2v29.94c0,3.13,2.54,5.67,5.67,5.67h22.68c3.13,0,5.67-2.54,5.67-5.67v-29.94c0-1.68-.75-3.28-2.04-4.36l-11.34-9.45c-2.1-1.75-5.16-1.75-7.26,0l-11.34,9.45c-1.29,1.08-2.04,2.67-2.04,4.36Z"/><path class="cls-5" d="m93.54,251.05v-29.94c0-3.13-2.54-5.67-5.67-5.67h-22.68c-3.13,0-5.67,2.54-5.67,5.67v29.94c0,1.68.75,3.28,2.04,4.36l11.34,9.45c2.1,1.75,5.16,1.75,7.26,0l11.34-9.45c1.29-1.08,2.04-2.67,2.04-4.36Z"/><path class="cls-5" d="m133.23,251.05v-29.94c0-3.13-2.54-5.67-5.67-5.67h-22.68c-3.13,0-5.67,2.54-5.67,5.67v29.94c0,1.68.75,3.28,2.04,4.36l11.34,9.45c2.1,1.75,5.16,1.75,7.26,0l11.34-9.45c1.29-1.08,2.04-2.67,2.04-4.36Z"/><path class="cls-5" d="m212.6,251.05v-29.94c0-3.13-2.54-5.67-5.67-5.67h-22.68c-3.13,0-5.67,2.54-5.67,5.67v29.94c0,1.68.75,3.28,2.04,4.36l11.34,9.45c2.1,1.75,5.16,1.75,7.26,0l11.34-9.45c1.29-1.08,2.04-2.67,2.04-4.36Z"/><path class="cls-5" d="m252.28,251.05v-29.94c0-3.13-2.54-5.67-5.67-5.67h-22.68c-3.13,0-5.67,2.54-5.67,5.67v29.94c0,1.68.75,3.28,2.04,4.36l11.34,9.45c2.1,1.75,5.16,1.75,7.26,0l11.34-9.45c1.29-1.08,2.04-2.67,2.04-4.36Z"/><path class="cls-5" d="m291.97,251.05v-29.94c0-3.13-2.54-5.67-5.67-5.67h-22.68c-3.13,0-5.67,2.54-5.67,5.67v29.94c0,1.68.75,3.28,2.04,4.36l11.34,9.45c2.1,1.75,5.16,1.75,7.26,0l11.34-9.45c1.29-1.08,2.04-2.67,2.04-4.36Z"/><path class="cls-5" d="m79.37,276.2v29.94c0,3.13,2.54,5.67,5.67,5.67h22.68c3.13,0,5.67-2.54,5.67-5.67v-29.94c0-1.68-.75-3.28-2.04-4.36l-11.34-9.45c-2.1-1.75-5.16-1.75-7.26,0l-11.34,9.45c-1.29,1.08-2.04,2.67-2.04,4.36Z"/><path class="cls-5" d="m119.06,276.2v29.94c0,3.13,2.54,5.67,5.67,5.67h22.68c3.13,0,5.67-2.54,5.67-5.67v-29.94c0-1.68-.75-3.28-2.04-4.36l-11.34-9.45c-2.1-1.75-5.16-1.75-7.26,0l-11.34,9.45c-1.29,1.08-2.04,2.67-2.04,4.36Z"/><path class="cls-5" d="m158.74,276.2v29.94c0,3.13,2.54,5.67,5.67,5.67h22.68c3.13,0,5.67-2.54,5.67-5.67v-29.94c0-1.68-.75-3.28-2.04-4.36l-11.34-9.45c-2.1-1.75-5.16-1.75-7.26,0l-11.34,9.45c-1.29,1.08-2.04,2.67-2.04,4.36Z"/><path class="cls-5" d="m198.43,276.2v29.94c0,3.13,2.54,5.67,5.67,5.67h22.68c3.13,0,5.67-2.54,5.67-5.67v-29.94c0-1.68-.75-3.28-2.04-4.36l-11.34-9.45c-2.1-1.75-5.16-1.75-7.26,0l-11.34,9.45c-1.29,1.08-2.04,2.67-2.04,4.36Z"/><path class="cls-5" d="m238.11,276.2v29.94c0,3.13,2.54,5.67,5.67,5.67h22.68c3.13,0,5.67-2.54,5.67-5.67v-29.94c0-1.68-.75-3.28-2.04-4.36l-11.34-9.45c-2.1-1.75-5.16-1.75-7.26,0l-11.34,9.45c-1.29,1.08-2.04,2.67-2.04,4.36Z"/><path class="cls-5" d="m277.8,276.2v29.94c0,3.13,2.54,5.67,5.67,5.67h22.68c3.13,0,5.67-2.54,5.67-5.67v-29.94c0-1.68-.75-3.28-2.04-4.36l-11.34-9.45c-2.1-1.75-5.16-1.75-7.26,0l-11.34,9.45c-1.29,1.08-2.04,2.67-2.04,4.36Z"/></g><g id="Components_bottom"><rect class="cls-4" x="17.01" y="116.22" width="28.35" height="28.35" rx="2.83" ry="2.83"/><rect class="cls-4" x="36.85" y="42.52" width="28.35" height="28.35" rx="2.83" ry="2.83"/><rect class="cls-4" x="99.21" y="42.52" width="28.35" height="28.35" rx="2.83" ry="2.83"/><rect class="cls-4" x="223.94" y="42.52" width="28.35" height="28.35" rx="2.83" ry="2.83"/><rect class="cls-4" x="161.57" y="42.52" width="28.35" height="28.35" rx="2.83" ry="2.83"/><rect class="cls-4" x="187.09" y="96.38" width="22.68" height="22.68" rx="2.83" ry="2.83"/><rect class="cls-4" x="141.73" y="96.38" width="22.68" height="22.68" rx="2.83" ry="2.83"/><rect class="cls-4" x="286.3" y="42.52" width="28.35" height="28.35" rx="2.83" ry="2.83"/><rect class="cls-4" x="306.14" y="116.22" width="28.35" height="28.35" rx="2.83" ry="2.83"/><rect class="cls-4" x="161.57" y="8.5" width="28.35" height="17.01" rx="2.83" ry="2.83"/></g><g id="Components_top"><rect class="cls-7" x="170.08" y="5.67" width="11.34" height="22.68" transform="translate(192.76 -158.74) rotate(90)"/><circle class="cls-7" cx="51.02" cy="56.69" r="8.5"/><path class="cls-2" d="m51.02,53.86v2.83-5.67,2.83Z"/><circle class="cls-7" cx="113.24" cy="56.69" r="8.5"/><path class="cls-2" d="m113.24,53.86v2.83-5.67,2.83Z"/><circle class="cls-7" cx="238.11" cy="56.69" r="8.5"/><path class="cls-2" d="m238.11,53.86v2.83-5.67,2.83Z"/><circle class="cls-7" cx="175.75" cy="56.69" r="8.5"/><path class="cls-2" d="m175.75,53.86v2.83-5.67,2.83Z"/><circle class="cls-7" cx="300.47" cy="56.69" r="8.5"/><path class="cls-2" d="m300.47,53.86v2.83-5.67,2.83Z"/><circle class="cls-7" cx="153.07" cy="107.72" r="8.5"/><circle class="cls-2" cx="153.07" cy="107.72" r="5.67"/><circle class="cls-9" cx="198.43" cy="75.12" r="4.25"/><circle class="cls-9" cx="153.07" cy="75.12" r="4.25"/><circle class="cls-7" cx="198.43" cy="107.72" r="8.5"/><circle class="cls-2" cx="198.43" cy="107.72" r="5.67"/><circle class="cls-7" cx="31.18" cy="130.39" r="8.5"/><circle class="cls-8" cx="31.18" cy="130.39" r="5.67"/><circle class="cls-7" cx="320.31" cy="130.39" r="8.5"/><circle class="cls-8" cx="320.31" cy="130.39" r="5.67"/><line class="cls-1" x1="153.07" y1="90.71" x2="153.07" y2="85.04"/><line class="cls-1" x1="198.43" y1="90.71" x2="198.43" y2="85.04"/></g><g id="Interface_lines"><path class="cls-1" d="m31.18,150.24v30.29c0,6.01,2.39,11.78,6.64,16.04l18.87,18.87"/><path class="cls-1" d="m320.31,150.24v30.29c0,6.01-2.39,11.78-6.64,16.04l-18.87,18.87"/><line class="cls-1" x1="323.15" y1="110.55" x2="331.65" y2="102.05"/><line class="cls-1" x1="28.35" y1="110.55" x2="19.84" y2="102.05"/><polyline class="cls-1" points="22.68 110.55 28.35 110.55 28.35 104.88"/><polyline class="cls-1" points="331.65 107.72 331.65 102.05 325.98 102.05"/><line class="cls-1" x1="70.87" y1="56.69" x2="93.54" y2="56.69"/><line class="cls-1" x1="257.95" y1="56.69" x2="280.63" y2="56.69"/><line class="cls-1" x1="195.59" y1="56.69" x2="218.27" y2="56.69"/><text class="cls-10" transform="translate(46.64 18.54)"><tspan x="0" y="0">BRISTOL COMMUNAL MODULAR</tspan></text><text class="cls-10" transform="translate(224.07 18.54)"><tspan x="0" y="0">YORICK PLATFORM v1.0</tspan></text><line class="cls-1" x1="133.23" y1="56.69" x2="155.91" y2="56.69"/></g><g id="Face_lines"><path class="cls-3" d="m170.81,136.28c2.17-3.84,7.7-3.84,9.87,0l12.07,21.34,12.1,20.95c2.18,3.78-.55,8.5-4.91,8.5h-48.39c-4.36,0-7.09-4.72-4.91-8.5l12.1-20.95,12.07-21.34Z"/><circle class="cls-3" cx="255.12" cy="130.39" r="34.02"/><circle class="cls-3" cx="96.38" cy="130.39" r="34.02"/></g></svg>