<?xml version="1.0" encoding="UTF-8"?><svg xmlns="http://www.w3.org/2000/svg" viewBox="0 0 351.5 317.48"><defs><style>.cls-1{stroke:#fff;stroke-linecap:round;stroke-linejoin:round;}.cls-1,.cls-2{fill:none;}.cls-3{fill:#00538c;}.cls-4{fill:#9b9b9b;}.cls-5{fill:#5b5b5b;}.cls-6{fill:#4ff900;}.cls-2{stroke:#1d1d1b;stroke-miterlimit:10;}</style></defs><g id="Components_bottom"><rect class="cls-3" x="17.01" y="116.22" width="28.35" height="28.35" rx="2.83" ry="2.83"/><rect class="cls-3" x="36.85" y="42.52" width="28.35" height="28.35" rx="2.83" ry="2.83"/><rect class="cls-3" x="99.21" y="42.52" width="28.35" height="28.35" rx="2.83" ry="2.83"/><rect class="cls-3" x="223.94" y="42.52" width="28.35" height="28.35" rx="2.83" ry="2.83"/><rect class="cls-3" x="161.57" y="42.52" width="28.35" height="28.35" rx="2.83" ry="2.83"/><rect class="cls-3" x="187.09" y="96.38" width="22.68" height="22.68" rx="2.83" ry="2.83"/><rect class="cls-3" x="141.73" y="96.38" width="22.68" height="22.68" rx="2.83" ry="2.83"/><rect class="cls-3" x="286.3" y="42.52" width="28.35" height="28.35" rx="2.83" ry="2.83"/><rect class="cls-3" x="306.14" y="116.22" width="28.35" height="28.35" rx="2.83" ry="2.83"/><rect class="cls-3" x="161.57" y="8.5" width="28.35" height="17.01" rx="2.83" ry="2.83"/></g><g id="Components_top"><rect class="cls-4" x="170.08" y="5.67" width="11.34" height="22.68" transform="translate(192.76 -158.74) rotate(90)"/><circle class="cls-4" cx="51.02" cy="56.69" r="8.5"/><path class="cls-2" d="m51.02,53.86v2.83-5.67,2.83Z"/><circle class="cls-4" cx="113.24" cy="56.69" r="8.5"/><path class="cls-2" d="m113.24,53.86v2.83-5.67,2.83Z"/><circle class="cls-4" cx="238.11" cy="56.69" r="8.5"/><path class="cls-2" d="m238.11,53.86v2.83-5.67,2.83Z"/><circle class="cls-4" cx="175.75" cy="56.69" r="8.5"/><path class="cls-2" d="m175.75,53.86v2.83-5.67,2.83Z"/><circle class="cls-4" cx="300.47" cy="56.69" r="8.5"/><path class="cls-2" d="m300.47,53.86v2.83-5.67,2.83Z"/><circle class="cls-4" cx="153.07" cy="107.72" r="8.5"/><circle class="cls-2" cx="153.07" cy="107.72" r="5.67"/><circle class="cls-6" cx="198.43" cy="75.12" r="4.25"/><circle class="cls-6" cx="153.07" cy="75.12" r="4.25"/><circle class="cls-4" cx="198.43" cy="107.72" r="8.5"/><circle class="cls-2" cx="198.43" cy="107.72" r="5.67"/><circle class="cls-4" cx="31.18" cy="130.39" r="8.5"/><circle class="cls-5" cx="31.18" cy="130.39" r="5.67"/><circle class="cls-4" cx="320.31" cy="130.39" r="8.5"/><circle class="cls-5" cx="320.31" cy="130.39" r="5.67"/><line class="cls-1" x1="153.07" y1="90.71" x2="153.07" y2="85.04"/><line class="cls-1" x1="198.43" y1="90.71" x2="198.43" y2="85.04"/></g></svg>