<?xml version="1.0" encoding="utf-8"?>
<!-- Generator: Adobe Illustrator 27.2.0, SVG Export Plug-In . SVG Version: 6.00 Build 0)  -->
<svg version="1.1" id="Board" xmlns="http://www.w3.org/2000/svg" xmlns:xlink="http://www.w3.org/1999/xlink" x="0px" y="0px"
	 viewBox="0 0 351.5 317.5" style="enable-background:new 0 0 351.5 317.5;" xml:space="preserve">
<style type="text/css">
	.st0{fill:none;stroke:#1D1D1B;stroke-miterlimit:10;}
</style>
<path class="st0" d="M0,51v142.4c0,9.8,6.2,18.4,15.5,21.5l3,1C27.8,219,34,227.7,34,237.4v68.7c0,6.3,5.1,11.3,11.3,11.3h260.8
	c6.3,0,11.3-5.1,11.3-11.3v-68.7c0-9.8,6.2-18.4,15.5-21.5l3-1c9.3-3.1,15.5-11.8,15.5-21.5V51c0-28.2-22.9-51-51-51H51
	C22.8,0,0,22.8,0,51z"/>
</svg>
