%TF.GenerationSoftware,KiCad,Pcbnew,9.0.3*%
%TF.CreationDate,2025-07-31T22:21:15+01:00*%
%TF.ProjectId,Yorick,596f7269-636b-42e6-9b69-6361645f7063,1.2*%
%TF.SameCoordinates,Original*%
%TF.FileFunction,Legend,Bot*%
%TF.FilePolarity,Positive*%
%FSLAX46Y46*%
G04 Gerber Fmt 4.6, Leading zero omitted, Abs format (unit mm)*
G04 Created by KiCad (PCBNEW 9.0.3) date 2025-07-31 22:21:15*
%MOMM*%
%LPD*%
G01*
G04 APERTURE LIST*
%ADD10C,0.609600*%
%ADD11C,0.010000*%
G04 APERTURE END LIST*
D10*
G36*
X109939530Y-129642402D02*
G01*
X110336882Y-128580627D01*
X110435605Y-128357501D01*
X110499358Y-128269446D01*
X110579058Y-128224947D01*
X110701477Y-128208029D01*
X110653460Y-127976877D01*
X109267104Y-127976877D01*
X109315121Y-128208029D01*
X109459456Y-128225754D01*
X109535670Y-128268295D01*
X109569165Y-128330864D01*
X109568241Y-128407154D01*
X109529337Y-128541172D01*
X109234720Y-129307213D01*
X108672659Y-128599425D01*
X108599694Y-128489279D01*
X108564899Y-128393212D01*
X108564144Y-128313842D01*
X108595669Y-128259997D01*
X108664092Y-128223253D01*
X108790841Y-128208029D01*
X108742823Y-127976877D01*
X107799044Y-127976877D01*
X107847061Y-128208029D01*
X107931928Y-128218502D01*
X108017168Y-128250804D01*
X108104828Y-128307972D01*
X108242349Y-128439539D01*
X108492874Y-128730449D01*
X109196009Y-129596619D01*
X109326288Y-130223261D01*
X109344079Y-130354008D01*
X109338628Y-130439161D01*
X109318099Y-130492753D01*
X109277758Y-130530054D01*
X109201053Y-130557348D01*
X109068149Y-130568687D01*
X109025343Y-130568687D01*
X109073360Y-130799840D01*
X110552959Y-130799840D01*
X110504942Y-130568687D01*
X110460461Y-130568687D01*
X110324998Y-130557843D01*
X110234957Y-130530241D01*
X110177383Y-130490706D01*
X110113659Y-130394625D01*
X110060318Y-130223261D01*
X109939530Y-129642402D01*
G37*
G36*
X107267515Y-129047476D02*
G01*
X107463341Y-129092847D01*
X107650225Y-129168330D01*
X107830125Y-129275388D01*
X107988323Y-129408948D01*
X108112413Y-129563417D01*
X108205144Y-129741253D01*
X108266932Y-129946511D01*
X108292276Y-130172553D01*
X108271231Y-130356055D01*
X108210456Y-130507196D01*
X108110411Y-130633454D01*
X107978972Y-130735119D01*
X107827051Y-130808942D01*
X107650735Y-130855069D01*
X107444871Y-130871307D01*
X107235910Y-130855554D01*
X107038290Y-130808931D01*
X106849546Y-130731281D01*
X106667663Y-130620985D01*
X106507074Y-130483692D01*
X106382011Y-130327577D01*
X106289397Y-130150476D01*
X106228436Y-129948745D01*
X106204757Y-129766245D01*
X106212278Y-129611958D01*
X106241385Y-129500735D01*
X106874884Y-129500735D01*
X106881159Y-129668531D01*
X106925616Y-129939253D01*
X106999248Y-130231123D01*
X107067915Y-130408773D01*
X107129968Y-130507084D01*
X107212808Y-130583404D01*
X107298044Y-130626148D01*
X107388665Y-130640155D01*
X107495648Y-130621193D01*
X107565149Y-130569556D01*
X107606789Y-130481214D01*
X107619117Y-130372674D01*
X107608792Y-130195530D01*
X107562867Y-129922689D01*
X107490221Y-129641238D01*
X107420947Y-129473316D01*
X107357212Y-129382961D01*
X107272820Y-129313962D01*
X107190124Y-129275649D01*
X107106517Y-129263290D01*
X107005318Y-129280111D01*
X106936477Y-129326157D01*
X106891557Y-129403806D01*
X106874884Y-129500735D01*
X106241385Y-129500735D01*
X106246728Y-129480317D01*
X106306423Y-129366731D01*
X106392402Y-129267943D01*
X106526895Y-129166843D01*
X106680471Y-129093647D01*
X106856725Y-129048101D01*
X107060361Y-129032138D01*
X107267515Y-129047476D01*
G37*
G36*
X104885444Y-130562359D02*
G01*
X105054801Y-130699483D01*
X105219517Y-130793512D01*
X105392382Y-130852110D01*
X105566618Y-130871307D01*
X105712759Y-130856373D01*
X105839237Y-130813367D01*
X105950197Y-130742703D01*
X106008940Y-130673442D01*
X106045519Y-130575879D01*
X106056352Y-130439616D01*
X106032273Y-130250806D01*
X105896783Y-129599038D01*
X105881629Y-129452239D01*
X105900877Y-129381100D01*
X105931906Y-129352366D01*
X105990042Y-129331481D01*
X106089782Y-129322846D01*
X106042695Y-129096533D01*
X105128136Y-129096533D01*
X105359660Y-130210047D01*
X105376537Y-130361134D01*
X105360033Y-130443247D01*
X105311394Y-130494802D01*
X105221564Y-130513970D01*
X105142721Y-130499229D01*
X105042710Y-130447714D01*
X104942713Y-130369995D01*
X104820119Y-130248759D01*
X104685001Y-129598294D01*
X104669758Y-129455134D01*
X104687420Y-129382961D01*
X104717812Y-129354068D01*
X104781085Y-129332188D01*
X104897356Y-129322846D01*
X104850269Y-129096533D01*
X103916354Y-129096533D01*
X104166117Y-130297893D01*
X104181926Y-130443132D01*
X104165001Y-130514528D01*
X104135136Y-130542778D01*
X104072191Y-130564300D01*
X103955624Y-130573526D01*
X104002710Y-130799840D01*
X104101908Y-130799840D01*
X104486084Y-130816531D01*
X104949653Y-130871307D01*
X104885444Y-130562359D01*
G37*
G36*
X102603884Y-129456103D02*
G01*
X102431953Y-129261565D01*
X102267206Y-129132825D01*
X102147920Y-129071891D01*
X102030127Y-129036641D01*
X101911916Y-129025065D01*
X101802423Y-129039134D01*
X101725365Y-129076973D01*
X101672016Y-129137106D01*
X101629109Y-129253411D01*
X101632933Y-129380727D01*
X101674496Y-129495531D01*
X101747578Y-129592338D01*
X101845900Y-129658112D01*
X101964028Y-129680183D01*
X102027844Y-129672717D01*
X102071601Y-129653011D01*
X102109883Y-129616652D01*
X102165588Y-129539854D01*
X102229888Y-129476111D01*
X102305917Y-129456103D01*
X102385192Y-129472257D01*
X102461248Y-129523446D01*
X102537442Y-129620627D01*
X102623238Y-129808334D01*
X102705688Y-130114199D01*
X102744028Y-130298265D01*
X102759634Y-130439790D01*
X102743655Y-130512481D01*
X102714837Y-130542197D01*
X102655932Y-130564215D01*
X102548981Y-130573526D01*
X102509897Y-130573526D01*
X102556984Y-130799840D01*
X103792030Y-130799840D01*
X103744944Y-130573526D01*
X103623238Y-130564796D01*
X103546610Y-130543182D01*
X103501135Y-130513412D01*
X103451325Y-130438271D01*
X103408079Y-130298265D01*
X103284872Y-129706239D01*
X103270010Y-129561556D01*
X103288780Y-129489976D01*
X103320061Y-129461838D01*
X103385835Y-129440246D01*
X103507463Y-129430978D01*
X103461307Y-129209131D01*
X102574851Y-129025065D01*
X102568666Y-129204857D01*
X102603884Y-129456103D01*
G37*
G36*
X100605589Y-130871307D02*
G01*
X100486662Y-130299568D01*
X100291988Y-130299568D01*
X100244024Y-130428887D01*
X100172438Y-130525509D01*
X100075999Y-130595520D01*
X99949056Y-130640432D01*
X99782411Y-130656905D01*
X99612810Y-130640423D01*
X99475510Y-130594371D01*
X99394943Y-130545664D01*
X99349635Y-130498789D01*
X99329411Y-130452553D01*
X99332685Y-130391013D01*
X99370542Y-130346096D01*
X99449108Y-130313455D01*
X99645431Y-130262531D01*
X99957748Y-130185041D01*
X100135653Y-130123691D01*
X100230666Y-130071027D01*
X100305692Y-130003957D01*
X100363269Y-129921386D01*
X100399784Y-129827850D01*
X100412718Y-129725026D01*
X100400678Y-129609460D01*
X100344429Y-129447982D01*
X100247406Y-129308352D01*
X100104386Y-129186798D01*
X99936118Y-129098937D01*
X99740910Y-129044278D01*
X99512733Y-129025065D01*
X99335166Y-129037283D01*
X99160229Y-129074004D01*
X98986405Y-129135989D01*
X98885904Y-129025065D01*
X98716913Y-129025065D01*
X98805503Y-129537249D01*
X98968166Y-129537249D01*
X99016984Y-129430737D01*
X99091657Y-129347679D01*
X99196107Y-129284838D01*
X99338455Y-129243146D01*
X99530041Y-129227556D01*
X99675797Y-129241106D01*
X99791344Y-129278551D01*
X99879972Y-129339951D01*
X99916226Y-129408644D01*
X99911271Y-129481178D01*
X99862439Y-129531293D01*
X99765154Y-129568296D01*
X99503799Y-129631236D01*
X99224147Y-129701667D01*
X99059175Y-129762259D01*
X98970228Y-129814770D01*
X98901702Y-129879354D01*
X98850915Y-129956933D01*
X98819829Y-130044119D01*
X98809603Y-130141829D01*
X98822067Y-130253412D01*
X98862834Y-130381125D01*
X98929474Y-130496652D01*
X99024153Y-130602157D01*
X99151115Y-130698594D01*
X99339251Y-130793783D01*
X99544851Y-130851508D01*
X99772174Y-130871307D01*
X99948094Y-130858690D01*
X100125781Y-130820342D01*
X100306877Y-130754800D01*
X100364395Y-130803772D01*
X100412962Y-130871307D01*
X100605589Y-130871307D01*
G37*
G36*
X97416924Y-129047476D02*
G01*
X97612750Y-129092847D01*
X97799634Y-129168330D01*
X97979533Y-129275388D01*
X98137732Y-129408948D01*
X98261821Y-129563417D01*
X98354552Y-129741253D01*
X98416341Y-129946511D01*
X98441685Y-130172553D01*
X98420639Y-130356055D01*
X98359865Y-130507196D01*
X98259820Y-130633454D01*
X98128380Y-130735119D01*
X97976460Y-130808942D01*
X97800143Y-130855069D01*
X97594279Y-130871307D01*
X97385319Y-130855554D01*
X97187699Y-130808931D01*
X96998954Y-130731281D01*
X96817071Y-130620985D01*
X96656482Y-130483692D01*
X96531420Y-130327577D01*
X96438805Y-130150476D01*
X96377845Y-129948745D01*
X96354166Y-129766245D01*
X96361687Y-129611958D01*
X96390793Y-129500735D01*
X97024292Y-129500735D01*
X97030568Y-129668531D01*
X97075024Y-129939253D01*
X97148657Y-130231123D01*
X97217324Y-130408773D01*
X97279376Y-130507084D01*
X97362217Y-130583404D01*
X97447453Y-130626148D01*
X97538073Y-130640155D01*
X97645057Y-130621193D01*
X97714557Y-130569556D01*
X97756198Y-130481214D01*
X97768525Y-130372674D01*
X97758201Y-130195530D01*
X97712275Y-129922689D01*
X97639629Y-129641238D01*
X97570356Y-129473316D01*
X97506620Y-129382961D01*
X97422229Y-129313962D01*
X97339533Y-129275649D01*
X97255926Y-129263290D01*
X97154727Y-129280111D01*
X97085886Y-129326157D01*
X97040965Y-129403806D01*
X97024292Y-129500735D01*
X96390793Y-129500735D01*
X96396136Y-129480317D01*
X96455831Y-129366731D01*
X96541810Y-129267943D01*
X96676303Y-129166843D01*
X96829880Y-129093647D01*
X97006134Y-129048101D01*
X97209770Y-129032138D01*
X97416924Y-129047476D01*
G37*
G36*
X95076542Y-129629933D02*
G01*
X95216685Y-130303848D01*
X95231545Y-130438842D01*
X95216499Y-130511364D01*
X95170599Y-130555803D01*
X95074681Y-130573526D01*
X95121768Y-130799840D01*
X96263571Y-130799840D01*
X96216485Y-130573526D01*
X96060845Y-130556289D01*
X95984402Y-130516575D01*
X95935730Y-130443930D01*
X95892090Y-130302359D01*
X95771674Y-129722989D01*
X95756185Y-129578295D01*
X95773536Y-129506912D01*
X95803585Y-129478625D01*
X95866503Y-129457117D01*
X95982540Y-129447914D01*
X95935826Y-129223276D01*
X94997816Y-129072524D01*
X94990605Y-129163174D01*
X95012147Y-129320427D01*
X94842714Y-129187450D01*
X94683844Y-129098394D01*
X94519658Y-129042874D01*
X94362054Y-129025065D01*
X94178939Y-129045377D01*
X94044779Y-129100243D01*
X93947208Y-129186053D01*
X93884026Y-129299784D01*
X93858237Y-129443007D01*
X93875927Y-129626955D01*
X94016070Y-130301429D01*
X94030329Y-130444555D01*
X94010487Y-130515459D01*
X93978750Y-130543587D01*
X93916050Y-130564651D01*
X93804646Y-130573526D01*
X93851732Y-130799840D01*
X94981997Y-130799840D01*
X94934538Y-130571293D01*
X94854444Y-130559727D01*
X94783972Y-130525509D01*
X94730564Y-130458695D01*
X94680680Y-130302732D01*
X94550773Y-129677950D01*
X94532499Y-129520765D01*
X94548353Y-129444936D01*
X94592939Y-129398903D01*
X94667280Y-129382403D01*
X94753245Y-129396458D01*
X94855812Y-129443820D01*
X94957073Y-129516533D01*
X95076542Y-129629933D01*
G37*
G36*
X91406071Y-129040871D02*
G01*
X91534042Y-129098116D01*
X91711618Y-129216204D01*
X91812567Y-129137516D01*
X91951704Y-129078108D01*
X92111920Y-129044576D01*
X92318719Y-129032138D01*
X92574782Y-129050409D01*
X92795985Y-129102368D01*
X92987981Y-129185309D01*
X93116654Y-129272817D01*
X93214128Y-129375256D01*
X93284303Y-129493998D01*
X93328568Y-129632166D01*
X93340316Y-129753002D01*
X93324974Y-129866566D01*
X93282598Y-129975917D01*
X93214799Y-130069334D01*
X93118918Y-130142091D01*
X92988540Y-130194786D01*
X93131419Y-130235876D01*
X93246082Y-130288718D01*
X93337130Y-130352052D01*
X93412605Y-130431551D01*
X93466830Y-130523444D01*
X93500909Y-130630104D01*
X93511033Y-130748525D01*
X93490832Y-130840552D01*
X93443756Y-130913871D01*
X93366535Y-130972739D01*
X93236873Y-131022345D01*
X93027257Y-131059070D01*
X92707137Y-131073798D01*
X92312625Y-131086513D01*
X92160523Y-131111765D01*
X92101949Y-131147586D01*
X92074229Y-131203529D01*
X92077144Y-131290247D01*
X92112989Y-131379169D01*
X92185743Y-131462633D01*
X92306436Y-131542431D01*
X92442744Y-131595981D01*
X92623575Y-131632062D01*
X92860122Y-131645537D01*
X93051831Y-131635258D01*
X93185000Y-131608907D01*
X93274223Y-131571836D01*
X93342375Y-131513851D01*
X93373847Y-131442751D01*
X93371374Y-131351292D01*
X93349971Y-131287083D01*
X93312004Y-131214685D01*
X93400749Y-131177383D01*
X93474481Y-131166296D01*
X93562141Y-131182710D01*
X93650172Y-131234972D01*
X93718769Y-131313350D01*
X93756815Y-131411965D01*
X93758909Y-131520633D01*
X93718376Y-131622003D01*
X93627466Y-131722402D01*
X93543527Y-131773394D01*
X93411762Y-131816715D01*
X93214793Y-131847801D01*
X92931961Y-131859939D01*
X92647346Y-131844935D01*
X92411203Y-131803288D01*
X92216040Y-131739058D01*
X92055369Y-131654843D01*
X91907609Y-131540739D01*
X91796701Y-131415155D01*
X91718036Y-131276881D01*
X91669371Y-131123304D01*
X91651149Y-130963803D01*
X91665475Y-130840210D01*
X91706371Y-130743545D01*
X91772849Y-130667327D01*
X91858790Y-130612684D01*
X91981857Y-130568284D01*
X92153210Y-130537568D01*
X92386092Y-130525881D01*
X92531074Y-130525881D01*
X92794424Y-130525881D01*
X92933813Y-130514827D01*
X93004126Y-130489696D01*
X93033766Y-130457498D01*
X93036929Y-130416074D01*
X93003820Y-130349292D01*
X92931589Y-130300126D01*
X92826769Y-130272531D01*
X92629528Y-130254528D01*
X92367603Y-130230758D01*
X92163331Y-130186999D01*
X92006231Y-130127647D01*
X91887309Y-130055573D01*
X91749770Y-129926458D01*
X91656925Y-129785269D01*
X91603487Y-129629002D01*
X91591203Y-129482180D01*
X92200342Y-129482180D01*
X92215426Y-129601830D01*
X92271276Y-129791095D01*
X92337889Y-129909661D01*
X92396871Y-129967837D01*
X92461563Y-130001061D01*
X92534610Y-130012209D01*
X92608506Y-130000351D01*
X92660460Y-129967675D01*
X92696156Y-129912825D01*
X92716353Y-129801146D01*
X92695970Y-129616161D01*
X92645814Y-129454386D01*
X92581697Y-129351508D01*
X92524963Y-129302319D01*
X92460235Y-129273268D01*
X92384789Y-129263290D01*
X92297093Y-129283414D01*
X92232176Y-129343319D01*
X92208152Y-129399576D01*
X92200342Y-129482180D01*
X91591203Y-129482180D01*
X91590527Y-129474100D01*
X91617259Y-129341085D01*
X91557836Y-129306747D01*
X91514338Y-129297349D01*
X91485147Y-129303562D01*
X91454596Y-129323963D01*
X91379525Y-129379933D01*
X91328598Y-129394314D01*
X91247933Y-129376313D01*
X91190616Y-129323608D01*
X91152535Y-129225137D01*
X91147696Y-129132871D01*
X91172190Y-129075000D01*
X91223568Y-129039153D01*
X91314267Y-129025065D01*
X91406071Y-129040871D01*
G37*
G36*
X91276114Y-130871307D02*
G01*
X91157187Y-130299568D01*
X90962513Y-130299568D01*
X90914550Y-130428887D01*
X90842963Y-130525509D01*
X90746524Y-130595520D01*
X90619581Y-130640432D01*
X90452936Y-130656905D01*
X90283335Y-130640423D01*
X90146035Y-130594371D01*
X90065468Y-130545664D01*
X90020160Y-130498789D01*
X89999936Y-130452553D01*
X90003210Y-130391013D01*
X90041067Y-130346096D01*
X90119633Y-130313455D01*
X90315956Y-130262531D01*
X90628273Y-130185041D01*
X90806178Y-130123691D01*
X90901191Y-130071027D01*
X90976217Y-130003957D01*
X91033794Y-129921386D01*
X91070309Y-129827850D01*
X91083243Y-129725026D01*
X91071203Y-129609460D01*
X91014954Y-129447982D01*
X90917931Y-129308352D01*
X90774911Y-129186798D01*
X90606643Y-129098937D01*
X90411435Y-129044278D01*
X90183258Y-129025065D01*
X90005691Y-129037283D01*
X89830754Y-129074004D01*
X89656930Y-129135989D01*
X89556429Y-129025065D01*
X89387438Y-129025065D01*
X89476028Y-129537249D01*
X89638691Y-129537249D01*
X89687509Y-129430737D01*
X89762182Y-129347679D01*
X89866632Y-129284838D01*
X90008980Y-129243146D01*
X90200566Y-129227556D01*
X90346322Y-129241106D01*
X90461869Y-129278551D01*
X90550497Y-129339951D01*
X90586751Y-129408644D01*
X90581796Y-129481178D01*
X90532964Y-129531293D01*
X90435679Y-129568296D01*
X90174324Y-129631236D01*
X89894672Y-129701667D01*
X89729700Y-129762259D01*
X89640753Y-129814770D01*
X89572227Y-129879354D01*
X89521440Y-129956933D01*
X89490354Y-130044119D01*
X89480128Y-130141829D01*
X89492592Y-130253412D01*
X89533359Y-130381125D01*
X89599999Y-130496652D01*
X89694678Y-130602157D01*
X89821640Y-130698594D01*
X90009776Y-130793783D01*
X90215376Y-130851508D01*
X90442699Y-130871307D01*
X90618619Y-130858690D01*
X90796306Y-130820342D01*
X90977402Y-130754800D01*
X91034920Y-130803772D01*
X91083487Y-130871307D01*
X91276114Y-130871307D01*
G37*
G36*
X88625864Y-129858852D02*
G01*
X88482185Y-129168000D01*
X88285835Y-129168000D01*
X88234683Y-129221269D01*
X88158534Y-129239468D01*
X88086183Y-129228016D01*
X88019520Y-129193268D01*
X87956043Y-129131336D01*
X87884052Y-129007831D01*
X87827625Y-128821458D01*
X87792291Y-128597323D01*
X87787795Y-128437168D01*
X87804919Y-128325653D01*
X87849985Y-128231756D01*
X87917136Y-128178983D01*
X88012807Y-128160384D01*
X88108545Y-128179797D01*
X88191328Y-128239126D01*
X88265177Y-128349289D01*
X88334258Y-128463466D01*
X88404917Y-128535457D01*
X88477909Y-128575271D01*
X88556071Y-128588258D01*
X88633275Y-128573763D01*
X88698262Y-128530377D01*
X88737503Y-128465709D01*
X88738648Y-128383720D01*
X88696586Y-128278488D01*
X88609322Y-128174353D01*
X88462643Y-128068817D01*
X88297676Y-127992582D01*
X88112568Y-127945564D01*
X87903187Y-127929232D01*
X87696546Y-127946144D01*
X87530098Y-127992982D01*
X87395938Y-128066174D01*
X87288269Y-128165409D01*
X87207609Y-128288219D01*
X87159629Y-128428104D01*
X87144610Y-128590016D01*
X87166738Y-128780327D01*
X87214987Y-128945216D01*
X87285509Y-129088871D01*
X87378263Y-129214270D01*
X87494669Y-129323405D01*
X87674037Y-129437679D01*
X87855509Y-129503578D01*
X88043144Y-129525337D01*
X88165093Y-129514442D01*
X88291046Y-129480856D01*
X88369586Y-129858852D01*
X88625864Y-129858852D01*
G37*
G36*
X88991390Y-130496103D02*
G01*
X88959581Y-130399596D01*
X88906182Y-130312070D01*
X88828913Y-130231822D01*
X88737262Y-130168985D01*
X88643862Y-130132844D01*
X88546394Y-130120899D01*
X88450559Y-130133710D01*
X88373200Y-130170172D01*
X88309844Y-130230892D01*
X88266906Y-130307780D01*
X88249112Y-130394701D01*
X88257546Y-130496103D01*
X88289996Y-130595337D01*
X88343645Y-130683539D01*
X88420395Y-130762617D01*
X88511660Y-130824110D01*
X88604893Y-130859569D01*
X88702356Y-130871307D01*
X88800923Y-130858131D01*
X88878710Y-130820955D01*
X88940767Y-130759453D01*
X88982516Y-130681393D01*
X88999629Y-130594930D01*
X88991390Y-130496103D01*
G37*
G36*
X129751530Y-121514402D02*
G01*
X130148882Y-120452627D01*
X130247605Y-120229501D01*
X130311358Y-120141446D01*
X130391058Y-120096947D01*
X130513477Y-120080029D01*
X130465460Y-119848877D01*
X129079104Y-119848877D01*
X129127121Y-120080029D01*
X129271456Y-120097754D01*
X129347670Y-120140295D01*
X129381165Y-120202864D01*
X129380241Y-120279154D01*
X129341337Y-120413172D01*
X129046720Y-121179213D01*
X128484659Y-120471425D01*
X128411694Y-120361279D01*
X128376899Y-120265212D01*
X128376144Y-120185842D01*
X128407669Y-120131997D01*
X128476092Y-120095253D01*
X128602841Y-120080029D01*
X128554823Y-119848877D01*
X127611044Y-119848877D01*
X127659061Y-120080029D01*
X127743928Y-120090502D01*
X127829168Y-120122804D01*
X127916828Y-120179972D01*
X128054349Y-120311539D01*
X128304874Y-120602449D01*
X129008009Y-121468619D01*
X129138288Y-122095261D01*
X129156079Y-122226008D01*
X129150628Y-122311161D01*
X129130099Y-122364753D01*
X129089758Y-122402054D01*
X129013053Y-122429348D01*
X128880149Y-122440687D01*
X128837343Y-122440687D01*
X128885360Y-122671840D01*
X130364959Y-122671840D01*
X130316942Y-122440687D01*
X130272461Y-122440687D01*
X130136998Y-122429843D01*
X130046957Y-122402241D01*
X129989383Y-122362706D01*
X129925659Y-122266625D01*
X129872318Y-122095261D01*
X129751530Y-121514402D01*
G37*
G36*
X127079515Y-120919476D02*
G01*
X127275341Y-120964847D01*
X127462225Y-121040330D01*
X127642125Y-121147388D01*
X127800323Y-121280948D01*
X127924413Y-121435417D01*
X128017144Y-121613253D01*
X128078932Y-121818511D01*
X128104276Y-122044553D01*
X128083231Y-122228055D01*
X128022456Y-122379196D01*
X127922411Y-122505454D01*
X127790972Y-122607119D01*
X127639051Y-122680942D01*
X127462735Y-122727069D01*
X127256871Y-122743307D01*
X127047910Y-122727554D01*
X126850290Y-122680931D01*
X126661546Y-122603281D01*
X126479663Y-122492985D01*
X126319074Y-122355692D01*
X126194011Y-122199577D01*
X126101397Y-122022476D01*
X126040436Y-121820745D01*
X126016757Y-121638245D01*
X126024278Y-121483958D01*
X126053385Y-121372735D01*
X126686884Y-121372735D01*
X126693159Y-121540531D01*
X126737616Y-121811253D01*
X126811248Y-122103123D01*
X126879915Y-122280773D01*
X126941968Y-122379084D01*
X127024808Y-122455404D01*
X127110044Y-122498148D01*
X127200665Y-122512155D01*
X127307648Y-122493193D01*
X127377149Y-122441556D01*
X127418789Y-122353214D01*
X127431117Y-122244674D01*
X127420792Y-122067530D01*
X127374867Y-121794689D01*
X127302221Y-121513238D01*
X127232947Y-121345316D01*
X127169212Y-121254961D01*
X127084820Y-121185962D01*
X127002124Y-121147649D01*
X126918517Y-121135290D01*
X126817318Y-121152111D01*
X126748477Y-121198157D01*
X126703557Y-121275806D01*
X126686884Y-121372735D01*
X126053385Y-121372735D01*
X126058728Y-121352317D01*
X126118423Y-121238731D01*
X126204402Y-121139943D01*
X126338895Y-121038843D01*
X126492471Y-120965647D01*
X126668725Y-120920101D01*
X126872361Y-120904138D01*
X127079515Y-120919476D01*
G37*
G36*
X124697444Y-122434359D02*
G01*
X124866801Y-122571483D01*
X125031517Y-122665512D01*
X125204382Y-122724110D01*
X125378618Y-122743307D01*
X125524759Y-122728373D01*
X125651237Y-122685367D01*
X125762197Y-122614703D01*
X125820940Y-122545442D01*
X125857519Y-122447879D01*
X125868352Y-122311616D01*
X125844273Y-122122806D01*
X125708783Y-121471038D01*
X125693629Y-121324239D01*
X125712877Y-121253100D01*
X125743906Y-121224366D01*
X125802042Y-121203481D01*
X125901782Y-121194846D01*
X125854695Y-120968533D01*
X124940136Y-120968533D01*
X125171660Y-122082047D01*
X125188537Y-122233134D01*
X125172033Y-122315247D01*
X125123394Y-122366802D01*
X125033564Y-122385970D01*
X124954721Y-122371229D01*
X124854710Y-122319714D01*
X124754713Y-122241995D01*
X124632119Y-122120759D01*
X124497001Y-121470294D01*
X124481758Y-121327134D01*
X124499420Y-121254961D01*
X124529812Y-121226068D01*
X124593085Y-121204188D01*
X124709356Y-121194846D01*
X124662269Y-120968533D01*
X123728354Y-120968533D01*
X123978117Y-122169893D01*
X123993926Y-122315132D01*
X123977001Y-122386528D01*
X123947136Y-122414778D01*
X123884191Y-122436300D01*
X123767624Y-122445526D01*
X123814710Y-122671840D01*
X123913908Y-122671840D01*
X124298084Y-122688531D01*
X124761653Y-122743307D01*
X124697444Y-122434359D01*
G37*
G36*
X122415884Y-121328103D02*
G01*
X122243953Y-121133565D01*
X122079206Y-121004825D01*
X121959920Y-120943891D01*
X121842127Y-120908641D01*
X121723916Y-120897065D01*
X121614423Y-120911134D01*
X121537365Y-120948973D01*
X121484016Y-121009106D01*
X121441109Y-121125411D01*
X121444933Y-121252727D01*
X121486496Y-121367531D01*
X121559578Y-121464338D01*
X121657900Y-121530112D01*
X121776028Y-121552183D01*
X121839844Y-121544717D01*
X121883601Y-121525011D01*
X121921883Y-121488652D01*
X121977588Y-121411854D01*
X122041888Y-121348111D01*
X122117917Y-121328103D01*
X122197192Y-121344257D01*
X122273248Y-121395446D01*
X122349442Y-121492627D01*
X122435238Y-121680334D01*
X122517688Y-121986199D01*
X122556028Y-122170265D01*
X122571634Y-122311790D01*
X122555655Y-122384481D01*
X122526837Y-122414197D01*
X122467932Y-122436215D01*
X122360981Y-122445526D01*
X122321897Y-122445526D01*
X122368984Y-122671840D01*
X123604030Y-122671840D01*
X123556944Y-122445526D01*
X123435238Y-122436796D01*
X123358610Y-122415182D01*
X123313135Y-122385412D01*
X123263325Y-122310271D01*
X123220079Y-122170265D01*
X123096872Y-121578239D01*
X123082010Y-121433556D01*
X123100780Y-121361976D01*
X123132061Y-121333838D01*
X123197835Y-121312246D01*
X123319463Y-121302978D01*
X123273307Y-121081131D01*
X122386851Y-120897065D01*
X122380666Y-121076857D01*
X122415884Y-121328103D01*
G37*
G36*
X118236767Y-120912871D02*
G01*
X118364737Y-120970116D01*
X118542314Y-121088204D01*
X118643262Y-121009516D01*
X118782399Y-120950108D01*
X118942616Y-120916576D01*
X119149414Y-120904138D01*
X119405477Y-120922409D01*
X119626680Y-120974368D01*
X119818677Y-121057309D01*
X119947349Y-121144817D01*
X120044823Y-121247256D01*
X120114999Y-121365998D01*
X120159264Y-121504166D01*
X120171011Y-121625002D01*
X120155669Y-121738566D01*
X120113294Y-121847917D01*
X120045494Y-121941334D01*
X119949613Y-122014091D01*
X119819235Y-122066786D01*
X119962114Y-122107876D01*
X120076777Y-122160718D01*
X120167825Y-122224052D01*
X120243300Y-122303551D01*
X120297525Y-122395444D01*
X120331604Y-122502104D01*
X120341728Y-122620525D01*
X120321527Y-122712552D01*
X120274451Y-122785871D01*
X120197231Y-122844739D01*
X120067568Y-122894345D01*
X119857953Y-122931070D01*
X119537832Y-122945798D01*
X119143320Y-122958513D01*
X118991218Y-122983765D01*
X118932644Y-123019586D01*
X118904924Y-123075529D01*
X118907840Y-123162247D01*
X118943684Y-123251169D01*
X119016438Y-123334633D01*
X119137131Y-123414431D01*
X119273439Y-123467981D01*
X119454270Y-123504062D01*
X119690817Y-123517537D01*
X119882526Y-123507258D01*
X120015696Y-123480907D01*
X120104919Y-123443836D01*
X120173070Y-123385851D01*
X120204542Y-123314751D01*
X120202070Y-123223292D01*
X120180667Y-123159083D01*
X120142700Y-123086685D01*
X120231444Y-123049383D01*
X120305176Y-123038296D01*
X120392836Y-123054710D01*
X120480867Y-123106972D01*
X120549464Y-123185350D01*
X120587510Y-123283965D01*
X120589604Y-123392633D01*
X120549071Y-123494003D01*
X120458161Y-123594402D01*
X120374222Y-123645394D01*
X120242457Y-123688715D01*
X120045488Y-123719801D01*
X119762657Y-123731939D01*
X119478041Y-123716935D01*
X119241899Y-123675288D01*
X119046735Y-123611058D01*
X118886064Y-123526843D01*
X118738304Y-123412739D01*
X118627396Y-123287155D01*
X118548731Y-123148881D01*
X118500066Y-122995304D01*
X118481844Y-122835803D01*
X118496170Y-122712210D01*
X118537066Y-122615545D01*
X118603545Y-122539327D01*
X118689485Y-122484684D01*
X118812553Y-122440284D01*
X118983905Y-122409568D01*
X119216787Y-122397881D01*
X119361769Y-122397881D01*
X119625119Y-122397881D01*
X119764508Y-122386827D01*
X119834822Y-122361696D01*
X119864461Y-122329498D01*
X119867625Y-122288074D01*
X119834516Y-122221292D01*
X119762285Y-122172126D01*
X119657464Y-122144531D01*
X119460223Y-122126528D01*
X119198298Y-122102758D01*
X118994026Y-122058999D01*
X118836926Y-121999647D01*
X118718004Y-121927573D01*
X118580466Y-121798458D01*
X118487621Y-121657269D01*
X118434182Y-121501002D01*
X118421899Y-121354180D01*
X119031037Y-121354180D01*
X119046122Y-121473830D01*
X119101971Y-121663095D01*
X119168584Y-121781661D01*
X119227566Y-121839837D01*
X119292258Y-121873061D01*
X119365305Y-121884209D01*
X119439201Y-121872351D01*
X119491156Y-121839675D01*
X119526852Y-121784825D01*
X119547048Y-121673146D01*
X119526665Y-121488161D01*
X119476510Y-121326386D01*
X119412392Y-121223508D01*
X119355659Y-121174319D01*
X119290930Y-121145268D01*
X119215484Y-121135290D01*
X119127788Y-121155414D01*
X119062872Y-121215319D01*
X119038847Y-121271576D01*
X119031037Y-121354180D01*
X118421899Y-121354180D01*
X118421223Y-121346100D01*
X118447954Y-121213085D01*
X118388531Y-121178747D01*
X118345034Y-121169349D01*
X118315842Y-121175562D01*
X118285291Y-121195963D01*
X118210220Y-121251933D01*
X118159293Y-121266314D01*
X118078628Y-121248313D01*
X118021312Y-121195608D01*
X117983230Y-121097137D01*
X117978392Y-121004871D01*
X118002885Y-120947000D01*
X118054264Y-120911153D01*
X118144962Y-120897065D01*
X118236767Y-120912871D01*
G37*
G36*
X117063661Y-120913745D02*
G01*
X117294881Y-120960117D01*
X117486122Y-121031997D01*
X117622489Y-121110968D01*
X117715606Y-121191526D01*
X117774687Y-121273875D01*
X117805864Y-121359743D01*
X117805399Y-121439861D01*
X117768642Y-121508261D01*
X117701821Y-121554173D01*
X117597045Y-121571353D01*
X117478360Y-121555256D01*
X117395113Y-121511797D01*
X117330980Y-121439060D01*
X117273395Y-121320473D01*
X117228813Y-121238081D01*
X117163330Y-121179569D01*
X117072619Y-121142111D01*
X116948069Y-121128218D01*
X116848615Y-121140766D01*
X116774053Y-121175304D01*
X116743162Y-121212901D01*
X116729285Y-121278183D01*
X116740553Y-121387287D01*
X116772751Y-121542133D01*
X117213468Y-121696583D01*
X117511893Y-121824420D01*
X117702199Y-121929248D01*
X117866279Y-122059795D01*
X117968153Y-122192705D01*
X118020266Y-122330880D01*
X118028041Y-122434886D01*
X118007264Y-122522687D01*
X117958849Y-122599442D01*
X117887685Y-122655548D01*
X117782204Y-122693162D01*
X117629615Y-122707573D01*
X117453777Y-122693841D01*
X117278792Y-122652298D01*
X117108018Y-122584422D01*
X116933180Y-122486657D01*
X116878575Y-122577091D01*
X116791277Y-122644684D01*
X116661593Y-122690143D01*
X116473853Y-122707573D01*
X116339319Y-122696114D01*
X116215095Y-122662435D01*
X116099021Y-122606514D01*
X116001236Y-122527621D01*
X115930711Y-122424782D01*
X115886108Y-122292727D01*
X116047654Y-122292727D01*
X116087614Y-122361824D01*
X116132820Y-122398090D01*
X116185378Y-122409792D01*
X116235113Y-122393471D01*
X116259469Y-122342826D01*
X116251820Y-122230565D01*
X116157414Y-121776264D01*
X116821512Y-121776264D01*
X116923130Y-122265555D01*
X117001748Y-122327752D01*
X117074626Y-122370150D01*
X117149674Y-122396926D01*
X117222028Y-122405512D01*
X117294761Y-122389072D01*
X117342629Y-122341861D01*
X117366413Y-122275100D01*
X117363473Y-122198554D01*
X117323143Y-122099722D01*
X117235242Y-121995877D01*
X117099897Y-121903347D01*
X116821512Y-121776264D01*
X116157414Y-121776264D01*
X116087296Y-121438841D01*
X116066606Y-121295916D01*
X116069429Y-121201360D01*
X116098257Y-121118457D01*
X116163789Y-121034603D01*
X116257764Y-120970125D01*
X116397175Y-120926285D01*
X116559853Y-120905181D01*
X116784662Y-120897065D01*
X117063661Y-120913745D01*
G37*
G36*
X114636731Y-121523708D02*
G01*
X114772221Y-122174732D01*
X114786557Y-122317212D01*
X114767196Y-122387645D01*
X114736151Y-122415955D01*
X114676429Y-122436820D01*
X114572150Y-122445526D01*
X114619237Y-122671840D01*
X115842558Y-122671840D01*
X115795471Y-122445526D01*
X115742987Y-122445526D01*
X115628055Y-122436724D01*
X115555649Y-122414868D01*
X115512579Y-122384481D01*
X115465554Y-122309743D01*
X115424548Y-122174732D01*
X115304133Y-121595920D01*
X115289384Y-121451624D01*
X115308413Y-121380215D01*
X115339880Y-121352040D01*
X115405628Y-121330463D01*
X115526724Y-121321217D01*
X115480196Y-121097137D01*
X114550933Y-120945083D01*
X114547920Y-121046833D01*
X114572894Y-121216063D01*
X114391912Y-121074047D01*
X114206066Y-120976350D01*
X114007737Y-120916972D01*
X113798850Y-120897065D01*
X113645182Y-120908697D01*
X113525703Y-120940321D01*
X113433324Y-120988633D01*
X113358256Y-121058274D01*
X113304708Y-121148766D01*
X113272523Y-121265197D01*
X113095679Y-121100763D01*
X112913138Y-120988633D01*
X112714425Y-120920135D01*
X112500339Y-120897065D01*
X112326843Y-120914700D01*
X112183947Y-120964438D01*
X112065384Y-121043039D01*
X111992623Y-121132498D01*
X111948567Y-121234913D01*
X111931578Y-121334059D01*
X111936602Y-121445134D01*
X111966567Y-121625512D01*
X112080468Y-122173429D01*
X112094677Y-122321261D01*
X112072838Y-122390437D01*
X112038710Y-122416342D01*
X111966864Y-122436726D01*
X111834055Y-122445526D01*
X111881141Y-122671840D01*
X113092923Y-122671840D01*
X113045837Y-122445526D01*
X112906861Y-122427863D01*
X112833854Y-122385412D01*
X112786436Y-122310919D01*
X112744706Y-122173801D01*
X112620941Y-121578984D01*
X112605555Y-121416225D01*
X112629688Y-121317681D01*
X112666901Y-121270767D01*
X112722141Y-121241487D01*
X112802215Y-121230580D01*
X112919655Y-121248155D01*
X113042673Y-121303909D01*
X113158960Y-121391260D01*
X113285178Y-121523708D01*
X113420669Y-122174732D01*
X113434842Y-122315575D01*
X113415643Y-122386714D01*
X113384598Y-122415524D01*
X113324877Y-122436698D01*
X113220597Y-122445526D01*
X113267684Y-122671840D01*
X114432751Y-122671840D01*
X114385665Y-122445526D01*
X114249337Y-122428593D01*
X114175915Y-122387645D01*
X114127648Y-122314762D01*
X114085092Y-122176407D01*
X113962257Y-121586242D01*
X113947165Y-121425637D01*
X113971377Y-121328476D01*
X114008472Y-121282197D01*
X114063478Y-121253271D01*
X114143159Y-121242491D01*
X114253508Y-121258987D01*
X114377476Y-121312842D01*
X114498527Y-121396320D01*
X114636731Y-121523708D01*
G37*
G36*
X111173912Y-119937839D02*
G01*
X111219882Y-120158569D01*
X111098043Y-120167896D01*
X111032241Y-120189619D01*
X111001013Y-120217939D01*
X110982576Y-120289928D01*
X110997849Y-120435691D01*
X111471693Y-122715204D01*
X111301399Y-122715204D01*
X110875945Y-122413142D01*
X110744311Y-122548032D01*
X110598822Y-122642434D01*
X110435442Y-122699720D01*
X110248930Y-122719484D01*
X110074867Y-122704091D01*
X109907989Y-122658095D01*
X109745807Y-122580345D01*
X109586367Y-122467860D01*
X109449035Y-122332721D01*
X109338642Y-122177505D01*
X109253864Y-121999724D01*
X109194972Y-121795805D01*
X109170261Y-121592933D01*
X109180638Y-121453415D01*
X109865232Y-121453415D01*
X109865922Y-121603184D01*
X109897735Y-121813114D01*
X109951638Y-122017607D01*
X110013713Y-122169201D01*
X110081614Y-122278583D01*
X110169988Y-122366641D01*
X110266688Y-122416808D01*
X110375673Y-122433615D01*
X110473926Y-122418751D01*
X110560297Y-122374617D01*
X110633223Y-122303992D01*
X110699882Y-122197810D01*
X110534055Y-121399571D01*
X110422652Y-121306869D01*
X110319467Y-121245469D01*
X110212517Y-121207116D01*
X110109903Y-121194846D01*
X110007290Y-121212800D01*
X109935318Y-121262844D01*
X109886382Y-121348948D01*
X109865232Y-121453415D01*
X109180638Y-121453415D01*
X109183038Y-121421143D01*
X109228611Y-121273827D01*
X109305895Y-121145712D01*
X109411923Y-121037709D01*
X109535654Y-120961043D01*
X109680601Y-120913705D01*
X109852137Y-120897065D01*
X110005557Y-120910298D01*
X110162201Y-120950852D01*
X110315215Y-121016682D01*
X110474313Y-121112398D01*
X110200168Y-119794160D01*
X111173912Y-119937839D01*
G37*
G36*
X107851804Y-120919476D02*
G01*
X108047630Y-120964847D01*
X108234514Y-121040330D01*
X108414414Y-121147388D01*
X108572612Y-121280948D01*
X108696702Y-121435417D01*
X108789432Y-121613253D01*
X108851221Y-121818511D01*
X108876565Y-122044553D01*
X108855519Y-122228055D01*
X108794745Y-122379196D01*
X108694700Y-122505454D01*
X108563260Y-122607119D01*
X108411340Y-122680942D01*
X108235023Y-122727069D01*
X108029160Y-122743307D01*
X107820199Y-122727554D01*
X107622579Y-122680931D01*
X107433834Y-122603281D01*
X107251951Y-122492985D01*
X107091363Y-122355692D01*
X106966300Y-122199577D01*
X106873686Y-122022476D01*
X106812725Y-121820745D01*
X106789046Y-121638245D01*
X106796567Y-121483958D01*
X106825674Y-121372735D01*
X107459172Y-121372735D01*
X107465448Y-121540531D01*
X107509904Y-121811253D01*
X107583537Y-122103123D01*
X107652204Y-122280773D01*
X107714256Y-122379084D01*
X107797097Y-122455404D01*
X107882333Y-122498148D01*
X107972953Y-122512155D01*
X108079937Y-122493193D01*
X108149437Y-122441556D01*
X108191078Y-122353214D01*
X108203406Y-122244674D01*
X108193081Y-122067530D01*
X108147155Y-121794689D01*
X108074510Y-121513238D01*
X108005236Y-121345316D01*
X107941500Y-121254961D01*
X107857109Y-121185962D01*
X107774413Y-121147649D01*
X107690806Y-121135290D01*
X107589607Y-121152111D01*
X107520766Y-121198157D01*
X107475845Y-121275806D01*
X107459172Y-121372735D01*
X106825674Y-121372735D01*
X106831017Y-121352317D01*
X106890711Y-121238731D01*
X106976690Y-121139943D01*
X107111184Y-121038843D01*
X107264760Y-120965647D01*
X107441014Y-120920101D01*
X107644650Y-120904138D01*
X107851804Y-120919476D01*
G37*
G36*
X105191680Y-119795648D02*
G01*
X105685066Y-122168776D01*
X105699991Y-122315862D01*
X105680227Y-122387273D01*
X105647784Y-122414863D01*
X105579034Y-122436289D01*
X105451308Y-122445526D01*
X105498394Y-122671840D01*
X106744980Y-122671840D01*
X106697893Y-122445526D01*
X106549777Y-122433893D01*
X106464321Y-122406070D01*
X106425090Y-122371066D01*
X106386095Y-122298691D01*
X106349117Y-122168962D01*
X105990663Y-120444997D01*
X105975597Y-120294993D01*
X105996061Y-120225756D01*
X106028868Y-120199652D01*
X106097764Y-120179264D01*
X106224980Y-120170480D01*
X106178638Y-119947703D01*
X105191680Y-119795648D01*
G37*
G36*
X105266497Y-122743307D02*
G01*
X105147571Y-122171568D01*
X104952897Y-122171568D01*
X104904933Y-122300887D01*
X104833347Y-122397509D01*
X104736908Y-122467520D01*
X104609965Y-122512432D01*
X104443319Y-122528905D01*
X104273719Y-122512423D01*
X104136419Y-122466371D01*
X104055852Y-122417664D01*
X104010544Y-122370789D01*
X103990320Y-122324553D01*
X103993594Y-122263013D01*
X104031451Y-122218096D01*
X104110017Y-122185455D01*
X104306340Y-122134531D01*
X104618656Y-122057041D01*
X104796562Y-121995691D01*
X104891575Y-121943027D01*
X104966600Y-121875957D01*
X105024178Y-121793386D01*
X105060693Y-121699850D01*
X105073627Y-121597026D01*
X105061587Y-121481460D01*
X105005338Y-121319982D01*
X104908315Y-121180352D01*
X104765295Y-121058798D01*
X104597027Y-120970937D01*
X104401818Y-120916278D01*
X104173642Y-120897065D01*
X103996075Y-120909283D01*
X103821138Y-120946004D01*
X103647314Y-121007989D01*
X103546813Y-120897065D01*
X103377822Y-120897065D01*
X103466412Y-121409249D01*
X103629075Y-121409249D01*
X103677892Y-121302737D01*
X103752566Y-121219679D01*
X103857016Y-121156838D01*
X103999364Y-121115146D01*
X104190950Y-121099556D01*
X104336706Y-121113106D01*
X104452253Y-121150551D01*
X104540881Y-121211951D01*
X104577135Y-121280644D01*
X104572180Y-121353178D01*
X104523348Y-121403293D01*
X104426062Y-121440296D01*
X104164708Y-121503236D01*
X103885056Y-121573667D01*
X103720084Y-121634259D01*
X103631137Y-121686770D01*
X103562611Y-121751354D01*
X103511824Y-121828933D01*
X103480738Y-121916119D01*
X103470512Y-122013829D01*
X103482976Y-122125412D01*
X103523743Y-122253125D01*
X103590383Y-122368652D01*
X103685062Y-122474157D01*
X103812024Y-122570594D01*
X104000160Y-122665783D01*
X104205760Y-122723508D01*
X104433083Y-122743307D01*
X104609003Y-122730690D01*
X104786690Y-122692342D01*
X104967786Y-122626800D01*
X105025304Y-122675772D01*
X105073870Y-122743307D01*
X105266497Y-122743307D01*
G37*
G36*
X102616248Y-121730852D02*
G01*
X102472568Y-121040000D01*
X102276219Y-121040000D01*
X102225067Y-121093269D01*
X102148918Y-121111468D01*
X102076566Y-121100016D01*
X102009904Y-121065268D01*
X101946427Y-121003336D01*
X101874436Y-120879831D01*
X101818009Y-120693458D01*
X101782675Y-120469323D01*
X101778179Y-120309168D01*
X101795303Y-120197653D01*
X101840369Y-120103756D01*
X101907520Y-120050983D01*
X102003191Y-120032384D01*
X102098929Y-120051797D01*
X102181712Y-120111126D01*
X102255561Y-120221289D01*
X102324641Y-120335466D01*
X102395300Y-120407457D01*
X102468293Y-120447271D01*
X102546455Y-120460258D01*
X102623659Y-120445763D01*
X102688646Y-120402377D01*
X102727886Y-120337709D01*
X102729032Y-120255720D01*
X102686970Y-120150488D01*
X102599706Y-120046353D01*
X102453027Y-119940817D01*
X102288060Y-119864582D01*
X102102952Y-119817564D01*
X101893571Y-119801232D01*
X101686929Y-119818144D01*
X101520482Y-119864982D01*
X101386322Y-119938174D01*
X101278653Y-120037409D01*
X101197993Y-120160219D01*
X101150013Y-120300104D01*
X101134994Y-120462016D01*
X101157121Y-120652327D01*
X101205370Y-120817216D01*
X101275893Y-120960871D01*
X101368647Y-121086270D01*
X101485053Y-121195405D01*
X101664421Y-121309679D01*
X101845893Y-121375578D01*
X102033528Y-121397337D01*
X102155476Y-121386442D01*
X102281430Y-121352856D01*
X102359970Y-121730852D01*
X102616248Y-121730852D01*
G37*
G36*
X102981774Y-122368103D02*
G01*
X102949965Y-122271596D01*
X102896565Y-122184070D01*
X102819297Y-122103822D01*
X102727646Y-122040985D01*
X102634246Y-122004844D01*
X102536777Y-121992899D01*
X102440943Y-122005710D01*
X102363583Y-122042172D01*
X102300228Y-122102892D01*
X102257290Y-122179780D01*
X102239496Y-122266701D01*
X102247930Y-122368103D01*
X102280380Y-122467337D01*
X102334029Y-122555539D01*
X102410779Y-122634617D01*
X102502044Y-122696110D01*
X102595276Y-122731569D01*
X102692740Y-122743307D01*
X102791307Y-122730131D01*
X102869093Y-122692955D01*
X102931151Y-122631453D01*
X102972899Y-122553393D01*
X102990013Y-122466930D01*
X102981774Y-122368103D01*
G37*
G36*
X145325603Y-115105440D02*
G01*
X145532375Y-112869478D01*
X145573742Y-112601289D01*
X145614078Y-112512513D01*
X145682549Y-112471913D01*
X145810614Y-112455190D01*
X145762597Y-112224038D01*
X144504472Y-112224038D01*
X144552490Y-112455190D01*
X144692696Y-112474542D01*
X144770819Y-112522635D01*
X144808023Y-112596822D01*
X144818062Y-112681486D01*
X144815281Y-112788333D01*
X144690027Y-114047760D01*
X143728195Y-112224038D01*
X143412361Y-112224038D01*
X143092805Y-114047760D01*
X142544516Y-112902792D01*
X142490824Y-112776125D01*
X142467465Y-112698626D01*
X142462910Y-112588481D01*
X142495635Y-112517961D01*
X142564691Y-112473096D01*
X142688195Y-112455190D01*
X142640178Y-112224038D01*
X141754838Y-112224038D01*
X141802855Y-112455190D01*
X141921887Y-112476628D01*
X142037544Y-112543780D01*
X142103046Y-112615369D01*
X142206271Y-112776259D01*
X142362683Y-113077552D01*
X143339033Y-115105440D01*
X143656914Y-115105440D01*
X143984473Y-113210995D01*
X144997486Y-115105440D01*
X145325603Y-115105440D01*
G37*
G36*
X141024903Y-113901103D02*
G01*
X141160207Y-114551940D01*
X141175590Y-114688783D01*
X141161138Y-114762434D01*
X141115569Y-114807517D01*
X141018947Y-114825526D01*
X141066034Y-115051840D01*
X142196112Y-115051840D01*
X142149026Y-114825526D01*
X142033235Y-114816858D01*
X141959603Y-114795269D01*
X141915268Y-114765225D01*
X141866709Y-114690033D01*
X141823700Y-114549148D01*
X141468224Y-112838769D01*
X141453095Y-112695122D01*
X141471016Y-112622692D01*
X141501462Y-112593610D01*
X141564148Y-112571709D01*
X141678532Y-112562391D01*
X141632748Y-112341661D01*
X140666449Y-112177137D01*
X140958460Y-113581919D01*
X140790043Y-113444816D01*
X140628110Y-113352627D01*
X140458301Y-113295650D01*
X140289012Y-113277065D01*
X140151838Y-113288560D01*
X140040979Y-113320462D01*
X139951217Y-113370494D01*
X139875502Y-113439435D01*
X139826458Y-113514207D01*
X139800465Y-113596622D01*
X139794847Y-113741807D01*
X139827638Y-113970337D01*
X139948053Y-114549334D01*
X139962717Y-114696052D01*
X139942655Y-114767459D01*
X139910535Y-114795658D01*
X139847851Y-114816694D01*
X139737373Y-114825526D01*
X139784459Y-115051840D01*
X140914538Y-115051840D01*
X140867451Y-114825526D01*
X140791244Y-114810035D01*
X140719305Y-114775834D01*
X140682300Y-114739721D01*
X140646047Y-114670061D01*
X140612290Y-114550451D01*
X140477358Y-113901103D01*
X140466173Y-113770162D01*
X140488960Y-113693447D01*
X140536811Y-113650318D01*
X140617315Y-113634403D01*
X140698213Y-113649200D01*
X140800078Y-113700659D01*
X140901548Y-113778657D01*
X141024903Y-113901103D01*
G37*
G36*
X138341271Y-113292249D02*
G01*
X138523232Y-113337391D01*
X138698621Y-113413035D01*
X138869342Y-113521246D01*
X139017961Y-113654106D01*
X139136022Y-113808324D01*
X139225521Y-113986524D01*
X139286421Y-114192742D01*
X139310860Y-114407711D01*
X139292069Y-114587489D01*
X139235335Y-114740216D01*
X139140880Y-114872054D01*
X139015897Y-114980079D01*
X138870930Y-115057870D01*
X138702051Y-115106274D01*
X138503815Y-115123307D01*
X138331192Y-115110885D01*
X138164316Y-115073817D01*
X138001496Y-115011639D01*
X137847785Y-114928190D01*
X137718203Y-114833748D01*
X137610101Y-114728375D01*
X137775183Y-114612054D01*
X137911230Y-114729203D01*
X138036606Y-114805328D01*
X138153813Y-114847734D01*
X138265777Y-114861260D01*
X138404681Y-114840504D01*
X138501433Y-114784009D01*
X138567280Y-114691152D01*
X138600021Y-114574695D01*
X138605739Y-114410495D01*
X138573794Y-114182319D01*
X137443529Y-114182319D01*
X137414051Y-113948840D01*
X137426832Y-113768112D01*
X138002032Y-113768112D01*
X138028111Y-113967917D01*
X138531174Y-113967917D01*
X138468938Y-113754860D01*
X138396242Y-113622677D01*
X138331853Y-113557515D01*
X138261775Y-113520558D01*
X138183143Y-113508218D01*
X138103414Y-113523447D01*
X138048812Y-113566244D01*
X138013488Y-113642245D01*
X138002032Y-113768112D01*
X137426832Y-113768112D01*
X137427077Y-113764645D01*
X137474532Y-113618576D01*
X137553336Y-113501890D01*
X137662366Y-113406861D01*
X137794703Y-113337149D01*
X137955195Y-113292904D01*
X138150387Y-113277065D01*
X138341271Y-113292249D01*
G37*
G36*
X136137202Y-113708103D02*
G01*
X135965271Y-113513565D01*
X135800523Y-113384825D01*
X135681238Y-113323891D01*
X135563445Y-113288641D01*
X135445234Y-113277065D01*
X135335740Y-113291134D01*
X135258683Y-113328973D01*
X135205334Y-113389106D01*
X135162427Y-113505411D01*
X135166250Y-113632727D01*
X135207814Y-113747531D01*
X135280896Y-113844338D01*
X135379217Y-113910112D01*
X135497345Y-113932183D01*
X135561161Y-113924717D01*
X135604919Y-113905011D01*
X135643201Y-113868652D01*
X135698906Y-113791854D01*
X135763206Y-113728111D01*
X135839235Y-113708103D01*
X135918509Y-113724257D01*
X135994565Y-113775446D01*
X136070760Y-113872627D01*
X136156556Y-114060334D01*
X136239006Y-114366199D01*
X136277345Y-114550265D01*
X136292951Y-114691790D01*
X136276973Y-114764481D01*
X136248154Y-114794197D01*
X136189249Y-114816215D01*
X136082299Y-114825526D01*
X136043215Y-114825526D01*
X136090301Y-115051840D01*
X137325348Y-115051840D01*
X137278261Y-114825526D01*
X137156555Y-114816796D01*
X137079928Y-114795182D01*
X137034453Y-114765412D01*
X136984642Y-114690271D01*
X136941396Y-114550265D01*
X136818190Y-113958239D01*
X136803328Y-113813556D01*
X136822098Y-113741976D01*
X136853378Y-113713838D01*
X136919152Y-113692246D01*
X137040781Y-113682978D01*
X136994625Y-113461131D01*
X136108168Y-113277065D01*
X136101983Y-113456857D01*
X136137202Y-113708103D01*
G37*
G36*
X134118738Y-113292249D02*
G01*
X134300699Y-113337391D01*
X134476088Y-113413035D01*
X134646809Y-113521246D01*
X134795428Y-113654106D01*
X134913489Y-113808324D01*
X135002988Y-113986524D01*
X135063888Y-114192742D01*
X135088327Y-114407711D01*
X135069536Y-114587489D01*
X135012802Y-114740216D01*
X134918348Y-114872054D01*
X134793364Y-114980079D01*
X134648397Y-115057870D01*
X134479518Y-115106274D01*
X134281283Y-115123307D01*
X134108660Y-115110885D01*
X133941783Y-115073817D01*
X133778963Y-115011639D01*
X133625252Y-114928190D01*
X133495670Y-114833748D01*
X133387568Y-114728375D01*
X133552650Y-114612054D01*
X133688697Y-114729203D01*
X133814073Y-114805328D01*
X133931280Y-114847734D01*
X134043244Y-114861260D01*
X134182148Y-114840504D01*
X134278900Y-114784009D01*
X134344747Y-114691152D01*
X134377488Y-114574695D01*
X134383206Y-114410495D01*
X134351261Y-114182319D01*
X133220997Y-114182319D01*
X133191518Y-113948840D01*
X133204299Y-113768112D01*
X133779499Y-113768112D01*
X133805578Y-113967917D01*
X134308641Y-113967917D01*
X134246405Y-113754860D01*
X134173709Y-113622677D01*
X134109320Y-113557515D01*
X134039242Y-113520558D01*
X133960610Y-113508218D01*
X133880881Y-113523447D01*
X133826280Y-113566244D01*
X133790955Y-113642245D01*
X133779499Y-113768112D01*
X133204299Y-113768112D01*
X133204544Y-113764645D01*
X133251999Y-113618576D01*
X133330803Y-113501890D01*
X133439833Y-113406861D01*
X133572170Y-113337149D01*
X133732663Y-113292904D01*
X133927854Y-113277065D01*
X134118738Y-113292249D01*
G37*
G36*
X131556588Y-112317839D02*
G01*
X131602557Y-112538569D01*
X131480718Y-112547896D01*
X131414917Y-112569619D01*
X131383689Y-112597939D01*
X131365252Y-112669928D01*
X131380525Y-112815691D01*
X131854368Y-115095204D01*
X131684075Y-115095204D01*
X131258621Y-114793142D01*
X131126987Y-114928032D01*
X130981498Y-115022434D01*
X130818118Y-115079720D01*
X130631606Y-115099484D01*
X130457542Y-115084091D01*
X130290665Y-115038095D01*
X130128483Y-114960345D01*
X129969043Y-114847860D01*
X129831711Y-114712721D01*
X129721318Y-114557505D01*
X129636540Y-114379724D01*
X129577648Y-114175805D01*
X129552937Y-113972933D01*
X129563314Y-113833415D01*
X130247907Y-113833415D01*
X130248597Y-113983184D01*
X130280410Y-114193114D01*
X130334314Y-114397607D01*
X130396389Y-114549201D01*
X130464290Y-114658583D01*
X130552664Y-114746641D01*
X130649364Y-114796808D01*
X130758349Y-114813615D01*
X130856602Y-114798751D01*
X130942973Y-114754617D01*
X131015899Y-114683992D01*
X131082558Y-114577810D01*
X130916731Y-113779571D01*
X130805328Y-113686869D01*
X130702143Y-113625469D01*
X130595193Y-113587116D01*
X130492579Y-113574846D01*
X130389966Y-113592800D01*
X130317994Y-113642844D01*
X130269057Y-113728948D01*
X130247907Y-113833415D01*
X129563314Y-113833415D01*
X129565714Y-113801143D01*
X129611287Y-113653827D01*
X129688571Y-113525712D01*
X129794599Y-113417709D01*
X129918330Y-113341043D01*
X130063277Y-113293705D01*
X130234813Y-113277065D01*
X130388232Y-113290298D01*
X130544877Y-113330852D01*
X130697891Y-113396682D01*
X130856989Y-113492398D01*
X130582844Y-112174160D01*
X131556588Y-112317839D01*
G37*
G36*
X128252454Y-113292249D02*
G01*
X128434415Y-113337391D01*
X128609804Y-113413035D01*
X128780525Y-113521246D01*
X128929145Y-113654106D01*
X129047206Y-113808324D01*
X129136705Y-113986524D01*
X129197605Y-114192742D01*
X129222044Y-114407711D01*
X129203252Y-114587489D01*
X129146519Y-114740216D01*
X129052064Y-114872054D01*
X128927081Y-114980079D01*
X128782114Y-115057870D01*
X128613235Y-115106274D01*
X128414999Y-115123307D01*
X128242376Y-115110885D01*
X128075500Y-115073817D01*
X127912680Y-115011639D01*
X127758969Y-114928190D01*
X127629387Y-114833748D01*
X127521284Y-114728375D01*
X127686367Y-114612054D01*
X127822413Y-114729203D01*
X127947790Y-114805328D01*
X128064997Y-114847734D01*
X128176961Y-114861260D01*
X128315865Y-114840504D01*
X128412617Y-114784009D01*
X128478464Y-114691152D01*
X128511205Y-114574695D01*
X128516923Y-114410495D01*
X128484978Y-114182319D01*
X127354713Y-114182319D01*
X127325234Y-113948840D01*
X127338016Y-113768112D01*
X127913216Y-113768112D01*
X127939294Y-113967917D01*
X128442358Y-113967917D01*
X128380122Y-113754860D01*
X128307426Y-113622677D01*
X128243037Y-113557515D01*
X128172959Y-113520558D01*
X128094327Y-113508218D01*
X128014598Y-113523447D01*
X127959996Y-113566244D01*
X127924672Y-113642245D01*
X127913216Y-113768112D01*
X127338016Y-113768112D01*
X127338261Y-113764645D01*
X127385716Y-113618576D01*
X127464520Y-113501890D01*
X127573550Y-113406861D01*
X127705887Y-113337149D01*
X127866379Y-113292904D01*
X128061571Y-113277065D01*
X128252454Y-113292249D01*
G37*
G36*
X124795287Y-114456464D02*
G01*
X124401844Y-113869091D01*
X124311914Y-113722772D01*
X124288687Y-113669020D01*
X124293002Y-113605928D01*
X124335355Y-113567477D01*
X124436833Y-113551024D01*
X124392352Y-113336622D01*
X123728300Y-113336622D01*
X123772781Y-113551024D01*
X123884660Y-113578151D01*
X123959267Y-113628261D01*
X124041957Y-113731587D01*
X124275101Y-114064696D01*
X125215158Y-115450680D01*
X125482602Y-115819076D01*
X125633540Y-115982777D01*
X125733517Y-116052014D01*
X125838982Y-116092431D01*
X125952724Y-116105984D01*
X126037372Y-116096118D01*
X126102923Y-116068770D01*
X126153912Y-116024839D01*
X126188947Y-115967525D01*
X126203893Y-115902132D01*
X126198021Y-115824953D01*
X126164364Y-115737112D01*
X126102579Y-115663636D01*
X126006788Y-115602302D01*
X125866367Y-115554531D01*
X125622129Y-115483424D01*
X125500283Y-115419227D01*
X125402152Y-115321860D01*
X125255730Y-115121632D01*
X125716732Y-113843780D01*
X125736088Y-113781060D01*
X125787801Y-113641222D01*
X125819094Y-113591969D01*
X125862780Y-113567545D01*
X125951421Y-113551024D01*
X125906940Y-113336622D01*
X124823576Y-113336622D01*
X124870662Y-113562935D01*
X124973186Y-113574912D01*
X125026117Y-113603249D01*
X125048586Y-113644080D01*
X125045993Y-113685211D01*
X125014900Y-113796135D01*
X124795287Y-114456464D01*
G37*
G36*
X122740423Y-113299476D02*
G01*
X122936249Y-113344847D01*
X123123132Y-113420330D01*
X123303032Y-113527388D01*
X123461231Y-113660948D01*
X123585320Y-113815417D01*
X123678051Y-113993253D01*
X123739839Y-114198511D01*
X123765183Y-114424553D01*
X123744138Y-114608055D01*
X123683363Y-114759196D01*
X123583318Y-114885454D01*
X123451879Y-114987119D01*
X123299958Y-115060942D01*
X123123642Y-115107069D01*
X122917778Y-115123307D01*
X122708817Y-115107554D01*
X122511197Y-115060931D01*
X122322453Y-114983281D01*
X122140570Y-114872985D01*
X121979981Y-114735692D01*
X121854918Y-114579577D01*
X121762304Y-114402476D01*
X121701343Y-114200745D01*
X121677664Y-114018245D01*
X121685185Y-113863958D01*
X121714292Y-113752735D01*
X122347791Y-113752735D01*
X122354067Y-113920531D01*
X122398523Y-114191253D01*
X122472155Y-114483123D01*
X122540822Y-114660773D01*
X122602875Y-114759084D01*
X122685716Y-114835404D01*
X122770951Y-114878148D01*
X122861572Y-114892155D01*
X122968555Y-114873193D01*
X123038056Y-114821556D01*
X123079696Y-114733214D01*
X123092024Y-114624674D01*
X123081700Y-114447530D01*
X123035774Y-114174689D01*
X122963128Y-113893238D01*
X122893855Y-113725316D01*
X122830119Y-113634961D01*
X122745728Y-113565962D01*
X122663032Y-113527649D01*
X122579425Y-113515290D01*
X122478225Y-113532111D01*
X122409385Y-113578157D01*
X122364464Y-113655806D01*
X122347791Y-113752735D01*
X121714292Y-113752735D01*
X121719635Y-113732317D01*
X121779330Y-113618731D01*
X121865309Y-113519943D01*
X121999802Y-113418843D01*
X122153379Y-113345647D01*
X122329633Y-113300101D01*
X122533269Y-113284138D01*
X122740423Y-113299476D01*
G37*
G36*
X120140971Y-114814359D02*
G01*
X120310328Y-114951483D01*
X120475044Y-115045512D01*
X120647909Y-115104110D01*
X120822145Y-115123307D01*
X120968286Y-115108373D01*
X121094764Y-115065367D01*
X121205724Y-114994703D01*
X121264467Y-114925442D01*
X121301047Y-114827879D01*
X121311879Y-114691616D01*
X121287800Y-114502806D01*
X121152310Y-113851038D01*
X121137156Y-113704239D01*
X121156404Y-113633100D01*
X121187433Y-113604366D01*
X121245569Y-113583481D01*
X121345309Y-113574846D01*
X121298222Y-113348533D01*
X120383663Y-113348533D01*
X120615187Y-114462047D01*
X120632064Y-114613134D01*
X120615560Y-114695247D01*
X120566921Y-114746802D01*
X120477092Y-114765970D01*
X120398248Y-114751229D01*
X120298237Y-114699714D01*
X120198240Y-114621995D01*
X120075646Y-114500759D01*
X119940528Y-113850294D01*
X119925285Y-113707134D01*
X119942947Y-113634961D01*
X119973339Y-113606068D01*
X120036612Y-113584188D01*
X120152883Y-113574846D01*
X120105796Y-113348533D01*
X119171881Y-113348533D01*
X119421645Y-114549893D01*
X119437453Y-114695132D01*
X119420528Y-114766528D01*
X119390663Y-114794778D01*
X119327718Y-114816300D01*
X119211151Y-114825526D01*
X119258237Y-115051840D01*
X119357436Y-115051840D01*
X119741612Y-115068531D01*
X120205180Y-115123307D01*
X120140971Y-114814359D01*
G37*
G36*
X117859412Y-113708103D02*
G01*
X117687481Y-113513565D01*
X117522733Y-113384825D01*
X117403447Y-113323891D01*
X117285654Y-113288641D01*
X117167443Y-113277065D01*
X117057950Y-113291134D01*
X116980892Y-113328973D01*
X116927544Y-113389106D01*
X116884636Y-113505411D01*
X116888460Y-113632727D01*
X116930023Y-113747531D01*
X117003105Y-113844338D01*
X117101427Y-113910112D01*
X117219555Y-113932183D01*
X117283371Y-113924717D01*
X117327128Y-113905011D01*
X117365410Y-113868652D01*
X117421115Y-113791854D01*
X117485415Y-113728111D01*
X117561445Y-113708103D01*
X117640719Y-113724257D01*
X117716775Y-113775446D01*
X117792969Y-113872627D01*
X117878765Y-114060334D01*
X117961215Y-114366199D01*
X117999555Y-114550265D01*
X118015161Y-114691790D01*
X117999182Y-114764481D01*
X117970364Y-114794197D01*
X117911459Y-114816215D01*
X117804508Y-114825526D01*
X117765424Y-114825526D01*
X117812511Y-115051840D01*
X119047557Y-115051840D01*
X119000471Y-114825526D01*
X118878765Y-114816796D01*
X118802138Y-114795182D01*
X118756663Y-114765412D01*
X118706852Y-114690271D01*
X118663606Y-114550265D01*
X118540399Y-113958239D01*
X118525537Y-113813556D01*
X118544308Y-113741976D01*
X118575588Y-113713838D01*
X118641362Y-113692246D01*
X118762990Y-113682978D01*
X118716834Y-113461131D01*
X117830378Y-113277065D01*
X117824193Y-113456857D01*
X117859412Y-113708103D01*
G37*
G36*
X113680294Y-113292871D02*
G01*
X113808264Y-113350116D01*
X113985841Y-113468204D01*
X114086789Y-113389516D01*
X114225927Y-113330108D01*
X114386143Y-113296576D01*
X114592941Y-113284138D01*
X114849004Y-113302409D01*
X115070208Y-113354368D01*
X115262204Y-113437309D01*
X115390876Y-113524817D01*
X115488350Y-113627256D01*
X115558526Y-113745998D01*
X115602791Y-113884166D01*
X115614538Y-114005002D01*
X115599197Y-114118566D01*
X115556821Y-114227917D01*
X115489021Y-114321334D01*
X115393141Y-114394091D01*
X115262762Y-114446786D01*
X115405641Y-114487876D01*
X115520304Y-114540718D01*
X115611352Y-114604052D01*
X115686828Y-114683551D01*
X115741053Y-114775444D01*
X115775132Y-114882104D01*
X115785255Y-115000525D01*
X115765054Y-115092552D01*
X115717979Y-115165871D01*
X115640758Y-115224739D01*
X115511095Y-115274345D01*
X115301480Y-115311070D01*
X114981359Y-115325798D01*
X114586847Y-115338513D01*
X114434745Y-115363765D01*
X114376171Y-115399586D01*
X114348451Y-115455529D01*
X114351367Y-115542247D01*
X114387211Y-115631169D01*
X114459966Y-115714633D01*
X114580658Y-115794431D01*
X114716966Y-115847981D01*
X114897797Y-115884062D01*
X115134344Y-115897537D01*
X115326054Y-115887258D01*
X115459223Y-115860907D01*
X115548446Y-115823836D01*
X115616598Y-115765851D01*
X115648069Y-115694751D01*
X115645597Y-115603292D01*
X115624194Y-115539083D01*
X115586227Y-115466685D01*
X115674971Y-115429383D01*
X115748703Y-115418296D01*
X115836363Y-115434710D01*
X115924394Y-115486972D01*
X115992991Y-115565350D01*
X116031037Y-115663965D01*
X116033131Y-115772633D01*
X115992598Y-115874003D01*
X115901688Y-115974402D01*
X115817749Y-116025394D01*
X115685984Y-116068715D01*
X115489015Y-116099801D01*
X115206184Y-116111939D01*
X114921568Y-116096935D01*
X114685426Y-116055288D01*
X114490262Y-115991058D01*
X114329591Y-115906843D01*
X114181831Y-115792739D01*
X114070924Y-115667155D01*
X113992258Y-115528881D01*
X113943593Y-115375304D01*
X113925371Y-115215803D01*
X113939697Y-115092210D01*
X113980593Y-114995545D01*
X114047072Y-114919327D01*
X114133012Y-114864684D01*
X114256080Y-114820284D01*
X114427433Y-114789568D01*
X114660314Y-114777881D01*
X114805296Y-114777881D01*
X115068646Y-114777881D01*
X115208035Y-114766827D01*
X115278349Y-114741696D01*
X115307989Y-114709498D01*
X115311152Y-114668074D01*
X115278043Y-114601292D01*
X115205812Y-114552126D01*
X115100991Y-114524531D01*
X114903750Y-114506528D01*
X114641825Y-114482758D01*
X114437553Y-114438999D01*
X114280453Y-114379647D01*
X114161531Y-114307573D01*
X114023993Y-114178458D01*
X113931148Y-114037269D01*
X113877709Y-113881002D01*
X113865426Y-113734180D01*
X114474564Y-113734180D01*
X114489649Y-113853830D01*
X114545498Y-114043095D01*
X114612111Y-114161661D01*
X114671093Y-114219837D01*
X114735785Y-114253061D01*
X114808833Y-114264209D01*
X114882728Y-114252351D01*
X114934683Y-114219675D01*
X114970379Y-114164825D01*
X114990576Y-114053146D01*
X114970193Y-113868161D01*
X114920037Y-113706386D01*
X114855919Y-113603508D01*
X114799186Y-113554319D01*
X114734457Y-113525268D01*
X114659012Y-113515290D01*
X114571316Y-113535414D01*
X114506399Y-113595319D01*
X114482374Y-113651576D01*
X114474564Y-113734180D01*
X113865426Y-113734180D01*
X113864750Y-113726100D01*
X113891481Y-113593085D01*
X113832058Y-113558747D01*
X113788561Y-113549349D01*
X113759370Y-113555562D01*
X113728819Y-113575963D01*
X113653747Y-113631933D01*
X113602820Y-113646314D01*
X113522155Y-113628313D01*
X113464839Y-113575608D01*
X113426757Y-113477137D01*
X113421919Y-113384871D01*
X113446413Y-113327000D01*
X113497791Y-113291153D01*
X113588489Y-113277065D01*
X113680294Y-113292871D01*
G37*
G36*
X112864323Y-112556436D02*
G01*
X112832532Y-112459880D01*
X112778908Y-112372362D01*
X112701102Y-112292155D01*
X112608756Y-112229238D01*
X112515224Y-112193134D01*
X112418210Y-112181232D01*
X112321542Y-112194093D01*
X112244254Y-112230549D01*
X112181661Y-112291039D01*
X112139349Y-112367854D01*
X112121838Y-112454848D01*
X112130294Y-112556436D01*
X112162416Y-112654250D01*
X112215939Y-112742118D01*
X112292956Y-112821833D01*
X112384288Y-112884027D01*
X112477327Y-112919812D01*
X112574359Y-112931640D01*
X112673574Y-112918322D01*
X112751637Y-112880777D01*
X112813701Y-112818669D01*
X112855372Y-112740074D01*
X112872411Y-112653923D01*
X112864323Y-112556436D01*
G37*
G36*
X112315104Y-113276321D02*
G01*
X112579757Y-114549334D01*
X112595223Y-114694670D01*
X112577523Y-114766342D01*
X112547175Y-114794786D01*
X112484291Y-114816334D01*
X112369077Y-114825526D01*
X112416163Y-115051840D01*
X113662748Y-115051840D01*
X113615662Y-114825526D01*
X113568389Y-114825526D01*
X113452701Y-114816603D01*
X113378984Y-114794331D01*
X113334445Y-114763178D01*
X113285794Y-114686799D01*
X113243808Y-114549334D01*
X113115018Y-113930322D01*
X113100149Y-113788496D01*
X113117809Y-113715548D01*
X113148152Y-113685972D01*
X113210710Y-113663761D01*
X113324953Y-113654317D01*
X113372226Y-113654317D01*
X113326442Y-113434145D01*
X112315104Y-113276321D01*
G37*
G36*
X111685669Y-112317839D02*
G01*
X111731639Y-112538569D01*
X111609800Y-112547896D01*
X111543999Y-112569619D01*
X111512770Y-112597939D01*
X111494334Y-112669928D01*
X111509607Y-112815691D01*
X111983450Y-115095204D01*
X111813157Y-115095204D01*
X111387703Y-114793142D01*
X111256069Y-114928032D01*
X111110580Y-115022434D01*
X110947200Y-115079720D01*
X110760688Y-115099484D01*
X110586624Y-115084091D01*
X110419747Y-115038095D01*
X110257565Y-114960345D01*
X110098125Y-114847860D01*
X109960793Y-114712721D01*
X109850400Y-114557505D01*
X109765622Y-114379724D01*
X109706729Y-114175805D01*
X109682018Y-113972933D01*
X109692396Y-113833415D01*
X110376989Y-113833415D01*
X110377679Y-113983184D01*
X110409492Y-114193114D01*
X110463396Y-114397607D01*
X110525471Y-114549201D01*
X110593372Y-114658583D01*
X110681746Y-114746641D01*
X110778446Y-114796808D01*
X110887431Y-114813615D01*
X110985684Y-114798751D01*
X111072055Y-114754617D01*
X111144981Y-114683992D01*
X111211640Y-114577810D01*
X111045813Y-113779571D01*
X110934410Y-113686869D01*
X110831224Y-113625469D01*
X110724275Y-113587116D01*
X110621661Y-113574846D01*
X110519048Y-113592800D01*
X110447076Y-113642844D01*
X110398139Y-113728948D01*
X110376989Y-113833415D01*
X109692396Y-113833415D01*
X109694796Y-113801143D01*
X109740369Y-113653827D01*
X109817653Y-113525712D01*
X109923681Y-113417709D01*
X110047412Y-113341043D01*
X110192359Y-113293705D01*
X110363895Y-113277065D01*
X110517314Y-113290298D01*
X110673959Y-113330852D01*
X110826973Y-113396682D01*
X110986071Y-113492398D01*
X110711926Y-112174160D01*
X111685669Y-112317839D01*
G37*
G36*
X108381536Y-113292249D02*
G01*
X108563497Y-113337391D01*
X108738886Y-113413035D01*
X108909607Y-113521246D01*
X109058227Y-113654106D01*
X109176288Y-113808324D01*
X109265787Y-113986524D01*
X109326687Y-114192742D01*
X109351126Y-114407711D01*
X109332334Y-114587489D01*
X109275601Y-114740216D01*
X109181146Y-114872054D01*
X109056163Y-114980079D01*
X108911196Y-115057870D01*
X108742317Y-115106274D01*
X108544081Y-115123307D01*
X108371458Y-115110885D01*
X108204582Y-115073817D01*
X108041762Y-115011639D01*
X107888051Y-114928190D01*
X107758469Y-114833748D01*
X107650366Y-114728375D01*
X107815449Y-114612054D01*
X107951495Y-114729203D01*
X108076872Y-114805328D01*
X108194079Y-114847734D01*
X108306043Y-114861260D01*
X108444946Y-114840504D01*
X108541698Y-114784009D01*
X108607546Y-114691152D01*
X108640287Y-114574695D01*
X108646005Y-114410495D01*
X108614060Y-114182319D01*
X107483795Y-114182319D01*
X107454316Y-113948840D01*
X107467098Y-113768112D01*
X108042298Y-113768112D01*
X108068376Y-113967917D01*
X108571440Y-113967917D01*
X108509204Y-113754860D01*
X108436508Y-113622677D01*
X108372119Y-113557515D01*
X108302041Y-113520558D01*
X108223408Y-113508218D01*
X108143680Y-113523447D01*
X108089078Y-113566244D01*
X108053754Y-113642245D01*
X108042298Y-113768112D01*
X107467098Y-113768112D01*
X107467343Y-113764645D01*
X107514798Y-113618576D01*
X107593602Y-113501890D01*
X107702632Y-113406861D01*
X107834969Y-113337149D01*
X107995461Y-113292904D01*
X108190653Y-113277065D01*
X108381536Y-113292249D01*
G37*
G36*
X107288004Y-115123307D02*
G01*
X107169078Y-114551568D01*
X106974404Y-114551568D01*
X106926440Y-114680887D01*
X106854854Y-114777509D01*
X106758414Y-114847520D01*
X106631471Y-114892432D01*
X106464826Y-114908905D01*
X106295226Y-114892423D01*
X106157926Y-114846371D01*
X106077359Y-114797664D01*
X106032051Y-114750789D01*
X106011827Y-114704553D01*
X106015101Y-114643013D01*
X106052958Y-114598096D01*
X106131524Y-114565455D01*
X106327847Y-114514531D01*
X106640163Y-114437041D01*
X106818069Y-114375691D01*
X106913082Y-114323027D01*
X106988107Y-114255957D01*
X107045685Y-114173386D01*
X107082199Y-114079850D01*
X107095134Y-113977026D01*
X107083094Y-113861460D01*
X107026844Y-113699982D01*
X106929822Y-113560352D01*
X106786802Y-113438798D01*
X106618534Y-113350937D01*
X106423325Y-113296278D01*
X106195148Y-113277065D01*
X106017581Y-113289283D01*
X105842645Y-113326004D01*
X105668821Y-113387989D01*
X105568320Y-113277065D01*
X105399329Y-113277065D01*
X105487919Y-113789249D01*
X105650582Y-113789249D01*
X105699399Y-113682737D01*
X105774073Y-113599679D01*
X105878523Y-113536838D01*
X106020871Y-113495146D01*
X106212457Y-113479556D01*
X106358213Y-113493106D01*
X106473760Y-113530551D01*
X106562388Y-113591951D01*
X106598642Y-113660644D01*
X106593687Y-113733178D01*
X106544855Y-113783293D01*
X106447569Y-113820296D01*
X106186215Y-113883236D01*
X105906563Y-113953667D01*
X105741591Y-114014259D01*
X105652644Y-114066770D01*
X105584118Y-114131354D01*
X105533330Y-114208933D01*
X105502245Y-114296119D01*
X105492018Y-114393829D01*
X105504483Y-114505412D01*
X105545249Y-114633125D01*
X105611890Y-114748652D01*
X105706569Y-114854157D01*
X105833531Y-114950594D01*
X106021667Y-115045783D01*
X106227266Y-115103508D01*
X106454590Y-115123307D01*
X106630510Y-115110690D01*
X106808197Y-115072342D01*
X106989293Y-115006800D01*
X107046810Y-115055772D01*
X107095377Y-115123307D01*
X107288004Y-115123307D01*
G37*
G36*
X103093016Y-113881933D02*
G01*
X103233159Y-114555848D01*
X103248019Y-114690842D01*
X103232973Y-114763364D01*
X103187073Y-114807803D01*
X103091155Y-114825526D01*
X103138242Y-115051840D01*
X104280045Y-115051840D01*
X104232959Y-114825526D01*
X104077319Y-114808289D01*
X104000876Y-114768575D01*
X103952203Y-114695930D01*
X103908563Y-114554359D01*
X103788148Y-113974989D01*
X103772659Y-113830295D01*
X103790009Y-113758912D01*
X103820059Y-113730625D01*
X103882977Y-113709117D01*
X103999014Y-113699914D01*
X103952300Y-113475276D01*
X103014290Y-113324524D01*
X103007079Y-113415174D01*
X103028621Y-113572427D01*
X102859188Y-113439450D01*
X102700318Y-113350394D01*
X102536132Y-113294874D01*
X102378528Y-113277065D01*
X102195413Y-113297377D01*
X102061253Y-113352243D01*
X101963682Y-113438053D01*
X101900500Y-113551784D01*
X101874711Y-113695007D01*
X101892401Y-113878955D01*
X102032544Y-114553429D01*
X102046803Y-114696555D01*
X102026961Y-114767459D01*
X101995224Y-114795587D01*
X101932524Y-114816651D01*
X101821120Y-114825526D01*
X101868206Y-115051840D01*
X102998471Y-115051840D01*
X102951012Y-114823293D01*
X102870918Y-114811727D01*
X102800446Y-114777509D01*
X102747038Y-114710695D01*
X102697154Y-114554732D01*
X102567247Y-113929950D01*
X102548973Y-113772765D01*
X102564827Y-113696936D01*
X102609413Y-113650903D01*
X102683754Y-113634403D01*
X102769719Y-113648458D01*
X102872286Y-113695820D01*
X102973547Y-113768533D01*
X103093016Y-113881933D01*
G37*
G36*
X100457479Y-113299476D02*
G01*
X100653305Y-113344847D01*
X100840189Y-113420330D01*
X101020089Y-113527388D01*
X101178287Y-113660948D01*
X101302377Y-113815417D01*
X101395108Y-113993253D01*
X101456896Y-114198511D01*
X101482240Y-114424553D01*
X101461194Y-114608055D01*
X101400420Y-114759196D01*
X101300375Y-114885454D01*
X101168936Y-114987119D01*
X101017015Y-115060942D01*
X100840699Y-115107069D01*
X100634835Y-115123307D01*
X100425874Y-115107554D01*
X100228254Y-115060931D01*
X100039510Y-114983281D01*
X99857627Y-114872985D01*
X99697038Y-114735692D01*
X99571975Y-114579577D01*
X99479361Y-114402476D01*
X99418400Y-114200745D01*
X99394721Y-114018245D01*
X99402242Y-113863958D01*
X99431349Y-113752735D01*
X100064848Y-113752735D01*
X100071123Y-113920531D01*
X100115580Y-114191253D01*
X100189212Y-114483123D01*
X100257879Y-114660773D01*
X100319932Y-114759084D01*
X100402772Y-114835404D01*
X100488008Y-114878148D01*
X100578629Y-114892155D01*
X100685612Y-114873193D01*
X100755113Y-114821556D01*
X100796753Y-114733214D01*
X100809081Y-114624674D01*
X100798756Y-114447530D01*
X100752831Y-114174689D01*
X100680185Y-113893238D01*
X100610911Y-113725316D01*
X100547176Y-113634961D01*
X100462784Y-113565962D01*
X100380088Y-113527649D01*
X100296481Y-113515290D01*
X100195282Y-113532111D01*
X100126441Y-113578157D01*
X100081521Y-113655806D01*
X100064848Y-113752735D01*
X99431349Y-113752735D01*
X99436692Y-113732317D01*
X99496387Y-113618731D01*
X99582366Y-113519943D01*
X99716859Y-113418843D01*
X99870435Y-113345647D01*
X100046689Y-113300101D01*
X100250325Y-113284138D01*
X100457479Y-113299476D01*
G37*
G36*
X98611228Y-115087573D02*
G01*
X98876811Y-113846758D01*
X98926196Y-113669732D01*
X98963168Y-113605741D01*
X99016930Y-113575214D01*
X99111127Y-113562935D01*
X99064041Y-113336622D01*
X97945501Y-113336622D01*
X97992588Y-113562935D01*
X98130185Y-113575769D01*
X98195081Y-113604465D01*
X98218901Y-113642219D01*
X98220438Y-113690236D01*
X98205687Y-113794460D01*
X98078200Y-114436922D01*
X97360920Y-113336622D01*
X97011400Y-113336622D01*
X96743583Y-114436922D01*
X96341579Y-113763193D01*
X96300262Y-113671439D01*
X96308658Y-113617959D01*
X96365593Y-113580441D01*
X96512989Y-113562935D01*
X96465903Y-113336622D01*
X95743598Y-113336622D01*
X95790684Y-113562935D01*
X95893919Y-113580869D01*
X95975681Y-113632914D01*
X96054261Y-113727202D01*
X96199761Y-113948934D01*
X96903454Y-115087573D01*
X97263211Y-115087573D01*
X97540706Y-113994717D01*
X98250168Y-115087573D01*
X98611228Y-115087573D01*
G37*
G36*
X95263612Y-114110852D02*
G01*
X95119933Y-113420000D01*
X94923584Y-113420000D01*
X94872431Y-113473269D01*
X94796282Y-113491468D01*
X94723931Y-113480016D01*
X94657268Y-113445268D01*
X94593791Y-113383336D01*
X94521801Y-113259831D01*
X94465373Y-113073458D01*
X94430039Y-112849323D01*
X94425544Y-112689168D01*
X94442668Y-112577653D01*
X94487733Y-112483756D01*
X94554885Y-112430983D01*
X94650556Y-112412384D01*
X94746294Y-112431797D01*
X94829077Y-112491126D01*
X94902925Y-112601289D01*
X94972006Y-112715466D01*
X95042665Y-112787457D01*
X95115658Y-112827271D01*
X95193820Y-112840258D01*
X95271024Y-112825763D01*
X95336010Y-112782377D01*
X95375251Y-112717709D01*
X95376397Y-112635720D01*
X95334334Y-112530488D01*
X95247071Y-112426353D01*
X95100391Y-112320817D01*
X94935425Y-112244582D01*
X94750316Y-112197564D01*
X94540935Y-112181232D01*
X94334294Y-112198144D01*
X94167847Y-112244982D01*
X94033687Y-112318174D01*
X93926018Y-112417409D01*
X93845358Y-112540219D01*
X93797377Y-112680104D01*
X93782359Y-112842016D01*
X93804486Y-113032327D01*
X93852735Y-113197216D01*
X93923257Y-113340871D01*
X94016012Y-113466270D01*
X94132417Y-113575405D01*
X94311786Y-113689679D01*
X94493258Y-113755578D01*
X94680892Y-113777337D01*
X94802841Y-113766442D01*
X94928795Y-113732856D01*
X95007335Y-114110852D01*
X95263612Y-114110852D01*
G37*
G36*
X95629138Y-114748103D02*
G01*
X95597330Y-114651596D01*
X95543930Y-114564070D01*
X95466662Y-114483822D01*
X95375011Y-114420985D01*
X95281610Y-114384844D01*
X95184142Y-114372899D01*
X95088308Y-114385710D01*
X95010948Y-114422172D01*
X94947592Y-114482892D01*
X94904654Y-114559780D01*
X94886861Y-114646701D01*
X94895295Y-114748103D01*
X94927745Y-114847337D01*
X94981393Y-114935539D01*
X95058144Y-115014617D01*
X95149409Y-115076110D01*
X95242641Y-115111569D01*
X95340105Y-115123307D01*
X95438671Y-115110131D01*
X95516458Y-115072955D01*
X95578516Y-115011453D01*
X95620264Y-114933393D01*
X95637378Y-114846930D01*
X95629138Y-114748103D01*
G37*
G36*
X135339530Y-137475762D02*
G01*
X135736882Y-136413987D01*
X135835605Y-136190861D01*
X135899358Y-136102806D01*
X135979058Y-136058307D01*
X136101477Y-136041389D01*
X136053460Y-135810237D01*
X134667104Y-135810237D01*
X134715121Y-136041389D01*
X134859456Y-136059114D01*
X134935670Y-136101655D01*
X134969165Y-136164224D01*
X134968241Y-136240514D01*
X134929337Y-136374532D01*
X134634720Y-137140573D01*
X134072659Y-136432785D01*
X133999694Y-136322639D01*
X133964899Y-136226572D01*
X133964144Y-136147202D01*
X133995669Y-136093357D01*
X134064092Y-136056613D01*
X134190841Y-136041389D01*
X134142823Y-135810237D01*
X133199044Y-135810237D01*
X133247061Y-136041389D01*
X133331928Y-136051862D01*
X133417168Y-136084164D01*
X133504828Y-136141332D01*
X133642349Y-136272899D01*
X133892874Y-136563809D01*
X134596009Y-137429979D01*
X134726288Y-138056621D01*
X134744079Y-138187368D01*
X134738628Y-138272521D01*
X134718099Y-138326113D01*
X134677758Y-138363414D01*
X134601053Y-138390708D01*
X134468149Y-138402047D01*
X134425343Y-138402047D01*
X134473360Y-138633200D01*
X135952959Y-138633200D01*
X135904942Y-138402047D01*
X135860461Y-138402047D01*
X135724998Y-138391203D01*
X135634957Y-138363601D01*
X135577383Y-138324066D01*
X135513659Y-138227985D01*
X135460318Y-138056621D01*
X135339530Y-137475762D01*
G37*
G36*
X132667515Y-136880836D02*
G01*
X132863341Y-136926207D01*
X133050225Y-137001690D01*
X133230125Y-137108748D01*
X133388323Y-137242308D01*
X133512413Y-137396777D01*
X133605144Y-137574613D01*
X133666932Y-137779871D01*
X133692276Y-138005913D01*
X133671231Y-138189415D01*
X133610456Y-138340556D01*
X133510411Y-138466814D01*
X133378972Y-138568479D01*
X133227051Y-138642302D01*
X133050735Y-138688429D01*
X132844871Y-138704667D01*
X132635910Y-138688914D01*
X132438290Y-138642291D01*
X132249546Y-138564641D01*
X132067663Y-138454345D01*
X131907074Y-138317052D01*
X131782011Y-138160937D01*
X131689397Y-137983836D01*
X131628436Y-137782105D01*
X131604757Y-137599605D01*
X131612278Y-137445318D01*
X131641385Y-137334095D01*
X132274884Y-137334095D01*
X132281159Y-137501891D01*
X132325616Y-137772613D01*
X132399248Y-138064483D01*
X132467915Y-138242133D01*
X132529968Y-138340444D01*
X132612808Y-138416764D01*
X132698044Y-138459508D01*
X132788665Y-138473515D01*
X132895648Y-138454553D01*
X132965149Y-138402916D01*
X133006789Y-138314574D01*
X133019117Y-138206034D01*
X133008792Y-138028890D01*
X132962867Y-137756049D01*
X132890221Y-137474598D01*
X132820947Y-137306676D01*
X132757212Y-137216321D01*
X132672820Y-137147322D01*
X132590124Y-137109009D01*
X132506517Y-137096650D01*
X132405318Y-137113471D01*
X132336477Y-137159517D01*
X132291557Y-137237166D01*
X132274884Y-137334095D01*
X131641385Y-137334095D01*
X131646728Y-137313677D01*
X131706423Y-137200091D01*
X131792402Y-137101303D01*
X131926895Y-137000203D01*
X132080471Y-136927007D01*
X132256725Y-136881461D01*
X132460361Y-136865498D01*
X132667515Y-136880836D01*
G37*
G36*
X130285444Y-138395719D02*
G01*
X130454801Y-138532843D01*
X130619517Y-138626872D01*
X130792382Y-138685470D01*
X130966618Y-138704667D01*
X131112759Y-138689733D01*
X131239237Y-138646727D01*
X131350197Y-138576063D01*
X131408940Y-138506802D01*
X131445519Y-138409239D01*
X131456352Y-138272976D01*
X131432273Y-138084166D01*
X131296783Y-137432398D01*
X131281629Y-137285599D01*
X131300877Y-137214460D01*
X131331906Y-137185726D01*
X131390042Y-137164841D01*
X131489782Y-137156206D01*
X131442695Y-136929893D01*
X130528136Y-136929893D01*
X130759660Y-138043407D01*
X130776537Y-138194494D01*
X130760033Y-138276607D01*
X130711394Y-138328162D01*
X130621564Y-138347330D01*
X130542721Y-138332589D01*
X130442710Y-138281074D01*
X130342713Y-138203355D01*
X130220119Y-138082119D01*
X130085001Y-137431654D01*
X130069758Y-137288494D01*
X130087420Y-137216321D01*
X130117812Y-137187428D01*
X130181085Y-137165548D01*
X130297356Y-137156206D01*
X130250269Y-136929893D01*
X129316354Y-136929893D01*
X129566117Y-138131253D01*
X129581926Y-138276492D01*
X129565001Y-138347888D01*
X129535136Y-138376138D01*
X129472191Y-138397660D01*
X129355624Y-138406886D01*
X129402710Y-138633200D01*
X129501908Y-138633200D01*
X129886084Y-138649891D01*
X130349653Y-138704667D01*
X130285444Y-138395719D01*
G37*
G36*
X128003884Y-137289463D02*
G01*
X127831953Y-137094925D01*
X127667206Y-136966185D01*
X127547920Y-136905251D01*
X127430127Y-136870001D01*
X127311916Y-136858425D01*
X127202423Y-136872494D01*
X127125365Y-136910333D01*
X127072016Y-136970466D01*
X127029109Y-137086771D01*
X127032933Y-137214087D01*
X127074496Y-137328891D01*
X127147578Y-137425698D01*
X127245900Y-137491472D01*
X127364028Y-137513543D01*
X127427844Y-137506077D01*
X127471601Y-137486371D01*
X127509883Y-137450012D01*
X127565588Y-137373214D01*
X127629888Y-137309471D01*
X127705917Y-137289463D01*
X127785192Y-137305617D01*
X127861248Y-137356806D01*
X127937442Y-137453987D01*
X128023238Y-137641694D01*
X128105688Y-137947559D01*
X128144028Y-138131625D01*
X128159634Y-138273150D01*
X128143655Y-138345841D01*
X128114837Y-138375557D01*
X128055932Y-138397575D01*
X127948981Y-138406886D01*
X127909897Y-138406886D01*
X127956984Y-138633200D01*
X129192030Y-138633200D01*
X129144944Y-138406886D01*
X129023238Y-138398156D01*
X128946610Y-138376542D01*
X128901135Y-138346772D01*
X128851325Y-138271631D01*
X128808079Y-138131625D01*
X128684872Y-137539599D01*
X128670010Y-137394916D01*
X128688780Y-137323336D01*
X128720061Y-137295198D01*
X128785835Y-137273606D01*
X128907463Y-137264338D01*
X128861307Y-137042491D01*
X127974851Y-136858425D01*
X127968666Y-137038217D01*
X128003884Y-137289463D01*
G37*
G36*
X124355002Y-135778271D02*
G01*
X124575892Y-135823086D01*
X124770915Y-135894732D01*
X124950343Y-135996644D01*
X125089639Y-136115413D01*
X125194508Y-136251511D01*
X125274419Y-136406276D01*
X125346633Y-136602699D01*
X125409096Y-136848561D01*
X125426033Y-136929893D01*
X125740564Y-136929893D01*
X125788767Y-137161045D01*
X125474236Y-137161045D01*
X125677099Y-138137022D01*
X125718043Y-138271632D01*
X125765317Y-138346213D01*
X125808724Y-138376354D01*
X125881968Y-138398109D01*
X125998516Y-138406886D01*
X126047650Y-138406886D01*
X126094737Y-138633200D01*
X124848152Y-138633200D01*
X124801065Y-138406886D01*
X124913052Y-138398041D01*
X124975853Y-138377086D01*
X125007464Y-138349191D01*
X125027122Y-138278944D01*
X125013048Y-138137022D01*
X124810184Y-137161045D01*
X124146133Y-137161045D01*
X124348996Y-138137022D01*
X124393745Y-138280943D01*
X124443542Y-138352355D01*
X124517769Y-138391075D01*
X124649569Y-138406886D01*
X124696656Y-138633200D01*
X123473334Y-138633200D01*
X123426248Y-138406886D01*
X123477057Y-138406886D01*
X123588523Y-138397642D01*
X123650224Y-138375802D01*
X123680664Y-138346585D01*
X123698659Y-138274641D01*
X123684201Y-138134789D01*
X123298727Y-136280731D01*
X123962998Y-136280731D01*
X124097930Y-136929893D01*
X124761981Y-136929893D01*
X124681394Y-136542406D01*
X124628012Y-136338100D01*
X124571458Y-136201086D01*
X124514079Y-136114159D01*
X124437890Y-136048023D01*
X124345329Y-136007889D01*
X124231373Y-135993744D01*
X124128505Y-136008012D01*
X124056954Y-136046502D01*
X124008214Y-136108597D01*
X123980493Y-136201260D01*
X123962998Y-136280731D01*
X123298727Y-136280731D01*
X123191001Y-135762592D01*
X123446351Y-135806376D01*
X123647164Y-135819356D01*
X123863427Y-135776736D01*
X124103885Y-135762592D01*
X124355002Y-135778271D01*
G37*
G36*
X122163300Y-136875105D02*
G01*
X122394520Y-136921477D01*
X122585761Y-136993357D01*
X122722128Y-137072328D01*
X122815246Y-137152886D01*
X122874326Y-137235235D01*
X122905504Y-137321103D01*
X122905038Y-137401221D01*
X122868281Y-137469621D01*
X122801460Y-137515533D01*
X122696685Y-137532713D01*
X122578000Y-137516616D01*
X122494752Y-137473157D01*
X122430619Y-137400420D01*
X122373034Y-137281833D01*
X122328453Y-137199441D01*
X122262969Y-137140929D01*
X122172258Y-137103471D01*
X122047709Y-137089578D01*
X121948255Y-137102126D01*
X121873693Y-137136664D01*
X121842801Y-137174261D01*
X121828925Y-137239543D01*
X121840192Y-137348647D01*
X121872390Y-137503493D01*
X122313107Y-137657943D01*
X122611532Y-137785780D01*
X122801839Y-137890608D01*
X122965919Y-138021155D01*
X123067792Y-138154065D01*
X123119906Y-138292240D01*
X123127681Y-138396246D01*
X123106904Y-138484047D01*
X123058488Y-138560802D01*
X122987324Y-138616908D01*
X122881843Y-138654522D01*
X122729254Y-138668933D01*
X122553416Y-138655201D01*
X122378431Y-138613658D01*
X122207658Y-138545782D01*
X122032819Y-138448017D01*
X121978214Y-138538451D01*
X121890917Y-138606044D01*
X121761233Y-138651503D01*
X121573492Y-138668933D01*
X121438958Y-138657474D01*
X121314735Y-138623795D01*
X121198661Y-138567874D01*
X121100875Y-138488981D01*
X121030351Y-138386142D01*
X120985747Y-138254087D01*
X121147294Y-138254087D01*
X121187253Y-138323184D01*
X121232460Y-138359450D01*
X121285017Y-138371152D01*
X121334753Y-138354831D01*
X121359109Y-138304186D01*
X121351460Y-138191925D01*
X121257054Y-137737624D01*
X121921152Y-137737624D01*
X122022769Y-138226915D01*
X122101387Y-138289112D01*
X122174265Y-138331510D01*
X122249313Y-138358286D01*
X122321667Y-138366872D01*
X122394400Y-138350432D01*
X122442268Y-138303221D01*
X122466052Y-138236460D01*
X122463113Y-138159914D01*
X122422782Y-138061082D01*
X122334881Y-137957237D01*
X122199536Y-137864707D01*
X121921152Y-137737624D01*
X121257054Y-137737624D01*
X121186936Y-137400201D01*
X121166245Y-137257276D01*
X121169069Y-137162720D01*
X121197896Y-137079817D01*
X121263428Y-136995963D01*
X121357403Y-136931485D01*
X121496814Y-136887645D01*
X121659492Y-136866541D01*
X121884301Y-136858425D01*
X122163300Y-136875105D01*
G37*
G36*
X120806334Y-138704667D02*
G01*
X120687408Y-138132928D01*
X120492734Y-138132928D01*
X120444770Y-138262247D01*
X120373184Y-138358869D01*
X120276745Y-138428880D01*
X120149802Y-138473792D01*
X119983156Y-138490265D01*
X119813556Y-138473783D01*
X119676256Y-138427731D01*
X119595689Y-138379024D01*
X119550381Y-138332149D01*
X119530157Y-138285913D01*
X119533431Y-138224373D01*
X119571288Y-138179456D01*
X119649854Y-138146815D01*
X119846177Y-138095891D01*
X120158493Y-138018401D01*
X120336399Y-137957051D01*
X120431412Y-137904387D01*
X120506437Y-137837317D01*
X120564015Y-137754746D01*
X120600530Y-137661210D01*
X120613464Y-137558386D01*
X120601424Y-137442820D01*
X120545175Y-137281342D01*
X120448152Y-137141712D01*
X120305132Y-137020158D01*
X120136864Y-136932297D01*
X119941655Y-136877638D01*
X119713479Y-136858425D01*
X119535912Y-136870643D01*
X119360975Y-136907364D01*
X119187151Y-136969349D01*
X119086650Y-136858425D01*
X118917659Y-136858425D01*
X119006249Y-137370609D01*
X119168912Y-137370609D01*
X119217729Y-137264097D01*
X119292403Y-137181039D01*
X119396853Y-137118198D01*
X119539201Y-137076506D01*
X119730787Y-137060916D01*
X119876543Y-137074466D01*
X119992090Y-137111911D01*
X120080718Y-137173311D01*
X120116972Y-137242004D01*
X120112017Y-137314538D01*
X120063185Y-137364653D01*
X119965899Y-137401656D01*
X119704545Y-137464596D01*
X119424893Y-137535027D01*
X119259921Y-137595619D01*
X119170974Y-137648130D01*
X119102448Y-137712714D01*
X119051661Y-137790293D01*
X119020575Y-137877479D01*
X119010349Y-137975189D01*
X119022813Y-138086772D01*
X119063580Y-138214485D01*
X119130220Y-138330012D01*
X119224899Y-138435517D01*
X119351861Y-138531954D01*
X119539997Y-138627143D01*
X119745597Y-138684868D01*
X119972920Y-138704667D01*
X120148840Y-138692050D01*
X120326527Y-138653702D01*
X120507623Y-138588160D01*
X120565141Y-138637132D01*
X120613707Y-138704667D01*
X120806334Y-138704667D01*
G37*
G36*
X117704760Y-137482463D02*
G01*
X117840065Y-138133300D01*
X117855447Y-138270143D01*
X117840995Y-138343794D01*
X117795427Y-138388877D01*
X117698805Y-138406886D01*
X117745891Y-138633200D01*
X118875970Y-138633200D01*
X118828883Y-138406886D01*
X118713093Y-138398218D01*
X118639460Y-138376629D01*
X118595125Y-138346585D01*
X118546566Y-138271393D01*
X118503558Y-138130508D01*
X118148082Y-136420129D01*
X118132953Y-136276482D01*
X118150873Y-136204052D01*
X118181320Y-136174970D01*
X118244006Y-136153069D01*
X118358390Y-136143751D01*
X118312606Y-135923021D01*
X117346307Y-135758497D01*
X117638318Y-137163279D01*
X117469901Y-137026176D01*
X117307967Y-136933987D01*
X117138159Y-136877010D01*
X116968869Y-136858425D01*
X116831695Y-136869920D01*
X116720836Y-136901822D01*
X116631074Y-136951854D01*
X116555360Y-137020795D01*
X116506316Y-137095567D01*
X116480323Y-137177982D01*
X116474705Y-137323167D01*
X116507495Y-137551697D01*
X116627910Y-138130694D01*
X116642575Y-138277412D01*
X116622513Y-138348819D01*
X116590392Y-138377018D01*
X116527709Y-138398054D01*
X116417230Y-138406886D01*
X116464317Y-138633200D01*
X117594395Y-138633200D01*
X117547309Y-138406886D01*
X117471102Y-138391395D01*
X117399163Y-138357194D01*
X117362158Y-138321081D01*
X117325904Y-138251421D01*
X117292148Y-138131811D01*
X117157216Y-137482463D01*
X117146030Y-137351522D01*
X117168818Y-137274807D01*
X117216669Y-137231678D01*
X117297173Y-137215763D01*
X117378071Y-137230560D01*
X117479936Y-137282019D01*
X117581406Y-137360017D01*
X117704760Y-137482463D01*
G37*
G36*
X115059840Y-136873609D02*
G01*
X115241801Y-136918751D01*
X115417190Y-136994395D01*
X115587911Y-137102606D01*
X115736530Y-137235466D01*
X115854592Y-137389684D01*
X115944090Y-137567884D01*
X116004990Y-137774102D01*
X116029429Y-137989071D01*
X116010638Y-138168849D01*
X115953904Y-138321576D01*
X115859450Y-138453414D01*
X115734466Y-138561439D01*
X115589499Y-138639230D01*
X115420620Y-138687634D01*
X115222385Y-138704667D01*
X115049762Y-138692245D01*
X114882885Y-138655177D01*
X114720066Y-138592999D01*
X114566354Y-138509550D01*
X114436772Y-138415108D01*
X114328670Y-138309735D01*
X114493752Y-138193414D01*
X114629799Y-138310563D01*
X114755175Y-138386688D01*
X114872382Y-138429094D01*
X114984346Y-138442620D01*
X115123250Y-138421864D01*
X115220002Y-138365369D01*
X115285849Y-138272512D01*
X115318590Y-138156055D01*
X115324308Y-137991855D01*
X115292363Y-137763679D01*
X114162099Y-137763679D01*
X114132620Y-137530200D01*
X114145401Y-137349472D01*
X114720601Y-137349472D01*
X114746680Y-137549277D01*
X115249743Y-137549277D01*
X115187507Y-137336220D01*
X115114811Y-137204037D01*
X115050422Y-137138875D01*
X114980344Y-137101918D01*
X114901712Y-137089578D01*
X114821983Y-137104807D01*
X114767382Y-137147604D01*
X114732057Y-137223605D01*
X114720601Y-137349472D01*
X114145401Y-137349472D01*
X114145646Y-137346005D01*
X114193101Y-137199936D01*
X114271905Y-137083250D01*
X114380935Y-136988221D01*
X114513272Y-136918509D01*
X114673765Y-136874264D01*
X114868956Y-136858425D01*
X115059840Y-136873609D01*
G37*
G36*
X113966308Y-138704667D02*
G01*
X113847381Y-138132928D01*
X113652707Y-138132928D01*
X113604744Y-138262247D01*
X113533157Y-138358869D01*
X113436718Y-138428880D01*
X113309775Y-138473792D01*
X113143130Y-138490265D01*
X112973529Y-138473783D01*
X112836229Y-138427731D01*
X112755662Y-138379024D01*
X112710354Y-138332149D01*
X112690130Y-138285913D01*
X112693404Y-138224373D01*
X112731261Y-138179456D01*
X112809827Y-138146815D01*
X113006150Y-138095891D01*
X113318467Y-138018401D01*
X113496372Y-137957051D01*
X113591385Y-137904387D01*
X113666411Y-137837317D01*
X113723988Y-137754746D01*
X113760503Y-137661210D01*
X113773437Y-137558386D01*
X113761397Y-137442820D01*
X113705148Y-137281342D01*
X113608125Y-137141712D01*
X113465105Y-137020158D01*
X113296837Y-136932297D01*
X113101629Y-136877638D01*
X112873452Y-136858425D01*
X112695885Y-136870643D01*
X112520948Y-136907364D01*
X112347124Y-136969349D01*
X112246623Y-136858425D01*
X112077632Y-136858425D01*
X112166222Y-137370609D01*
X112328885Y-137370609D01*
X112377703Y-137264097D01*
X112452376Y-137181039D01*
X112556826Y-137118198D01*
X112699174Y-137076506D01*
X112890760Y-137060916D01*
X113036516Y-137074466D01*
X113152063Y-137111911D01*
X113240691Y-137173311D01*
X113276945Y-137242004D01*
X113271990Y-137314538D01*
X113223158Y-137364653D01*
X113125873Y-137401656D01*
X112864518Y-137464596D01*
X112584866Y-137535027D01*
X112419894Y-137595619D01*
X112330947Y-137648130D01*
X112262421Y-137712714D01*
X112211634Y-137790293D01*
X112180548Y-137877479D01*
X112170322Y-137975189D01*
X112182786Y-138086772D01*
X112223553Y-138214485D01*
X112290193Y-138330012D01*
X112384872Y-138435517D01*
X112511834Y-138531954D01*
X112699970Y-138627143D01*
X112905570Y-138684868D01*
X113132893Y-138704667D01*
X113308813Y-138692050D01*
X113486500Y-138653702D01*
X113667596Y-138588160D01*
X113725114Y-138637132D01*
X113773681Y-138704667D01*
X113966308Y-138704667D01*
G37*
G36*
X109711587Y-136880836D02*
G01*
X109907413Y-136926207D01*
X110094297Y-137001690D01*
X110274197Y-137108748D01*
X110432395Y-137242308D01*
X110556485Y-137396777D01*
X110649216Y-137574613D01*
X110711004Y-137779871D01*
X110736348Y-138005913D01*
X110715303Y-138189415D01*
X110654528Y-138340556D01*
X110554483Y-138466814D01*
X110423044Y-138568479D01*
X110271123Y-138642302D01*
X110094807Y-138688429D01*
X109888943Y-138704667D01*
X109679982Y-138688914D01*
X109482362Y-138642291D01*
X109293618Y-138564641D01*
X109111735Y-138454345D01*
X108951146Y-138317052D01*
X108826083Y-138160937D01*
X108733469Y-137983836D01*
X108672508Y-137782105D01*
X108648829Y-137599605D01*
X108656350Y-137445318D01*
X108685457Y-137334095D01*
X109318956Y-137334095D01*
X109325231Y-137501891D01*
X109369688Y-137772613D01*
X109443320Y-138064483D01*
X109511987Y-138242133D01*
X109574040Y-138340444D01*
X109656880Y-138416764D01*
X109742116Y-138459508D01*
X109832737Y-138473515D01*
X109939720Y-138454553D01*
X110009221Y-138402916D01*
X110050861Y-138314574D01*
X110063189Y-138206034D01*
X110052864Y-138028890D01*
X110006939Y-137756049D01*
X109934293Y-137474598D01*
X109865019Y-137306676D01*
X109801284Y-137216321D01*
X109716892Y-137147322D01*
X109634196Y-137109009D01*
X109550589Y-137096650D01*
X109449390Y-137113471D01*
X109380549Y-137159517D01*
X109335629Y-137237166D01*
X109318956Y-137334095D01*
X108685457Y-137334095D01*
X108690800Y-137313677D01*
X108750495Y-137200091D01*
X108836474Y-137101303D01*
X108970967Y-137000203D01*
X109124543Y-136927007D01*
X109300797Y-136881461D01*
X109504433Y-136865498D01*
X109711587Y-136880836D01*
G37*
G36*
X107272380Y-137156206D02*
G01*
X107475243Y-138131811D01*
X107490621Y-138273254D01*
X107474126Y-138345841D01*
X107444930Y-138375493D01*
X107385102Y-138397545D01*
X107276288Y-138406886D01*
X107171320Y-138406886D01*
X107218407Y-138633200D01*
X108581499Y-138633200D01*
X108534412Y-138406886D01*
X108462386Y-138406886D01*
X108346387Y-138397972D01*
X108273039Y-138375801D01*
X108229187Y-138344910D01*
X108181229Y-138268857D01*
X108139480Y-138131811D01*
X107936617Y-137156206D01*
X108274412Y-137156206D01*
X108226395Y-136925054D01*
X107888600Y-136925054D01*
X107817043Y-136615262D01*
X107759996Y-136424410D01*
X107681621Y-136261672D01*
X107558435Y-136100759D01*
X107457461Y-136006586D01*
X107338167Y-135924571D01*
X107198307Y-135854718D01*
X107049982Y-135804579D01*
X106885134Y-135773416D01*
X106701199Y-135762592D01*
X106488480Y-135777767D01*
X106339714Y-135817069D01*
X106238522Y-135873887D01*
X106163006Y-135956330D01*
X106128813Y-136048920D01*
X106132996Y-136158454D01*
X106177537Y-136270477D01*
X106264764Y-136369693D01*
X106377353Y-136437671D01*
X106494613Y-136459399D01*
X106597994Y-136440673D01*
X106671103Y-136388024D01*
X106721280Y-136296115D01*
X106745121Y-136147474D01*
X106762610Y-136055741D01*
X106800742Y-136009392D01*
X106860884Y-135993744D01*
X106916502Y-136003773D01*
X106965887Y-136034213D01*
X107011263Y-136089406D01*
X107062506Y-136203820D01*
X107119209Y-136419757D01*
X107224362Y-136925054D01*
X106863303Y-136925054D01*
X106911320Y-137156206D01*
X107272380Y-137156206D01*
G37*
G36*
X104192209Y-137485068D02*
G01*
X104327699Y-138136092D01*
X104342035Y-138278572D01*
X104322674Y-138349005D01*
X104291628Y-138377315D01*
X104231907Y-138398180D01*
X104127627Y-138406886D01*
X104174714Y-138633200D01*
X105398035Y-138633200D01*
X105350948Y-138406886D01*
X105298465Y-138406886D01*
X105183532Y-138398084D01*
X105111127Y-138376228D01*
X105068057Y-138345841D01*
X105021031Y-138271103D01*
X104980025Y-138136092D01*
X104859610Y-137557280D01*
X104844862Y-137412984D01*
X104863891Y-137341575D01*
X104895357Y-137313400D01*
X104961105Y-137291823D01*
X105082201Y-137282577D01*
X105035673Y-137058497D01*
X104106411Y-136906443D01*
X104103398Y-137008193D01*
X104128372Y-137177423D01*
X103947390Y-137035407D01*
X103761543Y-136937710D01*
X103563215Y-136878332D01*
X103354328Y-136858425D01*
X103200660Y-136870057D01*
X103081180Y-136901681D01*
X102988802Y-136949993D01*
X102913734Y-137019634D01*
X102860185Y-137110126D01*
X102828000Y-137226557D01*
X102651157Y-137062123D01*
X102468616Y-136949993D01*
X102269902Y-136881495D01*
X102055817Y-136858425D01*
X101882321Y-136876060D01*
X101739425Y-136925798D01*
X101620861Y-137004399D01*
X101548101Y-137093858D01*
X101504045Y-137196273D01*
X101487055Y-137295419D01*
X101492079Y-137406494D01*
X101522045Y-137586872D01*
X101635946Y-138134789D01*
X101650155Y-138282621D01*
X101628315Y-138351797D01*
X101594187Y-138377702D01*
X101522341Y-138398086D01*
X101389532Y-138406886D01*
X101436619Y-138633200D01*
X102648401Y-138633200D01*
X102601314Y-138406886D01*
X102462338Y-138389223D01*
X102389332Y-138346772D01*
X102341913Y-138272279D01*
X102300183Y-138135161D01*
X102176418Y-137540344D01*
X102161033Y-137377585D01*
X102185166Y-137279041D01*
X102222378Y-137232127D01*
X102277619Y-137202847D01*
X102357692Y-137191940D01*
X102475133Y-137209515D01*
X102598150Y-137265269D01*
X102714437Y-137352620D01*
X102840656Y-137485068D01*
X102976146Y-138136092D01*
X102990319Y-138276935D01*
X102971121Y-138348074D01*
X102940076Y-138376884D01*
X102880355Y-138398058D01*
X102776074Y-138406886D01*
X102823161Y-138633200D01*
X103988229Y-138633200D01*
X103941142Y-138406886D01*
X103804815Y-138389953D01*
X103731393Y-138349005D01*
X103683126Y-138276122D01*
X103640570Y-138137767D01*
X103517735Y-137547602D01*
X103502642Y-137386997D01*
X103526854Y-137289836D01*
X103563949Y-137243557D01*
X103618956Y-137214631D01*
X103698637Y-137203851D01*
X103808986Y-137220347D01*
X103932953Y-137274202D01*
X104054005Y-137357680D01*
X104192209Y-137485068D01*
G37*
G36*
X100045728Y-136873609D02*
G01*
X100227689Y-136918751D01*
X100403078Y-136994395D01*
X100573799Y-137102606D01*
X100722419Y-137235466D01*
X100840480Y-137389684D01*
X100929978Y-137567884D01*
X100990878Y-137774102D01*
X101015317Y-137989071D01*
X100996526Y-138168849D01*
X100939792Y-138321576D01*
X100845338Y-138453414D01*
X100720354Y-138561439D01*
X100575387Y-138639230D01*
X100406508Y-138687634D01*
X100208273Y-138704667D01*
X100035650Y-138692245D01*
X99868773Y-138655177D01*
X99705954Y-138592999D01*
X99552242Y-138509550D01*
X99422660Y-138415108D01*
X99314558Y-138309735D01*
X99479640Y-138193414D01*
X99615687Y-138310563D01*
X99741063Y-138386688D01*
X99858270Y-138429094D01*
X99970234Y-138442620D01*
X100109138Y-138421864D01*
X100205890Y-138365369D01*
X100271737Y-138272512D01*
X100304479Y-138156055D01*
X100310196Y-137991855D01*
X100278251Y-137763679D01*
X99147987Y-137763679D01*
X99118508Y-137530200D01*
X99131289Y-137349472D01*
X99706489Y-137349472D01*
X99732568Y-137549277D01*
X100235631Y-137549277D01*
X100173395Y-137336220D01*
X100100699Y-137204037D01*
X100036310Y-137138875D01*
X99966232Y-137101918D01*
X99887600Y-137089578D01*
X99807872Y-137104807D01*
X99753270Y-137147604D01*
X99717945Y-137223605D01*
X99706489Y-137349472D01*
X99131289Y-137349472D01*
X99131534Y-137346005D01*
X99178989Y-137199936D01*
X99257793Y-137083250D01*
X99366823Y-136988221D01*
X99499160Y-136918509D01*
X99659653Y-136874264D01*
X99854844Y-136858425D01*
X100045728Y-136873609D01*
G37*
G36*
X97841659Y-137289463D02*
G01*
X97669728Y-137094925D01*
X97504981Y-136966185D01*
X97385695Y-136905251D01*
X97267902Y-136870001D01*
X97149691Y-136858425D01*
X97040198Y-136872494D01*
X96963140Y-136910333D01*
X96909791Y-136970466D01*
X96866884Y-137086771D01*
X96870707Y-137214087D01*
X96912271Y-137328891D01*
X96985353Y-137425698D01*
X97083674Y-137491472D01*
X97201803Y-137513543D01*
X97265618Y-137506077D01*
X97309376Y-137486371D01*
X97347658Y-137450012D01*
X97403363Y-137373214D01*
X97467663Y-137309471D01*
X97543692Y-137289463D01*
X97622967Y-137305617D01*
X97699022Y-137356806D01*
X97775217Y-137453987D01*
X97861013Y-137641694D01*
X97943463Y-137947559D01*
X97981802Y-138131625D01*
X97997409Y-138273150D01*
X97981430Y-138345841D01*
X97952611Y-138375557D01*
X97893706Y-138397575D01*
X97786756Y-138406886D01*
X97747672Y-138406886D01*
X97794759Y-138633200D01*
X99029805Y-138633200D01*
X98982718Y-138406886D01*
X98861012Y-138398156D01*
X98784385Y-138376542D01*
X98738910Y-138346772D01*
X98689100Y-138271631D01*
X98645854Y-138131625D01*
X98522647Y-137539599D01*
X98507785Y-137394916D01*
X98526555Y-137323336D01*
X98557835Y-137295198D01*
X98623610Y-137273606D01*
X98745238Y-137264338D01*
X98699082Y-137042491D01*
X97812626Y-136858425D01*
X97806440Y-137038217D01*
X97841659Y-137289463D01*
G37*
G36*
X95798882Y-137289463D02*
G01*
X95626951Y-137094925D01*
X95462204Y-136966185D01*
X95342918Y-136905251D01*
X95225125Y-136870001D01*
X95106914Y-136858425D01*
X94997421Y-136872494D01*
X94920363Y-136910333D01*
X94867014Y-136970466D01*
X94824107Y-137086771D01*
X94827931Y-137214087D01*
X94869494Y-137328891D01*
X94942576Y-137425698D01*
X95040898Y-137491472D01*
X95159026Y-137513543D01*
X95222841Y-137506077D01*
X95266599Y-137486371D01*
X95304881Y-137450012D01*
X95360586Y-137373214D01*
X95424886Y-137309471D01*
X95500915Y-137289463D01*
X95580190Y-137305617D01*
X95656246Y-137356806D01*
X95732440Y-137453987D01*
X95818236Y-137641694D01*
X95900686Y-137947559D01*
X95939025Y-138131625D01*
X95954632Y-138273150D01*
X95938653Y-138345841D01*
X95909835Y-138375557D01*
X95850930Y-138397575D01*
X95743979Y-138406886D01*
X95704895Y-138406886D01*
X95751982Y-138633200D01*
X96987028Y-138633200D01*
X96939941Y-138406886D01*
X96818236Y-138398156D01*
X96741608Y-138376542D01*
X96696133Y-138346772D01*
X96646323Y-138271631D01*
X96603077Y-138131625D01*
X96479870Y-137539599D01*
X96465008Y-137394916D01*
X96483778Y-137323336D01*
X96515059Y-137295198D01*
X96580833Y-137273606D01*
X96702461Y-137264338D01*
X96656305Y-137042491D01*
X95769849Y-136858425D01*
X95763663Y-137038217D01*
X95798882Y-137289463D01*
G37*
G36*
X94180629Y-136137796D02*
G01*
X94148838Y-136041240D01*
X94095213Y-135953722D01*
X94017408Y-135873515D01*
X93925062Y-135810598D01*
X93831530Y-135774494D01*
X93734516Y-135762592D01*
X93637848Y-135775453D01*
X93560560Y-135811909D01*
X93497967Y-135872399D01*
X93455655Y-135949214D01*
X93438144Y-136036208D01*
X93446600Y-136137796D01*
X93478722Y-136235610D01*
X93532244Y-136323478D01*
X93609262Y-136403193D01*
X93700594Y-136465387D01*
X93793633Y-136501172D01*
X93890665Y-136513000D01*
X93989880Y-136499682D01*
X94067943Y-136462137D01*
X94130007Y-136400029D01*
X94171678Y-136321434D01*
X94188717Y-136235283D01*
X94180629Y-136137796D01*
G37*
G36*
X93631410Y-136857681D02*
G01*
X93896063Y-138130694D01*
X93911529Y-138276030D01*
X93893829Y-138347702D01*
X93863481Y-138376146D01*
X93800597Y-138397694D01*
X93685383Y-138406886D01*
X93732469Y-138633200D01*
X94979054Y-138633200D01*
X94931968Y-138406886D01*
X94884695Y-138406886D01*
X94769007Y-138397963D01*
X94695290Y-138375691D01*
X94650751Y-138344538D01*
X94602100Y-138268159D01*
X94560114Y-138130694D01*
X94431324Y-137511682D01*
X94416455Y-137369856D01*
X94434115Y-137296908D01*
X94464458Y-137267332D01*
X94527016Y-137245121D01*
X94641259Y-137235677D01*
X94688532Y-137235677D01*
X94642748Y-137015505D01*
X93631410Y-136857681D01*
G37*
G36*
X92376263Y-137485068D02*
G01*
X92511754Y-138136092D01*
X92526090Y-138278572D01*
X92506729Y-138349005D01*
X92475683Y-138377315D01*
X92415961Y-138398180D01*
X92311682Y-138406886D01*
X92358769Y-138633200D01*
X93582090Y-138633200D01*
X93535003Y-138406886D01*
X93482519Y-138406886D01*
X93367587Y-138398084D01*
X93295181Y-138376228D01*
X93252111Y-138345841D01*
X93205086Y-138271103D01*
X93164080Y-138136092D01*
X93043665Y-137557280D01*
X93028916Y-137412984D01*
X93047945Y-137341575D01*
X93079412Y-137313400D01*
X93145160Y-137291823D01*
X93266256Y-137282577D01*
X93219728Y-137058497D01*
X92290465Y-136906443D01*
X92287453Y-137008193D01*
X92312427Y-137177423D01*
X92131445Y-137035407D01*
X91945598Y-136937710D01*
X91747269Y-136878332D01*
X91538382Y-136858425D01*
X91384714Y-136870057D01*
X91265235Y-136901681D01*
X91172856Y-136949993D01*
X91097789Y-137019634D01*
X91044240Y-137110126D01*
X91012055Y-137226557D01*
X90835212Y-137062123D01*
X90652670Y-136949993D01*
X90453957Y-136881495D01*
X90239872Y-136858425D01*
X90066375Y-136876060D01*
X89923479Y-136925798D01*
X89804916Y-137004399D01*
X89732155Y-137093858D01*
X89688099Y-137196273D01*
X89671110Y-137295419D01*
X89676134Y-137406494D01*
X89706099Y-137586872D01*
X89820001Y-138134789D01*
X89834210Y-138282621D01*
X89812370Y-138351797D01*
X89778242Y-138377702D01*
X89706396Y-138398086D01*
X89573587Y-138406886D01*
X89620674Y-138633200D01*
X90832456Y-138633200D01*
X90785369Y-138406886D01*
X90646393Y-138389223D01*
X90573386Y-138346772D01*
X90525968Y-138272279D01*
X90484238Y-138135161D01*
X90360473Y-137540344D01*
X90345087Y-137377585D01*
X90369220Y-137279041D01*
X90406433Y-137232127D01*
X90461673Y-137202847D01*
X90541747Y-137191940D01*
X90659188Y-137209515D01*
X90782205Y-137265269D01*
X90898492Y-137352620D01*
X91024710Y-137485068D01*
X91160201Y-138136092D01*
X91174374Y-138276935D01*
X91155176Y-138348074D01*
X91124131Y-138376884D01*
X91064409Y-138398058D01*
X90960129Y-138406886D01*
X91007216Y-138633200D01*
X92172283Y-138633200D01*
X92125197Y-138406886D01*
X91988869Y-138389953D01*
X91915447Y-138349005D01*
X91867180Y-138276122D01*
X91824624Y-138137767D01*
X91701790Y-137547602D01*
X91686697Y-137386997D01*
X91710909Y-137289836D01*
X91748004Y-137243557D01*
X91803011Y-137214631D01*
X91882692Y-137203851D01*
X91993041Y-137220347D01*
X92117008Y-137274202D01*
X92238059Y-137357680D01*
X92376263Y-137485068D01*
G37*
G36*
X88229782Y-136873609D02*
G01*
X88411744Y-136918751D01*
X88587133Y-136994395D01*
X88757853Y-137102606D01*
X88906473Y-137235466D01*
X89024534Y-137389684D01*
X89114033Y-137567884D01*
X89174933Y-137774102D01*
X89199372Y-137989071D01*
X89180581Y-138168849D01*
X89123847Y-138321576D01*
X89029392Y-138453414D01*
X88904409Y-138561439D01*
X88759442Y-138639230D01*
X88590563Y-138687634D01*
X88392327Y-138704667D01*
X88219704Y-138692245D01*
X88052828Y-138655177D01*
X87890008Y-138592999D01*
X87736297Y-138509550D01*
X87606715Y-138415108D01*
X87498613Y-138309735D01*
X87663695Y-138193414D01*
X87799741Y-138310563D01*
X87925118Y-138386688D01*
X88042325Y-138429094D01*
X88154289Y-138442620D01*
X88293193Y-138421864D01*
X88389945Y-138365369D01*
X88455792Y-138272512D01*
X88488533Y-138156055D01*
X88494251Y-137991855D01*
X88462306Y-137763679D01*
X87332041Y-137763679D01*
X87302563Y-137530200D01*
X87315344Y-137349472D01*
X87890544Y-137349472D01*
X87916622Y-137549277D01*
X88419686Y-137549277D01*
X88357450Y-137336220D01*
X88284754Y-137204037D01*
X88220365Y-137138875D01*
X88150287Y-137101918D01*
X88071655Y-137089578D01*
X87991926Y-137104807D01*
X87937324Y-137147604D01*
X87902000Y-137223605D01*
X87890544Y-137349472D01*
X87315344Y-137349472D01*
X87315589Y-137346005D01*
X87363044Y-137199936D01*
X87441848Y-137083250D01*
X87550878Y-136988221D01*
X87683215Y-136918509D01*
X87843707Y-136874264D01*
X88038899Y-136858425D01*
X88229782Y-136873609D01*
G37*
G36*
X86050095Y-137463293D02*
G01*
X86190238Y-138137208D01*
X86205097Y-138272202D01*
X86190052Y-138344724D01*
X86144152Y-138389163D01*
X86048234Y-138406886D01*
X86095320Y-138633200D01*
X87237124Y-138633200D01*
X87190037Y-138406886D01*
X87034398Y-138389649D01*
X86957954Y-138349935D01*
X86909282Y-138277290D01*
X86865642Y-138135719D01*
X86745227Y-137556349D01*
X86729738Y-137411655D01*
X86747088Y-137340272D01*
X86777138Y-137311985D01*
X86840056Y-137290477D01*
X86956093Y-137281274D01*
X86909379Y-137056636D01*
X85971369Y-136905884D01*
X85964158Y-136996534D01*
X85985700Y-137153787D01*
X85816266Y-137020810D01*
X85657396Y-136931754D01*
X85493211Y-136876234D01*
X85335607Y-136858425D01*
X85152491Y-136878737D01*
X85018332Y-136933603D01*
X84920761Y-137019413D01*
X84857579Y-137133144D01*
X84831789Y-137276367D01*
X84849479Y-137460315D01*
X84989623Y-138134789D01*
X85003882Y-138277915D01*
X84984039Y-138348819D01*
X84952302Y-138376947D01*
X84889602Y-138398011D01*
X84778198Y-138406886D01*
X84825285Y-138633200D01*
X85955549Y-138633200D01*
X85908090Y-138404653D01*
X85827996Y-138393087D01*
X85757525Y-138358869D01*
X85704116Y-138292055D01*
X85654232Y-138136092D01*
X85524325Y-137511310D01*
X85506051Y-137354125D01*
X85521906Y-137278296D01*
X85566492Y-137232263D01*
X85640832Y-137215763D01*
X85726797Y-137229818D01*
X85829365Y-137277180D01*
X85930625Y-137349893D01*
X86050095Y-137463293D01*
G37*
G36*
X83445443Y-137156206D02*
G01*
X83629508Y-138041732D01*
X83662745Y-138246315D01*
X83662078Y-138335419D01*
X83645050Y-138374443D01*
X83612726Y-138397940D01*
X83558972Y-138406886D01*
X83477249Y-138390508D01*
X83394687Y-138337760D01*
X83307533Y-138236779D01*
X83122164Y-138305268D01*
X83228685Y-138449423D01*
X83353633Y-138559128D01*
X83499101Y-138638135D01*
X83669143Y-138687334D01*
X83869408Y-138704667D01*
X84050704Y-138686431D01*
X84176448Y-138638583D01*
X84261734Y-138566385D01*
X84314762Y-138467904D01*
X84335756Y-138334102D01*
X84316266Y-138150981D01*
X84109494Y-137156206D01*
X84354233Y-137156206D01*
X84307146Y-136929893D01*
X84255779Y-136929893D01*
X84095622Y-136912391D01*
X83944106Y-136859991D01*
X83797941Y-136770394D01*
X83671166Y-136653760D01*
X83572535Y-136519128D01*
X83500160Y-136364109D01*
X83280733Y-136364109D01*
X83397425Y-136925054D01*
X82896409Y-136925054D01*
X82944426Y-137156206D01*
X83445443Y-137156206D01*
G37*
G36*
X83079730Y-139455075D02*
G01*
X83027805Y-139204939D01*
X82902889Y-139191827D01*
X82775630Y-139151432D01*
X82643668Y-139080615D01*
X82528343Y-138987546D01*
X82454867Y-138889238D01*
X82415865Y-138783579D01*
X82414002Y-138722272D01*
X82433883Y-138691801D01*
X82476352Y-138680844D01*
X82553030Y-138695361D01*
X82645715Y-138707645D01*
X82718155Y-138697488D01*
X82782358Y-138667419D01*
X82840761Y-138615519D01*
X82880165Y-138549775D01*
X82896702Y-138467304D01*
X82887103Y-138361474D01*
X82855200Y-138261922D01*
X82802853Y-138172365D01*
X82728349Y-138091052D01*
X82638755Y-138028588D01*
X82537656Y-137991033D01*
X82421635Y-137978082D01*
X82284705Y-137997883D01*
X82183174Y-138052840D01*
X82108034Y-138143722D01*
X82064675Y-138257933D01*
X82050856Y-138405341D01*
X82073975Y-138596721D01*
X82130635Y-138791982D01*
X82211775Y-138959706D01*
X82316937Y-139103780D01*
X82447318Y-139226900D01*
X82598564Y-139328484D01*
X82753123Y-139399074D01*
X82912769Y-139441007D01*
X83079730Y-139455075D01*
G37*
G36*
X135354605Y-142276846D02*
G01*
X135538671Y-143162372D01*
X135571908Y-143366955D01*
X135571241Y-143456059D01*
X135554213Y-143495083D01*
X135521889Y-143518580D01*
X135468134Y-143527526D01*
X135386412Y-143511148D01*
X135303850Y-143458400D01*
X135216696Y-143357419D01*
X135031327Y-143425908D01*
X135137848Y-143570063D01*
X135262796Y-143679768D01*
X135408264Y-143758775D01*
X135578306Y-143807974D01*
X135778571Y-143825307D01*
X135959867Y-143807071D01*
X136085610Y-143759223D01*
X136170897Y-143687025D01*
X136223925Y-143588544D01*
X136244919Y-143454742D01*
X136225428Y-143271621D01*
X136018657Y-142276846D01*
X136263395Y-142276846D01*
X136216309Y-142050533D01*
X136164942Y-142050533D01*
X136004785Y-142033031D01*
X135853269Y-141980631D01*
X135707104Y-141891034D01*
X135580329Y-141774400D01*
X135481698Y-141639768D01*
X135409323Y-141484749D01*
X135189895Y-141484749D01*
X135306588Y-142045694D01*
X134805572Y-142045694D01*
X134853589Y-142276846D01*
X135354605Y-142276846D01*
G37*
G36*
X133856395Y-142603103D02*
G01*
X133991700Y-143253940D01*
X134007082Y-143390783D01*
X133992630Y-143464434D01*
X133947062Y-143509517D01*
X133850440Y-143527526D01*
X133897526Y-143753840D01*
X135027605Y-143753840D01*
X134980518Y-143527526D01*
X134864728Y-143518858D01*
X134791095Y-143497269D01*
X134746760Y-143467225D01*
X134698201Y-143392033D01*
X134655193Y-143251148D01*
X134299717Y-141540769D01*
X134284588Y-141397122D01*
X134302508Y-141324692D01*
X134332955Y-141295610D01*
X134395640Y-141273709D01*
X134510024Y-141264391D01*
X134464241Y-141043661D01*
X133497942Y-140879137D01*
X133789953Y-142283919D01*
X133621536Y-142146816D01*
X133459602Y-142054627D01*
X133289794Y-141997650D01*
X133120504Y-141979065D01*
X132983330Y-141990560D01*
X132872471Y-142022462D01*
X132782709Y-142072494D01*
X132706995Y-142141435D01*
X132657951Y-142216207D01*
X132631958Y-142298622D01*
X132626340Y-142443807D01*
X132659130Y-142672337D01*
X132779545Y-143251334D01*
X132794210Y-143398052D01*
X132774148Y-143469459D01*
X132742027Y-143497658D01*
X132679344Y-143518694D01*
X132568865Y-143527526D01*
X132615952Y-143753840D01*
X133746030Y-143753840D01*
X133698944Y-143527526D01*
X133622736Y-143512035D01*
X133550798Y-143477834D01*
X133513793Y-143441721D01*
X133477539Y-143372061D01*
X133443783Y-143252451D01*
X133308851Y-142603103D01*
X133297665Y-142472162D01*
X133320453Y-142395447D01*
X133368303Y-142352318D01*
X133448808Y-142336403D01*
X133529705Y-142351200D01*
X133631571Y-142402659D01*
X133733041Y-142480657D01*
X133856395Y-142603103D01*
G37*
G36*
X131296240Y-141995745D02*
G01*
X131527460Y-142042117D01*
X131718701Y-142113997D01*
X131855068Y-142192968D01*
X131948185Y-142273526D01*
X132007266Y-142355875D01*
X132038443Y-142441743D01*
X132037978Y-142521861D01*
X132001221Y-142590261D01*
X131934400Y-142636173D01*
X131829624Y-142653353D01*
X131710939Y-142637256D01*
X131627692Y-142593797D01*
X131563559Y-142521060D01*
X131505974Y-142402473D01*
X131461392Y-142320081D01*
X131395909Y-142261569D01*
X131305198Y-142224111D01*
X131180648Y-142210218D01*
X131081194Y-142222766D01*
X131006632Y-142257304D01*
X130975740Y-142294901D01*
X130961864Y-142360183D01*
X130973132Y-142469287D01*
X131005330Y-142624133D01*
X131446047Y-142778583D01*
X131744472Y-142906420D01*
X131934778Y-143011248D01*
X132098858Y-143141795D01*
X132200732Y-143274705D01*
X132252845Y-143412880D01*
X132260620Y-143516886D01*
X132239843Y-143604687D01*
X132191428Y-143681442D01*
X132120264Y-143737548D01*
X132014783Y-143775162D01*
X131862194Y-143789573D01*
X131686356Y-143775841D01*
X131511371Y-143734298D01*
X131340597Y-143666422D01*
X131165759Y-143568657D01*
X131111154Y-143659091D01*
X131023856Y-143726684D01*
X130894172Y-143772143D01*
X130706432Y-143789573D01*
X130571898Y-143778114D01*
X130447674Y-143744435D01*
X130331600Y-143688514D01*
X130233815Y-143609621D01*
X130163290Y-143506782D01*
X130118687Y-143374727D01*
X130280233Y-143374727D01*
X130320192Y-143443824D01*
X130365399Y-143480090D01*
X130417957Y-143491792D01*
X130467692Y-143475471D01*
X130492048Y-143424826D01*
X130484399Y-143312565D01*
X130389993Y-142858264D01*
X131054091Y-142858264D01*
X131155709Y-143347555D01*
X131234327Y-143409752D01*
X131307205Y-143452150D01*
X131382253Y-143478926D01*
X131454606Y-143487512D01*
X131527340Y-143471072D01*
X131575208Y-143423861D01*
X131598992Y-143357100D01*
X131596052Y-143280554D01*
X131555722Y-143181722D01*
X131467821Y-143077877D01*
X131332476Y-142985347D01*
X131054091Y-142858264D01*
X130389993Y-142858264D01*
X130319875Y-142520841D01*
X130299184Y-142377916D01*
X130302008Y-142283360D01*
X130330836Y-142200457D01*
X130396368Y-142116603D01*
X130490343Y-142052125D01*
X130629753Y-142008285D01*
X130792432Y-141987181D01*
X131017241Y-141979065D01*
X131296240Y-141995745D01*
G37*
G36*
X128824271Y-142276846D02*
G01*
X129008337Y-143162372D01*
X129041573Y-143366955D01*
X129040906Y-143456059D01*
X129023878Y-143495083D01*
X128991554Y-143518580D01*
X128937800Y-143527526D01*
X128856077Y-143511148D01*
X128773516Y-143458400D01*
X128686361Y-143357419D01*
X128500992Y-143425908D01*
X128607513Y-143570063D01*
X128732461Y-143679768D01*
X128877930Y-143758775D01*
X129047971Y-143807974D01*
X129248236Y-143825307D01*
X129429532Y-143807071D01*
X129555276Y-143759223D01*
X129640563Y-143687025D01*
X129693591Y-143588544D01*
X129714584Y-143454742D01*
X129695094Y-143271621D01*
X129488322Y-142276846D01*
X129733061Y-142276846D01*
X129685974Y-142050533D01*
X129634607Y-142050533D01*
X129474450Y-142033031D01*
X129322935Y-141980631D01*
X129176769Y-141891034D01*
X129049994Y-141774400D01*
X128951363Y-141639768D01*
X128878988Y-141484749D01*
X128659561Y-141484749D01*
X128776254Y-142045694D01*
X128275237Y-142045694D01*
X128323254Y-142276846D01*
X128824271Y-142276846D01*
G37*
G36*
X126726777Y-143789573D02*
G01*
X126992360Y-142548758D01*
X127041745Y-142371732D01*
X127078716Y-142307741D01*
X127132478Y-142277214D01*
X127226676Y-142264935D01*
X127179590Y-142038622D01*
X126061050Y-142038622D01*
X126108137Y-142264935D01*
X126245734Y-142277769D01*
X126310630Y-142306465D01*
X126334450Y-142344219D01*
X126335987Y-142392236D01*
X126321236Y-142496460D01*
X126193749Y-143138922D01*
X125476469Y-142038622D01*
X125126949Y-142038622D01*
X124859132Y-143138922D01*
X124457128Y-142465193D01*
X124415811Y-142373439D01*
X124424207Y-142319959D01*
X124481142Y-142282441D01*
X124628538Y-142264935D01*
X124581452Y-142038622D01*
X123859147Y-142038622D01*
X123906233Y-142264935D01*
X124009468Y-142282869D01*
X124091230Y-142334914D01*
X124169810Y-142429202D01*
X124315310Y-142650934D01*
X125019003Y-143789573D01*
X125378760Y-143789573D01*
X125656254Y-142696717D01*
X126365717Y-143789573D01*
X126726777Y-143789573D01*
G37*
G36*
X122900410Y-141994249D02*
G01*
X123082371Y-142039391D01*
X123257760Y-142115035D01*
X123428481Y-142223246D01*
X123577101Y-142356106D01*
X123695162Y-142510324D01*
X123784660Y-142688524D01*
X123845561Y-142894742D01*
X123870000Y-143109711D01*
X123851208Y-143289489D01*
X123794475Y-143442216D01*
X123700020Y-143574054D01*
X123575037Y-143682079D01*
X123430070Y-143759870D01*
X123261191Y-143808274D01*
X123062955Y-143825307D01*
X122890332Y-143812885D01*
X122723456Y-143775817D01*
X122560636Y-143713639D01*
X122406924Y-143630190D01*
X122277343Y-143535748D01*
X122169240Y-143430375D01*
X122334323Y-143314054D01*
X122470369Y-143431203D01*
X122595746Y-143507328D01*
X122712953Y-143549734D01*
X122824917Y-143563260D01*
X122963820Y-143542504D01*
X123060572Y-143486009D01*
X123126420Y-143393152D01*
X123159161Y-143276695D01*
X123164879Y-143112495D01*
X123132934Y-142884319D01*
X122002669Y-142884319D01*
X121973190Y-142650840D01*
X121985972Y-142470112D01*
X122561172Y-142470112D01*
X122587250Y-142669917D01*
X123090314Y-142669917D01*
X123028078Y-142456860D01*
X122955382Y-142324677D01*
X122890993Y-142259515D01*
X122820915Y-142222558D01*
X122742282Y-142210218D01*
X122662554Y-142225447D01*
X122607952Y-142268244D01*
X122572628Y-142344245D01*
X122561172Y-142470112D01*
X121985972Y-142470112D01*
X121986217Y-142466645D01*
X122033672Y-142320576D01*
X122112476Y-142203890D01*
X122221506Y-142108861D01*
X122353843Y-142039149D01*
X122514335Y-141994904D01*
X122709527Y-141979065D01*
X122900410Y-141994249D01*
G37*
G36*
X120738031Y-142410103D02*
G01*
X120566100Y-142215565D01*
X120401352Y-142086825D01*
X120282067Y-142025891D01*
X120164274Y-141990641D01*
X120046063Y-141979065D01*
X119936569Y-141993134D01*
X119859512Y-142030973D01*
X119806163Y-142091106D01*
X119763256Y-142207411D01*
X119767079Y-142334727D01*
X119808643Y-142449531D01*
X119881725Y-142546338D01*
X119980046Y-142612112D01*
X120098174Y-142634183D01*
X120161990Y-142626717D01*
X120205748Y-142607011D01*
X120244030Y-142570652D01*
X120299735Y-142493854D01*
X120364035Y-142430111D01*
X120440064Y-142410103D01*
X120519338Y-142426257D01*
X120595394Y-142477446D01*
X120671589Y-142574627D01*
X120757385Y-142762334D01*
X120839835Y-143068199D01*
X120878174Y-143252265D01*
X120893781Y-143393790D01*
X120877802Y-143466481D01*
X120848983Y-143496197D01*
X120790078Y-143518215D01*
X120683128Y-143527526D01*
X120644044Y-143527526D01*
X120691130Y-143753840D01*
X121926177Y-143753840D01*
X121879090Y-143527526D01*
X121757384Y-143518796D01*
X121680757Y-143497182D01*
X121635282Y-143467412D01*
X121585471Y-143392271D01*
X121542225Y-143252265D01*
X121419019Y-142660239D01*
X121404157Y-142515556D01*
X121422927Y-142443976D01*
X121454207Y-142415838D01*
X121519981Y-142394246D01*
X121641610Y-142384978D01*
X121595454Y-142163131D01*
X120708997Y-141979065D01*
X120702812Y-142158857D01*
X120738031Y-142410103D01*
G37*
G36*
X118719567Y-141994249D02*
G01*
X118901528Y-142039391D01*
X119076917Y-142115035D01*
X119247638Y-142223246D01*
X119396257Y-142356106D01*
X119514319Y-142510324D01*
X119603817Y-142688524D01*
X119664717Y-142894742D01*
X119689156Y-143109711D01*
X119670365Y-143289489D01*
X119613631Y-143442216D01*
X119519177Y-143574054D01*
X119394193Y-143682079D01*
X119249226Y-143759870D01*
X119080347Y-143808274D01*
X118882112Y-143825307D01*
X118709489Y-143812885D01*
X118542612Y-143775817D01*
X118379793Y-143713639D01*
X118226081Y-143630190D01*
X118096499Y-143535748D01*
X117988397Y-143430375D01*
X118153479Y-143314054D01*
X118289526Y-143431203D01*
X118414902Y-143507328D01*
X118532109Y-143549734D01*
X118644073Y-143563260D01*
X118782977Y-143542504D01*
X118879729Y-143486009D01*
X118945576Y-143393152D01*
X118978317Y-143276695D01*
X118984035Y-143112495D01*
X118952090Y-142884319D01*
X117821826Y-142884319D01*
X117792347Y-142650840D01*
X117805128Y-142470112D01*
X118380328Y-142470112D01*
X118406407Y-142669917D01*
X118909470Y-142669917D01*
X118847234Y-142456860D01*
X118774538Y-142324677D01*
X118710149Y-142259515D01*
X118640071Y-142222558D01*
X118561439Y-142210218D01*
X118481710Y-142225447D01*
X118427109Y-142268244D01*
X118391784Y-142344245D01*
X118380328Y-142470112D01*
X117805128Y-142470112D01*
X117805373Y-142466645D01*
X117852828Y-142320576D01*
X117931632Y-142203890D01*
X118040662Y-142108861D01*
X118172999Y-142039149D01*
X118333492Y-141994904D01*
X118528683Y-141979065D01*
X118719567Y-141994249D01*
G37*
G36*
X116009643Y-143789573D02*
G01*
X116275226Y-142548758D01*
X116324611Y-142371732D01*
X116361583Y-142307741D01*
X116415345Y-142277214D01*
X116509542Y-142264935D01*
X116462456Y-142038622D01*
X115343916Y-142038622D01*
X115391003Y-142264935D01*
X115528601Y-142277769D01*
X115593496Y-142306465D01*
X115617317Y-142344219D01*
X115618854Y-142392236D01*
X115604103Y-142496460D01*
X115476615Y-143138922D01*
X114759335Y-142038622D01*
X114409815Y-142038622D01*
X114141998Y-143138922D01*
X113739994Y-142465193D01*
X113698677Y-142373439D01*
X113707074Y-142319959D01*
X113764008Y-142282441D01*
X113911404Y-142264935D01*
X113864318Y-142038622D01*
X113142013Y-142038622D01*
X113189100Y-142264935D01*
X113292334Y-142282869D01*
X113374096Y-142334914D01*
X113452676Y-142429202D01*
X113598176Y-142650934D01*
X114301869Y-143789573D01*
X114661626Y-143789573D01*
X114939121Y-142696717D01*
X115648584Y-143789573D01*
X116009643Y-143789573D01*
G37*
G36*
X112165302Y-142001476D02*
G01*
X112361128Y-142046847D01*
X112548012Y-142122330D01*
X112727911Y-142229388D01*
X112886110Y-142362948D01*
X113010199Y-142517417D01*
X113102930Y-142695253D01*
X113164719Y-142900511D01*
X113190062Y-143126553D01*
X113169017Y-143310055D01*
X113108243Y-143461196D01*
X113008198Y-143587454D01*
X112876758Y-143689119D01*
X112724837Y-143762942D01*
X112548521Y-143809069D01*
X112342657Y-143825307D01*
X112133696Y-143809554D01*
X111936077Y-143762931D01*
X111747332Y-143685281D01*
X111565449Y-143574985D01*
X111404860Y-143437692D01*
X111279798Y-143281577D01*
X111187183Y-143104476D01*
X111126223Y-142902745D01*
X111102544Y-142720245D01*
X111110064Y-142565958D01*
X111139171Y-142454735D01*
X111772670Y-142454735D01*
X111778946Y-142622531D01*
X111823402Y-142893253D01*
X111897034Y-143185123D01*
X111965701Y-143362773D01*
X112027754Y-143461084D01*
X112110595Y-143537404D01*
X112195831Y-143580148D01*
X112286451Y-143594155D01*
X112393435Y-143575193D01*
X112462935Y-143523556D01*
X112504576Y-143435214D01*
X112516903Y-143326674D01*
X112506579Y-143149530D01*
X112460653Y-142876689D01*
X112388007Y-142595238D01*
X112318734Y-142427316D01*
X112254998Y-142336961D01*
X112170607Y-142267962D01*
X112087911Y-142229649D01*
X112004304Y-142217290D01*
X111903105Y-142234111D01*
X111834264Y-142280157D01*
X111789343Y-142357806D01*
X111772670Y-142454735D01*
X111139171Y-142454735D01*
X111144514Y-142434317D01*
X111204209Y-142320731D01*
X111290188Y-142221943D01*
X111424681Y-142120843D01*
X111578258Y-142047647D01*
X111754512Y-142002101D01*
X111958148Y-141986138D01*
X112165302Y-142001476D01*
G37*
G36*
X109866609Y-142583933D02*
G01*
X110006753Y-143257848D01*
X110021612Y-143392842D01*
X110006566Y-143465364D01*
X109960667Y-143509803D01*
X109864748Y-143527526D01*
X109911835Y-143753840D01*
X111053638Y-143753840D01*
X111006552Y-143527526D01*
X110850912Y-143510289D01*
X110774469Y-143470575D01*
X110725797Y-143397930D01*
X110682157Y-143256359D01*
X110561742Y-142676989D01*
X110546252Y-142532295D01*
X110563603Y-142460912D01*
X110593653Y-142432625D01*
X110656571Y-142411117D01*
X110772608Y-142401914D01*
X110725893Y-142177276D01*
X109787884Y-142026524D01*
X109780673Y-142117174D01*
X109802214Y-142274427D01*
X109632781Y-142141450D01*
X109473911Y-142052394D01*
X109309726Y-141996874D01*
X109152121Y-141979065D01*
X108969006Y-141999377D01*
X108834847Y-142054243D01*
X108737275Y-142140053D01*
X108674094Y-142253784D01*
X108648304Y-142397007D01*
X108665994Y-142580955D01*
X108806137Y-143255429D01*
X108820397Y-143398555D01*
X108800554Y-143469459D01*
X108768817Y-143497587D01*
X108706117Y-143518651D01*
X108594713Y-143527526D01*
X108641799Y-143753840D01*
X109772064Y-143753840D01*
X109724605Y-143525293D01*
X109644511Y-143513727D01*
X109574040Y-143479509D01*
X109520631Y-143412695D01*
X109470747Y-143256732D01*
X109340840Y-142631950D01*
X109322566Y-142474765D01*
X109338421Y-142398936D01*
X109383006Y-142352903D01*
X109457347Y-142336403D01*
X109543312Y-142350458D01*
X109645879Y-142397820D01*
X109747140Y-142470533D01*
X109866609Y-142583933D01*
G37*
G36*
X107261957Y-142276846D02*
G01*
X107446023Y-143162372D01*
X107479259Y-143366955D01*
X107478593Y-143456059D01*
X107461564Y-143495083D01*
X107429241Y-143518580D01*
X107375486Y-143527526D01*
X107293764Y-143511148D01*
X107211202Y-143458400D01*
X107124048Y-143357419D01*
X106938679Y-143425908D01*
X107045200Y-143570063D01*
X107170148Y-143679768D01*
X107315616Y-143758775D01*
X107485658Y-143807974D01*
X107685923Y-143825307D01*
X107867219Y-143807071D01*
X107992962Y-143759223D01*
X108078249Y-143687025D01*
X108131277Y-143588544D01*
X108152271Y-143454742D01*
X108132780Y-143271621D01*
X107926009Y-142276846D01*
X108170747Y-142276846D01*
X108123661Y-142050533D01*
X108072293Y-142050533D01*
X107912137Y-142033031D01*
X107760621Y-141980631D01*
X107614455Y-141891034D01*
X107487680Y-141774400D01*
X107389050Y-141639768D01*
X107316675Y-141484749D01*
X107097247Y-141484749D01*
X107213940Y-142045694D01*
X106712924Y-142045694D01*
X106760941Y-142276846D01*
X107261957Y-142276846D01*
G37*
G36*
X104641486Y-142276846D02*
G01*
X104825551Y-143162372D01*
X104858788Y-143366955D01*
X104858121Y-143456059D01*
X104841093Y-143495083D01*
X104808769Y-143518580D01*
X104755015Y-143527526D01*
X104673292Y-143511148D01*
X104590730Y-143458400D01*
X104503576Y-143357419D01*
X104318207Y-143425908D01*
X104424728Y-143570063D01*
X104549676Y-143679768D01*
X104695144Y-143758775D01*
X104865186Y-143807974D01*
X105065451Y-143825307D01*
X105246747Y-143807071D01*
X105372491Y-143759223D01*
X105457777Y-143687025D01*
X105510805Y-143588544D01*
X105531799Y-143454742D01*
X105512309Y-143271621D01*
X105305537Y-142276846D01*
X105550276Y-142276846D01*
X105503189Y-142050533D01*
X105451822Y-142050533D01*
X105291665Y-142033031D01*
X105140149Y-141980631D01*
X104993984Y-141891034D01*
X104867209Y-141774400D01*
X104768578Y-141639768D01*
X104696203Y-141484749D01*
X104476775Y-141484749D01*
X104593468Y-142045694D01*
X104092452Y-142045694D01*
X104140469Y-142276846D01*
X104641486Y-142276846D01*
G37*
G36*
X103056185Y-142001476D02*
G01*
X103252011Y-142046847D01*
X103438895Y-142122330D01*
X103618794Y-142229388D01*
X103776993Y-142362948D01*
X103901082Y-142517417D01*
X103993813Y-142695253D01*
X104055602Y-142900511D01*
X104080945Y-143126553D01*
X104059900Y-143310055D01*
X103999126Y-143461196D01*
X103899081Y-143587454D01*
X103767641Y-143689119D01*
X103615720Y-143762942D01*
X103439404Y-143809069D01*
X103233540Y-143825307D01*
X103024579Y-143809554D01*
X102826960Y-143762931D01*
X102638215Y-143685281D01*
X102456332Y-143574985D01*
X102295743Y-143437692D01*
X102170680Y-143281577D01*
X102078066Y-143104476D01*
X102017105Y-142902745D01*
X101993426Y-142720245D01*
X102000947Y-142565958D01*
X102030054Y-142454735D01*
X102663553Y-142454735D01*
X102669829Y-142622531D01*
X102714285Y-142893253D01*
X102787917Y-143185123D01*
X102856584Y-143362773D01*
X102918637Y-143461084D01*
X103001478Y-143537404D01*
X103086714Y-143580148D01*
X103177334Y-143594155D01*
X103284318Y-143575193D01*
X103353818Y-143523556D01*
X103395459Y-143435214D01*
X103407786Y-143326674D01*
X103397462Y-143149530D01*
X103351536Y-142876689D01*
X103278890Y-142595238D01*
X103209617Y-142427316D01*
X103145881Y-142336961D01*
X103061490Y-142267962D01*
X102978794Y-142229649D01*
X102895187Y-142217290D01*
X102793987Y-142234111D01*
X102725147Y-142280157D01*
X102680226Y-142357806D01*
X102663553Y-142454735D01*
X102030054Y-142454735D01*
X102035397Y-142434317D01*
X102095092Y-142320731D01*
X102181071Y-142221943D01*
X102315564Y-142120843D01*
X102469141Y-142047647D01*
X102645395Y-142002101D01*
X102849031Y-141986138D01*
X103056185Y-142001476D01*
G37*
G36*
X100735903Y-143825307D02*
G01*
X100616977Y-143253568D01*
X100422303Y-143253568D01*
X100374339Y-143382887D01*
X100302753Y-143479509D01*
X100206313Y-143549520D01*
X100079370Y-143594432D01*
X99912725Y-143610905D01*
X99743125Y-143594423D01*
X99605825Y-143548371D01*
X99525258Y-143499664D01*
X99479950Y-143452789D01*
X99459726Y-143406553D01*
X99463000Y-143345013D01*
X99500857Y-143300096D01*
X99579423Y-143267455D01*
X99775746Y-143216531D01*
X100088062Y-143139041D01*
X100265968Y-143077691D01*
X100360981Y-143025027D01*
X100436006Y-142957957D01*
X100493584Y-142875386D01*
X100530098Y-142781850D01*
X100543033Y-142679026D01*
X100530993Y-142563460D01*
X100474743Y-142401982D01*
X100377721Y-142262352D01*
X100234701Y-142140798D01*
X100066433Y-142052937D01*
X99871224Y-141998278D01*
X99643047Y-141979065D01*
X99465480Y-141991283D01*
X99290543Y-142028004D01*
X99116720Y-142089989D01*
X99016219Y-141979065D01*
X98847228Y-141979065D01*
X98935818Y-142491249D01*
X99098481Y-142491249D01*
X99147298Y-142384737D01*
X99221972Y-142301679D01*
X99326422Y-142238838D01*
X99468770Y-142197146D01*
X99660356Y-142181556D01*
X99806112Y-142195106D01*
X99921659Y-142232551D01*
X100010287Y-142293951D01*
X100046540Y-142362644D01*
X100041586Y-142435178D01*
X99992754Y-142485293D01*
X99895468Y-142522296D01*
X99634114Y-142585236D01*
X99354462Y-142655667D01*
X99189490Y-142716259D01*
X99100543Y-142768770D01*
X99032017Y-142833354D01*
X98981229Y-142910933D01*
X98950144Y-142998119D01*
X98939917Y-143095829D01*
X98952382Y-143207412D01*
X98993148Y-143335125D01*
X99059789Y-143450652D01*
X99154468Y-143556157D01*
X99281430Y-143652594D01*
X99469566Y-143747783D01*
X99675165Y-143805508D01*
X99902489Y-143825307D01*
X100078409Y-143812690D01*
X100256096Y-143774342D01*
X100437192Y-143708800D01*
X100494709Y-143757772D01*
X100543276Y-143825307D01*
X100735903Y-143825307D01*
G37*
G36*
X97565213Y-141994249D02*
G01*
X97747174Y-142039391D01*
X97922563Y-142115035D01*
X98093284Y-142223246D01*
X98241904Y-142356106D01*
X98359965Y-142510324D01*
X98449463Y-142688524D01*
X98510363Y-142894742D01*
X98534803Y-143109711D01*
X98516011Y-143289489D01*
X98459277Y-143442216D01*
X98364823Y-143574054D01*
X98239839Y-143682079D01*
X98094873Y-143759870D01*
X97925994Y-143808274D01*
X97727758Y-143825307D01*
X97555135Y-143812885D01*
X97388259Y-143775817D01*
X97225439Y-143713639D01*
X97071727Y-143630190D01*
X96942146Y-143535748D01*
X96834043Y-143430375D01*
X96999125Y-143314054D01*
X97135172Y-143431203D01*
X97260548Y-143507328D01*
X97377755Y-143549734D01*
X97489719Y-143563260D01*
X97628623Y-143542504D01*
X97725375Y-143486009D01*
X97791223Y-143393152D01*
X97823964Y-143276695D01*
X97829682Y-143112495D01*
X97797736Y-142884319D01*
X96667472Y-142884319D01*
X96637993Y-142650840D01*
X96650774Y-142470112D01*
X97225974Y-142470112D01*
X97252053Y-142669917D01*
X97755117Y-142669917D01*
X97692881Y-142456860D01*
X97620185Y-142324677D01*
X97555796Y-142259515D01*
X97485718Y-142222558D01*
X97407085Y-142210218D01*
X97327357Y-142225447D01*
X97272755Y-142268244D01*
X97237431Y-142344245D01*
X97225974Y-142470112D01*
X96650774Y-142470112D01*
X96651019Y-142466645D01*
X96698475Y-142320576D01*
X96777279Y-142203890D01*
X96886309Y-142108861D01*
X97018646Y-142039149D01*
X97179138Y-141994904D01*
X97374329Y-141979065D01*
X97565213Y-141994249D01*
G37*
G36*
X95356678Y-142276846D02*
G01*
X95540744Y-143162372D01*
X95573980Y-143366955D01*
X95573313Y-143456059D01*
X95556285Y-143495083D01*
X95523961Y-143518580D01*
X95470207Y-143527526D01*
X95388484Y-143511148D01*
X95305923Y-143458400D01*
X95218768Y-143357419D01*
X95033399Y-143425908D01*
X95139920Y-143570063D01*
X95264868Y-143679768D01*
X95410337Y-143758775D01*
X95580378Y-143807974D01*
X95780643Y-143825307D01*
X95961939Y-143807071D01*
X96087683Y-143759223D01*
X96172970Y-143687025D01*
X96225998Y-143588544D01*
X96246991Y-143454742D01*
X96227501Y-143271621D01*
X96020729Y-142276846D01*
X96265468Y-142276846D01*
X96218381Y-142050533D01*
X96167014Y-142050533D01*
X96006857Y-142033031D01*
X95855342Y-141980631D01*
X95709176Y-141891034D01*
X95582401Y-141774400D01*
X95483770Y-141639768D01*
X95411395Y-141484749D01*
X95191968Y-141484749D01*
X95308661Y-142045694D01*
X94807644Y-142045694D01*
X94855661Y-142276846D01*
X95356678Y-142276846D01*
G37*
G36*
X92736206Y-142276846D02*
G01*
X92920272Y-143162372D01*
X92953508Y-143366955D01*
X92952842Y-143456059D01*
X92935813Y-143495083D01*
X92903490Y-143518580D01*
X92849735Y-143527526D01*
X92768013Y-143511148D01*
X92685451Y-143458400D01*
X92598296Y-143357419D01*
X92412928Y-143425908D01*
X92519449Y-143570063D01*
X92644397Y-143679768D01*
X92789865Y-143758775D01*
X92959906Y-143807974D01*
X93160172Y-143825307D01*
X93341468Y-143807071D01*
X93467211Y-143759223D01*
X93552498Y-143687025D01*
X93605526Y-143588544D01*
X93626520Y-143454742D01*
X93607029Y-143271621D01*
X93400257Y-142276846D01*
X93644996Y-142276846D01*
X93597909Y-142050533D01*
X93546542Y-142050533D01*
X93386385Y-142033031D01*
X93234870Y-141980631D01*
X93088704Y-141891034D01*
X92961929Y-141774400D01*
X92863298Y-141639768D01*
X92790923Y-141484749D01*
X92571496Y-141484749D01*
X92688189Y-142045694D01*
X92187172Y-142045694D01*
X92235190Y-142276846D01*
X92736206Y-142276846D01*
G37*
G36*
X91237996Y-142603103D02*
G01*
X91373300Y-143253940D01*
X91388683Y-143390783D01*
X91374231Y-143464434D01*
X91328662Y-143509517D01*
X91232040Y-143527526D01*
X91279127Y-143753840D01*
X92409205Y-143753840D01*
X92362119Y-143527526D01*
X92246328Y-143518858D01*
X92172696Y-143497269D01*
X92128361Y-143467225D01*
X92079802Y-143392033D01*
X92036793Y-143251148D01*
X91681317Y-141540769D01*
X91666188Y-141397122D01*
X91684109Y-141324692D01*
X91714555Y-141295610D01*
X91777241Y-141273709D01*
X91891625Y-141264391D01*
X91845841Y-141043661D01*
X90879542Y-140879137D01*
X91171554Y-142283919D01*
X91003136Y-142146816D01*
X90841203Y-142054627D01*
X90671394Y-141997650D01*
X90502105Y-141979065D01*
X90364931Y-141990560D01*
X90254072Y-142022462D01*
X90164310Y-142072494D01*
X90088595Y-142141435D01*
X90039551Y-142216207D01*
X90013558Y-142298622D01*
X90007940Y-142443807D01*
X90040731Y-142672337D01*
X90161146Y-143251334D01*
X90175810Y-143398052D01*
X90155749Y-143469459D01*
X90123628Y-143497658D01*
X90060944Y-143518694D01*
X89950466Y-143527526D01*
X89997552Y-143753840D01*
X91127631Y-143753840D01*
X91080544Y-143527526D01*
X91004337Y-143512035D01*
X90932398Y-143477834D01*
X90895393Y-143441721D01*
X90859140Y-143372061D01*
X90825383Y-143252451D01*
X90690451Y-142603103D01*
X90679266Y-142472162D01*
X90702053Y-142395447D01*
X90749904Y-142352318D01*
X90830408Y-142336403D01*
X90911306Y-142351200D01*
X91013171Y-142402659D01*
X91114641Y-142480657D01*
X91237996Y-142603103D01*
G37*
G36*
X88593075Y-141994249D02*
G01*
X88775036Y-142039391D01*
X88950425Y-142115035D01*
X89121146Y-142223246D01*
X89269766Y-142356106D01*
X89387827Y-142510324D01*
X89477325Y-142688524D01*
X89538225Y-142894742D01*
X89562665Y-143109711D01*
X89543873Y-143289489D01*
X89487140Y-143442216D01*
X89392685Y-143574054D01*
X89267702Y-143682079D01*
X89122735Y-143759870D01*
X88953856Y-143808274D01*
X88755620Y-143825307D01*
X88582997Y-143812885D01*
X88416121Y-143775817D01*
X88253301Y-143713639D01*
X88099589Y-143630190D01*
X87970008Y-143535748D01*
X87861905Y-143430375D01*
X88026987Y-143314054D01*
X88163034Y-143431203D01*
X88288410Y-143507328D01*
X88405617Y-143549734D01*
X88517581Y-143563260D01*
X88656485Y-143542504D01*
X88753237Y-143486009D01*
X88819085Y-143393152D01*
X88851826Y-143276695D01*
X88857544Y-143112495D01*
X88825599Y-142884319D01*
X87695334Y-142884319D01*
X87665855Y-142650840D01*
X87678637Y-142470112D01*
X88253837Y-142470112D01*
X88279915Y-142669917D01*
X88782979Y-142669917D01*
X88720743Y-142456860D01*
X88648047Y-142324677D01*
X88583658Y-142259515D01*
X88513580Y-142222558D01*
X88434947Y-142210218D01*
X88355219Y-142225447D01*
X88300617Y-142268244D01*
X88265293Y-142344245D01*
X88253837Y-142470112D01*
X87678637Y-142470112D01*
X87678882Y-142466645D01*
X87726337Y-142320576D01*
X87805141Y-142203890D01*
X87914171Y-142108861D01*
X88046508Y-142039149D01*
X88207000Y-141994904D01*
X88402191Y-141979065D01*
X88593075Y-141994249D01*
G37*
G36*
X85318484Y-142276846D02*
G01*
X85502550Y-143162372D01*
X85535786Y-143366955D01*
X85535120Y-143456059D01*
X85518091Y-143495083D01*
X85485768Y-143518580D01*
X85432013Y-143527526D01*
X85350291Y-143511148D01*
X85267729Y-143458400D01*
X85180575Y-143357419D01*
X84995206Y-143425908D01*
X85101727Y-143570063D01*
X85226675Y-143679768D01*
X85372143Y-143758775D01*
X85542185Y-143807974D01*
X85742450Y-143825307D01*
X85923746Y-143807071D01*
X86049489Y-143759223D01*
X86134776Y-143687025D01*
X86187804Y-143588544D01*
X86208798Y-143454742D01*
X86189307Y-143271621D01*
X85982536Y-142276846D01*
X86227274Y-142276846D01*
X86180188Y-142050533D01*
X86128821Y-142050533D01*
X85968664Y-142033031D01*
X85817148Y-141980631D01*
X85670982Y-141891034D01*
X85544207Y-141774400D01*
X85445577Y-141639768D01*
X85373202Y-141484749D01*
X85153774Y-141484749D01*
X85270467Y-142045694D01*
X84769451Y-142045694D01*
X84817468Y-142276846D01*
X85318484Y-142276846D01*
G37*
G36*
X83835923Y-141995745D02*
G01*
X84067143Y-142042117D01*
X84258384Y-142113997D01*
X84394751Y-142192968D01*
X84487869Y-142273526D01*
X84546950Y-142355875D01*
X84578127Y-142441743D01*
X84577661Y-142521861D01*
X84540904Y-142590261D01*
X84474083Y-142636173D01*
X84369308Y-142653353D01*
X84250623Y-142637256D01*
X84167375Y-142593797D01*
X84103242Y-142521060D01*
X84045657Y-142402473D01*
X84001076Y-142320081D01*
X83935592Y-142261569D01*
X83844881Y-142224111D01*
X83720332Y-142210218D01*
X83620878Y-142222766D01*
X83546316Y-142257304D01*
X83515424Y-142294901D01*
X83501548Y-142360183D01*
X83512815Y-142469287D01*
X83545013Y-142624133D01*
X83985730Y-142778583D01*
X84284155Y-142906420D01*
X84474462Y-143011248D01*
X84638542Y-143141795D01*
X84740415Y-143274705D01*
X84792529Y-143412880D01*
X84800304Y-143516886D01*
X84779527Y-143604687D01*
X84731112Y-143681442D01*
X84659947Y-143737548D01*
X84554466Y-143775162D01*
X84401878Y-143789573D01*
X84226039Y-143775841D01*
X84051054Y-143734298D01*
X83880281Y-143666422D01*
X83705442Y-143568657D01*
X83650837Y-143659091D01*
X83563540Y-143726684D01*
X83433856Y-143772143D01*
X83246115Y-143789573D01*
X83111581Y-143778114D01*
X82987358Y-143744435D01*
X82871284Y-143688514D01*
X82773498Y-143609621D01*
X82702974Y-143506782D01*
X82658370Y-143374727D01*
X82819917Y-143374727D01*
X82859876Y-143443824D01*
X82905083Y-143480090D01*
X82957640Y-143491792D01*
X83007376Y-143475471D01*
X83031732Y-143424826D01*
X83024083Y-143312565D01*
X82929677Y-142858264D01*
X83593775Y-142858264D01*
X83695392Y-143347555D01*
X83774010Y-143409752D01*
X83846888Y-143452150D01*
X83921936Y-143478926D01*
X83994290Y-143487512D01*
X84067023Y-143471072D01*
X84114891Y-143423861D01*
X84138675Y-143357100D01*
X84135736Y-143280554D01*
X84095405Y-143181722D01*
X84007504Y-143077877D01*
X83872159Y-142985347D01*
X83593775Y-142858264D01*
X82929677Y-142858264D01*
X82859559Y-142520841D01*
X82838868Y-142377916D01*
X82841692Y-142283360D01*
X82870519Y-142200457D01*
X82936051Y-142116603D01*
X83030026Y-142052125D01*
X83169437Y-142008285D01*
X83332115Y-141987181D01*
X83556924Y-141979065D01*
X83835923Y-141995745D01*
G37*
G36*
X82034706Y-141019839D02*
G01*
X82080676Y-141240569D01*
X81958836Y-141249896D01*
X81893035Y-141271619D01*
X81861807Y-141299939D01*
X81843370Y-141371928D01*
X81858643Y-141517691D01*
X82332487Y-143797204D01*
X82162193Y-143797204D01*
X81736739Y-143495142D01*
X81605105Y-143630032D01*
X81459616Y-143724434D01*
X81296236Y-143781720D01*
X81109724Y-143801484D01*
X80935660Y-143786091D01*
X80768783Y-143740095D01*
X80606601Y-143662345D01*
X80447161Y-143549860D01*
X80309829Y-143414721D01*
X80199436Y-143259505D01*
X80114658Y-143081724D01*
X80055766Y-142877805D01*
X80031055Y-142674933D01*
X80041432Y-142535415D01*
X80726026Y-142535415D01*
X80726715Y-142685184D01*
X80758528Y-142895114D01*
X80812432Y-143099607D01*
X80874507Y-143251201D01*
X80942408Y-143360583D01*
X81030782Y-143448641D01*
X81127482Y-143498808D01*
X81236467Y-143515615D01*
X81334720Y-143500751D01*
X81421091Y-143456617D01*
X81494017Y-143385992D01*
X81560676Y-143279810D01*
X81394849Y-142481571D01*
X81283446Y-142388869D01*
X81180261Y-142327469D01*
X81073311Y-142289116D01*
X80970697Y-142276846D01*
X80868084Y-142294800D01*
X80796112Y-142344844D01*
X80747176Y-142430948D01*
X80726026Y-142535415D01*
X80041432Y-142535415D01*
X80043832Y-142503143D01*
X80089405Y-142355827D01*
X80166689Y-142227712D01*
X80272717Y-142119709D01*
X80396448Y-142043043D01*
X80541395Y-141995705D01*
X80712931Y-141979065D01*
X80866350Y-141992298D01*
X81022995Y-142032852D01*
X81176009Y-142098682D01*
X81335107Y-142194398D01*
X81060962Y-140876160D01*
X82034706Y-141019839D01*
G37*
G36*
X78491299Y-140877648D02*
G01*
X78984685Y-143250776D01*
X78999611Y-143397862D01*
X78979846Y-143469273D01*
X78947403Y-143496863D01*
X78878653Y-143518289D01*
X78750927Y-143527526D01*
X78798014Y-143753840D01*
X80044599Y-143753840D01*
X79997512Y-143527526D01*
X79849396Y-143515893D01*
X79763940Y-143488070D01*
X79724710Y-143453066D01*
X79685714Y-143380691D01*
X79648736Y-143250962D01*
X79290283Y-141526997D01*
X79275216Y-141376993D01*
X79295680Y-141307756D01*
X79328488Y-141281652D01*
X79397384Y-141261264D01*
X79524599Y-141252480D01*
X79478257Y-141029703D01*
X78491299Y-140877648D01*
G37*
G36*
X77476915Y-141994249D02*
G01*
X77658876Y-142039391D01*
X77834265Y-142115035D01*
X78004986Y-142223246D01*
X78153606Y-142356106D01*
X78271667Y-142510324D01*
X78361165Y-142688524D01*
X78422065Y-142894742D01*
X78446505Y-143109711D01*
X78427713Y-143289489D01*
X78370979Y-143442216D01*
X78276525Y-143574054D01*
X78151541Y-143682079D01*
X78006574Y-143759870D01*
X77837696Y-143808274D01*
X77639460Y-143825307D01*
X77466837Y-143812885D01*
X77299960Y-143775817D01*
X77137141Y-143713639D01*
X76983429Y-143630190D01*
X76853847Y-143535748D01*
X76745745Y-143430375D01*
X76910827Y-143314054D01*
X77046874Y-143431203D01*
X77172250Y-143507328D01*
X77289457Y-143549734D01*
X77401421Y-143563260D01*
X77540325Y-143542504D01*
X77637077Y-143486009D01*
X77702924Y-143393152D01*
X77735666Y-143276695D01*
X77741384Y-143112495D01*
X77709438Y-142884319D01*
X76579174Y-142884319D01*
X76549695Y-142650840D01*
X76562476Y-142470112D01*
X77137676Y-142470112D01*
X77163755Y-142669917D01*
X77666818Y-142669917D01*
X77604582Y-142456860D01*
X77531887Y-142324677D01*
X77467498Y-142259515D01*
X77397420Y-142222558D01*
X77318787Y-142210218D01*
X77239059Y-142225447D01*
X77184457Y-142268244D01*
X77149133Y-142344245D01*
X77137676Y-142470112D01*
X76562476Y-142470112D01*
X76562721Y-142466645D01*
X76610177Y-142320576D01*
X76688981Y-142203890D01*
X76798011Y-142108861D01*
X76930348Y-142039149D01*
X77090840Y-141994904D01*
X77286031Y-141979065D01*
X77476915Y-141994249D01*
G37*
G36*
X74171439Y-142001476D02*
G01*
X74367266Y-142046847D01*
X74554149Y-142122330D01*
X74734049Y-142229388D01*
X74892247Y-142362948D01*
X75016337Y-142517417D01*
X75109068Y-142695253D01*
X75170856Y-142900511D01*
X75196200Y-143126553D01*
X75175155Y-143310055D01*
X75114380Y-143461196D01*
X75014335Y-143587454D01*
X74882896Y-143689119D01*
X74730975Y-143762942D01*
X74554659Y-143809069D01*
X74348795Y-143825307D01*
X74139834Y-143809554D01*
X73942214Y-143762931D01*
X73753470Y-143685281D01*
X73571587Y-143574985D01*
X73410998Y-143437692D01*
X73285935Y-143281577D01*
X73193321Y-143104476D01*
X73132360Y-142902745D01*
X73108681Y-142720245D01*
X73116202Y-142565958D01*
X73145309Y-142454735D01*
X73778808Y-142454735D01*
X73785083Y-142622531D01*
X73829540Y-142893253D01*
X73903172Y-143185123D01*
X73971839Y-143362773D01*
X74033892Y-143461084D01*
X74116732Y-143537404D01*
X74201968Y-143580148D01*
X74292589Y-143594155D01*
X74399572Y-143575193D01*
X74469073Y-143523556D01*
X74510713Y-143435214D01*
X74523041Y-143326674D01*
X74512716Y-143149530D01*
X74466791Y-142876689D01*
X74394145Y-142595238D01*
X74324871Y-142427316D01*
X74261136Y-142336961D01*
X74176744Y-142267962D01*
X74094049Y-142229649D01*
X74010442Y-142217290D01*
X73909242Y-142234111D01*
X73840401Y-142280157D01*
X73795481Y-142357806D01*
X73778808Y-142454735D01*
X73145309Y-142454735D01*
X73150652Y-142434317D01*
X73210347Y-142320731D01*
X73296326Y-142221943D01*
X73430819Y-142120843D01*
X73584395Y-142047647D01*
X73760649Y-142002101D01*
X73964285Y-141986138D01*
X74171439Y-142001476D01*
G37*
G36*
X71831058Y-142583933D02*
G01*
X71971201Y-143257848D01*
X71986060Y-143392842D01*
X71971015Y-143465364D01*
X71925115Y-143509803D01*
X71829197Y-143527526D01*
X71876283Y-143753840D01*
X73018087Y-143753840D01*
X72971000Y-143527526D01*
X72815361Y-143510289D01*
X72738917Y-143470575D01*
X72690245Y-143397930D01*
X72646605Y-143256359D01*
X72526190Y-142676989D01*
X72510701Y-142532295D01*
X72528051Y-142460912D01*
X72558101Y-142432625D01*
X72621019Y-142411117D01*
X72737056Y-142401914D01*
X72690342Y-142177276D01*
X71752332Y-142026524D01*
X71745121Y-142117174D01*
X71766663Y-142274427D01*
X71597229Y-142141450D01*
X71438359Y-142052394D01*
X71274174Y-141996874D01*
X71116570Y-141979065D01*
X70933454Y-141999377D01*
X70799295Y-142054243D01*
X70701724Y-142140053D01*
X70638542Y-142253784D01*
X70612752Y-142397007D01*
X70630442Y-142580955D01*
X70770586Y-143255429D01*
X70784845Y-143398555D01*
X70765002Y-143469459D01*
X70733265Y-143497587D01*
X70670565Y-143518651D01*
X70559161Y-143527526D01*
X70606248Y-143753840D01*
X71736512Y-143753840D01*
X71689053Y-143525293D01*
X71608959Y-143513727D01*
X71538488Y-143479509D01*
X71485079Y-143412695D01*
X71435195Y-143256732D01*
X71305288Y-142631950D01*
X71287014Y-142474765D01*
X71302869Y-142398936D01*
X71347455Y-142352903D01*
X71421795Y-142336403D01*
X71507760Y-142350458D01*
X71610328Y-142397820D01*
X71711588Y-142470533D01*
X71831058Y-142583933D01*
G37*
G36*
X68232205Y-141995745D02*
G01*
X68463425Y-142042117D01*
X68654666Y-142113997D01*
X68791033Y-142192968D01*
X68884151Y-142273526D01*
X68943231Y-142355875D01*
X68974409Y-142441743D01*
X68973943Y-142521861D01*
X68937186Y-142590261D01*
X68870365Y-142636173D01*
X68765590Y-142653353D01*
X68646905Y-142637256D01*
X68563657Y-142593797D01*
X68499524Y-142521060D01*
X68441939Y-142402473D01*
X68397357Y-142320081D01*
X68331874Y-142261569D01*
X68241163Y-142224111D01*
X68116613Y-142210218D01*
X68017160Y-142222766D01*
X67942598Y-142257304D01*
X67911706Y-142294901D01*
X67897830Y-142360183D01*
X67909097Y-142469287D01*
X67941295Y-142624133D01*
X68382012Y-142778583D01*
X68680437Y-142906420D01*
X68870744Y-143011248D01*
X69034823Y-143141795D01*
X69136697Y-143274705D01*
X69188811Y-143412880D01*
X69196586Y-143516886D01*
X69175809Y-143604687D01*
X69127393Y-143681442D01*
X69056229Y-143737548D01*
X68950748Y-143775162D01*
X68798159Y-143789573D01*
X68622321Y-143775841D01*
X68447336Y-143734298D01*
X68276563Y-143666422D01*
X68101724Y-143568657D01*
X68047119Y-143659091D01*
X67959822Y-143726684D01*
X67830138Y-143772143D01*
X67642397Y-143789573D01*
X67507863Y-143778114D01*
X67383640Y-143744435D01*
X67267566Y-143688514D01*
X67169780Y-143609621D01*
X67099256Y-143506782D01*
X67054652Y-143374727D01*
X67216199Y-143374727D01*
X67256158Y-143443824D01*
X67301365Y-143480090D01*
X67353922Y-143491792D01*
X67403658Y-143475471D01*
X67428014Y-143424826D01*
X67420365Y-143312565D01*
X67325959Y-142858264D01*
X67990057Y-142858264D01*
X68091674Y-143347555D01*
X68170292Y-143409752D01*
X68243170Y-143452150D01*
X68318218Y-143478926D01*
X68390572Y-143487512D01*
X68463305Y-143471072D01*
X68511173Y-143423861D01*
X68534957Y-143357100D01*
X68532018Y-143280554D01*
X68491687Y-143181722D01*
X68403786Y-143077877D01*
X68268441Y-142985347D01*
X67990057Y-142858264D01*
X67325959Y-142858264D01*
X67255841Y-142520841D01*
X67235150Y-142377916D01*
X67237974Y-142283360D01*
X67266801Y-142200457D01*
X67332333Y-142116603D01*
X67426308Y-142052125D01*
X67565719Y-142008285D01*
X67728397Y-141987181D01*
X67953206Y-141979065D01*
X68232205Y-141995745D01*
G37*
G36*
X64698647Y-142410103D02*
G01*
X64526716Y-142215565D01*
X64361969Y-142086825D01*
X64242683Y-142025891D01*
X64124890Y-141990641D01*
X64006679Y-141979065D01*
X63897186Y-141993134D01*
X63820128Y-142030973D01*
X63766779Y-142091106D01*
X63723872Y-142207411D01*
X63727696Y-142334727D01*
X63769259Y-142449531D01*
X63842341Y-142546338D01*
X63940663Y-142612112D01*
X64058791Y-142634183D01*
X64122606Y-142626717D01*
X64166364Y-142607011D01*
X64204646Y-142570652D01*
X64260351Y-142493854D01*
X64324651Y-142430111D01*
X64400680Y-142410103D01*
X64479955Y-142426257D01*
X64556011Y-142477446D01*
X64632205Y-142574627D01*
X64718001Y-142762334D01*
X64800451Y-143068199D01*
X64838790Y-143252265D01*
X64854397Y-143393790D01*
X64838418Y-143466481D01*
X64809600Y-143496197D01*
X64750695Y-143518215D01*
X64643744Y-143527526D01*
X64604660Y-143527526D01*
X64651747Y-143753840D01*
X65886793Y-143753840D01*
X65839706Y-143527526D01*
X65718001Y-143518796D01*
X65641373Y-143497182D01*
X65595898Y-143467412D01*
X65546088Y-143392271D01*
X65502842Y-143252265D01*
X65379635Y-142660239D01*
X65364773Y-142515556D01*
X65383543Y-142443976D01*
X65414823Y-142415838D01*
X65480598Y-142394246D01*
X65602226Y-142384978D01*
X65556070Y-142163131D01*
X64669614Y-141979065D01*
X64663428Y-142158857D01*
X64698647Y-142410103D01*
G37*
G36*
X62662208Y-142001476D02*
G01*
X62858035Y-142046847D01*
X63044918Y-142122330D01*
X63224818Y-142229388D01*
X63383016Y-142362948D01*
X63507106Y-142517417D01*
X63599837Y-142695253D01*
X63661625Y-142900511D01*
X63686969Y-143126553D01*
X63665924Y-143310055D01*
X63605149Y-143461196D01*
X63505104Y-143587454D01*
X63373665Y-143689119D01*
X63221744Y-143762942D01*
X63045428Y-143809069D01*
X62839564Y-143825307D01*
X62630603Y-143809554D01*
X62432983Y-143762931D01*
X62244239Y-143685281D01*
X62062356Y-143574985D01*
X61901767Y-143437692D01*
X61776704Y-143281577D01*
X61684090Y-143104476D01*
X61623129Y-142902745D01*
X61599450Y-142720245D01*
X61606971Y-142565958D01*
X61636078Y-142454735D01*
X62269577Y-142454735D01*
X62275852Y-142622531D01*
X62320309Y-142893253D01*
X62393941Y-143185123D01*
X62462608Y-143362773D01*
X62524661Y-143461084D01*
X62607501Y-143537404D01*
X62692737Y-143580148D01*
X62783358Y-143594155D01*
X62890341Y-143575193D01*
X62959842Y-143523556D01*
X63001482Y-143435214D01*
X63013810Y-143326674D01*
X63003485Y-143149530D01*
X62957560Y-142876689D01*
X62884914Y-142595238D01*
X62815640Y-142427316D01*
X62751905Y-142336961D01*
X62667513Y-142267962D01*
X62584818Y-142229649D01*
X62501211Y-142217290D01*
X62400011Y-142234111D01*
X62331170Y-142280157D01*
X62286250Y-142357806D01*
X62269577Y-142454735D01*
X61636078Y-142454735D01*
X61641421Y-142434317D01*
X61701116Y-142320731D01*
X61787095Y-142221943D01*
X61921588Y-142120843D01*
X62075164Y-142047647D01*
X62251419Y-142002101D01*
X62455054Y-141986138D01*
X62662208Y-142001476D01*
G37*
G36*
X60406524Y-141995745D02*
G01*
X60637744Y-142042117D01*
X60828985Y-142113997D01*
X60965352Y-142192968D01*
X61058469Y-142273526D01*
X61117550Y-142355875D01*
X61148727Y-142441743D01*
X61148262Y-142521861D01*
X61111504Y-142590261D01*
X61044684Y-142636173D01*
X60939908Y-142653353D01*
X60821223Y-142637256D01*
X60737975Y-142593797D01*
X60673843Y-142521060D01*
X60616258Y-142402473D01*
X60571676Y-142320081D01*
X60506192Y-142261569D01*
X60415481Y-142224111D01*
X60290932Y-142210218D01*
X60191478Y-142222766D01*
X60116916Y-142257304D01*
X60086024Y-142294901D01*
X60072148Y-142360183D01*
X60083416Y-142469287D01*
X60115613Y-142624133D01*
X60556331Y-142778583D01*
X60854755Y-142906420D01*
X61045062Y-143011248D01*
X61209142Y-143141795D01*
X61311015Y-143274705D01*
X61363129Y-143412880D01*
X61370904Y-143516886D01*
X61350127Y-143604687D01*
X61301712Y-143681442D01*
X61230548Y-143737548D01*
X61125067Y-143775162D01*
X60972478Y-143789573D01*
X60796640Y-143775841D01*
X60621655Y-143734298D01*
X60450881Y-143666422D01*
X60276043Y-143568657D01*
X60221438Y-143659091D01*
X60134140Y-143726684D01*
X60004456Y-143772143D01*
X59816716Y-143789573D01*
X59682182Y-143778114D01*
X59557958Y-143744435D01*
X59441884Y-143688514D01*
X59344099Y-143609621D01*
X59273574Y-143506782D01*
X59228971Y-143374727D01*
X59390517Y-143374727D01*
X59430476Y-143443824D01*
X59475683Y-143480090D01*
X59528241Y-143491792D01*
X59577976Y-143475471D01*
X59602332Y-143424826D01*
X59594683Y-143312565D01*
X59500277Y-142858264D01*
X60164375Y-142858264D01*
X60265993Y-143347555D01*
X60344610Y-143409752D01*
X60417489Y-143452150D01*
X60492537Y-143478926D01*
X60564890Y-143487512D01*
X60637624Y-143471072D01*
X60685492Y-143423861D01*
X60709275Y-143357100D01*
X60706336Y-143280554D01*
X60666006Y-143181722D01*
X60578104Y-143077877D01*
X60442760Y-142985347D01*
X60164375Y-142858264D01*
X59500277Y-142858264D01*
X59430159Y-142520841D01*
X59409468Y-142377916D01*
X59412292Y-142283360D01*
X59441120Y-142200457D01*
X59506652Y-142116603D01*
X59600627Y-142052125D01*
X59740037Y-142008285D01*
X59902715Y-141987181D01*
X60127525Y-141979065D01*
X60406524Y-141995745D01*
G37*
G36*
X57939021Y-142410103D02*
G01*
X57767090Y-142215565D01*
X57602343Y-142086825D01*
X57483057Y-142025891D01*
X57365264Y-141990641D01*
X57247053Y-141979065D01*
X57137560Y-141993134D01*
X57060502Y-142030973D01*
X57007153Y-142091106D01*
X56964246Y-142207411D01*
X56968070Y-142334727D01*
X57009633Y-142449531D01*
X57082715Y-142546338D01*
X57181037Y-142612112D01*
X57299165Y-142634183D01*
X57362980Y-142626717D01*
X57406738Y-142607011D01*
X57445020Y-142570652D01*
X57500725Y-142493854D01*
X57565025Y-142430111D01*
X57641054Y-142410103D01*
X57720329Y-142426257D01*
X57796385Y-142477446D01*
X57872579Y-142574627D01*
X57958375Y-142762334D01*
X58040825Y-143068199D01*
X58079164Y-143252265D01*
X58094771Y-143393790D01*
X58078792Y-143466481D01*
X58049974Y-143496197D01*
X57991069Y-143518215D01*
X57884118Y-143527526D01*
X57845034Y-143527526D01*
X57892121Y-143753840D01*
X59127167Y-143753840D01*
X59080080Y-143527526D01*
X58958375Y-143518796D01*
X58881747Y-143497182D01*
X58836272Y-143467412D01*
X58786462Y-143392271D01*
X58743216Y-143252265D01*
X58620009Y-142660239D01*
X58605147Y-142515556D01*
X58623917Y-142443976D01*
X58655198Y-142415838D01*
X58720972Y-142394246D01*
X58842600Y-142384978D01*
X58796444Y-142163131D01*
X57909988Y-141979065D01*
X57903802Y-142158857D01*
X57939021Y-142410103D01*
G37*
G36*
X56399308Y-142812852D02*
G01*
X56255629Y-142122000D01*
X56059280Y-142122000D01*
X56008127Y-142175269D01*
X55931978Y-142193468D01*
X55859627Y-142182016D01*
X55792964Y-142147268D01*
X55729487Y-142085336D01*
X55657496Y-141961831D01*
X55601069Y-141775458D01*
X55565735Y-141551323D01*
X55561240Y-141391168D01*
X55578363Y-141279653D01*
X55623429Y-141185756D01*
X55690580Y-141132983D01*
X55786252Y-141114384D01*
X55881990Y-141133797D01*
X55964772Y-141193126D01*
X56038621Y-141303289D01*
X56107702Y-141417466D01*
X56178361Y-141489457D01*
X56251353Y-141529271D01*
X56329516Y-141542258D01*
X56406719Y-141527763D01*
X56471706Y-141484377D01*
X56510947Y-141419709D01*
X56512093Y-141337720D01*
X56470030Y-141232488D01*
X56382766Y-141128353D01*
X56236087Y-141022817D01*
X56071120Y-140946582D01*
X55886012Y-140899564D01*
X55676631Y-140883232D01*
X55469990Y-140900144D01*
X55303542Y-140946982D01*
X55169382Y-141020174D01*
X55061714Y-141119409D01*
X54981053Y-141242219D01*
X54933073Y-141382104D01*
X54918055Y-141544016D01*
X54940182Y-141734327D01*
X54988431Y-141899216D01*
X55058953Y-142042871D01*
X55151708Y-142168270D01*
X55268113Y-142277405D01*
X55447481Y-142391679D01*
X55628954Y-142457578D01*
X55816588Y-142479337D01*
X55938537Y-142468442D01*
X56064491Y-142434856D01*
X56143030Y-142812852D01*
X56399308Y-142812852D01*
G37*
G36*
X56764834Y-143450103D02*
G01*
X56733025Y-143353596D01*
X56679626Y-143266070D01*
X56602357Y-143185822D01*
X56510707Y-143122985D01*
X56417306Y-143086844D01*
X56319838Y-143074899D01*
X56224003Y-143087710D01*
X56146644Y-143124172D01*
X56083288Y-143184892D01*
X56040350Y-143261780D01*
X56022557Y-143348701D01*
X56030990Y-143450103D01*
X56063440Y-143549337D01*
X56117089Y-143637539D01*
X56193839Y-143716617D01*
X56285104Y-143778110D01*
X56378337Y-143813569D01*
X56475801Y-143825307D01*
X56574367Y-143812131D01*
X56652154Y-143774955D01*
X56714211Y-143713453D01*
X56755960Y-143635393D01*
X56773073Y-143548930D01*
X56764834Y-143450103D01*
G37*
D11*
%TO.C,Ref\u002A\u002A*%
X71658843Y-121768695D02*
X71815214Y-121772799D01*
X72009221Y-121778971D01*
X72117194Y-121782617D01*
X72290702Y-121789149D01*
X72430114Y-121795615D01*
X72540802Y-121802441D01*
X72628141Y-121810052D01*
X72697504Y-121818873D01*
X72754265Y-121829328D01*
X72803798Y-121841844D01*
X72807245Y-121842837D01*
X72881423Y-121866140D01*
X72939163Y-121887716D01*
X72968221Y-121903011D01*
X72971238Y-121912245D01*
X72974604Y-121960278D01*
X72974933Y-122045509D01*
X72972279Y-122164649D01*
X72966699Y-122314411D01*
X72958248Y-122491506D01*
X72951205Y-122625801D01*
X72943437Y-122766543D01*
X72936613Y-122873949D01*
X72930072Y-122953072D01*
X72923154Y-123008966D01*
X72915198Y-123046684D01*
X72905543Y-123071278D01*
X72893527Y-123087801D01*
X72878491Y-123101308D01*
X72853242Y-123118805D01*
X72821860Y-123130136D01*
X72776466Y-123135025D01*
X72707670Y-123134438D01*
X72606081Y-123129342D01*
X72304607Y-123109629D01*
X71980862Y-123082302D01*
X71697173Y-123050828D01*
X71452397Y-123015076D01*
X71245390Y-122974917D01*
X71188905Y-122961439D01*
X71124917Y-122940158D01*
X71082345Y-122911338D01*
X71057961Y-122868086D01*
X71048532Y-122803509D01*
X71050829Y-122710714D01*
X71061620Y-122582808D01*
X71078451Y-122429518D01*
X71100792Y-122271924D01*
X71126042Y-122130280D01*
X71152875Y-122011165D01*
X71179965Y-121921158D01*
X71205985Y-121866838D01*
X71225841Y-121840824D01*
X71249496Y-121816139D01*
X71278103Y-121797099D01*
X71316332Y-121783193D01*
X71368851Y-121773911D01*
X71440330Y-121768741D01*
X71535438Y-121767172D01*
X71658843Y-121768695D01*
G36*
X71658843Y-121768695D02*
G01*
X71815214Y-121772799D01*
X72009221Y-121778971D01*
X72117194Y-121782617D01*
X72290702Y-121789149D01*
X72430114Y-121795615D01*
X72540802Y-121802441D01*
X72628141Y-121810052D01*
X72697504Y-121818873D01*
X72754265Y-121829328D01*
X72803798Y-121841844D01*
X72807245Y-121842837D01*
X72881423Y-121866140D01*
X72939163Y-121887716D01*
X72968221Y-121903011D01*
X72971238Y-121912245D01*
X72974604Y-121960278D01*
X72974933Y-122045509D01*
X72972279Y-122164649D01*
X72966699Y-122314411D01*
X72958248Y-122491506D01*
X72951205Y-122625801D01*
X72943437Y-122766543D01*
X72936613Y-122873949D01*
X72930072Y-122953072D01*
X72923154Y-123008966D01*
X72915198Y-123046684D01*
X72905543Y-123071278D01*
X72893527Y-123087801D01*
X72878491Y-123101308D01*
X72853242Y-123118805D01*
X72821860Y-123130136D01*
X72776466Y-123135025D01*
X72707670Y-123134438D01*
X72606081Y-123129342D01*
X72304607Y-123109629D01*
X71980862Y-123082302D01*
X71697173Y-123050828D01*
X71452397Y-123015076D01*
X71245390Y-122974917D01*
X71188905Y-122961439D01*
X71124917Y-122940158D01*
X71082345Y-122911338D01*
X71057961Y-122868086D01*
X71048532Y-122803509D01*
X71050829Y-122710714D01*
X71061620Y-122582808D01*
X71078451Y-122429518D01*
X71100792Y-122271924D01*
X71126042Y-122130280D01*
X71152875Y-122011165D01*
X71179965Y-121921158D01*
X71205985Y-121866838D01*
X71225841Y-121840824D01*
X71249496Y-121816139D01*
X71278103Y-121797099D01*
X71316332Y-121783193D01*
X71368851Y-121773911D01*
X71440330Y-121768741D01*
X71535438Y-121767172D01*
X71658843Y-121768695D01*
G37*
X71437368Y-123327413D02*
X71584314Y-123329801D01*
X71877521Y-123346738D01*
X72203914Y-123380255D01*
X72222475Y-123382500D01*
X72360724Y-123398507D01*
X72490698Y-123412391D01*
X72603969Y-123423330D01*
X72692110Y-123430505D01*
X72746692Y-123433096D01*
X72776139Y-123433810D01*
X72838012Y-123442467D01*
X72865532Y-123459630D01*
X72868377Y-123483166D01*
X72868792Y-123543666D01*
X72866227Y-123630522D01*
X72861226Y-123734962D01*
X72854334Y-123848215D01*
X72846095Y-123961510D01*
X72837052Y-124066076D01*
X72827751Y-124153141D01*
X72818735Y-124213935D01*
X72812498Y-124250348D01*
X72800989Y-124347572D01*
X72796292Y-124436185D01*
X72795306Y-124486700D01*
X72786465Y-124572373D01*
X72767254Y-124623976D01*
X72736201Y-124646665D01*
X72735647Y-124646811D01*
X72680292Y-124654315D01*
X72589599Y-124658602D01*
X72470043Y-124659959D01*
X72328094Y-124658669D01*
X72170227Y-124655019D01*
X72002912Y-124649293D01*
X71832623Y-124641777D01*
X71665832Y-124632755D01*
X71509012Y-124622513D01*
X71368634Y-124611337D01*
X71251173Y-124599511D01*
X71163099Y-124587321D01*
X71110885Y-124575051D01*
X71106186Y-124573245D01*
X71057770Y-124550772D01*
X71021367Y-124522434D01*
X70996149Y-124483088D01*
X70981288Y-124427588D01*
X70975956Y-124350790D01*
X70979325Y-124247551D01*
X70990567Y-124112726D01*
X71008853Y-123941171D01*
X71009712Y-123933520D01*
X71022984Y-123814288D01*
X71035686Y-123698431D01*
X71046417Y-123598843D01*
X71053772Y-123528421D01*
X71057814Y-123487177D01*
X71065464Y-123425318D01*
X71078332Y-123381872D01*
X71102601Y-123353598D01*
X71144455Y-123337256D01*
X71210078Y-123329605D01*
X71305654Y-123327404D01*
X71437368Y-123327413D01*
G36*
X71437368Y-123327413D02*
G01*
X71584314Y-123329801D01*
X71877521Y-123346738D01*
X72203914Y-123380255D01*
X72222475Y-123382500D01*
X72360724Y-123398507D01*
X72490698Y-123412391D01*
X72603969Y-123423330D01*
X72692110Y-123430505D01*
X72746692Y-123433096D01*
X72776139Y-123433810D01*
X72838012Y-123442467D01*
X72865532Y-123459630D01*
X72868377Y-123483166D01*
X72868792Y-123543666D01*
X72866227Y-123630522D01*
X72861226Y-123734962D01*
X72854334Y-123848215D01*
X72846095Y-123961510D01*
X72837052Y-124066076D01*
X72827751Y-124153141D01*
X72818735Y-124213935D01*
X72812498Y-124250348D01*
X72800989Y-124347572D01*
X72796292Y-124436185D01*
X72795306Y-124486700D01*
X72786465Y-124572373D01*
X72767254Y-124623976D01*
X72736201Y-124646665D01*
X72735647Y-124646811D01*
X72680292Y-124654315D01*
X72589599Y-124658602D01*
X72470043Y-124659959D01*
X72328094Y-124658669D01*
X72170227Y-124655019D01*
X72002912Y-124649293D01*
X71832623Y-124641777D01*
X71665832Y-124632755D01*
X71509012Y-124622513D01*
X71368634Y-124611337D01*
X71251173Y-124599511D01*
X71163099Y-124587321D01*
X71110885Y-124575051D01*
X71106186Y-124573245D01*
X71057770Y-124550772D01*
X71021367Y-124522434D01*
X70996149Y-124483088D01*
X70981288Y-124427588D01*
X70975956Y-124350790D01*
X70979325Y-124247551D01*
X70990567Y-124112726D01*
X71008853Y-123941171D01*
X71009712Y-123933520D01*
X71022984Y-123814288D01*
X71035686Y-123698431D01*
X71046417Y-123598843D01*
X71053772Y-123528421D01*
X71057814Y-123487177D01*
X71065464Y-123425318D01*
X71078332Y-123381872D01*
X71102601Y-123353598D01*
X71144455Y-123337256D01*
X71210078Y-123329605D01*
X71305654Y-123327404D01*
X71437368Y-123327413D01*
G37*
X76365713Y-121812081D02*
X76680520Y-122268989D01*
X76958691Y-122746971D01*
X77200100Y-123245771D01*
X77404621Y-123765130D01*
X77572128Y-124304794D01*
X77702495Y-124864504D01*
X77795596Y-125444005D01*
X77800359Y-125486859D01*
X77810230Y-125619064D01*
X77817422Y-125782107D01*
X77821987Y-125967866D01*
X77823974Y-126168220D01*
X77823433Y-126375046D01*
X77822800Y-126418091D01*
X77820416Y-126580223D01*
X77814972Y-126775630D01*
X77807152Y-126953143D01*
X77797006Y-127104642D01*
X77784584Y-127222005D01*
X77764449Y-127359022D01*
X77658848Y-127916433D01*
X77518036Y-128456288D01*
X77343152Y-128974065D01*
X77335512Y-128993993D01*
X77270461Y-129151997D01*
X77189500Y-129333199D01*
X77097798Y-129527142D01*
X77000522Y-129723369D01*
X76902840Y-129911419D01*
X76809919Y-130080837D01*
X76726927Y-130221162D01*
X76543842Y-130500604D01*
X76213269Y-130946007D01*
X75852101Y-131365660D01*
X75462747Y-131757521D01*
X75047620Y-132119546D01*
X74609128Y-132449693D01*
X74149684Y-132745919D01*
X73671698Y-133006183D01*
X73177581Y-133228441D01*
X72967442Y-133310522D01*
X72640216Y-133425757D01*
X72316950Y-133522714D01*
X71988520Y-133603550D01*
X71645802Y-133670419D01*
X71279669Y-133725477D01*
X70880998Y-133770878D01*
X70841240Y-133772756D01*
X70763939Y-133774087D01*
X70657065Y-133774710D01*
X70527201Y-133774612D01*
X70380928Y-133773781D01*
X70224831Y-133772203D01*
X69962491Y-133766719D01*
X69701181Y-133755000D01*
X69461753Y-133736109D01*
X69233577Y-133708748D01*
X69006022Y-133671620D01*
X68768456Y-133623426D01*
X68510249Y-133562868D01*
X68139495Y-133460996D01*
X67619411Y-133281947D01*
X67117483Y-133066313D01*
X66635276Y-132815749D01*
X66174356Y-132531913D01*
X65736289Y-132216462D01*
X65322642Y-131871054D01*
X64934980Y-131497344D01*
X64574871Y-131096990D01*
X64243879Y-130671649D01*
X64040442Y-130367707D01*
X67026701Y-130367707D01*
X67028261Y-130411390D01*
X67029333Y-130418252D01*
X67058680Y-130514356D01*
X67105529Y-130577280D01*
X67163356Y-130605751D01*
X67225639Y-130598498D01*
X67285855Y-130554246D01*
X67337481Y-130471724D01*
X67350301Y-130437078D01*
X67374792Y-130338043D01*
X67398022Y-130200484D01*
X67419807Y-130026923D01*
X67439965Y-129819881D01*
X67458311Y-129581881D01*
X67474661Y-129315443D01*
X67488832Y-129023090D01*
X67500640Y-128707343D01*
X67509902Y-128370724D01*
X67516432Y-128015755D01*
X67517184Y-127963316D01*
X67521896Y-127681182D01*
X67527433Y-127437986D01*
X67534168Y-127230828D01*
X67542473Y-127056811D01*
X67552722Y-126913037D01*
X67565287Y-126796608D01*
X67580543Y-126704624D01*
X67598860Y-126634190D01*
X67620613Y-126582405D01*
X67646175Y-126546373D01*
X67675918Y-126523194D01*
X67710215Y-126509971D01*
X67749268Y-126505934D01*
X67826087Y-126503642D01*
X67934983Y-126503099D01*
X68070784Y-126504174D01*
X68228318Y-126506735D01*
X68402415Y-126510654D01*
X68587901Y-126515798D01*
X68779605Y-126522037D01*
X68972355Y-126529240D01*
X69160980Y-126537277D01*
X69340307Y-126546017D01*
X69505164Y-126555329D01*
X69597634Y-126561136D01*
X69784683Y-126574067D01*
X69933621Y-126586389D01*
X70047394Y-126598443D01*
X70128950Y-126610568D01*
X70181234Y-126623104D01*
X70207192Y-126636393D01*
X70217304Y-126652344D01*
X70233305Y-126714038D01*
X70243372Y-126812471D01*
X70247224Y-126944151D01*
X70244585Y-127105588D01*
X70243427Y-127140012D01*
X70239821Y-127251056D01*
X70235334Y-127393122D01*
X70230216Y-127558180D01*
X70224713Y-127738200D01*
X70219075Y-127925151D01*
X70213547Y-128111005D01*
X70213006Y-128129139D01*
X70206089Y-128336416D01*
X70197449Y-128560792D01*
X70187618Y-128790381D01*
X70177127Y-129013299D01*
X70166509Y-129217663D01*
X70156293Y-129391588D01*
X70148633Y-129517311D01*
X70139329Y-129685359D01*
X70131357Y-129846961D01*
X70125121Y-129993172D01*
X70121026Y-130115045D01*
X70119479Y-130203633D01*
X70118998Y-130444179D01*
X70203055Y-130516840D01*
X70275111Y-130566417D01*
X70353375Y-130586969D01*
X70423207Y-130566480D01*
X70483442Y-130504999D01*
X70531748Y-130433077D01*
X70532375Y-129552499D01*
X70532592Y-129429213D01*
X70533779Y-129175255D01*
X70535891Y-128915642D01*
X70538839Y-128654374D01*
X70542532Y-128395450D01*
X70546878Y-128142868D01*
X70551786Y-127900628D01*
X70557167Y-127672729D01*
X70562928Y-127463168D01*
X70568979Y-127275947D01*
X70575229Y-127115062D01*
X70581587Y-126984514D01*
X70587962Y-126888300D01*
X70594264Y-126830421D01*
X70603952Y-126779064D01*
X70625103Y-126712226D01*
X70658345Y-126668686D01*
X70711195Y-126643592D01*
X70791168Y-126632093D01*
X70905780Y-126629338D01*
X70953027Y-126629947D01*
X71045224Y-126632486D01*
X71166250Y-126636754D01*
X71310634Y-126642483D01*
X71472904Y-126649406D01*
X71647590Y-126657255D01*
X71829221Y-126665765D01*
X72012324Y-126674667D01*
X72191429Y-126683694D01*
X72361064Y-126692580D01*
X72515758Y-126701057D01*
X72650040Y-126708858D01*
X72758438Y-126715715D01*
X72835481Y-126721362D01*
X72875699Y-126725531D01*
X72925153Y-126739689D01*
X72958914Y-126768401D01*
X72975834Y-126817889D01*
X72978142Y-126894929D01*
X72968066Y-127006292D01*
X72959871Y-127077662D01*
X72948214Y-127190575D01*
X72938194Y-127305766D01*
X72929681Y-127427238D01*
X72922546Y-127558998D01*
X72916660Y-127705051D01*
X72911893Y-127869403D01*
X72908117Y-128056060D01*
X72905202Y-128269026D01*
X72903019Y-128512307D01*
X72901438Y-128789909D01*
X72900331Y-129105838D01*
X72900089Y-129197231D01*
X72899529Y-129432278D01*
X72899087Y-129653949D01*
X72898766Y-129858623D01*
X72898568Y-130042682D01*
X72898494Y-130202506D01*
X72898547Y-130334475D01*
X72898730Y-130434970D01*
X72899043Y-130500370D01*
X72899490Y-130527058D01*
X72901605Y-130536222D01*
X72924565Y-130578486D01*
X72963823Y-130627599D01*
X73018741Y-130672178D01*
X73090497Y-130695872D01*
X73157687Y-130683608D01*
X73211847Y-130635130D01*
X73218635Y-130624275D01*
X73228510Y-130602697D01*
X73236007Y-130573622D01*
X73241368Y-130532074D01*
X73244835Y-130473077D01*
X73246652Y-130391656D01*
X73247061Y-130282835D01*
X73246305Y-130141637D01*
X73244626Y-129963088D01*
X73244313Y-129930636D01*
X73243887Y-129639048D01*
X73248345Y-129379002D01*
X73257943Y-129140948D01*
X73272941Y-128915338D01*
X73277699Y-128852489D01*
X73288792Y-128668926D01*
X73296967Y-128466519D01*
X73302380Y-128239413D01*
X73305186Y-127981749D01*
X73305540Y-127687671D01*
X73305204Y-127531428D01*
X73305182Y-127351843D01*
X73305868Y-127205536D01*
X73307490Y-127087289D01*
X73310274Y-126991883D01*
X73314447Y-126914100D01*
X73320237Y-126848721D01*
X73327869Y-126790527D01*
X73337571Y-126734301D01*
X73349569Y-126674823D01*
X73358023Y-126633370D01*
X73378036Y-126510165D01*
X73381933Y-126418091D01*
X73368705Y-126350503D01*
X73337341Y-126300757D01*
X73286832Y-126262210D01*
X73274589Y-126255153D01*
X73250114Y-126242982D01*
X73223570Y-126235620D01*
X73188326Y-126233324D01*
X73137752Y-126236348D01*
X73065216Y-126244947D01*
X72964086Y-126259378D01*
X72827732Y-126279895D01*
X72724481Y-126295372D01*
X72634763Y-126308012D01*
X72554475Y-126317729D01*
X72477149Y-126324796D01*
X72396313Y-126329485D01*
X72305499Y-126332067D01*
X72198237Y-126332815D01*
X72068057Y-126332000D01*
X71908489Y-126329895D01*
X71713065Y-126326772D01*
X71693907Y-126326446D01*
X71479165Y-126321536D01*
X71243193Y-126314186D01*
X70998702Y-126304916D01*
X70758406Y-126294245D01*
X70535017Y-126282691D01*
X70341248Y-126270774D01*
X70277165Y-126266403D01*
X69858000Y-126238000D01*
X69478771Y-126212690D01*
X69137489Y-126190399D01*
X68832163Y-126171050D01*
X68560803Y-126154569D01*
X68321421Y-126140881D01*
X68112026Y-126129909D01*
X67930628Y-126121580D01*
X67775238Y-126115818D01*
X67643866Y-126112547D01*
X67534522Y-126111692D01*
X67445216Y-126113178D01*
X67373959Y-126116929D01*
X67318761Y-126122872D01*
X67277631Y-126130929D01*
X67248581Y-126141026D01*
X67229621Y-126153088D01*
X67210711Y-126171496D01*
X67196031Y-126195793D01*
X67190371Y-126230932D01*
X67192375Y-126287314D01*
X67200690Y-126375338D01*
X67201984Y-126389590D01*
X67206514Y-126467095D01*
X67210490Y-126577889D01*
X67213764Y-126714845D01*
X67216190Y-126870836D01*
X67217622Y-127038737D01*
X67217912Y-127211421D01*
X67217540Y-127307698D01*
X67215845Y-127473952D01*
X67212598Y-127637026D01*
X67207528Y-127801453D01*
X67200367Y-127971761D01*
X67190843Y-128152479D01*
X67178687Y-128348139D01*
X67163628Y-128563269D01*
X67145397Y-128802399D01*
X67123722Y-129070059D01*
X67098334Y-129370779D01*
X67068964Y-129709088D01*
X67066543Y-129736936D01*
X67053435Y-129897141D01*
X67042533Y-130046599D01*
X67034201Y-130179033D01*
X67028802Y-130288162D01*
X67026701Y-130367707D01*
X64040442Y-130367707D01*
X63943572Y-130222979D01*
X63675516Y-129752635D01*
X63441275Y-129262275D01*
X63242418Y-128753557D01*
X63080510Y-128228136D01*
X62957117Y-127687671D01*
X62925651Y-127515832D01*
X62898128Y-127348497D01*
X62876935Y-127193184D01*
X62861316Y-127040839D01*
X62850514Y-126882410D01*
X62843771Y-126708843D01*
X62840331Y-126511087D01*
X62839438Y-126280088D01*
X62839479Y-126241522D01*
X62841022Y-126011392D01*
X62845364Y-125813104D01*
X62853338Y-125637593D01*
X62865776Y-125475794D01*
X62883513Y-125318643D01*
X62907379Y-125157074D01*
X62938209Y-124982022D01*
X62976835Y-124784422D01*
X63022821Y-124575010D01*
X67341146Y-124575010D01*
X67346568Y-124654706D01*
X67382121Y-124730864D01*
X67445624Y-124792085D01*
X67451690Y-124795901D01*
X67537696Y-124828578D01*
X67649195Y-124835969D01*
X67790664Y-124818416D01*
X67835013Y-124812075D01*
X67927526Y-124803504D01*
X68051694Y-124795277D01*
X68201371Y-124787737D01*
X68370409Y-124781224D01*
X68552664Y-124776080D01*
X68597724Y-124775050D01*
X68781746Y-124771421D01*
X68931714Y-124769748D01*
X69054404Y-124770192D01*
X69156590Y-124772912D01*
X69245046Y-124778069D01*
X69326546Y-124785824D01*
X69407866Y-124796337D01*
X69458472Y-124803230D01*
X69597151Y-124816988D01*
X69699913Y-124817552D01*
X69770098Y-124804773D01*
X69771923Y-124803602D01*
X70514824Y-124803602D01*
X70516411Y-124836001D01*
X70542296Y-124870891D01*
X70586794Y-124907596D01*
X70592857Y-124911269D01*
X70612205Y-124919732D01*
X70640053Y-124927025D01*
X70680158Y-124933380D01*
X70736280Y-124939026D01*
X70812176Y-124944195D01*
X70911604Y-124949117D01*
X71038323Y-124954022D01*
X71196091Y-124959140D01*
X71388666Y-124964703D01*
X71619806Y-124970940D01*
X71632489Y-124971276D01*
X71910260Y-124978682D01*
X72148984Y-124984978D01*
X72351804Y-124989964D01*
X72521864Y-124993438D01*
X72662306Y-124995200D01*
X72776274Y-124995047D01*
X72866912Y-124992779D01*
X72937363Y-124988195D01*
X72990770Y-124981094D01*
X73030277Y-124971274D01*
X73059027Y-124958534D01*
X73080162Y-124942674D01*
X73096828Y-124923492D01*
X73112166Y-124900787D01*
X73129321Y-124874358D01*
X73154019Y-124830870D01*
X73168916Y-124782357D01*
X73176421Y-124716429D01*
X73178964Y-124620666D01*
X73180229Y-124506960D01*
X73182879Y-124344565D01*
X73186613Y-124157249D01*
X73191246Y-123951735D01*
X73196593Y-123734748D01*
X73202467Y-123513014D01*
X73208685Y-123293258D01*
X73215062Y-123082203D01*
X73221411Y-122886576D01*
X73227549Y-122713101D01*
X73233289Y-122568502D01*
X73238447Y-122459505D01*
X73242291Y-122388359D01*
X73253222Y-122184588D01*
X73261825Y-122017747D01*
X73268046Y-121883753D01*
X73271827Y-121778527D01*
X73273111Y-121697988D01*
X73271843Y-121638052D01*
X73267965Y-121594641D01*
X73261421Y-121563671D01*
X73252155Y-121541063D01*
X73240111Y-121522735D01*
X73225231Y-121504605D01*
X73170487Y-121439545D01*
X72798326Y-121453899D01*
X72707677Y-121457107D01*
X72600988Y-121459520D01*
X72503847Y-121459328D01*
X72407664Y-121456064D01*
X72303849Y-121449263D01*
X72183814Y-121438456D01*
X72038970Y-121423178D01*
X71860729Y-121402962D01*
X71670436Y-121381384D01*
X71496607Y-121362908D01*
X71356198Y-121349900D01*
X71244739Y-121342246D01*
X71157755Y-121339834D01*
X71090774Y-121342549D01*
X71039324Y-121350281D01*
X70998932Y-121362915D01*
X70965125Y-121380338D01*
X70952572Y-121388349D01*
X70910036Y-121421792D01*
X70877123Y-121462743D01*
X70852262Y-121517005D01*
X70833881Y-121590383D01*
X70821891Y-121677870D01*
X70820410Y-121688681D01*
X70810277Y-121817703D01*
X70801911Y-121983255D01*
X70792440Y-122162659D01*
X70776599Y-122395878D01*
X70756028Y-122655222D01*
X70731561Y-122932378D01*
X70704030Y-123219034D01*
X70674267Y-123506877D01*
X70643104Y-123787594D01*
X70611374Y-124052871D01*
X70579909Y-124294397D01*
X70549541Y-124503859D01*
X70543843Y-124541568D01*
X70529394Y-124647824D01*
X70519436Y-124738023D01*
X70514824Y-124803602D01*
X69771923Y-124803602D01*
X69811044Y-124778505D01*
X69818391Y-124767551D01*
X69841498Y-124720858D01*
X69866216Y-124659010D01*
X69872861Y-124637209D01*
X69880565Y-124599113D01*
X69887006Y-124547274D01*
X69892373Y-124477608D01*
X69896854Y-124386031D01*
X69900640Y-124268458D01*
X69903919Y-124120805D01*
X69906880Y-123938988D01*
X69909711Y-123718921D01*
X69910959Y-123621502D01*
X69916439Y-123316985D01*
X69924019Y-123047660D01*
X69933912Y-122808044D01*
X69946334Y-122592653D01*
X69961500Y-122396005D01*
X69965729Y-122347844D01*
X69978691Y-122200136D01*
X69990997Y-122059763D01*
X70001885Y-121935434D01*
X70010591Y-121835857D01*
X70016353Y-121769743D01*
X70017947Y-121751021D01*
X70022380Y-121677870D01*
X70019064Y-121632112D01*
X70005737Y-121601518D01*
X69980140Y-121573860D01*
X69969170Y-121564371D01*
X69911339Y-121524129D01*
X69845033Y-121487785D01*
X69842886Y-121486783D01*
X69800754Y-121469601D01*
X69757901Y-121459619D01*
X69703981Y-121456136D01*
X69628648Y-121458451D01*
X69521556Y-121465863D01*
X69426922Y-121471734D01*
X69288062Y-121477586D01*
X69124534Y-121482403D01*
X68943780Y-121486132D01*
X68753242Y-121488722D01*
X68560362Y-121490124D01*
X68372580Y-121490285D01*
X68197339Y-121489155D01*
X68042081Y-121486683D01*
X67914246Y-121482818D01*
X67821276Y-121477509D01*
X67721480Y-121470050D01*
X67647838Y-121467653D01*
X67594046Y-121471607D01*
X67548761Y-121482778D01*
X67500637Y-121502034D01*
X67452845Y-121527889D01*
X67397547Y-121584784D01*
X67382565Y-121654450D01*
X67408003Y-121736624D01*
X67425510Y-121766464D01*
X67498694Y-121840708D01*
X67596816Y-121881235D01*
X67719095Y-121887836D01*
X67864748Y-121860298D01*
X67874076Y-121857993D01*
X67934820Y-121849068D01*
X68027325Y-121841079D01*
X68145894Y-121834090D01*
X68284831Y-121828164D01*
X68438439Y-121823366D01*
X68601020Y-121819759D01*
X68766879Y-121817408D01*
X68930319Y-121816376D01*
X69085643Y-121816728D01*
X69227153Y-121818527D01*
X69349154Y-121821837D01*
X69445949Y-121826723D01*
X69511841Y-121833247D01*
X69541133Y-121841476D01*
X69554296Y-121872558D01*
X69562067Y-121940451D01*
X69563175Y-122045234D01*
X69557595Y-122188132D01*
X69545303Y-122370370D01*
X69526274Y-122593174D01*
X69517639Y-122704487D01*
X69507995Y-122884798D01*
X69500783Y-123093727D01*
X69496255Y-123323451D01*
X69494667Y-123566143D01*
X69494467Y-123719363D01*
X69493268Y-123889499D01*
X69490323Y-124025035D01*
X69484890Y-124130386D01*
X69476226Y-124209967D01*
X69463588Y-124268194D01*
X69446233Y-124309481D01*
X69423418Y-124338242D01*
X69394401Y-124358893D01*
X69358439Y-124375850D01*
X69307185Y-124390304D01*
X69216800Y-124402608D01*
X69108969Y-124407278D01*
X69104197Y-124407300D01*
X69012241Y-124410109D01*
X68893954Y-124416877D01*
X68764072Y-124426632D01*
X68637331Y-124438401D01*
X68581305Y-124444046D01*
X68385935Y-124460417D01*
X68219769Y-124467816D01*
X68073121Y-124466212D01*
X67936301Y-124455577D01*
X67799621Y-124435882D01*
X67739213Y-124426181D01*
X67612725Y-124413514D01*
X67516122Y-124418004D01*
X67442794Y-124440378D01*
X67386133Y-124481362D01*
X67368040Y-124503180D01*
X67341146Y-124575010D01*
X63022821Y-124575010D01*
X63030732Y-124538986D01*
X63178617Y-124005071D01*
X63364274Y-123487230D01*
X63586184Y-122987175D01*
X63842827Y-122506615D01*
X64132681Y-122047261D01*
X64454226Y-121610824D01*
X64805943Y-121199015D01*
X65186311Y-120813544D01*
X65593809Y-120456121D01*
X66026917Y-120128457D01*
X66484115Y-119832263D01*
X66963882Y-119569249D01*
X67464698Y-119341126D01*
X67985042Y-119149605D01*
X68352210Y-119039933D01*
X68900710Y-118912398D01*
X69453886Y-118826240D01*
X70009739Y-118781448D01*
X70566269Y-118778009D01*
X71121478Y-118815912D01*
X71673366Y-118895144D01*
X72219934Y-119015696D01*
X72759183Y-119177553D01*
X72798187Y-119190969D01*
X73315671Y-119390688D01*
X73807075Y-119622450D01*
X74275151Y-119887946D01*
X74722648Y-120188868D01*
X75152319Y-120526907D01*
X75566913Y-120903755D01*
X75626696Y-120962514D01*
X76014396Y-121376504D01*
X76273691Y-121697988D01*
X76365713Y-121812081D01*
G36*
X76365713Y-121812081D02*
G01*
X76680520Y-122268989D01*
X76958691Y-122746971D01*
X77200100Y-123245771D01*
X77404621Y-123765130D01*
X77572128Y-124304794D01*
X77702495Y-124864504D01*
X77795596Y-125444005D01*
X77800359Y-125486859D01*
X77810230Y-125619064D01*
X77817422Y-125782107D01*
X77821987Y-125967866D01*
X77823974Y-126168220D01*
X77823433Y-126375046D01*
X77822800Y-126418091D01*
X77820416Y-126580223D01*
X77814972Y-126775630D01*
X77807152Y-126953143D01*
X77797006Y-127104642D01*
X77784584Y-127222005D01*
X77764449Y-127359022D01*
X77658848Y-127916433D01*
X77518036Y-128456288D01*
X77343152Y-128974065D01*
X77335512Y-128993993D01*
X77270461Y-129151997D01*
X77189500Y-129333199D01*
X77097798Y-129527142D01*
X77000522Y-129723369D01*
X76902840Y-129911419D01*
X76809919Y-130080837D01*
X76726927Y-130221162D01*
X76543842Y-130500604D01*
X76213269Y-130946007D01*
X75852101Y-131365660D01*
X75462747Y-131757521D01*
X75047620Y-132119546D01*
X74609128Y-132449693D01*
X74149684Y-132745919D01*
X73671698Y-133006183D01*
X73177581Y-133228441D01*
X72967442Y-133310522D01*
X72640216Y-133425757D01*
X72316950Y-133522714D01*
X71988520Y-133603550D01*
X71645802Y-133670419D01*
X71279669Y-133725477D01*
X70880998Y-133770878D01*
X70841240Y-133772756D01*
X70763939Y-133774087D01*
X70657065Y-133774710D01*
X70527201Y-133774612D01*
X70380928Y-133773781D01*
X70224831Y-133772203D01*
X69962491Y-133766719D01*
X69701181Y-133755000D01*
X69461753Y-133736109D01*
X69233577Y-133708748D01*
X69006022Y-133671620D01*
X68768456Y-133623426D01*
X68510249Y-133562868D01*
X68139495Y-133460996D01*
X67619411Y-133281947D01*
X67117483Y-133066313D01*
X66635276Y-132815749D01*
X66174356Y-132531913D01*
X65736289Y-132216462D01*
X65322642Y-131871054D01*
X64934980Y-131497344D01*
X64574871Y-131096990D01*
X64243879Y-130671649D01*
X64040442Y-130367707D01*
X67026701Y-130367707D01*
X67028261Y-130411390D01*
X67029333Y-130418252D01*
X67058680Y-130514356D01*
X67105529Y-130577280D01*
X67163356Y-130605751D01*
X67225639Y-130598498D01*
X67285855Y-130554246D01*
X67337481Y-130471724D01*
X67350301Y-130437078D01*
X67374792Y-130338043D01*
X67398022Y-130200484D01*
X67419807Y-130026923D01*
X67439965Y-129819881D01*
X67458311Y-129581881D01*
X67474661Y-129315443D01*
X67488832Y-129023090D01*
X67500640Y-128707343D01*
X67509902Y-128370724D01*
X67516432Y-128015755D01*
X67517184Y-127963316D01*
X67521896Y-127681182D01*
X67527433Y-127437986D01*
X67534168Y-127230828D01*
X67542473Y-127056811D01*
X67552722Y-126913037D01*
X67565287Y-126796608D01*
X67580543Y-126704624D01*
X67598860Y-126634190D01*
X67620613Y-126582405D01*
X67646175Y-126546373D01*
X67675918Y-126523194D01*
X67710215Y-126509971D01*
X67749268Y-126505934D01*
X67826087Y-126503642D01*
X67934983Y-126503099D01*
X68070784Y-126504174D01*
X68228318Y-126506735D01*
X68402415Y-126510654D01*
X68587901Y-126515798D01*
X68779605Y-126522037D01*
X68972355Y-126529240D01*
X69160980Y-126537277D01*
X69340307Y-126546017D01*
X69505164Y-126555329D01*
X69597634Y-126561136D01*
X69784683Y-126574067D01*
X69933621Y-126586389D01*
X70047394Y-126598443D01*
X70128950Y-126610568D01*
X70181234Y-126623104D01*
X70207192Y-126636393D01*
X70217304Y-126652344D01*
X70233305Y-126714038D01*
X70243372Y-126812471D01*
X70247224Y-126944151D01*
X70244585Y-127105588D01*
X70243427Y-127140012D01*
X70239821Y-127251056D01*
X70235334Y-127393122D01*
X70230216Y-127558180D01*
X70224713Y-127738200D01*
X70219075Y-127925151D01*
X70213547Y-128111005D01*
X70213006Y-128129139D01*
X70206089Y-128336416D01*
X70197449Y-128560792D01*
X70187618Y-128790381D01*
X70177127Y-129013299D01*
X70166509Y-129217663D01*
X70156293Y-129391588D01*
X70148633Y-129517311D01*
X70139329Y-129685359D01*
X70131357Y-129846961D01*
X70125121Y-129993172D01*
X70121026Y-130115045D01*
X70119479Y-130203633D01*
X70118998Y-130444179D01*
X70203055Y-130516840D01*
X70275111Y-130566417D01*
X70353375Y-130586969D01*
X70423207Y-130566480D01*
X70483442Y-130504999D01*
X70531748Y-130433077D01*
X70532375Y-129552499D01*
X70532592Y-129429213D01*
X70533779Y-129175255D01*
X70535891Y-128915642D01*
X70538839Y-128654374D01*
X70542532Y-128395450D01*
X70546878Y-128142868D01*
X70551786Y-127900628D01*
X70557167Y-127672729D01*
X70562928Y-127463168D01*
X70568979Y-127275947D01*
X70575229Y-127115062D01*
X70581587Y-126984514D01*
X70587962Y-126888300D01*
X70594264Y-126830421D01*
X70603952Y-126779064D01*
X70625103Y-126712226D01*
X70658345Y-126668686D01*
X70711195Y-126643592D01*
X70791168Y-126632093D01*
X70905780Y-126629338D01*
X70953027Y-126629947D01*
X71045224Y-126632486D01*
X71166250Y-126636754D01*
X71310634Y-126642483D01*
X71472904Y-126649406D01*
X71647590Y-126657255D01*
X71829221Y-126665765D01*
X72012324Y-126674667D01*
X72191429Y-126683694D01*
X72361064Y-126692580D01*
X72515758Y-126701057D01*
X72650040Y-126708858D01*
X72758438Y-126715715D01*
X72835481Y-126721362D01*
X72875699Y-126725531D01*
X72925153Y-126739689D01*
X72958914Y-126768401D01*
X72975834Y-126817889D01*
X72978142Y-126894929D01*
X72968066Y-127006292D01*
X72959871Y-127077662D01*
X72948214Y-127190575D01*
X72938194Y-127305766D01*
X72929681Y-127427238D01*
X72922546Y-127558998D01*
X72916660Y-127705051D01*
X72911893Y-127869403D01*
X72908117Y-128056060D01*
X72905202Y-128269026D01*
X72903019Y-128512307D01*
X72901438Y-128789909D01*
X72900331Y-129105838D01*
X72900089Y-129197231D01*
X72899529Y-129432278D01*
X72899087Y-129653949D01*
X72898766Y-129858623D01*
X72898568Y-130042682D01*
X72898494Y-130202506D01*
X72898547Y-130334475D01*
X72898730Y-130434970D01*
X72899043Y-130500370D01*
X72899490Y-130527058D01*
X72901605Y-130536222D01*
X72924565Y-130578486D01*
X72963823Y-130627599D01*
X73018741Y-130672178D01*
X73090497Y-130695872D01*
X73157687Y-130683608D01*
X73211847Y-130635130D01*
X73218635Y-130624275D01*
X73228510Y-130602697D01*
X73236007Y-130573622D01*
X73241368Y-130532074D01*
X73244835Y-130473077D01*
X73246652Y-130391656D01*
X73247061Y-130282835D01*
X73246305Y-130141637D01*
X73244626Y-129963088D01*
X73244313Y-129930636D01*
X73243887Y-129639048D01*
X73248345Y-129379002D01*
X73257943Y-129140948D01*
X73272941Y-128915338D01*
X73277699Y-128852489D01*
X73288792Y-128668926D01*
X73296967Y-128466519D01*
X73302380Y-128239413D01*
X73305186Y-127981749D01*
X73305540Y-127687671D01*
X73305204Y-127531428D01*
X73305182Y-127351843D01*
X73305868Y-127205536D01*
X73307490Y-127087289D01*
X73310274Y-126991883D01*
X73314447Y-126914100D01*
X73320237Y-126848721D01*
X73327869Y-126790527D01*
X73337571Y-126734301D01*
X73349569Y-126674823D01*
X73358023Y-126633370D01*
X73378036Y-126510165D01*
X73381933Y-126418091D01*
X73368705Y-126350503D01*
X73337341Y-126300757D01*
X73286832Y-126262210D01*
X73274589Y-126255153D01*
X73250114Y-126242982D01*
X73223570Y-126235620D01*
X73188326Y-126233324D01*
X73137752Y-126236348D01*
X73065216Y-126244947D01*
X72964086Y-126259378D01*
X72827732Y-126279895D01*
X72724481Y-126295372D01*
X72634763Y-126308012D01*
X72554475Y-126317729D01*
X72477149Y-126324796D01*
X72396313Y-126329485D01*
X72305499Y-126332067D01*
X72198237Y-126332815D01*
X72068057Y-126332000D01*
X71908489Y-126329895D01*
X71713065Y-126326772D01*
X71693907Y-126326446D01*
X71479165Y-126321536D01*
X71243193Y-126314186D01*
X70998702Y-126304916D01*
X70758406Y-126294245D01*
X70535017Y-126282691D01*
X70341248Y-126270774D01*
X70277165Y-126266403D01*
X69858000Y-126238000D01*
X69478771Y-126212690D01*
X69137489Y-126190399D01*
X68832163Y-126171050D01*
X68560803Y-126154569D01*
X68321421Y-126140881D01*
X68112026Y-126129909D01*
X67930628Y-126121580D01*
X67775238Y-126115818D01*
X67643866Y-126112547D01*
X67534522Y-126111692D01*
X67445216Y-126113178D01*
X67373959Y-126116929D01*
X67318761Y-126122872D01*
X67277631Y-126130929D01*
X67248581Y-126141026D01*
X67229621Y-126153088D01*
X67210711Y-126171496D01*
X67196031Y-126195793D01*
X67190371Y-126230932D01*
X67192375Y-126287314D01*
X67200690Y-126375338D01*
X67201984Y-126389590D01*
X67206514Y-126467095D01*
X67210490Y-126577889D01*
X67213764Y-126714845D01*
X67216190Y-126870836D01*
X67217622Y-127038737D01*
X67217912Y-127211421D01*
X67217540Y-127307698D01*
X67215845Y-127473952D01*
X67212598Y-127637026D01*
X67207528Y-127801453D01*
X67200367Y-127971761D01*
X67190843Y-128152479D01*
X67178687Y-128348139D01*
X67163628Y-128563269D01*
X67145397Y-128802399D01*
X67123722Y-129070059D01*
X67098334Y-129370779D01*
X67068964Y-129709088D01*
X67066543Y-129736936D01*
X67053435Y-129897141D01*
X67042533Y-130046599D01*
X67034201Y-130179033D01*
X67028802Y-130288162D01*
X67026701Y-130367707D01*
X64040442Y-130367707D01*
X63943572Y-130222979D01*
X63675516Y-129752635D01*
X63441275Y-129262275D01*
X63242418Y-128753557D01*
X63080510Y-128228136D01*
X62957117Y-127687671D01*
X62925651Y-127515832D01*
X62898128Y-127348497D01*
X62876935Y-127193184D01*
X62861316Y-127040839D01*
X62850514Y-126882410D01*
X62843771Y-126708843D01*
X62840331Y-126511087D01*
X62839438Y-126280088D01*
X62839479Y-126241522D01*
X62841022Y-126011392D01*
X62845364Y-125813104D01*
X62853338Y-125637593D01*
X62865776Y-125475794D01*
X62883513Y-125318643D01*
X62907379Y-125157074D01*
X62938209Y-124982022D01*
X62976835Y-124784422D01*
X63022821Y-124575010D01*
X67341146Y-124575010D01*
X67346568Y-124654706D01*
X67382121Y-124730864D01*
X67445624Y-124792085D01*
X67451690Y-124795901D01*
X67537696Y-124828578D01*
X67649195Y-124835969D01*
X67790664Y-124818416D01*
X67835013Y-124812075D01*
X67927526Y-124803504D01*
X68051694Y-124795277D01*
X68201371Y-124787737D01*
X68370409Y-124781224D01*
X68552664Y-124776080D01*
X68597724Y-124775050D01*
X68781746Y-124771421D01*
X68931714Y-124769748D01*
X69054404Y-124770192D01*
X69156590Y-124772912D01*
X69245046Y-124778069D01*
X69326546Y-124785824D01*
X69407866Y-124796337D01*
X69458472Y-124803230D01*
X69597151Y-124816988D01*
X69699913Y-124817552D01*
X69770098Y-124804773D01*
X69771923Y-124803602D01*
X70514824Y-124803602D01*
X70516411Y-124836001D01*
X70542296Y-124870891D01*
X70586794Y-124907596D01*
X70592857Y-124911269D01*
X70612205Y-124919732D01*
X70640053Y-124927025D01*
X70680158Y-124933380D01*
X70736280Y-124939026D01*
X70812176Y-124944195D01*
X70911604Y-124949117D01*
X71038323Y-124954022D01*
X71196091Y-124959140D01*
X71388666Y-124964703D01*
X71619806Y-124970940D01*
X71632489Y-124971276D01*
X71910260Y-124978682D01*
X72148984Y-124984978D01*
X72351804Y-124989964D01*
X72521864Y-124993438D01*
X72662306Y-124995200D01*
X72776274Y-124995047D01*
X72866912Y-124992779D01*
X72937363Y-124988195D01*
X72990770Y-124981094D01*
X73030277Y-124971274D01*
X73059027Y-124958534D01*
X73080162Y-124942674D01*
X73096828Y-124923492D01*
X73112166Y-124900787D01*
X73129321Y-124874358D01*
X73154019Y-124830870D01*
X73168916Y-124782357D01*
X73176421Y-124716429D01*
X73178964Y-124620666D01*
X73180229Y-124506960D01*
X73182879Y-124344565D01*
X73186613Y-124157249D01*
X73191246Y-123951735D01*
X73196593Y-123734748D01*
X73202467Y-123513014D01*
X73208685Y-123293258D01*
X73215062Y-123082203D01*
X73221411Y-122886576D01*
X73227549Y-122713101D01*
X73233289Y-122568502D01*
X73238447Y-122459505D01*
X73242291Y-122388359D01*
X73253222Y-122184588D01*
X73261825Y-122017747D01*
X73268046Y-121883753D01*
X73271827Y-121778527D01*
X73273111Y-121697988D01*
X73271843Y-121638052D01*
X73267965Y-121594641D01*
X73261421Y-121563671D01*
X73252155Y-121541063D01*
X73240111Y-121522735D01*
X73225231Y-121504605D01*
X73170487Y-121439545D01*
X72798326Y-121453899D01*
X72707677Y-121457107D01*
X72600988Y-121459520D01*
X72503847Y-121459328D01*
X72407664Y-121456064D01*
X72303849Y-121449263D01*
X72183814Y-121438456D01*
X72038970Y-121423178D01*
X71860729Y-121402962D01*
X71670436Y-121381384D01*
X71496607Y-121362908D01*
X71356198Y-121349900D01*
X71244739Y-121342246D01*
X71157755Y-121339834D01*
X71090774Y-121342549D01*
X71039324Y-121350281D01*
X70998932Y-121362915D01*
X70965125Y-121380338D01*
X70952572Y-121388349D01*
X70910036Y-121421792D01*
X70877123Y-121462743D01*
X70852262Y-121517005D01*
X70833881Y-121590383D01*
X70821891Y-121677870D01*
X70820410Y-121688681D01*
X70810277Y-121817703D01*
X70801911Y-121983255D01*
X70792440Y-122162659D01*
X70776599Y-122395878D01*
X70756028Y-122655222D01*
X70731561Y-122932378D01*
X70704030Y-123219034D01*
X70674267Y-123506877D01*
X70643104Y-123787594D01*
X70611374Y-124052871D01*
X70579909Y-124294397D01*
X70549541Y-124503859D01*
X70543843Y-124541568D01*
X70529394Y-124647824D01*
X70519436Y-124738023D01*
X70514824Y-124803602D01*
X69771923Y-124803602D01*
X69811044Y-124778505D01*
X69818391Y-124767551D01*
X69841498Y-124720858D01*
X69866216Y-124659010D01*
X69872861Y-124637209D01*
X69880565Y-124599113D01*
X69887006Y-124547274D01*
X69892373Y-124477608D01*
X69896854Y-124386031D01*
X69900640Y-124268458D01*
X69903919Y-124120805D01*
X69906880Y-123938988D01*
X69909711Y-123718921D01*
X69910959Y-123621502D01*
X69916439Y-123316985D01*
X69924019Y-123047660D01*
X69933912Y-122808044D01*
X69946334Y-122592653D01*
X69961500Y-122396005D01*
X69965729Y-122347844D01*
X69978691Y-122200136D01*
X69990997Y-122059763D01*
X70001885Y-121935434D01*
X70010591Y-121835857D01*
X70016353Y-121769743D01*
X70017947Y-121751021D01*
X70022380Y-121677870D01*
X70019064Y-121632112D01*
X70005737Y-121601518D01*
X69980140Y-121573860D01*
X69969170Y-121564371D01*
X69911339Y-121524129D01*
X69845033Y-121487785D01*
X69842886Y-121486783D01*
X69800754Y-121469601D01*
X69757901Y-121459619D01*
X69703981Y-121456136D01*
X69628648Y-121458451D01*
X69521556Y-121465863D01*
X69426922Y-121471734D01*
X69288062Y-121477586D01*
X69124534Y-121482403D01*
X68943780Y-121486132D01*
X68753242Y-121488722D01*
X68560362Y-121490124D01*
X68372580Y-121490285D01*
X68197339Y-121489155D01*
X68042081Y-121486683D01*
X67914246Y-121482818D01*
X67821276Y-121477509D01*
X67721480Y-121470050D01*
X67647838Y-121467653D01*
X67594046Y-121471607D01*
X67548761Y-121482778D01*
X67500637Y-121502034D01*
X67452845Y-121527889D01*
X67397547Y-121584784D01*
X67382565Y-121654450D01*
X67408003Y-121736624D01*
X67425510Y-121766464D01*
X67498694Y-121840708D01*
X67596816Y-121881235D01*
X67719095Y-121887836D01*
X67864748Y-121860298D01*
X67874076Y-121857993D01*
X67934820Y-121849068D01*
X68027325Y-121841079D01*
X68145894Y-121834090D01*
X68284831Y-121828164D01*
X68438439Y-121823366D01*
X68601020Y-121819759D01*
X68766879Y-121817408D01*
X68930319Y-121816376D01*
X69085643Y-121816728D01*
X69227153Y-121818527D01*
X69349154Y-121821837D01*
X69445949Y-121826723D01*
X69511841Y-121833247D01*
X69541133Y-121841476D01*
X69554296Y-121872558D01*
X69562067Y-121940451D01*
X69563175Y-122045234D01*
X69557595Y-122188132D01*
X69545303Y-122370370D01*
X69526274Y-122593174D01*
X69517639Y-122704487D01*
X69507995Y-122884798D01*
X69500783Y-123093727D01*
X69496255Y-123323451D01*
X69494667Y-123566143D01*
X69494467Y-123719363D01*
X69493268Y-123889499D01*
X69490323Y-124025035D01*
X69484890Y-124130386D01*
X69476226Y-124209967D01*
X69463588Y-124268194D01*
X69446233Y-124309481D01*
X69423418Y-124338242D01*
X69394401Y-124358893D01*
X69358439Y-124375850D01*
X69307185Y-124390304D01*
X69216800Y-124402608D01*
X69108969Y-124407278D01*
X69104197Y-124407300D01*
X69012241Y-124410109D01*
X68893954Y-124416877D01*
X68764072Y-124426632D01*
X68637331Y-124438401D01*
X68581305Y-124444046D01*
X68385935Y-124460417D01*
X68219769Y-124467816D01*
X68073121Y-124466212D01*
X67936301Y-124455577D01*
X67799621Y-124435882D01*
X67739213Y-124426181D01*
X67612725Y-124413514D01*
X67516122Y-124418004D01*
X67442794Y-124440378D01*
X67386133Y-124481362D01*
X67368040Y-124503180D01*
X67341146Y-124575010D01*
X63022821Y-124575010D01*
X63030732Y-124538986D01*
X63178617Y-124005071D01*
X63364274Y-123487230D01*
X63586184Y-122987175D01*
X63842827Y-122506615D01*
X64132681Y-122047261D01*
X64454226Y-121610824D01*
X64805943Y-121199015D01*
X65186311Y-120813544D01*
X65593809Y-120456121D01*
X66026917Y-120128457D01*
X66484115Y-119832263D01*
X66963882Y-119569249D01*
X67464698Y-119341126D01*
X67985042Y-119149605D01*
X68352210Y-119039933D01*
X68900710Y-118912398D01*
X69453886Y-118826240D01*
X70009739Y-118781448D01*
X70566269Y-118778009D01*
X71121478Y-118815912D01*
X71673366Y-118895144D01*
X72219934Y-119015696D01*
X72759183Y-119177553D01*
X72798187Y-119190969D01*
X73315671Y-119390688D01*
X73807075Y-119622450D01*
X74275151Y-119887946D01*
X74722648Y-120188868D01*
X75152319Y-120526907D01*
X75566913Y-120903755D01*
X75626696Y-120962514D01*
X76014396Y-121376504D01*
X76273691Y-121697988D01*
X76365713Y-121812081D01*
G37*
%TD*%
M02*
