%TF.GenerationSoftware,KiCad,Pcbnew,9.0.3*%
%TF.CreationDate,2025-07-31T22:21:15+01:00*%
%TF.ProjectId,Yorick,596f7269-636b-42e6-9b69-6361645f7063,1.2*%
%TF.SameCoordinates,Original*%
%TF.FileFunction,Soldermask,Top*%
%TF.FilePolarity,Negative*%
%FSLAX46Y46*%
G04 Gerber Fmt 4.6, Leading zero omitted, Abs format (unit mm)*
G04 Created by KiCad (PCBNEW 9.0.3) date 2025-07-31 22:21:15*
%MOMM*%
%LPD*%
G01*
G04 APERTURE LIST*
G04 Aperture macros list*
%AMRoundRect*
0 Rectangle with rounded corners*
0 $1 Rounding radius*
0 $2 $3 $4 $5 $6 $7 $8 $9 X,Y pos of 4 corners*
0 Add a 4 corners polygon primitive as box body*
4,1,4,$2,$3,$4,$5,$6,$7,$8,$9,$2,$3,0*
0 Add four circle primitives for the rounded corners*
1,1,$1+$1,$2,$3*
1,1,$1+$1,$4,$5*
1,1,$1+$1,$6,$7*
1,1,$1+$1,$8,$9*
0 Add four rect primitives between the rounded corners*
20,1,$1+$1,$2,$3,$4,$5,0*
20,1,$1+$1,$4,$5,$6,$7,0*
20,1,$1+$1,$6,$7,$8,$9,0*
20,1,$1+$1,$8,$9,$2,$3,0*%
%AMFreePoly0*
4,1,113,0.910744,9.266323,1.280500,9.153152,1.306352,9.140304,1.440175,9.050841,1.683472,8.868326,2.016376,8.609000,2.419021,8.289105,2.871541,7.924883,3.354071,7.532576,3.846745,7.128426,4.329697,6.728675,4.783061,6.349564,5.186972,6.007335,5.521563,5.718231,5.766969,5.498493,5.810252,5.458011,6.038332,5.201987,6.242930,4.909394,6.275919,4.851667,6.311747,4.783167,
6.342566,4.711578,6.368755,4.624343,6.390688,4.508907,6.408745,4.352712,6.423301,4.143204,6.434735,3.867825,6.443422,3.514020,6.449740,3.069232,6.454067,2.520905,6.456779,1.856484,6.458254,1.063411,6.458868,0.129131,6.458998,-0.958912,6.459000,-1.244333,6.458410,-2.419854,6.456503,-3.437235,6.453065,-4.307666,6.447886,-5.042338,6.440754,-5.652441,6.431459,-6.149165,
6.419789,-6.543700,6.405533,-6.847236,6.388480,-7.070963,6.368418,-7.226071,6.345136,-7.323751,6.344203,-7.326428,6.115788,-7.754462,5.766638,-8.142360,5.366349,-8.424821,5.287050,-8.465579,5.204539,-8.499943,5.104334,-8.528520,4.971952,-8.551914,4.792912,-8.570731,4.552732,-8.585578,4.236930,-8.597059,3.831024,-8.605781,3.320532,-8.612349,2.690972,-8.617369,1.927862,-8.621447,
1.016721,-8.625188,0.532333,-8.627006,-0.484902,-8.630133,-1.346437,-8.631144,-2.065900,-8.629739,-2.656914,-8.625616,-3.133104,-8.618478,-3.508097,-8.608022,-3.795516,-8.593951,-4.008987,-8.575963,-4.162135,-8.553759,-4.268585,-8.527039,-4.285985,-8.520936,-4.791336,-8.256810,-5.177989,-7.876842,-5.385581,-7.537743,-5.606000,-7.095419,-5.606000,-1.349238,-5.605926,-0.223472,-5.605445,0.745723,
-5.604178,1.571109,-5.601739,2.265446,-5.597748,2.841499,-5.591821,3.312028,-5.583575,3.689795,-5.572628,3.987563,-5.558597,4.218093,-5.541099,4.394147,-5.519753,4.528487,-5.494174,4.633876,-5.463981,4.723075,-5.428790,4.808846,-5.420783,4.827493,-5.361033,4.951440,-5.282448,5.076612,-5.171246,5.216033,-5.013648,5.382724,-4.795873,5.589709,-4.504142,5.850011,-4.124674,6.176653,
-3.643689,6.582657,-3.047407,7.081048,-2.952624,7.160034,-2.407669,7.610519,-1.891878,8.030196,-1.422509,8.405528,-1.016820,8.722979,-0.692066,8.969010,-0.465507,9.130085,-0.366408,9.188742,0.014236,9.286233,0.464305,9.311388,0.910744,9.266323,0.910744,9.266323,$1*%
%AMFreePoly1*
4,1,114,-0.688221,7.555304,0.214972,7.550460,1.222324,7.544797,2.075043,7.539048,2.787818,7.531431,3.375342,7.520162,3.852304,7.503459,4.233397,7.479540,4.533310,7.446622,4.766736,7.402922,4.948364,7.346658,5.092886,7.276047,5.214993,7.189307,5.329376,7.084655,5.450726,6.960309,5.500118,6.909172,5.603573,6.803405,5.693174,6.705857,5.769867,6.604215,5.834596,6.486164,
5.888308,6.339393,5.931947,6.151588,5.966460,5.910435,5.992792,5.603621,6.011888,5.218832,6.024693,4.743756,6.032154,4.166079,6.035215,3.473488,6.034822,2.653669,6.031921,1.694308,6.027457,0.583094,6.025346,0.068766,6.001666,-5.779469,5.768011,-6.132494,5.645513,-6.272798,5.410289,-6.502478,5.081793,-6.805068,4.679479,-7.164100,4.222799,-7.563108,3.731207,-7.985624,
3.224156,-8.415183,2.721098,-8.835317,2.241487,-9.229559,1.804777,-9.581443,1.430419,-9.874501,1.137868,-10.092267,0.946576,-10.218274,0.932029,-10.226096,0.475440,-10.382021,-0.041326,-10.431313,-0.542700,-10.368573,-0.644667,-10.338793,-0.813868,-10.259485,-1.056765,-10.105757,-1.383617,-9.869885,-1.804686,-9.544151,-2.330231,-9.120832,-2.970513,-8.592208,-3.015334,-8.554863,-3.668836,-8.009451,
-4.204726,-7.559920,-4.635892,-7.194245,-4.975222,-6.900403,-5.235605,-6.666372,-5.429930,-6.480128,-5.571085,-6.329647,-5.671959,-6.202906,-5.745441,-6.087881,-5.804419,-5.972550,-5.820216,-5.938285,-5.850437,-5.863697,-5.876469,-5.774370,-5.898627,-5.657855,-5.917228,-5.501705,-5.932587,-5.293470,-5.945020,-5.020702,-5.954842,-4.670954,-5.962368,-4.231777,-5.967915,-3.690723,-5.971798,-3.035343,
-5.974332,-2.253189,-5.975833,-1.331813,-5.976617,-0.258766,-5.976808,0.238769,-5.977070,1.374482,-5.976846,2.353388,-5.975780,3.188013,-5.973521,3.890883,-5.969714,4.474525,-5.964005,4.951465,-5.956041,5.334229,-5.945468,5.635343,-5.931934,5.867334,-5.915083,6.042728,-5.894563,6.174050,-5.870019,6.273828,-5.841099,6.354588,-5.807449,6.428855,-5.801731,6.440705,-5.618068,6.732068,
-5.380153,7.004547,-5.314898,7.063011,-5.179451,7.171762,-5.046933,7.263932,-4.902824,7.340802,-4.732603,7.403651,-4.521747,7.453759,-4.255737,7.492407,-3.920050,7.520874,-3.500165,7.540441,-2.981561,7.552388,-2.349716,7.557994,-1.590110,7.558539,-0.688221,7.555304,-0.688221,7.555304,$1*%
%AMFreePoly2*
4,1,106,0.754243,10.128935,1.131992,10.007960,1.272974,9.916150,1.525438,9.729114,1.871564,9.460962,2.293528,9.125801,2.773508,8.737742,3.293683,8.310891,3.660864,8.006010,4.357484,7.420234,4.926650,6.931303,5.375231,6.532955,5.710094,6.218926,5.938108,5.982955,6.066142,5.818778,6.073864,5.805801,6.279000,5.447667,6.302460,-0.302080,6.307342,-1.481045,6.310977,-2.503060,
6.312295,-3.380505,6.310222,-4.125764,6.303686,-4.751219,6.291617,-5.269251,6.272940,-5.692243,6.246586,-6.032577,6.211481,-6.302635,6.166554,-6.514800,6.110732,-6.681454,6.042943,-6.814978,5.962116,-6.927755,5.867178,-7.032168,5.757058,-7.140598,5.706091,-7.190248,5.572082,-7.320644,5.447759,-7.431092,5.318493,-7.523221,5.169657,-7.598664,4.986621,-7.659050,4.754757,-7.706011,
4.459436,-7.741178,4.086030,-7.766181,3.619911,-7.782652,3.046449,-7.792221,2.351016,-7.796519,1.518984,-7.797177,0.535724,-7.795826,0.278188,-7.795389,-0.568583,-7.792736,-1.368796,-7.787860,-2.105548,-7.781031,-2.761930,-7.772515,-3.321039,-7.762579,-3.765966,-7.751491,-4.079808,-7.739519,-4.245656,-7.726930,-4.262549,-7.723559,-4.813948,-7.471759,-5.265919,-7.083376,-5.585835,-6.617333,
-5.617303,-6.550680,-5.644421,-6.469106,-5.667588,-6.359954,-5.687199,-6.210565,-5.703652,-6.008279,-5.717343,-5.740439,-5.728669,-5.394386,-5.738027,-4.957461,-5.745814,-4.417005,-5.752426,-3.760361,-5.758262,-2.974868,-5.763716,-2.047870,-5.769187,-0.966706,-5.770308,-0.733000,-5.775508,0.443500,-5.778673,1.463080,-5.779155,2.338147,-5.776307,3.081110,-5.769481,3.704375,-5.758030,4.220351,
-5.741306,4.641445,-5.718662,4.980064,-5.689451,5.248617,-5.653025,5.459510,-5.608738,5.625152,-5.555941,5.757950,-5.493987,5.870312,-5.422229,5.974645,-5.420189,5.977414,-5.298597,6.106903,-5.064081,6.325638,-4.736180,6.617376,-4.334432,6.965876,-3.878375,7.354896,-3.387546,7.768192,-2.881483,8.189523,-2.379725,8.602647,-1.901810,8.991321,-1.467275,9.339304,-1.095658,9.630352,
-0.806498,9.848223,-0.619333,9.976677,-0.588465,9.994102,-0.187014,10.125583,0.284842,10.170723,0.754243,10.128935,0.754243,10.128935,$1*%
%AMFreePoly3*
4,1,104,5.307105,7.559378,5.761876,7.236890,6.113719,6.805639,6.333081,6.303672,6.356203,6.208806,6.374598,6.037024,6.390970,5.714677,6.405313,5.259817,6.417621,4.690497,6.427889,4.024770,6.436111,3.280688,6.442282,2.476304,6.446395,1.629672,6.448447,0.758843,6.448429,-0.118129,6.446338,-0.983191,6.442167,-1.818292,6.435912,-2.605378,6.427565,-3.326396,6.417122,-3.963293,
6.404577,-4.498018,6.389924,-4.912517,6.373158,-5.188737,6.359785,-5.291815,6.254786,-5.605255,6.104316,-5.907845,6.073382,-5.956067,5.961150,-6.080197,5.734847,-6.296723,5.411358,-6.590687,5.007567,-6.947134,4.540358,-7.351107,4.026616,-7.787649,3.641360,-8.110421,2.965870,-8.670219,2.402383,-9.128000,1.934784,-9.492463,1.546954,-9.772307,1.222774,-9.976232,0.946127,-10.112938,
0.700896,-10.191125,0.470961,-10.219491,0.240205,-10.206737,-0.007489,-10.161562,-0.113000,-10.136830,-0.255169,-10.096386,-0.400148,-10.038713,-0.562747,-9.952888,-0.757778,-9.827987,-1.000052,-9.653087,-1.304380,-9.417265,-1.685574,-9.109596,-2.158445,-8.719159,-2.737804,-8.235028,-3.071114,-7.955198,-3.741303,-7.388087,-4.287107,-6.917204,-4.717433,-6.534344,-5.041190,-6.231298,-5.267285,-5.999860,
-5.404625,-5.831823,-5.441780,-5.771000,-5.476028,-5.700560,-5.505546,-5.623449,-5.530743,-5.527081,-5.552027,-5.398865,-5.569807,-5.226216,-5.584493,-4.996544,-5.596492,-4.697262,-5.606214,-4.315783,-5.614067,-3.839518,-5.620460,-3.255880,-5.625802,-2.552280,-5.630502,-1.716132,-5.634968,-0.734846,-5.639232,0.309523,-5.643216,1.634157,-5.643913,2.791773,-5.641297,3.784654,-5.635344,4.615084,
-5.626028,5.285346,-5.613322,5.797724,-5.597202,6.154501,-5.577641,6.357961,-5.571177,6.389155,-5.409116,6.742947,-5.131781,7.104003,-4.783131,7.421979,-4.521443,7.591298,-4.443173,7.631606,-4.361919,7.665565,-4.263288,7.693719,-4.132891,7.716611,-3.956336,7.734786,-3.719231,7.748788,-3.407187,7.759162,-3.005811,7.766451,-2.500712,7.771199,-1.877500,7.773951,-1.121784,7.775251,
-0.219171,7.775642,0.354887,7.775667,4.886774,7.775667,5.307105,7.559378,5.307105,7.559378,$1*%
%AMFreePoly4*
4,1,76,0.341246,10.217832,0.537649,10.143130,0.690553,10.048236,0.953853,9.857540,1.309325,9.585377,1.738744,9.246084,2.223885,8.853996,2.746523,8.423449,3.104762,8.123830,3.747559,7.579890,4.269828,7.130616,4.683378,6.765037,5.000022,6.472179,5.231571,6.241070,5.389837,6.060738,5.486630,5.920210,5.496595,5.901850,5.691333,5.528700,5.689679,-6.086333,5.487950,-6.519575,
5.181050,-6.983822,4.751138,-7.342982,4.358005,-7.531868,4.192489,-7.560104,3.877847,-7.584698,3.434249,-7.605660,2.881861,-7.622996,2.240853,-7.636713,1.531393,-7.646820,0.773648,-7.653324,-0.012211,-7.656232,-0.806018,-7.655552,-1.587603,-7.651291,-2.336799,-7.643458,-3.033436,-7.632059,-3.657347,-7.617103,-4.188363,-7.598596,-4.606316,-7.576546,-4.891038,-7.550961,-5.008206,-7.528361,
-5.487034,-7.275968,-5.897303,-6.902833,-6.137529,-6.553189,-6.331334,-6.186699,-6.329474,-0.336849,-6.329278,0.837584,-6.328761,1.854998,-6.326834,2.727702,-6.322406,3.468009,-6.314388,4.088229,-6.301689,4.600675,-6.283220,5.017656,-6.257889,5.351486,-6.224608,5.614474,-6.182285,5.818933,-6.129832,5.977173,-6.066158,6.101506,-5.990172,6.204243,-5.900785,6.297696,-5.796907,6.394176,
-5.727839,6.458011,-5.456525,6.703737,-5.099735,7.013980,-4.677192,7.372758,-4.208617,7.764089,-3.713731,8.171991,-3.212256,8.580483,-2.723913,8.973582,-2.268423,9.335306,-1.865507,9.649675,-1.534888,9.900705,-1.296285,10.072415,-1.177650,10.145417,-0.698204,10.283676,-0.167776,10.307783,0.341246,10.217832,0.341246,10.217832,$1*%
%AMFreePoly5*
4,1,113,0.271069,11.163226,0.644780,11.045823,0.659063,11.038695,0.802103,10.944882,1.053956,10.758013,1.394356,10.494631,1.803036,10.171280,2.259729,9.804502,2.744169,9.410843,3.236089,9.006844,3.715222,8.609049,4.161301,8.234002,4.554060,7.898247,4.873231,7.618325,5.069820,7.438273,5.311715,7.179306,5.528741,6.897944,5.620153,6.751667,5.655822,6.683732,5.686541,6.612866,
5.712679,6.526615,5.734608,6.412526,5.752695,6.258144,5.767312,6.051017,5.778827,5.778691,5.787611,5.428712,5.794033,4.988626,5.798464,4.445981,5.801272,3.788321,5.802828,3.003195,5.803502,2.078148,5.803663,1.000726,5.803666,0.571000,5.803480,-0.568180,5.802709,-1.550389,5.801035,-2.387985,5.798142,-3.093331,5.793710,-3.678786,5.787422,-4.156711,5.778960,-4.539467,
5.768007,-4.839415,5.754245,-5.068914,5.737355,-5.240327,5.717020,-5.366014,5.692922,-5.458334,5.664744,-5.529650,5.645834,-5.567333,5.284082,-6.076849,4.812281,-6.464541,4.703000,-6.527587,4.625063,-6.567747,4.542870,-6.601607,4.441958,-6.629764,4.307866,-6.652812,4.126130,-6.671347,3.882288,-6.685964,3.561878,-6.697260,3.150438,-6.705828,2.633504,-6.712266,1.996615,-6.717167,
1.225308,-6.721129,0.305120,-6.724745,-0.123000,-6.726282,-1.136743,-6.729270,-1.995024,-6.730233,-2.711709,-6.728854,-3.300660,-6.724820,-3.775742,-6.717815,-4.150818,-6.707523,-4.439753,-6.693630,-4.656410,-6.675821,-4.814652,-6.653780,-4.928345,-6.627192,-4.961453,-6.616298,-5.331921,-6.417923,-5.696367,-6.111819,-5.995399,-5.750960,-6.070700,-5.626887,-6.099749,-5.563881,-6.124886,-5.480528,
-6.146453,-5.364578,-6.164797,-5.203785,-6.180261,-4.985901,-6.193190,-4.698676,-6.203928,-4.329864,-6.212819,-3.867216,-6.220208,-3.298483,-6.226439,-2.611419,-6.231857,-1.793774,-6.236806,-0.833301,-6.241630,0.282248,-6.242433,0.480844,-6.265865,6.317355,-6.046557,6.765605,-5.974361,6.897993,-5.880315,7.034342,-5.750364,7.187861,-5.570450,7.371759,-5.326516,7.599245,-5.004507,7.883528,
-4.590366,8.237815,-4.070035,8.675318,-3.574427,9.088653,-3.032916,9.535742,-2.520590,9.952001,-2.054854,10.323797,-1.653111,10.637495,-1.332769,10.879465,-1.111231,11.036072,-1.020035,11.089455,-0.635535,11.187284,-0.180434,11.211127,0.271069,11.163226,0.271069,11.163226,$1*%
%AMFreePoly6*
4,1,91,2.700279,7.577656,3.474070,7.572526,4.209378,7.563554,4.885428,7.550734,5.481442,7.534068,5.976645,7.513553,6.350260,7.489187,6.581510,7.460968,6.619597,7.451879,7.146262,7.211561,7.564024,6.842176,7.822861,6.443818,8.038666,6.010753,8.036807,0.206543,8.036606,-0.963267,8.036071,-1.976111,8.034100,-2.844354,8.029590,-3.580361,8.021439,-4.196496,8.008545,-4.705126,
7.989806,-5.118615,7.964120,-5.449329,7.930383,-5.709632,7.887495,-5.911890,7.834352,-6.068468,7.769852,-6.191731,7.692894,-6.294044,7.602375,-6.387772,7.497192,-6.485281,7.435172,-6.542676,7.203738,-6.751539,6.880259,-7.032055,6.484547,-7.368039,6.036411,-7.743306,5.555665,-8.141672,5.062118,-8.546953,4.575582,-8.942964,4.115869,-9.313521,3.702789,-9.642438,3.356153,-9.913533,
3.095773,-10.110620,2.941460,-10.217514,2.926696,-10.225815,2.529196,-10.365475,2.065884,-10.430191,1.619918,-10.411825,1.437759,-10.371513,1.154827,-10.255437,0.887426,-10.101933,0.737522,-9.987660,0.483200,-9.783849,0.144268,-9.507116,-0.259465,-9.174081,-0.708193,-8.801360,-1.182107,-8.405573,-1.661399,-8.003338,-2.126260,-7.611272,-2.556884,-7.245994,-2.933463,-6.924122,-3.236187,-6.662274,
-3.445250,-6.477068,-3.535460,-6.391293,-3.620448,-6.298397,-3.693964,-6.209901,-3.756838,-6.113476,-3.809900,-5.996791,-3.853978,-5.847518,-3.889903,-5.653325,-3.918504,-5.401884,-3.940612,-5.080865,-3.957055,-4.677938,-3.968663,-4.180773,-3.976266,-3.577041,-3.980694,-2.854412,-3.982777,-2.000555,-3.983343,-1.003143,-3.983222,0.150156,-3.982411,6.086334,-3.731869,6.523172,-3.418819,6.956058,
-3.036437,7.256378,-2.567413,7.451132,-2.382224,7.480521,-2.048529,7.506081,-1.587105,7.527810,-1.018728,7.545708,-0.364174,7.559772,0.355780,7.570000,1.120358,7.576391,1.908783,7.578944,2.700279,7.577656,2.700279,7.577656,$1*%
%AMFreePoly7*
4,1,105,0.290373,9.990168,0.673302,9.890365,0.809083,9.806991,1.056790,9.627972,1.399006,9.366949,1.818314,9.037564,2.297294,8.653459,2.818529,8.228276,3.229092,7.888653,3.843292,7.376039,4.340193,6.957078,4.733853,6.618563,5.038327,6.347284,5.267673,6.130031,5.435947,5.953597,5.557205,5.804773,5.645505,5.670348,5.701222,5.565605,5.920531,5.117355,5.897098,-0.719156,
5.892749,-1.879441,5.888903,-2.882849,5.884400,-3.741828,5.878074,-4.468824,5.868764,-5.076286,5.855306,-5.576662,5.836536,-5.982399,5.811293,-6.305945,5.778411,-6.559747,5.736730,-6.756254,5.685084,-6.907913,5.622312,-7.027172,5.547250,-7.126479,5.458734,-7.218280,5.355603,-7.315025,5.273482,-7.392944,5.148524,-7.511958,5.028816,-7.612786,4.899857,-7.696908,4.747143,-7.765808,
4.556174,-7.820967,4.312446,-7.863869,4.001459,-7.895994,3.608709,-7.918826,3.119696,-7.933847,2.519916,-7.942538,1.794868,-7.946383,0.930049,-7.946863,-0.089041,-7.945460,-0.131583,-7.945389,-0.977918,-7.942734,-1.777694,-7.937854,-2.513997,-7.931019,-3.169910,-7.922496,-3.728518,-7.912552,-4.172905,-7.901455,-4.486154,-7.889475,-4.651352,-7.876877,-4.667882,-7.873559,-5.219281,-7.621759,
-5.671252,-7.233376,-5.991168,-6.767333,-6.022460,-6.701113,-6.049439,-6.620146,-6.072491,-6.511854,-6.091999,-6.363657,-6.108348,-6.162975,-6.121922,-5.897230,-6.133107,-5.553843,-6.142287,-5.120235,-6.149845,-4.583825,-6.156168,-3.932036,-6.161638,-3.152288,-6.166641,-2.232001,-6.171562,-1.158598,-6.173023,-0.817988,-6.176935,0.418383,-6.177656,1.524083,-6.175241,2.493838,-6.169744,3.322375,
-6.161220,4.004422,-6.149722,4.534705,-6.135305,4.907951,-6.118022,5.118887,-6.111747,5.151802,-6.008298,5.426312,-5.854214,5.724807,-5.803299,5.806457,-5.682582,5.943721,-5.448806,6.169923,-5.121503,6.468670,-4.720203,6.823574,-4.264437,7.218243,-3.773736,7.636286,-3.267630,8.061314,-2.765651,8.476935,-2.287329,8.866759,-1.852195,9.214396,-1.479779,9.503454,-1.189614,9.717544,
-1.001229,9.840274,-0.988814,9.846854,-0.617865,9.967903,-0.166864,10.016319,0.290373,9.990168,0.290373,9.990168,$1*%
%AMFreePoly8*
4,1,109,1.949386,9.308221,2.572511,9.301523,3.083734,9.287579,3.497413,9.264828,3.827904,9.231709,4.089565,9.186661,4.296752,9.128120,4.463824,9.054527,4.605136,8.964319,4.735046,8.855936,4.867911,8.727815,4.909202,8.686588,5.029905,8.565650,5.134236,8.452967,5.223386,8.335871,5.298549,8.201693,5.360918,8.037767,5.411686,7.831424,5.452044,7.569996,5.483187,7.240816,
5.506306,6.831217,5.522595,6.328529,5.533247,5.720087,5.539453,4.993220,5.542408,4.135263,5.543304,3.133547,5.543333,1.952001,5.543075,0.798633,5.541725,-0.198063,5.538418,-1.050748,5.532292,-1.772083,5.522480,-2.374728,5.508119,-2.871346,5.488345,-3.274597,5.462294,-3.597143,5.429101,-3.851643,5.387902,-4.050760,5.337833,-4.207155,5.278029,-4.333487,5.207627,-4.442420,
5.125762,-4.546613,5.097432,-4.580512,4.988224,-4.687518,4.765238,-4.887808,4.445309,-5.166900,4.045272,-5.510310,3.581963,-5.903556,3.072215,-6.332154,2.707489,-6.636539,2.036299,-7.191928,1.476901,-7.645209,1.013234,-8.005305,0.629238,-8.281135,0.308851,-8.481623,0.036012,-8.615689,-0.205339,-8.692254,-0.431263,-8.720240,-0.657822,-8.708568,-0.901076,-8.666160,-0.933667,-8.659096,
-1.089663,-8.616358,-1.254270,-8.549866,-1.442560,-8.448747,-1.669605,-8.302129,-1.950478,-8.099140,-2.300251,-7.828909,-2.733995,-7.480564,-3.266783,-7.043232,-3.882589,-6.531949,-4.497700,-6.018164,-4.995499,-5.598335,-5.389888,-5.259378,-5.694766,-4.988207,-5.924031,-4.771737,-6.091583,-4.596884,-6.211321,-4.450563,-6.297145,-4.319689,-6.358262,-4.201325,-6.562346,-3.763000,-6.562701,1.909667,
-6.561371,3.224624,-6.557220,4.380887,-6.550272,5.376950,-6.540548,6.211308,-6.528071,6.882453,-6.512864,7.388880,-6.494949,7.729084,-6.474348,7.901558,-6.473227,7.905826,-6.312471,8.249086,-6.038299,8.602800,-5.695284,8.916477,-5.426776,9.091298,-5.346357,9.132419,-5.261910,9.167022,-5.158687,9.195765,-5.021942,9.219305,-4.836928,9.238300,-4.588898,9.253407,-4.263107,9.265284,
-3.844806,9.274588,-3.319251,9.281976,-2.671693,9.288106,-1.887387,9.293635,-0.951586,9.299221,-0.734973,9.300460,0.310001,9.306128,1.200001,9.309236,1.949386,9.308221,1.949386,9.308221,$1*%
%AMFreePoly9*
4,1,66,2.988569,10.517112,3.182316,10.443130,3.335219,10.348236,3.598519,10.157540,3.953991,9.885377,4.383410,9.546084,4.868551,9.153996,5.391190,8.723449,5.749428,8.423830,6.392226,7.879890,6.914494,7.430616,7.328045,7.065037,7.644689,6.772179,7.876238,6.541070,8.034503,6.360738,8.131297,6.220210,8.141262,6.201850,8.336000,5.828700,8.331229,-5.871000,8.136747,-6.252000,
7.869562,-6.630247,7.499859,-6.963874,7.087227,-7.203485,6.915695,-7.264138,6.750681,-7.285428,6.423929,-7.303872,5.943014,-7.319330,5.315507,-7.331666,4.548983,-7.340741,3.651016,-7.346418,2.629179,-7.348558,2.282333,-7.348478,1.268762,-7.346873,0.411371,-7.343481,-0.302991,-7.337960,-0.887471,-7.329971,-1.355218,-7.319174,-1.719380,-7.305229,-1.993106,-7.287796,-2.189544,-7.266535,
-2.321843,-7.241106,-2.363539,-7.228361,-2.843259,-6.975571,-3.250253,-6.602616,-3.490407,-6.245396,-3.681897,-5.871000,-3.686667,5.828700,-3.491929,6.201850,-3.403354,6.337346,-3.255081,6.510995,-3.035300,6.733772,-2.732199,7.016649,-2.333966,7.370599,-1.828791,7.806593,-1.204862,8.335606,-1.100096,8.423830,-0.562645,8.871972,-0.050608,9.291158,0.417788,9.667053,0.824320,9.985322,
1.150762,10.231628,1.378890,10.391637,1.467017,10.443130,1.946759,10.583393,2.478016,10.608054,2.988569,10.517112,2.988569,10.517112,$1*%
%AMFreePoly10*
4,1,85,1.499249,9.905470,2.434305,9.900460,3.403414,9.894798,4.217952,9.889359,4.892680,9.883477,5.442356,9.876482,5.881743,9.867710,6.225599,9.856491,6.488685,9.842159,6.685761,9.824047,6.831587,9.801488,6.940923,9.773813,7.028529,9.740357,7.109167,9.700452,7.132402,9.688087,7.505365,9.424310,7.839116,9.072855,8.085697,8.689337,8.165072,8.490652,8.186668,8.359606,
8.205306,8.116089,8.221100,7.753111,8.234165,7.263682,8.244612,6.640812,8.252558,5.877510,8.258114,4.966786,8.261394,3.901648,8.262514,2.675108,8.262506,2.499844,8.261679,-3.163000,8.058224,-3.599966,7.990722,-3.729172,7.901607,-3.861980,7.776841,-4.011634,7.602382,-4.191377,7.364193,-4.414454,7.048232,-4.694108,6.640461,-5.043583,6.126839,-5.476123,5.624885,-5.895370,
5.087557,-6.340721,4.581050,-6.755843,4.122599,-7.126965,3.729439,-7.440316,3.418804,-7.682128,3.207931,-7.838629,3.127125,-7.890973,2.735214,-8.021907,2.268116,-8.075034,1.803527,-8.045344,1.574666,-7.991078,1.423574,-7.922218,1.208580,-7.789132,0.918975,-7.583678,0.544049,-7.297714,0.073093,-6.923098,-0.504602,-6.451689,-1.111444,-5.948924,-1.747459,-5.417209,-2.264591,-4.979576,
-2.675887,-4.623958,-2.994392,-4.338284,-3.233154,-4.110486,-3.405220,-3.928495,-3.523637,-3.780243,-3.601451,-3.653660,-3.609111,-3.638479,-3.801667,-3.247666,-3.801667,8.436334,-3.613624,8.787978,-3.423530,9.068720,-3.179247,9.339081,-3.105624,9.404719,-2.968283,9.515201,-2.834623,9.608845,-2.690101,9.686950,-2.520171,9.750820,-2.310290,9.801756,-2.045913,9.841058,-1.712495,9.870030,
-1.295493,9.889971,-0.780362,9.902185,-0.152558,9.907971,0.602465,9.908632,1.499249,9.905470,1.499249,9.905470,$1*%
%AMFreePoly11*
4,1,109,1.741973,10.862191,2.093131,10.744102,2.256206,10.639109,2.524713,10.440926,2.879310,10.165719,3.300653,9.829650,3.769400,9.448882,4.266208,9.039579,4.771732,8.617905,5.266632,8.200023,5.731562,7.802096,6.147181,7.440288,6.494145,7.130763,6.753111,6.889682,6.904736,6.733211,6.926184,6.705504,6.997483,6.595652,7.059005,6.482580,7.111408,6.353691,7.155350,6.196388,
7.191488,5.998075,7.220479,5.746155,7.242980,5.428031,7.259649,5.031108,7.271144,4.542787,7.278121,3.950473,7.281237,3.241569,7.281151,2.403479,7.278520,1.423605,7.274000,0.289351,7.272999,0.059334,7.267893,-1.058306,7.262830,-2.019221,7.257424,-2.836016,7.251285,-3.521298,7.244026,-4.087676,7.235258,-4.547754,7.224594,-4.914141,7.211644,-5.199442,7.196021,-5.416265,
7.177337,-5.577216,7.155203,-5.694903,7.129231,-5.781932,7.099034,-5.850909,7.090500,-5.867333,6.728749,-6.376849,6.256948,-6.764541,6.147666,-6.827587,6.069729,-6.867747,5.987537,-6.901607,5.886625,-6.929764,5.752533,-6.952812,5.570797,-6.971347,5.326955,-6.985964,5.006545,-6.997260,4.595104,-7.005828,4.078171,-7.012266,3.441281,-7.017167,2.669974,-7.021129,1.749787,-7.024745,
1.321666,-7.026282,0.307924,-7.029270,-0.550358,-7.030233,-1.267042,-7.028854,-1.855993,-7.024820,-2.331075,-7.017815,-2.706152,-7.007523,-2.995086,-6.993630,-3.211743,-6.975821,-3.369986,-6.953780,-3.483678,-6.927192,-3.516787,-6.916298,-3.887254,-6.717923,-4.251700,-6.411819,-4.550733,-6.050960,-4.626033,-5.926887,-4.654817,-5.864900,-4.679637,-5.783715,-4.700785,-5.671173,-4.718551,-5.515111,
-4.733228,-5.303371,-4.745105,-5.023790,-4.754474,-4.664209,-4.761626,-4.212466,-4.766852,-3.656401,-4.770442,-2.983854,-4.772687,-2.182664,-4.773880,-1.240670,-4.774310,-0.145711,-4.774334,0.271000,-4.774334,6.197667,-4.569280,6.555655,-4.452794,6.698795,-4.222760,6.931116,-3.898219,7.236472,-3.498211,7.598715,-3.041777,8.001697,-2.547957,8.429271,-2.035792,8.865291,-1.524323,9.293609,
-1.032589,9.698078,-0.579632,10.062550,-0.184491,10.370879,0.133792,10.606917,0.356176,10.754516,0.422448,10.788868,0.822151,10.892022,1.286694,10.915801,1.741973,10.862191,1.741973,10.862191,$1*%
G04 Aperture macros list end*
%ADD10C,0.000000*%
%ADD11C,2.000000*%
%ADD12C,2.200000*%
%ADD13R,1.830000X1.930000*%
%ADD14C,2.130000*%
%ADD15R,1.500000X1.500000*%
%ADD16C,1.500000*%
%ADD17C,1.600000*%
%ADD18R,1.800000X1.800000*%
%ADD19C,1.800000*%
%ADD20RoundRect,0.250000X-0.550000X0.550000X-0.550000X-0.550000X0.550000X-0.550000X0.550000X0.550000X0*%
%ADD21RoundRect,0.250000X-0.550000X-0.550000X0.550000X-0.550000X0.550000X0.550000X-0.550000X0.550000X0*%
%ADD22C,0.700000*%
%ADD23O,0.900000X2.400000*%
%ADD24O,0.900000X1.700000*%
%ADD25O,2.720000X3.240000*%
%ADD26RoundRect,0.250000X0.550000X-0.550000X0.550000X0.550000X-0.550000X0.550000X-0.550000X-0.550000X0*%
%ADD27FreePoly0,0.000000*%
%ADD28FreePoly1,0.000000*%
%ADD29FreePoly2,0.000000*%
%ADD30FreePoly3,0.000000*%
%ADD31FreePoly4,0.000000*%
%ADD32FreePoly5,0.000000*%
%ADD33FreePoly6,0.000000*%
%ADD34FreePoly7,0.000000*%
%ADD35FreePoly8,0.000000*%
%ADD36FreePoly9,0.000000*%
%ADD37FreePoly10,0.000000*%
%ADD38FreePoly11,0.000000*%
%ADD39R,1.700000X1.700000*%
%ADD40C,1.700000*%
G04 APERTURE END LIST*
D10*
%TO.C,J1*%
G36*
X130326821Y-127737888D02*
G01*
X130520568Y-127811870D01*
X130673471Y-127906764D01*
X130936771Y-128097460D01*
X131292243Y-128369623D01*
X131721662Y-128708916D01*
X132206803Y-129101004D01*
X132729442Y-129531551D01*
X133087680Y-129831170D01*
X133730478Y-130375110D01*
X134252746Y-130824384D01*
X134666297Y-131189963D01*
X134982941Y-131482821D01*
X135214490Y-131713930D01*
X135372755Y-131894262D01*
X135469549Y-132034790D01*
X135479514Y-132053150D01*
X135674252Y-132426300D01*
X135671866Y-138276150D01*
X135669481Y-144126000D01*
X135474999Y-144507000D01*
X135207814Y-144885247D01*
X134838111Y-145218874D01*
X134425479Y-145458485D01*
X134253947Y-145519138D01*
X134088933Y-145540428D01*
X133762181Y-145558872D01*
X133281266Y-145574330D01*
X132653759Y-145586666D01*
X131887235Y-145595741D01*
X130989268Y-145601418D01*
X129967431Y-145603558D01*
X129620585Y-145603478D01*
X128607014Y-145601873D01*
X127749623Y-145598481D01*
X127035261Y-145592960D01*
X126450781Y-145584971D01*
X125983034Y-145574174D01*
X125618872Y-145560229D01*
X125345146Y-145542796D01*
X125148708Y-145521535D01*
X125016409Y-145496106D01*
X124974713Y-145483361D01*
X124494993Y-145230571D01*
X124087999Y-144857616D01*
X123847845Y-144500396D01*
X123656355Y-144126000D01*
X123653970Y-138276150D01*
X123651585Y-132426300D01*
X123846323Y-132053150D01*
X123934898Y-131917654D01*
X124083171Y-131744005D01*
X124302952Y-131521228D01*
X124606053Y-131238351D01*
X125004286Y-130884401D01*
X125509461Y-130448407D01*
X126133390Y-129919394D01*
X126238156Y-129831170D01*
X126775607Y-129383028D01*
X127287644Y-128963842D01*
X127756040Y-128587947D01*
X128162572Y-128269678D01*
X128489014Y-128023372D01*
X128717142Y-127863363D01*
X128805269Y-127811870D01*
X129285011Y-127671607D01*
X129816268Y-127646946D01*
X130326821Y-127737888D01*
G37*
G36*
X88329498Y-127737168D02*
G01*
X88525901Y-127811870D01*
X88678805Y-127906764D01*
X88942105Y-128097460D01*
X89297577Y-128369623D01*
X89726996Y-128708916D01*
X90212137Y-129101004D01*
X90734775Y-129531551D01*
X91093014Y-129831170D01*
X91735811Y-130375110D01*
X92258080Y-130824384D01*
X92671630Y-131189963D01*
X92988274Y-131482821D01*
X93219823Y-131713930D01*
X93378089Y-131894262D01*
X93474882Y-132034790D01*
X93484847Y-132053150D01*
X93679585Y-132426300D01*
X93678758Y-138233816D01*
X93677931Y-144041333D01*
X93476202Y-144474575D01*
X93169302Y-144938822D01*
X92739390Y-145297982D01*
X92346257Y-145486868D01*
X92180741Y-145515104D01*
X91866099Y-145539698D01*
X91422501Y-145560660D01*
X90870113Y-145577996D01*
X90229105Y-145591713D01*
X89519645Y-145601820D01*
X88761900Y-145608324D01*
X87976041Y-145611232D01*
X87182234Y-145610552D01*
X86400649Y-145606291D01*
X85651453Y-145598458D01*
X84954816Y-145587059D01*
X84330905Y-145572103D01*
X83799889Y-145553596D01*
X83381936Y-145531546D01*
X83097214Y-145505961D01*
X82980046Y-145483361D01*
X82501218Y-145230968D01*
X82090949Y-144857833D01*
X81850723Y-144508189D01*
X81656918Y-144141699D01*
X81658778Y-138291849D01*
X81658974Y-137117416D01*
X81659491Y-136100002D01*
X81661418Y-135227298D01*
X81665846Y-134486991D01*
X81673864Y-133866771D01*
X81686563Y-133354325D01*
X81705032Y-132937344D01*
X81730363Y-132603514D01*
X81763644Y-132340526D01*
X81805967Y-132136067D01*
X81858420Y-131977827D01*
X81922094Y-131853494D01*
X81998080Y-131750757D01*
X82087467Y-131657304D01*
X82191345Y-131560824D01*
X82260413Y-131496989D01*
X82531727Y-131251263D01*
X82888517Y-130941020D01*
X83311060Y-130582242D01*
X83779635Y-130190911D01*
X84274521Y-129783009D01*
X84775996Y-129374517D01*
X85264339Y-128981418D01*
X85719829Y-128619694D01*
X86122745Y-128305325D01*
X86453364Y-128054295D01*
X86691967Y-127882585D01*
X86810602Y-127809583D01*
X87290048Y-127671324D01*
X87820476Y-127647217D01*
X88329498Y-127737168D01*
G37*
G36*
X135937501Y-111499530D02*
G01*
X136872557Y-111504540D01*
X137841666Y-111510202D01*
X138656204Y-111515641D01*
X139330932Y-111521523D01*
X139880608Y-111528518D01*
X140319995Y-111537290D01*
X140663851Y-111548509D01*
X140926937Y-111562841D01*
X141124013Y-111580953D01*
X141269839Y-111603512D01*
X141379175Y-111631187D01*
X141466781Y-111664643D01*
X141547419Y-111704548D01*
X141570654Y-111716913D01*
X141943617Y-111980690D01*
X142277368Y-112332145D01*
X142523949Y-112715663D01*
X142603324Y-112914348D01*
X142624920Y-113045394D01*
X142643558Y-113288911D01*
X142659352Y-113651889D01*
X142672417Y-114141318D01*
X142682864Y-114764188D01*
X142690810Y-115527490D01*
X142696366Y-116438214D01*
X142699646Y-117503352D01*
X142700766Y-118729892D01*
X142700758Y-118905156D01*
X142699931Y-124568000D01*
X142496476Y-125004966D01*
X142428974Y-125134172D01*
X142339859Y-125266980D01*
X142215093Y-125416634D01*
X142040634Y-125596377D01*
X141802445Y-125819454D01*
X141486484Y-126099108D01*
X141078713Y-126448583D01*
X140565091Y-126881123D01*
X140063137Y-127300370D01*
X139525809Y-127745721D01*
X139019302Y-128160843D01*
X138560851Y-128531965D01*
X138167691Y-128845316D01*
X137857056Y-129087128D01*
X137646183Y-129243629D01*
X137565377Y-129295973D01*
X137173466Y-129426907D01*
X136706368Y-129480034D01*
X136241779Y-129450344D01*
X136012918Y-129396078D01*
X135861826Y-129327218D01*
X135646832Y-129194132D01*
X135357227Y-128988678D01*
X134982301Y-128702714D01*
X134511345Y-128328098D01*
X133933650Y-127856689D01*
X133326808Y-127353924D01*
X132690793Y-126822209D01*
X132173661Y-126384576D01*
X131762365Y-126028958D01*
X131443860Y-125743284D01*
X131205098Y-125515486D01*
X131033032Y-125333495D01*
X130914615Y-125185243D01*
X130836801Y-125058660D01*
X130829141Y-125043479D01*
X130636585Y-124652666D01*
X130636585Y-118810666D01*
X130636585Y-112968666D01*
X130824628Y-112617022D01*
X131014722Y-112336280D01*
X131259005Y-112065919D01*
X131332628Y-112000281D01*
X131469969Y-111889799D01*
X131603629Y-111796155D01*
X131748151Y-111718050D01*
X131918081Y-111654180D01*
X132127962Y-111603244D01*
X132392339Y-111563942D01*
X132725757Y-111534970D01*
X133142759Y-111515029D01*
X133657890Y-111502815D01*
X134285694Y-111497029D01*
X135040717Y-111496368D01*
X135937501Y-111499530D01*
G37*
G36*
X109338531Y-111477344D02*
G01*
X110112322Y-111482474D01*
X110847630Y-111491446D01*
X111523680Y-111504266D01*
X112119694Y-111520932D01*
X112614897Y-111541447D01*
X112988512Y-111565813D01*
X113219762Y-111594032D01*
X113257849Y-111603121D01*
X113784514Y-111843439D01*
X114202276Y-112212824D01*
X114461113Y-112611182D01*
X114676918Y-113044247D01*
X114675059Y-118848457D01*
X114674858Y-120018267D01*
X114674323Y-121031111D01*
X114672352Y-121899354D01*
X114667842Y-122635361D01*
X114659691Y-123251496D01*
X114646797Y-123760126D01*
X114628058Y-124173615D01*
X114602372Y-124504329D01*
X114568635Y-124764632D01*
X114525747Y-124966890D01*
X114472604Y-125123468D01*
X114408104Y-125246731D01*
X114331146Y-125349044D01*
X114240627Y-125442772D01*
X114135444Y-125540281D01*
X114073424Y-125597676D01*
X113841990Y-125806539D01*
X113518511Y-126087055D01*
X113122799Y-126423039D01*
X112674663Y-126798306D01*
X112193917Y-127196672D01*
X111700370Y-127601953D01*
X111213834Y-127997964D01*
X110754121Y-128368521D01*
X110341041Y-128697438D01*
X109994405Y-128968533D01*
X109734025Y-129165620D01*
X109579712Y-129272514D01*
X109564948Y-129280815D01*
X109167448Y-129420475D01*
X108704136Y-129485191D01*
X108258170Y-129466825D01*
X108076011Y-129426513D01*
X107793079Y-129310437D01*
X107525678Y-129156933D01*
X107375774Y-129042660D01*
X107121452Y-128838849D01*
X106782520Y-128562116D01*
X106378787Y-128229081D01*
X105930059Y-127856360D01*
X105456145Y-127460573D01*
X104976853Y-127058338D01*
X104511992Y-126666272D01*
X104081368Y-126300994D01*
X103704789Y-125979122D01*
X103402065Y-125717274D01*
X103193002Y-125532068D01*
X103102792Y-125446293D01*
X103017804Y-125353397D01*
X102944288Y-125264901D01*
X102881414Y-125168476D01*
X102828352Y-125051791D01*
X102784274Y-124902518D01*
X102748349Y-124708325D01*
X102719748Y-124456884D01*
X102697640Y-124135865D01*
X102681197Y-123732938D01*
X102669589Y-123235773D01*
X102661986Y-122632041D01*
X102657558Y-121909412D01*
X102655475Y-121055555D01*
X102654909Y-120058143D01*
X102655030Y-118904844D01*
X102655046Y-118792219D01*
X102655841Y-112968666D01*
X102906383Y-112531828D01*
X103219433Y-112098942D01*
X103601815Y-111798622D01*
X104070839Y-111603868D01*
X104256028Y-111574479D01*
X104589723Y-111548919D01*
X105051147Y-111527190D01*
X105619524Y-111509292D01*
X106274078Y-111495228D01*
X106994032Y-111485000D01*
X107758610Y-111478609D01*
X108547035Y-111476056D01*
X109338531Y-111477344D01*
G37*
G36*
X85595357Y-111745622D02*
G01*
X86050128Y-112068110D01*
X86401971Y-112499361D01*
X86621333Y-113001328D01*
X86644455Y-113096194D01*
X86662850Y-113267976D01*
X86679222Y-113590323D01*
X86693565Y-114045183D01*
X86705873Y-114614503D01*
X86716141Y-115280230D01*
X86724363Y-116024312D01*
X86730534Y-116828696D01*
X86734647Y-117675328D01*
X86736699Y-118546157D01*
X86736681Y-119423129D01*
X86734590Y-120288191D01*
X86730419Y-121123292D01*
X86724164Y-121910378D01*
X86715817Y-122631396D01*
X86705374Y-123268293D01*
X86692829Y-123803018D01*
X86678176Y-124217517D01*
X86661410Y-124493737D01*
X86648037Y-124596815D01*
X86543038Y-124910255D01*
X86392568Y-125212845D01*
X86361634Y-125261067D01*
X86249402Y-125385197D01*
X86023099Y-125601723D01*
X85699610Y-125895687D01*
X85295819Y-126252134D01*
X84828610Y-126656107D01*
X84314868Y-127092649D01*
X83929612Y-127415421D01*
X83254122Y-127975219D01*
X82690635Y-128433000D01*
X82223036Y-128797463D01*
X81835206Y-129077307D01*
X81511026Y-129281232D01*
X81234379Y-129417938D01*
X80989148Y-129496125D01*
X80759213Y-129524491D01*
X80528457Y-129511737D01*
X80280763Y-129466562D01*
X80175252Y-129441830D01*
X80033083Y-129401386D01*
X79888104Y-129343713D01*
X79725505Y-129257888D01*
X79530474Y-129132987D01*
X79288200Y-128958087D01*
X78983872Y-128722265D01*
X78602678Y-128414596D01*
X78129807Y-128024159D01*
X77550448Y-127540028D01*
X77217138Y-127260198D01*
X76546949Y-126693087D01*
X76001145Y-126222204D01*
X75570819Y-125839344D01*
X75247062Y-125536298D01*
X75020967Y-125304860D01*
X74883627Y-125136823D01*
X74846472Y-125076000D01*
X74812224Y-125005560D01*
X74782706Y-124928449D01*
X74757509Y-124832081D01*
X74736225Y-124703865D01*
X74718445Y-124531216D01*
X74703759Y-124301544D01*
X74691760Y-124002262D01*
X74682038Y-123620783D01*
X74674185Y-123144518D01*
X74667792Y-122560880D01*
X74662450Y-121857280D01*
X74657750Y-121021132D01*
X74653284Y-120039846D01*
X74649020Y-118995477D01*
X74645036Y-117670843D01*
X74644339Y-116513227D01*
X74646955Y-115520346D01*
X74652908Y-114689916D01*
X74662224Y-114019654D01*
X74674930Y-113507276D01*
X74691050Y-113150499D01*
X74710611Y-112947039D01*
X74717075Y-112915845D01*
X74879136Y-112562053D01*
X75156471Y-112200997D01*
X75505121Y-111883021D01*
X75766809Y-111713702D01*
X75845079Y-111673394D01*
X75926333Y-111639435D01*
X76024964Y-111611281D01*
X76155361Y-111588389D01*
X76331916Y-111570214D01*
X76569021Y-111556212D01*
X76881065Y-111545838D01*
X77282441Y-111538549D01*
X77787540Y-111533801D01*
X78410752Y-111531049D01*
X79166468Y-111529749D01*
X80069081Y-111529358D01*
X80643139Y-111529333D01*
X85175026Y-111529333D01*
X85595357Y-111745622D01*
G37*
G36*
X116078625Y-127664832D02*
G01*
X116461554Y-127764635D01*
X116597335Y-127848009D01*
X116845042Y-128027028D01*
X117187258Y-128288051D01*
X117606566Y-128617436D01*
X118085546Y-129001541D01*
X118606781Y-129426724D01*
X119017344Y-129766347D01*
X119631544Y-130278961D01*
X120128445Y-130697922D01*
X120522105Y-131036437D01*
X120826579Y-131307716D01*
X121055925Y-131524969D01*
X121224199Y-131701403D01*
X121345457Y-131850227D01*
X121433757Y-131984652D01*
X121489474Y-132089395D01*
X121708783Y-132537645D01*
X121685350Y-138374156D01*
X121681001Y-139534441D01*
X121677155Y-140537849D01*
X121672652Y-141396828D01*
X121666326Y-142123824D01*
X121657016Y-142731286D01*
X121643558Y-143231662D01*
X121624788Y-143637399D01*
X121599545Y-143960945D01*
X121566663Y-144214747D01*
X121524982Y-144411254D01*
X121473336Y-144562913D01*
X121410564Y-144682172D01*
X121335502Y-144781479D01*
X121246986Y-144873280D01*
X121143855Y-144970025D01*
X121061734Y-145047944D01*
X120936776Y-145166958D01*
X120817068Y-145267786D01*
X120688109Y-145351908D01*
X120535395Y-145420808D01*
X120344426Y-145475967D01*
X120100698Y-145518869D01*
X119789711Y-145550994D01*
X119396961Y-145573826D01*
X118907948Y-145588847D01*
X118308168Y-145597538D01*
X117583120Y-145601383D01*
X116718301Y-145601863D01*
X115699211Y-145600460D01*
X115656669Y-145600389D01*
X114810334Y-145597734D01*
X114010558Y-145592854D01*
X113274255Y-145586019D01*
X112618342Y-145577496D01*
X112059734Y-145567552D01*
X111615347Y-145556455D01*
X111302098Y-145544475D01*
X111136900Y-145531877D01*
X111120370Y-145528559D01*
X110568971Y-145276759D01*
X110117000Y-144888376D01*
X109797084Y-144422333D01*
X109765792Y-144356113D01*
X109738813Y-144275146D01*
X109715761Y-144166854D01*
X109696253Y-144018657D01*
X109679904Y-143817975D01*
X109666330Y-143552230D01*
X109655145Y-143208843D01*
X109645965Y-142775235D01*
X109638407Y-142238825D01*
X109632084Y-141587036D01*
X109626614Y-140807288D01*
X109621611Y-139887001D01*
X109616690Y-138813598D01*
X109615229Y-138472988D01*
X109611317Y-137236617D01*
X109610596Y-136130917D01*
X109613011Y-135161162D01*
X109618508Y-134332625D01*
X109627032Y-133650578D01*
X109638530Y-133120295D01*
X109652947Y-132747049D01*
X109670230Y-132536113D01*
X109676505Y-132503198D01*
X109779954Y-132228688D01*
X109934038Y-131930193D01*
X109984953Y-131848543D01*
X110105670Y-131711279D01*
X110339446Y-131485077D01*
X110666749Y-131186330D01*
X111068049Y-130831426D01*
X111523815Y-130436757D01*
X112014516Y-130018714D01*
X112520622Y-129593686D01*
X113022601Y-129178065D01*
X113500923Y-128788241D01*
X113936057Y-128440604D01*
X114308473Y-128151546D01*
X114598638Y-127937456D01*
X114787023Y-127814726D01*
X114799438Y-127808146D01*
X115170387Y-127687097D01*
X115621388Y-127638681D01*
X116078625Y-127664832D01*
G37*
G36*
X74142495Y-127676065D02*
G01*
X74520244Y-127797040D01*
X74661226Y-127888850D01*
X74913690Y-128075886D01*
X75259816Y-128344038D01*
X75681780Y-128679199D01*
X76161760Y-129067258D01*
X76681935Y-129494109D01*
X77049116Y-129798990D01*
X77745736Y-130384766D01*
X78314902Y-130873697D01*
X78763483Y-131272045D01*
X79098346Y-131586074D01*
X79326360Y-131822045D01*
X79454394Y-131986222D01*
X79462116Y-131999199D01*
X79667252Y-132357333D01*
X79690712Y-138107080D01*
X79695594Y-139286045D01*
X79699229Y-140308060D01*
X79700547Y-141185505D01*
X79698474Y-141930764D01*
X79691938Y-142556219D01*
X79679869Y-143074251D01*
X79661192Y-143497243D01*
X79634838Y-143837577D01*
X79599733Y-144107635D01*
X79554806Y-144319800D01*
X79498984Y-144486454D01*
X79431195Y-144619978D01*
X79350368Y-144732755D01*
X79255430Y-144837168D01*
X79145310Y-144945598D01*
X79094343Y-144995248D01*
X78960334Y-145125644D01*
X78836011Y-145236092D01*
X78706745Y-145328221D01*
X78557909Y-145403664D01*
X78374873Y-145464050D01*
X78143009Y-145511011D01*
X77847688Y-145546178D01*
X77474282Y-145571181D01*
X77008163Y-145587652D01*
X76434701Y-145597221D01*
X75739268Y-145601519D01*
X74907236Y-145602177D01*
X73923976Y-145600826D01*
X73666440Y-145600389D01*
X72819669Y-145597736D01*
X72019456Y-145592860D01*
X71282704Y-145586031D01*
X70626322Y-145577515D01*
X70067213Y-145567579D01*
X69622286Y-145556491D01*
X69308444Y-145544519D01*
X69142596Y-145531930D01*
X69125703Y-145528559D01*
X68574304Y-145276759D01*
X68122333Y-144888376D01*
X67802417Y-144422333D01*
X67770949Y-144355680D01*
X67743831Y-144274106D01*
X67720664Y-144164954D01*
X67701053Y-144015565D01*
X67684600Y-143813279D01*
X67670909Y-143545439D01*
X67659583Y-143199386D01*
X67650225Y-142762461D01*
X67642438Y-142222005D01*
X67635826Y-141565361D01*
X67629990Y-140779868D01*
X67624536Y-139852870D01*
X67619065Y-138771706D01*
X67617944Y-138538000D01*
X67612744Y-137361500D01*
X67609579Y-136341920D01*
X67609097Y-135466853D01*
X67611945Y-134723890D01*
X67618771Y-134100625D01*
X67630222Y-133584649D01*
X67646946Y-133163555D01*
X67669590Y-132824936D01*
X67698801Y-132556383D01*
X67735227Y-132345490D01*
X67779514Y-132179848D01*
X67832311Y-132047050D01*
X67894265Y-131934688D01*
X67966023Y-131830355D01*
X67968063Y-131827586D01*
X68089655Y-131698097D01*
X68324171Y-131479362D01*
X68652072Y-131187624D01*
X69053820Y-130839124D01*
X69509877Y-130450104D01*
X70000706Y-130036808D01*
X70506769Y-129615477D01*
X71008527Y-129202353D01*
X71486442Y-128813679D01*
X71920977Y-128465696D01*
X72292594Y-128174648D01*
X72581754Y-127956777D01*
X72768919Y-127828323D01*
X72799787Y-127810898D01*
X73201238Y-127679417D01*
X73673094Y-127634277D01*
X74142495Y-127676065D01*
G37*
G36*
X144180225Y-127692809D02*
G01*
X144531383Y-127810898D01*
X144694458Y-127915891D01*
X144962965Y-128114074D01*
X145317562Y-128389281D01*
X145738905Y-128725350D01*
X146207652Y-129106118D01*
X146704460Y-129515421D01*
X147209984Y-129937095D01*
X147704884Y-130354977D01*
X148169814Y-130752904D01*
X148585433Y-131114712D01*
X148932397Y-131424237D01*
X149191363Y-131665318D01*
X149342988Y-131821789D01*
X149364436Y-131849496D01*
X149435735Y-131959348D01*
X149497257Y-132072420D01*
X149549660Y-132201309D01*
X149593602Y-132358612D01*
X149629740Y-132556925D01*
X149658731Y-132808845D01*
X149681232Y-133126969D01*
X149697901Y-133523892D01*
X149709396Y-134012213D01*
X149716373Y-134604527D01*
X149719489Y-135313431D01*
X149719403Y-136151521D01*
X149716772Y-137131395D01*
X149712252Y-138265649D01*
X149711251Y-138495666D01*
X149706145Y-139613306D01*
X149701082Y-140574221D01*
X149695676Y-141391016D01*
X149689537Y-142076298D01*
X149682278Y-142642676D01*
X149673510Y-143102754D01*
X149662846Y-143469141D01*
X149649896Y-143754442D01*
X149634273Y-143971265D01*
X149615589Y-144132216D01*
X149593455Y-144249903D01*
X149567483Y-144336932D01*
X149537286Y-144405909D01*
X149528752Y-144422333D01*
X149167001Y-144931849D01*
X148695200Y-145319541D01*
X148585918Y-145382587D01*
X148507981Y-145422747D01*
X148425789Y-145456607D01*
X148324877Y-145484764D01*
X148190785Y-145507812D01*
X148009049Y-145526347D01*
X147765207Y-145540964D01*
X147444797Y-145552260D01*
X147033356Y-145560828D01*
X146516423Y-145567266D01*
X145879533Y-145572167D01*
X145108226Y-145576129D01*
X144188039Y-145579745D01*
X143759918Y-145581282D01*
X142746176Y-145584270D01*
X141887894Y-145585233D01*
X141171210Y-145583854D01*
X140582259Y-145579820D01*
X140107177Y-145572815D01*
X139732100Y-145562523D01*
X139443166Y-145548630D01*
X139226509Y-145530821D01*
X139068266Y-145508780D01*
X138954574Y-145482192D01*
X138921465Y-145471298D01*
X138550998Y-145272923D01*
X138186552Y-144966819D01*
X137887519Y-144605960D01*
X137812219Y-144481887D01*
X137783435Y-144419900D01*
X137758615Y-144338715D01*
X137737467Y-144226173D01*
X137719701Y-144070111D01*
X137705024Y-143858371D01*
X137693147Y-143578790D01*
X137683778Y-143219209D01*
X137676626Y-142767466D01*
X137671400Y-142211401D01*
X137667810Y-141538854D01*
X137665565Y-140737664D01*
X137664372Y-139795670D01*
X137663942Y-138700711D01*
X137663918Y-138284000D01*
X137663918Y-132357333D01*
X137868972Y-131999345D01*
X137985458Y-131856205D01*
X138215492Y-131623884D01*
X138540033Y-131318528D01*
X138940041Y-130956285D01*
X139396475Y-130553303D01*
X139890295Y-130125729D01*
X140402460Y-129689709D01*
X140913929Y-129261391D01*
X141405663Y-128856922D01*
X141858620Y-128492450D01*
X142253761Y-128184121D01*
X142572044Y-127948083D01*
X142794428Y-127800484D01*
X142860700Y-127766132D01*
X143260403Y-127662978D01*
X143724946Y-127639199D01*
X144180225Y-127692809D01*
G37*
G36*
X125137638Y-111496779D02*
G01*
X125760763Y-111503477D01*
X126271986Y-111517421D01*
X126685665Y-111540172D01*
X127016156Y-111573291D01*
X127277817Y-111618339D01*
X127485004Y-111676880D01*
X127652076Y-111750473D01*
X127793388Y-111840681D01*
X127923298Y-111949064D01*
X128056163Y-112077185D01*
X128097454Y-112118412D01*
X128218157Y-112239350D01*
X128322488Y-112352033D01*
X128411638Y-112469129D01*
X128486801Y-112603307D01*
X128549170Y-112767233D01*
X128599938Y-112973576D01*
X128640296Y-113235004D01*
X128671439Y-113564184D01*
X128694558Y-113973783D01*
X128710847Y-114476471D01*
X128721499Y-115084913D01*
X128727705Y-115811780D01*
X128730660Y-116669737D01*
X128731556Y-117671453D01*
X128731585Y-118829595D01*
X128731585Y-118852999D01*
X128731327Y-120006367D01*
X128729977Y-121003063D01*
X128726670Y-121855748D01*
X128720544Y-122577083D01*
X128710732Y-123179728D01*
X128696371Y-123676346D01*
X128676597Y-124079597D01*
X128650546Y-124402143D01*
X128617353Y-124656643D01*
X128576154Y-124855760D01*
X128526085Y-125012155D01*
X128466281Y-125138487D01*
X128395879Y-125247420D01*
X128314014Y-125351613D01*
X128285684Y-125385512D01*
X128176476Y-125492518D01*
X127953490Y-125692808D01*
X127633561Y-125971900D01*
X127233524Y-126315310D01*
X126770215Y-126708556D01*
X126260467Y-127137154D01*
X125895741Y-127441539D01*
X125224551Y-127996928D01*
X124665153Y-128450209D01*
X124201486Y-128810305D01*
X123817490Y-129086135D01*
X123497103Y-129286623D01*
X123224264Y-129420689D01*
X122982913Y-129497254D01*
X122756989Y-129525240D01*
X122530430Y-129513568D01*
X122287176Y-129471160D01*
X122254585Y-129464096D01*
X122098589Y-129421358D01*
X121933982Y-129354866D01*
X121745692Y-129253747D01*
X121518647Y-129107129D01*
X121237774Y-128904140D01*
X120888001Y-128633909D01*
X120454257Y-128285564D01*
X119921469Y-127848232D01*
X119305663Y-127336949D01*
X118690552Y-126823164D01*
X118192753Y-126403335D01*
X117798364Y-126064378D01*
X117493486Y-125793207D01*
X117264221Y-125576737D01*
X117096669Y-125401884D01*
X116976931Y-125255563D01*
X116891107Y-125124689D01*
X116829990Y-125006325D01*
X116625906Y-124568000D01*
X116625551Y-118895333D01*
X116626881Y-117580376D01*
X116631032Y-116424113D01*
X116637980Y-115428050D01*
X116647704Y-114593692D01*
X116660181Y-113922547D01*
X116675388Y-113416120D01*
X116693303Y-113075916D01*
X116713904Y-112903442D01*
X116715025Y-112899174D01*
X116875781Y-112555914D01*
X117149953Y-112202200D01*
X117492968Y-111888523D01*
X117761476Y-111713702D01*
X117841895Y-111672581D01*
X117926342Y-111637978D01*
X118029565Y-111609235D01*
X118166310Y-111585695D01*
X118351324Y-111566700D01*
X118599354Y-111551593D01*
X118925145Y-111539716D01*
X119343446Y-111530412D01*
X119869001Y-111523024D01*
X120516559Y-111516894D01*
X121300865Y-111511365D01*
X122236666Y-111505779D01*
X122453279Y-111504540D01*
X123498253Y-111498872D01*
X124388253Y-111495764D01*
X125137638Y-111496779D01*
G37*
G36*
X60148996Y-127688677D02*
G01*
X60518752Y-127801848D01*
X60544604Y-127814696D01*
X60678427Y-127904159D01*
X60921724Y-128086674D01*
X61254628Y-128346000D01*
X61657273Y-128665895D01*
X62109793Y-129030117D01*
X62592323Y-129422424D01*
X63084997Y-129826574D01*
X63567949Y-130226325D01*
X64021313Y-130605436D01*
X64425224Y-130947665D01*
X64759815Y-131236769D01*
X65005221Y-131456507D01*
X65048504Y-131496989D01*
X65276584Y-131753013D01*
X65481182Y-132045606D01*
X65514171Y-132103333D01*
X65549999Y-132171833D01*
X65580818Y-132243422D01*
X65607007Y-132330657D01*
X65628940Y-132446093D01*
X65646997Y-132602288D01*
X65661553Y-132811796D01*
X65672987Y-133087175D01*
X65681674Y-133440980D01*
X65687992Y-133885768D01*
X65692319Y-134434095D01*
X65695031Y-135098516D01*
X65696506Y-135891589D01*
X65697120Y-136825869D01*
X65697250Y-137913912D01*
X65697252Y-138199333D01*
X65696662Y-139374854D01*
X65694755Y-140392235D01*
X65691317Y-141262666D01*
X65686138Y-141997338D01*
X65679006Y-142607441D01*
X65669711Y-143104165D01*
X65658041Y-143498700D01*
X65643785Y-143802236D01*
X65626732Y-144025963D01*
X65606670Y-144181071D01*
X65583388Y-144278751D01*
X65582455Y-144281428D01*
X65354040Y-144709462D01*
X65004890Y-145097360D01*
X64604601Y-145379821D01*
X64525302Y-145420579D01*
X64442791Y-145454943D01*
X64342586Y-145483520D01*
X64210204Y-145506914D01*
X64031164Y-145525731D01*
X63790984Y-145540578D01*
X63475182Y-145552059D01*
X63069276Y-145560781D01*
X62558784Y-145567349D01*
X61929224Y-145572369D01*
X61166114Y-145576447D01*
X60254973Y-145580188D01*
X59770585Y-145582006D01*
X58753350Y-145585133D01*
X57891815Y-145586144D01*
X57172352Y-145584739D01*
X56581338Y-145580616D01*
X56105148Y-145573478D01*
X55730155Y-145563022D01*
X55442736Y-145548951D01*
X55229265Y-145530963D01*
X55076117Y-145508759D01*
X54969667Y-145482039D01*
X54952267Y-145475936D01*
X54446916Y-145211810D01*
X54060263Y-144831842D01*
X53852671Y-144492743D01*
X53632252Y-144050419D01*
X53632252Y-138304238D01*
X53632326Y-137178472D01*
X53632807Y-136209277D01*
X53634074Y-135383891D01*
X53636513Y-134689554D01*
X53640504Y-134113501D01*
X53646431Y-133642972D01*
X53654677Y-133265205D01*
X53665624Y-132967437D01*
X53679655Y-132736907D01*
X53697153Y-132560853D01*
X53718499Y-132426513D01*
X53744078Y-132321124D01*
X53774271Y-132231925D01*
X53809462Y-132146154D01*
X53817469Y-132127507D01*
X53877219Y-132003560D01*
X53955804Y-131878388D01*
X54067006Y-131738967D01*
X54224604Y-131572276D01*
X54442379Y-131365291D01*
X54734110Y-131104989D01*
X55113578Y-130778347D01*
X55594563Y-130372343D01*
X56190845Y-129873952D01*
X56285628Y-129794966D01*
X56830583Y-129344481D01*
X57346374Y-128924804D01*
X57815743Y-128549472D01*
X58221432Y-128232021D01*
X58546186Y-127985990D01*
X58772745Y-127824915D01*
X58871844Y-127766258D01*
X59252488Y-127668767D01*
X59702557Y-127643612D01*
X60148996Y-127688677D01*
G37*
G36*
X102159321Y-127691774D02*
G01*
X102533032Y-127809177D01*
X102547315Y-127816305D01*
X102690355Y-127910118D01*
X102942208Y-128096987D01*
X103282608Y-128360369D01*
X103691288Y-128683720D01*
X104147981Y-129050498D01*
X104632421Y-129444157D01*
X105124341Y-129848156D01*
X105603474Y-130245951D01*
X106049553Y-130620998D01*
X106442312Y-130956753D01*
X106761483Y-131236675D01*
X106958072Y-131416727D01*
X107199967Y-131675694D01*
X107416993Y-131957056D01*
X107508405Y-132103333D01*
X107544074Y-132171268D01*
X107574793Y-132242134D01*
X107600931Y-132328385D01*
X107622860Y-132442474D01*
X107640947Y-132596856D01*
X107655564Y-132803983D01*
X107667079Y-133076309D01*
X107675863Y-133426288D01*
X107682285Y-133866374D01*
X107686716Y-134409019D01*
X107689524Y-135066679D01*
X107691080Y-135851805D01*
X107691754Y-136776852D01*
X107691915Y-137854274D01*
X107691918Y-138284000D01*
X107691732Y-139423180D01*
X107690961Y-140405389D01*
X107689287Y-141242985D01*
X107686394Y-141948331D01*
X107681962Y-142533786D01*
X107675674Y-143011711D01*
X107667212Y-143394467D01*
X107656259Y-143694415D01*
X107642497Y-143923914D01*
X107625607Y-144095327D01*
X107605272Y-144221014D01*
X107581174Y-144313334D01*
X107552996Y-144384650D01*
X107534086Y-144422333D01*
X107172334Y-144931849D01*
X106700533Y-145319541D01*
X106591252Y-145382587D01*
X106513315Y-145422747D01*
X106431122Y-145456607D01*
X106330210Y-145484764D01*
X106196118Y-145507812D01*
X106014382Y-145526347D01*
X105770540Y-145540964D01*
X105450130Y-145552260D01*
X105038690Y-145560828D01*
X104521756Y-145567266D01*
X103884867Y-145572167D01*
X103113560Y-145576129D01*
X102193372Y-145579745D01*
X101765252Y-145581282D01*
X100751509Y-145584270D01*
X99893228Y-145585233D01*
X99176543Y-145583854D01*
X98587592Y-145579820D01*
X98112510Y-145572815D01*
X97737434Y-145562523D01*
X97448499Y-145548630D01*
X97231842Y-145530821D01*
X97073600Y-145508780D01*
X96959907Y-145482192D01*
X96926799Y-145471298D01*
X96556331Y-145272923D01*
X96191885Y-144966819D01*
X95892853Y-144605960D01*
X95817552Y-144481887D01*
X95788503Y-144418881D01*
X95763366Y-144335528D01*
X95741799Y-144219578D01*
X95723455Y-144058785D01*
X95707991Y-143840901D01*
X95695062Y-143553676D01*
X95684324Y-143184864D01*
X95675433Y-142722216D01*
X95668044Y-142153483D01*
X95661813Y-141466419D01*
X95656395Y-140648774D01*
X95651446Y-139688301D01*
X95646622Y-138572752D01*
X95645819Y-138374156D01*
X95622387Y-132537645D01*
X95841695Y-132089395D01*
X95913891Y-131957007D01*
X96007937Y-131820658D01*
X96137888Y-131667139D01*
X96317802Y-131483241D01*
X96561736Y-131255755D01*
X96883745Y-130971472D01*
X97297886Y-130617185D01*
X97818217Y-130179682D01*
X98313825Y-129766347D01*
X98855336Y-129319258D01*
X99367662Y-128902999D01*
X99833398Y-128531203D01*
X100235141Y-128217505D01*
X100555483Y-127975535D01*
X100777021Y-127818928D01*
X100868217Y-127765545D01*
X101252717Y-127667716D01*
X101707818Y-127643873D01*
X102159321Y-127691774D01*
G37*
G36*
X65950031Y-111499696D02*
G01*
X66853224Y-111504540D01*
X67860576Y-111510203D01*
X68713295Y-111515952D01*
X69426070Y-111523569D01*
X70013594Y-111534838D01*
X70490556Y-111551541D01*
X70871649Y-111575460D01*
X71171562Y-111608378D01*
X71404988Y-111652078D01*
X71586616Y-111708342D01*
X71731138Y-111778953D01*
X71853245Y-111865693D01*
X71967628Y-111970345D01*
X72088978Y-112094691D01*
X72138370Y-112145828D01*
X72241825Y-112251595D01*
X72331426Y-112349143D01*
X72408119Y-112450785D01*
X72472848Y-112568836D01*
X72526560Y-112715607D01*
X72570199Y-112903412D01*
X72604712Y-113144565D01*
X72631044Y-113451379D01*
X72650140Y-113836168D01*
X72662945Y-114311244D01*
X72670406Y-114888921D01*
X72673467Y-115581512D01*
X72673074Y-116401331D01*
X72670173Y-117360692D01*
X72665709Y-118471906D01*
X72663598Y-118986234D01*
X72639918Y-124834469D01*
X72406263Y-125187494D01*
X72283765Y-125327798D01*
X72048541Y-125557478D01*
X71720045Y-125860068D01*
X71317731Y-126219100D01*
X70861051Y-126618108D01*
X70369459Y-127040624D01*
X69862408Y-127470183D01*
X69359350Y-127890317D01*
X68879739Y-128284559D01*
X68443029Y-128636443D01*
X68068671Y-128929501D01*
X67776120Y-129147267D01*
X67584828Y-129273274D01*
X67570281Y-129281096D01*
X67113692Y-129437021D01*
X66596926Y-129486313D01*
X66095552Y-129423573D01*
X65993585Y-129393793D01*
X65824384Y-129314485D01*
X65581487Y-129160757D01*
X65254635Y-128924885D01*
X64833566Y-128599151D01*
X64308021Y-128175832D01*
X63667739Y-127647208D01*
X63622918Y-127609863D01*
X62969416Y-127064451D01*
X62433526Y-126614920D01*
X62002360Y-126249245D01*
X61663030Y-125955403D01*
X61402647Y-125721372D01*
X61208322Y-125535128D01*
X61067167Y-125384647D01*
X60966293Y-125257906D01*
X60892811Y-125142881D01*
X60833833Y-125027550D01*
X60818036Y-124993285D01*
X60787815Y-124918697D01*
X60761783Y-124829370D01*
X60739625Y-124712855D01*
X60721024Y-124556705D01*
X60705665Y-124348470D01*
X60693232Y-124075702D01*
X60683410Y-123725954D01*
X60675884Y-123286777D01*
X60670337Y-122745723D01*
X60666454Y-122090343D01*
X60663920Y-121308189D01*
X60662419Y-120386813D01*
X60661635Y-119313766D01*
X60661444Y-118816231D01*
X60661182Y-117680518D01*
X60661406Y-116701612D01*
X60662472Y-115866987D01*
X60664731Y-115164117D01*
X60668538Y-114580475D01*
X60674247Y-114103535D01*
X60682211Y-113720771D01*
X60692784Y-113419657D01*
X60706318Y-113187666D01*
X60723169Y-113012272D01*
X60743689Y-112880950D01*
X60768233Y-112781172D01*
X60797153Y-112700412D01*
X60830803Y-112626145D01*
X60836521Y-112614295D01*
X61020184Y-112322932D01*
X61258099Y-112050453D01*
X61323354Y-111991989D01*
X61458801Y-111883238D01*
X61591319Y-111791068D01*
X61735428Y-111714198D01*
X61905649Y-111651349D01*
X62116505Y-111601241D01*
X62382515Y-111562593D01*
X62718202Y-111534126D01*
X63138087Y-111514559D01*
X63656691Y-111502612D01*
X64288536Y-111497006D01*
X65048142Y-111496461D01*
X65950031Y-111499696D01*
G37*
%TD*%
D11*
%TO.C,SW1*%
X88442800Y-79756000D03*
X94942800Y-79756000D03*
X88442800Y-84256000D03*
X94942800Y-84256000D03*
%TD*%
D12*
%TO.C,H3*%
X50800000Y-104648000D03*
%TD*%
D13*
%TO.C,J5*%
X43210000Y-78994000D03*
D14*
X54610000Y-78994000D03*
X46310000Y-78994000D03*
%TD*%
D15*
%TO.C,Q1*%
X132080000Y-60960000D03*
D16*
X134620000Y-60960000D03*
X137160000Y-60960000D03*
%TD*%
D17*
%TO.C,R37*%
X129794000Y-66040000D03*
X139954000Y-66040000D03*
%TD*%
%TO.C,R25*%
X136398000Y-50800000D03*
X136398000Y-40640000D03*
%TD*%
%TO.C,R16*%
X154432000Y-46228000D03*
X154432000Y-56388000D03*
%TD*%
%TO.C,C3*%
X97282000Y-59182000D03*
X97282000Y-64182000D03*
%TD*%
%TO.C,R22*%
X63246000Y-69088000D03*
X63246000Y-58928000D03*
%TD*%
%TO.C,R11*%
X66040000Y-108458000D03*
X66040000Y-98298000D03*
%TD*%
D18*
%TO.C,D1*%
X88646000Y-93345000D03*
D19*
X88646000Y-90805000D03*
%TD*%
D17*
%TO.C,R14*%
X132842000Y-40640000D03*
X132842000Y-50800000D03*
%TD*%
D20*
%TO.C,C5*%
X144526000Y-64040000D03*
D17*
X144526000Y-66040000D03*
%TD*%
D12*
%TO.C,H1*%
X152400000Y-41148000D03*
%TD*%
D17*
%TO.C,R15*%
X106426000Y-70510400D03*
X116586000Y-70510400D03*
%TD*%
%TO.C,R3*%
X133858000Y-108458000D03*
X133858000Y-98298000D03*
%TD*%
%TO.C,R19*%
X74422000Y-41656000D03*
X84582000Y-41656000D03*
%TD*%
D21*
%TO.C,C10*%
X90027688Y-55321200D03*
D17*
X92027688Y-55321200D03*
%TD*%
%TO.C,R10*%
X69342000Y-108458000D03*
X69342000Y-98298000D03*
%TD*%
%TO.C,R23*%
X110744000Y-37592000D03*
X120904000Y-37592000D03*
%TD*%
%TO.C,R18*%
X48006000Y-56388000D03*
X48006000Y-46228000D03*
%TD*%
D21*
%TO.C,C4*%
X86106000Y-71120000D03*
D17*
X88106000Y-71120000D03*
%TD*%
%TO.C,R2*%
X137160000Y-108458000D03*
X137160000Y-98298000D03*
%TD*%
%TO.C,C11*%
X54182000Y-70561200D03*
X59182000Y-70561200D03*
%TD*%
D22*
%TO.C,J4*%
X106094000Y-42244000D03*
X105244000Y-42244000D03*
X104394000Y-42244000D03*
X103544000Y-42244000D03*
X102694000Y-42244000D03*
X101844000Y-42244000D03*
X100994000Y-42244000D03*
X100144000Y-42244000D03*
X100144000Y-40894000D03*
X100994000Y-40894000D03*
X101844000Y-40894000D03*
X102694000Y-40894000D03*
X103544000Y-40894000D03*
X104394000Y-40894000D03*
X105244000Y-40894000D03*
X106094000Y-40894000D03*
D23*
X107444000Y-41264000D03*
D24*
X107444000Y-37884000D03*
D23*
X98794000Y-41264000D03*
D24*
X98794000Y-37884000D03*
%TD*%
D17*
%TO.C,R12*%
X62738000Y-108458000D03*
X62738000Y-98298000D03*
%TD*%
%TO.C,R21*%
X120650000Y-98298000D03*
X120650000Y-108458000D03*
%TD*%
%TO.C,R13*%
X114554000Y-50546000D03*
X114554000Y-40386000D03*
%TD*%
D11*
%TO.C,SW2*%
X108254800Y-79756000D03*
X114754800Y-79756000D03*
X108254800Y-84256000D03*
X114754800Y-84256000D03*
%TD*%
%TO.C,TP3*%
X44043600Y-70002400D03*
%TD*%
D25*
%TO.C,RV1*%
X62204000Y-52204000D03*
X52604000Y-52204000D03*
D18*
X59904000Y-44704000D03*
D19*
X57404000Y-44704000D03*
X54904000Y-44704000D03*
%TD*%
D17*
%TO.C,R6*%
X123952000Y-108458000D03*
X123952000Y-98298000D03*
%TD*%
%TO.C,C7*%
X90424000Y-59436000D03*
X90424000Y-64436000D03*
%TD*%
D13*
%TO.C,J3*%
X159990000Y-78994000D03*
D14*
X148590000Y-78994000D03*
X156890000Y-78994000D03*
%TD*%
D26*
%TO.C,U2*%
X52070000Y-66802000D03*
D17*
X54610000Y-66802000D03*
X57150000Y-66802000D03*
X59690000Y-66802000D03*
X59690000Y-59182000D03*
X57150000Y-59182000D03*
X54610000Y-59182000D03*
X52070000Y-59182000D03*
%TD*%
D20*
%TO.C,U3*%
X86614000Y-59182000D03*
D17*
X84074000Y-59182000D03*
X81534000Y-59182000D03*
X78994000Y-59182000D03*
X76454000Y-59182000D03*
X73914000Y-59182000D03*
X71374000Y-59182000D03*
X71374000Y-66802000D03*
X73914000Y-66802000D03*
X76454000Y-66802000D03*
X78994000Y-66802000D03*
X81534000Y-66802000D03*
X84074000Y-66802000D03*
X86614000Y-66802000D03*
%TD*%
D15*
%TO.C,Q2*%
X137160000Y-55372000D03*
D16*
X134620000Y-55372000D03*
X132080000Y-55372000D03*
%TD*%
D11*
%TO.C,TP1*%
X62941200Y-72237600D03*
%TD*%
D25*
%TO.C,RV2*%
X84302000Y-52204000D03*
X74702000Y-52204000D03*
D18*
X82002000Y-44704000D03*
D19*
X79502000Y-44704000D03*
X77002000Y-44704000D03*
%TD*%
D25*
%TO.C,RV4*%
X128448000Y-52204000D03*
X118948000Y-52204000D03*
D18*
X126198000Y-44704000D03*
D19*
X123698000Y-44704000D03*
X121198000Y-44704000D03*
X126198000Y-42204000D03*
X123698000Y-42204000D03*
X121198000Y-42204000D03*
%TD*%
D17*
%TO.C,R4*%
X130556000Y-108458000D03*
X130556000Y-98298000D03*
%TD*%
%TO.C,R30*%
X95504000Y-37338000D03*
X85344000Y-37338000D03*
%TD*%
%TO.C,R7*%
X79248000Y-108458000D03*
X79248000Y-98298000D03*
%TD*%
D27*
%TO.C,J1*%
X59238252Y-136905000D03*
D28*
X66638252Y-119005000D03*
D29*
X73388252Y-137755000D03*
D30*
X80288252Y-119255000D03*
D31*
X87988252Y-137905000D03*
D32*
X101888252Y-138805000D03*
D33*
X106638252Y-119005000D03*
D34*
X115788252Y-137605000D03*
D35*
X123188252Y-120755000D03*
D36*
X127338252Y-138205000D03*
D37*
X134438252Y-121355000D03*
D38*
X142438252Y-138505000D03*
%TD*%
D17*
%TO.C,R5*%
X127254000Y-108458000D03*
X127254000Y-98298000D03*
%TD*%
D25*
%TO.C,RV5*%
X150596000Y-52204000D03*
X140996000Y-52204000D03*
D18*
X148296000Y-44704000D03*
D19*
X145796000Y-44704000D03*
X143296000Y-44704000D03*
%TD*%
D17*
%TO.C,R29*%
X44704000Y-56388000D03*
X44704000Y-46228000D03*
%TD*%
%TO.C,R1*%
X140462000Y-108458000D03*
X140462000Y-98298000D03*
%TD*%
%TO.C,R28*%
X66548000Y-69088000D03*
X66548000Y-58928000D03*
%TD*%
%TO.C,C9*%
X59029600Y-79371200D03*
X59029600Y-74371200D03*
%TD*%
%TO.C,R8*%
X75946000Y-108458000D03*
X75946000Y-98298000D03*
%TD*%
D18*
%TO.C,D2*%
X114554000Y-93345000D03*
D19*
X114554000Y-90805000D03*
%TD*%
D17*
%TO.C,C2*%
X126244400Y-60721708D03*
X126244400Y-65721708D03*
%TD*%
%TO.C,R17*%
X102057200Y-74066400D03*
X91897200Y-74066400D03*
%TD*%
D11*
%TO.C,TP2*%
X68326000Y-47498000D03*
%TD*%
D26*
%TO.C,U1*%
X101092000Y-66802000D03*
D17*
X103632000Y-66802000D03*
X106172000Y-66802000D03*
X108712000Y-66802000D03*
X111252000Y-66802000D03*
X113792000Y-66802000D03*
X116332000Y-66802000D03*
X116332000Y-59182000D03*
X113792000Y-59182000D03*
X111252000Y-59182000D03*
X108712000Y-59182000D03*
X106172000Y-59182000D03*
X103632000Y-59182000D03*
X101092000Y-59182000D03*
%TD*%
%TO.C,R20*%
X82550000Y-98298000D03*
X82550000Y-108458000D03*
%TD*%
%TO.C,R9*%
X72644000Y-108458000D03*
X72644000Y-98298000D03*
%TD*%
D25*
%TO.C,RV3*%
X106400000Y-52204000D03*
X96800000Y-52204000D03*
D18*
X104100000Y-44704000D03*
D19*
X101600000Y-44704000D03*
X99100000Y-44704000D03*
%TD*%
D12*
%TO.C,H4*%
X152400000Y-104648000D03*
%TD*%
D17*
%TO.C,C6*%
X47752000Y-60695708D03*
X47752000Y-65695708D03*
%TD*%
D39*
%TO.C,J2*%
X91186000Y-46736000D03*
D40*
X88646000Y-46736000D03*
X91186000Y-44196000D03*
X88646000Y-44196000D03*
X91186000Y-41656000D03*
X88646000Y-41656000D03*
%TD*%
D17*
%TO.C,R27*%
X106426000Y-73914000D03*
X116586000Y-73914000D03*
%TD*%
%TO.C,R26*%
X110998000Y-50546000D03*
X110998000Y-40386000D03*
%TD*%
%TO.C,C8*%
X43454400Y-65691708D03*
X43454400Y-60691708D03*
%TD*%
%TO.C,C1*%
X121694400Y-60721708D03*
X121694400Y-65721708D03*
%TD*%
D12*
%TO.C,H2*%
X50800000Y-40894000D03*
%TD*%
D17*
%TO.C,R24*%
X102057200Y-70358000D03*
X91897200Y-70358000D03*
%TD*%
M02*
