<?xml version="1.0" encoding="UTF-8"?><svg xmlns="http://www.w3.org/2000/svg" viewBox="0 0 351.5 317.48"><defs><style>.cls-1{fill:#00538c;}.cls-2{fill:#9b9b9b;}.cls-3{fill:#5b5b5b;}.cls-4{fill:#4ff900;}.cls-5{fill:none;stroke:#1d1d1b;stroke-miterlimit:10;}</style></defs><g id="Components_bottom"><rect class="cls-1" x="17.01" y="116.22" width="28.35" height="28.35" rx="2.83" ry="2.83"/><rect class="cls-1" x="36.85" y="42.52" width="28.35" height="28.35" rx="2.83" ry="2.83"/><rect class="cls-1" x="93.54" y="42.52" width="28.35" height="28.35" rx="2.83" ry="2.83"/><rect class="cls-1" x="229.61" y="42.52" width="28.35" height="28.35" rx="2.83" ry="2.83"/><rect class="cls-1" x="187.09" y="85.04" width="22.68" height="22.68" rx="2.83" ry="2.83"/><rect class="cls-1" x="141.73" y="85.04" width="22.68" height="22.68" rx="2.83" ry="2.83"/><rect class="cls-1" x="286.3" y="42.52" width="28.35" height="28.35" rx="2.83" ry="2.83"/><rect class="cls-1" x="306.14" y="116.22" width="28.35" height="28.35" rx="2.83" ry="2.83"/><rect class="cls-1" x="161.57" y="8.5" width="28.35" height="17.01" rx="2.83" ry="2.83"/></g><g id="Components_top"><rect class="cls-2" x="170.08" y="5.67" width="11.34" height="22.68" transform="translate(192.76 -158.74) rotate(90)"/><circle class="cls-2" cx="51.02" cy="56.69" r="8.5"/><path class="cls-5" d="m51.02,53.86v2.83-5.67,2.83Z"/><circle class="cls-2" cx="107.72" cy="56.69" r="8.5"/><path class="cls-5" d="m107.72,53.86v2.83-5.67,2.83Z"/><circle class="cls-2" cx="243.78" cy="56.69" r="8.5"/><path class="cls-5" d="m243.78,53.86v2.83-5.67,2.83Z"/><circle class="cls-2" cx="300.47" cy="56.69" r="8.5"/><path class="cls-5" d="m300.47,53.86v2.83-5.67,2.83Z"/><circle class="cls-2" cx="153.07" cy="96.38" r="8.5"/><circle class="cls-5" cx="153.07" cy="96.38" r="5.67"/><circle class="cls-4" cx="187.09" cy="56.69" r="4.25"/><circle class="cls-4" cx="164.41" cy="56.69" r="4.25"/><circle class="cls-2" cx="198.43" cy="96.38" r="8.5"/><circle class="cls-5" cx="198.43" cy="96.38" r="5.67"/><circle class="cls-2" cx="31.18" cy="130.39" r="8.5"/><circle class="cls-3" cx="31.18" cy="130.39" r="5.67"/><circle class="cls-2" cx="320.31" cy="130.39" r="8.5"/><circle class="cls-3" cx="320.31" cy="130.39" r="5.67"/></g></svg>