<?xml version="1.0" encoding="UTF-8"?><svg xmlns="http://www.w3.org/2000/svg" viewBox="0 0 351.5 317.48"><defs><style>.cls-1{stroke-linecap:round;stroke-linejoin:round;}.cls-1,.cls-2{fill:none;stroke:#fff;}.cls-3{fill:#fff;font-family:SpaceMono-Bold, 'Space Mono';font-size:6px;font-weight:700;}.cls-2{stroke-miterlimit:10;}</style></defs><g id="Interface_lines"><path class="cls-1" d="m31.18,150.24v30.29c0,6.01,2.39,11.78,6.64,16.04l18.87,18.87"/><path class="cls-1" d="m320.31,150.24v30.29c0,6.01-2.39,11.78-6.64,16.04l-18.87,18.87"/><line class="cls-1" x1="323.15" y1="110.55" x2="331.65" y2="102.05"/><line class="cls-1" x1="28.35" y1="110.55" x2="19.84" y2="102.05"/><polyline class="cls-1" points="22.68 110.55 28.35 110.55 28.35 104.88"/><polyline class="cls-1" points="331.65 107.72 331.65 102.05 325.98 102.05"/><line class="cls-1" x1="70.87" y1="56.69" x2="87.87" y2="56.69"/><line class="cls-1" x1="263.62" y1="56.69" x2="280.63" y2="56.69"/><text class="cls-3" transform="translate(46.64 18.54)"><tspan x="0" y="0">BRISTOL COMMUNAL MODULAR</tspan></text><text class="cls-3" transform="translate(224.07 18.54)"><tspan x="0" y="0">YORICK PLATFORM v1.0</tspan></text><path class="cls-1" d="m127.56,56.69h0c11.66,0,21.83,7.94,24.66,19.25l.86,3.43"/><path class="cls-1" d="m223.94,56.69h0c-11.66,0-21.83,7.94-24.66,19.25l-.86,3.43"/><line class="cls-1" x1="164.41" y1="79.37" x2="164.41" y2="65.2"/><line class="cls-1" x1="187.09" y1="79.37" x2="187.09" y2="65.2"/></g><g id="Face_lines"><path class="cls-2" d="m170.81,136.28c2.17-3.84,7.7-3.84,9.87,0l12.07,21.34,12.1,20.95c2.18,3.78-.55,8.5-4.91,8.5h-48.39c-4.36,0-7.09-4.72-4.91-8.5l12.1-20.95,12.07-21.34Z"/><circle class="cls-2" cx="255.12" cy="130.39" r="34.02"/><circle class="cls-2" cx="96.38" cy="130.39" r="34.02"/></g></svg>