0
SECTION
2
HEADER
9
$INSUNITS
70
4
9
$ACADVER
1
AC1014
9
$HANDSEED
5
FFFF
0
ENDSEC
0
SECTION
2
TABLES
0
TABLE
2
VPORT
5
8
100
AcDbSymbolTable
0
ENDTAB
0
TABLE
2
LTYPE
5
5
100
AcDbSymbolTable
0
LTYPE
5
14
100
AcDbSymbolTableRecord
100
AcDbLinetypeTableRecord
2
BYBLOCK
70
0
0
LTYPE
5
15
100
AcDbSymbolTableRecord
100
AcDbLinetypeTableRecord
2
BYLAYER
70
0
0
ENDTAB
0
TABLE
2
LAYER
5
2
100
AcDbSymbolTable
70
2
0
LAYER
5
50
100
AcDbSymbolTableRecord
100
AcDbLayerTableRecord
2
0
70
0
6
CONTINUOUS
0
ENDTAB
0
TABLE
2
STYLE
5
3
100
AcDbSymbolTable
70
1
0
STYLE
5
11
100
AcDbSymbolTableRecord
100
AcDbTextStyleTableRecord
2
STANDARD
70
0
0
ENDTAB
0
TABLE
2
VIEW
5
6
100
AcDbSymbolTable
70
0
0
ENDTAB
0
TABLE
2
UCS
5
7
100
AcDbSymbolTable
70
0
0
ENDTAB
0
TABLE
2
APPID
5
9
100
AcDbSymbolTable
70
2
0
APPID
5
12
100
AcDbSymbolTableRecord
100
AcDbRegAppTableRecord
2
ACAD
70
0
0
ENDTAB
0
TABLE
2
DIMSTYLE
5
A
100
AcDbSymbolTable
70
1
0
ENDTAB
0
TABLE
2
BLOCK_RECORD
5
1
100
AcDbSymbolTable
70
1
0
BLOCK_RECORD
5
1F
100
AcDbSymbolTableRecord
100
AcDbBlockTableRecord
2
*MODEL_SPACE
0
BLOCK_RECORD
5
1B
100
AcDbSymbolTableRecord
100
AcDbBlockTableRecord
2
*PAPER_SPACE
0
ENDTAB
0
ENDSEC
0
SECTION
2
BLOCKS
0
BLOCK
5
20
100
AcDbEntity
100
AcDbBlockBegin
2
*MODEL_SPACE
0
ENDBLK
5
21
100
AcDbEntity
100
AcDbBlockEnd
0
BLOCK
5
1C
100
AcDbEntity
100
AcDbBlockBegin
2
*PAPER_SPACE
0
ENDBLK
5
1D
100
AcDbEntity
100
AcDbBlockEnd
0
ENDSEC
0
SECTION
2
ENTITIES
0
CIRCLE
5
100
100
AcDbEntity
8
0
100
AcDbCircle
10
-11.229172295709418
20
-5.3859378431909422
30
0
40
1.1002324371397334
210
0
220
0
230
-1
0
CIRCLE
5
101
100
AcDbEntity
8
0
100
AcDbCircle
10
-112.85064103516117
20
-69.153409477196917
30
0
40
1.1002324371397334
210
0
220
0
230
-1
0
CIRCLE
5
102
100
AcDbEntity
8
0
100
AcDbCircle
10
-11.229172295709418
20
-69.153409477196917
30
0
40
1.1002324371397334
210
0
220
0
230
-1
0
CIRCLE
5
103
100
AcDbEntity
8
0
100
AcDbCircle
10
-112.85064103516117
20
-5.6399915150395721
30
0
40
1.1002324371397334
210
0
220
0
230
-1
0
LWPOLYLINE
5
104
100
AcDbEntity
8
0
100
AcDbPolyline
90
108
70
1
43
0.0
10
59.499371094652396
20
-4.7918124217599694
10
66.917739765576044
20
-4.7918124217599694
10
66.917739765576044
20
-0.27945903006705947
10
66.917739765576044
20
-0.050810733755668303
10
105.99119530172956
20
-0.050810733755664028
42
-0.41421350568173226
10
124.02900258429126
20
-18.088622155989437
10
124.02900258429125
20
-68.340434125446151
10
124.00169884241942
20
-69.302444612537613
10
123.95779003002968
20
-69.615506661249611
10
123.90177844105841
20
-69.92527211507938
10
123.83386248167909
20
-70.231237327586584
10
123.75424818907184
20
-70.53320389259774
10
123.66322554149021
20
-70.830866569845981
10
123.56100057611431
20
-71.123927750071104
10
123.44768012703759
20
-71.412089824012909
10
123.32355417251351
20
-71.695146754491262
10
123.18882874972229
20
-71.972808563252627
10
123.04369463383067
20
-72.244663175936722
10
122.88825865893207
20
-72.510420614290027
10
122.72292526838012
20
-72.769974044219126
10
122.54778603425486
20
-73.022926653377084
10
122.36315382782982
20
-73.268881629416981
10
122.16901338709167
20
-73.507732138245387
10
121.96586835848078
20
-73.739081367515396
10
121.75361953891039
20
-73.962624076960111
10
121.5327782058275
20
-74.178169491412731
10
121.30332909721878
20
-74.385412370606417
10
121.0655774533511
20
-74.583955902194191
10
120.81972168039795
20
-74.77359404899596
10
120.56596781553944
20
-74.954036832758149
10
120.30451426494905
20
-75.125070585293969
10
120.03565863788697
20
-75.286206922176419
10
119.75940093435325
20
-75.437339009312097
10
119.47613796669475
20
-75.57807003435407
10
119.18607577209166
20
-75.708193960122188
10
118.8893135536307
20
-75.827321605276197
10
118.58614892057206
20
-75.935239301629281
10
117.5276290921019
20
-76.288119943154911
10
116.92770224058231
20
-76.51456243513492
10
116.35438470932741
20
-76.785020573598075
10
115.80926374772491
20
-77.096991388356003
10
115.29405633227603
20
-77.448162684387142
10
114.81045654646186
20
-77.836344362776686
10
114.36015847376359
20
-78.259132656422992
10
113.94477225658896
20
-78.714131429231116
10
113.56599197841913
20
-79.199135320272887
10
113.2255193537419
20
-79.711740562446693
10
112.92495689395835
20
-80.249650222744293
10
112.66610551664306
20
-80.810475796077412
10
112.45056010219044
20
-81.391996659504557
10
112.27992316200155
20
-81.991824307937407
10
112.15599561365096
20
-82.607654177361098
10
112.08847646661857
20
-83.888518647228494
10
112.08847646661857
20
-108.02362235669256
42
-0.41421287505887272
10
108.02362235669256
20
-112.08847646661857
10
16.056191285523091
20
-112.08847646661857
42
-0.41421314998448916
10
11.991333360093748
20
-108.02362235669256
10
11.991333360093748
20
-83.888518647228494
10
11.923818982440528
20
-82.607654177361098
10
11.799893341841607
20
-81.991824307937407
10
11.629256401652722
20
-81.391996659504542
10
11.413710987200087
20
-80.810475796077398
10
11.154856748257293
20
-80.249650222744293
10
10.854293334597923
20
-79.711740562446693
10
10.513820709920692
20
-79.199135320272887
10
10.135041385626685
20
-78.714131429231116
10
9.7196532607003885
20
-78.259132656422992
10
9.26935804962962
20
-77.836344362776686
10
8.7857563560637963
20
-77.448162684387142
10
8.2705470328632344
20
-77.096991388356003
10
7.7254322714536716
20
-76.785020573598075
10
7.1521109246954238
20
-76.51456243513492
10
6.552184073175825
20
-76.288119943154911
10
5.493660429202337
20
-75.935239301629281
10
5.1904967500195376
20
-75.827321605276197
10
4.8937340546206558
20
-75.708193960122188
10
4.6036728138933958
20
-75.57807003435407
10
4.3204127078624079
20
-75.437339009312097
10
4.0441545273907451
20
-75.286206922176419
10
3.7752974695149284
20
-75.125070585293969
10
3.5138422496418316
20
-74.954036832758149
10
3.2600886232522837
20
-74.77359404899596
10
3.0142369042714208
20
-74.583955902194205
10
2.7764864527485433
20
-74.385412370606417
10
2.5470380595467046
20
-74.178169491412731
10
2.3261914801467327
20
-73.962624076960111
10
2.1139467145486273
20
-73.739081367515396
10
1.9108037129238737
20
-73.507732138245387
10
1.7166626760133408
20
-73.268881629416981
10
1.5320236732229926
20
-73.022926653377084
10
1.3568867045528288
20
-72.769974044219126
10
1.1915517639526365
20
-72.510420614290027
10
1.0361188891505038
20
-72.244663175936722
10
0.89098823105878522
20
-71.972808563252627
10
0.75625976778832971
20
-71.695146754491262
10
0.63213357479531429
20
-71.412089824012924
10
0.51880960830143696
20
-71.123927750071104
10
0.41648797357149481
20
-70.830866569845966
10
0.32556879170922204
20
-70.53320389259774
10
0.24595196536929068
20
-70.231237327586584
10
0.17803761565543516
20
-69.92527211507938
10
0.12202578076305784
20
-69.615506661249611
10
0.078116506339716146
20
-69.302444612537613
10
0.050810733755668296
20
-68.340434125446151
10
0.050810733755664028
20
-18.088622155989441
42
-0.4142135729006281
10
18.088622155989437
20
-0.050810733755666249
10
59.499371094652396
20
-0.050810733755668303
10
59.499371094652396
20
-0.27945903006705947
0
ENDSEC
0
SECTION
2
OBJECTS
0
DICTIONARY
5
C
100
AcDbDictionary
3
ACAD_GROUP
350
D
3
ACAD_MLINESTYLE
350
17
0
DICTIONARY
5
D
100
AcDbDictionary
0
DICTIONARY
5
1A
330
C
100
AcDbDictionary
0
DICTIONARY
5
17
100
AcDbDictionary
0
ENDSEC
0
EOF
