<?xml version="1.0" encoding="UTF-8"?><svg id="Teeth" xmlns="http://www.w3.org/2000/svg" viewBox="0 0 351.5 317.48"><defs><style>.cls-1{fill:#ffd400;}</style></defs><path class="cls-1" d="m39.68,276.2v29.94c0,3.13,2.54,5.67,5.67,5.67h22.68c3.13,0,5.67-2.54,5.67-5.67v-29.94c0-1.68-.75-3.28-2.04-4.36l-11.34-9.45c-2.1-1.75-5.16-1.75-7.26,0l-11.34,9.45c-1.29,1.08-2.04,2.67-2.04,4.36Z"/><path class="cls-1" d="m93.54,251.05v-29.94c0-3.13-2.54-5.67-5.67-5.67h-22.68c-3.13,0-5.67,2.54-5.67,5.67v29.94c0,1.68.75,3.28,2.04,4.36l11.34,9.45c2.1,1.75,5.16,1.75,7.26,0l11.34-9.45c1.29-1.08,2.04-2.67,2.04-4.36Z"/><path class="cls-1" d="m133.23,251.05v-29.94c0-3.13-2.54-5.67-5.67-5.67h-22.68c-3.13,0-5.67,2.54-5.67,5.67v29.94c0,1.68.75,3.28,2.04,4.36l11.34,9.45c2.1,1.75,5.16,1.75,7.26,0l11.34-9.45c1.29-1.08,2.04-2.67,2.04-4.36Z"/><path class="cls-1" d="m212.6,251.05v-29.94c0-3.13-2.54-5.67-5.67-5.67h-22.68c-3.13,0-5.67,2.54-5.67,5.67v29.94c0,1.68.75,3.28,2.04,4.36l11.34,9.45c2.1,1.75,5.16,1.75,7.26,0l11.34-9.45c1.29-1.08,2.04-2.67,2.04-4.36Z"/><path class="cls-1" d="m252.28,251.05v-29.94c0-3.13-2.54-5.67-5.67-5.67h-22.68c-3.13,0-5.67,2.54-5.67,5.67v29.94c0,1.68.75,3.28,2.04,4.36l11.34,9.45c2.1,1.75,5.16,1.75,7.26,0l11.34-9.45c1.29-1.08,2.04-2.67,2.04-4.36Z"/><path class="cls-1" d="m291.97,251.05v-29.94c0-3.13-2.54-5.67-5.67-5.67h-22.68c-3.13,0-5.67,2.54-5.67,5.67v29.94c0,1.68.75,3.28,2.04,4.36l11.34,9.45c2.1,1.75,5.16,1.75,7.26,0l11.34-9.45c1.29-1.08,2.04-2.67,2.04-4.36Z"/><path class="cls-1" d="m79.37,276.2v29.94c0,3.13,2.54,5.67,5.67,5.67h22.68c3.13,0,5.67-2.54,5.67-5.67v-29.94c0-1.68-.75-3.28-2.04-4.36l-11.34-9.45c-2.1-1.75-5.16-1.75-7.26,0l-11.34,9.45c-1.29,1.08-2.04,2.67-2.04,4.36Z"/><path class="cls-1" d="m119.06,276.2v29.94c0,3.13,2.54,5.67,5.67,5.67h22.68c3.13,0,5.67-2.54,5.67-5.67v-29.94c0-1.68-.75-3.28-2.04-4.36l-11.34-9.45c-2.1-1.75-5.16-1.75-7.26,0l-11.34,9.45c-1.29,1.08-2.04,2.67-2.04,4.36Z"/><path class="cls-1" d="m158.74,276.2v29.94c0,3.13,2.54,5.67,5.67,5.67h22.68c3.13,0,5.67-2.54,5.67-5.67v-29.94c0-1.68-.75-3.28-2.04-4.36l-11.34-9.45c-2.1-1.75-5.16-1.75-7.26,0l-11.34,9.45c-1.29,1.08-2.04,2.67-2.04,4.36Z"/><path class="cls-1" d="m198.43,276.2v29.94c0,3.13,2.54,5.67,5.67,5.67h22.68c3.13,0,5.67-2.54,5.67-5.67v-29.94c0-1.68-.75-3.28-2.04-4.36l-11.34-9.45c-2.1-1.75-5.16-1.75-7.26,0l-11.34,9.45c-1.29,1.08-2.04,2.67-2.04,4.36Z"/><path class="cls-1" d="m238.11,276.2v29.94c0,3.13,2.54,5.67,5.67,5.67h22.68c3.13,0,5.67-2.54,5.67-5.67v-29.94c0-1.68-.75-3.28-2.04-4.36l-11.34-9.45c-2.1-1.75-5.16-1.75-7.26,0l-11.34,9.45c-1.29,1.08-2.04,2.67-2.04,4.36Z"/><path class="cls-1" d="m277.8,276.2v29.94c0,3.13,2.54,5.67,5.67,5.67h22.68c3.13,0,5.67-2.54,5.67-5.67v-29.94c0-1.68-.75-3.28-2.04-4.36l-11.34-9.45c-2.1-1.75-5.16-1.75-7.26,0l-11.34,9.45c-1.29,1.08-2.04,2.67-2.04,4.36Z"/></svg>