%TF.GenerationSoftware,KiCad,Pcbnew,7.0.5-0*%
%TF.CreationDate,2023-06-20T21:08:24+01:00*%
%TF.ProjectId,bcm-machina-noise,62636d2d-6d61-4636-9869-6e612d6e6f69,rev?*%
%TF.SameCoordinates,Original*%
%TF.FileFunction,Legend,Top*%
%TF.FilePolarity,Positive*%
%FSLAX46Y46*%
G04 Gerber Fmt 4.6, Leading zero omitted, Abs format (unit mm)*
G04 Created by KiCad (PCBNEW 7.0.5-0) date 2023-06-20 21:08:24*
%MOMM*%
%LPD*%
G01*
G04 APERTURE LIST*
%ADD10C,0.150000*%
%ADD11C,0.127000*%
%ADD12C,0.120000*%
G04 APERTURE END LIST*
D10*
%TO.C,J1*%
X109580666Y-81149819D02*
X109580666Y-81864104D01*
X109580666Y-81864104D02*
X109533047Y-82006961D01*
X109533047Y-82006961D02*
X109437809Y-82102200D01*
X109437809Y-82102200D02*
X109294952Y-82149819D01*
X109294952Y-82149819D02*
X109199714Y-82149819D01*
X110580666Y-82149819D02*
X110009238Y-82149819D01*
X110294952Y-82149819D02*
X110294952Y-81149819D01*
X110294952Y-81149819D02*
X110199714Y-81292676D01*
X110199714Y-81292676D02*
X110104476Y-81387914D01*
X110104476Y-81387914D02*
X110009238Y-81435533D01*
%TO.C,RV3*%
X140922761Y-89492819D02*
X140589428Y-89016628D01*
X140351333Y-89492819D02*
X140351333Y-88492819D01*
X140351333Y-88492819D02*
X140732285Y-88492819D01*
X140732285Y-88492819D02*
X140827523Y-88540438D01*
X140827523Y-88540438D02*
X140875142Y-88588057D01*
X140875142Y-88588057D02*
X140922761Y-88683295D01*
X140922761Y-88683295D02*
X140922761Y-88826152D01*
X140922761Y-88826152D02*
X140875142Y-88921390D01*
X140875142Y-88921390D02*
X140827523Y-88969009D01*
X140827523Y-88969009D02*
X140732285Y-89016628D01*
X140732285Y-89016628D02*
X140351333Y-89016628D01*
X141208476Y-88492819D02*
X141541809Y-89492819D01*
X141541809Y-89492819D02*
X141875142Y-88492819D01*
X142113238Y-88492819D02*
X142732285Y-88492819D01*
X142732285Y-88492819D02*
X142398952Y-88873771D01*
X142398952Y-88873771D02*
X142541809Y-88873771D01*
X142541809Y-88873771D02*
X142637047Y-88921390D01*
X142637047Y-88921390D02*
X142684666Y-88969009D01*
X142684666Y-88969009D02*
X142732285Y-89064247D01*
X142732285Y-89064247D02*
X142732285Y-89302342D01*
X142732285Y-89302342D02*
X142684666Y-89397580D01*
X142684666Y-89397580D02*
X142637047Y-89445200D01*
X142637047Y-89445200D02*
X142541809Y-89492819D01*
X142541809Y-89492819D02*
X142256095Y-89492819D01*
X142256095Y-89492819D02*
X142160857Y-89445200D01*
X142160857Y-89445200D02*
X142113238Y-89397580D01*
%TO.C,H4*%
X103378095Y-137944819D02*
X103378095Y-136944819D01*
X103378095Y-137421009D02*
X103949523Y-137421009D01*
X103949523Y-137944819D02*
X103949523Y-136944819D01*
X104854285Y-137278152D02*
X104854285Y-137944819D01*
X104616190Y-136897200D02*
X104378095Y-137611485D01*
X104378095Y-137611485D02*
X104997142Y-137611485D01*
%TO.C,H7*%
X133858095Y-137944819D02*
X133858095Y-136944819D01*
X133858095Y-137421009D02*
X134429523Y-137421009D01*
X134429523Y-137944819D02*
X134429523Y-136944819D01*
X134810476Y-136944819D02*
X135477142Y-136944819D01*
X135477142Y-136944819D02*
X135048571Y-137944819D01*
%TO.C,H2*%
X83058095Y-137944819D02*
X83058095Y-136944819D01*
X83058095Y-137421009D02*
X83629523Y-137421009D01*
X83629523Y-137944819D02*
X83629523Y-136944819D01*
X84058095Y-137040057D02*
X84105714Y-136992438D01*
X84105714Y-136992438D02*
X84200952Y-136944819D01*
X84200952Y-136944819D02*
X84439047Y-136944819D01*
X84439047Y-136944819D02*
X84534285Y-136992438D01*
X84534285Y-136992438D02*
X84581904Y-137040057D01*
X84581904Y-137040057D02*
X84629523Y-137135295D01*
X84629523Y-137135295D02*
X84629523Y-137230533D01*
X84629523Y-137230533D02*
X84581904Y-137373390D01*
X84581904Y-137373390D02*
X84010476Y-137944819D01*
X84010476Y-137944819D02*
X84629523Y-137944819D01*
%TO.C,SW1*%
X73977667Y-114707200D02*
X74120524Y-114754819D01*
X74120524Y-114754819D02*
X74358619Y-114754819D01*
X74358619Y-114754819D02*
X74453857Y-114707200D01*
X74453857Y-114707200D02*
X74501476Y-114659580D01*
X74501476Y-114659580D02*
X74549095Y-114564342D01*
X74549095Y-114564342D02*
X74549095Y-114469104D01*
X74549095Y-114469104D02*
X74501476Y-114373866D01*
X74501476Y-114373866D02*
X74453857Y-114326247D01*
X74453857Y-114326247D02*
X74358619Y-114278628D01*
X74358619Y-114278628D02*
X74168143Y-114231009D01*
X74168143Y-114231009D02*
X74072905Y-114183390D01*
X74072905Y-114183390D02*
X74025286Y-114135771D01*
X74025286Y-114135771D02*
X73977667Y-114040533D01*
X73977667Y-114040533D02*
X73977667Y-113945295D01*
X73977667Y-113945295D02*
X74025286Y-113850057D01*
X74025286Y-113850057D02*
X74072905Y-113802438D01*
X74072905Y-113802438D02*
X74168143Y-113754819D01*
X74168143Y-113754819D02*
X74406238Y-113754819D01*
X74406238Y-113754819D02*
X74549095Y-113802438D01*
X74882429Y-113754819D02*
X75120524Y-114754819D01*
X75120524Y-114754819D02*
X75311000Y-114040533D01*
X75311000Y-114040533D02*
X75501476Y-114754819D01*
X75501476Y-114754819D02*
X75739572Y-113754819D01*
X76644333Y-114754819D02*
X76072905Y-114754819D01*
X76358619Y-114754819D02*
X76358619Y-113754819D01*
X76358619Y-113754819D02*
X76263381Y-113897676D01*
X76263381Y-113897676D02*
X76168143Y-113992914D01*
X76168143Y-113992914D02*
X76072905Y-114040533D01*
%TO.C,J5*%
X72747673Y-75233344D02*
X72747673Y-75947629D01*
X72747673Y-75947629D02*
X72700054Y-76090486D01*
X72700054Y-76090486D02*
X72604816Y-76185725D01*
X72604816Y-76185725D02*
X72461959Y-76233344D01*
X72461959Y-76233344D02*
X72366721Y-76233344D01*
X73700054Y-75233344D02*
X73223864Y-75233344D01*
X73223864Y-75233344D02*
X73176245Y-75709534D01*
X73176245Y-75709534D02*
X73223864Y-75661915D01*
X73223864Y-75661915D02*
X73319102Y-75614296D01*
X73319102Y-75614296D02*
X73557197Y-75614296D01*
X73557197Y-75614296D02*
X73652435Y-75661915D01*
X73652435Y-75661915D02*
X73700054Y-75709534D01*
X73700054Y-75709534D02*
X73747673Y-75804772D01*
X73747673Y-75804772D02*
X73747673Y-76042867D01*
X73747673Y-76042867D02*
X73700054Y-76138105D01*
X73700054Y-76138105D02*
X73652435Y-76185725D01*
X73652435Y-76185725D02*
X73557197Y-76233344D01*
X73557197Y-76233344D02*
X73319102Y-76233344D01*
X73319102Y-76233344D02*
X73223864Y-76185725D01*
X73223864Y-76185725D02*
X73176245Y-76138105D01*
%TO.C,Q1*%
X154336761Y-92244057D02*
X154241523Y-92196438D01*
X154241523Y-92196438D02*
X154146285Y-92101200D01*
X154146285Y-92101200D02*
X154003428Y-91958342D01*
X154003428Y-91958342D02*
X153908190Y-91910723D01*
X153908190Y-91910723D02*
X153812952Y-91910723D01*
X153860571Y-92148819D02*
X153765333Y-92101200D01*
X153765333Y-92101200D02*
X153670095Y-92005961D01*
X153670095Y-92005961D02*
X153622476Y-91815485D01*
X153622476Y-91815485D02*
X153622476Y-91482152D01*
X153622476Y-91482152D02*
X153670095Y-91291676D01*
X153670095Y-91291676D02*
X153765333Y-91196438D01*
X153765333Y-91196438D02*
X153860571Y-91148819D01*
X153860571Y-91148819D02*
X154051047Y-91148819D01*
X154051047Y-91148819D02*
X154146285Y-91196438D01*
X154146285Y-91196438D02*
X154241523Y-91291676D01*
X154241523Y-91291676D02*
X154289142Y-91482152D01*
X154289142Y-91482152D02*
X154289142Y-91815485D01*
X154289142Y-91815485D02*
X154241523Y-92005961D01*
X154241523Y-92005961D02*
X154146285Y-92101200D01*
X154146285Y-92101200D02*
X154051047Y-92148819D01*
X154051047Y-92148819D02*
X153860571Y-92148819D01*
X155241523Y-92148819D02*
X154670095Y-92148819D01*
X154955809Y-92148819D02*
X154955809Y-91148819D01*
X154955809Y-91148819D02*
X154860571Y-91291676D01*
X154860571Y-91291676D02*
X154765333Y-91386914D01*
X154765333Y-91386914D02*
X154670095Y-91434533D01*
%TO.C,R25*%
X90484142Y-76654819D02*
X90150809Y-76178628D01*
X89912714Y-76654819D02*
X89912714Y-75654819D01*
X89912714Y-75654819D02*
X90293666Y-75654819D01*
X90293666Y-75654819D02*
X90388904Y-75702438D01*
X90388904Y-75702438D02*
X90436523Y-75750057D01*
X90436523Y-75750057D02*
X90484142Y-75845295D01*
X90484142Y-75845295D02*
X90484142Y-75988152D01*
X90484142Y-75988152D02*
X90436523Y-76083390D01*
X90436523Y-76083390D02*
X90388904Y-76131009D01*
X90388904Y-76131009D02*
X90293666Y-76178628D01*
X90293666Y-76178628D02*
X89912714Y-76178628D01*
X90865095Y-75750057D02*
X90912714Y-75702438D01*
X90912714Y-75702438D02*
X91007952Y-75654819D01*
X91007952Y-75654819D02*
X91246047Y-75654819D01*
X91246047Y-75654819D02*
X91341285Y-75702438D01*
X91341285Y-75702438D02*
X91388904Y-75750057D01*
X91388904Y-75750057D02*
X91436523Y-75845295D01*
X91436523Y-75845295D02*
X91436523Y-75940533D01*
X91436523Y-75940533D02*
X91388904Y-76083390D01*
X91388904Y-76083390D02*
X90817476Y-76654819D01*
X90817476Y-76654819D02*
X91436523Y-76654819D01*
X92341285Y-75654819D02*
X91865095Y-75654819D01*
X91865095Y-75654819D02*
X91817476Y-76131009D01*
X91817476Y-76131009D02*
X91865095Y-76083390D01*
X91865095Y-76083390D02*
X91960333Y-76035771D01*
X91960333Y-76035771D02*
X92198428Y-76035771D01*
X92198428Y-76035771D02*
X92293666Y-76083390D01*
X92293666Y-76083390D02*
X92341285Y-76131009D01*
X92341285Y-76131009D02*
X92388904Y-76226247D01*
X92388904Y-76226247D02*
X92388904Y-76464342D01*
X92388904Y-76464342D02*
X92341285Y-76559580D01*
X92341285Y-76559580D02*
X92293666Y-76607200D01*
X92293666Y-76607200D02*
X92198428Y-76654819D01*
X92198428Y-76654819D02*
X91960333Y-76654819D01*
X91960333Y-76654819D02*
X91865095Y-76607200D01*
X91865095Y-76607200D02*
X91817476Y-76559580D01*
%TO.C,R16*%
X180286819Y-96868857D02*
X179810628Y-97202190D01*
X180286819Y-97440285D02*
X179286819Y-97440285D01*
X179286819Y-97440285D02*
X179286819Y-97059333D01*
X179286819Y-97059333D02*
X179334438Y-96964095D01*
X179334438Y-96964095D02*
X179382057Y-96916476D01*
X179382057Y-96916476D02*
X179477295Y-96868857D01*
X179477295Y-96868857D02*
X179620152Y-96868857D01*
X179620152Y-96868857D02*
X179715390Y-96916476D01*
X179715390Y-96916476D02*
X179763009Y-96964095D01*
X179763009Y-96964095D02*
X179810628Y-97059333D01*
X179810628Y-97059333D02*
X179810628Y-97440285D01*
X180286819Y-95916476D02*
X180286819Y-96487904D01*
X180286819Y-96202190D02*
X179286819Y-96202190D01*
X179286819Y-96202190D02*
X179429676Y-96297428D01*
X179429676Y-96297428D02*
X179524914Y-96392666D01*
X179524914Y-96392666D02*
X179572533Y-96487904D01*
X179286819Y-95059333D02*
X179286819Y-95249809D01*
X179286819Y-95249809D02*
X179334438Y-95345047D01*
X179334438Y-95345047D02*
X179382057Y-95392666D01*
X179382057Y-95392666D02*
X179524914Y-95487904D01*
X179524914Y-95487904D02*
X179715390Y-95535523D01*
X179715390Y-95535523D02*
X180096342Y-95535523D01*
X180096342Y-95535523D02*
X180191580Y-95487904D01*
X180191580Y-95487904D02*
X180239200Y-95440285D01*
X180239200Y-95440285D02*
X180286819Y-95345047D01*
X180286819Y-95345047D02*
X180286819Y-95154571D01*
X180286819Y-95154571D02*
X180239200Y-95059333D01*
X180239200Y-95059333D02*
X180191580Y-95011714D01*
X180191580Y-95011714D02*
X180096342Y-94964095D01*
X180096342Y-94964095D02*
X179858247Y-94964095D01*
X179858247Y-94964095D02*
X179763009Y-95011714D01*
X179763009Y-95011714D02*
X179715390Y-95059333D01*
X179715390Y-95059333D02*
X179667771Y-95154571D01*
X179667771Y-95154571D02*
X179667771Y-95345047D01*
X179667771Y-95345047D02*
X179715390Y-95440285D01*
X179715390Y-95440285D02*
X179763009Y-95487904D01*
X179763009Y-95487904D02*
X179858247Y-95535523D01*
%TO.C,C3*%
X132439580Y-90112666D02*
X132487200Y-90160285D01*
X132487200Y-90160285D02*
X132534819Y-90303142D01*
X132534819Y-90303142D02*
X132534819Y-90398380D01*
X132534819Y-90398380D02*
X132487200Y-90541237D01*
X132487200Y-90541237D02*
X132391961Y-90636475D01*
X132391961Y-90636475D02*
X132296723Y-90684094D01*
X132296723Y-90684094D02*
X132106247Y-90731713D01*
X132106247Y-90731713D02*
X131963390Y-90731713D01*
X131963390Y-90731713D02*
X131772914Y-90684094D01*
X131772914Y-90684094D02*
X131677676Y-90636475D01*
X131677676Y-90636475D02*
X131582438Y-90541237D01*
X131582438Y-90541237D02*
X131534819Y-90398380D01*
X131534819Y-90398380D02*
X131534819Y-90303142D01*
X131534819Y-90303142D02*
X131582438Y-90160285D01*
X131582438Y-90160285D02*
X131630057Y-90112666D01*
X131534819Y-89779332D02*
X131534819Y-89160285D01*
X131534819Y-89160285D02*
X131915771Y-89493618D01*
X131915771Y-89493618D02*
X131915771Y-89350761D01*
X131915771Y-89350761D02*
X131963390Y-89255523D01*
X131963390Y-89255523D02*
X132011009Y-89207904D01*
X132011009Y-89207904D02*
X132106247Y-89160285D01*
X132106247Y-89160285D02*
X132344342Y-89160285D01*
X132344342Y-89160285D02*
X132439580Y-89207904D01*
X132439580Y-89207904D02*
X132487200Y-89255523D01*
X132487200Y-89255523D02*
X132534819Y-89350761D01*
X132534819Y-89350761D02*
X132534819Y-89636475D01*
X132534819Y-89636475D02*
X132487200Y-89731713D01*
X132487200Y-89731713D02*
X132439580Y-89779332D01*
%TO.C,R22*%
X76319142Y-90878819D02*
X75985809Y-90402628D01*
X75747714Y-90878819D02*
X75747714Y-89878819D01*
X75747714Y-89878819D02*
X76128666Y-89878819D01*
X76128666Y-89878819D02*
X76223904Y-89926438D01*
X76223904Y-89926438D02*
X76271523Y-89974057D01*
X76271523Y-89974057D02*
X76319142Y-90069295D01*
X76319142Y-90069295D02*
X76319142Y-90212152D01*
X76319142Y-90212152D02*
X76271523Y-90307390D01*
X76271523Y-90307390D02*
X76223904Y-90355009D01*
X76223904Y-90355009D02*
X76128666Y-90402628D01*
X76128666Y-90402628D02*
X75747714Y-90402628D01*
X76700095Y-89974057D02*
X76747714Y-89926438D01*
X76747714Y-89926438D02*
X76842952Y-89878819D01*
X76842952Y-89878819D02*
X77081047Y-89878819D01*
X77081047Y-89878819D02*
X77176285Y-89926438D01*
X77176285Y-89926438D02*
X77223904Y-89974057D01*
X77223904Y-89974057D02*
X77271523Y-90069295D01*
X77271523Y-90069295D02*
X77271523Y-90164533D01*
X77271523Y-90164533D02*
X77223904Y-90307390D01*
X77223904Y-90307390D02*
X76652476Y-90878819D01*
X76652476Y-90878819D02*
X77271523Y-90878819D01*
X77652476Y-89974057D02*
X77700095Y-89926438D01*
X77700095Y-89926438D02*
X77795333Y-89878819D01*
X77795333Y-89878819D02*
X78033428Y-89878819D01*
X78033428Y-89878819D02*
X78128666Y-89926438D01*
X78128666Y-89926438D02*
X78176285Y-89974057D01*
X78176285Y-89974057D02*
X78223904Y-90069295D01*
X78223904Y-90069295D02*
X78223904Y-90164533D01*
X78223904Y-90164533D02*
X78176285Y-90307390D01*
X78176285Y-90307390D02*
X77604857Y-90878819D01*
X77604857Y-90878819D02*
X78223904Y-90878819D01*
%TO.C,R11*%
X175714819Y-130182857D02*
X175238628Y-130516190D01*
X175714819Y-130754285D02*
X174714819Y-130754285D01*
X174714819Y-130754285D02*
X174714819Y-130373333D01*
X174714819Y-130373333D02*
X174762438Y-130278095D01*
X174762438Y-130278095D02*
X174810057Y-130230476D01*
X174810057Y-130230476D02*
X174905295Y-130182857D01*
X174905295Y-130182857D02*
X175048152Y-130182857D01*
X175048152Y-130182857D02*
X175143390Y-130230476D01*
X175143390Y-130230476D02*
X175191009Y-130278095D01*
X175191009Y-130278095D02*
X175238628Y-130373333D01*
X175238628Y-130373333D02*
X175238628Y-130754285D01*
X175714819Y-129230476D02*
X175714819Y-129801904D01*
X175714819Y-129516190D02*
X174714819Y-129516190D01*
X174714819Y-129516190D02*
X174857676Y-129611428D01*
X174857676Y-129611428D02*
X174952914Y-129706666D01*
X174952914Y-129706666D02*
X175000533Y-129801904D01*
X175714819Y-128278095D02*
X175714819Y-128849523D01*
X175714819Y-128563809D02*
X174714819Y-128563809D01*
X174714819Y-128563809D02*
X174857676Y-128659047D01*
X174857676Y-128659047D02*
X174952914Y-128754285D01*
X174952914Y-128754285D02*
X175000533Y-128849523D01*
%TO.C,H8*%
X144018095Y-137944819D02*
X144018095Y-136944819D01*
X144018095Y-137421009D02*
X144589523Y-137421009D01*
X144589523Y-137944819D02*
X144589523Y-136944819D01*
X145208571Y-137373390D02*
X145113333Y-137325771D01*
X145113333Y-137325771D02*
X145065714Y-137278152D01*
X145065714Y-137278152D02*
X145018095Y-137182914D01*
X145018095Y-137182914D02*
X145018095Y-137135295D01*
X145018095Y-137135295D02*
X145065714Y-137040057D01*
X145065714Y-137040057D02*
X145113333Y-136992438D01*
X145113333Y-136992438D02*
X145208571Y-136944819D01*
X145208571Y-136944819D02*
X145399047Y-136944819D01*
X145399047Y-136944819D02*
X145494285Y-136992438D01*
X145494285Y-136992438D02*
X145541904Y-137040057D01*
X145541904Y-137040057D02*
X145589523Y-137135295D01*
X145589523Y-137135295D02*
X145589523Y-137182914D01*
X145589523Y-137182914D02*
X145541904Y-137278152D01*
X145541904Y-137278152D02*
X145494285Y-137325771D01*
X145494285Y-137325771D02*
X145399047Y-137373390D01*
X145399047Y-137373390D02*
X145208571Y-137373390D01*
X145208571Y-137373390D02*
X145113333Y-137421009D01*
X145113333Y-137421009D02*
X145065714Y-137468628D01*
X145065714Y-137468628D02*
X145018095Y-137563866D01*
X145018095Y-137563866D02*
X145018095Y-137754342D01*
X145018095Y-137754342D02*
X145065714Y-137849580D01*
X145065714Y-137849580D02*
X145113333Y-137897200D01*
X145113333Y-137897200D02*
X145208571Y-137944819D01*
X145208571Y-137944819D02*
X145399047Y-137944819D01*
X145399047Y-137944819D02*
X145494285Y-137897200D01*
X145494285Y-137897200D02*
X145541904Y-137849580D01*
X145541904Y-137849580D02*
X145589523Y-137754342D01*
X145589523Y-137754342D02*
X145589523Y-137563866D01*
X145589523Y-137563866D02*
X145541904Y-137468628D01*
X145541904Y-137468628D02*
X145494285Y-137421009D01*
X145494285Y-137421009D02*
X145399047Y-137373390D01*
%TO.C,D1*%
X74450905Y-106522819D02*
X74450905Y-105522819D01*
X74450905Y-105522819D02*
X74689000Y-105522819D01*
X74689000Y-105522819D02*
X74831857Y-105570438D01*
X74831857Y-105570438D02*
X74927095Y-105665676D01*
X74927095Y-105665676D02*
X74974714Y-105760914D01*
X74974714Y-105760914D02*
X75022333Y-105951390D01*
X75022333Y-105951390D02*
X75022333Y-106094247D01*
X75022333Y-106094247D02*
X74974714Y-106284723D01*
X74974714Y-106284723D02*
X74927095Y-106379961D01*
X74927095Y-106379961D02*
X74831857Y-106475200D01*
X74831857Y-106475200D02*
X74689000Y-106522819D01*
X74689000Y-106522819D02*
X74450905Y-106522819D01*
X75974714Y-106522819D02*
X75403286Y-106522819D01*
X75689000Y-106522819D02*
X75689000Y-105522819D01*
X75689000Y-105522819D02*
X75593762Y-105665676D01*
X75593762Y-105665676D02*
X75498524Y-105760914D01*
X75498524Y-105760914D02*
X75403286Y-105808533D01*
%TO.C,R14*%
X149044819Y-93987857D02*
X148568628Y-94321190D01*
X149044819Y-94559285D02*
X148044819Y-94559285D01*
X148044819Y-94559285D02*
X148044819Y-94178333D01*
X148044819Y-94178333D02*
X148092438Y-94083095D01*
X148092438Y-94083095D02*
X148140057Y-94035476D01*
X148140057Y-94035476D02*
X148235295Y-93987857D01*
X148235295Y-93987857D02*
X148378152Y-93987857D01*
X148378152Y-93987857D02*
X148473390Y-94035476D01*
X148473390Y-94035476D02*
X148521009Y-94083095D01*
X148521009Y-94083095D02*
X148568628Y-94178333D01*
X148568628Y-94178333D02*
X148568628Y-94559285D01*
X149044819Y-93035476D02*
X149044819Y-93606904D01*
X149044819Y-93321190D02*
X148044819Y-93321190D01*
X148044819Y-93321190D02*
X148187676Y-93416428D01*
X148187676Y-93416428D02*
X148282914Y-93511666D01*
X148282914Y-93511666D02*
X148330533Y-93606904D01*
X148378152Y-92178333D02*
X149044819Y-92178333D01*
X147997200Y-92416428D02*
X148711485Y-92654523D01*
X148711485Y-92654523D02*
X148711485Y-92035476D01*
%TO.C,C5*%
X172315333Y-85001580D02*
X172267714Y-85049200D01*
X172267714Y-85049200D02*
X172124857Y-85096819D01*
X172124857Y-85096819D02*
X172029619Y-85096819D01*
X172029619Y-85096819D02*
X171886762Y-85049200D01*
X171886762Y-85049200D02*
X171791524Y-84953961D01*
X171791524Y-84953961D02*
X171743905Y-84858723D01*
X171743905Y-84858723D02*
X171696286Y-84668247D01*
X171696286Y-84668247D02*
X171696286Y-84525390D01*
X171696286Y-84525390D02*
X171743905Y-84334914D01*
X171743905Y-84334914D02*
X171791524Y-84239676D01*
X171791524Y-84239676D02*
X171886762Y-84144438D01*
X171886762Y-84144438D02*
X172029619Y-84096819D01*
X172029619Y-84096819D02*
X172124857Y-84096819D01*
X172124857Y-84096819D02*
X172267714Y-84144438D01*
X172267714Y-84144438D02*
X172315333Y-84192057D01*
X173220095Y-84096819D02*
X172743905Y-84096819D01*
X172743905Y-84096819D02*
X172696286Y-84573009D01*
X172696286Y-84573009D02*
X172743905Y-84525390D01*
X172743905Y-84525390D02*
X172839143Y-84477771D01*
X172839143Y-84477771D02*
X173077238Y-84477771D01*
X173077238Y-84477771D02*
X173172476Y-84525390D01*
X173172476Y-84525390D02*
X173220095Y-84573009D01*
X173220095Y-84573009D02*
X173267714Y-84668247D01*
X173267714Y-84668247D02*
X173267714Y-84906342D01*
X173267714Y-84906342D02*
X173220095Y-85001580D01*
X173220095Y-85001580D02*
X173172476Y-85049200D01*
X173172476Y-85049200D02*
X173077238Y-85096819D01*
X173077238Y-85096819D02*
X172839143Y-85096819D01*
X172839143Y-85096819D02*
X172743905Y-85049200D01*
X172743905Y-85049200D02*
X172696286Y-85001580D01*
%TO.C,H10*%
X163861905Y-137944819D02*
X163861905Y-136944819D01*
X163861905Y-137421009D02*
X164433333Y-137421009D01*
X164433333Y-137944819D02*
X164433333Y-136944819D01*
X165433333Y-137944819D02*
X164861905Y-137944819D01*
X165147619Y-137944819D02*
X165147619Y-136944819D01*
X165147619Y-136944819D02*
X165052381Y-137087676D01*
X165052381Y-137087676D02*
X164957143Y-137182914D01*
X164957143Y-137182914D02*
X164861905Y-137230533D01*
X166052381Y-136944819D02*
X166147619Y-136944819D01*
X166147619Y-136944819D02*
X166242857Y-136992438D01*
X166242857Y-136992438D02*
X166290476Y-137040057D01*
X166290476Y-137040057D02*
X166338095Y-137135295D01*
X166338095Y-137135295D02*
X166385714Y-137325771D01*
X166385714Y-137325771D02*
X166385714Y-137563866D01*
X166385714Y-137563866D02*
X166338095Y-137754342D01*
X166338095Y-137754342D02*
X166290476Y-137849580D01*
X166290476Y-137849580D02*
X166242857Y-137897200D01*
X166242857Y-137897200D02*
X166147619Y-137944819D01*
X166147619Y-137944819D02*
X166052381Y-137944819D01*
X166052381Y-137944819D02*
X165957143Y-137897200D01*
X165957143Y-137897200D02*
X165909524Y-137849580D01*
X165909524Y-137849580D02*
X165861905Y-137754342D01*
X165861905Y-137754342D02*
X165814286Y-137563866D01*
X165814286Y-137563866D02*
X165814286Y-137325771D01*
X165814286Y-137325771D02*
X165861905Y-137135295D01*
X165861905Y-137135295D02*
X165909524Y-137040057D01*
X165909524Y-137040057D02*
X165957143Y-136992438D01*
X165957143Y-136992438D02*
X166052381Y-136944819D01*
%TO.C,R3*%
X94434819Y-129706666D02*
X93958628Y-130039999D01*
X94434819Y-130278094D02*
X93434819Y-130278094D01*
X93434819Y-130278094D02*
X93434819Y-129897142D01*
X93434819Y-129897142D02*
X93482438Y-129801904D01*
X93482438Y-129801904D02*
X93530057Y-129754285D01*
X93530057Y-129754285D02*
X93625295Y-129706666D01*
X93625295Y-129706666D02*
X93768152Y-129706666D01*
X93768152Y-129706666D02*
X93863390Y-129754285D01*
X93863390Y-129754285D02*
X93911009Y-129801904D01*
X93911009Y-129801904D02*
X93958628Y-129897142D01*
X93958628Y-129897142D02*
X93958628Y-130278094D01*
X93434819Y-129373332D02*
X93434819Y-128754285D01*
X93434819Y-128754285D02*
X93815771Y-129087618D01*
X93815771Y-129087618D02*
X93815771Y-128944761D01*
X93815771Y-128944761D02*
X93863390Y-128849523D01*
X93863390Y-128849523D02*
X93911009Y-128801904D01*
X93911009Y-128801904D02*
X94006247Y-128754285D01*
X94006247Y-128754285D02*
X94244342Y-128754285D01*
X94244342Y-128754285D02*
X94339580Y-128801904D01*
X94339580Y-128801904D02*
X94387200Y-128849523D01*
X94387200Y-128849523D02*
X94434819Y-128944761D01*
X94434819Y-128944761D02*
X94434819Y-129230475D01*
X94434819Y-129230475D02*
X94387200Y-129325713D01*
X94387200Y-129325713D02*
X94339580Y-129373332D01*
%TO.C,R19*%
X120769142Y-76654819D02*
X120435809Y-76178628D01*
X120197714Y-76654819D02*
X120197714Y-75654819D01*
X120197714Y-75654819D02*
X120578666Y-75654819D01*
X120578666Y-75654819D02*
X120673904Y-75702438D01*
X120673904Y-75702438D02*
X120721523Y-75750057D01*
X120721523Y-75750057D02*
X120769142Y-75845295D01*
X120769142Y-75845295D02*
X120769142Y-75988152D01*
X120769142Y-75988152D02*
X120721523Y-76083390D01*
X120721523Y-76083390D02*
X120673904Y-76131009D01*
X120673904Y-76131009D02*
X120578666Y-76178628D01*
X120578666Y-76178628D02*
X120197714Y-76178628D01*
X121721523Y-76654819D02*
X121150095Y-76654819D01*
X121435809Y-76654819D02*
X121435809Y-75654819D01*
X121435809Y-75654819D02*
X121340571Y-75797676D01*
X121340571Y-75797676D02*
X121245333Y-75892914D01*
X121245333Y-75892914D02*
X121150095Y-75940533D01*
X122197714Y-76654819D02*
X122388190Y-76654819D01*
X122388190Y-76654819D02*
X122483428Y-76607200D01*
X122483428Y-76607200D02*
X122531047Y-76559580D01*
X122531047Y-76559580D02*
X122626285Y-76416723D01*
X122626285Y-76416723D02*
X122673904Y-76226247D01*
X122673904Y-76226247D02*
X122673904Y-75845295D01*
X122673904Y-75845295D02*
X122626285Y-75750057D01*
X122626285Y-75750057D02*
X122578666Y-75702438D01*
X122578666Y-75702438D02*
X122483428Y-75654819D01*
X122483428Y-75654819D02*
X122292952Y-75654819D01*
X122292952Y-75654819D02*
X122197714Y-75702438D01*
X122197714Y-75702438D02*
X122150095Y-75750057D01*
X122150095Y-75750057D02*
X122102476Y-75845295D01*
X122102476Y-75845295D02*
X122102476Y-76083390D01*
X122102476Y-76083390D02*
X122150095Y-76178628D01*
X122150095Y-76178628D02*
X122197714Y-76226247D01*
X122197714Y-76226247D02*
X122292952Y-76273866D01*
X122292952Y-76273866D02*
X122483428Y-76273866D01*
X122483428Y-76273866D02*
X122578666Y-76226247D01*
X122578666Y-76226247D02*
X122626285Y-76178628D01*
X122626285Y-76178628D02*
X122673904Y-76083390D01*
%TO.C,H1*%
X72898095Y-137944819D02*
X72898095Y-136944819D01*
X72898095Y-137421009D02*
X73469523Y-137421009D01*
X73469523Y-137944819D02*
X73469523Y-136944819D01*
X74469523Y-137944819D02*
X73898095Y-137944819D01*
X74183809Y-137944819D02*
X74183809Y-136944819D01*
X74183809Y-136944819D02*
X74088571Y-137087676D01*
X74088571Y-137087676D02*
X73993333Y-137182914D01*
X73993333Y-137182914D02*
X73898095Y-137230533D01*
%TO.C,R10*%
X165554819Y-130182857D02*
X165078628Y-130516190D01*
X165554819Y-130754285D02*
X164554819Y-130754285D01*
X164554819Y-130754285D02*
X164554819Y-130373333D01*
X164554819Y-130373333D02*
X164602438Y-130278095D01*
X164602438Y-130278095D02*
X164650057Y-130230476D01*
X164650057Y-130230476D02*
X164745295Y-130182857D01*
X164745295Y-130182857D02*
X164888152Y-130182857D01*
X164888152Y-130182857D02*
X164983390Y-130230476D01*
X164983390Y-130230476D02*
X165031009Y-130278095D01*
X165031009Y-130278095D02*
X165078628Y-130373333D01*
X165078628Y-130373333D02*
X165078628Y-130754285D01*
X165554819Y-129230476D02*
X165554819Y-129801904D01*
X165554819Y-129516190D02*
X164554819Y-129516190D01*
X164554819Y-129516190D02*
X164697676Y-129611428D01*
X164697676Y-129611428D02*
X164792914Y-129706666D01*
X164792914Y-129706666D02*
X164840533Y-129801904D01*
X164554819Y-128611428D02*
X164554819Y-128516190D01*
X164554819Y-128516190D02*
X164602438Y-128420952D01*
X164602438Y-128420952D02*
X164650057Y-128373333D01*
X164650057Y-128373333D02*
X164745295Y-128325714D01*
X164745295Y-128325714D02*
X164935771Y-128278095D01*
X164935771Y-128278095D02*
X165173866Y-128278095D01*
X165173866Y-128278095D02*
X165364342Y-128325714D01*
X165364342Y-128325714D02*
X165459580Y-128373333D01*
X165459580Y-128373333D02*
X165507200Y-128420952D01*
X165507200Y-128420952D02*
X165554819Y-128516190D01*
X165554819Y-128516190D02*
X165554819Y-128611428D01*
X165554819Y-128611428D02*
X165507200Y-128706666D01*
X165507200Y-128706666D02*
X165459580Y-128754285D01*
X165459580Y-128754285D02*
X165364342Y-128801904D01*
X165364342Y-128801904D02*
X165173866Y-128849523D01*
X165173866Y-128849523D02*
X164935771Y-128849523D01*
X164935771Y-128849523D02*
X164745295Y-128801904D01*
X164745295Y-128801904D02*
X164650057Y-128754285D01*
X164650057Y-128754285D02*
X164602438Y-128706666D01*
X164602438Y-128706666D02*
X164554819Y-128611428D01*
%TO.C,R18*%
X120769142Y-81734819D02*
X120435809Y-81258628D01*
X120197714Y-81734819D02*
X120197714Y-80734819D01*
X120197714Y-80734819D02*
X120578666Y-80734819D01*
X120578666Y-80734819D02*
X120673904Y-80782438D01*
X120673904Y-80782438D02*
X120721523Y-80830057D01*
X120721523Y-80830057D02*
X120769142Y-80925295D01*
X120769142Y-80925295D02*
X120769142Y-81068152D01*
X120769142Y-81068152D02*
X120721523Y-81163390D01*
X120721523Y-81163390D02*
X120673904Y-81211009D01*
X120673904Y-81211009D02*
X120578666Y-81258628D01*
X120578666Y-81258628D02*
X120197714Y-81258628D01*
X121721523Y-81734819D02*
X121150095Y-81734819D01*
X121435809Y-81734819D02*
X121435809Y-80734819D01*
X121435809Y-80734819D02*
X121340571Y-80877676D01*
X121340571Y-80877676D02*
X121245333Y-80972914D01*
X121245333Y-80972914D02*
X121150095Y-81020533D01*
X122292952Y-81163390D02*
X122197714Y-81115771D01*
X122197714Y-81115771D02*
X122150095Y-81068152D01*
X122150095Y-81068152D02*
X122102476Y-80972914D01*
X122102476Y-80972914D02*
X122102476Y-80925295D01*
X122102476Y-80925295D02*
X122150095Y-80830057D01*
X122150095Y-80830057D02*
X122197714Y-80782438D01*
X122197714Y-80782438D02*
X122292952Y-80734819D01*
X122292952Y-80734819D02*
X122483428Y-80734819D01*
X122483428Y-80734819D02*
X122578666Y-80782438D01*
X122578666Y-80782438D02*
X122626285Y-80830057D01*
X122626285Y-80830057D02*
X122673904Y-80925295D01*
X122673904Y-80925295D02*
X122673904Y-80972914D01*
X122673904Y-80972914D02*
X122626285Y-81068152D01*
X122626285Y-81068152D02*
X122578666Y-81115771D01*
X122578666Y-81115771D02*
X122483428Y-81163390D01*
X122483428Y-81163390D02*
X122292952Y-81163390D01*
X122292952Y-81163390D02*
X122197714Y-81211009D01*
X122197714Y-81211009D02*
X122150095Y-81258628D01*
X122150095Y-81258628D02*
X122102476Y-81353866D01*
X122102476Y-81353866D02*
X122102476Y-81544342D01*
X122102476Y-81544342D02*
X122150095Y-81639580D01*
X122150095Y-81639580D02*
X122197714Y-81687200D01*
X122197714Y-81687200D02*
X122292952Y-81734819D01*
X122292952Y-81734819D02*
X122483428Y-81734819D01*
X122483428Y-81734819D02*
X122578666Y-81687200D01*
X122578666Y-81687200D02*
X122626285Y-81639580D01*
X122626285Y-81639580D02*
X122673904Y-81544342D01*
X122673904Y-81544342D02*
X122673904Y-81353866D01*
X122673904Y-81353866D02*
X122626285Y-81258628D01*
X122626285Y-81258628D02*
X122578666Y-81211009D01*
X122578666Y-81211009D02*
X122483428Y-81163390D01*
%TO.C,C4*%
X132183333Y-96177580D02*
X132135714Y-96225200D01*
X132135714Y-96225200D02*
X131992857Y-96272819D01*
X131992857Y-96272819D02*
X131897619Y-96272819D01*
X131897619Y-96272819D02*
X131754762Y-96225200D01*
X131754762Y-96225200D02*
X131659524Y-96129961D01*
X131659524Y-96129961D02*
X131611905Y-96034723D01*
X131611905Y-96034723D02*
X131564286Y-95844247D01*
X131564286Y-95844247D02*
X131564286Y-95701390D01*
X131564286Y-95701390D02*
X131611905Y-95510914D01*
X131611905Y-95510914D02*
X131659524Y-95415676D01*
X131659524Y-95415676D02*
X131754762Y-95320438D01*
X131754762Y-95320438D02*
X131897619Y-95272819D01*
X131897619Y-95272819D02*
X131992857Y-95272819D01*
X131992857Y-95272819D02*
X132135714Y-95320438D01*
X132135714Y-95320438D02*
X132183333Y-95368057D01*
X133040476Y-95606152D02*
X133040476Y-96272819D01*
X132802381Y-95225200D02*
X132564286Y-95939485D01*
X132564286Y-95939485D02*
X133183333Y-95939485D01*
%TO.C,R2*%
X84274819Y-129706666D02*
X83798628Y-130039999D01*
X84274819Y-130278094D02*
X83274819Y-130278094D01*
X83274819Y-130278094D02*
X83274819Y-129897142D01*
X83274819Y-129897142D02*
X83322438Y-129801904D01*
X83322438Y-129801904D02*
X83370057Y-129754285D01*
X83370057Y-129754285D02*
X83465295Y-129706666D01*
X83465295Y-129706666D02*
X83608152Y-129706666D01*
X83608152Y-129706666D02*
X83703390Y-129754285D01*
X83703390Y-129754285D02*
X83751009Y-129801904D01*
X83751009Y-129801904D02*
X83798628Y-129897142D01*
X83798628Y-129897142D02*
X83798628Y-130278094D01*
X83370057Y-129325713D02*
X83322438Y-129278094D01*
X83322438Y-129278094D02*
X83274819Y-129182856D01*
X83274819Y-129182856D02*
X83274819Y-128944761D01*
X83274819Y-128944761D02*
X83322438Y-128849523D01*
X83322438Y-128849523D02*
X83370057Y-128801904D01*
X83370057Y-128801904D02*
X83465295Y-128754285D01*
X83465295Y-128754285D02*
X83560533Y-128754285D01*
X83560533Y-128754285D02*
X83703390Y-128801904D01*
X83703390Y-128801904D02*
X84274819Y-129373332D01*
X84274819Y-129373332D02*
X84274819Y-128754285D01*
%TO.C,H5*%
X113538095Y-137944819D02*
X113538095Y-136944819D01*
X113538095Y-137421009D02*
X114109523Y-137421009D01*
X114109523Y-137944819D02*
X114109523Y-136944819D01*
X115061904Y-136944819D02*
X114585714Y-136944819D01*
X114585714Y-136944819D02*
X114538095Y-137421009D01*
X114538095Y-137421009D02*
X114585714Y-137373390D01*
X114585714Y-137373390D02*
X114680952Y-137325771D01*
X114680952Y-137325771D02*
X114919047Y-137325771D01*
X114919047Y-137325771D02*
X115014285Y-137373390D01*
X115014285Y-137373390D02*
X115061904Y-137421009D01*
X115061904Y-137421009D02*
X115109523Y-137516247D01*
X115109523Y-137516247D02*
X115109523Y-137754342D01*
X115109523Y-137754342D02*
X115061904Y-137849580D01*
X115061904Y-137849580D02*
X115014285Y-137897200D01*
X115014285Y-137897200D02*
X114919047Y-137944819D01*
X114919047Y-137944819D02*
X114680952Y-137944819D01*
X114680952Y-137944819D02*
X114585714Y-137897200D01*
X114585714Y-137897200D02*
X114538095Y-137849580D01*
%TO.C,R12*%
X185874819Y-130182857D02*
X185398628Y-130516190D01*
X185874819Y-130754285D02*
X184874819Y-130754285D01*
X184874819Y-130754285D02*
X184874819Y-130373333D01*
X184874819Y-130373333D02*
X184922438Y-130278095D01*
X184922438Y-130278095D02*
X184970057Y-130230476D01*
X184970057Y-130230476D02*
X185065295Y-130182857D01*
X185065295Y-130182857D02*
X185208152Y-130182857D01*
X185208152Y-130182857D02*
X185303390Y-130230476D01*
X185303390Y-130230476D02*
X185351009Y-130278095D01*
X185351009Y-130278095D02*
X185398628Y-130373333D01*
X185398628Y-130373333D02*
X185398628Y-130754285D01*
X185874819Y-129230476D02*
X185874819Y-129801904D01*
X185874819Y-129516190D02*
X184874819Y-129516190D01*
X184874819Y-129516190D02*
X185017676Y-129611428D01*
X185017676Y-129611428D02*
X185112914Y-129706666D01*
X185112914Y-129706666D02*
X185160533Y-129801904D01*
X184970057Y-128849523D02*
X184922438Y-128801904D01*
X184922438Y-128801904D02*
X184874819Y-128706666D01*
X184874819Y-128706666D02*
X184874819Y-128468571D01*
X184874819Y-128468571D02*
X184922438Y-128373333D01*
X184922438Y-128373333D02*
X184970057Y-128325714D01*
X184970057Y-128325714D02*
X185065295Y-128278095D01*
X185065295Y-128278095D02*
X185160533Y-128278095D01*
X185160533Y-128278095D02*
X185303390Y-128325714D01*
X185303390Y-128325714D02*
X185874819Y-128897142D01*
X185874819Y-128897142D02*
X185874819Y-128278095D01*
%TO.C,R21*%
X87322819Y-102496857D02*
X86846628Y-102830190D01*
X87322819Y-103068285D02*
X86322819Y-103068285D01*
X86322819Y-103068285D02*
X86322819Y-102687333D01*
X86322819Y-102687333D02*
X86370438Y-102592095D01*
X86370438Y-102592095D02*
X86418057Y-102544476D01*
X86418057Y-102544476D02*
X86513295Y-102496857D01*
X86513295Y-102496857D02*
X86656152Y-102496857D01*
X86656152Y-102496857D02*
X86751390Y-102544476D01*
X86751390Y-102544476D02*
X86799009Y-102592095D01*
X86799009Y-102592095D02*
X86846628Y-102687333D01*
X86846628Y-102687333D02*
X86846628Y-103068285D01*
X86418057Y-102115904D02*
X86370438Y-102068285D01*
X86370438Y-102068285D02*
X86322819Y-101973047D01*
X86322819Y-101973047D02*
X86322819Y-101734952D01*
X86322819Y-101734952D02*
X86370438Y-101639714D01*
X86370438Y-101639714D02*
X86418057Y-101592095D01*
X86418057Y-101592095D02*
X86513295Y-101544476D01*
X86513295Y-101544476D02*
X86608533Y-101544476D01*
X86608533Y-101544476D02*
X86751390Y-101592095D01*
X86751390Y-101592095D02*
X87322819Y-102163523D01*
X87322819Y-102163523D02*
X87322819Y-101544476D01*
X87322819Y-100592095D02*
X87322819Y-101163523D01*
X87322819Y-100877809D02*
X86322819Y-100877809D01*
X86322819Y-100877809D02*
X86465676Y-100973047D01*
X86465676Y-100973047D02*
X86560914Y-101068285D01*
X86560914Y-101068285D02*
X86608533Y-101163523D01*
%TO.C,R13*%
X141932819Y-81160857D02*
X141456628Y-81494190D01*
X141932819Y-81732285D02*
X140932819Y-81732285D01*
X140932819Y-81732285D02*
X140932819Y-81351333D01*
X140932819Y-81351333D02*
X140980438Y-81256095D01*
X140980438Y-81256095D02*
X141028057Y-81208476D01*
X141028057Y-81208476D02*
X141123295Y-81160857D01*
X141123295Y-81160857D02*
X141266152Y-81160857D01*
X141266152Y-81160857D02*
X141361390Y-81208476D01*
X141361390Y-81208476D02*
X141409009Y-81256095D01*
X141409009Y-81256095D02*
X141456628Y-81351333D01*
X141456628Y-81351333D02*
X141456628Y-81732285D01*
X141932819Y-80208476D02*
X141932819Y-80779904D01*
X141932819Y-80494190D02*
X140932819Y-80494190D01*
X140932819Y-80494190D02*
X141075676Y-80589428D01*
X141075676Y-80589428D02*
X141170914Y-80684666D01*
X141170914Y-80684666D02*
X141218533Y-80779904D01*
X140932819Y-79875142D02*
X140932819Y-79256095D01*
X140932819Y-79256095D02*
X141313771Y-79589428D01*
X141313771Y-79589428D02*
X141313771Y-79446571D01*
X141313771Y-79446571D02*
X141361390Y-79351333D01*
X141361390Y-79351333D02*
X141409009Y-79303714D01*
X141409009Y-79303714D02*
X141504247Y-79256095D01*
X141504247Y-79256095D02*
X141742342Y-79256095D01*
X141742342Y-79256095D02*
X141837580Y-79303714D01*
X141837580Y-79303714D02*
X141885200Y-79351333D01*
X141885200Y-79351333D02*
X141932819Y-79446571D01*
X141932819Y-79446571D02*
X141932819Y-79732285D01*
X141932819Y-79732285D02*
X141885200Y-79827523D01*
X141885200Y-79827523D02*
X141837580Y-79875142D01*
%TO.C,SW2*%
X91922667Y-114707200D02*
X92065524Y-114754819D01*
X92065524Y-114754819D02*
X92303619Y-114754819D01*
X92303619Y-114754819D02*
X92398857Y-114707200D01*
X92398857Y-114707200D02*
X92446476Y-114659580D01*
X92446476Y-114659580D02*
X92494095Y-114564342D01*
X92494095Y-114564342D02*
X92494095Y-114469104D01*
X92494095Y-114469104D02*
X92446476Y-114373866D01*
X92446476Y-114373866D02*
X92398857Y-114326247D01*
X92398857Y-114326247D02*
X92303619Y-114278628D01*
X92303619Y-114278628D02*
X92113143Y-114231009D01*
X92113143Y-114231009D02*
X92017905Y-114183390D01*
X92017905Y-114183390D02*
X91970286Y-114135771D01*
X91970286Y-114135771D02*
X91922667Y-114040533D01*
X91922667Y-114040533D02*
X91922667Y-113945295D01*
X91922667Y-113945295D02*
X91970286Y-113850057D01*
X91970286Y-113850057D02*
X92017905Y-113802438D01*
X92017905Y-113802438D02*
X92113143Y-113754819D01*
X92113143Y-113754819D02*
X92351238Y-113754819D01*
X92351238Y-113754819D02*
X92494095Y-113802438D01*
X92827429Y-113754819D02*
X93065524Y-114754819D01*
X93065524Y-114754819D02*
X93256000Y-114040533D01*
X93256000Y-114040533D02*
X93446476Y-114754819D01*
X93446476Y-114754819D02*
X93684572Y-113754819D01*
X94017905Y-113850057D02*
X94065524Y-113802438D01*
X94065524Y-113802438D02*
X94160762Y-113754819D01*
X94160762Y-113754819D02*
X94398857Y-113754819D01*
X94398857Y-113754819D02*
X94494095Y-113802438D01*
X94494095Y-113802438D02*
X94541714Y-113850057D01*
X94541714Y-113850057D02*
X94589333Y-113945295D01*
X94589333Y-113945295D02*
X94589333Y-114040533D01*
X94589333Y-114040533D02*
X94541714Y-114183390D01*
X94541714Y-114183390D02*
X93970286Y-114754819D01*
X93970286Y-114754819D02*
X94589333Y-114754819D01*
%TO.C,RV5*%
X115008819Y-115022238D02*
X114532628Y-115355571D01*
X115008819Y-115593666D02*
X114008819Y-115593666D01*
X114008819Y-115593666D02*
X114008819Y-115212714D01*
X114008819Y-115212714D02*
X114056438Y-115117476D01*
X114056438Y-115117476D02*
X114104057Y-115069857D01*
X114104057Y-115069857D02*
X114199295Y-115022238D01*
X114199295Y-115022238D02*
X114342152Y-115022238D01*
X114342152Y-115022238D02*
X114437390Y-115069857D01*
X114437390Y-115069857D02*
X114485009Y-115117476D01*
X114485009Y-115117476D02*
X114532628Y-115212714D01*
X114532628Y-115212714D02*
X114532628Y-115593666D01*
X114008819Y-114736523D02*
X115008819Y-114403190D01*
X115008819Y-114403190D02*
X114008819Y-114069857D01*
X114008819Y-113260333D02*
X114008819Y-113736523D01*
X114008819Y-113736523D02*
X114485009Y-113784142D01*
X114485009Y-113784142D02*
X114437390Y-113736523D01*
X114437390Y-113736523D02*
X114389771Y-113641285D01*
X114389771Y-113641285D02*
X114389771Y-113403190D01*
X114389771Y-113403190D02*
X114437390Y-113307952D01*
X114437390Y-113307952D02*
X114485009Y-113260333D01*
X114485009Y-113260333D02*
X114580247Y-113212714D01*
X114580247Y-113212714D02*
X114818342Y-113212714D01*
X114818342Y-113212714D02*
X114913580Y-113260333D01*
X114913580Y-113260333D02*
X114961200Y-113307952D01*
X114961200Y-113307952D02*
X115008819Y-113403190D01*
X115008819Y-113403190D02*
X115008819Y-113641285D01*
X115008819Y-113641285D02*
X114961200Y-113736523D01*
X114961200Y-113736523D02*
X114913580Y-113784142D01*
%TO.C,R6*%
X124914819Y-129706666D02*
X124438628Y-130039999D01*
X124914819Y-130278094D02*
X123914819Y-130278094D01*
X123914819Y-130278094D02*
X123914819Y-129897142D01*
X123914819Y-129897142D02*
X123962438Y-129801904D01*
X123962438Y-129801904D02*
X124010057Y-129754285D01*
X124010057Y-129754285D02*
X124105295Y-129706666D01*
X124105295Y-129706666D02*
X124248152Y-129706666D01*
X124248152Y-129706666D02*
X124343390Y-129754285D01*
X124343390Y-129754285D02*
X124391009Y-129801904D01*
X124391009Y-129801904D02*
X124438628Y-129897142D01*
X124438628Y-129897142D02*
X124438628Y-130278094D01*
X123914819Y-128849523D02*
X123914819Y-129039999D01*
X123914819Y-129039999D02*
X123962438Y-129135237D01*
X123962438Y-129135237D02*
X124010057Y-129182856D01*
X124010057Y-129182856D02*
X124152914Y-129278094D01*
X124152914Y-129278094D02*
X124343390Y-129325713D01*
X124343390Y-129325713D02*
X124724342Y-129325713D01*
X124724342Y-129325713D02*
X124819580Y-129278094D01*
X124819580Y-129278094D02*
X124867200Y-129230475D01*
X124867200Y-129230475D02*
X124914819Y-129135237D01*
X124914819Y-129135237D02*
X124914819Y-128944761D01*
X124914819Y-128944761D02*
X124867200Y-128849523D01*
X124867200Y-128849523D02*
X124819580Y-128801904D01*
X124819580Y-128801904D02*
X124724342Y-128754285D01*
X124724342Y-128754285D02*
X124486247Y-128754285D01*
X124486247Y-128754285D02*
X124391009Y-128801904D01*
X124391009Y-128801904D02*
X124343390Y-128849523D01*
X124343390Y-128849523D02*
X124295771Y-128944761D01*
X124295771Y-128944761D02*
X124295771Y-129135237D01*
X124295771Y-129135237D02*
X124343390Y-129230475D01*
X124343390Y-129230475D02*
X124391009Y-129278094D01*
X124391009Y-129278094D02*
X124486247Y-129325713D01*
%TO.C,C7*%
X148949580Y-80778666D02*
X148997200Y-80826285D01*
X148997200Y-80826285D02*
X149044819Y-80969142D01*
X149044819Y-80969142D02*
X149044819Y-81064380D01*
X149044819Y-81064380D02*
X148997200Y-81207237D01*
X148997200Y-81207237D02*
X148901961Y-81302475D01*
X148901961Y-81302475D02*
X148806723Y-81350094D01*
X148806723Y-81350094D02*
X148616247Y-81397713D01*
X148616247Y-81397713D02*
X148473390Y-81397713D01*
X148473390Y-81397713D02*
X148282914Y-81350094D01*
X148282914Y-81350094D02*
X148187676Y-81302475D01*
X148187676Y-81302475D02*
X148092438Y-81207237D01*
X148092438Y-81207237D02*
X148044819Y-81064380D01*
X148044819Y-81064380D02*
X148044819Y-80969142D01*
X148044819Y-80969142D02*
X148092438Y-80826285D01*
X148092438Y-80826285D02*
X148140057Y-80778666D01*
X148044819Y-80445332D02*
X148044819Y-79778666D01*
X148044819Y-79778666D02*
X149044819Y-80207237D01*
%TO.C,J3*%
X177740666Y-75626819D02*
X177740666Y-76341104D01*
X177740666Y-76341104D02*
X177693047Y-76483961D01*
X177693047Y-76483961D02*
X177597809Y-76579200D01*
X177597809Y-76579200D02*
X177454952Y-76626819D01*
X177454952Y-76626819D02*
X177359714Y-76626819D01*
X178121619Y-75626819D02*
X178740666Y-75626819D01*
X178740666Y-75626819D02*
X178407333Y-76007771D01*
X178407333Y-76007771D02*
X178550190Y-76007771D01*
X178550190Y-76007771D02*
X178645428Y-76055390D01*
X178645428Y-76055390D02*
X178693047Y-76103009D01*
X178693047Y-76103009D02*
X178740666Y-76198247D01*
X178740666Y-76198247D02*
X178740666Y-76436342D01*
X178740666Y-76436342D02*
X178693047Y-76531580D01*
X178693047Y-76531580D02*
X178645428Y-76579200D01*
X178645428Y-76579200D02*
X178550190Y-76626819D01*
X178550190Y-76626819D02*
X178264476Y-76626819D01*
X178264476Y-76626819D02*
X178169238Y-76579200D01*
X178169238Y-76579200D02*
X178121619Y-76531580D01*
%TO.C,U2*%
X97371819Y-86613904D02*
X98181342Y-86613904D01*
X98181342Y-86613904D02*
X98276580Y-86566285D01*
X98276580Y-86566285D02*
X98324200Y-86518666D01*
X98324200Y-86518666D02*
X98371819Y-86423428D01*
X98371819Y-86423428D02*
X98371819Y-86232952D01*
X98371819Y-86232952D02*
X98324200Y-86137714D01*
X98324200Y-86137714D02*
X98276580Y-86090095D01*
X98276580Y-86090095D02*
X98181342Y-86042476D01*
X98181342Y-86042476D02*
X97371819Y-86042476D01*
X97467057Y-85613904D02*
X97419438Y-85566285D01*
X97419438Y-85566285D02*
X97371819Y-85471047D01*
X97371819Y-85471047D02*
X97371819Y-85232952D01*
X97371819Y-85232952D02*
X97419438Y-85137714D01*
X97419438Y-85137714D02*
X97467057Y-85090095D01*
X97467057Y-85090095D02*
X97562295Y-85042476D01*
X97562295Y-85042476D02*
X97657533Y-85042476D01*
X97657533Y-85042476D02*
X97800390Y-85090095D01*
X97800390Y-85090095D02*
X98371819Y-85661523D01*
X98371819Y-85661523D02*
X98371819Y-85042476D01*
%TO.C,U3*%
X128105819Y-86994904D02*
X128915342Y-86994904D01*
X128915342Y-86994904D02*
X129010580Y-86947285D01*
X129010580Y-86947285D02*
X129058200Y-86899666D01*
X129058200Y-86899666D02*
X129105819Y-86804428D01*
X129105819Y-86804428D02*
X129105819Y-86613952D01*
X129105819Y-86613952D02*
X129058200Y-86518714D01*
X129058200Y-86518714D02*
X129010580Y-86471095D01*
X129010580Y-86471095D02*
X128915342Y-86423476D01*
X128915342Y-86423476D02*
X128105819Y-86423476D01*
X128105819Y-86042523D02*
X128105819Y-85423476D01*
X128105819Y-85423476D02*
X128486771Y-85756809D01*
X128486771Y-85756809D02*
X128486771Y-85613952D01*
X128486771Y-85613952D02*
X128534390Y-85518714D01*
X128534390Y-85518714D02*
X128582009Y-85471095D01*
X128582009Y-85471095D02*
X128677247Y-85423476D01*
X128677247Y-85423476D02*
X128915342Y-85423476D01*
X128915342Y-85423476D02*
X129010580Y-85471095D01*
X129010580Y-85471095D02*
X129058200Y-85518714D01*
X129058200Y-85518714D02*
X129105819Y-85613952D01*
X129105819Y-85613952D02*
X129105819Y-85899666D01*
X129105819Y-85899666D02*
X129058200Y-85994904D01*
X129058200Y-85994904D02*
X129010580Y-86042523D01*
%TO.C,Q2*%
X162464761Y-92244057D02*
X162369523Y-92196438D01*
X162369523Y-92196438D02*
X162274285Y-92101200D01*
X162274285Y-92101200D02*
X162131428Y-91958342D01*
X162131428Y-91958342D02*
X162036190Y-91910723D01*
X162036190Y-91910723D02*
X161940952Y-91910723D01*
X161988571Y-92148819D02*
X161893333Y-92101200D01*
X161893333Y-92101200D02*
X161798095Y-92005961D01*
X161798095Y-92005961D02*
X161750476Y-91815485D01*
X161750476Y-91815485D02*
X161750476Y-91482152D01*
X161750476Y-91482152D02*
X161798095Y-91291676D01*
X161798095Y-91291676D02*
X161893333Y-91196438D01*
X161893333Y-91196438D02*
X161988571Y-91148819D01*
X161988571Y-91148819D02*
X162179047Y-91148819D01*
X162179047Y-91148819D02*
X162274285Y-91196438D01*
X162274285Y-91196438D02*
X162369523Y-91291676D01*
X162369523Y-91291676D02*
X162417142Y-91482152D01*
X162417142Y-91482152D02*
X162417142Y-91815485D01*
X162417142Y-91815485D02*
X162369523Y-92005961D01*
X162369523Y-92005961D02*
X162274285Y-92101200D01*
X162274285Y-92101200D02*
X162179047Y-92148819D01*
X162179047Y-92148819D02*
X161988571Y-92148819D01*
X162798095Y-91244057D02*
X162845714Y-91196438D01*
X162845714Y-91196438D02*
X162940952Y-91148819D01*
X162940952Y-91148819D02*
X163179047Y-91148819D01*
X163179047Y-91148819D02*
X163274285Y-91196438D01*
X163274285Y-91196438D02*
X163321904Y-91244057D01*
X163321904Y-91244057D02*
X163369523Y-91339295D01*
X163369523Y-91339295D02*
X163369523Y-91434533D01*
X163369523Y-91434533D02*
X163321904Y-91577390D01*
X163321904Y-91577390D02*
X162750476Y-92148819D01*
X162750476Y-92148819D02*
X163369523Y-92148819D01*
%TO.C,RV1*%
X159204819Y-115022238D02*
X158728628Y-115355571D01*
X159204819Y-115593666D02*
X158204819Y-115593666D01*
X158204819Y-115593666D02*
X158204819Y-115212714D01*
X158204819Y-115212714D02*
X158252438Y-115117476D01*
X158252438Y-115117476D02*
X158300057Y-115069857D01*
X158300057Y-115069857D02*
X158395295Y-115022238D01*
X158395295Y-115022238D02*
X158538152Y-115022238D01*
X158538152Y-115022238D02*
X158633390Y-115069857D01*
X158633390Y-115069857D02*
X158681009Y-115117476D01*
X158681009Y-115117476D02*
X158728628Y-115212714D01*
X158728628Y-115212714D02*
X158728628Y-115593666D01*
X158204819Y-114736523D02*
X159204819Y-114403190D01*
X159204819Y-114403190D02*
X158204819Y-114069857D01*
X159204819Y-113212714D02*
X159204819Y-113784142D01*
X159204819Y-113498428D02*
X158204819Y-113498428D01*
X158204819Y-113498428D02*
X158347676Y-113593666D01*
X158347676Y-113593666D02*
X158442914Y-113688904D01*
X158442914Y-113688904D02*
X158490533Y-113784142D01*
%TO.C,R4*%
X104594819Y-129706666D02*
X104118628Y-130039999D01*
X104594819Y-130278094D02*
X103594819Y-130278094D01*
X103594819Y-130278094D02*
X103594819Y-129897142D01*
X103594819Y-129897142D02*
X103642438Y-129801904D01*
X103642438Y-129801904D02*
X103690057Y-129754285D01*
X103690057Y-129754285D02*
X103785295Y-129706666D01*
X103785295Y-129706666D02*
X103928152Y-129706666D01*
X103928152Y-129706666D02*
X104023390Y-129754285D01*
X104023390Y-129754285D02*
X104071009Y-129801904D01*
X104071009Y-129801904D02*
X104118628Y-129897142D01*
X104118628Y-129897142D02*
X104118628Y-130278094D01*
X103928152Y-128849523D02*
X104594819Y-128849523D01*
X103547200Y-129087618D02*
X104261485Y-129325713D01*
X104261485Y-129325713D02*
X104261485Y-128706666D01*
%TO.C,R7*%
X135074819Y-129706666D02*
X134598628Y-130039999D01*
X135074819Y-130278094D02*
X134074819Y-130278094D01*
X134074819Y-130278094D02*
X134074819Y-129897142D01*
X134074819Y-129897142D02*
X134122438Y-129801904D01*
X134122438Y-129801904D02*
X134170057Y-129754285D01*
X134170057Y-129754285D02*
X134265295Y-129706666D01*
X134265295Y-129706666D02*
X134408152Y-129706666D01*
X134408152Y-129706666D02*
X134503390Y-129754285D01*
X134503390Y-129754285D02*
X134551009Y-129801904D01*
X134551009Y-129801904D02*
X134598628Y-129897142D01*
X134598628Y-129897142D02*
X134598628Y-130278094D01*
X134074819Y-129373332D02*
X134074819Y-128706666D01*
X134074819Y-128706666D02*
X135074819Y-129135237D01*
%TO.C,H9*%
X154178095Y-137944819D02*
X154178095Y-136944819D01*
X154178095Y-137421009D02*
X154749523Y-137421009D01*
X154749523Y-137944819D02*
X154749523Y-136944819D01*
X155273333Y-137944819D02*
X155463809Y-137944819D01*
X155463809Y-137944819D02*
X155559047Y-137897200D01*
X155559047Y-137897200D02*
X155606666Y-137849580D01*
X155606666Y-137849580D02*
X155701904Y-137706723D01*
X155701904Y-137706723D02*
X155749523Y-137516247D01*
X155749523Y-137516247D02*
X155749523Y-137135295D01*
X155749523Y-137135295D02*
X155701904Y-137040057D01*
X155701904Y-137040057D02*
X155654285Y-136992438D01*
X155654285Y-136992438D02*
X155559047Y-136944819D01*
X155559047Y-136944819D02*
X155368571Y-136944819D01*
X155368571Y-136944819D02*
X155273333Y-136992438D01*
X155273333Y-136992438D02*
X155225714Y-137040057D01*
X155225714Y-137040057D02*
X155178095Y-137135295D01*
X155178095Y-137135295D02*
X155178095Y-137373390D01*
X155178095Y-137373390D02*
X155225714Y-137468628D01*
X155225714Y-137468628D02*
X155273333Y-137516247D01*
X155273333Y-137516247D02*
X155368571Y-137563866D01*
X155368571Y-137563866D02*
X155559047Y-137563866D01*
X155559047Y-137563866D02*
X155654285Y-137516247D01*
X155654285Y-137516247D02*
X155701904Y-137468628D01*
X155701904Y-137468628D02*
X155749523Y-137373390D01*
%TO.C,R5*%
X114754819Y-129706666D02*
X114278628Y-130039999D01*
X114754819Y-130278094D02*
X113754819Y-130278094D01*
X113754819Y-130278094D02*
X113754819Y-129897142D01*
X113754819Y-129897142D02*
X113802438Y-129801904D01*
X113802438Y-129801904D02*
X113850057Y-129754285D01*
X113850057Y-129754285D02*
X113945295Y-129706666D01*
X113945295Y-129706666D02*
X114088152Y-129706666D01*
X114088152Y-129706666D02*
X114183390Y-129754285D01*
X114183390Y-129754285D02*
X114231009Y-129801904D01*
X114231009Y-129801904D02*
X114278628Y-129897142D01*
X114278628Y-129897142D02*
X114278628Y-130278094D01*
X113754819Y-128801904D02*
X113754819Y-129278094D01*
X113754819Y-129278094D02*
X114231009Y-129325713D01*
X114231009Y-129325713D02*
X114183390Y-129278094D01*
X114183390Y-129278094D02*
X114135771Y-129182856D01*
X114135771Y-129182856D02*
X114135771Y-128944761D01*
X114135771Y-128944761D02*
X114183390Y-128849523D01*
X114183390Y-128849523D02*
X114231009Y-128801904D01*
X114231009Y-128801904D02*
X114326247Y-128754285D01*
X114326247Y-128754285D02*
X114564342Y-128754285D01*
X114564342Y-128754285D02*
X114659580Y-128801904D01*
X114659580Y-128801904D02*
X114707200Y-128849523D01*
X114707200Y-128849523D02*
X114754819Y-128944761D01*
X114754819Y-128944761D02*
X114754819Y-129182856D01*
X114754819Y-129182856D02*
X114707200Y-129278094D01*
X114707200Y-129278094D02*
X114659580Y-129325713D01*
%TO.C,RV2*%
X182826819Y-115022238D02*
X182350628Y-115355571D01*
X182826819Y-115593666D02*
X181826819Y-115593666D01*
X181826819Y-115593666D02*
X181826819Y-115212714D01*
X181826819Y-115212714D02*
X181874438Y-115117476D01*
X181874438Y-115117476D02*
X181922057Y-115069857D01*
X181922057Y-115069857D02*
X182017295Y-115022238D01*
X182017295Y-115022238D02*
X182160152Y-115022238D01*
X182160152Y-115022238D02*
X182255390Y-115069857D01*
X182255390Y-115069857D02*
X182303009Y-115117476D01*
X182303009Y-115117476D02*
X182350628Y-115212714D01*
X182350628Y-115212714D02*
X182350628Y-115593666D01*
X181826819Y-114736523D02*
X182826819Y-114403190D01*
X182826819Y-114403190D02*
X181826819Y-114069857D01*
X181922057Y-113784142D02*
X181874438Y-113736523D01*
X181874438Y-113736523D02*
X181826819Y-113641285D01*
X181826819Y-113641285D02*
X181826819Y-113403190D01*
X181826819Y-113403190D02*
X181874438Y-113307952D01*
X181874438Y-113307952D02*
X181922057Y-113260333D01*
X181922057Y-113260333D02*
X182017295Y-113212714D01*
X182017295Y-113212714D02*
X182112533Y-113212714D01*
X182112533Y-113212714D02*
X182255390Y-113260333D01*
X182255390Y-113260333D02*
X182826819Y-113831761D01*
X182826819Y-113831761D02*
X182826819Y-113212714D01*
%TO.C,R1*%
X73987819Y-129706666D02*
X73511628Y-130039999D01*
X73987819Y-130278094D02*
X72987819Y-130278094D01*
X72987819Y-130278094D02*
X72987819Y-129897142D01*
X72987819Y-129897142D02*
X73035438Y-129801904D01*
X73035438Y-129801904D02*
X73083057Y-129754285D01*
X73083057Y-129754285D02*
X73178295Y-129706666D01*
X73178295Y-129706666D02*
X73321152Y-129706666D01*
X73321152Y-129706666D02*
X73416390Y-129754285D01*
X73416390Y-129754285D02*
X73464009Y-129801904D01*
X73464009Y-129801904D02*
X73511628Y-129897142D01*
X73511628Y-129897142D02*
X73511628Y-130278094D01*
X73987819Y-128754285D02*
X73987819Y-129325713D01*
X73987819Y-129039999D02*
X72987819Y-129039999D01*
X72987819Y-129039999D02*
X73130676Y-129135237D01*
X73130676Y-129135237D02*
X73225914Y-129230475D01*
X73225914Y-129230475D02*
X73273533Y-129325713D01*
%TO.C,R15*%
X141089142Y-103578819D02*
X140755809Y-103102628D01*
X140517714Y-103578819D02*
X140517714Y-102578819D01*
X140517714Y-102578819D02*
X140898666Y-102578819D01*
X140898666Y-102578819D02*
X140993904Y-102626438D01*
X140993904Y-102626438D02*
X141041523Y-102674057D01*
X141041523Y-102674057D02*
X141089142Y-102769295D01*
X141089142Y-102769295D02*
X141089142Y-102912152D01*
X141089142Y-102912152D02*
X141041523Y-103007390D01*
X141041523Y-103007390D02*
X140993904Y-103055009D01*
X140993904Y-103055009D02*
X140898666Y-103102628D01*
X140898666Y-103102628D02*
X140517714Y-103102628D01*
X142041523Y-103578819D02*
X141470095Y-103578819D01*
X141755809Y-103578819D02*
X141755809Y-102578819D01*
X141755809Y-102578819D02*
X141660571Y-102721676D01*
X141660571Y-102721676D02*
X141565333Y-102816914D01*
X141565333Y-102816914D02*
X141470095Y-102864533D01*
X142946285Y-102578819D02*
X142470095Y-102578819D01*
X142470095Y-102578819D02*
X142422476Y-103055009D01*
X142422476Y-103055009D02*
X142470095Y-103007390D01*
X142470095Y-103007390D02*
X142565333Y-102959771D01*
X142565333Y-102959771D02*
X142803428Y-102959771D01*
X142803428Y-102959771D02*
X142898666Y-103007390D01*
X142898666Y-103007390D02*
X142946285Y-103055009D01*
X142946285Y-103055009D02*
X142993904Y-103150247D01*
X142993904Y-103150247D02*
X142993904Y-103388342D01*
X142993904Y-103388342D02*
X142946285Y-103483580D01*
X142946285Y-103483580D02*
X142898666Y-103531200D01*
X142898666Y-103531200D02*
X142803428Y-103578819D01*
X142803428Y-103578819D02*
X142565333Y-103578819D01*
X142565333Y-103578819D02*
X142470095Y-103531200D01*
X142470095Y-103531200D02*
X142422476Y-103483580D01*
%TO.C,H11*%
X174021905Y-137944819D02*
X174021905Y-136944819D01*
X174021905Y-137421009D02*
X174593333Y-137421009D01*
X174593333Y-137944819D02*
X174593333Y-136944819D01*
X175593333Y-137944819D02*
X175021905Y-137944819D01*
X175307619Y-137944819D02*
X175307619Y-136944819D01*
X175307619Y-136944819D02*
X175212381Y-137087676D01*
X175212381Y-137087676D02*
X175117143Y-137182914D01*
X175117143Y-137182914D02*
X175021905Y-137230533D01*
X176545714Y-137944819D02*
X175974286Y-137944819D01*
X176260000Y-137944819D02*
X176260000Y-136944819D01*
X176260000Y-136944819D02*
X176164762Y-137087676D01*
X176164762Y-137087676D02*
X176069524Y-137182914D01*
X176069524Y-137182914D02*
X175974286Y-137230533D01*
%TO.C,R8*%
X145234819Y-129706666D02*
X144758628Y-130039999D01*
X145234819Y-130278094D02*
X144234819Y-130278094D01*
X144234819Y-130278094D02*
X144234819Y-129897142D01*
X144234819Y-129897142D02*
X144282438Y-129801904D01*
X144282438Y-129801904D02*
X144330057Y-129754285D01*
X144330057Y-129754285D02*
X144425295Y-129706666D01*
X144425295Y-129706666D02*
X144568152Y-129706666D01*
X144568152Y-129706666D02*
X144663390Y-129754285D01*
X144663390Y-129754285D02*
X144711009Y-129801904D01*
X144711009Y-129801904D02*
X144758628Y-129897142D01*
X144758628Y-129897142D02*
X144758628Y-130278094D01*
X144663390Y-129135237D02*
X144615771Y-129230475D01*
X144615771Y-129230475D02*
X144568152Y-129278094D01*
X144568152Y-129278094D02*
X144472914Y-129325713D01*
X144472914Y-129325713D02*
X144425295Y-129325713D01*
X144425295Y-129325713D02*
X144330057Y-129278094D01*
X144330057Y-129278094D02*
X144282438Y-129230475D01*
X144282438Y-129230475D02*
X144234819Y-129135237D01*
X144234819Y-129135237D02*
X144234819Y-128944761D01*
X144234819Y-128944761D02*
X144282438Y-128849523D01*
X144282438Y-128849523D02*
X144330057Y-128801904D01*
X144330057Y-128801904D02*
X144425295Y-128754285D01*
X144425295Y-128754285D02*
X144472914Y-128754285D01*
X144472914Y-128754285D02*
X144568152Y-128801904D01*
X144568152Y-128801904D02*
X144615771Y-128849523D01*
X144615771Y-128849523D02*
X144663390Y-128944761D01*
X144663390Y-128944761D02*
X144663390Y-129135237D01*
X144663390Y-129135237D02*
X144711009Y-129230475D01*
X144711009Y-129230475D02*
X144758628Y-129278094D01*
X144758628Y-129278094D02*
X144853866Y-129325713D01*
X144853866Y-129325713D02*
X145044342Y-129325713D01*
X145044342Y-129325713D02*
X145139580Y-129278094D01*
X145139580Y-129278094D02*
X145187200Y-129230475D01*
X145187200Y-129230475D02*
X145234819Y-129135237D01*
X145234819Y-129135237D02*
X145234819Y-128944761D01*
X145234819Y-128944761D02*
X145187200Y-128849523D01*
X145187200Y-128849523D02*
X145139580Y-128801904D01*
X145139580Y-128801904D02*
X145044342Y-128754285D01*
X145044342Y-128754285D02*
X144853866Y-128754285D01*
X144853866Y-128754285D02*
X144758628Y-128801904D01*
X144758628Y-128801904D02*
X144711009Y-128849523D01*
X144711009Y-128849523D02*
X144663390Y-128944761D01*
%TO.C,D2*%
X92479905Y-106245819D02*
X92479905Y-105245819D01*
X92479905Y-105245819D02*
X92718000Y-105245819D01*
X92718000Y-105245819D02*
X92860857Y-105293438D01*
X92860857Y-105293438D02*
X92956095Y-105388676D01*
X92956095Y-105388676D02*
X93003714Y-105483914D01*
X93003714Y-105483914D02*
X93051333Y-105674390D01*
X93051333Y-105674390D02*
X93051333Y-105817247D01*
X93051333Y-105817247D02*
X93003714Y-106007723D01*
X93003714Y-106007723D02*
X92956095Y-106102961D01*
X92956095Y-106102961D02*
X92860857Y-106198200D01*
X92860857Y-106198200D02*
X92718000Y-106245819D01*
X92718000Y-106245819D02*
X92479905Y-106245819D01*
X93432286Y-105341057D02*
X93479905Y-105293438D01*
X93479905Y-105293438D02*
X93575143Y-105245819D01*
X93575143Y-105245819D02*
X93813238Y-105245819D01*
X93813238Y-105245819D02*
X93908476Y-105293438D01*
X93908476Y-105293438D02*
X93956095Y-105341057D01*
X93956095Y-105341057D02*
X94003714Y-105436295D01*
X94003714Y-105436295D02*
X94003714Y-105531533D01*
X94003714Y-105531533D02*
X93956095Y-105674390D01*
X93956095Y-105674390D02*
X93384667Y-106245819D01*
X93384667Y-106245819D02*
X94003714Y-106245819D01*
%TO.C,H3*%
X93218095Y-137944819D02*
X93218095Y-136944819D01*
X93218095Y-137421009D02*
X93789523Y-137421009D01*
X93789523Y-137944819D02*
X93789523Y-136944819D01*
X94170476Y-136944819D02*
X94789523Y-136944819D01*
X94789523Y-136944819D02*
X94456190Y-137325771D01*
X94456190Y-137325771D02*
X94599047Y-137325771D01*
X94599047Y-137325771D02*
X94694285Y-137373390D01*
X94694285Y-137373390D02*
X94741904Y-137421009D01*
X94741904Y-137421009D02*
X94789523Y-137516247D01*
X94789523Y-137516247D02*
X94789523Y-137754342D01*
X94789523Y-137754342D02*
X94741904Y-137849580D01*
X94741904Y-137849580D02*
X94694285Y-137897200D01*
X94694285Y-137897200D02*
X94599047Y-137944819D01*
X94599047Y-137944819D02*
X94313333Y-137944819D01*
X94313333Y-137944819D02*
X94218095Y-137897200D01*
X94218095Y-137897200D02*
X94170476Y-137849580D01*
%TO.C,H12*%
X184181905Y-137944819D02*
X184181905Y-136944819D01*
X184181905Y-137421009D02*
X184753333Y-137421009D01*
X184753333Y-137944819D02*
X184753333Y-136944819D01*
X185753333Y-137944819D02*
X185181905Y-137944819D01*
X185467619Y-137944819D02*
X185467619Y-136944819D01*
X185467619Y-136944819D02*
X185372381Y-137087676D01*
X185372381Y-137087676D02*
X185277143Y-137182914D01*
X185277143Y-137182914D02*
X185181905Y-137230533D01*
X186134286Y-137040057D02*
X186181905Y-136992438D01*
X186181905Y-136992438D02*
X186277143Y-136944819D01*
X186277143Y-136944819D02*
X186515238Y-136944819D01*
X186515238Y-136944819D02*
X186610476Y-136992438D01*
X186610476Y-136992438D02*
X186658095Y-137040057D01*
X186658095Y-137040057D02*
X186705714Y-137135295D01*
X186705714Y-137135295D02*
X186705714Y-137230533D01*
X186705714Y-137230533D02*
X186658095Y-137373390D01*
X186658095Y-137373390D02*
X186086667Y-137944819D01*
X186086667Y-137944819D02*
X186705714Y-137944819D01*
%TO.C,C2*%
X166602580Y-95978666D02*
X166650200Y-96026285D01*
X166650200Y-96026285D02*
X166697819Y-96169142D01*
X166697819Y-96169142D02*
X166697819Y-96264380D01*
X166697819Y-96264380D02*
X166650200Y-96407237D01*
X166650200Y-96407237D02*
X166554961Y-96502475D01*
X166554961Y-96502475D02*
X166459723Y-96550094D01*
X166459723Y-96550094D02*
X166269247Y-96597713D01*
X166269247Y-96597713D02*
X166126390Y-96597713D01*
X166126390Y-96597713D02*
X165935914Y-96550094D01*
X165935914Y-96550094D02*
X165840676Y-96502475D01*
X165840676Y-96502475D02*
X165745438Y-96407237D01*
X165745438Y-96407237D02*
X165697819Y-96264380D01*
X165697819Y-96264380D02*
X165697819Y-96169142D01*
X165697819Y-96169142D02*
X165745438Y-96026285D01*
X165745438Y-96026285D02*
X165793057Y-95978666D01*
X165793057Y-95597713D02*
X165745438Y-95550094D01*
X165745438Y-95550094D02*
X165697819Y-95454856D01*
X165697819Y-95454856D02*
X165697819Y-95216761D01*
X165697819Y-95216761D02*
X165745438Y-95121523D01*
X165745438Y-95121523D02*
X165793057Y-95073904D01*
X165793057Y-95073904D02*
X165888295Y-95026285D01*
X165888295Y-95026285D02*
X165983533Y-95026285D01*
X165983533Y-95026285D02*
X166126390Y-95073904D01*
X166126390Y-95073904D02*
X166697819Y-95645332D01*
X166697819Y-95645332D02*
X166697819Y-95026285D01*
%TO.C,R17*%
X185366819Y-96868857D02*
X184890628Y-97202190D01*
X185366819Y-97440285D02*
X184366819Y-97440285D01*
X184366819Y-97440285D02*
X184366819Y-97059333D01*
X184366819Y-97059333D02*
X184414438Y-96964095D01*
X184414438Y-96964095D02*
X184462057Y-96916476D01*
X184462057Y-96916476D02*
X184557295Y-96868857D01*
X184557295Y-96868857D02*
X184700152Y-96868857D01*
X184700152Y-96868857D02*
X184795390Y-96916476D01*
X184795390Y-96916476D02*
X184843009Y-96964095D01*
X184843009Y-96964095D02*
X184890628Y-97059333D01*
X184890628Y-97059333D02*
X184890628Y-97440285D01*
X185366819Y-95916476D02*
X185366819Y-96487904D01*
X185366819Y-96202190D02*
X184366819Y-96202190D01*
X184366819Y-96202190D02*
X184509676Y-96297428D01*
X184509676Y-96297428D02*
X184604914Y-96392666D01*
X184604914Y-96392666D02*
X184652533Y-96487904D01*
X184366819Y-95583142D02*
X184366819Y-94916476D01*
X184366819Y-94916476D02*
X185366819Y-95345047D01*
%TO.C,U1*%
X170904819Y-76707904D02*
X171714342Y-76707904D01*
X171714342Y-76707904D02*
X171809580Y-76660285D01*
X171809580Y-76660285D02*
X171857200Y-76612666D01*
X171857200Y-76612666D02*
X171904819Y-76517428D01*
X171904819Y-76517428D02*
X171904819Y-76326952D01*
X171904819Y-76326952D02*
X171857200Y-76231714D01*
X171857200Y-76231714D02*
X171809580Y-76184095D01*
X171809580Y-76184095D02*
X171714342Y-76136476D01*
X171714342Y-76136476D02*
X170904819Y-76136476D01*
X171904819Y-75136476D02*
X171904819Y-75707904D01*
X171904819Y-75422190D02*
X170904819Y-75422190D01*
X170904819Y-75422190D02*
X171047676Y-75517428D01*
X171047676Y-75517428D02*
X171142914Y-75612666D01*
X171142914Y-75612666D02*
X171190533Y-75707904D01*
%TO.C,R20*%
X82242819Y-102496857D02*
X81766628Y-102830190D01*
X82242819Y-103068285D02*
X81242819Y-103068285D01*
X81242819Y-103068285D02*
X81242819Y-102687333D01*
X81242819Y-102687333D02*
X81290438Y-102592095D01*
X81290438Y-102592095D02*
X81338057Y-102544476D01*
X81338057Y-102544476D02*
X81433295Y-102496857D01*
X81433295Y-102496857D02*
X81576152Y-102496857D01*
X81576152Y-102496857D02*
X81671390Y-102544476D01*
X81671390Y-102544476D02*
X81719009Y-102592095D01*
X81719009Y-102592095D02*
X81766628Y-102687333D01*
X81766628Y-102687333D02*
X81766628Y-103068285D01*
X81338057Y-102115904D02*
X81290438Y-102068285D01*
X81290438Y-102068285D02*
X81242819Y-101973047D01*
X81242819Y-101973047D02*
X81242819Y-101734952D01*
X81242819Y-101734952D02*
X81290438Y-101639714D01*
X81290438Y-101639714D02*
X81338057Y-101592095D01*
X81338057Y-101592095D02*
X81433295Y-101544476D01*
X81433295Y-101544476D02*
X81528533Y-101544476D01*
X81528533Y-101544476D02*
X81671390Y-101592095D01*
X81671390Y-101592095D02*
X82242819Y-102163523D01*
X82242819Y-102163523D02*
X82242819Y-101544476D01*
X81242819Y-100925428D02*
X81242819Y-100830190D01*
X81242819Y-100830190D02*
X81290438Y-100734952D01*
X81290438Y-100734952D02*
X81338057Y-100687333D01*
X81338057Y-100687333D02*
X81433295Y-100639714D01*
X81433295Y-100639714D02*
X81623771Y-100592095D01*
X81623771Y-100592095D02*
X81861866Y-100592095D01*
X81861866Y-100592095D02*
X82052342Y-100639714D01*
X82052342Y-100639714D02*
X82147580Y-100687333D01*
X82147580Y-100687333D02*
X82195200Y-100734952D01*
X82195200Y-100734952D02*
X82242819Y-100830190D01*
X82242819Y-100830190D02*
X82242819Y-100925428D01*
X82242819Y-100925428D02*
X82195200Y-101020666D01*
X82195200Y-101020666D02*
X82147580Y-101068285D01*
X82147580Y-101068285D02*
X82052342Y-101115904D01*
X82052342Y-101115904D02*
X81861866Y-101163523D01*
X81861866Y-101163523D02*
X81623771Y-101163523D01*
X81623771Y-101163523D02*
X81433295Y-101115904D01*
X81433295Y-101115904D02*
X81338057Y-101068285D01*
X81338057Y-101068285D02*
X81290438Y-101020666D01*
X81290438Y-101020666D02*
X81242819Y-100925428D01*
%TO.C,H6*%
X123698095Y-137944819D02*
X123698095Y-136944819D01*
X123698095Y-137421009D02*
X124269523Y-137421009D01*
X124269523Y-137944819D02*
X124269523Y-136944819D01*
X125174285Y-136944819D02*
X124983809Y-136944819D01*
X124983809Y-136944819D02*
X124888571Y-136992438D01*
X124888571Y-136992438D02*
X124840952Y-137040057D01*
X124840952Y-137040057D02*
X124745714Y-137182914D01*
X124745714Y-137182914D02*
X124698095Y-137373390D01*
X124698095Y-137373390D02*
X124698095Y-137754342D01*
X124698095Y-137754342D02*
X124745714Y-137849580D01*
X124745714Y-137849580D02*
X124793333Y-137897200D01*
X124793333Y-137897200D02*
X124888571Y-137944819D01*
X124888571Y-137944819D02*
X125079047Y-137944819D01*
X125079047Y-137944819D02*
X125174285Y-137897200D01*
X125174285Y-137897200D02*
X125221904Y-137849580D01*
X125221904Y-137849580D02*
X125269523Y-137754342D01*
X125269523Y-137754342D02*
X125269523Y-137516247D01*
X125269523Y-137516247D02*
X125221904Y-137421009D01*
X125221904Y-137421009D02*
X125174285Y-137373390D01*
X125174285Y-137373390D02*
X125079047Y-137325771D01*
X125079047Y-137325771D02*
X124888571Y-137325771D01*
X124888571Y-137325771D02*
X124793333Y-137373390D01*
X124793333Y-137373390D02*
X124745714Y-137421009D01*
X124745714Y-137421009D02*
X124698095Y-137516247D01*
%TO.C,R9*%
X155394819Y-129706666D02*
X154918628Y-130039999D01*
X155394819Y-130278094D02*
X154394819Y-130278094D01*
X154394819Y-130278094D02*
X154394819Y-129897142D01*
X154394819Y-129897142D02*
X154442438Y-129801904D01*
X154442438Y-129801904D02*
X154490057Y-129754285D01*
X154490057Y-129754285D02*
X154585295Y-129706666D01*
X154585295Y-129706666D02*
X154728152Y-129706666D01*
X154728152Y-129706666D02*
X154823390Y-129754285D01*
X154823390Y-129754285D02*
X154871009Y-129801904D01*
X154871009Y-129801904D02*
X154918628Y-129897142D01*
X154918628Y-129897142D02*
X154918628Y-130278094D01*
X155394819Y-129230475D02*
X155394819Y-129039999D01*
X155394819Y-129039999D02*
X155347200Y-128944761D01*
X155347200Y-128944761D02*
X155299580Y-128897142D01*
X155299580Y-128897142D02*
X155156723Y-128801904D01*
X155156723Y-128801904D02*
X154966247Y-128754285D01*
X154966247Y-128754285D02*
X154585295Y-128754285D01*
X154585295Y-128754285D02*
X154490057Y-128801904D01*
X154490057Y-128801904D02*
X154442438Y-128849523D01*
X154442438Y-128849523D02*
X154394819Y-128944761D01*
X154394819Y-128944761D02*
X154394819Y-129135237D01*
X154394819Y-129135237D02*
X154442438Y-129230475D01*
X154442438Y-129230475D02*
X154490057Y-129278094D01*
X154490057Y-129278094D02*
X154585295Y-129325713D01*
X154585295Y-129325713D02*
X154823390Y-129325713D01*
X154823390Y-129325713D02*
X154918628Y-129278094D01*
X154918628Y-129278094D02*
X154966247Y-129230475D01*
X154966247Y-129230475D02*
X155013866Y-129135237D01*
X155013866Y-129135237D02*
X155013866Y-128944761D01*
X155013866Y-128944761D02*
X154966247Y-128849523D01*
X154966247Y-128849523D02*
X154918628Y-128801904D01*
X154918628Y-128801904D02*
X154823390Y-128754285D01*
%TO.C,RV4*%
X137106819Y-115022238D02*
X136630628Y-115355571D01*
X137106819Y-115593666D02*
X136106819Y-115593666D01*
X136106819Y-115593666D02*
X136106819Y-115212714D01*
X136106819Y-115212714D02*
X136154438Y-115117476D01*
X136154438Y-115117476D02*
X136202057Y-115069857D01*
X136202057Y-115069857D02*
X136297295Y-115022238D01*
X136297295Y-115022238D02*
X136440152Y-115022238D01*
X136440152Y-115022238D02*
X136535390Y-115069857D01*
X136535390Y-115069857D02*
X136583009Y-115117476D01*
X136583009Y-115117476D02*
X136630628Y-115212714D01*
X136630628Y-115212714D02*
X136630628Y-115593666D01*
X136106819Y-114736523D02*
X137106819Y-114403190D01*
X137106819Y-114403190D02*
X136106819Y-114069857D01*
X136440152Y-113307952D02*
X137106819Y-113307952D01*
X136059200Y-113546047D02*
X136773485Y-113784142D01*
X136773485Y-113784142D02*
X136773485Y-113165095D01*
%TO.C,C6*%
X101451580Y-89955666D02*
X101499200Y-90003285D01*
X101499200Y-90003285D02*
X101546819Y-90146142D01*
X101546819Y-90146142D02*
X101546819Y-90241380D01*
X101546819Y-90241380D02*
X101499200Y-90384237D01*
X101499200Y-90384237D02*
X101403961Y-90479475D01*
X101403961Y-90479475D02*
X101308723Y-90527094D01*
X101308723Y-90527094D02*
X101118247Y-90574713D01*
X101118247Y-90574713D02*
X100975390Y-90574713D01*
X100975390Y-90574713D02*
X100784914Y-90527094D01*
X100784914Y-90527094D02*
X100689676Y-90479475D01*
X100689676Y-90479475D02*
X100594438Y-90384237D01*
X100594438Y-90384237D02*
X100546819Y-90241380D01*
X100546819Y-90241380D02*
X100546819Y-90146142D01*
X100546819Y-90146142D02*
X100594438Y-90003285D01*
X100594438Y-90003285D02*
X100642057Y-89955666D01*
X100546819Y-89098523D02*
X100546819Y-89288999D01*
X100546819Y-89288999D02*
X100594438Y-89384237D01*
X100594438Y-89384237D02*
X100642057Y-89431856D01*
X100642057Y-89431856D02*
X100784914Y-89527094D01*
X100784914Y-89527094D02*
X100975390Y-89574713D01*
X100975390Y-89574713D02*
X101356342Y-89574713D01*
X101356342Y-89574713D02*
X101451580Y-89527094D01*
X101451580Y-89527094D02*
X101499200Y-89479475D01*
X101499200Y-89479475D02*
X101546819Y-89384237D01*
X101546819Y-89384237D02*
X101546819Y-89193761D01*
X101546819Y-89193761D02*
X101499200Y-89098523D01*
X101499200Y-89098523D02*
X101451580Y-89050904D01*
X101451580Y-89050904D02*
X101356342Y-89003285D01*
X101356342Y-89003285D02*
X101118247Y-89003285D01*
X101118247Y-89003285D02*
X101023009Y-89050904D01*
X101023009Y-89050904D02*
X100975390Y-89098523D01*
X100975390Y-89098523D02*
X100927771Y-89193761D01*
X100927771Y-89193761D02*
X100927771Y-89384237D01*
X100927771Y-89384237D02*
X100975390Y-89479475D01*
X100975390Y-89479475D02*
X101023009Y-89527094D01*
X101023009Y-89527094D02*
X101118247Y-89574713D01*
%TO.C,J2*%
X133524666Y-83572819D02*
X133524666Y-84287104D01*
X133524666Y-84287104D02*
X133477047Y-84429961D01*
X133477047Y-84429961D02*
X133381809Y-84525200D01*
X133381809Y-84525200D02*
X133238952Y-84572819D01*
X133238952Y-84572819D02*
X133143714Y-84572819D01*
X133953238Y-83668057D02*
X134000857Y-83620438D01*
X134000857Y-83620438D02*
X134096095Y-83572819D01*
X134096095Y-83572819D02*
X134334190Y-83572819D01*
X134334190Y-83572819D02*
X134429428Y-83620438D01*
X134429428Y-83620438D02*
X134477047Y-83668057D01*
X134477047Y-83668057D02*
X134524666Y-83763295D01*
X134524666Y-83763295D02*
X134524666Y-83858533D01*
X134524666Y-83858533D02*
X134477047Y-84001390D01*
X134477047Y-84001390D02*
X133905619Y-84572819D01*
X133905619Y-84572819D02*
X134524666Y-84572819D01*
%TO.C,R26*%
X90543142Y-81734819D02*
X90209809Y-81258628D01*
X89971714Y-81734819D02*
X89971714Y-80734819D01*
X89971714Y-80734819D02*
X90352666Y-80734819D01*
X90352666Y-80734819D02*
X90447904Y-80782438D01*
X90447904Y-80782438D02*
X90495523Y-80830057D01*
X90495523Y-80830057D02*
X90543142Y-80925295D01*
X90543142Y-80925295D02*
X90543142Y-81068152D01*
X90543142Y-81068152D02*
X90495523Y-81163390D01*
X90495523Y-81163390D02*
X90447904Y-81211009D01*
X90447904Y-81211009D02*
X90352666Y-81258628D01*
X90352666Y-81258628D02*
X89971714Y-81258628D01*
X90924095Y-80830057D02*
X90971714Y-80782438D01*
X90971714Y-80782438D02*
X91066952Y-80734819D01*
X91066952Y-80734819D02*
X91305047Y-80734819D01*
X91305047Y-80734819D02*
X91400285Y-80782438D01*
X91400285Y-80782438D02*
X91447904Y-80830057D01*
X91447904Y-80830057D02*
X91495523Y-80925295D01*
X91495523Y-80925295D02*
X91495523Y-81020533D01*
X91495523Y-81020533D02*
X91447904Y-81163390D01*
X91447904Y-81163390D02*
X90876476Y-81734819D01*
X90876476Y-81734819D02*
X91495523Y-81734819D01*
X92352666Y-80734819D02*
X92162190Y-80734819D01*
X92162190Y-80734819D02*
X92066952Y-80782438D01*
X92066952Y-80782438D02*
X92019333Y-80830057D01*
X92019333Y-80830057D02*
X91924095Y-80972914D01*
X91924095Y-80972914D02*
X91876476Y-81163390D01*
X91876476Y-81163390D02*
X91876476Y-81544342D01*
X91876476Y-81544342D02*
X91924095Y-81639580D01*
X91924095Y-81639580D02*
X91971714Y-81687200D01*
X91971714Y-81687200D02*
X92066952Y-81734819D01*
X92066952Y-81734819D02*
X92257428Y-81734819D01*
X92257428Y-81734819D02*
X92352666Y-81687200D01*
X92352666Y-81687200D02*
X92400285Y-81639580D01*
X92400285Y-81639580D02*
X92447904Y-81544342D01*
X92447904Y-81544342D02*
X92447904Y-81306247D01*
X92447904Y-81306247D02*
X92400285Y-81211009D01*
X92400285Y-81211009D02*
X92352666Y-81163390D01*
X92352666Y-81163390D02*
X92257428Y-81115771D01*
X92257428Y-81115771D02*
X92066952Y-81115771D01*
X92066952Y-81115771D02*
X91971714Y-81163390D01*
X91971714Y-81163390D02*
X91924095Y-81211009D01*
X91924095Y-81211009D02*
X91876476Y-81306247D01*
%TO.C,C1*%
X159109580Y-96051666D02*
X159157200Y-96099285D01*
X159157200Y-96099285D02*
X159204819Y-96242142D01*
X159204819Y-96242142D02*
X159204819Y-96337380D01*
X159204819Y-96337380D02*
X159157200Y-96480237D01*
X159157200Y-96480237D02*
X159061961Y-96575475D01*
X159061961Y-96575475D02*
X158966723Y-96623094D01*
X158966723Y-96623094D02*
X158776247Y-96670713D01*
X158776247Y-96670713D02*
X158633390Y-96670713D01*
X158633390Y-96670713D02*
X158442914Y-96623094D01*
X158442914Y-96623094D02*
X158347676Y-96575475D01*
X158347676Y-96575475D02*
X158252438Y-96480237D01*
X158252438Y-96480237D02*
X158204819Y-96337380D01*
X158204819Y-96337380D02*
X158204819Y-96242142D01*
X158204819Y-96242142D02*
X158252438Y-96099285D01*
X158252438Y-96099285D02*
X158300057Y-96051666D01*
X159204819Y-95099285D02*
X159204819Y-95670713D01*
X159204819Y-95384999D02*
X158204819Y-95384999D01*
X158204819Y-95384999D02*
X158347676Y-95480237D01*
X158347676Y-95480237D02*
X158442914Y-95575475D01*
X158442914Y-95575475D02*
X158490533Y-95670713D01*
D11*
%TO.C,J1*%
X110664000Y-77860000D02*
X110134000Y-77860000D01*
X110664000Y-72060000D02*
X110664000Y-77860000D01*
X103694000Y-77860000D02*
X103164000Y-77860000D01*
X103164000Y-77860000D02*
X103164000Y-72060000D01*
D12*
%TO.C,RV3*%
X137768000Y-91988000D02*
X137768000Y-97988000D01*
X138768000Y-98988000D02*
X144268000Y-98988000D01*
X139768000Y-89988000D02*
X143268000Y-89988000D01*
X141518000Y-93438000D02*
X141518000Y-93088000D01*
X142518000Y-93238000D02*
X140518000Y-93238000D01*
X145268000Y-97988000D02*
X145268000Y-91988000D01*
X140518000Y-93238000D02*
G75*
G03*
X142518000Y-93238000I1000000J0D01*
G01*
%TO.C,SW1*%
X71797000Y-113586000D02*
X71797000Y-115086000D01*
X73047000Y-117586000D02*
X77547000Y-117586000D01*
X77547000Y-111086000D02*
X73047000Y-111086000D01*
X78797000Y-115086000D02*
X78797000Y-113586000D01*
%TO.C,J5*%
X72611007Y-76678525D02*
X72611007Y-87178525D01*
X75881007Y-73528525D02*
X75881007Y-74328525D01*
X75881007Y-73528525D02*
X76741007Y-73528525D01*
X76311007Y-87178525D02*
X72611007Y-87178525D01*
X76391007Y-76678525D02*
X72611007Y-76678525D01*
X81611007Y-76678525D02*
X77831007Y-76678525D01*
X81611007Y-76678525D02*
X81611007Y-87178525D01*
X81611007Y-87178525D02*
X77911007Y-87178525D01*
X78911007Y-81178525D02*
G75*
G03*
X78911007Y-81178525I-1800000J0D01*
G01*
%TO.C,Q1*%
X158136000Y-86532000D02*
X154286000Y-86532000D01*
X156196000Y-90831999D02*
G75*
G03*
X158552399Y-89330807I0J2599999D01*
G01*
X158518631Y-87109955D02*
G75*
G03*
X158136000Y-86532000I-2322631J-1122045D01*
G01*
X153839600Y-89330807D02*
G75*
G03*
X156196000Y-90832000I2356400J1098807D01*
G01*
X154286001Y-86532001D02*
G75*
G03*
X153893618Y-87119736I1909999J-1699999D01*
G01*
%TO.C,R25*%
X95167000Y-76159000D02*
X94397000Y-76159000D01*
X94397000Y-77529000D02*
X94397000Y-74789000D01*
X94397000Y-74789000D02*
X87857000Y-74789000D01*
X87857000Y-77529000D02*
X94397000Y-77529000D01*
X87857000Y-74789000D02*
X87857000Y-77529000D01*
X87087000Y-76159000D02*
X87857000Y-76159000D01*
%TO.C,R16*%
X179818000Y-92186000D02*
X179818000Y-92956000D01*
X181188000Y-92956000D02*
X178448000Y-92956000D01*
X178448000Y-92956000D02*
X178448000Y-99496000D01*
X181188000Y-99496000D02*
X181188000Y-92956000D01*
X178448000Y-99496000D02*
X181188000Y-99496000D01*
X179818000Y-100266000D02*
X179818000Y-99496000D01*
%TO.C,C3*%
X133950000Y-86326000D02*
X130210000Y-86326000D01*
X133950000Y-86326000D02*
X133950000Y-93566000D01*
X130210000Y-86326000D02*
X130210000Y-93566000D01*
X133950000Y-93566000D02*
X130210000Y-93566000D01*
%TO.C,R22*%
X81002000Y-90424000D02*
X80232000Y-90424000D01*
X80232000Y-91794000D02*
X80232000Y-89054000D01*
X80232000Y-89054000D02*
X73692000Y-89054000D01*
X73692000Y-91794000D02*
X80232000Y-91794000D01*
X73692000Y-89054000D02*
X73692000Y-91794000D01*
X72922000Y-90424000D02*
X73692000Y-90424000D01*
%TO.C,R11*%
X175260000Y-133580000D02*
X175260000Y-132810000D01*
X173890000Y-132810000D02*
X176630000Y-132810000D01*
X176630000Y-132810000D02*
X176630000Y-126270000D01*
X173890000Y-126270000D02*
X173890000Y-132810000D01*
X176630000Y-126270000D02*
X173890000Y-126270000D01*
X175260000Y-125500000D02*
X175260000Y-126270000D01*
%TO.C,D1*%
X77749000Y-103653000D02*
X77749000Y-100563000D01*
X72199001Y-102107538D02*
G75*
G03*
X77748999Y-103652830I2989999J-462D01*
G01*
X77749000Y-100563170D02*
G75*
G03*
X72199000Y-102108462I-2560000J-1544830D01*
G01*
X77689000Y-102108000D02*
G75*
G03*
X77689000Y-102108000I-2500000J0D01*
G01*
%TO.C,R14*%
X148576000Y-89272000D02*
X148576000Y-90042000D01*
X149946000Y-90042000D02*
X147206000Y-90042000D01*
X147206000Y-90042000D02*
X147206000Y-96582000D01*
X149946000Y-96582000D02*
X149946000Y-90042000D01*
X147206000Y-96582000D02*
X149946000Y-96582000D01*
X148576000Y-97352000D02*
X148576000Y-96582000D01*
%TO.C,C5*%
X169677225Y-86917000D02*
X170177225Y-86917000D01*
X169927225Y-86667000D02*
X169927225Y-87167000D01*
X172482000Y-85812000D02*
X172482000Y-87352000D01*
X172482000Y-89432000D02*
X172482000Y-90972000D01*
X172522000Y-85812000D02*
X172522000Y-87352000D01*
X172522000Y-89432000D02*
X172522000Y-90972000D01*
X172562000Y-85813000D02*
X172562000Y-87352000D01*
X172562000Y-89432000D02*
X172562000Y-90971000D01*
X172602000Y-85814000D02*
X172602000Y-87352000D01*
X172602000Y-89432000D02*
X172602000Y-90970000D01*
X172642000Y-85816000D02*
X172642000Y-87352000D01*
X172642000Y-89432000D02*
X172642000Y-90968000D01*
X172682000Y-85819000D02*
X172682000Y-87352000D01*
X172682000Y-89432000D02*
X172682000Y-90965000D01*
X172722000Y-85823000D02*
X172722000Y-87352000D01*
X172722000Y-89432000D02*
X172722000Y-90961000D01*
X172762000Y-85827000D02*
X172762000Y-87352000D01*
X172762000Y-89432000D02*
X172762000Y-90957000D01*
X172802000Y-85831000D02*
X172802000Y-87352000D01*
X172802000Y-89432000D02*
X172802000Y-90953000D01*
X172842000Y-85836000D02*
X172842000Y-87352000D01*
X172842000Y-89432000D02*
X172842000Y-90948000D01*
X172882000Y-85842000D02*
X172882000Y-87352000D01*
X172882000Y-89432000D02*
X172882000Y-90942000D01*
X172922000Y-85849000D02*
X172922000Y-87352000D01*
X172922000Y-89432000D02*
X172922000Y-90935000D01*
X172962000Y-85856000D02*
X172962000Y-87352000D01*
X172962000Y-89432000D02*
X172962000Y-90928000D01*
X173002000Y-85864000D02*
X173002000Y-87352000D01*
X173002000Y-89432000D02*
X173002000Y-90920000D01*
X173042000Y-85872000D02*
X173042000Y-87352000D01*
X173042000Y-89432000D02*
X173042000Y-90912000D01*
X173082000Y-85881000D02*
X173082000Y-87352000D01*
X173082000Y-89432000D02*
X173082000Y-90903000D01*
X173122000Y-85891000D02*
X173122000Y-87352000D01*
X173122000Y-89432000D02*
X173122000Y-90893000D01*
X173162000Y-85901000D02*
X173162000Y-87352000D01*
X173162000Y-89432000D02*
X173162000Y-90883000D01*
X173203000Y-85912000D02*
X173203000Y-87352000D01*
X173203000Y-89432000D02*
X173203000Y-90872000D01*
X173243000Y-85924000D02*
X173243000Y-87352000D01*
X173243000Y-89432000D02*
X173243000Y-90860000D01*
X173283000Y-85937000D02*
X173283000Y-87352000D01*
X173283000Y-89432000D02*
X173283000Y-90847000D01*
X173323000Y-85950000D02*
X173323000Y-87352000D01*
X173323000Y-89432000D02*
X173323000Y-90834000D01*
X173363000Y-85964000D02*
X173363000Y-87352000D01*
X173363000Y-89432000D02*
X173363000Y-90820000D01*
X173403000Y-85978000D02*
X173403000Y-87352000D01*
X173403000Y-89432000D02*
X173403000Y-90806000D01*
X173443000Y-85994000D02*
X173443000Y-87352000D01*
X173443000Y-89432000D02*
X173443000Y-90790000D01*
X173483000Y-86010000D02*
X173483000Y-87352000D01*
X173483000Y-89432000D02*
X173483000Y-90774000D01*
X173523000Y-86027000D02*
X173523000Y-87352000D01*
X173523000Y-89432000D02*
X173523000Y-90757000D01*
X173563000Y-86044000D02*
X173563000Y-87352000D01*
X173563000Y-89432000D02*
X173563000Y-90740000D01*
X173603000Y-86063000D02*
X173603000Y-87352000D01*
X173603000Y-89432000D02*
X173603000Y-90721000D01*
X173643000Y-86082000D02*
X173643000Y-87352000D01*
X173643000Y-89432000D02*
X173643000Y-90702000D01*
X173683000Y-86102000D02*
X173683000Y-87352000D01*
X173683000Y-89432000D02*
X173683000Y-90682000D01*
X173723000Y-86124000D02*
X173723000Y-87352000D01*
X173723000Y-89432000D02*
X173723000Y-90660000D01*
X173763000Y-86145000D02*
X173763000Y-87352000D01*
X173763000Y-89432000D02*
X173763000Y-90639000D01*
X173803000Y-86168000D02*
X173803000Y-87352000D01*
X173803000Y-89432000D02*
X173803000Y-90616000D01*
X173843000Y-86192000D02*
X173843000Y-87352000D01*
X173843000Y-89432000D02*
X173843000Y-90592000D01*
X173883000Y-86217000D02*
X173883000Y-87352000D01*
X173883000Y-89432000D02*
X173883000Y-90567000D01*
X173923000Y-86243000D02*
X173923000Y-87352000D01*
X173923000Y-89432000D02*
X173923000Y-90541000D01*
X173963000Y-86270000D02*
X173963000Y-87352000D01*
X173963000Y-89432000D02*
X173963000Y-90514000D01*
X174003000Y-86297000D02*
X174003000Y-87352000D01*
X174003000Y-89432000D02*
X174003000Y-90487000D01*
X174043000Y-86327000D02*
X174043000Y-87352000D01*
X174043000Y-89432000D02*
X174043000Y-90457000D01*
X174083000Y-86357000D02*
X174083000Y-87352000D01*
X174083000Y-89432000D02*
X174083000Y-90427000D01*
X174123000Y-86388000D02*
X174123000Y-87352000D01*
X174123000Y-89432000D02*
X174123000Y-90396000D01*
X174163000Y-86421000D02*
X174163000Y-87352000D01*
X174163000Y-89432000D02*
X174163000Y-90363000D01*
X174203000Y-86455000D02*
X174203000Y-87352000D01*
X174203000Y-89432000D02*
X174203000Y-90329000D01*
X174243000Y-86491000D02*
X174243000Y-87352000D01*
X174243000Y-89432000D02*
X174243000Y-90293000D01*
X174283000Y-86528000D02*
X174283000Y-87352000D01*
X174283000Y-89432000D02*
X174283000Y-90256000D01*
X174323000Y-86566000D02*
X174323000Y-87352000D01*
X174323000Y-89432000D02*
X174323000Y-90218000D01*
X174363000Y-86607000D02*
X174363000Y-87352000D01*
X174363000Y-89432000D02*
X174363000Y-90177000D01*
X174403000Y-86649000D02*
X174403000Y-87352000D01*
X174403000Y-89432000D02*
X174403000Y-90135000D01*
X174443000Y-86693000D02*
X174443000Y-87352000D01*
X174443000Y-89432000D02*
X174443000Y-90091000D01*
X174483000Y-86739000D02*
X174483000Y-87352000D01*
X174483000Y-89432000D02*
X174483000Y-90045000D01*
X174523000Y-86787000D02*
X174523000Y-89997000D01*
X174563000Y-86838000D02*
X174563000Y-89946000D01*
X174603000Y-86892000D02*
X174603000Y-89892000D01*
X174643000Y-86949000D02*
X174643000Y-89835000D01*
X174683000Y-87009000D02*
X174683000Y-89775000D01*
X174723000Y-87073000D02*
X174723000Y-89711000D01*
X174763000Y-87141000D02*
X174763000Y-89643000D01*
X174803000Y-87214000D02*
X174803000Y-89570000D01*
X174843000Y-87294000D02*
X174843000Y-89490000D01*
X174883000Y-87381000D02*
X174883000Y-89403000D01*
X174923000Y-87477000D02*
X174923000Y-89307000D01*
X174963000Y-87587000D02*
X174963000Y-89197000D01*
X175003000Y-87715000D02*
X175003000Y-89069000D01*
X175043000Y-87874000D02*
X175043000Y-88910000D01*
X175083000Y-88108000D02*
X175083000Y-88676000D01*
X175102000Y-88392000D02*
G75*
G03*
X175102000Y-88392000I-2620000J0D01*
G01*
%TO.C,R3*%
X93980000Y-133580000D02*
X93980000Y-132810000D01*
X92610000Y-132810000D02*
X95350000Y-132810000D01*
X95350000Y-132810000D02*
X95350000Y-126270000D01*
X92610000Y-126270000D02*
X92610000Y-132810000D01*
X95350000Y-126270000D02*
X92610000Y-126270000D01*
X93980000Y-125500000D02*
X93980000Y-126270000D01*
%TO.C,R19*%
X117372000Y-76200000D02*
X118142000Y-76200000D01*
X118142000Y-74830000D02*
X118142000Y-77570000D01*
X118142000Y-77570000D02*
X124682000Y-77570000D01*
X124682000Y-74830000D02*
X118142000Y-74830000D01*
X124682000Y-77570000D02*
X124682000Y-74830000D01*
X125452000Y-76200000D02*
X124682000Y-76200000D01*
%TO.C,R10*%
X165100000Y-133580000D02*
X165100000Y-132810000D01*
X163730000Y-132810000D02*
X166470000Y-132810000D01*
X166470000Y-132810000D02*
X166470000Y-126270000D01*
X163730000Y-126270000D02*
X163730000Y-132810000D01*
X166470000Y-126270000D02*
X163730000Y-126270000D01*
X165100000Y-125500000D02*
X165100000Y-126270000D01*
%TO.C,R18*%
X117372000Y-81280000D02*
X118142000Y-81280000D01*
X118142000Y-79910000D02*
X118142000Y-82650000D01*
X118142000Y-82650000D02*
X124682000Y-82650000D01*
X124682000Y-79910000D02*
X118142000Y-79910000D01*
X124682000Y-82650000D02*
X124682000Y-79910000D01*
X125452000Y-81280000D02*
X124682000Y-81280000D01*
%TO.C,C4*%
X128783225Y-98093000D02*
X129283225Y-98093000D01*
X129033225Y-97843000D02*
X129033225Y-98343000D01*
X131588000Y-96988000D02*
X131588000Y-98528000D01*
X131588000Y-100608000D02*
X131588000Y-102148000D01*
X131628000Y-96988000D02*
X131628000Y-98528000D01*
X131628000Y-100608000D02*
X131628000Y-102148000D01*
X131668000Y-96989000D02*
X131668000Y-98528000D01*
X131668000Y-100608000D02*
X131668000Y-102147000D01*
X131708000Y-96990000D02*
X131708000Y-98528000D01*
X131708000Y-100608000D02*
X131708000Y-102146000D01*
X131748000Y-96992000D02*
X131748000Y-98528000D01*
X131748000Y-100608000D02*
X131748000Y-102144000D01*
X131788000Y-96995000D02*
X131788000Y-98528000D01*
X131788000Y-100608000D02*
X131788000Y-102141000D01*
X131828000Y-96999000D02*
X131828000Y-98528000D01*
X131828000Y-100608000D02*
X131828000Y-102137000D01*
X131868000Y-97003000D02*
X131868000Y-98528000D01*
X131868000Y-100608000D02*
X131868000Y-102133000D01*
X131908000Y-97007000D02*
X131908000Y-98528000D01*
X131908000Y-100608000D02*
X131908000Y-102129000D01*
X131948000Y-97012000D02*
X131948000Y-98528000D01*
X131948000Y-100608000D02*
X131948000Y-102124000D01*
X131988000Y-97018000D02*
X131988000Y-98528000D01*
X131988000Y-100608000D02*
X131988000Y-102118000D01*
X132028000Y-97025000D02*
X132028000Y-98528000D01*
X132028000Y-100608000D02*
X132028000Y-102111000D01*
X132068000Y-97032000D02*
X132068000Y-98528000D01*
X132068000Y-100608000D02*
X132068000Y-102104000D01*
X132108000Y-97040000D02*
X132108000Y-98528000D01*
X132108000Y-100608000D02*
X132108000Y-102096000D01*
X132148000Y-97048000D02*
X132148000Y-98528000D01*
X132148000Y-100608000D02*
X132148000Y-102088000D01*
X132188000Y-97057000D02*
X132188000Y-98528000D01*
X132188000Y-100608000D02*
X132188000Y-102079000D01*
X132228000Y-97067000D02*
X132228000Y-98528000D01*
X132228000Y-100608000D02*
X132228000Y-102069000D01*
X132268000Y-97077000D02*
X132268000Y-98528000D01*
X132268000Y-100608000D02*
X132268000Y-102059000D01*
X132309000Y-97088000D02*
X132309000Y-98528000D01*
X132309000Y-100608000D02*
X132309000Y-102048000D01*
X132349000Y-97100000D02*
X132349000Y-98528000D01*
X132349000Y-100608000D02*
X132349000Y-102036000D01*
X132389000Y-97113000D02*
X132389000Y-98528000D01*
X132389000Y-100608000D02*
X132389000Y-102023000D01*
X132429000Y-97126000D02*
X132429000Y-98528000D01*
X132429000Y-100608000D02*
X132429000Y-102010000D01*
X132469000Y-97140000D02*
X132469000Y-98528000D01*
X132469000Y-100608000D02*
X132469000Y-101996000D01*
X132509000Y-97154000D02*
X132509000Y-98528000D01*
X132509000Y-100608000D02*
X132509000Y-101982000D01*
X132549000Y-97170000D02*
X132549000Y-98528000D01*
X132549000Y-100608000D02*
X132549000Y-101966000D01*
X132589000Y-97186000D02*
X132589000Y-98528000D01*
X132589000Y-100608000D02*
X132589000Y-101950000D01*
X132629000Y-97203000D02*
X132629000Y-98528000D01*
X132629000Y-100608000D02*
X132629000Y-101933000D01*
X132669000Y-97220000D02*
X132669000Y-98528000D01*
X132669000Y-100608000D02*
X132669000Y-101916000D01*
X132709000Y-97239000D02*
X132709000Y-98528000D01*
X132709000Y-100608000D02*
X132709000Y-101897000D01*
X132749000Y-97258000D02*
X132749000Y-98528000D01*
X132749000Y-100608000D02*
X132749000Y-101878000D01*
X132789000Y-97278000D02*
X132789000Y-98528000D01*
X132789000Y-100608000D02*
X132789000Y-101858000D01*
X132829000Y-97300000D02*
X132829000Y-98528000D01*
X132829000Y-100608000D02*
X132829000Y-101836000D01*
X132869000Y-97321000D02*
X132869000Y-98528000D01*
X132869000Y-100608000D02*
X132869000Y-101815000D01*
X132909000Y-97344000D02*
X132909000Y-98528000D01*
X132909000Y-100608000D02*
X132909000Y-101792000D01*
X132949000Y-97368000D02*
X132949000Y-98528000D01*
X132949000Y-100608000D02*
X132949000Y-101768000D01*
X132989000Y-97393000D02*
X132989000Y-98528000D01*
X132989000Y-100608000D02*
X132989000Y-101743000D01*
X133029000Y-97419000D02*
X133029000Y-98528000D01*
X133029000Y-100608000D02*
X133029000Y-101717000D01*
X133069000Y-97446000D02*
X133069000Y-98528000D01*
X133069000Y-100608000D02*
X133069000Y-101690000D01*
X133109000Y-97473000D02*
X133109000Y-98528000D01*
X133109000Y-100608000D02*
X133109000Y-101663000D01*
X133149000Y-97503000D02*
X133149000Y-98528000D01*
X133149000Y-100608000D02*
X133149000Y-101633000D01*
X133189000Y-97533000D02*
X133189000Y-98528000D01*
X133189000Y-100608000D02*
X133189000Y-101603000D01*
X133229000Y-97564000D02*
X133229000Y-98528000D01*
X133229000Y-100608000D02*
X133229000Y-101572000D01*
X133269000Y-97597000D02*
X133269000Y-98528000D01*
X133269000Y-100608000D02*
X133269000Y-101539000D01*
X133309000Y-97631000D02*
X133309000Y-98528000D01*
X133309000Y-100608000D02*
X133309000Y-101505000D01*
X133349000Y-97667000D02*
X133349000Y-98528000D01*
X133349000Y-100608000D02*
X133349000Y-101469000D01*
X133389000Y-97704000D02*
X133389000Y-98528000D01*
X133389000Y-100608000D02*
X133389000Y-101432000D01*
X133429000Y-97742000D02*
X133429000Y-98528000D01*
X133429000Y-100608000D02*
X133429000Y-101394000D01*
X133469000Y-97783000D02*
X133469000Y-98528000D01*
X133469000Y-100608000D02*
X133469000Y-101353000D01*
X133509000Y-97825000D02*
X133509000Y-98528000D01*
X133509000Y-100608000D02*
X133509000Y-101311000D01*
X133549000Y-97869000D02*
X133549000Y-98528000D01*
X133549000Y-100608000D02*
X133549000Y-101267000D01*
X133589000Y-97915000D02*
X133589000Y-98528000D01*
X133589000Y-100608000D02*
X133589000Y-101221000D01*
X133629000Y-97963000D02*
X133629000Y-101173000D01*
X133669000Y-98014000D02*
X133669000Y-101122000D01*
X133709000Y-98068000D02*
X133709000Y-101068000D01*
X133749000Y-98125000D02*
X133749000Y-101011000D01*
X133789000Y-98185000D02*
X133789000Y-100951000D01*
X133829000Y-98249000D02*
X133829000Y-100887000D01*
X133869000Y-98317000D02*
X133869000Y-100819000D01*
X133909000Y-98390000D02*
X133909000Y-100746000D01*
X133949000Y-98470000D02*
X133949000Y-100666000D01*
X133989000Y-98557000D02*
X133989000Y-100579000D01*
X134029000Y-98653000D02*
X134029000Y-100483000D01*
X134069000Y-98763000D02*
X134069000Y-100373000D01*
X134109000Y-98891000D02*
X134109000Y-100245000D01*
X134149000Y-99050000D02*
X134149000Y-100086000D01*
X134189000Y-99284000D02*
X134189000Y-99852000D01*
X134208000Y-99568000D02*
G75*
G03*
X134208000Y-99568000I-2620000J0D01*
G01*
%TO.C,R2*%
X83820000Y-133580000D02*
X83820000Y-132810000D01*
X82450000Y-132810000D02*
X85190000Y-132810000D01*
X85190000Y-132810000D02*
X85190000Y-126270000D01*
X82450000Y-126270000D02*
X82450000Y-132810000D01*
X85190000Y-126270000D02*
X82450000Y-126270000D01*
X83820000Y-125500000D02*
X83820000Y-126270000D01*
%TO.C,R12*%
X185420000Y-133580000D02*
X185420000Y-132810000D01*
X184050000Y-132810000D02*
X186790000Y-132810000D01*
X186790000Y-132810000D02*
X186790000Y-126270000D01*
X184050000Y-126270000D02*
X184050000Y-132810000D01*
X186790000Y-126270000D02*
X184050000Y-126270000D01*
X185420000Y-125500000D02*
X185420000Y-126270000D01*
%TO.C,R21*%
X86868000Y-97814000D02*
X86868000Y-98584000D01*
X88238000Y-98584000D02*
X85498000Y-98584000D01*
X85498000Y-98584000D02*
X85498000Y-105124000D01*
X88238000Y-105124000D02*
X88238000Y-98584000D01*
X85498000Y-105124000D02*
X88238000Y-105124000D01*
X86868000Y-105894000D02*
X86868000Y-105124000D01*
%TO.C,R13*%
X141478000Y-84558000D02*
X141478000Y-83788000D01*
X140108000Y-83788000D02*
X142848000Y-83788000D01*
X142848000Y-83788000D02*
X142848000Y-77248000D01*
X140108000Y-77248000D02*
X140108000Y-83788000D01*
X142848000Y-77248000D02*
X140108000Y-77248000D01*
X141478000Y-76478000D02*
X141478000Y-77248000D01*
%TO.C,SW2*%
X89756000Y-113546000D02*
X89756000Y-115046000D01*
X91006000Y-117546000D02*
X95506000Y-117546000D01*
X95506000Y-111046000D02*
X91006000Y-111046000D01*
X96756000Y-115046000D02*
X96756000Y-113546000D01*
%TO.C,RV5*%
X119460000Y-107680000D02*
X119460000Y-112400000D01*
X118270000Y-107680000D02*
X119450000Y-107680000D01*
X115370000Y-107680000D02*
X115900000Y-107680000D01*
X112920000Y-107680000D02*
X113750000Y-107680000D01*
X109710000Y-107680000D02*
X111200000Y-107680000D01*
X109710000Y-107680000D02*
X109710000Y-112400000D01*
X119450000Y-116210000D02*
X119450000Y-119270000D01*
X109710000Y-116210000D02*
X109710000Y-119270000D01*
X109710000Y-119270000D02*
X119450000Y-119270000D01*
%TO.C,R6*%
X124460000Y-133580000D02*
X124460000Y-132810000D01*
X123090000Y-132810000D02*
X125830000Y-132810000D01*
X125830000Y-132810000D02*
X125830000Y-126270000D01*
X123090000Y-126270000D02*
X123090000Y-132810000D01*
X125830000Y-126270000D02*
X123090000Y-126270000D01*
X124460000Y-125500000D02*
X124460000Y-126270000D01*
%TO.C,C7*%
X150486000Y-76992000D02*
X146746000Y-76992000D01*
X150486000Y-76992000D02*
X150486000Y-84232000D01*
X146746000Y-76992000D02*
X146746000Y-84232000D01*
X150486000Y-84232000D02*
X146746000Y-84232000D01*
%TO.C,J3*%
X177604000Y-77072000D02*
X177604000Y-87572000D01*
X180874000Y-73922000D02*
X180874000Y-74722000D01*
X180874000Y-73922000D02*
X181734000Y-73922000D01*
X181304000Y-87572000D02*
X177604000Y-87572000D01*
X181384000Y-77072000D02*
X177604000Y-77072000D01*
X186604000Y-77072000D02*
X182824000Y-77072000D01*
X186604000Y-77072000D02*
X186604000Y-87572000D01*
X186604000Y-87572000D02*
X182904000Y-87572000D01*
X183904000Y-81572000D02*
G75*
G03*
X183904000Y-81572000I-1800000J0D01*
G01*
%TO.C,U2*%
X96580000Y-86504000D02*
X86300000Y-86504000D01*
X86300000Y-86504000D02*
X86300000Y-91804000D01*
X96580000Y-88154000D02*
X96580000Y-86504000D01*
X96580000Y-91804000D02*
X96580000Y-90154000D01*
X86300000Y-91804000D02*
X96580000Y-91804000D01*
X96580000Y-88154000D02*
G75*
G03*
X96580000Y-90154000I0J-1000000D01*
G01*
%TO.C,U3*%
X127568000Y-87266000D02*
X109668000Y-87266000D01*
X109668000Y-87266000D02*
X109668000Y-92566000D01*
X127568000Y-88916000D02*
X127568000Y-87266000D01*
X127568000Y-92566000D02*
X127568000Y-90916000D01*
X109668000Y-92566000D02*
X127568000Y-92566000D01*
X127568000Y-88916000D02*
G75*
G03*
X127568000Y-90916000I0J-1000000D01*
G01*
%TO.C,Q2*%
X165756000Y-86532000D02*
X161906000Y-86532000D01*
X163816000Y-90831999D02*
G75*
G03*
X166172399Y-89330807I0J2599999D01*
G01*
X166138631Y-87109955D02*
G75*
G03*
X165756000Y-86532000I-2322631J-1122045D01*
G01*
X161459600Y-89330807D02*
G75*
G03*
X163816000Y-90832000I2356400J1098807D01*
G01*
X161906001Y-86532001D02*
G75*
G03*
X161513618Y-87119736I1909999J-1699999D01*
G01*
%TO.C,RV1*%
X163646000Y-107680000D02*
X163646000Y-112400000D01*
X162466000Y-107680000D02*
X163646000Y-107680000D01*
X159566000Y-107680000D02*
X160096000Y-107680000D01*
X157116000Y-107680000D02*
X157946000Y-107680000D01*
X153906000Y-107680000D02*
X155396000Y-107680000D01*
X153906000Y-107680000D02*
X153906000Y-112400000D01*
X163646000Y-116210000D02*
X163646000Y-119270000D01*
X153906000Y-116210000D02*
X153906000Y-119270000D01*
X153906000Y-119270000D02*
X163646000Y-119270000D01*
%TO.C,R4*%
X104140000Y-133580000D02*
X104140000Y-132810000D01*
X102770000Y-132810000D02*
X105510000Y-132810000D01*
X105510000Y-132810000D02*
X105510000Y-126270000D01*
X102770000Y-126270000D02*
X102770000Y-132810000D01*
X105510000Y-126270000D02*
X102770000Y-126270000D01*
X104140000Y-125500000D02*
X104140000Y-126270000D01*
%TO.C,R7*%
X134620000Y-133580000D02*
X134620000Y-132810000D01*
X133250000Y-132810000D02*
X135990000Y-132810000D01*
X135990000Y-132810000D02*
X135990000Y-126270000D01*
X133250000Y-126270000D02*
X133250000Y-132810000D01*
X135990000Y-126270000D02*
X133250000Y-126270000D01*
X134620000Y-125500000D02*
X134620000Y-126270000D01*
%TO.C,R5*%
X114300000Y-133580000D02*
X114300000Y-132810000D01*
X112930000Y-132810000D02*
X115670000Y-132810000D01*
X115670000Y-132810000D02*
X115670000Y-126270000D01*
X112930000Y-126270000D02*
X112930000Y-132810000D01*
X115670000Y-126270000D02*
X112930000Y-126270000D01*
X114300000Y-125500000D02*
X114300000Y-126270000D01*
%TO.C,RV2*%
X187278000Y-107680000D02*
X187278000Y-112400000D01*
X186088000Y-107680000D02*
X187268000Y-107680000D01*
X183188000Y-107680000D02*
X183718000Y-107680000D01*
X180738000Y-107680000D02*
X181568000Y-107680000D01*
X177528000Y-107680000D02*
X179018000Y-107680000D01*
X177528000Y-107680000D02*
X177528000Y-112400000D01*
X187268000Y-116210000D02*
X187268000Y-119270000D01*
X177528000Y-116210000D02*
X177528000Y-119270000D01*
X177528000Y-119270000D02*
X187268000Y-119270000D01*
%TO.C,R1*%
X73660000Y-133580000D02*
X73660000Y-132810000D01*
X72290000Y-132810000D02*
X75030000Y-132810000D01*
X75030000Y-132810000D02*
X75030000Y-126270000D01*
X72290000Y-126270000D02*
X72290000Y-132810000D01*
X75030000Y-126270000D02*
X72290000Y-126270000D01*
X73660000Y-125500000D02*
X73660000Y-126270000D01*
%TO.C,R15*%
X137678000Y-103084000D02*
X138448000Y-103084000D01*
X138448000Y-101714000D02*
X138448000Y-104454000D01*
X138448000Y-104454000D02*
X144988000Y-104454000D01*
X144988000Y-101714000D02*
X138448000Y-101714000D01*
X144988000Y-104454000D02*
X144988000Y-101714000D01*
X145758000Y-103084000D02*
X144988000Y-103084000D01*
%TO.C,R8*%
X144780000Y-133580000D02*
X144780000Y-132810000D01*
X143410000Y-132810000D02*
X146150000Y-132810000D01*
X146150000Y-132810000D02*
X146150000Y-126270000D01*
X143410000Y-126270000D02*
X143410000Y-132810000D01*
X146150000Y-126270000D02*
X143410000Y-126270000D01*
X144780000Y-125500000D02*
X144780000Y-126270000D01*
%TO.C,D2*%
X90658000Y-100309000D02*
X90658000Y-103399000D01*
X96207999Y-101854462D02*
G75*
G03*
X90658001Y-100309170I-2989999J462D01*
G01*
X90658000Y-103398830D02*
G75*
G03*
X96208000Y-101853538I2560000J1544830D01*
G01*
X95718000Y-101854000D02*
G75*
G03*
X95718000Y-101854000I-2500000J0D01*
G01*
%TO.C,C2*%
X168226000Y-92192000D02*
X164486000Y-92192000D01*
X168226000Y-92192000D02*
X168226000Y-99432000D01*
X164486000Y-92192000D02*
X164486000Y-99432000D01*
X168226000Y-99432000D02*
X164486000Y-99432000D01*
%TO.C,R17*%
X184898000Y-100266000D02*
X184898000Y-99496000D01*
X183528000Y-99496000D02*
X186268000Y-99496000D01*
X186268000Y-99496000D02*
X186268000Y-92956000D01*
X183528000Y-92956000D02*
X183528000Y-99496000D01*
X186268000Y-92956000D02*
X183528000Y-92956000D01*
X184898000Y-92186000D02*
X184898000Y-92956000D01*
%TO.C,U1*%
X152366000Y-81952000D02*
X170266000Y-81952000D01*
X170266000Y-81952000D02*
X170266000Y-76652000D01*
X152366000Y-80302000D02*
X152366000Y-81952000D01*
X152366000Y-76652000D02*
X152366000Y-78302000D01*
X170266000Y-76652000D02*
X152366000Y-76652000D01*
X152366000Y-80302000D02*
G75*
G03*
X152366000Y-78302000I0J1000000D01*
G01*
%TO.C,R20*%
X81788000Y-97814000D02*
X81788000Y-98584000D01*
X83158000Y-98584000D02*
X80418000Y-98584000D01*
X80418000Y-98584000D02*
X80418000Y-105124000D01*
X83158000Y-105124000D02*
X83158000Y-98584000D01*
X80418000Y-105124000D02*
X83158000Y-105124000D01*
X81788000Y-105894000D02*
X81788000Y-105124000D01*
%TO.C,R9*%
X154940000Y-133580000D02*
X154940000Y-132810000D01*
X153570000Y-132810000D02*
X156310000Y-132810000D01*
X156310000Y-132810000D02*
X156310000Y-126270000D01*
X153570000Y-126270000D02*
X153570000Y-132810000D01*
X156310000Y-126270000D02*
X153570000Y-126270000D01*
X154940000Y-125500000D02*
X154940000Y-126270000D01*
%TO.C,RV4*%
X141544000Y-107680000D02*
X141544000Y-112400000D01*
X140354000Y-107680000D02*
X141534000Y-107680000D01*
X137454000Y-107680000D02*
X137984000Y-107680000D01*
X135004000Y-107680000D02*
X135834000Y-107680000D01*
X131794000Y-107680000D02*
X133284000Y-107680000D01*
X131794000Y-107680000D02*
X131794000Y-112400000D01*
X141534000Y-116210000D02*
X141534000Y-119270000D01*
X131794000Y-116210000D02*
X131794000Y-119270000D01*
X131794000Y-119270000D02*
X141534000Y-119270000D01*
%TO.C,C6*%
X99222000Y-93536000D02*
X102962000Y-93536000D01*
X99222000Y-93536000D02*
X99222000Y-86296000D01*
X102962000Y-93536000D02*
X102962000Y-86296000D01*
X99222000Y-86296000D02*
X102962000Y-86296000D01*
%TO.C,J2*%
X136458000Y-83118000D02*
X135128000Y-83118000D01*
X136458000Y-81788000D02*
X136458000Y-83118000D01*
X136458000Y-80518000D02*
X136458000Y-75378000D01*
X136458000Y-80518000D02*
X133858000Y-80518000D01*
X136458000Y-75378000D02*
X131258000Y-75378000D01*
X133858000Y-83118000D02*
X131258000Y-83118000D01*
X133858000Y-80518000D02*
X133858000Y-83118000D01*
X131258000Y-83118000D02*
X131258000Y-75378000D01*
%TO.C,R26*%
X87146000Y-81239000D02*
X87916000Y-81239000D01*
X87916000Y-79869000D02*
X87916000Y-82609000D01*
X87916000Y-82609000D02*
X94456000Y-82609000D01*
X94456000Y-79869000D02*
X87916000Y-79869000D01*
X94456000Y-82609000D02*
X94456000Y-79869000D01*
X95226000Y-81239000D02*
X94456000Y-81239000D01*
%TO.C,C1*%
X160606000Y-92272000D02*
X156866000Y-92272000D01*
X160606000Y-92272000D02*
X160606000Y-99512000D01*
X156866000Y-92272000D02*
X156866000Y-99512000D01*
X160606000Y-99512000D02*
X156866000Y-99512000D01*
%TD*%
M02*
