%TF.GenerationSoftware,KiCad,Pcbnew,7.0.2-0*%
%TF.CreationDate,2023-07-19T20:41:47+01:00*%
%TF.ProjectId,bcm-machina-noise,62636d2d-6d61-4636-9869-6e612d6e6f69,rev02*%
%TF.SameCoordinates,Original*%
%TF.FileFunction,Legend,Top*%
%TF.FilePolarity,Positive*%
%FSLAX46Y46*%
G04 Gerber Fmt 4.6, Leading zero omitted, Abs format (unit mm)*
G04 Created by KiCad (PCBNEW 7.0.2-0) date 2023-07-19 20:41:47*
%MOMM*%
%LPD*%
G01*
G04 APERTURE LIST*
%ADD10C,0.150000*%
%ADD11C,0.120000*%
%ADD12C,0.100000*%
%ADD13C,0.200000*%
G04 APERTURE END LIST*
D10*
%TO.C,H4*%
X103378095Y-137952619D02*
X103378095Y-136952619D01*
X103378095Y-137428809D02*
X103949523Y-137428809D01*
X103949523Y-137952619D02*
X103949523Y-136952619D01*
X104854285Y-137285952D02*
X104854285Y-137952619D01*
X104616190Y-136905000D02*
X104378095Y-137619285D01*
X104378095Y-137619285D02*
X104997142Y-137619285D01*
%TO.C,H7*%
X133858095Y-137952619D02*
X133858095Y-136952619D01*
X133858095Y-137428809D02*
X134429523Y-137428809D01*
X134429523Y-137952619D02*
X134429523Y-136952619D01*
X134810476Y-136952619D02*
X135477142Y-136952619D01*
X135477142Y-136952619D02*
X135048571Y-137952619D01*
%TO.C,H2*%
X83058095Y-137952619D02*
X83058095Y-136952619D01*
X83058095Y-137428809D02*
X83629523Y-137428809D01*
X83629523Y-137952619D02*
X83629523Y-136952619D01*
X84058095Y-137047857D02*
X84105714Y-137000238D01*
X84105714Y-137000238D02*
X84200952Y-136952619D01*
X84200952Y-136952619D02*
X84439047Y-136952619D01*
X84439047Y-136952619D02*
X84534285Y-137000238D01*
X84534285Y-137000238D02*
X84581904Y-137047857D01*
X84581904Y-137047857D02*
X84629523Y-137143095D01*
X84629523Y-137143095D02*
X84629523Y-137238333D01*
X84629523Y-137238333D02*
X84581904Y-137381190D01*
X84581904Y-137381190D02*
X84010476Y-137952619D01*
X84010476Y-137952619D02*
X84629523Y-137952619D01*
%TO.C,SW1*%
X73977667Y-114715000D02*
X74120524Y-114762619D01*
X74120524Y-114762619D02*
X74358619Y-114762619D01*
X74358619Y-114762619D02*
X74453857Y-114715000D01*
X74453857Y-114715000D02*
X74501476Y-114667380D01*
X74501476Y-114667380D02*
X74549095Y-114572142D01*
X74549095Y-114572142D02*
X74549095Y-114476904D01*
X74549095Y-114476904D02*
X74501476Y-114381666D01*
X74501476Y-114381666D02*
X74453857Y-114334047D01*
X74453857Y-114334047D02*
X74358619Y-114286428D01*
X74358619Y-114286428D02*
X74168143Y-114238809D01*
X74168143Y-114238809D02*
X74072905Y-114191190D01*
X74072905Y-114191190D02*
X74025286Y-114143571D01*
X74025286Y-114143571D02*
X73977667Y-114048333D01*
X73977667Y-114048333D02*
X73977667Y-113953095D01*
X73977667Y-113953095D02*
X74025286Y-113857857D01*
X74025286Y-113857857D02*
X74072905Y-113810238D01*
X74072905Y-113810238D02*
X74168143Y-113762619D01*
X74168143Y-113762619D02*
X74406238Y-113762619D01*
X74406238Y-113762619D02*
X74549095Y-113810238D01*
X74882429Y-113762619D02*
X75120524Y-114762619D01*
X75120524Y-114762619D02*
X75311000Y-114048333D01*
X75311000Y-114048333D02*
X75501476Y-114762619D01*
X75501476Y-114762619D02*
X75739572Y-113762619D01*
X76644333Y-114762619D02*
X76072905Y-114762619D01*
X76358619Y-114762619D02*
X76358619Y-113762619D01*
X76358619Y-113762619D02*
X76263381Y-113905476D01*
X76263381Y-113905476D02*
X76168143Y-114000714D01*
X76168143Y-114000714D02*
X76072905Y-114048333D01*
%TO.C,J5*%
X72818666Y-75408619D02*
X72818666Y-76122904D01*
X72818666Y-76122904D02*
X72771047Y-76265761D01*
X72771047Y-76265761D02*
X72675809Y-76361000D01*
X72675809Y-76361000D02*
X72532952Y-76408619D01*
X72532952Y-76408619D02*
X72437714Y-76408619D01*
X73771047Y-75408619D02*
X73294857Y-75408619D01*
X73294857Y-75408619D02*
X73247238Y-75884809D01*
X73247238Y-75884809D02*
X73294857Y-75837190D01*
X73294857Y-75837190D02*
X73390095Y-75789571D01*
X73390095Y-75789571D02*
X73628190Y-75789571D01*
X73628190Y-75789571D02*
X73723428Y-75837190D01*
X73723428Y-75837190D02*
X73771047Y-75884809D01*
X73771047Y-75884809D02*
X73818666Y-75980047D01*
X73818666Y-75980047D02*
X73818666Y-76218142D01*
X73818666Y-76218142D02*
X73771047Y-76313380D01*
X73771047Y-76313380D02*
X73723428Y-76361000D01*
X73723428Y-76361000D02*
X73628190Y-76408619D01*
X73628190Y-76408619D02*
X73390095Y-76408619D01*
X73390095Y-76408619D02*
X73294857Y-76361000D01*
X73294857Y-76361000D02*
X73247238Y-76313380D01*
%TO.C,Q1*%
X153588761Y-92251857D02*
X153493523Y-92204238D01*
X153493523Y-92204238D02*
X153398285Y-92109000D01*
X153398285Y-92109000D02*
X153255428Y-91966142D01*
X153255428Y-91966142D02*
X153160190Y-91918523D01*
X153160190Y-91918523D02*
X153064952Y-91918523D01*
X153112571Y-92156619D02*
X153017333Y-92109000D01*
X153017333Y-92109000D02*
X152922095Y-92013761D01*
X152922095Y-92013761D02*
X152874476Y-91823285D01*
X152874476Y-91823285D02*
X152874476Y-91489952D01*
X152874476Y-91489952D02*
X152922095Y-91299476D01*
X152922095Y-91299476D02*
X153017333Y-91204238D01*
X153017333Y-91204238D02*
X153112571Y-91156619D01*
X153112571Y-91156619D02*
X153303047Y-91156619D01*
X153303047Y-91156619D02*
X153398285Y-91204238D01*
X153398285Y-91204238D02*
X153493523Y-91299476D01*
X153493523Y-91299476D02*
X153541142Y-91489952D01*
X153541142Y-91489952D02*
X153541142Y-91823285D01*
X153541142Y-91823285D02*
X153493523Y-92013761D01*
X153493523Y-92013761D02*
X153398285Y-92109000D01*
X153398285Y-92109000D02*
X153303047Y-92156619D01*
X153303047Y-92156619D02*
X153112571Y-92156619D01*
X154493523Y-92156619D02*
X153922095Y-92156619D01*
X154207809Y-92156619D02*
X154207809Y-91156619D01*
X154207809Y-91156619D02*
X154112571Y-91299476D01*
X154112571Y-91299476D02*
X154017333Y-91394714D01*
X154017333Y-91394714D02*
X153922095Y-91442333D01*
%TO.C,R25*%
X163695142Y-99481619D02*
X163361809Y-99005428D01*
X163123714Y-99481619D02*
X163123714Y-98481619D01*
X163123714Y-98481619D02*
X163504666Y-98481619D01*
X163504666Y-98481619D02*
X163599904Y-98529238D01*
X163599904Y-98529238D02*
X163647523Y-98576857D01*
X163647523Y-98576857D02*
X163695142Y-98672095D01*
X163695142Y-98672095D02*
X163695142Y-98814952D01*
X163695142Y-98814952D02*
X163647523Y-98910190D01*
X163647523Y-98910190D02*
X163599904Y-98957809D01*
X163599904Y-98957809D02*
X163504666Y-99005428D01*
X163504666Y-99005428D02*
X163123714Y-99005428D01*
X164076095Y-98576857D02*
X164123714Y-98529238D01*
X164123714Y-98529238D02*
X164218952Y-98481619D01*
X164218952Y-98481619D02*
X164457047Y-98481619D01*
X164457047Y-98481619D02*
X164552285Y-98529238D01*
X164552285Y-98529238D02*
X164599904Y-98576857D01*
X164599904Y-98576857D02*
X164647523Y-98672095D01*
X164647523Y-98672095D02*
X164647523Y-98767333D01*
X164647523Y-98767333D02*
X164599904Y-98910190D01*
X164599904Y-98910190D02*
X164028476Y-99481619D01*
X164028476Y-99481619D02*
X164647523Y-99481619D01*
X165552285Y-98481619D02*
X165076095Y-98481619D01*
X165076095Y-98481619D02*
X165028476Y-98957809D01*
X165028476Y-98957809D02*
X165076095Y-98910190D01*
X165076095Y-98910190D02*
X165171333Y-98862571D01*
X165171333Y-98862571D02*
X165409428Y-98862571D01*
X165409428Y-98862571D02*
X165504666Y-98910190D01*
X165504666Y-98910190D02*
X165552285Y-98957809D01*
X165552285Y-98957809D02*
X165599904Y-99053047D01*
X165599904Y-99053047D02*
X165599904Y-99291142D01*
X165599904Y-99291142D02*
X165552285Y-99386380D01*
X165552285Y-99386380D02*
X165504666Y-99434000D01*
X165504666Y-99434000D02*
X165409428Y-99481619D01*
X165409428Y-99481619D02*
X165171333Y-99481619D01*
X165171333Y-99481619D02*
X165076095Y-99434000D01*
X165076095Y-99434000D02*
X165028476Y-99386380D01*
%TO.C,R16*%
X183864619Y-98940857D02*
X183388428Y-99274190D01*
X183864619Y-99512285D02*
X182864619Y-99512285D01*
X182864619Y-99512285D02*
X182864619Y-99131333D01*
X182864619Y-99131333D02*
X182912238Y-99036095D01*
X182912238Y-99036095D02*
X182959857Y-98988476D01*
X182959857Y-98988476D02*
X183055095Y-98940857D01*
X183055095Y-98940857D02*
X183197952Y-98940857D01*
X183197952Y-98940857D02*
X183293190Y-98988476D01*
X183293190Y-98988476D02*
X183340809Y-99036095D01*
X183340809Y-99036095D02*
X183388428Y-99131333D01*
X183388428Y-99131333D02*
X183388428Y-99512285D01*
X183864619Y-97988476D02*
X183864619Y-98559904D01*
X183864619Y-98274190D02*
X182864619Y-98274190D01*
X182864619Y-98274190D02*
X183007476Y-98369428D01*
X183007476Y-98369428D02*
X183102714Y-98464666D01*
X183102714Y-98464666D02*
X183150333Y-98559904D01*
X182864619Y-97131333D02*
X182864619Y-97321809D01*
X182864619Y-97321809D02*
X182912238Y-97417047D01*
X182912238Y-97417047D02*
X182959857Y-97464666D01*
X182959857Y-97464666D02*
X183102714Y-97559904D01*
X183102714Y-97559904D02*
X183293190Y-97607523D01*
X183293190Y-97607523D02*
X183674142Y-97607523D01*
X183674142Y-97607523D02*
X183769380Y-97559904D01*
X183769380Y-97559904D02*
X183817000Y-97512285D01*
X183817000Y-97512285D02*
X183864619Y-97417047D01*
X183864619Y-97417047D02*
X183864619Y-97226571D01*
X183864619Y-97226571D02*
X183817000Y-97131333D01*
X183817000Y-97131333D02*
X183769380Y-97083714D01*
X183769380Y-97083714D02*
X183674142Y-97036095D01*
X183674142Y-97036095D02*
X183436047Y-97036095D01*
X183436047Y-97036095D02*
X183340809Y-97083714D01*
X183340809Y-97083714D02*
X183293190Y-97131333D01*
X183293190Y-97131333D02*
X183245571Y-97226571D01*
X183245571Y-97226571D02*
X183245571Y-97417047D01*
X183245571Y-97417047D02*
X183293190Y-97512285D01*
X183293190Y-97512285D02*
X183340809Y-97559904D01*
X183340809Y-97559904D02*
X183436047Y-97607523D01*
%TO.C,C3*%
X126605380Y-90082666D02*
X126653000Y-90130285D01*
X126653000Y-90130285D02*
X126700619Y-90273142D01*
X126700619Y-90273142D02*
X126700619Y-90368380D01*
X126700619Y-90368380D02*
X126653000Y-90511237D01*
X126653000Y-90511237D02*
X126557761Y-90606475D01*
X126557761Y-90606475D02*
X126462523Y-90654094D01*
X126462523Y-90654094D02*
X126272047Y-90701713D01*
X126272047Y-90701713D02*
X126129190Y-90701713D01*
X126129190Y-90701713D02*
X125938714Y-90654094D01*
X125938714Y-90654094D02*
X125843476Y-90606475D01*
X125843476Y-90606475D02*
X125748238Y-90511237D01*
X125748238Y-90511237D02*
X125700619Y-90368380D01*
X125700619Y-90368380D02*
X125700619Y-90273142D01*
X125700619Y-90273142D02*
X125748238Y-90130285D01*
X125748238Y-90130285D02*
X125795857Y-90082666D01*
X125700619Y-89749332D02*
X125700619Y-89130285D01*
X125700619Y-89130285D02*
X126081571Y-89463618D01*
X126081571Y-89463618D02*
X126081571Y-89320761D01*
X126081571Y-89320761D02*
X126129190Y-89225523D01*
X126129190Y-89225523D02*
X126176809Y-89177904D01*
X126176809Y-89177904D02*
X126272047Y-89130285D01*
X126272047Y-89130285D02*
X126510142Y-89130285D01*
X126510142Y-89130285D02*
X126605380Y-89177904D01*
X126605380Y-89177904D02*
X126653000Y-89225523D01*
X126653000Y-89225523D02*
X126700619Y-89320761D01*
X126700619Y-89320761D02*
X126700619Y-89606475D01*
X126700619Y-89606475D02*
X126653000Y-89701713D01*
X126653000Y-89701713D02*
X126605380Y-89749332D01*
%TO.C,R22*%
X76319142Y-90886619D02*
X75985809Y-90410428D01*
X75747714Y-90886619D02*
X75747714Y-89886619D01*
X75747714Y-89886619D02*
X76128666Y-89886619D01*
X76128666Y-89886619D02*
X76223904Y-89934238D01*
X76223904Y-89934238D02*
X76271523Y-89981857D01*
X76271523Y-89981857D02*
X76319142Y-90077095D01*
X76319142Y-90077095D02*
X76319142Y-90219952D01*
X76319142Y-90219952D02*
X76271523Y-90315190D01*
X76271523Y-90315190D02*
X76223904Y-90362809D01*
X76223904Y-90362809D02*
X76128666Y-90410428D01*
X76128666Y-90410428D02*
X75747714Y-90410428D01*
X76700095Y-89981857D02*
X76747714Y-89934238D01*
X76747714Y-89934238D02*
X76842952Y-89886619D01*
X76842952Y-89886619D02*
X77081047Y-89886619D01*
X77081047Y-89886619D02*
X77176285Y-89934238D01*
X77176285Y-89934238D02*
X77223904Y-89981857D01*
X77223904Y-89981857D02*
X77271523Y-90077095D01*
X77271523Y-90077095D02*
X77271523Y-90172333D01*
X77271523Y-90172333D02*
X77223904Y-90315190D01*
X77223904Y-90315190D02*
X76652476Y-90886619D01*
X76652476Y-90886619D02*
X77271523Y-90886619D01*
X77652476Y-89981857D02*
X77700095Y-89934238D01*
X77700095Y-89934238D02*
X77795333Y-89886619D01*
X77795333Y-89886619D02*
X78033428Y-89886619D01*
X78033428Y-89886619D02*
X78128666Y-89934238D01*
X78128666Y-89934238D02*
X78176285Y-89981857D01*
X78176285Y-89981857D02*
X78223904Y-90077095D01*
X78223904Y-90077095D02*
X78223904Y-90172333D01*
X78223904Y-90172333D02*
X78176285Y-90315190D01*
X78176285Y-90315190D02*
X77604857Y-90886619D01*
X77604857Y-90886619D02*
X78223904Y-90886619D01*
%TO.C,R11*%
X175722619Y-130182857D02*
X175246428Y-130516190D01*
X175722619Y-130754285D02*
X174722619Y-130754285D01*
X174722619Y-130754285D02*
X174722619Y-130373333D01*
X174722619Y-130373333D02*
X174770238Y-130278095D01*
X174770238Y-130278095D02*
X174817857Y-130230476D01*
X174817857Y-130230476D02*
X174913095Y-130182857D01*
X174913095Y-130182857D02*
X175055952Y-130182857D01*
X175055952Y-130182857D02*
X175151190Y-130230476D01*
X175151190Y-130230476D02*
X175198809Y-130278095D01*
X175198809Y-130278095D02*
X175246428Y-130373333D01*
X175246428Y-130373333D02*
X175246428Y-130754285D01*
X175722619Y-129230476D02*
X175722619Y-129801904D01*
X175722619Y-129516190D02*
X174722619Y-129516190D01*
X174722619Y-129516190D02*
X174865476Y-129611428D01*
X174865476Y-129611428D02*
X174960714Y-129706666D01*
X174960714Y-129706666D02*
X175008333Y-129801904D01*
X175722619Y-128278095D02*
X175722619Y-128849523D01*
X175722619Y-128563809D02*
X174722619Y-128563809D01*
X174722619Y-128563809D02*
X174865476Y-128659047D01*
X174865476Y-128659047D02*
X174960714Y-128754285D01*
X174960714Y-128754285D02*
X175008333Y-128849523D01*
%TO.C,H8*%
X144018095Y-137952619D02*
X144018095Y-136952619D01*
X144018095Y-137428809D02*
X144589523Y-137428809D01*
X144589523Y-137952619D02*
X144589523Y-136952619D01*
X145208571Y-137381190D02*
X145113333Y-137333571D01*
X145113333Y-137333571D02*
X145065714Y-137285952D01*
X145065714Y-137285952D02*
X145018095Y-137190714D01*
X145018095Y-137190714D02*
X145018095Y-137143095D01*
X145018095Y-137143095D02*
X145065714Y-137047857D01*
X145065714Y-137047857D02*
X145113333Y-137000238D01*
X145113333Y-137000238D02*
X145208571Y-136952619D01*
X145208571Y-136952619D02*
X145399047Y-136952619D01*
X145399047Y-136952619D02*
X145494285Y-137000238D01*
X145494285Y-137000238D02*
X145541904Y-137047857D01*
X145541904Y-137047857D02*
X145589523Y-137143095D01*
X145589523Y-137143095D02*
X145589523Y-137190714D01*
X145589523Y-137190714D02*
X145541904Y-137285952D01*
X145541904Y-137285952D02*
X145494285Y-137333571D01*
X145494285Y-137333571D02*
X145399047Y-137381190D01*
X145399047Y-137381190D02*
X145208571Y-137381190D01*
X145208571Y-137381190D02*
X145113333Y-137428809D01*
X145113333Y-137428809D02*
X145065714Y-137476428D01*
X145065714Y-137476428D02*
X145018095Y-137571666D01*
X145018095Y-137571666D02*
X145018095Y-137762142D01*
X145018095Y-137762142D02*
X145065714Y-137857380D01*
X145065714Y-137857380D02*
X145113333Y-137905000D01*
X145113333Y-137905000D02*
X145208571Y-137952619D01*
X145208571Y-137952619D02*
X145399047Y-137952619D01*
X145399047Y-137952619D02*
X145494285Y-137905000D01*
X145494285Y-137905000D02*
X145541904Y-137857380D01*
X145541904Y-137857380D02*
X145589523Y-137762142D01*
X145589523Y-137762142D02*
X145589523Y-137571666D01*
X145589523Y-137571666D02*
X145541904Y-137476428D01*
X145541904Y-137476428D02*
X145494285Y-137428809D01*
X145494285Y-137428809D02*
X145399047Y-137381190D01*
%TO.C,D1*%
X74450905Y-106530619D02*
X74450905Y-105530619D01*
X74450905Y-105530619D02*
X74689000Y-105530619D01*
X74689000Y-105530619D02*
X74831857Y-105578238D01*
X74831857Y-105578238D02*
X74927095Y-105673476D01*
X74927095Y-105673476D02*
X74974714Y-105768714D01*
X74974714Y-105768714D02*
X75022333Y-105959190D01*
X75022333Y-105959190D02*
X75022333Y-106102047D01*
X75022333Y-106102047D02*
X74974714Y-106292523D01*
X74974714Y-106292523D02*
X74927095Y-106387761D01*
X74927095Y-106387761D02*
X74831857Y-106483000D01*
X74831857Y-106483000D02*
X74689000Y-106530619D01*
X74689000Y-106530619D02*
X74450905Y-106530619D01*
X75974714Y-106530619D02*
X75403286Y-106530619D01*
X75689000Y-106530619D02*
X75689000Y-105530619D01*
X75689000Y-105530619D02*
X75593762Y-105673476D01*
X75593762Y-105673476D02*
X75498524Y-105768714D01*
X75498524Y-105768714D02*
X75403286Y-105816333D01*
%TO.C,R14*%
X145002619Y-82209857D02*
X144526428Y-82543190D01*
X145002619Y-82781285D02*
X144002619Y-82781285D01*
X144002619Y-82781285D02*
X144002619Y-82400333D01*
X144002619Y-82400333D02*
X144050238Y-82305095D01*
X144050238Y-82305095D02*
X144097857Y-82257476D01*
X144097857Y-82257476D02*
X144193095Y-82209857D01*
X144193095Y-82209857D02*
X144335952Y-82209857D01*
X144335952Y-82209857D02*
X144431190Y-82257476D01*
X144431190Y-82257476D02*
X144478809Y-82305095D01*
X144478809Y-82305095D02*
X144526428Y-82400333D01*
X144526428Y-82400333D02*
X144526428Y-82781285D01*
X145002619Y-81257476D02*
X145002619Y-81828904D01*
X145002619Y-81543190D02*
X144002619Y-81543190D01*
X144002619Y-81543190D02*
X144145476Y-81638428D01*
X144145476Y-81638428D02*
X144240714Y-81733666D01*
X144240714Y-81733666D02*
X144288333Y-81828904D01*
X144335952Y-80400333D02*
X145002619Y-80400333D01*
X143955000Y-80638428D02*
X144669285Y-80876523D01*
X144669285Y-80876523D02*
X144669285Y-80257476D01*
%TO.C,C5*%
X171283333Y-84949380D02*
X171235714Y-84997000D01*
X171235714Y-84997000D02*
X171092857Y-85044619D01*
X171092857Y-85044619D02*
X170997619Y-85044619D01*
X170997619Y-85044619D02*
X170854762Y-84997000D01*
X170854762Y-84997000D02*
X170759524Y-84901761D01*
X170759524Y-84901761D02*
X170711905Y-84806523D01*
X170711905Y-84806523D02*
X170664286Y-84616047D01*
X170664286Y-84616047D02*
X170664286Y-84473190D01*
X170664286Y-84473190D02*
X170711905Y-84282714D01*
X170711905Y-84282714D02*
X170759524Y-84187476D01*
X170759524Y-84187476D02*
X170854762Y-84092238D01*
X170854762Y-84092238D02*
X170997619Y-84044619D01*
X170997619Y-84044619D02*
X171092857Y-84044619D01*
X171092857Y-84044619D02*
X171235714Y-84092238D01*
X171235714Y-84092238D02*
X171283333Y-84139857D01*
X172188095Y-84044619D02*
X171711905Y-84044619D01*
X171711905Y-84044619D02*
X171664286Y-84520809D01*
X171664286Y-84520809D02*
X171711905Y-84473190D01*
X171711905Y-84473190D02*
X171807143Y-84425571D01*
X171807143Y-84425571D02*
X172045238Y-84425571D01*
X172045238Y-84425571D02*
X172140476Y-84473190D01*
X172140476Y-84473190D02*
X172188095Y-84520809D01*
X172188095Y-84520809D02*
X172235714Y-84616047D01*
X172235714Y-84616047D02*
X172235714Y-84854142D01*
X172235714Y-84854142D02*
X172188095Y-84949380D01*
X172188095Y-84949380D02*
X172140476Y-84997000D01*
X172140476Y-84997000D02*
X172045238Y-85044619D01*
X172045238Y-85044619D02*
X171807143Y-85044619D01*
X171807143Y-85044619D02*
X171711905Y-84997000D01*
X171711905Y-84997000D02*
X171664286Y-84949380D01*
%TO.C,H10*%
X163861905Y-137952619D02*
X163861905Y-136952619D01*
X163861905Y-137428809D02*
X164433333Y-137428809D01*
X164433333Y-137952619D02*
X164433333Y-136952619D01*
X165433333Y-137952619D02*
X164861905Y-137952619D01*
X165147619Y-137952619D02*
X165147619Y-136952619D01*
X165147619Y-136952619D02*
X165052381Y-137095476D01*
X165052381Y-137095476D02*
X164957143Y-137190714D01*
X164957143Y-137190714D02*
X164861905Y-137238333D01*
X166052381Y-136952619D02*
X166147619Y-136952619D01*
X166147619Y-136952619D02*
X166242857Y-137000238D01*
X166242857Y-137000238D02*
X166290476Y-137047857D01*
X166290476Y-137047857D02*
X166338095Y-137143095D01*
X166338095Y-137143095D02*
X166385714Y-137333571D01*
X166385714Y-137333571D02*
X166385714Y-137571666D01*
X166385714Y-137571666D02*
X166338095Y-137762142D01*
X166338095Y-137762142D02*
X166290476Y-137857380D01*
X166290476Y-137857380D02*
X166242857Y-137905000D01*
X166242857Y-137905000D02*
X166147619Y-137952619D01*
X166147619Y-137952619D02*
X166052381Y-137952619D01*
X166052381Y-137952619D02*
X165957143Y-137905000D01*
X165957143Y-137905000D02*
X165909524Y-137857380D01*
X165909524Y-137857380D02*
X165861905Y-137762142D01*
X165861905Y-137762142D02*
X165814286Y-137571666D01*
X165814286Y-137571666D02*
X165814286Y-137333571D01*
X165814286Y-137333571D02*
X165861905Y-137143095D01*
X165861905Y-137143095D02*
X165909524Y-137047857D01*
X165909524Y-137047857D02*
X165957143Y-137000238D01*
X165957143Y-137000238D02*
X166052381Y-136952619D01*
%TO.C,R3*%
X94442619Y-129706666D02*
X93966428Y-130039999D01*
X94442619Y-130278094D02*
X93442619Y-130278094D01*
X93442619Y-130278094D02*
X93442619Y-129897142D01*
X93442619Y-129897142D02*
X93490238Y-129801904D01*
X93490238Y-129801904D02*
X93537857Y-129754285D01*
X93537857Y-129754285D02*
X93633095Y-129706666D01*
X93633095Y-129706666D02*
X93775952Y-129706666D01*
X93775952Y-129706666D02*
X93871190Y-129754285D01*
X93871190Y-129754285D02*
X93918809Y-129801904D01*
X93918809Y-129801904D02*
X93966428Y-129897142D01*
X93966428Y-129897142D02*
X93966428Y-130278094D01*
X93442619Y-129373332D02*
X93442619Y-128754285D01*
X93442619Y-128754285D02*
X93823571Y-129087618D01*
X93823571Y-129087618D02*
X93823571Y-128944761D01*
X93823571Y-128944761D02*
X93871190Y-128849523D01*
X93871190Y-128849523D02*
X93918809Y-128801904D01*
X93918809Y-128801904D02*
X94014047Y-128754285D01*
X94014047Y-128754285D02*
X94252142Y-128754285D01*
X94252142Y-128754285D02*
X94347380Y-128801904D01*
X94347380Y-128801904D02*
X94395000Y-128849523D01*
X94395000Y-128849523D02*
X94442619Y-128944761D01*
X94442619Y-128944761D02*
X94442619Y-129230475D01*
X94442619Y-129230475D02*
X94395000Y-129325713D01*
X94395000Y-129325713D02*
X94347380Y-129373332D01*
%TO.C,R19*%
X109085142Y-76662619D02*
X108751809Y-76186428D01*
X108513714Y-76662619D02*
X108513714Y-75662619D01*
X108513714Y-75662619D02*
X108894666Y-75662619D01*
X108894666Y-75662619D02*
X108989904Y-75710238D01*
X108989904Y-75710238D02*
X109037523Y-75757857D01*
X109037523Y-75757857D02*
X109085142Y-75853095D01*
X109085142Y-75853095D02*
X109085142Y-75995952D01*
X109085142Y-75995952D02*
X109037523Y-76091190D01*
X109037523Y-76091190D02*
X108989904Y-76138809D01*
X108989904Y-76138809D02*
X108894666Y-76186428D01*
X108894666Y-76186428D02*
X108513714Y-76186428D01*
X110037523Y-76662619D02*
X109466095Y-76662619D01*
X109751809Y-76662619D02*
X109751809Y-75662619D01*
X109751809Y-75662619D02*
X109656571Y-75805476D01*
X109656571Y-75805476D02*
X109561333Y-75900714D01*
X109561333Y-75900714D02*
X109466095Y-75948333D01*
X110513714Y-76662619D02*
X110704190Y-76662619D01*
X110704190Y-76662619D02*
X110799428Y-76615000D01*
X110799428Y-76615000D02*
X110847047Y-76567380D01*
X110847047Y-76567380D02*
X110942285Y-76424523D01*
X110942285Y-76424523D02*
X110989904Y-76234047D01*
X110989904Y-76234047D02*
X110989904Y-75853095D01*
X110989904Y-75853095D02*
X110942285Y-75757857D01*
X110942285Y-75757857D02*
X110894666Y-75710238D01*
X110894666Y-75710238D02*
X110799428Y-75662619D01*
X110799428Y-75662619D02*
X110608952Y-75662619D01*
X110608952Y-75662619D02*
X110513714Y-75710238D01*
X110513714Y-75710238D02*
X110466095Y-75757857D01*
X110466095Y-75757857D02*
X110418476Y-75853095D01*
X110418476Y-75853095D02*
X110418476Y-76091190D01*
X110418476Y-76091190D02*
X110466095Y-76186428D01*
X110466095Y-76186428D02*
X110513714Y-76234047D01*
X110513714Y-76234047D02*
X110608952Y-76281666D01*
X110608952Y-76281666D02*
X110799428Y-76281666D01*
X110799428Y-76281666D02*
X110894666Y-76234047D01*
X110894666Y-76234047D02*
X110942285Y-76186428D01*
X110942285Y-76186428D02*
X110989904Y-76091190D01*
%TO.C,H1*%
X72898095Y-137952619D02*
X72898095Y-136952619D01*
X72898095Y-137428809D02*
X73469523Y-137428809D01*
X73469523Y-137952619D02*
X73469523Y-136952619D01*
X74469523Y-137952619D02*
X73898095Y-137952619D01*
X74183809Y-137952619D02*
X74183809Y-136952619D01*
X74183809Y-136952619D02*
X74088571Y-137095476D01*
X74088571Y-137095476D02*
X73993333Y-137190714D01*
X73993333Y-137190714D02*
X73898095Y-137238333D01*
%TO.C,R10*%
X165562619Y-130182857D02*
X165086428Y-130516190D01*
X165562619Y-130754285D02*
X164562619Y-130754285D01*
X164562619Y-130754285D02*
X164562619Y-130373333D01*
X164562619Y-130373333D02*
X164610238Y-130278095D01*
X164610238Y-130278095D02*
X164657857Y-130230476D01*
X164657857Y-130230476D02*
X164753095Y-130182857D01*
X164753095Y-130182857D02*
X164895952Y-130182857D01*
X164895952Y-130182857D02*
X164991190Y-130230476D01*
X164991190Y-130230476D02*
X165038809Y-130278095D01*
X165038809Y-130278095D02*
X165086428Y-130373333D01*
X165086428Y-130373333D02*
X165086428Y-130754285D01*
X165562619Y-129230476D02*
X165562619Y-129801904D01*
X165562619Y-129516190D02*
X164562619Y-129516190D01*
X164562619Y-129516190D02*
X164705476Y-129611428D01*
X164705476Y-129611428D02*
X164800714Y-129706666D01*
X164800714Y-129706666D02*
X164848333Y-129801904D01*
X164562619Y-128611428D02*
X164562619Y-128516190D01*
X164562619Y-128516190D02*
X164610238Y-128420952D01*
X164610238Y-128420952D02*
X164657857Y-128373333D01*
X164657857Y-128373333D02*
X164753095Y-128325714D01*
X164753095Y-128325714D02*
X164943571Y-128278095D01*
X164943571Y-128278095D02*
X165181666Y-128278095D01*
X165181666Y-128278095D02*
X165372142Y-128325714D01*
X165372142Y-128325714D02*
X165467380Y-128373333D01*
X165467380Y-128373333D02*
X165515000Y-128420952D01*
X165515000Y-128420952D02*
X165562619Y-128516190D01*
X165562619Y-128516190D02*
X165562619Y-128611428D01*
X165562619Y-128611428D02*
X165515000Y-128706666D01*
X165515000Y-128706666D02*
X165467380Y-128754285D01*
X165467380Y-128754285D02*
X165372142Y-128801904D01*
X165372142Y-128801904D02*
X165181666Y-128849523D01*
X165181666Y-128849523D02*
X164943571Y-128849523D01*
X164943571Y-128849523D02*
X164753095Y-128801904D01*
X164753095Y-128801904D02*
X164657857Y-128754285D01*
X164657857Y-128754285D02*
X164610238Y-128706666D01*
X164610238Y-128706666D02*
X164562619Y-128611428D01*
%TO.C,R18*%
X109085142Y-81742619D02*
X108751809Y-81266428D01*
X108513714Y-81742619D02*
X108513714Y-80742619D01*
X108513714Y-80742619D02*
X108894666Y-80742619D01*
X108894666Y-80742619D02*
X108989904Y-80790238D01*
X108989904Y-80790238D02*
X109037523Y-80837857D01*
X109037523Y-80837857D02*
X109085142Y-80933095D01*
X109085142Y-80933095D02*
X109085142Y-81075952D01*
X109085142Y-81075952D02*
X109037523Y-81171190D01*
X109037523Y-81171190D02*
X108989904Y-81218809D01*
X108989904Y-81218809D02*
X108894666Y-81266428D01*
X108894666Y-81266428D02*
X108513714Y-81266428D01*
X110037523Y-81742619D02*
X109466095Y-81742619D01*
X109751809Y-81742619D02*
X109751809Y-80742619D01*
X109751809Y-80742619D02*
X109656571Y-80885476D01*
X109656571Y-80885476D02*
X109561333Y-80980714D01*
X109561333Y-80980714D02*
X109466095Y-81028333D01*
X110608952Y-81171190D02*
X110513714Y-81123571D01*
X110513714Y-81123571D02*
X110466095Y-81075952D01*
X110466095Y-81075952D02*
X110418476Y-80980714D01*
X110418476Y-80980714D02*
X110418476Y-80933095D01*
X110418476Y-80933095D02*
X110466095Y-80837857D01*
X110466095Y-80837857D02*
X110513714Y-80790238D01*
X110513714Y-80790238D02*
X110608952Y-80742619D01*
X110608952Y-80742619D02*
X110799428Y-80742619D01*
X110799428Y-80742619D02*
X110894666Y-80790238D01*
X110894666Y-80790238D02*
X110942285Y-80837857D01*
X110942285Y-80837857D02*
X110989904Y-80933095D01*
X110989904Y-80933095D02*
X110989904Y-80980714D01*
X110989904Y-80980714D02*
X110942285Y-81075952D01*
X110942285Y-81075952D02*
X110894666Y-81123571D01*
X110894666Y-81123571D02*
X110799428Y-81171190D01*
X110799428Y-81171190D02*
X110608952Y-81171190D01*
X110608952Y-81171190D02*
X110513714Y-81218809D01*
X110513714Y-81218809D02*
X110466095Y-81266428D01*
X110466095Y-81266428D02*
X110418476Y-81361666D01*
X110418476Y-81361666D02*
X110418476Y-81552142D01*
X110418476Y-81552142D02*
X110466095Y-81647380D01*
X110466095Y-81647380D02*
X110513714Y-81695000D01*
X110513714Y-81695000D02*
X110608952Y-81742619D01*
X110608952Y-81742619D02*
X110799428Y-81742619D01*
X110799428Y-81742619D02*
X110894666Y-81695000D01*
X110894666Y-81695000D02*
X110942285Y-81647380D01*
X110942285Y-81647380D02*
X110989904Y-81552142D01*
X110989904Y-81552142D02*
X110989904Y-81361666D01*
X110989904Y-81361666D02*
X110942285Y-81266428D01*
X110942285Y-81266428D02*
X110894666Y-81218809D01*
X110894666Y-81218809D02*
X110799428Y-81171190D01*
%TO.C,C4*%
X129627333Y-94601380D02*
X129579714Y-94649000D01*
X129579714Y-94649000D02*
X129436857Y-94696619D01*
X129436857Y-94696619D02*
X129341619Y-94696619D01*
X129341619Y-94696619D02*
X129198762Y-94649000D01*
X129198762Y-94649000D02*
X129103524Y-94553761D01*
X129103524Y-94553761D02*
X129055905Y-94458523D01*
X129055905Y-94458523D02*
X129008286Y-94268047D01*
X129008286Y-94268047D02*
X129008286Y-94125190D01*
X129008286Y-94125190D02*
X129055905Y-93934714D01*
X129055905Y-93934714D02*
X129103524Y-93839476D01*
X129103524Y-93839476D02*
X129198762Y-93744238D01*
X129198762Y-93744238D02*
X129341619Y-93696619D01*
X129341619Y-93696619D02*
X129436857Y-93696619D01*
X129436857Y-93696619D02*
X129579714Y-93744238D01*
X129579714Y-93744238D02*
X129627333Y-93791857D01*
X130484476Y-94029952D02*
X130484476Y-94696619D01*
X130246381Y-93649000D02*
X130008286Y-94363285D01*
X130008286Y-94363285D02*
X130627333Y-94363285D01*
%TO.C,R2*%
X84282619Y-129706666D02*
X83806428Y-130039999D01*
X84282619Y-130278094D02*
X83282619Y-130278094D01*
X83282619Y-130278094D02*
X83282619Y-129897142D01*
X83282619Y-129897142D02*
X83330238Y-129801904D01*
X83330238Y-129801904D02*
X83377857Y-129754285D01*
X83377857Y-129754285D02*
X83473095Y-129706666D01*
X83473095Y-129706666D02*
X83615952Y-129706666D01*
X83615952Y-129706666D02*
X83711190Y-129754285D01*
X83711190Y-129754285D02*
X83758809Y-129801904D01*
X83758809Y-129801904D02*
X83806428Y-129897142D01*
X83806428Y-129897142D02*
X83806428Y-130278094D01*
X83377857Y-129325713D02*
X83330238Y-129278094D01*
X83330238Y-129278094D02*
X83282619Y-129182856D01*
X83282619Y-129182856D02*
X83282619Y-128944761D01*
X83282619Y-128944761D02*
X83330238Y-128849523D01*
X83330238Y-128849523D02*
X83377857Y-128801904D01*
X83377857Y-128801904D02*
X83473095Y-128754285D01*
X83473095Y-128754285D02*
X83568333Y-128754285D01*
X83568333Y-128754285D02*
X83711190Y-128801904D01*
X83711190Y-128801904D02*
X84282619Y-129373332D01*
X84282619Y-129373332D02*
X84282619Y-128754285D01*
%TO.C,H5*%
X113538095Y-137952619D02*
X113538095Y-136952619D01*
X113538095Y-137428809D02*
X114109523Y-137428809D01*
X114109523Y-137952619D02*
X114109523Y-136952619D01*
X115061904Y-136952619D02*
X114585714Y-136952619D01*
X114585714Y-136952619D02*
X114538095Y-137428809D01*
X114538095Y-137428809D02*
X114585714Y-137381190D01*
X114585714Y-137381190D02*
X114680952Y-137333571D01*
X114680952Y-137333571D02*
X114919047Y-137333571D01*
X114919047Y-137333571D02*
X115014285Y-137381190D01*
X115014285Y-137381190D02*
X115061904Y-137428809D01*
X115061904Y-137428809D02*
X115109523Y-137524047D01*
X115109523Y-137524047D02*
X115109523Y-137762142D01*
X115109523Y-137762142D02*
X115061904Y-137857380D01*
X115061904Y-137857380D02*
X115014285Y-137905000D01*
X115014285Y-137905000D02*
X114919047Y-137952619D01*
X114919047Y-137952619D02*
X114680952Y-137952619D01*
X114680952Y-137952619D02*
X114585714Y-137905000D01*
X114585714Y-137905000D02*
X114538095Y-137857380D01*
%TO.C,R12*%
X185882619Y-130182857D02*
X185406428Y-130516190D01*
X185882619Y-130754285D02*
X184882619Y-130754285D01*
X184882619Y-130754285D02*
X184882619Y-130373333D01*
X184882619Y-130373333D02*
X184930238Y-130278095D01*
X184930238Y-130278095D02*
X184977857Y-130230476D01*
X184977857Y-130230476D02*
X185073095Y-130182857D01*
X185073095Y-130182857D02*
X185215952Y-130182857D01*
X185215952Y-130182857D02*
X185311190Y-130230476D01*
X185311190Y-130230476D02*
X185358809Y-130278095D01*
X185358809Y-130278095D02*
X185406428Y-130373333D01*
X185406428Y-130373333D02*
X185406428Y-130754285D01*
X185882619Y-129230476D02*
X185882619Y-129801904D01*
X185882619Y-129516190D02*
X184882619Y-129516190D01*
X184882619Y-129516190D02*
X185025476Y-129611428D01*
X185025476Y-129611428D02*
X185120714Y-129706666D01*
X185120714Y-129706666D02*
X185168333Y-129801904D01*
X184977857Y-128849523D02*
X184930238Y-128801904D01*
X184930238Y-128801904D02*
X184882619Y-128706666D01*
X184882619Y-128706666D02*
X184882619Y-128468571D01*
X184882619Y-128468571D02*
X184930238Y-128373333D01*
X184930238Y-128373333D02*
X184977857Y-128325714D01*
X184977857Y-128325714D02*
X185073095Y-128278095D01*
X185073095Y-128278095D02*
X185168333Y-128278095D01*
X185168333Y-128278095D02*
X185311190Y-128325714D01*
X185311190Y-128325714D02*
X185882619Y-128897142D01*
X185882619Y-128897142D02*
X185882619Y-128278095D01*
%TO.C,R21*%
X87330619Y-102496857D02*
X86854428Y-102830190D01*
X87330619Y-103068285D02*
X86330619Y-103068285D01*
X86330619Y-103068285D02*
X86330619Y-102687333D01*
X86330619Y-102687333D02*
X86378238Y-102592095D01*
X86378238Y-102592095D02*
X86425857Y-102544476D01*
X86425857Y-102544476D02*
X86521095Y-102496857D01*
X86521095Y-102496857D02*
X86663952Y-102496857D01*
X86663952Y-102496857D02*
X86759190Y-102544476D01*
X86759190Y-102544476D02*
X86806809Y-102592095D01*
X86806809Y-102592095D02*
X86854428Y-102687333D01*
X86854428Y-102687333D02*
X86854428Y-103068285D01*
X86425857Y-102115904D02*
X86378238Y-102068285D01*
X86378238Y-102068285D02*
X86330619Y-101973047D01*
X86330619Y-101973047D02*
X86330619Y-101734952D01*
X86330619Y-101734952D02*
X86378238Y-101639714D01*
X86378238Y-101639714D02*
X86425857Y-101592095D01*
X86425857Y-101592095D02*
X86521095Y-101544476D01*
X86521095Y-101544476D02*
X86616333Y-101544476D01*
X86616333Y-101544476D02*
X86759190Y-101592095D01*
X86759190Y-101592095D02*
X87330619Y-102163523D01*
X87330619Y-102163523D02*
X87330619Y-101544476D01*
X87330619Y-100592095D02*
X87330619Y-101163523D01*
X87330619Y-100877809D02*
X86330619Y-100877809D01*
X86330619Y-100877809D02*
X86473476Y-100973047D01*
X86473476Y-100973047D02*
X86568714Y-101068285D01*
X86568714Y-101068285D02*
X86616333Y-101163523D01*
%TO.C,R13*%
X137876619Y-82176857D02*
X137400428Y-82510190D01*
X137876619Y-82748285D02*
X136876619Y-82748285D01*
X136876619Y-82748285D02*
X136876619Y-82367333D01*
X136876619Y-82367333D02*
X136924238Y-82272095D01*
X136924238Y-82272095D02*
X136971857Y-82224476D01*
X136971857Y-82224476D02*
X137067095Y-82176857D01*
X137067095Y-82176857D02*
X137209952Y-82176857D01*
X137209952Y-82176857D02*
X137305190Y-82224476D01*
X137305190Y-82224476D02*
X137352809Y-82272095D01*
X137352809Y-82272095D02*
X137400428Y-82367333D01*
X137400428Y-82367333D02*
X137400428Y-82748285D01*
X137876619Y-81224476D02*
X137876619Y-81795904D01*
X137876619Y-81510190D02*
X136876619Y-81510190D01*
X136876619Y-81510190D02*
X137019476Y-81605428D01*
X137019476Y-81605428D02*
X137114714Y-81700666D01*
X137114714Y-81700666D02*
X137162333Y-81795904D01*
X136876619Y-80891142D02*
X136876619Y-80272095D01*
X136876619Y-80272095D02*
X137257571Y-80605428D01*
X137257571Y-80605428D02*
X137257571Y-80462571D01*
X137257571Y-80462571D02*
X137305190Y-80367333D01*
X137305190Y-80367333D02*
X137352809Y-80319714D01*
X137352809Y-80319714D02*
X137448047Y-80272095D01*
X137448047Y-80272095D02*
X137686142Y-80272095D01*
X137686142Y-80272095D02*
X137781380Y-80319714D01*
X137781380Y-80319714D02*
X137829000Y-80367333D01*
X137829000Y-80367333D02*
X137876619Y-80462571D01*
X137876619Y-80462571D02*
X137876619Y-80748285D01*
X137876619Y-80748285D02*
X137829000Y-80843523D01*
X137829000Y-80843523D02*
X137781380Y-80891142D01*
%TO.C,SW2*%
X91922667Y-114715000D02*
X92065524Y-114762619D01*
X92065524Y-114762619D02*
X92303619Y-114762619D01*
X92303619Y-114762619D02*
X92398857Y-114715000D01*
X92398857Y-114715000D02*
X92446476Y-114667380D01*
X92446476Y-114667380D02*
X92494095Y-114572142D01*
X92494095Y-114572142D02*
X92494095Y-114476904D01*
X92494095Y-114476904D02*
X92446476Y-114381666D01*
X92446476Y-114381666D02*
X92398857Y-114334047D01*
X92398857Y-114334047D02*
X92303619Y-114286428D01*
X92303619Y-114286428D02*
X92113143Y-114238809D01*
X92113143Y-114238809D02*
X92017905Y-114191190D01*
X92017905Y-114191190D02*
X91970286Y-114143571D01*
X91970286Y-114143571D02*
X91922667Y-114048333D01*
X91922667Y-114048333D02*
X91922667Y-113953095D01*
X91922667Y-113953095D02*
X91970286Y-113857857D01*
X91970286Y-113857857D02*
X92017905Y-113810238D01*
X92017905Y-113810238D02*
X92113143Y-113762619D01*
X92113143Y-113762619D02*
X92351238Y-113762619D01*
X92351238Y-113762619D02*
X92494095Y-113810238D01*
X92827429Y-113762619D02*
X93065524Y-114762619D01*
X93065524Y-114762619D02*
X93256000Y-114048333D01*
X93256000Y-114048333D02*
X93446476Y-114762619D01*
X93446476Y-114762619D02*
X93684572Y-113762619D01*
X94017905Y-113857857D02*
X94065524Y-113810238D01*
X94065524Y-113810238D02*
X94160762Y-113762619D01*
X94160762Y-113762619D02*
X94398857Y-113762619D01*
X94398857Y-113762619D02*
X94494095Y-113810238D01*
X94494095Y-113810238D02*
X94541714Y-113857857D01*
X94541714Y-113857857D02*
X94589333Y-113953095D01*
X94589333Y-113953095D02*
X94589333Y-114048333D01*
X94589333Y-114048333D02*
X94541714Y-114191190D01*
X94541714Y-114191190D02*
X93970286Y-114762619D01*
X93970286Y-114762619D02*
X94589333Y-114762619D01*
%TO.C,RV5*%
X115016619Y-115022238D02*
X114540428Y-115355571D01*
X115016619Y-115593666D02*
X114016619Y-115593666D01*
X114016619Y-115593666D02*
X114016619Y-115212714D01*
X114016619Y-115212714D02*
X114064238Y-115117476D01*
X114064238Y-115117476D02*
X114111857Y-115069857D01*
X114111857Y-115069857D02*
X114207095Y-115022238D01*
X114207095Y-115022238D02*
X114349952Y-115022238D01*
X114349952Y-115022238D02*
X114445190Y-115069857D01*
X114445190Y-115069857D02*
X114492809Y-115117476D01*
X114492809Y-115117476D02*
X114540428Y-115212714D01*
X114540428Y-115212714D02*
X114540428Y-115593666D01*
X114016619Y-114736523D02*
X115016619Y-114403190D01*
X115016619Y-114403190D02*
X114016619Y-114069857D01*
X114016619Y-113260333D02*
X114016619Y-113736523D01*
X114016619Y-113736523D02*
X114492809Y-113784142D01*
X114492809Y-113784142D02*
X114445190Y-113736523D01*
X114445190Y-113736523D02*
X114397571Y-113641285D01*
X114397571Y-113641285D02*
X114397571Y-113403190D01*
X114397571Y-113403190D02*
X114445190Y-113307952D01*
X114445190Y-113307952D02*
X114492809Y-113260333D01*
X114492809Y-113260333D02*
X114588047Y-113212714D01*
X114588047Y-113212714D02*
X114826142Y-113212714D01*
X114826142Y-113212714D02*
X114921380Y-113260333D01*
X114921380Y-113260333D02*
X114969000Y-113307952D01*
X114969000Y-113307952D02*
X115016619Y-113403190D01*
X115016619Y-113403190D02*
X115016619Y-113641285D01*
X115016619Y-113641285D02*
X114969000Y-113736523D01*
X114969000Y-113736523D02*
X114921380Y-113784142D01*
%TO.C,R6*%
X124922619Y-129706666D02*
X124446428Y-130039999D01*
X124922619Y-130278094D02*
X123922619Y-130278094D01*
X123922619Y-130278094D02*
X123922619Y-129897142D01*
X123922619Y-129897142D02*
X123970238Y-129801904D01*
X123970238Y-129801904D02*
X124017857Y-129754285D01*
X124017857Y-129754285D02*
X124113095Y-129706666D01*
X124113095Y-129706666D02*
X124255952Y-129706666D01*
X124255952Y-129706666D02*
X124351190Y-129754285D01*
X124351190Y-129754285D02*
X124398809Y-129801904D01*
X124398809Y-129801904D02*
X124446428Y-129897142D01*
X124446428Y-129897142D02*
X124446428Y-130278094D01*
X123922619Y-128849523D02*
X123922619Y-129039999D01*
X123922619Y-129039999D02*
X123970238Y-129135237D01*
X123970238Y-129135237D02*
X124017857Y-129182856D01*
X124017857Y-129182856D02*
X124160714Y-129278094D01*
X124160714Y-129278094D02*
X124351190Y-129325713D01*
X124351190Y-129325713D02*
X124732142Y-129325713D01*
X124732142Y-129325713D02*
X124827380Y-129278094D01*
X124827380Y-129278094D02*
X124875000Y-129230475D01*
X124875000Y-129230475D02*
X124922619Y-129135237D01*
X124922619Y-129135237D02*
X124922619Y-128944761D01*
X124922619Y-128944761D02*
X124875000Y-128849523D01*
X124875000Y-128849523D02*
X124827380Y-128801904D01*
X124827380Y-128801904D02*
X124732142Y-128754285D01*
X124732142Y-128754285D02*
X124494047Y-128754285D01*
X124494047Y-128754285D02*
X124398809Y-128801904D01*
X124398809Y-128801904D02*
X124351190Y-128849523D01*
X124351190Y-128849523D02*
X124303571Y-128944761D01*
X124303571Y-128944761D02*
X124303571Y-129135237D01*
X124303571Y-129135237D02*
X124351190Y-129230475D01*
X124351190Y-129230475D02*
X124398809Y-129278094D01*
X124398809Y-129278094D02*
X124494047Y-129325713D01*
%TO.C,C7*%
X149185380Y-78398666D02*
X149233000Y-78446285D01*
X149233000Y-78446285D02*
X149280619Y-78589142D01*
X149280619Y-78589142D02*
X149280619Y-78684380D01*
X149280619Y-78684380D02*
X149233000Y-78827237D01*
X149233000Y-78827237D02*
X149137761Y-78922475D01*
X149137761Y-78922475D02*
X149042523Y-78970094D01*
X149042523Y-78970094D02*
X148852047Y-79017713D01*
X148852047Y-79017713D02*
X148709190Y-79017713D01*
X148709190Y-79017713D02*
X148518714Y-78970094D01*
X148518714Y-78970094D02*
X148423476Y-78922475D01*
X148423476Y-78922475D02*
X148328238Y-78827237D01*
X148328238Y-78827237D02*
X148280619Y-78684380D01*
X148280619Y-78684380D02*
X148280619Y-78589142D01*
X148280619Y-78589142D02*
X148328238Y-78446285D01*
X148328238Y-78446285D02*
X148375857Y-78398666D01*
X148280619Y-78065332D02*
X148280619Y-77398666D01*
X148280619Y-77398666D02*
X149280619Y-77827237D01*
%TO.C,J3*%
X177720666Y-75662619D02*
X177720666Y-76376904D01*
X177720666Y-76376904D02*
X177673047Y-76519761D01*
X177673047Y-76519761D02*
X177577809Y-76615000D01*
X177577809Y-76615000D02*
X177434952Y-76662619D01*
X177434952Y-76662619D02*
X177339714Y-76662619D01*
X178101619Y-75662619D02*
X178720666Y-75662619D01*
X178720666Y-75662619D02*
X178387333Y-76043571D01*
X178387333Y-76043571D02*
X178530190Y-76043571D01*
X178530190Y-76043571D02*
X178625428Y-76091190D01*
X178625428Y-76091190D02*
X178673047Y-76138809D01*
X178673047Y-76138809D02*
X178720666Y-76234047D01*
X178720666Y-76234047D02*
X178720666Y-76472142D01*
X178720666Y-76472142D02*
X178673047Y-76567380D01*
X178673047Y-76567380D02*
X178625428Y-76615000D01*
X178625428Y-76615000D02*
X178530190Y-76662619D01*
X178530190Y-76662619D02*
X178244476Y-76662619D01*
X178244476Y-76662619D02*
X178149238Y-76615000D01*
X178149238Y-76615000D02*
X178101619Y-76567380D01*
%TO.C,U2*%
X97379619Y-86613904D02*
X98189142Y-86613904D01*
X98189142Y-86613904D02*
X98284380Y-86566285D01*
X98284380Y-86566285D02*
X98332000Y-86518666D01*
X98332000Y-86518666D02*
X98379619Y-86423428D01*
X98379619Y-86423428D02*
X98379619Y-86232952D01*
X98379619Y-86232952D02*
X98332000Y-86137714D01*
X98332000Y-86137714D02*
X98284380Y-86090095D01*
X98284380Y-86090095D02*
X98189142Y-86042476D01*
X98189142Y-86042476D02*
X97379619Y-86042476D01*
X97474857Y-85613904D02*
X97427238Y-85566285D01*
X97427238Y-85566285D02*
X97379619Y-85471047D01*
X97379619Y-85471047D02*
X97379619Y-85232952D01*
X97379619Y-85232952D02*
X97427238Y-85137714D01*
X97427238Y-85137714D02*
X97474857Y-85090095D01*
X97474857Y-85090095D02*
X97570095Y-85042476D01*
X97570095Y-85042476D02*
X97665333Y-85042476D01*
X97665333Y-85042476D02*
X97808190Y-85090095D01*
X97808190Y-85090095D02*
X98379619Y-85661523D01*
X98379619Y-85661523D02*
X98379619Y-85042476D01*
%TO.C,U3*%
X122779619Y-86994904D02*
X123589142Y-86994904D01*
X123589142Y-86994904D02*
X123684380Y-86947285D01*
X123684380Y-86947285D02*
X123732000Y-86899666D01*
X123732000Y-86899666D02*
X123779619Y-86804428D01*
X123779619Y-86804428D02*
X123779619Y-86613952D01*
X123779619Y-86613952D02*
X123732000Y-86518714D01*
X123732000Y-86518714D02*
X123684380Y-86471095D01*
X123684380Y-86471095D02*
X123589142Y-86423476D01*
X123589142Y-86423476D02*
X122779619Y-86423476D01*
X122779619Y-86042523D02*
X122779619Y-85423476D01*
X122779619Y-85423476D02*
X123160571Y-85756809D01*
X123160571Y-85756809D02*
X123160571Y-85613952D01*
X123160571Y-85613952D02*
X123208190Y-85518714D01*
X123208190Y-85518714D02*
X123255809Y-85471095D01*
X123255809Y-85471095D02*
X123351047Y-85423476D01*
X123351047Y-85423476D02*
X123589142Y-85423476D01*
X123589142Y-85423476D02*
X123684380Y-85471095D01*
X123684380Y-85471095D02*
X123732000Y-85518714D01*
X123732000Y-85518714D02*
X123779619Y-85613952D01*
X123779619Y-85613952D02*
X123779619Y-85899666D01*
X123779619Y-85899666D02*
X123732000Y-85994904D01*
X123732000Y-85994904D02*
X123684380Y-86042523D01*
%TO.C,Q2*%
X162464761Y-92251857D02*
X162369523Y-92204238D01*
X162369523Y-92204238D02*
X162274285Y-92109000D01*
X162274285Y-92109000D02*
X162131428Y-91966142D01*
X162131428Y-91966142D02*
X162036190Y-91918523D01*
X162036190Y-91918523D02*
X161940952Y-91918523D01*
X161988571Y-92156619D02*
X161893333Y-92109000D01*
X161893333Y-92109000D02*
X161798095Y-92013761D01*
X161798095Y-92013761D02*
X161750476Y-91823285D01*
X161750476Y-91823285D02*
X161750476Y-91489952D01*
X161750476Y-91489952D02*
X161798095Y-91299476D01*
X161798095Y-91299476D02*
X161893333Y-91204238D01*
X161893333Y-91204238D02*
X161988571Y-91156619D01*
X161988571Y-91156619D02*
X162179047Y-91156619D01*
X162179047Y-91156619D02*
X162274285Y-91204238D01*
X162274285Y-91204238D02*
X162369523Y-91299476D01*
X162369523Y-91299476D02*
X162417142Y-91489952D01*
X162417142Y-91489952D02*
X162417142Y-91823285D01*
X162417142Y-91823285D02*
X162369523Y-92013761D01*
X162369523Y-92013761D02*
X162274285Y-92109000D01*
X162274285Y-92109000D02*
X162179047Y-92156619D01*
X162179047Y-92156619D02*
X161988571Y-92156619D01*
X162798095Y-91251857D02*
X162845714Y-91204238D01*
X162845714Y-91204238D02*
X162940952Y-91156619D01*
X162940952Y-91156619D02*
X163179047Y-91156619D01*
X163179047Y-91156619D02*
X163274285Y-91204238D01*
X163274285Y-91204238D02*
X163321904Y-91251857D01*
X163321904Y-91251857D02*
X163369523Y-91347095D01*
X163369523Y-91347095D02*
X163369523Y-91442333D01*
X163369523Y-91442333D02*
X163321904Y-91585190D01*
X163321904Y-91585190D02*
X162750476Y-92156619D01*
X162750476Y-92156619D02*
X163369523Y-92156619D01*
%TO.C,TP1*%
X136598095Y-97212619D02*
X137169523Y-97212619D01*
X136883809Y-98212619D02*
X136883809Y-97212619D01*
X137502857Y-98212619D02*
X137502857Y-97212619D01*
X137502857Y-97212619D02*
X137883809Y-97212619D01*
X137883809Y-97212619D02*
X137979047Y-97260238D01*
X137979047Y-97260238D02*
X138026666Y-97307857D01*
X138026666Y-97307857D02*
X138074285Y-97403095D01*
X138074285Y-97403095D02*
X138074285Y-97545952D01*
X138074285Y-97545952D02*
X138026666Y-97641190D01*
X138026666Y-97641190D02*
X137979047Y-97688809D01*
X137979047Y-97688809D02*
X137883809Y-97736428D01*
X137883809Y-97736428D02*
X137502857Y-97736428D01*
X139026666Y-98212619D02*
X138455238Y-98212619D01*
X138740952Y-98212619D02*
X138740952Y-97212619D01*
X138740952Y-97212619D02*
X138645714Y-97355476D01*
X138645714Y-97355476D02*
X138550476Y-97450714D01*
X138550476Y-97450714D02*
X138455238Y-97498333D01*
%TO.C,RV1*%
X159212619Y-115022238D02*
X158736428Y-115355571D01*
X159212619Y-115593666D02*
X158212619Y-115593666D01*
X158212619Y-115593666D02*
X158212619Y-115212714D01*
X158212619Y-115212714D02*
X158260238Y-115117476D01*
X158260238Y-115117476D02*
X158307857Y-115069857D01*
X158307857Y-115069857D02*
X158403095Y-115022238D01*
X158403095Y-115022238D02*
X158545952Y-115022238D01*
X158545952Y-115022238D02*
X158641190Y-115069857D01*
X158641190Y-115069857D02*
X158688809Y-115117476D01*
X158688809Y-115117476D02*
X158736428Y-115212714D01*
X158736428Y-115212714D02*
X158736428Y-115593666D01*
X158212619Y-114736523D02*
X159212619Y-114403190D01*
X159212619Y-114403190D02*
X158212619Y-114069857D01*
X159212619Y-113212714D02*
X159212619Y-113784142D01*
X159212619Y-113498428D02*
X158212619Y-113498428D01*
X158212619Y-113498428D02*
X158355476Y-113593666D01*
X158355476Y-113593666D02*
X158450714Y-113688904D01*
X158450714Y-113688904D02*
X158498333Y-113784142D01*
%TO.C,R4*%
X104602619Y-129706666D02*
X104126428Y-130039999D01*
X104602619Y-130278094D02*
X103602619Y-130278094D01*
X103602619Y-130278094D02*
X103602619Y-129897142D01*
X103602619Y-129897142D02*
X103650238Y-129801904D01*
X103650238Y-129801904D02*
X103697857Y-129754285D01*
X103697857Y-129754285D02*
X103793095Y-129706666D01*
X103793095Y-129706666D02*
X103935952Y-129706666D01*
X103935952Y-129706666D02*
X104031190Y-129754285D01*
X104031190Y-129754285D02*
X104078809Y-129801904D01*
X104078809Y-129801904D02*
X104126428Y-129897142D01*
X104126428Y-129897142D02*
X104126428Y-130278094D01*
X103935952Y-128849523D02*
X104602619Y-128849523D01*
X103555000Y-129087618D02*
X104269285Y-129325713D01*
X104269285Y-129325713D02*
X104269285Y-128706666D01*
%TO.C,J4*%
X83740666Y-73122619D02*
X83740666Y-73836904D01*
X83740666Y-73836904D02*
X83693047Y-73979761D01*
X83693047Y-73979761D02*
X83597809Y-74075000D01*
X83597809Y-74075000D02*
X83454952Y-74122619D01*
X83454952Y-74122619D02*
X83359714Y-74122619D01*
X84645428Y-73455952D02*
X84645428Y-74122619D01*
X84407333Y-73075000D02*
X84169238Y-73789285D01*
X84169238Y-73789285D02*
X84788285Y-73789285D01*
%TO.C,R7*%
X135082619Y-129706666D02*
X134606428Y-130039999D01*
X135082619Y-130278094D02*
X134082619Y-130278094D01*
X134082619Y-130278094D02*
X134082619Y-129897142D01*
X134082619Y-129897142D02*
X134130238Y-129801904D01*
X134130238Y-129801904D02*
X134177857Y-129754285D01*
X134177857Y-129754285D02*
X134273095Y-129706666D01*
X134273095Y-129706666D02*
X134415952Y-129706666D01*
X134415952Y-129706666D02*
X134511190Y-129754285D01*
X134511190Y-129754285D02*
X134558809Y-129801904D01*
X134558809Y-129801904D02*
X134606428Y-129897142D01*
X134606428Y-129897142D02*
X134606428Y-130278094D01*
X134082619Y-129373332D02*
X134082619Y-128706666D01*
X134082619Y-128706666D02*
X135082619Y-129135237D01*
%TO.C,H9*%
X154178095Y-137952619D02*
X154178095Y-136952619D01*
X154178095Y-137428809D02*
X154749523Y-137428809D01*
X154749523Y-137952619D02*
X154749523Y-136952619D01*
X155273333Y-137952619D02*
X155463809Y-137952619D01*
X155463809Y-137952619D02*
X155559047Y-137905000D01*
X155559047Y-137905000D02*
X155606666Y-137857380D01*
X155606666Y-137857380D02*
X155701904Y-137714523D01*
X155701904Y-137714523D02*
X155749523Y-137524047D01*
X155749523Y-137524047D02*
X155749523Y-137143095D01*
X155749523Y-137143095D02*
X155701904Y-137047857D01*
X155701904Y-137047857D02*
X155654285Y-137000238D01*
X155654285Y-137000238D02*
X155559047Y-136952619D01*
X155559047Y-136952619D02*
X155368571Y-136952619D01*
X155368571Y-136952619D02*
X155273333Y-137000238D01*
X155273333Y-137000238D02*
X155225714Y-137047857D01*
X155225714Y-137047857D02*
X155178095Y-137143095D01*
X155178095Y-137143095D02*
X155178095Y-137381190D01*
X155178095Y-137381190D02*
X155225714Y-137476428D01*
X155225714Y-137476428D02*
X155273333Y-137524047D01*
X155273333Y-137524047D02*
X155368571Y-137571666D01*
X155368571Y-137571666D02*
X155559047Y-137571666D01*
X155559047Y-137571666D02*
X155654285Y-137524047D01*
X155654285Y-137524047D02*
X155701904Y-137476428D01*
X155701904Y-137476428D02*
X155749523Y-137381190D01*
%TO.C,R5*%
X114762619Y-129706666D02*
X114286428Y-130039999D01*
X114762619Y-130278094D02*
X113762619Y-130278094D01*
X113762619Y-130278094D02*
X113762619Y-129897142D01*
X113762619Y-129897142D02*
X113810238Y-129801904D01*
X113810238Y-129801904D02*
X113857857Y-129754285D01*
X113857857Y-129754285D02*
X113953095Y-129706666D01*
X113953095Y-129706666D02*
X114095952Y-129706666D01*
X114095952Y-129706666D02*
X114191190Y-129754285D01*
X114191190Y-129754285D02*
X114238809Y-129801904D01*
X114238809Y-129801904D02*
X114286428Y-129897142D01*
X114286428Y-129897142D02*
X114286428Y-130278094D01*
X113762619Y-128801904D02*
X113762619Y-129278094D01*
X113762619Y-129278094D02*
X114238809Y-129325713D01*
X114238809Y-129325713D02*
X114191190Y-129278094D01*
X114191190Y-129278094D02*
X114143571Y-129182856D01*
X114143571Y-129182856D02*
X114143571Y-128944761D01*
X114143571Y-128944761D02*
X114191190Y-128849523D01*
X114191190Y-128849523D02*
X114238809Y-128801904D01*
X114238809Y-128801904D02*
X114334047Y-128754285D01*
X114334047Y-128754285D02*
X114572142Y-128754285D01*
X114572142Y-128754285D02*
X114667380Y-128801904D01*
X114667380Y-128801904D02*
X114715000Y-128849523D01*
X114715000Y-128849523D02*
X114762619Y-128944761D01*
X114762619Y-128944761D02*
X114762619Y-129182856D01*
X114762619Y-129182856D02*
X114715000Y-129278094D01*
X114715000Y-129278094D02*
X114667380Y-129325713D01*
%TO.C,RV2*%
X182834619Y-115022238D02*
X182358428Y-115355571D01*
X182834619Y-115593666D02*
X181834619Y-115593666D01*
X181834619Y-115593666D02*
X181834619Y-115212714D01*
X181834619Y-115212714D02*
X181882238Y-115117476D01*
X181882238Y-115117476D02*
X181929857Y-115069857D01*
X181929857Y-115069857D02*
X182025095Y-115022238D01*
X182025095Y-115022238D02*
X182167952Y-115022238D01*
X182167952Y-115022238D02*
X182263190Y-115069857D01*
X182263190Y-115069857D02*
X182310809Y-115117476D01*
X182310809Y-115117476D02*
X182358428Y-115212714D01*
X182358428Y-115212714D02*
X182358428Y-115593666D01*
X181834619Y-114736523D02*
X182834619Y-114403190D01*
X182834619Y-114403190D02*
X181834619Y-114069857D01*
X181929857Y-113784142D02*
X181882238Y-113736523D01*
X181882238Y-113736523D02*
X181834619Y-113641285D01*
X181834619Y-113641285D02*
X181834619Y-113403190D01*
X181834619Y-113403190D02*
X181882238Y-113307952D01*
X181882238Y-113307952D02*
X181929857Y-113260333D01*
X181929857Y-113260333D02*
X182025095Y-113212714D01*
X182025095Y-113212714D02*
X182120333Y-113212714D01*
X182120333Y-113212714D02*
X182263190Y-113260333D01*
X182263190Y-113260333D02*
X182834619Y-113831761D01*
X182834619Y-113831761D02*
X182834619Y-113212714D01*
%TO.C,R1*%
X73995619Y-129706666D02*
X73519428Y-130039999D01*
X73995619Y-130278094D02*
X72995619Y-130278094D01*
X72995619Y-130278094D02*
X72995619Y-129897142D01*
X72995619Y-129897142D02*
X73043238Y-129801904D01*
X73043238Y-129801904D02*
X73090857Y-129754285D01*
X73090857Y-129754285D02*
X73186095Y-129706666D01*
X73186095Y-129706666D02*
X73328952Y-129706666D01*
X73328952Y-129706666D02*
X73424190Y-129754285D01*
X73424190Y-129754285D02*
X73471809Y-129801904D01*
X73471809Y-129801904D02*
X73519428Y-129897142D01*
X73519428Y-129897142D02*
X73519428Y-130278094D01*
X73995619Y-128754285D02*
X73995619Y-129325713D01*
X73995619Y-129039999D02*
X72995619Y-129039999D01*
X72995619Y-129039999D02*
X73138476Y-129135237D01*
X73138476Y-129135237D02*
X73233714Y-129230475D01*
X73233714Y-129230475D02*
X73281333Y-129325713D01*
%TO.C,R15*%
X149346619Y-103752857D02*
X148870428Y-104086190D01*
X149346619Y-104324285D02*
X148346619Y-104324285D01*
X148346619Y-104324285D02*
X148346619Y-103943333D01*
X148346619Y-103943333D02*
X148394238Y-103848095D01*
X148394238Y-103848095D02*
X148441857Y-103800476D01*
X148441857Y-103800476D02*
X148537095Y-103752857D01*
X148537095Y-103752857D02*
X148679952Y-103752857D01*
X148679952Y-103752857D02*
X148775190Y-103800476D01*
X148775190Y-103800476D02*
X148822809Y-103848095D01*
X148822809Y-103848095D02*
X148870428Y-103943333D01*
X148870428Y-103943333D02*
X148870428Y-104324285D01*
X149346619Y-102800476D02*
X149346619Y-103371904D01*
X149346619Y-103086190D02*
X148346619Y-103086190D01*
X148346619Y-103086190D02*
X148489476Y-103181428D01*
X148489476Y-103181428D02*
X148584714Y-103276666D01*
X148584714Y-103276666D02*
X148632333Y-103371904D01*
X148346619Y-101895714D02*
X148346619Y-102371904D01*
X148346619Y-102371904D02*
X148822809Y-102419523D01*
X148822809Y-102419523D02*
X148775190Y-102371904D01*
X148775190Y-102371904D02*
X148727571Y-102276666D01*
X148727571Y-102276666D02*
X148727571Y-102038571D01*
X148727571Y-102038571D02*
X148775190Y-101943333D01*
X148775190Y-101943333D02*
X148822809Y-101895714D01*
X148822809Y-101895714D02*
X148918047Y-101848095D01*
X148918047Y-101848095D02*
X149156142Y-101848095D01*
X149156142Y-101848095D02*
X149251380Y-101895714D01*
X149251380Y-101895714D02*
X149299000Y-101943333D01*
X149299000Y-101943333D02*
X149346619Y-102038571D01*
X149346619Y-102038571D02*
X149346619Y-102276666D01*
X149346619Y-102276666D02*
X149299000Y-102371904D01*
X149299000Y-102371904D02*
X149251380Y-102419523D01*
%TO.C,R28*%
X130764619Y-81922857D02*
X130288428Y-82256190D01*
X130764619Y-82494285D02*
X129764619Y-82494285D01*
X129764619Y-82494285D02*
X129764619Y-82113333D01*
X129764619Y-82113333D02*
X129812238Y-82018095D01*
X129812238Y-82018095D02*
X129859857Y-81970476D01*
X129859857Y-81970476D02*
X129955095Y-81922857D01*
X129955095Y-81922857D02*
X130097952Y-81922857D01*
X130097952Y-81922857D02*
X130193190Y-81970476D01*
X130193190Y-81970476D02*
X130240809Y-82018095D01*
X130240809Y-82018095D02*
X130288428Y-82113333D01*
X130288428Y-82113333D02*
X130288428Y-82494285D01*
X129859857Y-81541904D02*
X129812238Y-81494285D01*
X129812238Y-81494285D02*
X129764619Y-81399047D01*
X129764619Y-81399047D02*
X129764619Y-81160952D01*
X129764619Y-81160952D02*
X129812238Y-81065714D01*
X129812238Y-81065714D02*
X129859857Y-81018095D01*
X129859857Y-81018095D02*
X129955095Y-80970476D01*
X129955095Y-80970476D02*
X130050333Y-80970476D01*
X130050333Y-80970476D02*
X130193190Y-81018095D01*
X130193190Y-81018095D02*
X130764619Y-81589523D01*
X130764619Y-81589523D02*
X130764619Y-80970476D01*
X130193190Y-80399047D02*
X130145571Y-80494285D01*
X130145571Y-80494285D02*
X130097952Y-80541904D01*
X130097952Y-80541904D02*
X130002714Y-80589523D01*
X130002714Y-80589523D02*
X129955095Y-80589523D01*
X129955095Y-80589523D02*
X129859857Y-80541904D01*
X129859857Y-80541904D02*
X129812238Y-80494285D01*
X129812238Y-80494285D02*
X129764619Y-80399047D01*
X129764619Y-80399047D02*
X129764619Y-80208571D01*
X129764619Y-80208571D02*
X129812238Y-80113333D01*
X129812238Y-80113333D02*
X129859857Y-80065714D01*
X129859857Y-80065714D02*
X129955095Y-80018095D01*
X129955095Y-80018095D02*
X130002714Y-80018095D01*
X130002714Y-80018095D02*
X130097952Y-80065714D01*
X130097952Y-80065714D02*
X130145571Y-80113333D01*
X130145571Y-80113333D02*
X130193190Y-80208571D01*
X130193190Y-80208571D02*
X130193190Y-80399047D01*
X130193190Y-80399047D02*
X130240809Y-80494285D01*
X130240809Y-80494285D02*
X130288428Y-80541904D01*
X130288428Y-80541904D02*
X130383666Y-80589523D01*
X130383666Y-80589523D02*
X130574142Y-80589523D01*
X130574142Y-80589523D02*
X130669380Y-80541904D01*
X130669380Y-80541904D02*
X130717000Y-80494285D01*
X130717000Y-80494285D02*
X130764619Y-80399047D01*
X130764619Y-80399047D02*
X130764619Y-80208571D01*
X130764619Y-80208571D02*
X130717000Y-80113333D01*
X130717000Y-80113333D02*
X130669380Y-80065714D01*
X130669380Y-80065714D02*
X130574142Y-80018095D01*
X130574142Y-80018095D02*
X130383666Y-80018095D01*
X130383666Y-80018095D02*
X130288428Y-80065714D01*
X130288428Y-80065714D02*
X130240809Y-80113333D01*
X130240809Y-80113333D02*
X130193190Y-80208571D01*
%TO.C,H11*%
X174021905Y-137952619D02*
X174021905Y-136952619D01*
X174021905Y-137428809D02*
X174593333Y-137428809D01*
X174593333Y-137952619D02*
X174593333Y-136952619D01*
X175593333Y-137952619D02*
X175021905Y-137952619D01*
X175307619Y-137952619D02*
X175307619Y-136952619D01*
X175307619Y-136952619D02*
X175212381Y-137095476D01*
X175212381Y-137095476D02*
X175117143Y-137190714D01*
X175117143Y-137190714D02*
X175021905Y-137238333D01*
X176545714Y-137952619D02*
X175974286Y-137952619D01*
X176260000Y-137952619D02*
X176260000Y-136952619D01*
X176260000Y-136952619D02*
X176164762Y-137095476D01*
X176164762Y-137095476D02*
X176069524Y-137190714D01*
X176069524Y-137190714D02*
X175974286Y-137238333D01*
%TO.C,R23*%
X109847142Y-97744619D02*
X109513809Y-97268428D01*
X109275714Y-97744619D02*
X109275714Y-96744619D01*
X109275714Y-96744619D02*
X109656666Y-96744619D01*
X109656666Y-96744619D02*
X109751904Y-96792238D01*
X109751904Y-96792238D02*
X109799523Y-96839857D01*
X109799523Y-96839857D02*
X109847142Y-96935095D01*
X109847142Y-96935095D02*
X109847142Y-97077952D01*
X109847142Y-97077952D02*
X109799523Y-97173190D01*
X109799523Y-97173190D02*
X109751904Y-97220809D01*
X109751904Y-97220809D02*
X109656666Y-97268428D01*
X109656666Y-97268428D02*
X109275714Y-97268428D01*
X110228095Y-96839857D02*
X110275714Y-96792238D01*
X110275714Y-96792238D02*
X110370952Y-96744619D01*
X110370952Y-96744619D02*
X110609047Y-96744619D01*
X110609047Y-96744619D02*
X110704285Y-96792238D01*
X110704285Y-96792238D02*
X110751904Y-96839857D01*
X110751904Y-96839857D02*
X110799523Y-96935095D01*
X110799523Y-96935095D02*
X110799523Y-97030333D01*
X110799523Y-97030333D02*
X110751904Y-97173190D01*
X110751904Y-97173190D02*
X110180476Y-97744619D01*
X110180476Y-97744619D02*
X110799523Y-97744619D01*
X111132857Y-96744619D02*
X111751904Y-96744619D01*
X111751904Y-96744619D02*
X111418571Y-97125571D01*
X111418571Y-97125571D02*
X111561428Y-97125571D01*
X111561428Y-97125571D02*
X111656666Y-97173190D01*
X111656666Y-97173190D02*
X111704285Y-97220809D01*
X111704285Y-97220809D02*
X111751904Y-97316047D01*
X111751904Y-97316047D02*
X111751904Y-97554142D01*
X111751904Y-97554142D02*
X111704285Y-97649380D01*
X111704285Y-97649380D02*
X111656666Y-97697000D01*
X111656666Y-97697000D02*
X111561428Y-97744619D01*
X111561428Y-97744619D02*
X111275714Y-97744619D01*
X111275714Y-97744619D02*
X111180476Y-97697000D01*
X111180476Y-97697000D02*
X111132857Y-97649380D01*
%TO.C,R30*%
X149306619Y-90304857D02*
X148830428Y-90638190D01*
X149306619Y-90876285D02*
X148306619Y-90876285D01*
X148306619Y-90876285D02*
X148306619Y-90495333D01*
X148306619Y-90495333D02*
X148354238Y-90400095D01*
X148354238Y-90400095D02*
X148401857Y-90352476D01*
X148401857Y-90352476D02*
X148497095Y-90304857D01*
X148497095Y-90304857D02*
X148639952Y-90304857D01*
X148639952Y-90304857D02*
X148735190Y-90352476D01*
X148735190Y-90352476D02*
X148782809Y-90400095D01*
X148782809Y-90400095D02*
X148830428Y-90495333D01*
X148830428Y-90495333D02*
X148830428Y-90876285D01*
X148306619Y-89971523D02*
X148306619Y-89352476D01*
X148306619Y-89352476D02*
X148687571Y-89685809D01*
X148687571Y-89685809D02*
X148687571Y-89542952D01*
X148687571Y-89542952D02*
X148735190Y-89447714D01*
X148735190Y-89447714D02*
X148782809Y-89400095D01*
X148782809Y-89400095D02*
X148878047Y-89352476D01*
X148878047Y-89352476D02*
X149116142Y-89352476D01*
X149116142Y-89352476D02*
X149211380Y-89400095D01*
X149211380Y-89400095D02*
X149259000Y-89447714D01*
X149259000Y-89447714D02*
X149306619Y-89542952D01*
X149306619Y-89542952D02*
X149306619Y-89828666D01*
X149306619Y-89828666D02*
X149259000Y-89923904D01*
X149259000Y-89923904D02*
X149211380Y-89971523D01*
X148306619Y-88733428D02*
X148306619Y-88638190D01*
X148306619Y-88638190D02*
X148354238Y-88542952D01*
X148354238Y-88542952D02*
X148401857Y-88495333D01*
X148401857Y-88495333D02*
X148497095Y-88447714D01*
X148497095Y-88447714D02*
X148687571Y-88400095D01*
X148687571Y-88400095D02*
X148925666Y-88400095D01*
X148925666Y-88400095D02*
X149116142Y-88447714D01*
X149116142Y-88447714D02*
X149211380Y-88495333D01*
X149211380Y-88495333D02*
X149259000Y-88542952D01*
X149259000Y-88542952D02*
X149306619Y-88638190D01*
X149306619Y-88638190D02*
X149306619Y-88733428D01*
X149306619Y-88733428D02*
X149259000Y-88828666D01*
X149259000Y-88828666D02*
X149211380Y-88876285D01*
X149211380Y-88876285D02*
X149116142Y-88923904D01*
X149116142Y-88923904D02*
X148925666Y-88971523D01*
X148925666Y-88971523D02*
X148687571Y-88971523D01*
X148687571Y-88971523D02*
X148497095Y-88923904D01*
X148497095Y-88923904D02*
X148401857Y-88876285D01*
X148401857Y-88876285D02*
X148354238Y-88828666D01*
X148354238Y-88828666D02*
X148306619Y-88733428D01*
%TO.C,C9*%
X140295333Y-91299380D02*
X140247714Y-91347000D01*
X140247714Y-91347000D02*
X140104857Y-91394619D01*
X140104857Y-91394619D02*
X140009619Y-91394619D01*
X140009619Y-91394619D02*
X139866762Y-91347000D01*
X139866762Y-91347000D02*
X139771524Y-91251761D01*
X139771524Y-91251761D02*
X139723905Y-91156523D01*
X139723905Y-91156523D02*
X139676286Y-90966047D01*
X139676286Y-90966047D02*
X139676286Y-90823190D01*
X139676286Y-90823190D02*
X139723905Y-90632714D01*
X139723905Y-90632714D02*
X139771524Y-90537476D01*
X139771524Y-90537476D02*
X139866762Y-90442238D01*
X139866762Y-90442238D02*
X140009619Y-90394619D01*
X140009619Y-90394619D02*
X140104857Y-90394619D01*
X140104857Y-90394619D02*
X140247714Y-90442238D01*
X140247714Y-90442238D02*
X140295333Y-90489857D01*
X140771524Y-91394619D02*
X140962000Y-91394619D01*
X140962000Y-91394619D02*
X141057238Y-91347000D01*
X141057238Y-91347000D02*
X141104857Y-91299380D01*
X141104857Y-91299380D02*
X141200095Y-91156523D01*
X141200095Y-91156523D02*
X141247714Y-90966047D01*
X141247714Y-90966047D02*
X141247714Y-90585095D01*
X141247714Y-90585095D02*
X141200095Y-90489857D01*
X141200095Y-90489857D02*
X141152476Y-90442238D01*
X141152476Y-90442238D02*
X141057238Y-90394619D01*
X141057238Y-90394619D02*
X140866762Y-90394619D01*
X140866762Y-90394619D02*
X140771524Y-90442238D01*
X140771524Y-90442238D02*
X140723905Y-90489857D01*
X140723905Y-90489857D02*
X140676286Y-90585095D01*
X140676286Y-90585095D02*
X140676286Y-90823190D01*
X140676286Y-90823190D02*
X140723905Y-90918428D01*
X140723905Y-90918428D02*
X140771524Y-90966047D01*
X140771524Y-90966047D02*
X140866762Y-91013666D01*
X140866762Y-91013666D02*
X141057238Y-91013666D01*
X141057238Y-91013666D02*
X141152476Y-90966047D01*
X141152476Y-90966047D02*
X141200095Y-90918428D01*
X141200095Y-90918428D02*
X141247714Y-90823190D01*
%TO.C,R29*%
X176230619Y-98686857D02*
X175754428Y-99020190D01*
X176230619Y-99258285D02*
X175230619Y-99258285D01*
X175230619Y-99258285D02*
X175230619Y-98877333D01*
X175230619Y-98877333D02*
X175278238Y-98782095D01*
X175278238Y-98782095D02*
X175325857Y-98734476D01*
X175325857Y-98734476D02*
X175421095Y-98686857D01*
X175421095Y-98686857D02*
X175563952Y-98686857D01*
X175563952Y-98686857D02*
X175659190Y-98734476D01*
X175659190Y-98734476D02*
X175706809Y-98782095D01*
X175706809Y-98782095D02*
X175754428Y-98877333D01*
X175754428Y-98877333D02*
X175754428Y-99258285D01*
X175325857Y-98305904D02*
X175278238Y-98258285D01*
X175278238Y-98258285D02*
X175230619Y-98163047D01*
X175230619Y-98163047D02*
X175230619Y-97924952D01*
X175230619Y-97924952D02*
X175278238Y-97829714D01*
X175278238Y-97829714D02*
X175325857Y-97782095D01*
X175325857Y-97782095D02*
X175421095Y-97734476D01*
X175421095Y-97734476D02*
X175516333Y-97734476D01*
X175516333Y-97734476D02*
X175659190Y-97782095D01*
X175659190Y-97782095D02*
X176230619Y-98353523D01*
X176230619Y-98353523D02*
X176230619Y-97734476D01*
X176230619Y-97258285D02*
X176230619Y-97067809D01*
X176230619Y-97067809D02*
X176183000Y-96972571D01*
X176183000Y-96972571D02*
X176135380Y-96924952D01*
X176135380Y-96924952D02*
X175992523Y-96829714D01*
X175992523Y-96829714D02*
X175802047Y-96782095D01*
X175802047Y-96782095D02*
X175421095Y-96782095D01*
X175421095Y-96782095D02*
X175325857Y-96829714D01*
X175325857Y-96829714D02*
X175278238Y-96877333D01*
X175278238Y-96877333D02*
X175230619Y-96972571D01*
X175230619Y-96972571D02*
X175230619Y-97163047D01*
X175230619Y-97163047D02*
X175278238Y-97258285D01*
X175278238Y-97258285D02*
X175325857Y-97305904D01*
X175325857Y-97305904D02*
X175421095Y-97353523D01*
X175421095Y-97353523D02*
X175659190Y-97353523D01*
X175659190Y-97353523D02*
X175754428Y-97305904D01*
X175754428Y-97305904D02*
X175802047Y-97258285D01*
X175802047Y-97258285D02*
X175849666Y-97163047D01*
X175849666Y-97163047D02*
X175849666Y-96972571D01*
X175849666Y-96972571D02*
X175802047Y-96877333D01*
X175802047Y-96877333D02*
X175754428Y-96829714D01*
X175754428Y-96829714D02*
X175659190Y-96782095D01*
%TO.C,R8*%
X145242619Y-129706666D02*
X144766428Y-130039999D01*
X145242619Y-130278094D02*
X144242619Y-130278094D01*
X144242619Y-130278094D02*
X144242619Y-129897142D01*
X144242619Y-129897142D02*
X144290238Y-129801904D01*
X144290238Y-129801904D02*
X144337857Y-129754285D01*
X144337857Y-129754285D02*
X144433095Y-129706666D01*
X144433095Y-129706666D02*
X144575952Y-129706666D01*
X144575952Y-129706666D02*
X144671190Y-129754285D01*
X144671190Y-129754285D02*
X144718809Y-129801904D01*
X144718809Y-129801904D02*
X144766428Y-129897142D01*
X144766428Y-129897142D02*
X144766428Y-130278094D01*
X144671190Y-129135237D02*
X144623571Y-129230475D01*
X144623571Y-129230475D02*
X144575952Y-129278094D01*
X144575952Y-129278094D02*
X144480714Y-129325713D01*
X144480714Y-129325713D02*
X144433095Y-129325713D01*
X144433095Y-129325713D02*
X144337857Y-129278094D01*
X144337857Y-129278094D02*
X144290238Y-129230475D01*
X144290238Y-129230475D02*
X144242619Y-129135237D01*
X144242619Y-129135237D02*
X144242619Y-128944761D01*
X144242619Y-128944761D02*
X144290238Y-128849523D01*
X144290238Y-128849523D02*
X144337857Y-128801904D01*
X144337857Y-128801904D02*
X144433095Y-128754285D01*
X144433095Y-128754285D02*
X144480714Y-128754285D01*
X144480714Y-128754285D02*
X144575952Y-128801904D01*
X144575952Y-128801904D02*
X144623571Y-128849523D01*
X144623571Y-128849523D02*
X144671190Y-128944761D01*
X144671190Y-128944761D02*
X144671190Y-129135237D01*
X144671190Y-129135237D02*
X144718809Y-129230475D01*
X144718809Y-129230475D02*
X144766428Y-129278094D01*
X144766428Y-129278094D02*
X144861666Y-129325713D01*
X144861666Y-129325713D02*
X145052142Y-129325713D01*
X145052142Y-129325713D02*
X145147380Y-129278094D01*
X145147380Y-129278094D02*
X145195000Y-129230475D01*
X145195000Y-129230475D02*
X145242619Y-129135237D01*
X145242619Y-129135237D02*
X145242619Y-128944761D01*
X145242619Y-128944761D02*
X145195000Y-128849523D01*
X145195000Y-128849523D02*
X145147380Y-128801904D01*
X145147380Y-128801904D02*
X145052142Y-128754285D01*
X145052142Y-128754285D02*
X144861666Y-128754285D01*
X144861666Y-128754285D02*
X144766428Y-128801904D01*
X144766428Y-128801904D02*
X144718809Y-128849523D01*
X144718809Y-128849523D02*
X144671190Y-128944761D01*
%TO.C,D2*%
X92479905Y-106253619D02*
X92479905Y-105253619D01*
X92479905Y-105253619D02*
X92718000Y-105253619D01*
X92718000Y-105253619D02*
X92860857Y-105301238D01*
X92860857Y-105301238D02*
X92956095Y-105396476D01*
X92956095Y-105396476D02*
X93003714Y-105491714D01*
X93003714Y-105491714D02*
X93051333Y-105682190D01*
X93051333Y-105682190D02*
X93051333Y-105825047D01*
X93051333Y-105825047D02*
X93003714Y-106015523D01*
X93003714Y-106015523D02*
X92956095Y-106110761D01*
X92956095Y-106110761D02*
X92860857Y-106206000D01*
X92860857Y-106206000D02*
X92718000Y-106253619D01*
X92718000Y-106253619D02*
X92479905Y-106253619D01*
X93432286Y-105348857D02*
X93479905Y-105301238D01*
X93479905Y-105301238D02*
X93575143Y-105253619D01*
X93575143Y-105253619D02*
X93813238Y-105253619D01*
X93813238Y-105253619D02*
X93908476Y-105301238D01*
X93908476Y-105301238D02*
X93956095Y-105348857D01*
X93956095Y-105348857D02*
X94003714Y-105444095D01*
X94003714Y-105444095D02*
X94003714Y-105539333D01*
X94003714Y-105539333D02*
X93956095Y-105682190D01*
X93956095Y-105682190D02*
X93384667Y-106253619D01*
X93384667Y-106253619D02*
X94003714Y-106253619D01*
%TO.C,H3*%
X93218095Y-137952619D02*
X93218095Y-136952619D01*
X93218095Y-137428809D02*
X93789523Y-137428809D01*
X93789523Y-137952619D02*
X93789523Y-136952619D01*
X94170476Y-136952619D02*
X94789523Y-136952619D01*
X94789523Y-136952619D02*
X94456190Y-137333571D01*
X94456190Y-137333571D02*
X94599047Y-137333571D01*
X94599047Y-137333571D02*
X94694285Y-137381190D01*
X94694285Y-137381190D02*
X94741904Y-137428809D01*
X94741904Y-137428809D02*
X94789523Y-137524047D01*
X94789523Y-137524047D02*
X94789523Y-137762142D01*
X94789523Y-137762142D02*
X94741904Y-137857380D01*
X94741904Y-137857380D02*
X94694285Y-137905000D01*
X94694285Y-137905000D02*
X94599047Y-137952619D01*
X94599047Y-137952619D02*
X94313333Y-137952619D01*
X94313333Y-137952619D02*
X94218095Y-137905000D01*
X94218095Y-137905000D02*
X94170476Y-137857380D01*
%TO.C,H12*%
X184181905Y-137952619D02*
X184181905Y-136952619D01*
X184181905Y-137428809D02*
X184753333Y-137428809D01*
X184753333Y-137952619D02*
X184753333Y-136952619D01*
X185753333Y-137952619D02*
X185181905Y-137952619D01*
X185467619Y-137952619D02*
X185467619Y-136952619D01*
X185467619Y-136952619D02*
X185372381Y-137095476D01*
X185372381Y-137095476D02*
X185277143Y-137190714D01*
X185277143Y-137190714D02*
X185181905Y-137238333D01*
X186134286Y-137047857D02*
X186181905Y-137000238D01*
X186181905Y-137000238D02*
X186277143Y-136952619D01*
X186277143Y-136952619D02*
X186515238Y-136952619D01*
X186515238Y-136952619D02*
X186610476Y-137000238D01*
X186610476Y-137000238D02*
X186658095Y-137047857D01*
X186658095Y-137047857D02*
X186705714Y-137143095D01*
X186705714Y-137143095D02*
X186705714Y-137238333D01*
X186705714Y-137238333D02*
X186658095Y-137381190D01*
X186658095Y-137381190D02*
X186086667Y-137952619D01*
X186086667Y-137952619D02*
X186705714Y-137952619D01*
%TO.C,C2*%
X166457333Y-95476380D02*
X166409714Y-95524000D01*
X166409714Y-95524000D02*
X166266857Y-95571619D01*
X166266857Y-95571619D02*
X166171619Y-95571619D01*
X166171619Y-95571619D02*
X166028762Y-95524000D01*
X166028762Y-95524000D02*
X165933524Y-95428761D01*
X165933524Y-95428761D02*
X165885905Y-95333523D01*
X165885905Y-95333523D02*
X165838286Y-95143047D01*
X165838286Y-95143047D02*
X165838286Y-95000190D01*
X165838286Y-95000190D02*
X165885905Y-94809714D01*
X165885905Y-94809714D02*
X165933524Y-94714476D01*
X165933524Y-94714476D02*
X166028762Y-94619238D01*
X166028762Y-94619238D02*
X166171619Y-94571619D01*
X166171619Y-94571619D02*
X166266857Y-94571619D01*
X166266857Y-94571619D02*
X166409714Y-94619238D01*
X166409714Y-94619238D02*
X166457333Y-94666857D01*
X166838286Y-94666857D02*
X166885905Y-94619238D01*
X166885905Y-94619238D02*
X166981143Y-94571619D01*
X166981143Y-94571619D02*
X167219238Y-94571619D01*
X167219238Y-94571619D02*
X167314476Y-94619238D01*
X167314476Y-94619238D02*
X167362095Y-94666857D01*
X167362095Y-94666857D02*
X167409714Y-94762095D01*
X167409714Y-94762095D02*
X167409714Y-94857333D01*
X167409714Y-94857333D02*
X167362095Y-95000190D01*
X167362095Y-95000190D02*
X166790667Y-95571619D01*
X166790667Y-95571619D02*
X167409714Y-95571619D01*
%TO.C,R17*%
X187674619Y-98940857D02*
X187198428Y-99274190D01*
X187674619Y-99512285D02*
X186674619Y-99512285D01*
X186674619Y-99512285D02*
X186674619Y-99131333D01*
X186674619Y-99131333D02*
X186722238Y-99036095D01*
X186722238Y-99036095D02*
X186769857Y-98988476D01*
X186769857Y-98988476D02*
X186865095Y-98940857D01*
X186865095Y-98940857D02*
X187007952Y-98940857D01*
X187007952Y-98940857D02*
X187103190Y-98988476D01*
X187103190Y-98988476D02*
X187150809Y-99036095D01*
X187150809Y-99036095D02*
X187198428Y-99131333D01*
X187198428Y-99131333D02*
X187198428Y-99512285D01*
X187674619Y-97988476D02*
X187674619Y-98559904D01*
X187674619Y-98274190D02*
X186674619Y-98274190D01*
X186674619Y-98274190D02*
X186817476Y-98369428D01*
X186817476Y-98369428D02*
X186912714Y-98464666D01*
X186912714Y-98464666D02*
X186960333Y-98559904D01*
X186674619Y-97655142D02*
X186674619Y-96988476D01*
X186674619Y-96988476D02*
X187674619Y-97417047D01*
%TO.C,TP2*%
X101800095Y-99244619D02*
X102371523Y-99244619D01*
X102085809Y-100244619D02*
X102085809Y-99244619D01*
X102704857Y-100244619D02*
X102704857Y-99244619D01*
X102704857Y-99244619D02*
X103085809Y-99244619D01*
X103085809Y-99244619D02*
X103181047Y-99292238D01*
X103181047Y-99292238D02*
X103228666Y-99339857D01*
X103228666Y-99339857D02*
X103276285Y-99435095D01*
X103276285Y-99435095D02*
X103276285Y-99577952D01*
X103276285Y-99577952D02*
X103228666Y-99673190D01*
X103228666Y-99673190D02*
X103181047Y-99720809D01*
X103181047Y-99720809D02*
X103085809Y-99768428D01*
X103085809Y-99768428D02*
X102704857Y-99768428D01*
X103657238Y-99339857D02*
X103704857Y-99292238D01*
X103704857Y-99292238D02*
X103800095Y-99244619D01*
X103800095Y-99244619D02*
X104038190Y-99244619D01*
X104038190Y-99244619D02*
X104133428Y-99292238D01*
X104133428Y-99292238D02*
X104181047Y-99339857D01*
X104181047Y-99339857D02*
X104228666Y-99435095D01*
X104228666Y-99435095D02*
X104228666Y-99530333D01*
X104228666Y-99530333D02*
X104181047Y-99673190D01*
X104181047Y-99673190D02*
X103609619Y-100244619D01*
X103609619Y-100244619D02*
X104228666Y-100244619D01*
%TO.C,U1*%
X170912619Y-76707904D02*
X171722142Y-76707904D01*
X171722142Y-76707904D02*
X171817380Y-76660285D01*
X171817380Y-76660285D02*
X171865000Y-76612666D01*
X171865000Y-76612666D02*
X171912619Y-76517428D01*
X171912619Y-76517428D02*
X171912619Y-76326952D01*
X171912619Y-76326952D02*
X171865000Y-76231714D01*
X171865000Y-76231714D02*
X171817380Y-76184095D01*
X171817380Y-76184095D02*
X171722142Y-76136476D01*
X171722142Y-76136476D02*
X170912619Y-76136476D01*
X171912619Y-75136476D02*
X171912619Y-75707904D01*
X171912619Y-75422190D02*
X170912619Y-75422190D01*
X170912619Y-75422190D02*
X171055476Y-75517428D01*
X171055476Y-75517428D02*
X171150714Y-75612666D01*
X171150714Y-75612666D02*
X171198333Y-75707904D01*
%TO.C,R20*%
X82250619Y-102496857D02*
X81774428Y-102830190D01*
X82250619Y-103068285D02*
X81250619Y-103068285D01*
X81250619Y-103068285D02*
X81250619Y-102687333D01*
X81250619Y-102687333D02*
X81298238Y-102592095D01*
X81298238Y-102592095D02*
X81345857Y-102544476D01*
X81345857Y-102544476D02*
X81441095Y-102496857D01*
X81441095Y-102496857D02*
X81583952Y-102496857D01*
X81583952Y-102496857D02*
X81679190Y-102544476D01*
X81679190Y-102544476D02*
X81726809Y-102592095D01*
X81726809Y-102592095D02*
X81774428Y-102687333D01*
X81774428Y-102687333D02*
X81774428Y-103068285D01*
X81345857Y-102115904D02*
X81298238Y-102068285D01*
X81298238Y-102068285D02*
X81250619Y-101973047D01*
X81250619Y-101973047D02*
X81250619Y-101734952D01*
X81250619Y-101734952D02*
X81298238Y-101639714D01*
X81298238Y-101639714D02*
X81345857Y-101592095D01*
X81345857Y-101592095D02*
X81441095Y-101544476D01*
X81441095Y-101544476D02*
X81536333Y-101544476D01*
X81536333Y-101544476D02*
X81679190Y-101592095D01*
X81679190Y-101592095D02*
X82250619Y-102163523D01*
X82250619Y-102163523D02*
X82250619Y-101544476D01*
X81250619Y-100925428D02*
X81250619Y-100830190D01*
X81250619Y-100830190D02*
X81298238Y-100734952D01*
X81298238Y-100734952D02*
X81345857Y-100687333D01*
X81345857Y-100687333D02*
X81441095Y-100639714D01*
X81441095Y-100639714D02*
X81631571Y-100592095D01*
X81631571Y-100592095D02*
X81869666Y-100592095D01*
X81869666Y-100592095D02*
X82060142Y-100639714D01*
X82060142Y-100639714D02*
X82155380Y-100687333D01*
X82155380Y-100687333D02*
X82203000Y-100734952D01*
X82203000Y-100734952D02*
X82250619Y-100830190D01*
X82250619Y-100830190D02*
X82250619Y-100925428D01*
X82250619Y-100925428D02*
X82203000Y-101020666D01*
X82203000Y-101020666D02*
X82155380Y-101068285D01*
X82155380Y-101068285D02*
X82060142Y-101115904D01*
X82060142Y-101115904D02*
X81869666Y-101163523D01*
X81869666Y-101163523D02*
X81631571Y-101163523D01*
X81631571Y-101163523D02*
X81441095Y-101115904D01*
X81441095Y-101115904D02*
X81345857Y-101068285D01*
X81345857Y-101068285D02*
X81298238Y-101020666D01*
X81298238Y-101020666D02*
X81250619Y-100925428D01*
%TO.C,H6*%
X123698095Y-137952619D02*
X123698095Y-136952619D01*
X123698095Y-137428809D02*
X124269523Y-137428809D01*
X124269523Y-137952619D02*
X124269523Y-136952619D01*
X125174285Y-136952619D02*
X124983809Y-136952619D01*
X124983809Y-136952619D02*
X124888571Y-137000238D01*
X124888571Y-137000238D02*
X124840952Y-137047857D01*
X124840952Y-137047857D02*
X124745714Y-137190714D01*
X124745714Y-137190714D02*
X124698095Y-137381190D01*
X124698095Y-137381190D02*
X124698095Y-137762142D01*
X124698095Y-137762142D02*
X124745714Y-137857380D01*
X124745714Y-137857380D02*
X124793333Y-137905000D01*
X124793333Y-137905000D02*
X124888571Y-137952619D01*
X124888571Y-137952619D02*
X125079047Y-137952619D01*
X125079047Y-137952619D02*
X125174285Y-137905000D01*
X125174285Y-137905000D02*
X125221904Y-137857380D01*
X125221904Y-137857380D02*
X125269523Y-137762142D01*
X125269523Y-137762142D02*
X125269523Y-137524047D01*
X125269523Y-137524047D02*
X125221904Y-137428809D01*
X125221904Y-137428809D02*
X125174285Y-137381190D01*
X125174285Y-137381190D02*
X125079047Y-137333571D01*
X125079047Y-137333571D02*
X124888571Y-137333571D01*
X124888571Y-137333571D02*
X124793333Y-137381190D01*
X124793333Y-137381190D02*
X124745714Y-137428809D01*
X124745714Y-137428809D02*
X124698095Y-137524047D01*
%TO.C,R9*%
X155402619Y-129706666D02*
X154926428Y-130039999D01*
X155402619Y-130278094D02*
X154402619Y-130278094D01*
X154402619Y-130278094D02*
X154402619Y-129897142D01*
X154402619Y-129897142D02*
X154450238Y-129801904D01*
X154450238Y-129801904D02*
X154497857Y-129754285D01*
X154497857Y-129754285D02*
X154593095Y-129706666D01*
X154593095Y-129706666D02*
X154735952Y-129706666D01*
X154735952Y-129706666D02*
X154831190Y-129754285D01*
X154831190Y-129754285D02*
X154878809Y-129801904D01*
X154878809Y-129801904D02*
X154926428Y-129897142D01*
X154926428Y-129897142D02*
X154926428Y-130278094D01*
X155402619Y-129230475D02*
X155402619Y-129039999D01*
X155402619Y-129039999D02*
X155355000Y-128944761D01*
X155355000Y-128944761D02*
X155307380Y-128897142D01*
X155307380Y-128897142D02*
X155164523Y-128801904D01*
X155164523Y-128801904D02*
X154974047Y-128754285D01*
X154974047Y-128754285D02*
X154593095Y-128754285D01*
X154593095Y-128754285D02*
X154497857Y-128801904D01*
X154497857Y-128801904D02*
X154450238Y-128849523D01*
X154450238Y-128849523D02*
X154402619Y-128944761D01*
X154402619Y-128944761D02*
X154402619Y-129135237D01*
X154402619Y-129135237D02*
X154450238Y-129230475D01*
X154450238Y-129230475D02*
X154497857Y-129278094D01*
X154497857Y-129278094D02*
X154593095Y-129325713D01*
X154593095Y-129325713D02*
X154831190Y-129325713D01*
X154831190Y-129325713D02*
X154926428Y-129278094D01*
X154926428Y-129278094D02*
X154974047Y-129230475D01*
X154974047Y-129230475D02*
X155021666Y-129135237D01*
X155021666Y-129135237D02*
X155021666Y-128944761D01*
X155021666Y-128944761D02*
X154974047Y-128849523D01*
X154974047Y-128849523D02*
X154926428Y-128801904D01*
X154926428Y-128801904D02*
X154831190Y-128754285D01*
%TO.C,RV4*%
X137114619Y-115022238D02*
X136638428Y-115355571D01*
X137114619Y-115593666D02*
X136114619Y-115593666D01*
X136114619Y-115593666D02*
X136114619Y-115212714D01*
X136114619Y-115212714D02*
X136162238Y-115117476D01*
X136162238Y-115117476D02*
X136209857Y-115069857D01*
X136209857Y-115069857D02*
X136305095Y-115022238D01*
X136305095Y-115022238D02*
X136447952Y-115022238D01*
X136447952Y-115022238D02*
X136543190Y-115069857D01*
X136543190Y-115069857D02*
X136590809Y-115117476D01*
X136590809Y-115117476D02*
X136638428Y-115212714D01*
X136638428Y-115212714D02*
X136638428Y-115593666D01*
X136114619Y-114736523D02*
X137114619Y-114403190D01*
X137114619Y-114403190D02*
X136114619Y-114069857D01*
X136447952Y-113307952D02*
X137114619Y-113307952D01*
X136067000Y-113546047D02*
X136781285Y-113784142D01*
X136781285Y-113784142D02*
X136781285Y-113165095D01*
%TO.C,C6*%
X100951380Y-89955666D02*
X100999000Y-90003285D01*
X100999000Y-90003285D02*
X101046619Y-90146142D01*
X101046619Y-90146142D02*
X101046619Y-90241380D01*
X101046619Y-90241380D02*
X100999000Y-90384237D01*
X100999000Y-90384237D02*
X100903761Y-90479475D01*
X100903761Y-90479475D02*
X100808523Y-90527094D01*
X100808523Y-90527094D02*
X100618047Y-90574713D01*
X100618047Y-90574713D02*
X100475190Y-90574713D01*
X100475190Y-90574713D02*
X100284714Y-90527094D01*
X100284714Y-90527094D02*
X100189476Y-90479475D01*
X100189476Y-90479475D02*
X100094238Y-90384237D01*
X100094238Y-90384237D02*
X100046619Y-90241380D01*
X100046619Y-90241380D02*
X100046619Y-90146142D01*
X100046619Y-90146142D02*
X100094238Y-90003285D01*
X100094238Y-90003285D02*
X100141857Y-89955666D01*
X100046619Y-89098523D02*
X100046619Y-89288999D01*
X100046619Y-89288999D02*
X100094238Y-89384237D01*
X100094238Y-89384237D02*
X100141857Y-89431856D01*
X100141857Y-89431856D02*
X100284714Y-89527094D01*
X100284714Y-89527094D02*
X100475190Y-89574713D01*
X100475190Y-89574713D02*
X100856142Y-89574713D01*
X100856142Y-89574713D02*
X100951380Y-89527094D01*
X100951380Y-89527094D02*
X100999000Y-89479475D01*
X100999000Y-89479475D02*
X101046619Y-89384237D01*
X101046619Y-89384237D02*
X101046619Y-89193761D01*
X101046619Y-89193761D02*
X100999000Y-89098523D01*
X100999000Y-89098523D02*
X100951380Y-89050904D01*
X100951380Y-89050904D02*
X100856142Y-89003285D01*
X100856142Y-89003285D02*
X100618047Y-89003285D01*
X100618047Y-89003285D02*
X100522809Y-89050904D01*
X100522809Y-89050904D02*
X100475190Y-89098523D01*
X100475190Y-89098523D02*
X100427571Y-89193761D01*
X100427571Y-89193761D02*
X100427571Y-89384237D01*
X100427571Y-89384237D02*
X100475190Y-89479475D01*
X100475190Y-89479475D02*
X100522809Y-89527094D01*
X100522809Y-89527094D02*
X100618047Y-89574713D01*
%TO.C,J2*%
X121840666Y-83536619D02*
X121840666Y-84250904D01*
X121840666Y-84250904D02*
X121793047Y-84393761D01*
X121793047Y-84393761D02*
X121697809Y-84489000D01*
X121697809Y-84489000D02*
X121554952Y-84536619D01*
X121554952Y-84536619D02*
X121459714Y-84536619D01*
X122269238Y-83631857D02*
X122316857Y-83584238D01*
X122316857Y-83584238D02*
X122412095Y-83536619D01*
X122412095Y-83536619D02*
X122650190Y-83536619D01*
X122650190Y-83536619D02*
X122745428Y-83584238D01*
X122745428Y-83584238D02*
X122793047Y-83631857D01*
X122793047Y-83631857D02*
X122840666Y-83727095D01*
X122840666Y-83727095D02*
X122840666Y-83822333D01*
X122840666Y-83822333D02*
X122793047Y-83965190D01*
X122793047Y-83965190D02*
X122221619Y-84536619D01*
X122221619Y-84536619D02*
X122840666Y-84536619D01*
%TO.C,R27*%
X180040619Y-98940857D02*
X179564428Y-99274190D01*
X180040619Y-99512285D02*
X179040619Y-99512285D01*
X179040619Y-99512285D02*
X179040619Y-99131333D01*
X179040619Y-99131333D02*
X179088238Y-99036095D01*
X179088238Y-99036095D02*
X179135857Y-98988476D01*
X179135857Y-98988476D02*
X179231095Y-98940857D01*
X179231095Y-98940857D02*
X179373952Y-98940857D01*
X179373952Y-98940857D02*
X179469190Y-98988476D01*
X179469190Y-98988476D02*
X179516809Y-99036095D01*
X179516809Y-99036095D02*
X179564428Y-99131333D01*
X179564428Y-99131333D02*
X179564428Y-99512285D01*
X179135857Y-98559904D02*
X179088238Y-98512285D01*
X179088238Y-98512285D02*
X179040619Y-98417047D01*
X179040619Y-98417047D02*
X179040619Y-98178952D01*
X179040619Y-98178952D02*
X179088238Y-98083714D01*
X179088238Y-98083714D02*
X179135857Y-98036095D01*
X179135857Y-98036095D02*
X179231095Y-97988476D01*
X179231095Y-97988476D02*
X179326333Y-97988476D01*
X179326333Y-97988476D02*
X179469190Y-98036095D01*
X179469190Y-98036095D02*
X180040619Y-98607523D01*
X180040619Y-98607523D02*
X180040619Y-97988476D01*
X179040619Y-97655142D02*
X179040619Y-96988476D01*
X179040619Y-96988476D02*
X180040619Y-97417047D01*
%TO.C,R26*%
X141391619Y-82176857D02*
X140915428Y-82510190D01*
X141391619Y-82748285D02*
X140391619Y-82748285D01*
X140391619Y-82748285D02*
X140391619Y-82367333D01*
X140391619Y-82367333D02*
X140439238Y-82272095D01*
X140439238Y-82272095D02*
X140486857Y-82224476D01*
X140486857Y-82224476D02*
X140582095Y-82176857D01*
X140582095Y-82176857D02*
X140724952Y-82176857D01*
X140724952Y-82176857D02*
X140820190Y-82224476D01*
X140820190Y-82224476D02*
X140867809Y-82272095D01*
X140867809Y-82272095D02*
X140915428Y-82367333D01*
X140915428Y-82367333D02*
X140915428Y-82748285D01*
X140486857Y-81795904D02*
X140439238Y-81748285D01*
X140439238Y-81748285D02*
X140391619Y-81653047D01*
X140391619Y-81653047D02*
X140391619Y-81414952D01*
X140391619Y-81414952D02*
X140439238Y-81319714D01*
X140439238Y-81319714D02*
X140486857Y-81272095D01*
X140486857Y-81272095D02*
X140582095Y-81224476D01*
X140582095Y-81224476D02*
X140677333Y-81224476D01*
X140677333Y-81224476D02*
X140820190Y-81272095D01*
X140820190Y-81272095D02*
X141391619Y-81843523D01*
X141391619Y-81843523D02*
X141391619Y-81224476D01*
X140391619Y-80367333D02*
X140391619Y-80557809D01*
X140391619Y-80557809D02*
X140439238Y-80653047D01*
X140439238Y-80653047D02*
X140486857Y-80700666D01*
X140486857Y-80700666D02*
X140629714Y-80795904D01*
X140629714Y-80795904D02*
X140820190Y-80843523D01*
X140820190Y-80843523D02*
X141201142Y-80843523D01*
X141201142Y-80843523D02*
X141296380Y-80795904D01*
X141296380Y-80795904D02*
X141344000Y-80748285D01*
X141344000Y-80748285D02*
X141391619Y-80653047D01*
X141391619Y-80653047D02*
X141391619Y-80462571D01*
X141391619Y-80462571D02*
X141344000Y-80367333D01*
X141344000Y-80367333D02*
X141296380Y-80319714D01*
X141296380Y-80319714D02*
X141201142Y-80272095D01*
X141201142Y-80272095D02*
X140963047Y-80272095D01*
X140963047Y-80272095D02*
X140867809Y-80319714D01*
X140867809Y-80319714D02*
X140820190Y-80367333D01*
X140820190Y-80367333D02*
X140772571Y-80462571D01*
X140772571Y-80462571D02*
X140772571Y-80653047D01*
X140772571Y-80653047D02*
X140820190Y-80748285D01*
X140820190Y-80748285D02*
X140867809Y-80795904D01*
X140867809Y-80795904D02*
X140963047Y-80843523D01*
%TO.C,C8*%
X101459380Y-79200666D02*
X101507000Y-79248285D01*
X101507000Y-79248285D02*
X101554619Y-79391142D01*
X101554619Y-79391142D02*
X101554619Y-79486380D01*
X101554619Y-79486380D02*
X101507000Y-79629237D01*
X101507000Y-79629237D02*
X101411761Y-79724475D01*
X101411761Y-79724475D02*
X101316523Y-79772094D01*
X101316523Y-79772094D02*
X101126047Y-79819713D01*
X101126047Y-79819713D02*
X100983190Y-79819713D01*
X100983190Y-79819713D02*
X100792714Y-79772094D01*
X100792714Y-79772094D02*
X100697476Y-79724475D01*
X100697476Y-79724475D02*
X100602238Y-79629237D01*
X100602238Y-79629237D02*
X100554619Y-79486380D01*
X100554619Y-79486380D02*
X100554619Y-79391142D01*
X100554619Y-79391142D02*
X100602238Y-79248285D01*
X100602238Y-79248285D02*
X100649857Y-79200666D01*
X100983190Y-78629237D02*
X100935571Y-78724475D01*
X100935571Y-78724475D02*
X100887952Y-78772094D01*
X100887952Y-78772094D02*
X100792714Y-78819713D01*
X100792714Y-78819713D02*
X100745095Y-78819713D01*
X100745095Y-78819713D02*
X100649857Y-78772094D01*
X100649857Y-78772094D02*
X100602238Y-78724475D01*
X100602238Y-78724475D02*
X100554619Y-78629237D01*
X100554619Y-78629237D02*
X100554619Y-78438761D01*
X100554619Y-78438761D02*
X100602238Y-78343523D01*
X100602238Y-78343523D02*
X100649857Y-78295904D01*
X100649857Y-78295904D02*
X100745095Y-78248285D01*
X100745095Y-78248285D02*
X100792714Y-78248285D01*
X100792714Y-78248285D02*
X100887952Y-78295904D01*
X100887952Y-78295904D02*
X100935571Y-78343523D01*
X100935571Y-78343523D02*
X100983190Y-78438761D01*
X100983190Y-78438761D02*
X100983190Y-78629237D01*
X100983190Y-78629237D02*
X101030809Y-78724475D01*
X101030809Y-78724475D02*
X101078428Y-78772094D01*
X101078428Y-78772094D02*
X101173666Y-78819713D01*
X101173666Y-78819713D02*
X101364142Y-78819713D01*
X101364142Y-78819713D02*
X101459380Y-78772094D01*
X101459380Y-78772094D02*
X101507000Y-78724475D01*
X101507000Y-78724475D02*
X101554619Y-78629237D01*
X101554619Y-78629237D02*
X101554619Y-78438761D01*
X101554619Y-78438761D02*
X101507000Y-78343523D01*
X101507000Y-78343523D02*
X101459380Y-78295904D01*
X101459380Y-78295904D02*
X101364142Y-78248285D01*
X101364142Y-78248285D02*
X101173666Y-78248285D01*
X101173666Y-78248285D02*
X101078428Y-78295904D01*
X101078428Y-78295904D02*
X101030809Y-78343523D01*
X101030809Y-78343523D02*
X100983190Y-78438761D01*
%TO.C,C1*%
X157052333Y-95349380D02*
X157004714Y-95397000D01*
X157004714Y-95397000D02*
X156861857Y-95444619D01*
X156861857Y-95444619D02*
X156766619Y-95444619D01*
X156766619Y-95444619D02*
X156623762Y-95397000D01*
X156623762Y-95397000D02*
X156528524Y-95301761D01*
X156528524Y-95301761D02*
X156480905Y-95206523D01*
X156480905Y-95206523D02*
X156433286Y-95016047D01*
X156433286Y-95016047D02*
X156433286Y-94873190D01*
X156433286Y-94873190D02*
X156480905Y-94682714D01*
X156480905Y-94682714D02*
X156528524Y-94587476D01*
X156528524Y-94587476D02*
X156623762Y-94492238D01*
X156623762Y-94492238D02*
X156766619Y-94444619D01*
X156766619Y-94444619D02*
X156861857Y-94444619D01*
X156861857Y-94444619D02*
X157004714Y-94492238D01*
X157004714Y-94492238D02*
X157052333Y-94539857D01*
X158004714Y-95444619D02*
X157433286Y-95444619D01*
X157719000Y-95444619D02*
X157719000Y-94444619D01*
X157719000Y-94444619D02*
X157623762Y-94587476D01*
X157623762Y-94587476D02*
X157528524Y-94682714D01*
X157528524Y-94682714D02*
X157433286Y-94730333D01*
%TO.C,R24*%
X134320619Y-82176857D02*
X133844428Y-82510190D01*
X134320619Y-82748285D02*
X133320619Y-82748285D01*
X133320619Y-82748285D02*
X133320619Y-82367333D01*
X133320619Y-82367333D02*
X133368238Y-82272095D01*
X133368238Y-82272095D02*
X133415857Y-82224476D01*
X133415857Y-82224476D02*
X133511095Y-82176857D01*
X133511095Y-82176857D02*
X133653952Y-82176857D01*
X133653952Y-82176857D02*
X133749190Y-82224476D01*
X133749190Y-82224476D02*
X133796809Y-82272095D01*
X133796809Y-82272095D02*
X133844428Y-82367333D01*
X133844428Y-82367333D02*
X133844428Y-82748285D01*
X133415857Y-81795904D02*
X133368238Y-81748285D01*
X133368238Y-81748285D02*
X133320619Y-81653047D01*
X133320619Y-81653047D02*
X133320619Y-81414952D01*
X133320619Y-81414952D02*
X133368238Y-81319714D01*
X133368238Y-81319714D02*
X133415857Y-81272095D01*
X133415857Y-81272095D02*
X133511095Y-81224476D01*
X133511095Y-81224476D02*
X133606333Y-81224476D01*
X133606333Y-81224476D02*
X133749190Y-81272095D01*
X133749190Y-81272095D02*
X134320619Y-81843523D01*
X134320619Y-81843523D02*
X134320619Y-81224476D01*
X133653952Y-80367333D02*
X134320619Y-80367333D01*
X133273000Y-80605428D02*
X133987285Y-80843523D01*
X133987285Y-80843523D02*
X133987285Y-80224476D01*
D11*
%TO.C,SW1*%
X71797000Y-113586000D02*
X71797000Y-115086000D01*
X73047000Y-117586000D02*
X77547000Y-117586000D01*
X77547000Y-111086000D02*
X73047000Y-111086000D01*
X78797000Y-115086000D02*
X78797000Y-113586000D01*
%TO.C,J5*%
X72611007Y-76678525D02*
X72611007Y-87178525D01*
X75881007Y-73528525D02*
X75881007Y-74328525D01*
X75881007Y-73528525D02*
X76741007Y-73528525D01*
X76311007Y-87178525D02*
X72611007Y-87178525D01*
X76391007Y-76678525D02*
X72611007Y-76678525D01*
X81611007Y-76678525D02*
X77831007Y-76678525D01*
X81611007Y-76678525D02*
X81611007Y-87178525D01*
X81611007Y-87178525D02*
X77911007Y-87178525D01*
X78911007Y-81178525D02*
G75*
G03*
X78911007Y-81178525I-1800000J0D01*
G01*
%TO.C,Q1*%
X157388000Y-86532000D02*
X153538000Y-86532000D01*
X155448000Y-90831999D02*
G75*
G03*
X157804399Y-89330807I0J2599999D01*
G01*
X157770631Y-87109955D02*
G75*
G03*
X157388000Y-86532000I-2322631J-1122045D01*
G01*
X153091600Y-89330807D02*
G75*
G03*
X155448000Y-90832000I2356400J1098807D01*
G01*
X153538001Y-86532001D02*
G75*
G03*
X153145618Y-87119736I1909999J-1699999D01*
G01*
%TO.C,R25*%
X160298000Y-99060000D02*
X161068000Y-99060000D01*
X161068000Y-97690000D02*
X161068000Y-100430000D01*
X161068000Y-100430000D02*
X167608000Y-100430000D01*
X167608000Y-97690000D02*
X161068000Y-97690000D01*
X167608000Y-100430000D02*
X167608000Y-97690000D01*
X168378000Y-99060000D02*
X167608000Y-99060000D01*
%TO.C,R16*%
X183388000Y-94258000D02*
X183388000Y-95028000D01*
X184758000Y-95028000D02*
X182018000Y-95028000D01*
X182018000Y-95028000D02*
X182018000Y-101568000D01*
X184758000Y-101568000D02*
X184758000Y-95028000D01*
X182018000Y-101568000D02*
X184758000Y-101568000D01*
X183388000Y-102338000D02*
X183388000Y-101568000D01*
%TO.C,C3*%
X128108000Y-86296000D02*
X124368000Y-86296000D01*
X128108000Y-86296000D02*
X128108000Y-93536000D01*
X124368000Y-86296000D02*
X124368000Y-93536000D01*
X128108000Y-93536000D02*
X124368000Y-93536000D01*
%TO.C,R22*%
X81002000Y-90424000D02*
X80232000Y-90424000D01*
X80232000Y-91794000D02*
X80232000Y-89054000D01*
X80232000Y-89054000D02*
X73692000Y-89054000D01*
X73692000Y-91794000D02*
X80232000Y-91794000D01*
X73692000Y-89054000D02*
X73692000Y-91794000D01*
X72922000Y-90424000D02*
X73692000Y-90424000D01*
%TO.C,R11*%
X175260000Y-133580000D02*
X175260000Y-132810000D01*
X173890000Y-132810000D02*
X176630000Y-132810000D01*
X176630000Y-132810000D02*
X176630000Y-126270000D01*
X173890000Y-126270000D02*
X173890000Y-132810000D01*
X176630000Y-126270000D02*
X173890000Y-126270000D01*
X175260000Y-125500000D02*
X175260000Y-126270000D01*
%TO.C,D1*%
X77749000Y-103653000D02*
X77749000Y-100563000D01*
X72199001Y-102107538D02*
G75*
G03*
X77748999Y-103652830I2989999J-462D01*
G01*
X77749000Y-100563170D02*
G75*
G03*
X72199000Y-102108462I-2560000J-1544830D01*
G01*
X77689000Y-102108000D02*
G75*
G03*
X77689000Y-102108000I-2500000J0D01*
G01*
%TO.C,R14*%
X144526000Y-77494000D02*
X144526000Y-78264000D01*
X145896000Y-78264000D02*
X143156000Y-78264000D01*
X143156000Y-78264000D02*
X143156000Y-84804000D01*
X145896000Y-84804000D02*
X145896000Y-78264000D01*
X143156000Y-84804000D02*
X145896000Y-84804000D01*
X144526000Y-85574000D02*
X144526000Y-84804000D01*
%TO.C,C5*%
X168436113Y-86663000D02*
X168936113Y-86663000D01*
X168686113Y-86413000D02*
X168686113Y-86913000D01*
X171240888Y-85558000D02*
X171240888Y-87098000D01*
X171240888Y-89178000D02*
X171240888Y-90718000D01*
X171280888Y-85558000D02*
X171280888Y-87098000D01*
X171280888Y-89178000D02*
X171280888Y-90718000D01*
X171320888Y-85559000D02*
X171320888Y-87098000D01*
X171320888Y-89178000D02*
X171320888Y-90717000D01*
X171360888Y-85560000D02*
X171360888Y-87098000D01*
X171360888Y-89178000D02*
X171360888Y-90716000D01*
X171400888Y-85562000D02*
X171400888Y-87098000D01*
X171400888Y-89178000D02*
X171400888Y-90714000D01*
X171440888Y-85565000D02*
X171440888Y-87098000D01*
X171440888Y-89178000D02*
X171440888Y-90711000D01*
X171480888Y-85569000D02*
X171480888Y-87098000D01*
X171480888Y-89178000D02*
X171480888Y-90707000D01*
X171520888Y-85573000D02*
X171520888Y-87098000D01*
X171520888Y-89178000D02*
X171520888Y-90703000D01*
X171560888Y-85577000D02*
X171560888Y-87098000D01*
X171560888Y-89178000D02*
X171560888Y-90699000D01*
X171600888Y-85582000D02*
X171600888Y-87098000D01*
X171600888Y-89178000D02*
X171600888Y-90694000D01*
X171640888Y-85588000D02*
X171640888Y-87098000D01*
X171640888Y-89178000D02*
X171640888Y-90688000D01*
X171680888Y-85595000D02*
X171680888Y-87098000D01*
X171680888Y-89178000D02*
X171680888Y-90681000D01*
X171720888Y-85602000D02*
X171720888Y-87098000D01*
X171720888Y-89178000D02*
X171720888Y-90674000D01*
X171760888Y-85610000D02*
X171760888Y-87098000D01*
X171760888Y-89178000D02*
X171760888Y-90666000D01*
X171800888Y-85618000D02*
X171800888Y-87098000D01*
X171800888Y-89178000D02*
X171800888Y-90658000D01*
X171840888Y-85627000D02*
X171840888Y-87098000D01*
X171840888Y-89178000D02*
X171840888Y-90649000D01*
X171880888Y-85637000D02*
X171880888Y-87098000D01*
X171880888Y-89178000D02*
X171880888Y-90639000D01*
X171920888Y-85647000D02*
X171920888Y-87098000D01*
X171920888Y-89178000D02*
X171920888Y-90629000D01*
X171961888Y-85658000D02*
X171961888Y-87098000D01*
X171961888Y-89178000D02*
X171961888Y-90618000D01*
X172001888Y-85670000D02*
X172001888Y-87098000D01*
X172001888Y-89178000D02*
X172001888Y-90606000D01*
X172041888Y-85683000D02*
X172041888Y-87098000D01*
X172041888Y-89178000D02*
X172041888Y-90593000D01*
X172081888Y-85696000D02*
X172081888Y-87098000D01*
X172081888Y-89178000D02*
X172081888Y-90580000D01*
X172121888Y-85710000D02*
X172121888Y-87098000D01*
X172121888Y-89178000D02*
X172121888Y-90566000D01*
X172161888Y-85724000D02*
X172161888Y-87098000D01*
X172161888Y-89178000D02*
X172161888Y-90552000D01*
X172201888Y-85740000D02*
X172201888Y-87098000D01*
X172201888Y-89178000D02*
X172201888Y-90536000D01*
X172241888Y-85756000D02*
X172241888Y-87098000D01*
X172241888Y-89178000D02*
X172241888Y-90520000D01*
X172281888Y-85773000D02*
X172281888Y-87098000D01*
X172281888Y-89178000D02*
X172281888Y-90503000D01*
X172321888Y-85790000D02*
X172321888Y-87098000D01*
X172321888Y-89178000D02*
X172321888Y-90486000D01*
X172361888Y-85809000D02*
X172361888Y-87098000D01*
X172361888Y-89178000D02*
X172361888Y-90467000D01*
X172401888Y-85828000D02*
X172401888Y-87098000D01*
X172401888Y-89178000D02*
X172401888Y-90448000D01*
X172441888Y-85848000D02*
X172441888Y-87098000D01*
X172441888Y-89178000D02*
X172441888Y-90428000D01*
X172481888Y-85870000D02*
X172481888Y-87098000D01*
X172481888Y-89178000D02*
X172481888Y-90406000D01*
X172521888Y-85891000D02*
X172521888Y-87098000D01*
X172521888Y-89178000D02*
X172521888Y-90385000D01*
X172561888Y-85914000D02*
X172561888Y-87098000D01*
X172561888Y-89178000D02*
X172561888Y-90362000D01*
X172601888Y-85938000D02*
X172601888Y-87098000D01*
X172601888Y-89178000D02*
X172601888Y-90338000D01*
X172641888Y-85963000D02*
X172641888Y-87098000D01*
X172641888Y-89178000D02*
X172641888Y-90313000D01*
X172681888Y-85989000D02*
X172681888Y-87098000D01*
X172681888Y-89178000D02*
X172681888Y-90287000D01*
X172721888Y-86016000D02*
X172721888Y-87098000D01*
X172721888Y-89178000D02*
X172721888Y-90260000D01*
X172761888Y-86043000D02*
X172761888Y-87098000D01*
X172761888Y-89178000D02*
X172761888Y-90233000D01*
X172801888Y-86073000D02*
X172801888Y-87098000D01*
X172801888Y-89178000D02*
X172801888Y-90203000D01*
X172841888Y-86103000D02*
X172841888Y-87098000D01*
X172841888Y-89178000D02*
X172841888Y-90173000D01*
X172881888Y-86134000D02*
X172881888Y-87098000D01*
X172881888Y-89178000D02*
X172881888Y-90142000D01*
X172921888Y-86167000D02*
X172921888Y-87098000D01*
X172921888Y-89178000D02*
X172921888Y-90109000D01*
X172961888Y-86201000D02*
X172961888Y-87098000D01*
X172961888Y-89178000D02*
X172961888Y-90075000D01*
X173001888Y-86237000D02*
X173001888Y-87098000D01*
X173001888Y-89178000D02*
X173001888Y-90039000D01*
X173041888Y-86274000D02*
X173041888Y-87098000D01*
X173041888Y-89178000D02*
X173041888Y-90002000D01*
X173081888Y-86312000D02*
X173081888Y-87098000D01*
X173081888Y-89178000D02*
X173081888Y-89964000D01*
X173121888Y-86353000D02*
X173121888Y-87098000D01*
X173121888Y-89178000D02*
X173121888Y-89923000D01*
X173161888Y-86395000D02*
X173161888Y-87098000D01*
X173161888Y-89178000D02*
X173161888Y-89881000D01*
X173201888Y-86439000D02*
X173201888Y-87098000D01*
X173201888Y-89178000D02*
X173201888Y-89837000D01*
X173241888Y-86485000D02*
X173241888Y-87098000D01*
X173241888Y-89178000D02*
X173241888Y-89791000D01*
X173281888Y-86533000D02*
X173281888Y-89743000D01*
X173321888Y-86584000D02*
X173321888Y-89692000D01*
X173361888Y-86638000D02*
X173361888Y-89638000D01*
X173401888Y-86695000D02*
X173401888Y-89581000D01*
X173441888Y-86755000D02*
X173441888Y-89521000D01*
X173481888Y-86819000D02*
X173481888Y-89457000D01*
X173521888Y-86887000D02*
X173521888Y-89389000D01*
X173561888Y-86960000D02*
X173561888Y-89316000D01*
X173601888Y-87040000D02*
X173601888Y-89236000D01*
X173641888Y-87127000D02*
X173641888Y-89149000D01*
X173681888Y-87223000D02*
X173681888Y-89053000D01*
X173721888Y-87333000D02*
X173721888Y-88943000D01*
X173761888Y-87461000D02*
X173761888Y-88815000D01*
X173801888Y-87620000D02*
X173801888Y-88656000D01*
X173841888Y-87854000D02*
X173841888Y-88422000D01*
X173860888Y-88138000D02*
G75*
G03*
X173860888Y-88138000I-2620000J0D01*
G01*
%TO.C,R3*%
X93980000Y-133580000D02*
X93980000Y-132810000D01*
X92610000Y-132810000D02*
X95350000Y-132810000D01*
X95350000Y-132810000D02*
X95350000Y-126270000D01*
X92610000Y-126270000D02*
X92610000Y-132810000D01*
X95350000Y-126270000D02*
X92610000Y-126270000D01*
X93980000Y-125500000D02*
X93980000Y-126270000D01*
%TO.C,R19*%
X105688000Y-76200000D02*
X106458000Y-76200000D01*
X106458000Y-74830000D02*
X106458000Y-77570000D01*
X106458000Y-77570000D02*
X112998000Y-77570000D01*
X112998000Y-74830000D02*
X106458000Y-74830000D01*
X112998000Y-77570000D02*
X112998000Y-74830000D01*
X113768000Y-76200000D02*
X112998000Y-76200000D01*
%TO.C,R10*%
X165100000Y-133580000D02*
X165100000Y-132810000D01*
X163730000Y-132810000D02*
X166470000Y-132810000D01*
X166470000Y-132810000D02*
X166470000Y-126270000D01*
X163730000Y-126270000D02*
X163730000Y-132810000D01*
X166470000Y-126270000D02*
X163730000Y-126270000D01*
X165100000Y-125500000D02*
X165100000Y-126270000D01*
%TO.C,R18*%
X105688000Y-81280000D02*
X106458000Y-81280000D01*
X106458000Y-79910000D02*
X106458000Y-82650000D01*
X106458000Y-82650000D02*
X112998000Y-82650000D01*
X112998000Y-79910000D02*
X106458000Y-79910000D01*
X112998000Y-82650000D02*
X112998000Y-79910000D01*
X113768000Y-81280000D02*
X112998000Y-81280000D01*
%TO.C,C4*%
X129799225Y-89965000D02*
X130299225Y-89965000D01*
X130049225Y-89715000D02*
X130049225Y-90215000D01*
X132604000Y-88860000D02*
X132604000Y-90400000D01*
X132604000Y-92480000D02*
X132604000Y-94020000D01*
X132644000Y-88860000D02*
X132644000Y-90400000D01*
X132644000Y-92480000D02*
X132644000Y-94020000D01*
X132684000Y-88861000D02*
X132684000Y-90400000D01*
X132684000Y-92480000D02*
X132684000Y-94019000D01*
X132724000Y-88862000D02*
X132724000Y-90400000D01*
X132724000Y-92480000D02*
X132724000Y-94018000D01*
X132764000Y-88864000D02*
X132764000Y-90400000D01*
X132764000Y-92480000D02*
X132764000Y-94016000D01*
X132804000Y-88867000D02*
X132804000Y-90400000D01*
X132804000Y-92480000D02*
X132804000Y-94013000D01*
X132844000Y-88871000D02*
X132844000Y-90400000D01*
X132844000Y-92480000D02*
X132844000Y-94009000D01*
X132884000Y-88875000D02*
X132884000Y-90400000D01*
X132884000Y-92480000D02*
X132884000Y-94005000D01*
X132924000Y-88879000D02*
X132924000Y-90400000D01*
X132924000Y-92480000D02*
X132924000Y-94001000D01*
X132964000Y-88884000D02*
X132964000Y-90400000D01*
X132964000Y-92480000D02*
X132964000Y-93996000D01*
X133004000Y-88890000D02*
X133004000Y-90400000D01*
X133004000Y-92480000D02*
X133004000Y-93990000D01*
X133044000Y-88897000D02*
X133044000Y-90400000D01*
X133044000Y-92480000D02*
X133044000Y-93983000D01*
X133084000Y-88904000D02*
X133084000Y-90400000D01*
X133084000Y-92480000D02*
X133084000Y-93976000D01*
X133124000Y-88912000D02*
X133124000Y-90400000D01*
X133124000Y-92480000D02*
X133124000Y-93968000D01*
X133164000Y-88920000D02*
X133164000Y-90400000D01*
X133164000Y-92480000D02*
X133164000Y-93960000D01*
X133204000Y-88929000D02*
X133204000Y-90400000D01*
X133204000Y-92480000D02*
X133204000Y-93951000D01*
X133244000Y-88939000D02*
X133244000Y-90400000D01*
X133244000Y-92480000D02*
X133244000Y-93941000D01*
X133284000Y-88949000D02*
X133284000Y-90400000D01*
X133284000Y-92480000D02*
X133284000Y-93931000D01*
X133325000Y-88960000D02*
X133325000Y-90400000D01*
X133325000Y-92480000D02*
X133325000Y-93920000D01*
X133365000Y-88972000D02*
X133365000Y-90400000D01*
X133365000Y-92480000D02*
X133365000Y-93908000D01*
X133405000Y-88985000D02*
X133405000Y-90400000D01*
X133405000Y-92480000D02*
X133405000Y-93895000D01*
X133445000Y-88998000D02*
X133445000Y-90400000D01*
X133445000Y-92480000D02*
X133445000Y-93882000D01*
X133485000Y-89012000D02*
X133485000Y-90400000D01*
X133485000Y-92480000D02*
X133485000Y-93868000D01*
X133525000Y-89026000D02*
X133525000Y-90400000D01*
X133525000Y-92480000D02*
X133525000Y-93854000D01*
X133565000Y-89042000D02*
X133565000Y-90400000D01*
X133565000Y-92480000D02*
X133565000Y-93838000D01*
X133605000Y-89058000D02*
X133605000Y-90400000D01*
X133605000Y-92480000D02*
X133605000Y-93822000D01*
X133645000Y-89075000D02*
X133645000Y-90400000D01*
X133645000Y-92480000D02*
X133645000Y-93805000D01*
X133685000Y-89092000D02*
X133685000Y-90400000D01*
X133685000Y-92480000D02*
X133685000Y-93788000D01*
X133725000Y-89111000D02*
X133725000Y-90400000D01*
X133725000Y-92480000D02*
X133725000Y-93769000D01*
X133765000Y-89130000D02*
X133765000Y-90400000D01*
X133765000Y-92480000D02*
X133765000Y-93750000D01*
X133805000Y-89150000D02*
X133805000Y-90400000D01*
X133805000Y-92480000D02*
X133805000Y-93730000D01*
X133845000Y-89172000D02*
X133845000Y-90400000D01*
X133845000Y-92480000D02*
X133845000Y-93708000D01*
X133885000Y-89193000D02*
X133885000Y-90400000D01*
X133885000Y-92480000D02*
X133885000Y-93687000D01*
X133925000Y-89216000D02*
X133925000Y-90400000D01*
X133925000Y-92480000D02*
X133925000Y-93664000D01*
X133965000Y-89240000D02*
X133965000Y-90400000D01*
X133965000Y-92480000D02*
X133965000Y-93640000D01*
X134005000Y-89265000D02*
X134005000Y-90400000D01*
X134005000Y-92480000D02*
X134005000Y-93615000D01*
X134045000Y-89291000D02*
X134045000Y-90400000D01*
X134045000Y-92480000D02*
X134045000Y-93589000D01*
X134085000Y-89318000D02*
X134085000Y-90400000D01*
X134085000Y-92480000D02*
X134085000Y-93562000D01*
X134125000Y-89345000D02*
X134125000Y-90400000D01*
X134125000Y-92480000D02*
X134125000Y-93535000D01*
X134165000Y-89375000D02*
X134165000Y-90400000D01*
X134165000Y-92480000D02*
X134165000Y-93505000D01*
X134205000Y-89405000D02*
X134205000Y-90400000D01*
X134205000Y-92480000D02*
X134205000Y-93475000D01*
X134245000Y-89436000D02*
X134245000Y-90400000D01*
X134245000Y-92480000D02*
X134245000Y-93444000D01*
X134285000Y-89469000D02*
X134285000Y-90400000D01*
X134285000Y-92480000D02*
X134285000Y-93411000D01*
X134325000Y-89503000D02*
X134325000Y-90400000D01*
X134325000Y-92480000D02*
X134325000Y-93377000D01*
X134365000Y-89539000D02*
X134365000Y-90400000D01*
X134365000Y-92480000D02*
X134365000Y-93341000D01*
X134405000Y-89576000D02*
X134405000Y-90400000D01*
X134405000Y-92480000D02*
X134405000Y-93304000D01*
X134445000Y-89614000D02*
X134445000Y-90400000D01*
X134445000Y-92480000D02*
X134445000Y-93266000D01*
X134485000Y-89655000D02*
X134485000Y-90400000D01*
X134485000Y-92480000D02*
X134485000Y-93225000D01*
X134525000Y-89697000D02*
X134525000Y-90400000D01*
X134525000Y-92480000D02*
X134525000Y-93183000D01*
X134565000Y-89741000D02*
X134565000Y-90400000D01*
X134565000Y-92480000D02*
X134565000Y-93139000D01*
X134605000Y-89787000D02*
X134605000Y-90400000D01*
X134605000Y-92480000D02*
X134605000Y-93093000D01*
X134645000Y-89835000D02*
X134645000Y-93045000D01*
X134685000Y-89886000D02*
X134685000Y-92994000D01*
X134725000Y-89940000D02*
X134725000Y-92940000D01*
X134765000Y-89997000D02*
X134765000Y-92883000D01*
X134805000Y-90057000D02*
X134805000Y-92823000D01*
X134845000Y-90121000D02*
X134845000Y-92759000D01*
X134885000Y-90189000D02*
X134885000Y-92691000D01*
X134925000Y-90262000D02*
X134925000Y-92618000D01*
X134965000Y-90342000D02*
X134965000Y-92538000D01*
X135005000Y-90429000D02*
X135005000Y-92451000D01*
X135045000Y-90525000D02*
X135045000Y-92355000D01*
X135085000Y-90635000D02*
X135085000Y-92245000D01*
X135125000Y-90763000D02*
X135125000Y-92117000D01*
X135165000Y-90922000D02*
X135165000Y-91958000D01*
X135205000Y-91156000D02*
X135205000Y-91724000D01*
X135224000Y-91440000D02*
G75*
G03*
X135224000Y-91440000I-2620000J0D01*
G01*
%TO.C,R2*%
X83820000Y-133580000D02*
X83820000Y-132810000D01*
X82450000Y-132810000D02*
X85190000Y-132810000D01*
X85190000Y-132810000D02*
X85190000Y-126270000D01*
X82450000Y-126270000D02*
X82450000Y-132810000D01*
X85190000Y-126270000D02*
X82450000Y-126270000D01*
X83820000Y-125500000D02*
X83820000Y-126270000D01*
%TO.C,R12*%
X185420000Y-133580000D02*
X185420000Y-132810000D01*
X184050000Y-132810000D02*
X186790000Y-132810000D01*
X186790000Y-132810000D02*
X186790000Y-126270000D01*
X184050000Y-126270000D02*
X184050000Y-132810000D01*
X186790000Y-126270000D02*
X184050000Y-126270000D01*
X185420000Y-125500000D02*
X185420000Y-126270000D01*
%TO.C,R21*%
X86868000Y-97814000D02*
X86868000Y-98584000D01*
X88238000Y-98584000D02*
X85498000Y-98584000D01*
X85498000Y-98584000D02*
X85498000Y-105124000D01*
X88238000Y-105124000D02*
X88238000Y-98584000D01*
X85498000Y-105124000D02*
X88238000Y-105124000D01*
X86868000Y-105894000D02*
X86868000Y-105124000D01*
%TO.C,R13*%
X137414000Y-85574000D02*
X137414000Y-84804000D01*
X136044000Y-84804000D02*
X138784000Y-84804000D01*
X138784000Y-84804000D02*
X138784000Y-78264000D01*
X136044000Y-78264000D02*
X136044000Y-84804000D01*
X138784000Y-78264000D02*
X136044000Y-78264000D01*
X137414000Y-77494000D02*
X137414000Y-78264000D01*
%TO.C,SW2*%
X89756000Y-113546000D02*
X89756000Y-115046000D01*
X91006000Y-117546000D02*
X95506000Y-117546000D01*
X95506000Y-111046000D02*
X91006000Y-111046000D01*
X96756000Y-115046000D02*
X96756000Y-113546000D01*
%TO.C,RV5*%
X119460000Y-107680000D02*
X119460000Y-112400000D01*
X118270000Y-107680000D02*
X119450000Y-107680000D01*
X115370000Y-107680000D02*
X115900000Y-107680000D01*
X112920000Y-107680000D02*
X113750000Y-107680000D01*
X109710000Y-107680000D02*
X111200000Y-107680000D01*
X109710000Y-107680000D02*
X109710000Y-112400000D01*
X119450000Y-116210000D02*
X119450000Y-119270000D01*
X109710000Y-116210000D02*
X109710000Y-119270000D01*
X109710000Y-119270000D02*
X119450000Y-119270000D01*
%TO.C,R6*%
X124460000Y-133580000D02*
X124460000Y-132810000D01*
X123090000Y-132810000D02*
X125830000Y-132810000D01*
X125830000Y-132810000D02*
X125830000Y-126270000D01*
X123090000Y-126270000D02*
X123090000Y-132810000D01*
X125830000Y-126270000D02*
X123090000Y-126270000D01*
X124460000Y-125500000D02*
X124460000Y-126270000D01*
%TO.C,C7*%
X150714000Y-74612000D02*
X146974000Y-74612000D01*
X150714000Y-74612000D02*
X150714000Y-81852000D01*
X146974000Y-74612000D02*
X146974000Y-81852000D01*
X150714000Y-81852000D02*
X146974000Y-81852000D01*
%TO.C,J3*%
X177604000Y-77072000D02*
X177604000Y-87572000D01*
X180874000Y-73922000D02*
X180874000Y-74722000D01*
X180874000Y-73922000D02*
X181734000Y-73922000D01*
X181304000Y-87572000D02*
X177604000Y-87572000D01*
X181384000Y-77072000D02*
X177604000Y-77072000D01*
X186604000Y-77072000D02*
X182824000Y-77072000D01*
X186604000Y-77072000D02*
X186604000Y-87572000D01*
X186604000Y-87572000D02*
X182904000Y-87572000D01*
X183904000Y-81572000D02*
G75*
G03*
X183904000Y-81572000I-1800000J0D01*
G01*
%TO.C,U2*%
X96580000Y-86504000D02*
X86300000Y-86504000D01*
X86300000Y-86504000D02*
X86300000Y-91804000D01*
X96580000Y-88154000D02*
X96580000Y-86504000D01*
X96580000Y-91804000D02*
X96580000Y-90154000D01*
X86300000Y-91804000D02*
X96580000Y-91804000D01*
X96580000Y-88154000D02*
G75*
G03*
X96580000Y-90154000I0J-1000000D01*
G01*
%TO.C,U3*%
X122234000Y-87266000D02*
X104334000Y-87266000D01*
X104334000Y-87266000D02*
X104334000Y-92566000D01*
X122234000Y-88916000D02*
X122234000Y-87266000D01*
X122234000Y-92566000D02*
X122234000Y-90916000D01*
X104334000Y-92566000D02*
X122234000Y-92566000D01*
X122234000Y-88916000D02*
G75*
G03*
X122234000Y-90916000I0J-1000000D01*
G01*
%TO.C,Q2*%
X165756000Y-86532000D02*
X161906000Y-86532000D01*
X163816000Y-90831999D02*
G75*
G03*
X166172399Y-89330807I0J2599999D01*
G01*
X166138631Y-87109955D02*
G75*
G03*
X165756000Y-86532000I-2322631J-1122045D01*
G01*
X161459600Y-89330807D02*
G75*
G03*
X163816000Y-90832000I2356400J1098807D01*
G01*
X161906001Y-86532001D02*
G75*
G03*
X161513618Y-87119736I1909999J-1699999D01*
G01*
%TO.C,TP1*%
X138660000Y-95250000D02*
G75*
G03*
X138660000Y-95250000I-1500000J0D01*
G01*
%TO.C,RV1*%
X163646000Y-107680000D02*
X163646000Y-112400000D01*
X162466000Y-107680000D02*
X163646000Y-107680000D01*
X159566000Y-107680000D02*
X160096000Y-107680000D01*
X157116000Y-107680000D02*
X157946000Y-107680000D01*
X153906000Y-107680000D02*
X155396000Y-107680000D01*
X153906000Y-107680000D02*
X153906000Y-112400000D01*
X163646000Y-116210000D02*
X163646000Y-119270000D01*
X153906000Y-116210000D02*
X153906000Y-119270000D01*
X153906000Y-119270000D02*
X163646000Y-119270000D01*
%TO.C,R4*%
X104140000Y-133580000D02*
X104140000Y-132810000D01*
X102770000Y-132810000D02*
X105510000Y-132810000D01*
X105510000Y-132810000D02*
X105510000Y-126270000D01*
X102770000Y-126270000D02*
X102770000Y-132810000D01*
X105510000Y-126270000D02*
X102770000Y-126270000D01*
X104140000Y-125500000D02*
X104140000Y-126270000D01*
D12*
%TO.C,J4*%
X94712000Y-71932200D02*
X94712000Y-76482200D01*
X94012000Y-76582200D02*
X87812000Y-76582200D01*
X87112000Y-71932200D02*
X87112000Y-76482200D01*
X94025467Y-76578352D02*
G75*
G03*
X94712000Y-76482200I336533J96152D01*
G01*
X87112001Y-76482200D02*
G75*
G03*
X87798532Y-76578352I349999J0D01*
G01*
D13*
X92312000Y-78882200D02*
G75*
G03*
X92312000Y-78882200I-100000J0D01*
G01*
D11*
%TO.C,R7*%
X134620000Y-133580000D02*
X134620000Y-132810000D01*
X133250000Y-132810000D02*
X135990000Y-132810000D01*
X135990000Y-132810000D02*
X135990000Y-126270000D01*
X133250000Y-126270000D02*
X133250000Y-132810000D01*
X135990000Y-126270000D02*
X133250000Y-126270000D01*
X134620000Y-125500000D02*
X134620000Y-126270000D01*
%TO.C,R5*%
X114300000Y-133580000D02*
X114300000Y-132810000D01*
X112930000Y-132810000D02*
X115670000Y-132810000D01*
X115670000Y-132810000D02*
X115670000Y-126270000D01*
X112930000Y-126270000D02*
X112930000Y-132810000D01*
X115670000Y-126270000D02*
X112930000Y-126270000D01*
X114300000Y-125500000D02*
X114300000Y-126270000D01*
%TO.C,RV2*%
X187278000Y-107680000D02*
X187278000Y-112400000D01*
X186088000Y-107680000D02*
X187268000Y-107680000D01*
X183188000Y-107680000D02*
X183718000Y-107680000D01*
X180738000Y-107680000D02*
X181568000Y-107680000D01*
X177528000Y-107680000D02*
X179018000Y-107680000D01*
X177528000Y-107680000D02*
X177528000Y-112400000D01*
X187268000Y-116210000D02*
X187268000Y-119270000D01*
X177528000Y-116210000D02*
X177528000Y-119270000D01*
X177528000Y-119270000D02*
X187268000Y-119270000D01*
%TO.C,R1*%
X73660000Y-133580000D02*
X73660000Y-132810000D01*
X72290000Y-132810000D02*
X75030000Y-132810000D01*
X75030000Y-132810000D02*
X75030000Y-126270000D01*
X72290000Y-126270000D02*
X72290000Y-132810000D01*
X75030000Y-126270000D02*
X72290000Y-126270000D01*
X73660000Y-125500000D02*
X73660000Y-126270000D01*
%TO.C,R15*%
X148844000Y-107164000D02*
X148844000Y-106394000D01*
X147474000Y-106394000D02*
X150214000Y-106394000D01*
X150214000Y-106394000D02*
X150214000Y-99854000D01*
X147474000Y-99854000D02*
X147474000Y-106394000D01*
X150214000Y-99854000D02*
X147474000Y-99854000D01*
X148844000Y-99084000D02*
X148844000Y-99854000D01*
%TO.C,R28*%
X130302000Y-85574000D02*
X130302000Y-84804000D01*
X128932000Y-84804000D02*
X131672000Y-84804000D01*
X131672000Y-84804000D02*
X131672000Y-78264000D01*
X128932000Y-78264000D02*
X128932000Y-84804000D01*
X131672000Y-78264000D02*
X128932000Y-78264000D01*
X130302000Y-77494000D02*
X130302000Y-78264000D01*
%TO.C,R23*%
X106450000Y-97282000D02*
X107220000Y-97282000D01*
X107220000Y-95912000D02*
X107220000Y-98652000D01*
X107220000Y-98652000D02*
X113760000Y-98652000D01*
X113760000Y-95912000D02*
X107220000Y-95912000D01*
X113760000Y-98652000D02*
X113760000Y-95912000D01*
X114530000Y-97282000D02*
X113760000Y-97282000D01*
%TO.C,R30*%
X148844000Y-93956000D02*
X148844000Y-93186000D01*
X147474000Y-93186000D02*
X150214000Y-93186000D01*
X150214000Y-93186000D02*
X150214000Y-86646000D01*
X147474000Y-86646000D02*
X147474000Y-93186000D01*
X150214000Y-86646000D02*
X147474000Y-86646000D01*
X148844000Y-85876000D02*
X148844000Y-86646000D01*
%TO.C,C9*%
X144082000Y-92802000D02*
X144082000Y-89062000D01*
X144082000Y-92802000D02*
X136842000Y-92802000D01*
X144082000Y-89062000D02*
X136842000Y-89062000D01*
X136842000Y-92802000D02*
X136842000Y-89062000D01*
%TO.C,R29*%
X175768000Y-94258000D02*
X175768000Y-95028000D01*
X177138000Y-95028000D02*
X174398000Y-95028000D01*
X174398000Y-95028000D02*
X174398000Y-101568000D01*
X177138000Y-101568000D02*
X177138000Y-95028000D01*
X174398000Y-101568000D02*
X177138000Y-101568000D01*
X175768000Y-102338000D02*
X175768000Y-101568000D01*
%TO.C,R8*%
X144780000Y-133580000D02*
X144780000Y-132810000D01*
X143410000Y-132810000D02*
X146150000Y-132810000D01*
X146150000Y-132810000D02*
X146150000Y-126270000D01*
X143410000Y-126270000D02*
X143410000Y-132810000D01*
X146150000Y-126270000D02*
X143410000Y-126270000D01*
X144780000Y-125500000D02*
X144780000Y-126270000D01*
%TO.C,D2*%
X90658000Y-100309000D02*
X90658000Y-103399000D01*
X96207999Y-101854462D02*
G75*
G03*
X90658001Y-100309170I-2989999J462D01*
G01*
X90658000Y-103398830D02*
G75*
G03*
X96208000Y-101853538I2560000J1544830D01*
G01*
X95718000Y-101854000D02*
G75*
G03*
X95718000Y-101854000I-2500000J0D01*
G01*
%TO.C,C2*%
X163004000Y-93126000D02*
X163004000Y-96866000D01*
X163004000Y-93126000D02*
X170244000Y-93126000D01*
X163004000Y-96866000D02*
X170244000Y-96866000D01*
X170244000Y-93126000D02*
X170244000Y-96866000D01*
%TO.C,R17*%
X187198000Y-102338000D02*
X187198000Y-101568000D01*
X185828000Y-101568000D02*
X188568000Y-101568000D01*
X188568000Y-101568000D02*
X188568000Y-95028000D01*
X185828000Y-95028000D02*
X185828000Y-101568000D01*
X188568000Y-95028000D02*
X185828000Y-95028000D01*
X187198000Y-94258000D02*
X187198000Y-95028000D01*
%TO.C,TP2*%
X103862000Y-97282000D02*
G75*
G03*
X103862000Y-97282000I-1500000J0D01*
G01*
%TO.C,U1*%
X152366000Y-81952000D02*
X170266000Y-81952000D01*
X170266000Y-81952000D02*
X170266000Y-76652000D01*
X152366000Y-80302000D02*
X152366000Y-81952000D01*
X152366000Y-76652000D02*
X152366000Y-78302000D01*
X170266000Y-76652000D02*
X152366000Y-76652000D01*
X152366000Y-80302000D02*
G75*
G03*
X152366000Y-78302000I0J1000000D01*
G01*
%TO.C,R20*%
X81788000Y-97814000D02*
X81788000Y-98584000D01*
X83158000Y-98584000D02*
X80418000Y-98584000D01*
X80418000Y-98584000D02*
X80418000Y-105124000D01*
X83158000Y-105124000D02*
X83158000Y-98584000D01*
X80418000Y-105124000D02*
X83158000Y-105124000D01*
X81788000Y-105894000D02*
X81788000Y-105124000D01*
%TO.C,R9*%
X154940000Y-133580000D02*
X154940000Y-132810000D01*
X153570000Y-132810000D02*
X156310000Y-132810000D01*
X156310000Y-132810000D02*
X156310000Y-126270000D01*
X153570000Y-126270000D02*
X153570000Y-132810000D01*
X156310000Y-126270000D02*
X153570000Y-126270000D01*
X154940000Y-125500000D02*
X154940000Y-126270000D01*
%TO.C,RV4*%
X141544000Y-107680000D02*
X141544000Y-112400000D01*
X140354000Y-107680000D02*
X141534000Y-107680000D01*
X137454000Y-107680000D02*
X137984000Y-107680000D01*
X135004000Y-107680000D02*
X135834000Y-107680000D01*
X131794000Y-107680000D02*
X133284000Y-107680000D01*
X131794000Y-107680000D02*
X131794000Y-112400000D01*
X141534000Y-116210000D02*
X141534000Y-119270000D01*
X131794000Y-116210000D02*
X131794000Y-119270000D01*
X131794000Y-119270000D02*
X141534000Y-119270000D01*
%TO.C,C6*%
X98714000Y-93536000D02*
X102454000Y-93536000D01*
X98714000Y-93536000D02*
X98714000Y-86296000D01*
X102454000Y-93536000D02*
X102454000Y-86296000D01*
X98714000Y-86296000D02*
X102454000Y-86296000D01*
%TO.C,J2*%
X124774000Y-83118000D02*
X123444000Y-83118000D01*
X124774000Y-81788000D02*
X124774000Y-83118000D01*
X124774000Y-80518000D02*
X124774000Y-75378000D01*
X124774000Y-80518000D02*
X122174000Y-80518000D01*
X124774000Y-75378000D02*
X119574000Y-75378000D01*
X122174000Y-83118000D02*
X119574000Y-83118000D01*
X122174000Y-80518000D02*
X122174000Y-83118000D01*
X119574000Y-83118000D02*
X119574000Y-75378000D01*
%TO.C,R27*%
X179578000Y-94258000D02*
X179578000Y-95028000D01*
X180948000Y-95028000D02*
X178208000Y-95028000D01*
X178208000Y-95028000D02*
X178208000Y-101568000D01*
X180948000Y-101568000D02*
X180948000Y-95028000D01*
X178208000Y-101568000D02*
X180948000Y-101568000D01*
X179578000Y-102338000D02*
X179578000Y-101568000D01*
%TO.C,R26*%
X140970000Y-77494000D02*
X140970000Y-78264000D01*
X142340000Y-78264000D02*
X139600000Y-78264000D01*
X139600000Y-78264000D02*
X139600000Y-84804000D01*
X142340000Y-84804000D02*
X142340000Y-78264000D01*
X139600000Y-84804000D02*
X142340000Y-84804000D01*
X140970000Y-85574000D02*
X140970000Y-84804000D01*
%TO.C,C8*%
X102962000Y-75414000D02*
X99222000Y-75414000D01*
X102962000Y-75414000D02*
X102962000Y-82654000D01*
X99222000Y-75414000D02*
X99222000Y-82654000D01*
X102962000Y-82654000D02*
X99222000Y-82654000D01*
%TO.C,C1*%
X153606000Y-93126000D02*
X153606000Y-96866000D01*
X153606000Y-93126000D02*
X160846000Y-93126000D01*
X153606000Y-96866000D02*
X160846000Y-96866000D01*
X160846000Y-93126000D02*
X160846000Y-96866000D01*
%TO.C,R24*%
X133858000Y-77494000D02*
X133858000Y-78264000D01*
X135228000Y-78264000D02*
X132488000Y-78264000D01*
X132488000Y-78264000D02*
X132488000Y-84804000D01*
X135228000Y-84804000D02*
X135228000Y-78264000D01*
X132488000Y-84804000D02*
X135228000Y-84804000D01*
X133858000Y-85574000D02*
X133858000Y-84804000D01*
%TD*%
M02*
