M48
; DRILL file {KiCad 7.0.2-0} date 2023 July 19, Wednesday 20:41:50
; FORMAT={-:-/ absolute / inch / decimal}
; #@! TF.CreationDate,2023-07-19T20:41:50+01:00
; #@! TF.GenerationSoftware,Kicad,Pcbnew,7.0.2-0
; #@! TF.FileFunction,Plated,1,2,PTH
FMAT,2
INCH
; #@! TA.AperFunction,Plated,PTH,ViaDrill
T1C0.0150
; #@! TA.AperFunction,Plated,PTH,ComponentDrill
T2C0.0315
; #@! TA.AperFunction,Plated,PTH,ComponentDrill
T3C0.0354
; #@! TA.AperFunction,Plated,PTH,ComponentDrill
T4C0.0394
; #@! TA.AperFunction,Plated,PTH,ComponentDrill
T5C0.0433
; #@! TA.AperFunction,Plated,PTH,ComponentDrill
T6C0.0480
; #@! TA.AperFunction,Plated,PTH,ComponentDrill
T7C0.0559
; #@! TA.AperFunction,Plated,PTH,ComponentDrill
T8C0.0563
; #@! TA.AperFunction,Plated,PTH,ComponentDrill
T9C0.0709
; #@! TA.AperFunction,Plated,PTH,ComponentDrill
T10C0.1693
%
G90
G05
T1
X3.86Y-3.56
X4.51Y-3.56
T2
X2.83Y-3.56
X2.9Y-4.9
X2.9Y-5.3
X3.22Y-3.81
X3.22Y-4.21
X3.23Y-3.56
X3.3Y-4.9
X3.3Y-5.3
X3.42Y-3.81
X3.42Y-4.21
X3.45Y-3.36
X3.45Y-3.66
X3.55Y-3.36
X3.55Y-3.66
X3.65Y-3.36
X3.65Y-3.66
X3.7Y-4.9
X3.7Y-5.3
X3.75Y-3.36
X3.75Y-3.66
X3.96Y-3.4416
X3.96Y-3.6384
X3.98Y-3.0131
X3.98Y-3.21
X4.1Y-4.9
X4.1Y-5.3
X4.12Y-3.0
X4.12Y-3.2
X4.15Y-3.83
X4.16Y-3.39
X4.16Y-3.69
X4.26Y-3.39
X4.26Y-3.69
X4.36Y-3.39
X4.36Y-3.69
X4.46Y-3.39
X4.46Y-3.69
X4.5Y-4.9
X4.5Y-5.3
X4.52Y-3.0
X4.52Y-3.2
X4.55Y-3.83
X4.56Y-3.39
X4.56Y-3.69
X4.66Y-3.39
X4.66Y-3.69
X4.76Y-3.39
X4.76Y-3.69
X4.9Y-4.9
X4.9Y-5.3
X4.97Y-3.4416
X4.97Y-3.6384
X5.13Y-3.01
X5.13Y-3.41
X5.1813Y-3.6
X5.26Y-3.6
X5.27Y-3.01
X5.27Y-3.41
X5.3Y-4.9
X5.3Y-5.3
X5.41Y-3.01
X5.41Y-3.41
X5.4316Y-3.58
X5.55Y-3.01
X5.55Y-3.41
X5.6284Y-3.58
X5.69Y-3.01
X5.69Y-3.41
X5.7Y-4.9
X5.7Y-5.3
X5.86Y-2.9816
X5.86Y-3.1784
X5.86Y-3.34
X5.86Y-3.74
X5.86Y-3.86
X5.86Y-4.26
X6.02Y-3.4737
X6.051Y-2.9721
X6.051Y-3.2721
X6.0916Y-3.74
X6.1Y-4.9
X6.1Y-5.3
X6.12Y-3.4737
X6.151Y-2.9721
X6.151Y-3.2721
X6.22Y-3.4737
X6.251Y-2.9721
X6.251Y-3.2721
X6.27Y-3.9
X6.2884Y-3.74
X6.3494Y-3.4737
X6.351Y-2.9721
X6.351Y-3.2721
X6.4494Y-3.4737
X6.451Y-2.9721
X6.451Y-3.2721
X6.4616Y-3.74
X6.5Y-4.9
X6.5Y-5.3
X6.5494Y-3.4737
X6.551Y-2.9721
X6.551Y-3.2721
X6.651Y-2.9721
X6.651Y-3.2721
X6.6584Y-3.74
X6.67Y-3.9
X6.7024Y-3.47
X6.7811Y-3.47
X6.9Y-4.9
X6.9Y-5.3
X6.92Y-3.67
X6.92Y-4.07
X7.07Y-3.67
X7.07Y-4.07
X7.22Y-3.67
X7.22Y-4.07
X7.3Y-4.9
X7.3Y-5.3
X7.37Y-3.67
X7.37Y-4.07
T3
X2.9102Y-4.02
X3.0102Y-4.02
X3.62Y-4.01
X3.72Y-4.01
T4
X4.03Y-3.83
X4.4126Y-4.2047
X4.511Y-4.2047
X4.6094Y-4.2047
X4.76Y-3.02
X4.76Y-3.12
X4.76Y-3.22
X4.86Y-3.02
X4.86Y-3.12
X4.86Y-3.22
X5.282Y-4.2047
X5.3805Y-4.2047
X5.4Y-3.75
X5.4789Y-4.2047
X6.1526Y-4.1063
X6.1526Y-4.2047
X6.251Y-4.1063
X6.251Y-4.2047
X6.3494Y-4.1063
X6.3494Y-4.2047
X7.0826Y-4.2047
X7.181Y-4.2047
X7.2794Y-4.2047
T5
X2.8365Y-4.4128
X2.8365Y-4.59
X3.0924Y-4.4128
X3.0924Y-4.59
X3.5435Y-4.4113
X3.5435Y-4.5884
X3.7994Y-4.4113
X3.7994Y-4.5884
T6
X3.0359Y-2.9409
X7.1694Y-2.9564
T7
X3.0359Y-3.0629
X7.1694Y-3.0784
T8
X3.0359Y-3.3897
X7.1694Y-3.4052
T9
X4.322Y-4.5
X4.7Y-4.5
T10
X2.9Y-5.6
X3.3Y-5.6
X3.7Y-5.6
X4.1Y-5.6
X4.5Y-5.6
X4.9Y-5.6
X5.3Y-5.6
X5.7Y-5.6
X6.1Y-5.6
X6.5Y-5.6
X6.9Y-5.6
X7.3Y-5.6
T2
G00X3.3784Y-2.9068
M15
G01X3.3784Y-2.8792
M16
G05
G00X3.3784Y-3.0524
M15
G01X3.3784Y-3.0249
M16
G05
G00X3.78Y-2.9087
M15
G01X3.78Y-2.8773
M16
G05
G00X3.78Y-3.0544
M15
G01X3.78Y-3.0229
M16
G05
T5
G00X5.1915Y-4.4862
M15
G01X5.1915Y-4.5138
M16
G05
G00X5.5694Y-4.4862
M15
G01X5.5694Y-4.5138
M16
G05
G00X6.064Y-4.4862
M15
G01X6.064Y-4.5138
M16
G05
G00X6.438Y-4.4862
M15
G01X6.438Y-4.5138
M16
G05
G00X6.992Y-4.4862
M15
G01X6.992Y-4.5138
M16
G05
G00X7.37Y-4.4862
M15
G01X7.37Y-4.5138
M16
G05
T0
M30
