M48
; DRILL file {KiCad 7.0.5-0} date 2023 June 20, Tuesday 21:08:31
; FORMAT={-:-/ absolute / inch / decimal}
; #@! TF.CreationDate,2023-06-20T21:08:31+01:00
; #@! TF.GenerationSoftware,Kicad,Pcbnew,7.0.5-0
; #@! TF.FileFunction,Plated,1,2,PTH
FMAT,2
INCH
; #@! TA.AperFunction,Plated,PTH,ViaDrill
T1C0.0150
; #@! TA.AperFunction,Plated,PTH,ComponentDrill
T2C0.0315
; #@! TA.AperFunction,Plated,PTH,ComponentDrill
T3C0.0354
; #@! TA.AperFunction,Plated,PTH,ComponentDrill
T4C0.0394
; #@! TA.AperFunction,Plated,PTH,ComponentDrill
T5C0.0433
; #@! TA.AperFunction,Plated,PTH,ComponentDrill
T6C0.0480
; #@! TA.AperFunction,Plated,PTH,ComponentDrill
T7C0.0559
; #@! TA.AperFunction,Plated,PTH,ComponentDrill
T8C0.0563
; #@! TA.AperFunction,Plated,PTH,ComponentDrill
T9C0.0709
; #@! TA.AperFunction,Plated,PTH,ComponentDrill
T10C0.1693
%
G90
G05
T1
X3.88Y-3.55
X4.71Y-3.55
T2
X2.83Y-3.56
X2.9Y-4.9
X2.9Y-5.3
X3.22Y-3.81
X3.22Y-4.21
X3.23Y-3.56
X3.3Y-4.9
X3.3Y-5.3
X3.3877Y-2.9984
X3.39Y-3.1984
X3.42Y-3.81
X3.42Y-4.21
X3.45Y-3.36
X3.45Y-3.66
X3.55Y-3.36
X3.55Y-3.66
X3.65Y-3.36
X3.65Y-3.66
X3.7Y-4.9
X3.7Y-5.3
X3.75Y-3.36
X3.75Y-3.66
X3.7877Y-2.9984
X3.79Y-3.1984
X3.98Y-3.4416
X3.98Y-3.6384
X4.1Y-4.9
X4.1Y-5.3
X4.37Y-3.39
X4.37Y-3.69
X4.47Y-3.39
X4.47Y-3.69
X4.5Y-4.9
X4.5Y-5.3
X4.57Y-3.39
X4.57Y-3.69
X4.58Y-3.0
X4.58Y-3.2
X4.67Y-3.39
X4.67Y-3.69
X4.77Y-3.39
X4.77Y-3.69
X4.87Y-3.39
X4.87Y-3.69
X4.9Y-4.9
X4.9Y-5.3
X4.97Y-3.39
X4.97Y-3.69
X4.98Y-3.0
X4.98Y-3.2
X5.1413Y-3.92
X5.2Y-3.4428
X5.2Y-3.6396
X5.22Y-3.92
X5.3Y-4.9
X5.3Y-5.3
X5.3794Y-4.0584
X5.57Y-2.97
X5.57Y-3.37
X5.7Y-4.9
X5.7Y-5.3
X5.7794Y-4.0584
X5.8494Y-3.4737
X5.8494Y-3.8737
X5.851Y-3.0753
X5.851Y-3.2721
X6.0494Y-3.4737
X6.051Y-2.9721
X6.051Y-3.2721
X6.1Y-4.9
X6.1Y-5.3
X6.1494Y-3.4737
X6.151Y-2.9721
X6.151Y-3.2721
X6.2494Y-3.4737
X6.2494Y-3.6769
X6.2494Y-3.8737
X6.251Y-2.9721
X6.251Y-3.2721
X6.3494Y-3.4737
X6.351Y-2.9721
X6.351Y-3.2721
X6.4494Y-3.4737
X6.451Y-2.9721
X6.451Y-3.2721
X6.5Y-4.9
X6.5Y-5.3
X6.5494Y-3.4737
X6.5494Y-3.6737
X6.5494Y-3.8706
X6.551Y-2.9721
X6.551Y-3.2721
X6.651Y-2.9721
X6.651Y-3.2721
X6.7513Y-3.48
X6.83Y-3.48
X6.9Y-4.9
X6.9Y-5.3
X7.0794Y-3.5884
X7.0794Y-3.9884
X7.2794Y-3.5884
X7.2794Y-3.9884
X7.3Y-4.9
X7.3Y-5.3
T3
X2.9102Y-4.02
X3.0102Y-4.02
X3.62Y-4.01
X3.72Y-4.01
T4
X4.4126Y-4.2047
X4.511Y-4.2047
X4.6094Y-4.2047
X5.22Y-3.02
X5.22Y-3.12
X5.22Y-3.22
X5.282Y-4.2047
X5.32Y-3.02
X5.32Y-3.12
X5.32Y-3.22
X5.3805Y-4.2047
X5.4789Y-4.2047
X6.1526Y-4.1063
X6.1526Y-4.2047
X6.251Y-4.1063
X6.251Y-4.2047
X6.3494Y-4.1063
X6.3494Y-4.2047
X7.0826Y-4.2047
X7.181Y-4.2047
X7.2794Y-4.2047
T5
X2.8365Y-4.4128
X2.8365Y-4.59
X3.0924Y-4.4128
X3.0924Y-4.59
X3.5435Y-4.4113
X3.5435Y-4.5884
X3.7994Y-4.4113
X3.7994Y-4.5884
X5.4731Y-3.72
X5.5716Y-3.6216
X5.67Y-3.72
T6
X3.0359Y-2.9409
X7.1694Y-2.9564
T7
X3.0359Y-3.0629
X7.1694Y-3.0784
T8
X3.0359Y-3.3897
X7.1694Y-3.4052
T9
X4.322Y-4.5
X4.7Y-4.5
T10
X2.9Y-5.6
X3.3Y-5.6
X3.7Y-5.6
X4.1Y-5.6
X4.5Y-5.6
X4.9Y-5.6
X5.3Y-5.6
X5.7Y-5.6
X6.1Y-5.6
X6.5Y-5.6
X6.9Y-5.6
X7.3Y-5.6
T2
G00X4.0084Y-2.9138
M15
G01X4.0084Y-2.8862
M16
G05
G00X4.0084Y-3.0594
M15
G01X4.0084Y-3.0319
M16
G05
G00X4.41Y-2.9138
M15
G01X4.41Y-2.8862
M16
G05
G00X4.41Y-3.0594
M15
G01X4.41Y-3.0319
M16
G05
T5
G00X5.1915Y-4.4862
M15
G01X5.1915Y-4.5138
M16
G05
G00X5.5694Y-4.4862
M15
G01X5.5694Y-4.5138
M16
G05
G00X6.064Y-4.4862
M15
G01X6.064Y-4.5138
M16
G05
G00X6.438Y-4.4862
M15
G01X6.438Y-4.5138
M16
G05
G00X6.992Y-4.4862
M15
G01X6.992Y-4.5138
M16
G05
G00X7.37Y-4.4862
M15
G01X7.37Y-4.5138
M16
G05
T0
M30
