M48
; DRILL file {KiCad 9.0.3} date 2025-07-31T22:21:22+0100
; FORMAT={-:-/ absolute / inch / decimal}
; #@! TF.CreationDate,2025-07-31T22:21:22+01:00
; #@! TF.GenerationSoftware,Kicad,Pcbnew,9.0.3
; #@! TF.FileFunction,Plated,1,2,PTH
FMAT,2
INCH
; #@! TA.AperFunction,Plated,PTH,ViaDrill
T1C0.0157
; #@! TA.AperFunction,Plated,PTH,ComponentDrill
T2C0.0157
; #@! TA.AperFunction,Plated,PTH,ComponentDrill
T3C0.0236
; #@! TA.AperFunction,Plated,PTH,ComponentDrill
T4C0.0315
; #@! TA.AperFunction,Plated,PTH,ComponentDrill
T5C0.0354
; #@! TA.AperFunction,Plated,PTH,ComponentDrill
T6C0.0394
; #@! TA.AperFunction,Plated,PTH,ComponentDrill
T7C0.0433
; #@! TA.AperFunction,Plated,PTH,ComponentDrill
T8C0.0480
; #@! TA.AperFunction,Plated,PTH,ComponentDrill
T9C0.0559
; #@! TA.AperFunction,Plated,PTH,ComponentDrill
T10C0.0563
%
G90
G05
T1
X2.15Y-2.41
X2.8106Y-1.7019
X2.94Y-1.93
X3.33Y-2.2
X4.54Y-2.15
X4.865Y-2.145
X4.955Y-1.98
X5.055Y-1.745
T2
X3.9427Y-1.61
X3.9427Y-1.6631
X3.9761Y-1.61
X3.9761Y-1.6631
X4.0096Y-1.61
X4.0096Y-1.6631
X4.0431Y-1.61
X4.0431Y-1.6631
X4.0765Y-1.61
X4.0765Y-1.6631
X4.11Y-1.61
X4.11Y-1.6631
X4.1435Y-1.61
X4.1435Y-1.6631
X4.1769Y-1.61
X4.1769Y-1.6631
T4
X1.7108Y-2.3894
X1.7108Y-2.5863
X1.76Y-1.82
X1.76Y-2.22
X1.88Y-2.3896
X1.88Y-2.5864
X1.89Y-1.82
X1.89Y-2.22
X2.05Y-2.33
X2.05Y-2.63
X2.1331Y-2.778
X2.15Y-2.33
X2.15Y-2.63
X2.25Y-2.33
X2.25Y-2.63
X2.324Y-2.928
X2.324Y-3.1249
X2.33Y-2.778
X2.35Y-2.33
X2.35Y-2.63
X2.47Y-3.87
X2.47Y-4.27
X2.49Y-2.32
X2.49Y-2.72
X2.6Y-3.87
X2.6Y-4.27
X2.62Y-2.32
X2.62Y-2.72
X2.73Y-3.87
X2.73Y-4.27
X2.81Y-2.33
X2.81Y-2.63
X2.86Y-3.87
X2.86Y-4.27
X2.91Y-2.33
X2.91Y-2.63
X2.93Y-1.64
X2.99Y-3.87
X2.99Y-4.27
X3.01Y-2.33
X3.01Y-2.63
X3.11Y-2.33
X3.11Y-2.63
X3.12Y-3.87
X3.12Y-4.27
X3.21Y-2.33
X3.21Y-2.63
X3.25Y-3.87
X3.25Y-4.27
X3.31Y-2.33
X3.31Y-2.63
X3.33Y-1.64
X3.36Y-1.47
X3.39Y-2.8
X3.41Y-2.33
X3.41Y-2.63
X3.4687Y-2.8
X3.5444Y-2.178
X3.56Y-2.34
X3.56Y-2.5369
X3.618Y-2.77
X3.618Y-2.916
X3.6231Y-2.178
X3.76Y-1.47
X3.83Y-2.33
X3.83Y-2.5269
X3.98Y-2.33
X3.98Y-2.63
X4.018Y-2.77
X4.018Y-2.916
X4.08Y-2.33
X4.08Y-2.63
X4.18Y-2.33
X4.18Y-2.63
X4.19Y-2.776
X4.19Y-2.91
X4.28Y-2.33
X4.28Y-2.63
X4.36Y-1.48
X4.37Y-1.59
X4.37Y-1.99
X4.38Y-2.33
X4.38Y-2.63
X4.48Y-2.33
X4.48Y-2.63
X4.51Y-1.59
X4.51Y-1.99
X4.58Y-2.33
X4.58Y-2.63
X4.59Y-2.776
X4.59Y-2.91
X4.75Y-3.87
X4.75Y-4.27
X4.76Y-1.48
X4.7911Y-2.3906
X4.7911Y-2.5875
X4.88Y-3.87
X4.88Y-4.27
X4.9703Y-2.3906
X4.9703Y-2.5875
X5.01Y-3.87
X5.01Y-4.27
X5.11Y-2.6
X5.14Y-3.87
X5.14Y-4.27
X5.2Y-2.18
X5.2Y-2.4
X5.23Y-1.6
X5.23Y-2.0
X5.27Y-3.87
X5.27Y-4.27
X5.3Y-2.18
X5.3Y-2.4
X5.37Y-1.6
X5.37Y-2.0
X5.4Y-2.18
X5.4Y-2.4
X5.4Y-3.87
X5.4Y-4.27
X5.51Y-2.6
X5.53Y-3.87
X5.53Y-4.27
X5.69Y-2.5213
X5.69Y-2.6
X6.08Y-1.82
X6.08Y-2.22
T5
X3.49Y-3.575
X3.49Y-3.675
X4.51Y-3.575
X4.51Y-3.675
T6
X1.734Y-2.756
X2.1616Y-1.76
X2.26Y-1.76
X2.3584Y-1.76
X2.478Y-2.844
X2.69Y-1.87
X3.0316Y-1.76
X3.13Y-1.76
X3.2284Y-1.76
X3.49Y-1.64
X3.49Y-1.74
X3.49Y-1.84
X3.59Y-1.64
X3.59Y-1.74
X3.59Y-1.84
X3.9016Y-1.76
X4.0Y-1.76
X4.0984Y-1.76
X4.7716Y-1.6616
X4.7716Y-1.76
X4.87Y-1.6616
X4.87Y-1.76
X4.9684Y-1.6616
X4.9684Y-1.76
X5.6416Y-1.76
X5.74Y-1.76
X5.8384Y-1.76
T7
X3.482Y-3.14
X3.482Y-3.3172
X3.7379Y-3.14
X3.7379Y-3.3172
X4.262Y-3.14
X4.262Y-3.3172
X4.5179Y-3.14
X4.5179Y-3.3172
T8
X1.7012Y-3.11
X6.2988Y-3.11
T9
X1.8232Y-3.11
X6.1768Y-3.11
T10
X2.15Y-3.11
X5.85Y-3.11
T3
G00X3.8895Y-1.5072
M15
G01X3.8895Y-1.4757
M16
G05
G00X3.8895Y-1.6541
M15
G01X3.8895Y-1.595
M16
G05
G00X4.2301Y-1.5072
M15
G01X4.2301Y-1.4757
M16
G05
G00X4.2301Y-1.6541
M15
G01X4.2301Y-1.595
M16
G05
T7
G00X2.071Y-2.0415
M15
G01X2.071Y-2.0691
M16
G05
G00X2.449Y-2.0415
M15
G01X2.449Y-2.0691
M16
G05
G00X2.941Y-2.0415
M15
G01X2.941Y-2.0691
M16
G05
G00X3.319Y-2.0415
M15
G01X3.319Y-2.0691
M16
G05
G00X3.811Y-2.0415
M15
G01X3.811Y-2.0691
M16
G05
G00X4.189Y-2.0415
M15
G01X4.189Y-2.0691
M16
G05
G00X4.683Y-2.0415
M15
G01X4.683Y-2.0691
M16
G05
G00X5.057Y-2.0415
M15
G01X5.057Y-2.0691
M16
G05
G00X5.551Y-2.0415
M15
G01X5.551Y-2.0691
M16
G05
G00X5.929Y-2.0415
M15
G01X5.929Y-2.0691
M16
G05
M30
