%TF.GenerationSoftware,KiCad,Pcbnew,7.0.2-0*%
%TF.CreationDate,2023-08-26T13:21:51+01:00*%
%TF.ProjectId,Yorick,596f7269-636b-42e6-9b69-6361645f7063,rev02*%
%TF.SameCoordinates,Original*%
%TF.FileFunction,Soldermask,Bot*%
%TF.FilePolarity,Negative*%
%FSLAX46Y46*%
G04 Gerber Fmt 4.6, Leading zero omitted, Abs format (unit mm)*
G04 Created by KiCad (PCBNEW 7.0.2-0) date 2023-08-26 13:21:51*
%MOMM*%
%LPD*%
G01*
G04 APERTURE LIST*
%ADD10C,2.000000*%
%ADD11C,2.200000*%
%ADD12R,1.830000X1.930000*%
%ADD13C,2.130000*%
%ADD14R,1.500000X1.500000*%
%ADD15C,1.500000*%
%ADD16C,1.600000*%
%ADD17O,1.600000X1.600000*%
%ADD18R,1.800000X1.800000*%
%ADD19C,1.800000*%
%ADD20R,1.600000X1.600000*%
%ADD21O,2.720000X3.240000*%
%ADD22R,1.700000X1.700000*%
%ADD23O,1.700000X1.700000*%
G04 APERTURE END LIST*
D10*
%TO.C,SW1*%
X88442800Y-79756000D03*
X94942800Y-79756000D03*
X88442800Y-84256000D03*
X94942800Y-84256000D03*
%TD*%
D11*
%TO.C,H3*%
X50800000Y-104648000D03*
%TD*%
D12*
%TO.C,J5*%
X43210000Y-78994000D03*
D13*
X54610000Y-78994000D03*
X46310000Y-78994000D03*
%TD*%
D14*
%TO.C,Q1*%
X132080000Y-60960000D03*
D15*
X134620000Y-60960000D03*
X137160000Y-60960000D03*
%TD*%
D16*
%TO.C,R37*%
X129794000Y-66040000D03*
D17*
X139954000Y-66040000D03*
%TD*%
D16*
%TO.C,R25*%
X136398000Y-50800000D03*
D17*
X136398000Y-40640000D03*
%TD*%
D16*
%TO.C,R16*%
X154432000Y-46228000D03*
D17*
X154432000Y-56388000D03*
%TD*%
D16*
%TO.C,C3*%
X97282000Y-59182000D03*
X97282000Y-64182000D03*
%TD*%
%TO.C,R22*%
X63246000Y-69088000D03*
D17*
X63246000Y-58928000D03*
%TD*%
D16*
%TO.C,R11*%
X66040000Y-108458000D03*
D17*
X66040000Y-98298000D03*
%TD*%
D18*
%TO.C,D1*%
X88646000Y-93345000D03*
D19*
X88646000Y-90805000D03*
%TD*%
D16*
%TO.C,R14*%
X132842000Y-40640000D03*
D17*
X132842000Y-50800000D03*
%TD*%
D20*
%TO.C,C5*%
X144526000Y-64040000D03*
D16*
X144526000Y-66040000D03*
%TD*%
D11*
%TO.C,H1*%
X152400000Y-41148000D03*
%TD*%
D16*
%TO.C,R3*%
X133858000Y-108458000D03*
D17*
X133858000Y-98298000D03*
%TD*%
D16*
%TO.C,R19*%
X74422000Y-41656000D03*
D17*
X84582000Y-41656000D03*
%TD*%
D16*
%TO.C,R10*%
X69342000Y-108458000D03*
D17*
X69342000Y-98298000D03*
%TD*%
D16*
%TO.C,R18*%
X48006000Y-56388000D03*
D17*
X48006000Y-46228000D03*
%TD*%
D20*
%TO.C,C4*%
X86106000Y-71120000D03*
D16*
X88106000Y-71120000D03*
%TD*%
%TO.C,R2*%
X137160000Y-108458000D03*
D17*
X137160000Y-98298000D03*
%TD*%
D16*
%TO.C,R12*%
X62738000Y-108458000D03*
D17*
X62738000Y-98298000D03*
%TD*%
D16*
%TO.C,R21*%
X120650000Y-98298000D03*
D17*
X120650000Y-108458000D03*
%TD*%
D16*
%TO.C,R13*%
X114554000Y-50546000D03*
D17*
X114554000Y-40386000D03*
%TD*%
D10*
%TO.C,SW2*%
X108254800Y-79756000D03*
X114754800Y-79756000D03*
X108254800Y-84256000D03*
X114754800Y-84256000D03*
%TD*%
D21*
%TO.C,RV1*%
X62204000Y-52204000D03*
X52604000Y-52204000D03*
D18*
X59904000Y-44704000D03*
D19*
X57404000Y-44704000D03*
X54904000Y-44704000D03*
%TD*%
D16*
%TO.C,R6*%
X123952000Y-108458000D03*
D17*
X123952000Y-98298000D03*
%TD*%
D16*
%TO.C,C7*%
X90424000Y-59182000D03*
X90424000Y-64182000D03*
%TD*%
D12*
%TO.C,J3*%
X159990000Y-78994000D03*
D13*
X148590000Y-78994000D03*
X156890000Y-78994000D03*
%TD*%
D20*
%TO.C,U2*%
X52070000Y-66802000D03*
D17*
X54610000Y-66802000D03*
X57150000Y-66802000D03*
X59690000Y-66802000D03*
X59690000Y-59182000D03*
X57150000Y-59182000D03*
X54610000Y-59182000D03*
X52070000Y-59182000D03*
%TD*%
D20*
%TO.C,U3*%
X86614000Y-59182000D03*
D17*
X84074000Y-59182000D03*
X81534000Y-59182000D03*
X78994000Y-59182000D03*
X76454000Y-59182000D03*
X73914000Y-59182000D03*
X71374000Y-59182000D03*
X71374000Y-66802000D03*
X73914000Y-66802000D03*
X76454000Y-66802000D03*
X78994000Y-66802000D03*
X81534000Y-66802000D03*
X84074000Y-66802000D03*
X86614000Y-66802000D03*
%TD*%
D14*
%TO.C,Q2*%
X137160000Y-55372000D03*
D15*
X134620000Y-55372000D03*
X132080000Y-55372000D03*
%TD*%
D10*
%TO.C,TP1*%
X58928000Y-78994000D03*
%TD*%
D21*
%TO.C,RV2*%
X84302000Y-52204000D03*
X74702000Y-52204000D03*
D18*
X82002000Y-44704000D03*
D19*
X79502000Y-44704000D03*
X77002000Y-44704000D03*
%TD*%
D21*
%TO.C,RV4*%
X128448000Y-52204000D03*
X118948000Y-52204000D03*
D18*
X126198000Y-44704000D03*
D19*
X123698000Y-44704000D03*
X121198000Y-44704000D03*
X126198000Y-42204000D03*
X123698000Y-42204000D03*
X121198000Y-42204000D03*
%TD*%
D16*
%TO.C,R4*%
X130556000Y-108458000D03*
D17*
X130556000Y-98298000D03*
%TD*%
D16*
%TO.C,R7*%
X79248000Y-108458000D03*
D17*
X79248000Y-98298000D03*
%TD*%
D16*
%TO.C,R5*%
X127254000Y-108458000D03*
D17*
X127254000Y-98298000D03*
%TD*%
D21*
%TO.C,RV5*%
X150596000Y-52204000D03*
X140996000Y-52204000D03*
D18*
X148296000Y-44704000D03*
D19*
X145796000Y-44704000D03*
X143296000Y-44704000D03*
%TD*%
D16*
%TO.C,R29*%
X44704000Y-56388000D03*
D17*
X44704000Y-46228000D03*
%TD*%
D16*
%TO.C,R1*%
X140462000Y-108458000D03*
D17*
X140462000Y-98298000D03*
%TD*%
D16*
%TO.C,R28*%
X66548000Y-69088000D03*
D17*
X66548000Y-58928000D03*
%TD*%
D16*
%TO.C,C9*%
X59436000Y-75104000D03*
X59436000Y-70104000D03*
%TD*%
%TO.C,R8*%
X75946000Y-108458000D03*
D17*
X75946000Y-98298000D03*
%TD*%
D18*
%TO.C,D2*%
X114554000Y-93345000D03*
D19*
X114554000Y-90805000D03*
%TD*%
D16*
%TO.C,C2*%
X126244400Y-60721708D03*
X126244400Y-65721708D03*
%TD*%
%TO.C,R17*%
X116586000Y-70612000D03*
D17*
X106426000Y-70612000D03*
%TD*%
D10*
%TO.C,TP2*%
X68326000Y-47498000D03*
%TD*%
D20*
%TO.C,U1*%
X101092000Y-66802000D03*
D17*
X103632000Y-66802000D03*
X106172000Y-66802000D03*
X108712000Y-66802000D03*
X111252000Y-66802000D03*
X113792000Y-66802000D03*
X116332000Y-66802000D03*
X116332000Y-59182000D03*
X113792000Y-59182000D03*
X111252000Y-59182000D03*
X108712000Y-59182000D03*
X106172000Y-59182000D03*
X103632000Y-59182000D03*
X101092000Y-59182000D03*
%TD*%
D16*
%TO.C,R20*%
X82550000Y-98298000D03*
D17*
X82550000Y-108458000D03*
%TD*%
D16*
%TO.C,R9*%
X72644000Y-108458000D03*
D17*
X72644000Y-98298000D03*
%TD*%
D21*
%TO.C,RV3*%
X106400000Y-52204000D03*
X96800000Y-52204000D03*
D18*
X104100000Y-44704000D03*
D19*
X101600000Y-44704000D03*
X99100000Y-44704000D03*
%TD*%
D11*
%TO.C,H4*%
X152400000Y-104648000D03*
%TD*%
D16*
%TO.C,C6*%
X47752000Y-60695708D03*
X47752000Y-65695708D03*
%TD*%
D22*
%TO.C,J2*%
X91186000Y-46736000D03*
D23*
X88646000Y-46736000D03*
X91186000Y-44196000D03*
X88646000Y-44196000D03*
X91186000Y-41656000D03*
X88646000Y-41656000D03*
%TD*%
D16*
%TO.C,R27*%
X106426000Y-73914000D03*
D17*
X116586000Y-73914000D03*
%TD*%
D16*
%TO.C,R26*%
X110998000Y-50546000D03*
D17*
X110998000Y-40386000D03*
%TD*%
D16*
%TO.C,C8*%
X43454400Y-65691708D03*
X43454400Y-60691708D03*
%TD*%
%TO.C,C1*%
X121694400Y-60721708D03*
X121694400Y-65721708D03*
%TD*%
D11*
%TO.C,H2*%
X50800000Y-40894000D03*
%TD*%
D16*
%TO.C,R24*%
X101854000Y-70866000D03*
D17*
X91694000Y-70866000D03*
%TD*%
M02*
