%TF.GenerationSoftware,KiCad,Pcbnew,9.0.3*%
%TF.CreationDate,2025-07-31T22:21:15+01:00*%
%TF.ProjectId,Yorick,596f7269-636b-42e6-9b69-6361645f7063,1.2*%
%TF.SameCoordinates,Original*%
%TF.FileFunction,Legend,Top*%
%TF.FilePolarity,Positive*%
%FSLAX46Y46*%
G04 Gerber Fmt 4.6, Leading zero omitted, Abs format (unit mm)*
G04 Created by KiCad (PCBNEW 9.0.3) date 2025-07-31 22:21:15*
%MOMM*%
%LPD*%
G01*
G04 APERTURE LIST*
%ADD10C,0.150000*%
%ADD11C,0.120000*%
%ADD12C,0.000000*%
G04 APERTURE END LIST*
D10*
X58867826Y-34836914D02*
X59082112Y-34908342D01*
X59082112Y-34908342D02*
X59153541Y-34979771D01*
X59153541Y-34979771D02*
X59224969Y-35122628D01*
X59224969Y-35122628D02*
X59224969Y-35336914D01*
X59224969Y-35336914D02*
X59153541Y-35479771D01*
X59153541Y-35479771D02*
X59082112Y-35551200D01*
X59082112Y-35551200D02*
X58939255Y-35622628D01*
X58939255Y-35622628D02*
X58367826Y-35622628D01*
X58367826Y-35622628D02*
X58367826Y-34122628D01*
X58367826Y-34122628D02*
X58867826Y-34122628D01*
X58867826Y-34122628D02*
X59010684Y-34194057D01*
X59010684Y-34194057D02*
X59082112Y-34265485D01*
X59082112Y-34265485D02*
X59153541Y-34408342D01*
X59153541Y-34408342D02*
X59153541Y-34551200D01*
X59153541Y-34551200D02*
X59082112Y-34694057D01*
X59082112Y-34694057D02*
X59010684Y-34765485D01*
X59010684Y-34765485D02*
X58867826Y-34836914D01*
X58867826Y-34836914D02*
X58367826Y-34836914D01*
X60724969Y-35622628D02*
X60224969Y-34908342D01*
X59867826Y-35622628D02*
X59867826Y-34122628D01*
X59867826Y-34122628D02*
X60439255Y-34122628D01*
X60439255Y-34122628D02*
X60582112Y-34194057D01*
X60582112Y-34194057D02*
X60653541Y-34265485D01*
X60653541Y-34265485D02*
X60724969Y-34408342D01*
X60724969Y-34408342D02*
X60724969Y-34622628D01*
X60724969Y-34622628D02*
X60653541Y-34765485D01*
X60653541Y-34765485D02*
X60582112Y-34836914D01*
X60582112Y-34836914D02*
X60439255Y-34908342D01*
X60439255Y-34908342D02*
X59867826Y-34908342D01*
X61367826Y-35622628D02*
X61367826Y-34122628D01*
X62010684Y-35551200D02*
X62224970Y-35622628D01*
X62224970Y-35622628D02*
X62582112Y-35622628D01*
X62582112Y-35622628D02*
X62724970Y-35551200D01*
X62724970Y-35551200D02*
X62796398Y-35479771D01*
X62796398Y-35479771D02*
X62867827Y-35336914D01*
X62867827Y-35336914D02*
X62867827Y-35194057D01*
X62867827Y-35194057D02*
X62796398Y-35051200D01*
X62796398Y-35051200D02*
X62724970Y-34979771D01*
X62724970Y-34979771D02*
X62582112Y-34908342D01*
X62582112Y-34908342D02*
X62296398Y-34836914D01*
X62296398Y-34836914D02*
X62153541Y-34765485D01*
X62153541Y-34765485D02*
X62082112Y-34694057D01*
X62082112Y-34694057D02*
X62010684Y-34551200D01*
X62010684Y-34551200D02*
X62010684Y-34408342D01*
X62010684Y-34408342D02*
X62082112Y-34265485D01*
X62082112Y-34265485D02*
X62153541Y-34194057D01*
X62153541Y-34194057D02*
X62296398Y-34122628D01*
X62296398Y-34122628D02*
X62653541Y-34122628D01*
X62653541Y-34122628D02*
X62867827Y-34194057D01*
X63296398Y-34122628D02*
X64153541Y-34122628D01*
X63724969Y-35622628D02*
X63724969Y-34122628D01*
X64939255Y-34122628D02*
X65224969Y-34122628D01*
X65224969Y-34122628D02*
X65367826Y-34194057D01*
X65367826Y-34194057D02*
X65510683Y-34336914D01*
X65510683Y-34336914D02*
X65582112Y-34622628D01*
X65582112Y-34622628D02*
X65582112Y-35122628D01*
X65582112Y-35122628D02*
X65510683Y-35408342D01*
X65510683Y-35408342D02*
X65367826Y-35551200D01*
X65367826Y-35551200D02*
X65224969Y-35622628D01*
X65224969Y-35622628D02*
X64939255Y-35622628D01*
X64939255Y-35622628D02*
X64796398Y-35551200D01*
X64796398Y-35551200D02*
X64653540Y-35408342D01*
X64653540Y-35408342D02*
X64582112Y-35122628D01*
X64582112Y-35122628D02*
X64582112Y-34622628D01*
X64582112Y-34622628D02*
X64653540Y-34336914D01*
X64653540Y-34336914D02*
X64796398Y-34194057D01*
X64796398Y-34194057D02*
X64939255Y-34122628D01*
X66939255Y-35622628D02*
X66224969Y-35622628D01*
X66224969Y-35622628D02*
X66224969Y-34122628D01*
X69439255Y-35479771D02*
X69367827Y-35551200D01*
X69367827Y-35551200D02*
X69153541Y-35622628D01*
X69153541Y-35622628D02*
X69010684Y-35622628D01*
X69010684Y-35622628D02*
X68796398Y-35551200D01*
X68796398Y-35551200D02*
X68653541Y-35408342D01*
X68653541Y-35408342D02*
X68582112Y-35265485D01*
X68582112Y-35265485D02*
X68510684Y-34979771D01*
X68510684Y-34979771D02*
X68510684Y-34765485D01*
X68510684Y-34765485D02*
X68582112Y-34479771D01*
X68582112Y-34479771D02*
X68653541Y-34336914D01*
X68653541Y-34336914D02*
X68796398Y-34194057D01*
X68796398Y-34194057D02*
X69010684Y-34122628D01*
X69010684Y-34122628D02*
X69153541Y-34122628D01*
X69153541Y-34122628D02*
X69367827Y-34194057D01*
X69367827Y-34194057D02*
X69439255Y-34265485D01*
X70367827Y-34122628D02*
X70653541Y-34122628D01*
X70653541Y-34122628D02*
X70796398Y-34194057D01*
X70796398Y-34194057D02*
X70939255Y-34336914D01*
X70939255Y-34336914D02*
X71010684Y-34622628D01*
X71010684Y-34622628D02*
X71010684Y-35122628D01*
X71010684Y-35122628D02*
X70939255Y-35408342D01*
X70939255Y-35408342D02*
X70796398Y-35551200D01*
X70796398Y-35551200D02*
X70653541Y-35622628D01*
X70653541Y-35622628D02*
X70367827Y-35622628D01*
X70367827Y-35622628D02*
X70224970Y-35551200D01*
X70224970Y-35551200D02*
X70082112Y-35408342D01*
X70082112Y-35408342D02*
X70010684Y-35122628D01*
X70010684Y-35122628D02*
X70010684Y-34622628D01*
X70010684Y-34622628D02*
X70082112Y-34336914D01*
X70082112Y-34336914D02*
X70224970Y-34194057D01*
X70224970Y-34194057D02*
X70367827Y-34122628D01*
X71653541Y-35622628D02*
X71653541Y-34122628D01*
X71653541Y-34122628D02*
X72153541Y-35194057D01*
X72153541Y-35194057D02*
X72653541Y-34122628D01*
X72653541Y-34122628D02*
X72653541Y-35622628D01*
X73367827Y-35622628D02*
X73367827Y-34122628D01*
X73367827Y-34122628D02*
X73867827Y-35194057D01*
X73867827Y-35194057D02*
X74367827Y-34122628D01*
X74367827Y-34122628D02*
X74367827Y-35622628D01*
X75082113Y-34122628D02*
X75082113Y-35336914D01*
X75082113Y-35336914D02*
X75153542Y-35479771D01*
X75153542Y-35479771D02*
X75224971Y-35551200D01*
X75224971Y-35551200D02*
X75367828Y-35622628D01*
X75367828Y-35622628D02*
X75653542Y-35622628D01*
X75653542Y-35622628D02*
X75796399Y-35551200D01*
X75796399Y-35551200D02*
X75867828Y-35479771D01*
X75867828Y-35479771D02*
X75939256Y-35336914D01*
X75939256Y-35336914D02*
X75939256Y-34122628D01*
X76653542Y-35622628D02*
X76653542Y-34122628D01*
X76653542Y-34122628D02*
X77510685Y-35622628D01*
X77510685Y-35622628D02*
X77510685Y-34122628D01*
X78153543Y-35194057D02*
X78867829Y-35194057D01*
X78010686Y-35622628D02*
X78510686Y-34122628D01*
X78510686Y-34122628D02*
X79010686Y-35622628D01*
X80224971Y-35622628D02*
X79510685Y-35622628D01*
X79510685Y-35622628D02*
X79510685Y-34122628D01*
X81867828Y-35622628D02*
X81867828Y-34122628D01*
X81867828Y-34122628D02*
X82367828Y-35194057D01*
X82367828Y-35194057D02*
X82867828Y-34122628D01*
X82867828Y-34122628D02*
X82867828Y-35622628D01*
X83867829Y-34122628D02*
X84153543Y-34122628D01*
X84153543Y-34122628D02*
X84296400Y-34194057D01*
X84296400Y-34194057D02*
X84439257Y-34336914D01*
X84439257Y-34336914D02*
X84510686Y-34622628D01*
X84510686Y-34622628D02*
X84510686Y-35122628D01*
X84510686Y-35122628D02*
X84439257Y-35408342D01*
X84439257Y-35408342D02*
X84296400Y-35551200D01*
X84296400Y-35551200D02*
X84153543Y-35622628D01*
X84153543Y-35622628D02*
X83867829Y-35622628D01*
X83867829Y-35622628D02*
X83724972Y-35551200D01*
X83724972Y-35551200D02*
X83582114Y-35408342D01*
X83582114Y-35408342D02*
X83510686Y-35122628D01*
X83510686Y-35122628D02*
X83510686Y-34622628D01*
X83510686Y-34622628D02*
X83582114Y-34336914D01*
X83582114Y-34336914D02*
X83724972Y-34194057D01*
X83724972Y-34194057D02*
X83867829Y-34122628D01*
X85153543Y-35622628D02*
X85153543Y-34122628D01*
X85153543Y-34122628D02*
X85510686Y-34122628D01*
X85510686Y-34122628D02*
X85724972Y-34194057D01*
X85724972Y-34194057D02*
X85867829Y-34336914D01*
X85867829Y-34336914D02*
X85939258Y-34479771D01*
X85939258Y-34479771D02*
X86010686Y-34765485D01*
X86010686Y-34765485D02*
X86010686Y-34979771D01*
X86010686Y-34979771D02*
X85939258Y-35265485D01*
X85939258Y-35265485D02*
X85867829Y-35408342D01*
X85867829Y-35408342D02*
X85724972Y-35551200D01*
X85724972Y-35551200D02*
X85510686Y-35622628D01*
X85510686Y-35622628D02*
X85153543Y-35622628D01*
X86653543Y-34122628D02*
X86653543Y-35336914D01*
X86653543Y-35336914D02*
X86724972Y-35479771D01*
X86724972Y-35479771D02*
X86796401Y-35551200D01*
X86796401Y-35551200D02*
X86939258Y-35622628D01*
X86939258Y-35622628D02*
X87224972Y-35622628D01*
X87224972Y-35622628D02*
X87367829Y-35551200D01*
X87367829Y-35551200D02*
X87439258Y-35479771D01*
X87439258Y-35479771D02*
X87510686Y-35336914D01*
X87510686Y-35336914D02*
X87510686Y-34122628D01*
X88939258Y-35622628D02*
X88224972Y-35622628D01*
X88224972Y-35622628D02*
X88224972Y-34122628D01*
X89367830Y-35194057D02*
X90082116Y-35194057D01*
X89224973Y-35622628D02*
X89724973Y-34122628D01*
X89724973Y-34122628D02*
X90224973Y-35622628D01*
X91582115Y-35622628D02*
X91082115Y-34908342D01*
X90724972Y-35622628D02*
X90724972Y-34122628D01*
X90724972Y-34122628D02*
X91296401Y-34122628D01*
X91296401Y-34122628D02*
X91439258Y-34194057D01*
X91439258Y-34194057D02*
X91510687Y-34265485D01*
X91510687Y-34265485D02*
X91582115Y-34408342D01*
X91582115Y-34408342D02*
X91582115Y-34622628D01*
X91582115Y-34622628D02*
X91510687Y-34765485D01*
X91510687Y-34765485D02*
X91439258Y-34836914D01*
X91439258Y-34836914D02*
X91296401Y-34908342D01*
X91296401Y-34908342D02*
X90724972Y-34908342D01*
X88157255Y-39001819D02*
X88252493Y-39001819D01*
X88252493Y-39001819D02*
X88347731Y-39049438D01*
X88347731Y-39049438D02*
X88395350Y-39097057D01*
X88395350Y-39097057D02*
X88442969Y-39192295D01*
X88442969Y-39192295D02*
X88490588Y-39382771D01*
X88490588Y-39382771D02*
X88490588Y-39620866D01*
X88490588Y-39620866D02*
X88442969Y-39811342D01*
X88442969Y-39811342D02*
X88395350Y-39906580D01*
X88395350Y-39906580D02*
X88347731Y-39954200D01*
X88347731Y-39954200D02*
X88252493Y-40001819D01*
X88252493Y-40001819D02*
X88157255Y-40001819D01*
X88157255Y-40001819D02*
X88062017Y-39954200D01*
X88062017Y-39954200D02*
X88014398Y-39906580D01*
X88014398Y-39906580D02*
X87966779Y-39811342D01*
X87966779Y-39811342D02*
X87919160Y-39620866D01*
X87919160Y-39620866D02*
X87919160Y-39382771D01*
X87919160Y-39382771D02*
X87966779Y-39192295D01*
X87966779Y-39192295D02*
X88014398Y-39097057D01*
X88014398Y-39097057D02*
X88062017Y-39049438D01*
X88062017Y-39049438D02*
X88157255Y-39001819D01*
X88823922Y-39335152D02*
X89062017Y-40001819D01*
X89062017Y-40001819D02*
X89300112Y-39335152D01*
X117835541Y-34908342D02*
X117835541Y-35622628D01*
X117335541Y-34122628D02*
X117835541Y-34908342D01*
X117835541Y-34908342D02*
X118335541Y-34122628D01*
X119121255Y-34122628D02*
X119406969Y-34122628D01*
X119406969Y-34122628D02*
X119549826Y-34194057D01*
X119549826Y-34194057D02*
X119692683Y-34336914D01*
X119692683Y-34336914D02*
X119764112Y-34622628D01*
X119764112Y-34622628D02*
X119764112Y-35122628D01*
X119764112Y-35122628D02*
X119692683Y-35408342D01*
X119692683Y-35408342D02*
X119549826Y-35551200D01*
X119549826Y-35551200D02*
X119406969Y-35622628D01*
X119406969Y-35622628D02*
X119121255Y-35622628D01*
X119121255Y-35622628D02*
X118978398Y-35551200D01*
X118978398Y-35551200D02*
X118835540Y-35408342D01*
X118835540Y-35408342D02*
X118764112Y-35122628D01*
X118764112Y-35122628D02*
X118764112Y-34622628D01*
X118764112Y-34622628D02*
X118835540Y-34336914D01*
X118835540Y-34336914D02*
X118978398Y-34194057D01*
X118978398Y-34194057D02*
X119121255Y-34122628D01*
X121264112Y-35622628D02*
X120764112Y-34908342D01*
X120406969Y-35622628D02*
X120406969Y-34122628D01*
X120406969Y-34122628D02*
X120978398Y-34122628D01*
X120978398Y-34122628D02*
X121121255Y-34194057D01*
X121121255Y-34194057D02*
X121192684Y-34265485D01*
X121192684Y-34265485D02*
X121264112Y-34408342D01*
X121264112Y-34408342D02*
X121264112Y-34622628D01*
X121264112Y-34622628D02*
X121192684Y-34765485D01*
X121192684Y-34765485D02*
X121121255Y-34836914D01*
X121121255Y-34836914D02*
X120978398Y-34908342D01*
X120978398Y-34908342D02*
X120406969Y-34908342D01*
X121906969Y-35622628D02*
X121906969Y-34122628D01*
X123478398Y-35479771D02*
X123406970Y-35551200D01*
X123406970Y-35551200D02*
X123192684Y-35622628D01*
X123192684Y-35622628D02*
X123049827Y-35622628D01*
X123049827Y-35622628D02*
X122835541Y-35551200D01*
X122835541Y-35551200D02*
X122692684Y-35408342D01*
X122692684Y-35408342D02*
X122621255Y-35265485D01*
X122621255Y-35265485D02*
X122549827Y-34979771D01*
X122549827Y-34979771D02*
X122549827Y-34765485D01*
X122549827Y-34765485D02*
X122621255Y-34479771D01*
X122621255Y-34479771D02*
X122692684Y-34336914D01*
X122692684Y-34336914D02*
X122835541Y-34194057D01*
X122835541Y-34194057D02*
X123049827Y-34122628D01*
X123049827Y-34122628D02*
X123192684Y-34122628D01*
X123192684Y-34122628D02*
X123406970Y-34194057D01*
X123406970Y-34194057D02*
X123478398Y-34265485D01*
X124121255Y-35622628D02*
X124121255Y-34122628D01*
X124978398Y-35622628D02*
X124335541Y-34765485D01*
X124978398Y-34122628D02*
X124121255Y-34979771D01*
X126764112Y-35622628D02*
X126764112Y-34122628D01*
X126764112Y-34122628D02*
X127335541Y-34122628D01*
X127335541Y-34122628D02*
X127478398Y-34194057D01*
X127478398Y-34194057D02*
X127549827Y-34265485D01*
X127549827Y-34265485D02*
X127621255Y-34408342D01*
X127621255Y-34408342D02*
X127621255Y-34622628D01*
X127621255Y-34622628D02*
X127549827Y-34765485D01*
X127549827Y-34765485D02*
X127478398Y-34836914D01*
X127478398Y-34836914D02*
X127335541Y-34908342D01*
X127335541Y-34908342D02*
X126764112Y-34908342D01*
X128978398Y-35622628D02*
X128264112Y-35622628D01*
X128264112Y-35622628D02*
X128264112Y-34122628D01*
X129406970Y-35194057D02*
X130121256Y-35194057D01*
X129264113Y-35622628D02*
X129764113Y-34122628D01*
X129764113Y-34122628D02*
X130264113Y-35622628D01*
X130549827Y-34122628D02*
X131406970Y-34122628D01*
X130978398Y-35622628D02*
X130978398Y-34122628D01*
X132406969Y-34836914D02*
X131906969Y-34836914D01*
X131906969Y-35622628D02*
X131906969Y-34122628D01*
X131906969Y-34122628D02*
X132621255Y-34122628D01*
X133478398Y-34122628D02*
X133764112Y-34122628D01*
X133764112Y-34122628D02*
X133906969Y-34194057D01*
X133906969Y-34194057D02*
X134049826Y-34336914D01*
X134049826Y-34336914D02*
X134121255Y-34622628D01*
X134121255Y-34622628D02*
X134121255Y-35122628D01*
X134121255Y-35122628D02*
X134049826Y-35408342D01*
X134049826Y-35408342D02*
X133906969Y-35551200D01*
X133906969Y-35551200D02*
X133764112Y-35622628D01*
X133764112Y-35622628D02*
X133478398Y-35622628D01*
X133478398Y-35622628D02*
X133335541Y-35551200D01*
X133335541Y-35551200D02*
X133192683Y-35408342D01*
X133192683Y-35408342D02*
X133121255Y-35122628D01*
X133121255Y-35122628D02*
X133121255Y-34622628D01*
X133121255Y-34622628D02*
X133192683Y-34336914D01*
X133192683Y-34336914D02*
X133335541Y-34194057D01*
X133335541Y-34194057D02*
X133478398Y-34122628D01*
X135621255Y-35622628D02*
X135121255Y-34908342D01*
X134764112Y-35622628D02*
X134764112Y-34122628D01*
X134764112Y-34122628D02*
X135335541Y-34122628D01*
X135335541Y-34122628D02*
X135478398Y-34194057D01*
X135478398Y-34194057D02*
X135549827Y-34265485D01*
X135549827Y-34265485D02*
X135621255Y-34408342D01*
X135621255Y-34408342D02*
X135621255Y-34622628D01*
X135621255Y-34622628D02*
X135549827Y-34765485D01*
X135549827Y-34765485D02*
X135478398Y-34836914D01*
X135478398Y-34836914D02*
X135335541Y-34908342D01*
X135335541Y-34908342D02*
X134764112Y-34908342D01*
X136264112Y-35622628D02*
X136264112Y-34122628D01*
X136264112Y-34122628D02*
X136764112Y-35194057D01*
X136764112Y-35194057D02*
X137264112Y-34122628D01*
X137264112Y-34122628D02*
X137264112Y-35622628D01*
X138978398Y-34622628D02*
X139335541Y-35622628D01*
X139335541Y-35622628D02*
X139692684Y-34622628D01*
X141049827Y-35622628D02*
X140192684Y-35622628D01*
X140621255Y-35622628D02*
X140621255Y-34122628D01*
X140621255Y-34122628D02*
X140478398Y-34336914D01*
X140478398Y-34336914D02*
X140335541Y-34479771D01*
X140335541Y-34479771D02*
X140192684Y-34551200D01*
X141692683Y-35479771D02*
X141764112Y-35551200D01*
X141764112Y-35551200D02*
X141692683Y-35622628D01*
X141692683Y-35622628D02*
X141621255Y-35551200D01*
X141621255Y-35551200D02*
X141692683Y-35479771D01*
X141692683Y-35479771D02*
X141692683Y-35622628D01*
X142335541Y-34265485D02*
X142406969Y-34194057D01*
X142406969Y-34194057D02*
X142549827Y-34122628D01*
X142549827Y-34122628D02*
X142906969Y-34122628D01*
X142906969Y-34122628D02*
X143049827Y-34194057D01*
X143049827Y-34194057D02*
X143121255Y-34265485D01*
X143121255Y-34265485D02*
X143192684Y-34408342D01*
X143192684Y-34408342D02*
X143192684Y-34551200D01*
X143192684Y-34551200D02*
X143121255Y-34765485D01*
X143121255Y-34765485D02*
X142264112Y-35622628D01*
X142264112Y-35622628D02*
X143192684Y-35622628D01*
X86442779Y-49272866D02*
X87204684Y-49272866D01*
X86823731Y-49653819D02*
X86823731Y-48891914D01*
X87585636Y-48987152D02*
X87823731Y-49653819D01*
X87823731Y-49653819D02*
X88061826Y-48987152D01*
X85982180Y-43008779D02*
X86648847Y-43008779D01*
X86553609Y-43008779D02*
X86601228Y-43056398D01*
X86601228Y-43056398D02*
X86648847Y-43151636D01*
X86648847Y-43151636D02*
X86648847Y-43294493D01*
X86648847Y-43294493D02*
X86601228Y-43389731D01*
X86601228Y-43389731D02*
X86505990Y-43437350D01*
X86505990Y-43437350D02*
X85982180Y-43437350D01*
X86505990Y-43437350D02*
X86601228Y-43484969D01*
X86601228Y-43484969D02*
X86648847Y-43580207D01*
X86648847Y-43580207D02*
X86648847Y-43723064D01*
X86648847Y-43723064D02*
X86601228Y-43818303D01*
X86601228Y-43818303D02*
X86505990Y-43865922D01*
X86505990Y-43865922D02*
X85982180Y-43865922D01*
X85982180Y-44484969D02*
X86029800Y-44389731D01*
X86029800Y-44389731D02*
X86077419Y-44342112D01*
X86077419Y-44342112D02*
X86172657Y-44294493D01*
X86172657Y-44294493D02*
X86458371Y-44294493D01*
X86458371Y-44294493D02*
X86553609Y-44342112D01*
X86553609Y-44342112D02*
X86601228Y-44389731D01*
X86601228Y-44389731D02*
X86648847Y-44484969D01*
X86648847Y-44484969D02*
X86648847Y-44627826D01*
X86648847Y-44627826D02*
X86601228Y-44723064D01*
X86601228Y-44723064D02*
X86553609Y-44770683D01*
X86553609Y-44770683D02*
X86458371Y-44818302D01*
X86458371Y-44818302D02*
X86172657Y-44818302D01*
X86172657Y-44818302D02*
X86077419Y-44770683D01*
X86077419Y-44770683D02*
X86029800Y-44723064D01*
X86029800Y-44723064D02*
X85982180Y-44627826D01*
X85982180Y-44627826D02*
X85982180Y-44484969D01*
X86029800Y-45199255D02*
X85982180Y-45294493D01*
X85982180Y-45294493D02*
X85982180Y-45484969D01*
X85982180Y-45484969D02*
X86029800Y-45580207D01*
X86029800Y-45580207D02*
X86125038Y-45627826D01*
X86125038Y-45627826D02*
X86172657Y-45627826D01*
X86172657Y-45627826D02*
X86267895Y-45580207D01*
X86267895Y-45580207D02*
X86315514Y-45484969D01*
X86315514Y-45484969D02*
X86315514Y-45342112D01*
X86315514Y-45342112D02*
X86363133Y-45246874D01*
X86363133Y-45246874D02*
X86458371Y-45199255D01*
X86458371Y-45199255D02*
X86505990Y-45199255D01*
X86505990Y-45199255D02*
X86601228Y-45246874D01*
X86601228Y-45246874D02*
X86648847Y-45342112D01*
X86648847Y-45342112D02*
X86648847Y-45484969D01*
X86648847Y-45484969D02*
X86601228Y-45580207D01*
X85982180Y-46056398D02*
X86648847Y-46056398D01*
X86982180Y-46056398D02*
X86934561Y-46008779D01*
X86934561Y-46008779D02*
X86886942Y-46056398D01*
X86886942Y-46056398D02*
X86934561Y-46104017D01*
X86934561Y-46104017D02*
X86982180Y-46056398D01*
X86982180Y-46056398D02*
X86886942Y-46056398D01*
X91522779Y-49653819D02*
X91522779Y-48987152D01*
X91522779Y-49082390D02*
X91570398Y-49034771D01*
X91570398Y-49034771D02*
X91665636Y-48987152D01*
X91665636Y-48987152D02*
X91808493Y-48987152D01*
X91808493Y-48987152D02*
X91903731Y-49034771D01*
X91903731Y-49034771D02*
X91951350Y-49130009D01*
X91951350Y-49130009D02*
X91951350Y-49653819D01*
X91951350Y-49130009D02*
X91998969Y-49034771D01*
X91998969Y-49034771D02*
X92094207Y-48987152D01*
X92094207Y-48987152D02*
X92237064Y-48987152D01*
X92237064Y-48987152D02*
X92332303Y-49034771D01*
X92332303Y-49034771D02*
X92379922Y-49130009D01*
X92379922Y-49130009D02*
X92379922Y-49653819D01*
X92856112Y-49653819D02*
X92856112Y-48987152D01*
X92856112Y-48653819D02*
X92808493Y-48701438D01*
X92808493Y-48701438D02*
X92856112Y-48749057D01*
X92856112Y-48749057D02*
X92903731Y-48701438D01*
X92903731Y-48701438D02*
X92856112Y-48653819D01*
X92856112Y-48653819D02*
X92856112Y-48749057D01*
X93284683Y-49606200D02*
X93379921Y-49653819D01*
X93379921Y-49653819D02*
X93570397Y-49653819D01*
X93570397Y-49653819D02*
X93665635Y-49606200D01*
X93665635Y-49606200D02*
X93713254Y-49510961D01*
X93713254Y-49510961D02*
X93713254Y-49463342D01*
X93713254Y-49463342D02*
X93665635Y-49368104D01*
X93665635Y-49368104D02*
X93570397Y-49320485D01*
X93570397Y-49320485D02*
X93427540Y-49320485D01*
X93427540Y-49320485D02*
X93332302Y-49272866D01*
X93332302Y-49272866D02*
X93284683Y-49177628D01*
X93284683Y-49177628D02*
X93284683Y-49130009D01*
X93284683Y-49130009D02*
X93332302Y-49034771D01*
X93332302Y-49034771D02*
X93427540Y-48987152D01*
X93427540Y-48987152D02*
X93570397Y-48987152D01*
X93570397Y-48987152D02*
X93665635Y-49034771D01*
X94284683Y-49653819D02*
X94189445Y-49606200D01*
X94189445Y-49606200D02*
X94141826Y-49558580D01*
X94141826Y-49558580D02*
X94094207Y-49463342D01*
X94094207Y-49463342D02*
X94094207Y-49177628D01*
X94094207Y-49177628D02*
X94141826Y-49082390D01*
X94141826Y-49082390D02*
X94189445Y-49034771D01*
X94189445Y-49034771D02*
X94284683Y-48987152D01*
X94284683Y-48987152D02*
X94427540Y-48987152D01*
X94427540Y-48987152D02*
X94522778Y-49034771D01*
X94522778Y-49034771D02*
X94570397Y-49082390D01*
X94570397Y-49082390D02*
X94618016Y-49177628D01*
X94618016Y-49177628D02*
X94618016Y-49463342D01*
X94618016Y-49463342D02*
X94570397Y-49558580D01*
X94570397Y-49558580D02*
X94522778Y-49606200D01*
X94522778Y-49606200D02*
X94427540Y-49653819D01*
X94427540Y-49653819D02*
X94284683Y-49653819D01*
X90506779Y-40001819D02*
X90506779Y-39335152D01*
X90506779Y-39525628D02*
X90554398Y-39430390D01*
X90554398Y-39430390D02*
X90602017Y-39382771D01*
X90602017Y-39382771D02*
X90697255Y-39335152D01*
X90697255Y-39335152D02*
X90792493Y-39335152D01*
X91078208Y-39954200D02*
X91173446Y-40001819D01*
X91173446Y-40001819D02*
X91363922Y-40001819D01*
X91363922Y-40001819D02*
X91459160Y-39954200D01*
X91459160Y-39954200D02*
X91506779Y-39858961D01*
X91506779Y-39858961D02*
X91506779Y-39811342D01*
X91506779Y-39811342D02*
X91459160Y-39716104D01*
X91459160Y-39716104D02*
X91363922Y-39668485D01*
X91363922Y-39668485D02*
X91221065Y-39668485D01*
X91221065Y-39668485D02*
X91125827Y-39620866D01*
X91125827Y-39620866D02*
X91078208Y-39525628D01*
X91078208Y-39525628D02*
X91078208Y-39478009D01*
X91078208Y-39478009D02*
X91125827Y-39382771D01*
X91125827Y-39382771D02*
X91221065Y-39335152D01*
X91221065Y-39335152D02*
X91363922Y-39335152D01*
X91363922Y-39335152D02*
X91459160Y-39382771D01*
X91792494Y-39335152D02*
X92173446Y-39335152D01*
X91935351Y-39001819D02*
X91935351Y-39858961D01*
X91935351Y-39858961D02*
X91982970Y-39954200D01*
X91982970Y-39954200D02*
X92078208Y-40001819D01*
X92078208Y-40001819D02*
X92173446Y-40001819D01*
X94056200Y-45176839D02*
X94103819Y-45081601D01*
X94103819Y-45081601D02*
X94103819Y-44891125D01*
X94103819Y-44891125D02*
X94056200Y-44795887D01*
X94056200Y-44795887D02*
X93960961Y-44748268D01*
X93960961Y-44748268D02*
X93913342Y-44748268D01*
X93913342Y-44748268D02*
X93818104Y-44795887D01*
X93818104Y-44795887D02*
X93770485Y-44891125D01*
X93770485Y-44891125D02*
X93770485Y-45033982D01*
X93770485Y-45033982D02*
X93722866Y-45129220D01*
X93722866Y-45129220D02*
X93627628Y-45176839D01*
X93627628Y-45176839D02*
X93580009Y-45176839D01*
X93580009Y-45176839D02*
X93484771Y-45129220D01*
X93484771Y-45129220D02*
X93437152Y-45033982D01*
X93437152Y-45033982D02*
X93437152Y-44891125D01*
X93437152Y-44891125D02*
X93484771Y-44795887D01*
X94056200Y-43891125D02*
X94103819Y-43986363D01*
X94103819Y-43986363D02*
X94103819Y-44176839D01*
X94103819Y-44176839D02*
X94056200Y-44272077D01*
X94056200Y-44272077D02*
X94008580Y-44319696D01*
X94008580Y-44319696D02*
X93913342Y-44367315D01*
X93913342Y-44367315D02*
X93627628Y-44367315D01*
X93627628Y-44367315D02*
X93532390Y-44319696D01*
X93532390Y-44319696D02*
X93484771Y-44272077D01*
X93484771Y-44272077D02*
X93437152Y-44176839D01*
X93437152Y-44176839D02*
X93437152Y-43986363D01*
X93437152Y-43986363D02*
X93484771Y-43891125D01*
X94103819Y-43462553D02*
X93103819Y-43462553D01*
X93722866Y-43367315D02*
X94103819Y-43081601D01*
X93437152Y-43081601D02*
X93818104Y-43462553D01*
X90373467Y-82377200D02*
X90516324Y-82424819D01*
X90516324Y-82424819D02*
X90754419Y-82424819D01*
X90754419Y-82424819D02*
X90849657Y-82377200D01*
X90849657Y-82377200D02*
X90897276Y-82329580D01*
X90897276Y-82329580D02*
X90944895Y-82234342D01*
X90944895Y-82234342D02*
X90944895Y-82139104D01*
X90944895Y-82139104D02*
X90897276Y-82043866D01*
X90897276Y-82043866D02*
X90849657Y-81996247D01*
X90849657Y-81996247D02*
X90754419Y-81948628D01*
X90754419Y-81948628D02*
X90563943Y-81901009D01*
X90563943Y-81901009D02*
X90468705Y-81853390D01*
X90468705Y-81853390D02*
X90421086Y-81805771D01*
X90421086Y-81805771D02*
X90373467Y-81710533D01*
X90373467Y-81710533D02*
X90373467Y-81615295D01*
X90373467Y-81615295D02*
X90421086Y-81520057D01*
X90421086Y-81520057D02*
X90468705Y-81472438D01*
X90468705Y-81472438D02*
X90563943Y-81424819D01*
X90563943Y-81424819D02*
X90802038Y-81424819D01*
X90802038Y-81424819D02*
X90944895Y-81472438D01*
X91278229Y-81424819D02*
X91516324Y-82424819D01*
X91516324Y-82424819D02*
X91706800Y-81710533D01*
X91706800Y-81710533D02*
X91897276Y-82424819D01*
X91897276Y-82424819D02*
X92135372Y-81424819D01*
X93040133Y-82424819D02*
X92468705Y-82424819D01*
X92754419Y-82424819D02*
X92754419Y-81424819D01*
X92754419Y-81424819D02*
X92659181Y-81567676D01*
X92659181Y-81567676D02*
X92563943Y-81662914D01*
X92563943Y-81662914D02*
X92468705Y-81710533D01*
X43100666Y-75400819D02*
X43100666Y-76115104D01*
X43100666Y-76115104D02*
X43053047Y-76257961D01*
X43053047Y-76257961D02*
X42957809Y-76353200D01*
X42957809Y-76353200D02*
X42814952Y-76400819D01*
X42814952Y-76400819D02*
X42719714Y-76400819D01*
X44053047Y-75400819D02*
X43576857Y-75400819D01*
X43576857Y-75400819D02*
X43529238Y-75877009D01*
X43529238Y-75877009D02*
X43576857Y-75829390D01*
X43576857Y-75829390D02*
X43672095Y-75781771D01*
X43672095Y-75781771D02*
X43910190Y-75781771D01*
X43910190Y-75781771D02*
X44005428Y-75829390D01*
X44005428Y-75829390D02*
X44053047Y-75877009D01*
X44053047Y-75877009D02*
X44100666Y-75972247D01*
X44100666Y-75972247D02*
X44100666Y-76210342D01*
X44100666Y-76210342D02*
X44053047Y-76305580D01*
X44053047Y-76305580D02*
X44005428Y-76353200D01*
X44005428Y-76353200D02*
X43910190Y-76400819D01*
X43910190Y-76400819D02*
X43672095Y-76400819D01*
X43672095Y-76400819D02*
X43576857Y-76353200D01*
X43576857Y-76353200D02*
X43529238Y-76305580D01*
X131222761Y-59732057D02*
X131127523Y-59684438D01*
X131127523Y-59684438D02*
X131032285Y-59589200D01*
X131032285Y-59589200D02*
X130889428Y-59446342D01*
X130889428Y-59446342D02*
X130794190Y-59398723D01*
X130794190Y-59398723D02*
X130698952Y-59398723D01*
X130746571Y-59636819D02*
X130651333Y-59589200D01*
X130651333Y-59589200D02*
X130556095Y-59493961D01*
X130556095Y-59493961D02*
X130508476Y-59303485D01*
X130508476Y-59303485D02*
X130508476Y-58970152D01*
X130508476Y-58970152D02*
X130556095Y-58779676D01*
X130556095Y-58779676D02*
X130651333Y-58684438D01*
X130651333Y-58684438D02*
X130746571Y-58636819D01*
X130746571Y-58636819D02*
X130937047Y-58636819D01*
X130937047Y-58636819D02*
X131032285Y-58684438D01*
X131032285Y-58684438D02*
X131127523Y-58779676D01*
X131127523Y-58779676D02*
X131175142Y-58970152D01*
X131175142Y-58970152D02*
X131175142Y-59303485D01*
X131175142Y-59303485D02*
X131127523Y-59493961D01*
X131127523Y-59493961D02*
X131032285Y-59589200D01*
X131032285Y-59589200D02*
X130937047Y-59636819D01*
X130937047Y-59636819D02*
X130746571Y-59636819D01*
X132127523Y-59636819D02*
X131556095Y-59636819D01*
X131841809Y-59636819D02*
X131841809Y-58636819D01*
X131841809Y-58636819D02*
X131746571Y-58779676D01*
X131746571Y-58779676D02*
X131651333Y-58874914D01*
X131651333Y-58874914D02*
X131556095Y-58922533D01*
X134361142Y-66724819D02*
X134027809Y-66248628D01*
X133789714Y-66724819D02*
X133789714Y-65724819D01*
X133789714Y-65724819D02*
X134170666Y-65724819D01*
X134170666Y-65724819D02*
X134265904Y-65772438D01*
X134265904Y-65772438D02*
X134313523Y-65820057D01*
X134313523Y-65820057D02*
X134361142Y-65915295D01*
X134361142Y-65915295D02*
X134361142Y-66058152D01*
X134361142Y-66058152D02*
X134313523Y-66153390D01*
X134313523Y-66153390D02*
X134265904Y-66201009D01*
X134265904Y-66201009D02*
X134170666Y-66248628D01*
X134170666Y-66248628D02*
X133789714Y-66248628D01*
X134694476Y-65724819D02*
X135313523Y-65724819D01*
X135313523Y-65724819D02*
X134980190Y-66105771D01*
X134980190Y-66105771D02*
X135123047Y-66105771D01*
X135123047Y-66105771D02*
X135218285Y-66153390D01*
X135218285Y-66153390D02*
X135265904Y-66201009D01*
X135265904Y-66201009D02*
X135313523Y-66296247D01*
X135313523Y-66296247D02*
X135313523Y-66534342D01*
X135313523Y-66534342D02*
X135265904Y-66629580D01*
X135265904Y-66629580D02*
X135218285Y-66677200D01*
X135218285Y-66677200D02*
X135123047Y-66724819D01*
X135123047Y-66724819D02*
X134837333Y-66724819D01*
X134837333Y-66724819D02*
X134742095Y-66677200D01*
X134742095Y-66677200D02*
X134694476Y-66629580D01*
X135646857Y-65724819D02*
X136313523Y-65724819D01*
X136313523Y-65724819D02*
X135884952Y-66724819D01*
X136811819Y-46362857D02*
X136335628Y-46696190D01*
X136811819Y-46934285D02*
X135811819Y-46934285D01*
X135811819Y-46934285D02*
X135811819Y-46553333D01*
X135811819Y-46553333D02*
X135859438Y-46458095D01*
X135859438Y-46458095D02*
X135907057Y-46410476D01*
X135907057Y-46410476D02*
X136002295Y-46362857D01*
X136002295Y-46362857D02*
X136145152Y-46362857D01*
X136145152Y-46362857D02*
X136240390Y-46410476D01*
X136240390Y-46410476D02*
X136288009Y-46458095D01*
X136288009Y-46458095D02*
X136335628Y-46553333D01*
X136335628Y-46553333D02*
X136335628Y-46934285D01*
X135907057Y-45981904D02*
X135859438Y-45934285D01*
X135859438Y-45934285D02*
X135811819Y-45839047D01*
X135811819Y-45839047D02*
X135811819Y-45600952D01*
X135811819Y-45600952D02*
X135859438Y-45505714D01*
X135859438Y-45505714D02*
X135907057Y-45458095D01*
X135907057Y-45458095D02*
X136002295Y-45410476D01*
X136002295Y-45410476D02*
X136097533Y-45410476D01*
X136097533Y-45410476D02*
X136240390Y-45458095D01*
X136240390Y-45458095D02*
X136811819Y-46029523D01*
X136811819Y-46029523D02*
X136811819Y-45410476D01*
X135811819Y-44505714D02*
X135811819Y-44981904D01*
X135811819Y-44981904D02*
X136288009Y-45029523D01*
X136288009Y-45029523D02*
X136240390Y-44981904D01*
X136240390Y-44981904D02*
X136192771Y-44886666D01*
X136192771Y-44886666D02*
X136192771Y-44648571D01*
X136192771Y-44648571D02*
X136240390Y-44553333D01*
X136240390Y-44553333D02*
X136288009Y-44505714D01*
X136288009Y-44505714D02*
X136383247Y-44458095D01*
X136383247Y-44458095D02*
X136621342Y-44458095D01*
X136621342Y-44458095D02*
X136716580Y-44505714D01*
X136716580Y-44505714D02*
X136764200Y-44553333D01*
X136764200Y-44553333D02*
X136811819Y-44648571D01*
X136811819Y-44648571D02*
X136811819Y-44886666D01*
X136811819Y-44886666D02*
X136764200Y-44981904D01*
X136764200Y-44981904D02*
X136716580Y-45029523D01*
X154900819Y-51950857D02*
X154424628Y-52284190D01*
X154900819Y-52522285D02*
X153900819Y-52522285D01*
X153900819Y-52522285D02*
X153900819Y-52141333D01*
X153900819Y-52141333D02*
X153948438Y-52046095D01*
X153948438Y-52046095D02*
X153996057Y-51998476D01*
X153996057Y-51998476D02*
X154091295Y-51950857D01*
X154091295Y-51950857D02*
X154234152Y-51950857D01*
X154234152Y-51950857D02*
X154329390Y-51998476D01*
X154329390Y-51998476D02*
X154377009Y-52046095D01*
X154377009Y-52046095D02*
X154424628Y-52141333D01*
X154424628Y-52141333D02*
X154424628Y-52522285D01*
X154900819Y-50998476D02*
X154900819Y-51569904D01*
X154900819Y-51284190D02*
X153900819Y-51284190D01*
X153900819Y-51284190D02*
X154043676Y-51379428D01*
X154043676Y-51379428D02*
X154138914Y-51474666D01*
X154138914Y-51474666D02*
X154186533Y-51569904D01*
X153900819Y-50141333D02*
X153900819Y-50331809D01*
X153900819Y-50331809D02*
X153948438Y-50427047D01*
X153948438Y-50427047D02*
X153996057Y-50474666D01*
X153996057Y-50474666D02*
X154138914Y-50569904D01*
X154138914Y-50569904D02*
X154329390Y-50617523D01*
X154329390Y-50617523D02*
X154710342Y-50617523D01*
X154710342Y-50617523D02*
X154805580Y-50569904D01*
X154805580Y-50569904D02*
X154853200Y-50522285D01*
X154853200Y-50522285D02*
X154900819Y-50427047D01*
X154900819Y-50427047D02*
X154900819Y-50236571D01*
X154900819Y-50236571D02*
X154853200Y-50141333D01*
X154853200Y-50141333D02*
X154805580Y-50093714D01*
X154805580Y-50093714D02*
X154710342Y-50046095D01*
X154710342Y-50046095D02*
X154472247Y-50046095D01*
X154472247Y-50046095D02*
X154377009Y-50093714D01*
X154377009Y-50093714D02*
X154329390Y-50141333D01*
X154329390Y-50141333D02*
X154281771Y-50236571D01*
X154281771Y-50236571D02*
X154281771Y-50427047D01*
X154281771Y-50427047D02*
X154329390Y-50522285D01*
X154329390Y-50522285D02*
X154377009Y-50569904D01*
X154377009Y-50569904D02*
X154472247Y-50617523D01*
X97641580Y-61848666D02*
X97689200Y-61896285D01*
X97689200Y-61896285D02*
X97736819Y-62039142D01*
X97736819Y-62039142D02*
X97736819Y-62134380D01*
X97736819Y-62134380D02*
X97689200Y-62277237D01*
X97689200Y-62277237D02*
X97593961Y-62372475D01*
X97593961Y-62372475D02*
X97498723Y-62420094D01*
X97498723Y-62420094D02*
X97308247Y-62467713D01*
X97308247Y-62467713D02*
X97165390Y-62467713D01*
X97165390Y-62467713D02*
X96974914Y-62420094D01*
X96974914Y-62420094D02*
X96879676Y-62372475D01*
X96879676Y-62372475D02*
X96784438Y-62277237D01*
X96784438Y-62277237D02*
X96736819Y-62134380D01*
X96736819Y-62134380D02*
X96736819Y-62039142D01*
X96736819Y-62039142D02*
X96784438Y-61896285D01*
X96784438Y-61896285D02*
X96832057Y-61848666D01*
X96736819Y-61515332D02*
X96736819Y-60896285D01*
X96736819Y-60896285D02*
X97117771Y-61229618D01*
X97117771Y-61229618D02*
X97117771Y-61086761D01*
X97117771Y-61086761D02*
X97165390Y-60991523D01*
X97165390Y-60991523D02*
X97213009Y-60943904D01*
X97213009Y-60943904D02*
X97308247Y-60896285D01*
X97308247Y-60896285D02*
X97546342Y-60896285D01*
X97546342Y-60896285D02*
X97641580Y-60943904D01*
X97641580Y-60943904D02*
X97689200Y-60991523D01*
X97689200Y-60991523D02*
X97736819Y-61086761D01*
X97736819Y-61086761D02*
X97736819Y-61372475D01*
X97736819Y-61372475D02*
X97689200Y-61467713D01*
X97689200Y-61467713D02*
X97641580Y-61515332D01*
X63700819Y-64650857D02*
X63224628Y-64984190D01*
X63700819Y-65222285D02*
X62700819Y-65222285D01*
X62700819Y-65222285D02*
X62700819Y-64841333D01*
X62700819Y-64841333D02*
X62748438Y-64746095D01*
X62748438Y-64746095D02*
X62796057Y-64698476D01*
X62796057Y-64698476D02*
X62891295Y-64650857D01*
X62891295Y-64650857D02*
X63034152Y-64650857D01*
X63034152Y-64650857D02*
X63129390Y-64698476D01*
X63129390Y-64698476D02*
X63177009Y-64746095D01*
X63177009Y-64746095D02*
X63224628Y-64841333D01*
X63224628Y-64841333D02*
X63224628Y-65222285D01*
X62796057Y-64269904D02*
X62748438Y-64222285D01*
X62748438Y-64222285D02*
X62700819Y-64127047D01*
X62700819Y-64127047D02*
X62700819Y-63888952D01*
X62700819Y-63888952D02*
X62748438Y-63793714D01*
X62748438Y-63793714D02*
X62796057Y-63746095D01*
X62796057Y-63746095D02*
X62891295Y-63698476D01*
X62891295Y-63698476D02*
X62986533Y-63698476D01*
X62986533Y-63698476D02*
X63129390Y-63746095D01*
X63129390Y-63746095D02*
X63700819Y-64317523D01*
X63700819Y-64317523D02*
X63700819Y-63698476D01*
X62796057Y-63317523D02*
X62748438Y-63269904D01*
X62748438Y-63269904D02*
X62700819Y-63174666D01*
X62700819Y-63174666D02*
X62700819Y-62936571D01*
X62700819Y-62936571D02*
X62748438Y-62841333D01*
X62748438Y-62841333D02*
X62796057Y-62793714D01*
X62796057Y-62793714D02*
X62891295Y-62746095D01*
X62891295Y-62746095D02*
X62986533Y-62746095D01*
X62986533Y-62746095D02*
X63129390Y-62793714D01*
X63129390Y-62793714D02*
X63700819Y-63365142D01*
X63700819Y-63365142D02*
X63700819Y-62746095D01*
X66494819Y-104020857D02*
X66018628Y-104354190D01*
X66494819Y-104592285D02*
X65494819Y-104592285D01*
X65494819Y-104592285D02*
X65494819Y-104211333D01*
X65494819Y-104211333D02*
X65542438Y-104116095D01*
X65542438Y-104116095D02*
X65590057Y-104068476D01*
X65590057Y-104068476D02*
X65685295Y-104020857D01*
X65685295Y-104020857D02*
X65828152Y-104020857D01*
X65828152Y-104020857D02*
X65923390Y-104068476D01*
X65923390Y-104068476D02*
X65971009Y-104116095D01*
X65971009Y-104116095D02*
X66018628Y-104211333D01*
X66018628Y-104211333D02*
X66018628Y-104592285D01*
X66494819Y-103068476D02*
X66494819Y-103639904D01*
X66494819Y-103354190D02*
X65494819Y-103354190D01*
X65494819Y-103354190D02*
X65637676Y-103449428D01*
X65637676Y-103449428D02*
X65732914Y-103544666D01*
X65732914Y-103544666D02*
X65780533Y-103639904D01*
X66494819Y-102116095D02*
X66494819Y-102687523D01*
X66494819Y-102401809D02*
X65494819Y-102401809D01*
X65494819Y-102401809D02*
X65637676Y-102497047D01*
X65637676Y-102497047D02*
X65732914Y-102592285D01*
X65732914Y-102592285D02*
X65780533Y-102687523D01*
X87907905Y-96466819D02*
X87907905Y-95466819D01*
X87907905Y-95466819D02*
X88146000Y-95466819D01*
X88146000Y-95466819D02*
X88288857Y-95514438D01*
X88288857Y-95514438D02*
X88384095Y-95609676D01*
X88384095Y-95609676D02*
X88431714Y-95704914D01*
X88431714Y-95704914D02*
X88479333Y-95895390D01*
X88479333Y-95895390D02*
X88479333Y-96038247D01*
X88479333Y-96038247D02*
X88431714Y-96228723D01*
X88431714Y-96228723D02*
X88384095Y-96323961D01*
X88384095Y-96323961D02*
X88288857Y-96419200D01*
X88288857Y-96419200D02*
X88146000Y-96466819D01*
X88146000Y-96466819D02*
X87907905Y-96466819D01*
X89431714Y-96466819D02*
X88860286Y-96466819D01*
X89146000Y-96466819D02*
X89146000Y-95466819D01*
X89146000Y-95466819D02*
X89050762Y-95609676D01*
X89050762Y-95609676D02*
X88955524Y-95704914D01*
X88955524Y-95704914D02*
X88860286Y-95752533D01*
X133310819Y-46395857D02*
X132834628Y-46729190D01*
X133310819Y-46967285D02*
X132310819Y-46967285D01*
X132310819Y-46967285D02*
X132310819Y-46586333D01*
X132310819Y-46586333D02*
X132358438Y-46491095D01*
X132358438Y-46491095D02*
X132406057Y-46443476D01*
X132406057Y-46443476D02*
X132501295Y-46395857D01*
X132501295Y-46395857D02*
X132644152Y-46395857D01*
X132644152Y-46395857D02*
X132739390Y-46443476D01*
X132739390Y-46443476D02*
X132787009Y-46491095D01*
X132787009Y-46491095D02*
X132834628Y-46586333D01*
X132834628Y-46586333D02*
X132834628Y-46967285D01*
X133310819Y-45443476D02*
X133310819Y-46014904D01*
X133310819Y-45729190D02*
X132310819Y-45729190D01*
X132310819Y-45729190D02*
X132453676Y-45824428D01*
X132453676Y-45824428D02*
X132548914Y-45919666D01*
X132548914Y-45919666D02*
X132596533Y-46014904D01*
X132644152Y-44586333D02*
X133310819Y-44586333D01*
X132263200Y-44824428D02*
X132977485Y-45062523D01*
X132977485Y-45062523D02*
X132977485Y-44443476D01*
X144359333Y-69193580D02*
X144311714Y-69241200D01*
X144311714Y-69241200D02*
X144168857Y-69288819D01*
X144168857Y-69288819D02*
X144073619Y-69288819D01*
X144073619Y-69288819D02*
X143930762Y-69241200D01*
X143930762Y-69241200D02*
X143835524Y-69145961D01*
X143835524Y-69145961D02*
X143787905Y-69050723D01*
X143787905Y-69050723D02*
X143740286Y-68860247D01*
X143740286Y-68860247D02*
X143740286Y-68717390D01*
X143740286Y-68717390D02*
X143787905Y-68526914D01*
X143787905Y-68526914D02*
X143835524Y-68431676D01*
X143835524Y-68431676D02*
X143930762Y-68336438D01*
X143930762Y-68336438D02*
X144073619Y-68288819D01*
X144073619Y-68288819D02*
X144168857Y-68288819D01*
X144168857Y-68288819D02*
X144311714Y-68336438D01*
X144311714Y-68336438D02*
X144359333Y-68384057D01*
X145264095Y-68288819D02*
X144787905Y-68288819D01*
X144787905Y-68288819D02*
X144740286Y-68765009D01*
X144740286Y-68765009D02*
X144787905Y-68717390D01*
X144787905Y-68717390D02*
X144883143Y-68669771D01*
X144883143Y-68669771D02*
X145121238Y-68669771D01*
X145121238Y-68669771D02*
X145216476Y-68717390D01*
X145216476Y-68717390D02*
X145264095Y-68765009D01*
X145264095Y-68765009D02*
X145311714Y-68860247D01*
X145311714Y-68860247D02*
X145311714Y-69098342D01*
X145311714Y-69098342D02*
X145264095Y-69193580D01*
X145264095Y-69193580D02*
X145216476Y-69241200D01*
X145216476Y-69241200D02*
X145121238Y-69288819D01*
X145121238Y-69288819D02*
X144883143Y-69288819D01*
X144883143Y-69288819D02*
X144787905Y-69241200D01*
X144787905Y-69241200D02*
X144740286Y-69193580D01*
X110863142Y-71422419D02*
X110529809Y-70946228D01*
X110291714Y-71422419D02*
X110291714Y-70422419D01*
X110291714Y-70422419D02*
X110672666Y-70422419D01*
X110672666Y-70422419D02*
X110767904Y-70470038D01*
X110767904Y-70470038D02*
X110815523Y-70517657D01*
X110815523Y-70517657D02*
X110863142Y-70612895D01*
X110863142Y-70612895D02*
X110863142Y-70755752D01*
X110863142Y-70755752D02*
X110815523Y-70850990D01*
X110815523Y-70850990D02*
X110767904Y-70898609D01*
X110767904Y-70898609D02*
X110672666Y-70946228D01*
X110672666Y-70946228D02*
X110291714Y-70946228D01*
X111815523Y-71422419D02*
X111244095Y-71422419D01*
X111529809Y-71422419D02*
X111529809Y-70422419D01*
X111529809Y-70422419D02*
X111434571Y-70565276D01*
X111434571Y-70565276D02*
X111339333Y-70660514D01*
X111339333Y-70660514D02*
X111244095Y-70708133D01*
X112720285Y-70422419D02*
X112244095Y-70422419D01*
X112244095Y-70422419D02*
X112196476Y-70898609D01*
X112196476Y-70898609D02*
X112244095Y-70850990D01*
X112244095Y-70850990D02*
X112339333Y-70803371D01*
X112339333Y-70803371D02*
X112577428Y-70803371D01*
X112577428Y-70803371D02*
X112672666Y-70850990D01*
X112672666Y-70850990D02*
X112720285Y-70898609D01*
X112720285Y-70898609D02*
X112767904Y-70993847D01*
X112767904Y-70993847D02*
X112767904Y-71231942D01*
X112767904Y-71231942D02*
X112720285Y-71327180D01*
X112720285Y-71327180D02*
X112672666Y-71374800D01*
X112672666Y-71374800D02*
X112577428Y-71422419D01*
X112577428Y-71422419D02*
X112339333Y-71422419D01*
X112339333Y-71422419D02*
X112244095Y-71374800D01*
X112244095Y-71374800D02*
X112196476Y-71327180D01*
X134312819Y-103544666D02*
X133836628Y-103877999D01*
X134312819Y-104116094D02*
X133312819Y-104116094D01*
X133312819Y-104116094D02*
X133312819Y-103735142D01*
X133312819Y-103735142D02*
X133360438Y-103639904D01*
X133360438Y-103639904D02*
X133408057Y-103592285D01*
X133408057Y-103592285D02*
X133503295Y-103544666D01*
X133503295Y-103544666D02*
X133646152Y-103544666D01*
X133646152Y-103544666D02*
X133741390Y-103592285D01*
X133741390Y-103592285D02*
X133789009Y-103639904D01*
X133789009Y-103639904D02*
X133836628Y-103735142D01*
X133836628Y-103735142D02*
X133836628Y-104116094D01*
X133312819Y-103211332D02*
X133312819Y-102592285D01*
X133312819Y-102592285D02*
X133693771Y-102925618D01*
X133693771Y-102925618D02*
X133693771Y-102782761D01*
X133693771Y-102782761D02*
X133741390Y-102687523D01*
X133741390Y-102687523D02*
X133789009Y-102639904D01*
X133789009Y-102639904D02*
X133884247Y-102592285D01*
X133884247Y-102592285D02*
X134122342Y-102592285D01*
X134122342Y-102592285D02*
X134217580Y-102639904D01*
X134217580Y-102639904D02*
X134265200Y-102687523D01*
X134265200Y-102687523D02*
X134312819Y-102782761D01*
X134312819Y-102782761D02*
X134312819Y-103068475D01*
X134312819Y-103068475D02*
X134265200Y-103163713D01*
X134265200Y-103163713D02*
X134217580Y-103211332D01*
X78859142Y-42110819D02*
X78525809Y-41634628D01*
X78287714Y-42110819D02*
X78287714Y-41110819D01*
X78287714Y-41110819D02*
X78668666Y-41110819D01*
X78668666Y-41110819D02*
X78763904Y-41158438D01*
X78763904Y-41158438D02*
X78811523Y-41206057D01*
X78811523Y-41206057D02*
X78859142Y-41301295D01*
X78859142Y-41301295D02*
X78859142Y-41444152D01*
X78859142Y-41444152D02*
X78811523Y-41539390D01*
X78811523Y-41539390D02*
X78763904Y-41587009D01*
X78763904Y-41587009D02*
X78668666Y-41634628D01*
X78668666Y-41634628D02*
X78287714Y-41634628D01*
X79811523Y-42110819D02*
X79240095Y-42110819D01*
X79525809Y-42110819D02*
X79525809Y-41110819D01*
X79525809Y-41110819D02*
X79430571Y-41253676D01*
X79430571Y-41253676D02*
X79335333Y-41348914D01*
X79335333Y-41348914D02*
X79240095Y-41396533D01*
X80287714Y-42110819D02*
X80478190Y-42110819D01*
X80478190Y-42110819D02*
X80573428Y-42063200D01*
X80573428Y-42063200D02*
X80621047Y-42015580D01*
X80621047Y-42015580D02*
X80716285Y-41872723D01*
X80716285Y-41872723D02*
X80763904Y-41682247D01*
X80763904Y-41682247D02*
X80763904Y-41301295D01*
X80763904Y-41301295D02*
X80716285Y-41206057D01*
X80716285Y-41206057D02*
X80668666Y-41158438D01*
X80668666Y-41158438D02*
X80573428Y-41110819D01*
X80573428Y-41110819D02*
X80382952Y-41110819D01*
X80382952Y-41110819D02*
X80287714Y-41158438D01*
X80287714Y-41158438D02*
X80240095Y-41206057D01*
X80240095Y-41206057D02*
X80192476Y-41301295D01*
X80192476Y-41301295D02*
X80192476Y-41539390D01*
X80192476Y-41539390D02*
X80240095Y-41634628D01*
X80240095Y-41634628D02*
X80287714Y-41682247D01*
X80287714Y-41682247D02*
X80382952Y-41729866D01*
X80382952Y-41729866D02*
X80573428Y-41729866D01*
X80573428Y-41729866D02*
X80668666Y-41682247D01*
X80668666Y-41682247D02*
X80716285Y-41634628D01*
X80716285Y-41634628D02*
X80763904Y-41539390D01*
X87735580Y-55862457D02*
X87783200Y-55910076D01*
X87783200Y-55910076D02*
X87830819Y-56052933D01*
X87830819Y-56052933D02*
X87830819Y-56148171D01*
X87830819Y-56148171D02*
X87783200Y-56291028D01*
X87783200Y-56291028D02*
X87687961Y-56386266D01*
X87687961Y-56386266D02*
X87592723Y-56433885D01*
X87592723Y-56433885D02*
X87402247Y-56481504D01*
X87402247Y-56481504D02*
X87259390Y-56481504D01*
X87259390Y-56481504D02*
X87068914Y-56433885D01*
X87068914Y-56433885D02*
X86973676Y-56386266D01*
X86973676Y-56386266D02*
X86878438Y-56291028D01*
X86878438Y-56291028D02*
X86830819Y-56148171D01*
X86830819Y-56148171D02*
X86830819Y-56052933D01*
X86830819Y-56052933D02*
X86878438Y-55910076D01*
X86878438Y-55910076D02*
X86926057Y-55862457D01*
X87830819Y-54910076D02*
X87830819Y-55481504D01*
X87830819Y-55195790D02*
X86830819Y-55195790D01*
X86830819Y-55195790D02*
X86973676Y-55291028D01*
X86973676Y-55291028D02*
X87068914Y-55386266D01*
X87068914Y-55386266D02*
X87116533Y-55481504D01*
X86830819Y-54291028D02*
X86830819Y-54195790D01*
X86830819Y-54195790D02*
X86878438Y-54100552D01*
X86878438Y-54100552D02*
X86926057Y-54052933D01*
X86926057Y-54052933D02*
X87021295Y-54005314D01*
X87021295Y-54005314D02*
X87211771Y-53957695D01*
X87211771Y-53957695D02*
X87449866Y-53957695D01*
X87449866Y-53957695D02*
X87640342Y-54005314D01*
X87640342Y-54005314D02*
X87735580Y-54052933D01*
X87735580Y-54052933D02*
X87783200Y-54100552D01*
X87783200Y-54100552D02*
X87830819Y-54195790D01*
X87830819Y-54195790D02*
X87830819Y-54291028D01*
X87830819Y-54291028D02*
X87783200Y-54386266D01*
X87783200Y-54386266D02*
X87735580Y-54433885D01*
X87735580Y-54433885D02*
X87640342Y-54481504D01*
X87640342Y-54481504D02*
X87449866Y-54529123D01*
X87449866Y-54529123D02*
X87211771Y-54529123D01*
X87211771Y-54529123D02*
X87021295Y-54481504D01*
X87021295Y-54481504D02*
X86926057Y-54433885D01*
X86926057Y-54433885D02*
X86878438Y-54386266D01*
X86878438Y-54386266D02*
X86830819Y-54291028D01*
X69796819Y-104020857D02*
X69320628Y-104354190D01*
X69796819Y-104592285D02*
X68796819Y-104592285D01*
X68796819Y-104592285D02*
X68796819Y-104211333D01*
X68796819Y-104211333D02*
X68844438Y-104116095D01*
X68844438Y-104116095D02*
X68892057Y-104068476D01*
X68892057Y-104068476D02*
X68987295Y-104020857D01*
X68987295Y-104020857D02*
X69130152Y-104020857D01*
X69130152Y-104020857D02*
X69225390Y-104068476D01*
X69225390Y-104068476D02*
X69273009Y-104116095D01*
X69273009Y-104116095D02*
X69320628Y-104211333D01*
X69320628Y-104211333D02*
X69320628Y-104592285D01*
X69796819Y-103068476D02*
X69796819Y-103639904D01*
X69796819Y-103354190D02*
X68796819Y-103354190D01*
X68796819Y-103354190D02*
X68939676Y-103449428D01*
X68939676Y-103449428D02*
X69034914Y-103544666D01*
X69034914Y-103544666D02*
X69082533Y-103639904D01*
X68796819Y-102449428D02*
X68796819Y-102354190D01*
X68796819Y-102354190D02*
X68844438Y-102258952D01*
X68844438Y-102258952D02*
X68892057Y-102211333D01*
X68892057Y-102211333D02*
X68987295Y-102163714D01*
X68987295Y-102163714D02*
X69177771Y-102116095D01*
X69177771Y-102116095D02*
X69415866Y-102116095D01*
X69415866Y-102116095D02*
X69606342Y-102163714D01*
X69606342Y-102163714D02*
X69701580Y-102211333D01*
X69701580Y-102211333D02*
X69749200Y-102258952D01*
X69749200Y-102258952D02*
X69796819Y-102354190D01*
X69796819Y-102354190D02*
X69796819Y-102449428D01*
X69796819Y-102449428D02*
X69749200Y-102544666D01*
X69749200Y-102544666D02*
X69701580Y-102592285D01*
X69701580Y-102592285D02*
X69606342Y-102639904D01*
X69606342Y-102639904D02*
X69415866Y-102687523D01*
X69415866Y-102687523D02*
X69177771Y-102687523D01*
X69177771Y-102687523D02*
X68987295Y-102639904D01*
X68987295Y-102639904D02*
X68892057Y-102592285D01*
X68892057Y-102592285D02*
X68844438Y-102544666D01*
X68844438Y-102544666D02*
X68796819Y-102449428D01*
X114927142Y-38046819D02*
X114593809Y-37570628D01*
X114355714Y-38046819D02*
X114355714Y-37046819D01*
X114355714Y-37046819D02*
X114736666Y-37046819D01*
X114736666Y-37046819D02*
X114831904Y-37094438D01*
X114831904Y-37094438D02*
X114879523Y-37142057D01*
X114879523Y-37142057D02*
X114927142Y-37237295D01*
X114927142Y-37237295D02*
X114927142Y-37380152D01*
X114927142Y-37380152D02*
X114879523Y-37475390D01*
X114879523Y-37475390D02*
X114831904Y-37523009D01*
X114831904Y-37523009D02*
X114736666Y-37570628D01*
X114736666Y-37570628D02*
X114355714Y-37570628D01*
X115308095Y-37142057D02*
X115355714Y-37094438D01*
X115355714Y-37094438D02*
X115450952Y-37046819D01*
X115450952Y-37046819D02*
X115689047Y-37046819D01*
X115689047Y-37046819D02*
X115784285Y-37094438D01*
X115784285Y-37094438D02*
X115831904Y-37142057D01*
X115831904Y-37142057D02*
X115879523Y-37237295D01*
X115879523Y-37237295D02*
X115879523Y-37332533D01*
X115879523Y-37332533D02*
X115831904Y-37475390D01*
X115831904Y-37475390D02*
X115260476Y-38046819D01*
X115260476Y-38046819D02*
X115879523Y-38046819D01*
X116212857Y-37046819D02*
X116831904Y-37046819D01*
X116831904Y-37046819D02*
X116498571Y-37427771D01*
X116498571Y-37427771D02*
X116641428Y-37427771D01*
X116641428Y-37427771D02*
X116736666Y-37475390D01*
X116736666Y-37475390D02*
X116784285Y-37523009D01*
X116784285Y-37523009D02*
X116831904Y-37618247D01*
X116831904Y-37618247D02*
X116831904Y-37856342D01*
X116831904Y-37856342D02*
X116784285Y-37951580D01*
X116784285Y-37951580D02*
X116736666Y-37999200D01*
X116736666Y-37999200D02*
X116641428Y-38046819D01*
X116641428Y-38046819D02*
X116355714Y-38046819D01*
X116355714Y-38046819D02*
X116260476Y-37999200D01*
X116260476Y-37999200D02*
X116212857Y-37951580D01*
X48460819Y-51950857D02*
X47984628Y-52284190D01*
X48460819Y-52522285D02*
X47460819Y-52522285D01*
X47460819Y-52522285D02*
X47460819Y-52141333D01*
X47460819Y-52141333D02*
X47508438Y-52046095D01*
X47508438Y-52046095D02*
X47556057Y-51998476D01*
X47556057Y-51998476D02*
X47651295Y-51950857D01*
X47651295Y-51950857D02*
X47794152Y-51950857D01*
X47794152Y-51950857D02*
X47889390Y-51998476D01*
X47889390Y-51998476D02*
X47937009Y-52046095D01*
X47937009Y-52046095D02*
X47984628Y-52141333D01*
X47984628Y-52141333D02*
X47984628Y-52522285D01*
X48460819Y-50998476D02*
X48460819Y-51569904D01*
X48460819Y-51284190D02*
X47460819Y-51284190D01*
X47460819Y-51284190D02*
X47603676Y-51379428D01*
X47603676Y-51379428D02*
X47698914Y-51474666D01*
X47698914Y-51474666D02*
X47746533Y-51569904D01*
X47889390Y-50427047D02*
X47841771Y-50522285D01*
X47841771Y-50522285D02*
X47794152Y-50569904D01*
X47794152Y-50569904D02*
X47698914Y-50617523D01*
X47698914Y-50617523D02*
X47651295Y-50617523D01*
X47651295Y-50617523D02*
X47556057Y-50569904D01*
X47556057Y-50569904D02*
X47508438Y-50522285D01*
X47508438Y-50522285D02*
X47460819Y-50427047D01*
X47460819Y-50427047D02*
X47460819Y-50236571D01*
X47460819Y-50236571D02*
X47508438Y-50141333D01*
X47508438Y-50141333D02*
X47556057Y-50093714D01*
X47556057Y-50093714D02*
X47651295Y-50046095D01*
X47651295Y-50046095D02*
X47698914Y-50046095D01*
X47698914Y-50046095D02*
X47794152Y-50093714D01*
X47794152Y-50093714D02*
X47841771Y-50141333D01*
X47841771Y-50141333D02*
X47889390Y-50236571D01*
X47889390Y-50236571D02*
X47889390Y-50427047D01*
X47889390Y-50427047D02*
X47937009Y-50522285D01*
X47937009Y-50522285D02*
X47984628Y-50569904D01*
X47984628Y-50569904D02*
X48079866Y-50617523D01*
X48079866Y-50617523D02*
X48270342Y-50617523D01*
X48270342Y-50617523D02*
X48365580Y-50569904D01*
X48365580Y-50569904D02*
X48413200Y-50522285D01*
X48413200Y-50522285D02*
X48460819Y-50427047D01*
X48460819Y-50427047D02*
X48460819Y-50236571D01*
X48460819Y-50236571D02*
X48413200Y-50141333D01*
X48413200Y-50141333D02*
X48365580Y-50093714D01*
X48365580Y-50093714D02*
X48270342Y-50046095D01*
X48270342Y-50046095D02*
X48079866Y-50046095D01*
X48079866Y-50046095D02*
X47984628Y-50093714D01*
X47984628Y-50093714D02*
X47937009Y-50141333D01*
X47937009Y-50141333D02*
X47889390Y-50236571D01*
X86701333Y-75289580D02*
X86653714Y-75337200D01*
X86653714Y-75337200D02*
X86510857Y-75384819D01*
X86510857Y-75384819D02*
X86415619Y-75384819D01*
X86415619Y-75384819D02*
X86272762Y-75337200D01*
X86272762Y-75337200D02*
X86177524Y-75241961D01*
X86177524Y-75241961D02*
X86129905Y-75146723D01*
X86129905Y-75146723D02*
X86082286Y-74956247D01*
X86082286Y-74956247D02*
X86082286Y-74813390D01*
X86082286Y-74813390D02*
X86129905Y-74622914D01*
X86129905Y-74622914D02*
X86177524Y-74527676D01*
X86177524Y-74527676D02*
X86272762Y-74432438D01*
X86272762Y-74432438D02*
X86415619Y-74384819D01*
X86415619Y-74384819D02*
X86510857Y-74384819D01*
X86510857Y-74384819D02*
X86653714Y-74432438D01*
X86653714Y-74432438D02*
X86701333Y-74480057D01*
X87558476Y-74718152D02*
X87558476Y-75384819D01*
X87320381Y-74337200D02*
X87082286Y-75051485D01*
X87082286Y-75051485D02*
X87701333Y-75051485D01*
X137614819Y-103544666D02*
X137138628Y-103877999D01*
X137614819Y-104116094D02*
X136614819Y-104116094D01*
X136614819Y-104116094D02*
X136614819Y-103735142D01*
X136614819Y-103735142D02*
X136662438Y-103639904D01*
X136662438Y-103639904D02*
X136710057Y-103592285D01*
X136710057Y-103592285D02*
X136805295Y-103544666D01*
X136805295Y-103544666D02*
X136948152Y-103544666D01*
X136948152Y-103544666D02*
X137043390Y-103592285D01*
X137043390Y-103592285D02*
X137091009Y-103639904D01*
X137091009Y-103639904D02*
X137138628Y-103735142D01*
X137138628Y-103735142D02*
X137138628Y-104116094D01*
X136710057Y-103163713D02*
X136662438Y-103116094D01*
X136662438Y-103116094D02*
X136614819Y-103020856D01*
X136614819Y-103020856D02*
X136614819Y-102782761D01*
X136614819Y-102782761D02*
X136662438Y-102687523D01*
X136662438Y-102687523D02*
X136710057Y-102639904D01*
X136710057Y-102639904D02*
X136805295Y-102592285D01*
X136805295Y-102592285D02*
X136900533Y-102592285D01*
X136900533Y-102592285D02*
X137043390Y-102639904D01*
X137043390Y-102639904D02*
X137614819Y-103211332D01*
X137614819Y-103211332D02*
X137614819Y-102592285D01*
X56049942Y-70920780D02*
X56002323Y-70968400D01*
X56002323Y-70968400D02*
X55859466Y-71016019D01*
X55859466Y-71016019D02*
X55764228Y-71016019D01*
X55764228Y-71016019D02*
X55621371Y-70968400D01*
X55621371Y-70968400D02*
X55526133Y-70873161D01*
X55526133Y-70873161D02*
X55478514Y-70777923D01*
X55478514Y-70777923D02*
X55430895Y-70587447D01*
X55430895Y-70587447D02*
X55430895Y-70444590D01*
X55430895Y-70444590D02*
X55478514Y-70254114D01*
X55478514Y-70254114D02*
X55526133Y-70158876D01*
X55526133Y-70158876D02*
X55621371Y-70063638D01*
X55621371Y-70063638D02*
X55764228Y-70016019D01*
X55764228Y-70016019D02*
X55859466Y-70016019D01*
X55859466Y-70016019D02*
X56002323Y-70063638D01*
X56002323Y-70063638D02*
X56049942Y-70111257D01*
X57002323Y-71016019D02*
X56430895Y-71016019D01*
X56716609Y-71016019D02*
X56716609Y-70016019D01*
X56716609Y-70016019D02*
X56621371Y-70158876D01*
X56621371Y-70158876D02*
X56526133Y-70254114D01*
X56526133Y-70254114D02*
X56430895Y-70301733D01*
X57954704Y-71016019D02*
X57383276Y-71016019D01*
X57668990Y-71016019D02*
X57668990Y-70016019D01*
X57668990Y-70016019D02*
X57573752Y-70158876D01*
X57573752Y-70158876D02*
X57478514Y-70254114D01*
X57478514Y-70254114D02*
X57383276Y-70301733D01*
X96440666Y-41364819D02*
X96440666Y-42079104D01*
X96440666Y-42079104D02*
X96393047Y-42221961D01*
X96393047Y-42221961D02*
X96297809Y-42317200D01*
X96297809Y-42317200D02*
X96154952Y-42364819D01*
X96154952Y-42364819D02*
X96059714Y-42364819D01*
X97345428Y-41698152D02*
X97345428Y-42364819D01*
X97107333Y-41317200D02*
X96869238Y-42031485D01*
X96869238Y-42031485D02*
X97488285Y-42031485D01*
X63192819Y-104020857D02*
X62716628Y-104354190D01*
X63192819Y-104592285D02*
X62192819Y-104592285D01*
X62192819Y-104592285D02*
X62192819Y-104211333D01*
X62192819Y-104211333D02*
X62240438Y-104116095D01*
X62240438Y-104116095D02*
X62288057Y-104068476D01*
X62288057Y-104068476D02*
X62383295Y-104020857D01*
X62383295Y-104020857D02*
X62526152Y-104020857D01*
X62526152Y-104020857D02*
X62621390Y-104068476D01*
X62621390Y-104068476D02*
X62669009Y-104116095D01*
X62669009Y-104116095D02*
X62716628Y-104211333D01*
X62716628Y-104211333D02*
X62716628Y-104592285D01*
X63192819Y-103068476D02*
X63192819Y-103639904D01*
X63192819Y-103354190D02*
X62192819Y-103354190D01*
X62192819Y-103354190D02*
X62335676Y-103449428D01*
X62335676Y-103449428D02*
X62430914Y-103544666D01*
X62430914Y-103544666D02*
X62478533Y-103639904D01*
X62288057Y-102687523D02*
X62240438Y-102639904D01*
X62240438Y-102639904D02*
X62192819Y-102544666D01*
X62192819Y-102544666D02*
X62192819Y-102306571D01*
X62192819Y-102306571D02*
X62240438Y-102211333D01*
X62240438Y-102211333D02*
X62288057Y-102163714D01*
X62288057Y-102163714D02*
X62383295Y-102116095D01*
X62383295Y-102116095D02*
X62478533Y-102116095D01*
X62478533Y-102116095D02*
X62621390Y-102163714D01*
X62621390Y-102163714D02*
X63192819Y-102735142D01*
X63192819Y-102735142D02*
X63192819Y-102116095D01*
X121104819Y-104020857D02*
X120628628Y-104354190D01*
X121104819Y-104592285D02*
X120104819Y-104592285D01*
X120104819Y-104592285D02*
X120104819Y-104211333D01*
X120104819Y-104211333D02*
X120152438Y-104116095D01*
X120152438Y-104116095D02*
X120200057Y-104068476D01*
X120200057Y-104068476D02*
X120295295Y-104020857D01*
X120295295Y-104020857D02*
X120438152Y-104020857D01*
X120438152Y-104020857D02*
X120533390Y-104068476D01*
X120533390Y-104068476D02*
X120581009Y-104116095D01*
X120581009Y-104116095D02*
X120628628Y-104211333D01*
X120628628Y-104211333D02*
X120628628Y-104592285D01*
X120200057Y-103639904D02*
X120152438Y-103592285D01*
X120152438Y-103592285D02*
X120104819Y-103497047D01*
X120104819Y-103497047D02*
X120104819Y-103258952D01*
X120104819Y-103258952D02*
X120152438Y-103163714D01*
X120152438Y-103163714D02*
X120200057Y-103116095D01*
X120200057Y-103116095D02*
X120295295Y-103068476D01*
X120295295Y-103068476D02*
X120390533Y-103068476D01*
X120390533Y-103068476D02*
X120533390Y-103116095D01*
X120533390Y-103116095D02*
X121104819Y-103687523D01*
X121104819Y-103687523D02*
X121104819Y-103068476D01*
X121104819Y-102116095D02*
X121104819Y-102687523D01*
X121104819Y-102401809D02*
X120104819Y-102401809D01*
X120104819Y-102401809D02*
X120247676Y-102497047D01*
X120247676Y-102497047D02*
X120342914Y-102592285D01*
X120342914Y-102592285D02*
X120390533Y-102687523D01*
X115008819Y-46108857D02*
X114532628Y-46442190D01*
X115008819Y-46680285D02*
X114008819Y-46680285D01*
X114008819Y-46680285D02*
X114008819Y-46299333D01*
X114008819Y-46299333D02*
X114056438Y-46204095D01*
X114056438Y-46204095D02*
X114104057Y-46156476D01*
X114104057Y-46156476D02*
X114199295Y-46108857D01*
X114199295Y-46108857D02*
X114342152Y-46108857D01*
X114342152Y-46108857D02*
X114437390Y-46156476D01*
X114437390Y-46156476D02*
X114485009Y-46204095D01*
X114485009Y-46204095D02*
X114532628Y-46299333D01*
X114532628Y-46299333D02*
X114532628Y-46680285D01*
X115008819Y-45156476D02*
X115008819Y-45727904D01*
X115008819Y-45442190D02*
X114008819Y-45442190D01*
X114008819Y-45442190D02*
X114151676Y-45537428D01*
X114151676Y-45537428D02*
X114246914Y-45632666D01*
X114246914Y-45632666D02*
X114294533Y-45727904D01*
X114008819Y-44823142D02*
X114008819Y-44204095D01*
X114008819Y-44204095D02*
X114389771Y-44537428D01*
X114389771Y-44537428D02*
X114389771Y-44394571D01*
X114389771Y-44394571D02*
X114437390Y-44299333D01*
X114437390Y-44299333D02*
X114485009Y-44251714D01*
X114485009Y-44251714D02*
X114580247Y-44204095D01*
X114580247Y-44204095D02*
X114818342Y-44204095D01*
X114818342Y-44204095D02*
X114913580Y-44251714D01*
X114913580Y-44251714D02*
X114961200Y-44299333D01*
X114961200Y-44299333D02*
X115008819Y-44394571D01*
X115008819Y-44394571D02*
X115008819Y-44680285D01*
X115008819Y-44680285D02*
X114961200Y-44775523D01*
X114961200Y-44775523D02*
X114913580Y-44823142D01*
X110171467Y-82417200D02*
X110314324Y-82464819D01*
X110314324Y-82464819D02*
X110552419Y-82464819D01*
X110552419Y-82464819D02*
X110647657Y-82417200D01*
X110647657Y-82417200D02*
X110695276Y-82369580D01*
X110695276Y-82369580D02*
X110742895Y-82274342D01*
X110742895Y-82274342D02*
X110742895Y-82179104D01*
X110742895Y-82179104D02*
X110695276Y-82083866D01*
X110695276Y-82083866D02*
X110647657Y-82036247D01*
X110647657Y-82036247D02*
X110552419Y-81988628D01*
X110552419Y-81988628D02*
X110361943Y-81941009D01*
X110361943Y-81941009D02*
X110266705Y-81893390D01*
X110266705Y-81893390D02*
X110219086Y-81845771D01*
X110219086Y-81845771D02*
X110171467Y-81750533D01*
X110171467Y-81750533D02*
X110171467Y-81655295D01*
X110171467Y-81655295D02*
X110219086Y-81560057D01*
X110219086Y-81560057D02*
X110266705Y-81512438D01*
X110266705Y-81512438D02*
X110361943Y-81464819D01*
X110361943Y-81464819D02*
X110600038Y-81464819D01*
X110600038Y-81464819D02*
X110742895Y-81512438D01*
X111076229Y-81464819D02*
X111314324Y-82464819D01*
X111314324Y-82464819D02*
X111504800Y-81750533D01*
X111504800Y-81750533D02*
X111695276Y-82464819D01*
X111695276Y-82464819D02*
X111933372Y-81464819D01*
X112266705Y-81560057D02*
X112314324Y-81512438D01*
X112314324Y-81512438D02*
X112409562Y-81464819D01*
X112409562Y-81464819D02*
X112647657Y-81464819D01*
X112647657Y-81464819D02*
X112742895Y-81512438D01*
X112742895Y-81512438D02*
X112790514Y-81560057D01*
X112790514Y-81560057D02*
X112838133Y-81655295D01*
X112838133Y-81655295D02*
X112838133Y-81750533D01*
X112838133Y-81750533D02*
X112790514Y-81893390D01*
X112790514Y-81893390D02*
X112219086Y-82464819D01*
X112219086Y-82464819D02*
X112838133Y-82464819D01*
X43481695Y-71957219D02*
X44053123Y-71957219D01*
X43767409Y-72957219D02*
X43767409Y-71957219D01*
X44386457Y-72957219D02*
X44386457Y-71957219D01*
X44386457Y-71957219D02*
X44767409Y-71957219D01*
X44767409Y-71957219D02*
X44862647Y-72004838D01*
X44862647Y-72004838D02*
X44910266Y-72052457D01*
X44910266Y-72052457D02*
X44957885Y-72147695D01*
X44957885Y-72147695D02*
X44957885Y-72290552D01*
X44957885Y-72290552D02*
X44910266Y-72385790D01*
X44910266Y-72385790D02*
X44862647Y-72433409D01*
X44862647Y-72433409D02*
X44767409Y-72481028D01*
X44767409Y-72481028D02*
X44386457Y-72481028D01*
X45291219Y-71957219D02*
X45910266Y-71957219D01*
X45910266Y-71957219D02*
X45576933Y-72338171D01*
X45576933Y-72338171D02*
X45719790Y-72338171D01*
X45719790Y-72338171D02*
X45815028Y-72385790D01*
X45815028Y-72385790D02*
X45862647Y-72433409D01*
X45862647Y-72433409D02*
X45910266Y-72528647D01*
X45910266Y-72528647D02*
X45910266Y-72766742D01*
X45910266Y-72766742D02*
X45862647Y-72861980D01*
X45862647Y-72861980D02*
X45815028Y-72909600D01*
X45815028Y-72909600D02*
X45719790Y-72957219D01*
X45719790Y-72957219D02*
X45434076Y-72957219D01*
X45434076Y-72957219D02*
X45338838Y-72909600D01*
X45338838Y-72909600D02*
X45291219Y-72861980D01*
X51728761Y-45158819D02*
X51395428Y-44682628D01*
X51157333Y-45158819D02*
X51157333Y-44158819D01*
X51157333Y-44158819D02*
X51538285Y-44158819D01*
X51538285Y-44158819D02*
X51633523Y-44206438D01*
X51633523Y-44206438D02*
X51681142Y-44254057D01*
X51681142Y-44254057D02*
X51728761Y-44349295D01*
X51728761Y-44349295D02*
X51728761Y-44492152D01*
X51728761Y-44492152D02*
X51681142Y-44587390D01*
X51681142Y-44587390D02*
X51633523Y-44635009D01*
X51633523Y-44635009D02*
X51538285Y-44682628D01*
X51538285Y-44682628D02*
X51157333Y-44682628D01*
X52014476Y-44158819D02*
X52347809Y-45158819D01*
X52347809Y-45158819D02*
X52681142Y-44158819D01*
X53538285Y-45158819D02*
X52966857Y-45158819D01*
X53252571Y-45158819D02*
X53252571Y-44158819D01*
X53252571Y-44158819D02*
X53157333Y-44301676D01*
X53157333Y-44301676D02*
X53062095Y-44396914D01*
X53062095Y-44396914D02*
X52966857Y-44444533D01*
X124326819Y-103584666D02*
X123850628Y-103917999D01*
X124326819Y-104156094D02*
X123326819Y-104156094D01*
X123326819Y-104156094D02*
X123326819Y-103775142D01*
X123326819Y-103775142D02*
X123374438Y-103679904D01*
X123374438Y-103679904D02*
X123422057Y-103632285D01*
X123422057Y-103632285D02*
X123517295Y-103584666D01*
X123517295Y-103584666D02*
X123660152Y-103584666D01*
X123660152Y-103584666D02*
X123755390Y-103632285D01*
X123755390Y-103632285D02*
X123803009Y-103679904D01*
X123803009Y-103679904D02*
X123850628Y-103775142D01*
X123850628Y-103775142D02*
X123850628Y-104156094D01*
X123326819Y-102727523D02*
X123326819Y-102917999D01*
X123326819Y-102917999D02*
X123374438Y-103013237D01*
X123374438Y-103013237D02*
X123422057Y-103060856D01*
X123422057Y-103060856D02*
X123564914Y-103156094D01*
X123564914Y-103156094D02*
X123755390Y-103203713D01*
X123755390Y-103203713D02*
X124136342Y-103203713D01*
X124136342Y-103203713D02*
X124231580Y-103156094D01*
X124231580Y-103156094D02*
X124279200Y-103108475D01*
X124279200Y-103108475D02*
X124326819Y-103013237D01*
X124326819Y-103013237D02*
X124326819Y-102822761D01*
X124326819Y-102822761D02*
X124279200Y-102727523D01*
X124279200Y-102727523D02*
X124231580Y-102679904D01*
X124231580Y-102679904D02*
X124136342Y-102632285D01*
X124136342Y-102632285D02*
X123898247Y-102632285D01*
X123898247Y-102632285D02*
X123803009Y-102679904D01*
X123803009Y-102679904D02*
X123755390Y-102727523D01*
X123755390Y-102727523D02*
X123707771Y-102822761D01*
X123707771Y-102822761D02*
X123707771Y-103013237D01*
X123707771Y-103013237D02*
X123755390Y-103108475D01*
X123755390Y-103108475D02*
X123803009Y-103156094D01*
X123803009Y-103156094D02*
X123898247Y-103203713D01*
X90757580Y-62102666D02*
X90805200Y-62150285D01*
X90805200Y-62150285D02*
X90852819Y-62293142D01*
X90852819Y-62293142D02*
X90852819Y-62388380D01*
X90852819Y-62388380D02*
X90805200Y-62531237D01*
X90805200Y-62531237D02*
X90709961Y-62626475D01*
X90709961Y-62626475D02*
X90614723Y-62674094D01*
X90614723Y-62674094D02*
X90424247Y-62721713D01*
X90424247Y-62721713D02*
X90281390Y-62721713D01*
X90281390Y-62721713D02*
X90090914Y-62674094D01*
X90090914Y-62674094D02*
X89995676Y-62626475D01*
X89995676Y-62626475D02*
X89900438Y-62531237D01*
X89900438Y-62531237D02*
X89852819Y-62388380D01*
X89852819Y-62388380D02*
X89852819Y-62293142D01*
X89852819Y-62293142D02*
X89900438Y-62150285D01*
X89900438Y-62150285D02*
X89948057Y-62102666D01*
X89852819Y-61769332D02*
X89852819Y-61102666D01*
X89852819Y-61102666D02*
X90852819Y-61531237D01*
X159940666Y-74384819D02*
X159940666Y-75099104D01*
X159940666Y-75099104D02*
X159893047Y-75241961D01*
X159893047Y-75241961D02*
X159797809Y-75337200D01*
X159797809Y-75337200D02*
X159654952Y-75384819D01*
X159654952Y-75384819D02*
X159559714Y-75384819D01*
X160321619Y-74384819D02*
X160940666Y-74384819D01*
X160940666Y-74384819D02*
X160607333Y-74765771D01*
X160607333Y-74765771D02*
X160750190Y-74765771D01*
X160750190Y-74765771D02*
X160845428Y-74813390D01*
X160845428Y-74813390D02*
X160893047Y-74861009D01*
X160893047Y-74861009D02*
X160940666Y-74956247D01*
X160940666Y-74956247D02*
X160940666Y-75194342D01*
X160940666Y-75194342D02*
X160893047Y-75289580D01*
X160893047Y-75289580D02*
X160845428Y-75337200D01*
X160845428Y-75337200D02*
X160750190Y-75384819D01*
X160750190Y-75384819D02*
X160464476Y-75384819D01*
X160464476Y-75384819D02*
X160369238Y-75337200D01*
X160369238Y-75337200D02*
X160321619Y-75289580D01*
X50342895Y-68288819D02*
X50342895Y-69098342D01*
X50342895Y-69098342D02*
X50390514Y-69193580D01*
X50390514Y-69193580D02*
X50438133Y-69241200D01*
X50438133Y-69241200D02*
X50533371Y-69288819D01*
X50533371Y-69288819D02*
X50723847Y-69288819D01*
X50723847Y-69288819D02*
X50819085Y-69241200D01*
X50819085Y-69241200D02*
X50866704Y-69193580D01*
X50866704Y-69193580D02*
X50914323Y-69098342D01*
X50914323Y-69098342D02*
X50914323Y-68288819D01*
X51342895Y-68384057D02*
X51390514Y-68336438D01*
X51390514Y-68336438D02*
X51485752Y-68288819D01*
X51485752Y-68288819D02*
X51723847Y-68288819D01*
X51723847Y-68288819D02*
X51819085Y-68336438D01*
X51819085Y-68336438D02*
X51866704Y-68384057D01*
X51866704Y-68384057D02*
X51914323Y-68479295D01*
X51914323Y-68479295D02*
X51914323Y-68574533D01*
X51914323Y-68574533D02*
X51866704Y-68717390D01*
X51866704Y-68717390D02*
X51295276Y-69288819D01*
X51295276Y-69288819D02*
X51914323Y-69288819D01*
X70711695Y-56604819D02*
X70711695Y-57414342D01*
X70711695Y-57414342D02*
X70759314Y-57509580D01*
X70759314Y-57509580D02*
X70806933Y-57557200D01*
X70806933Y-57557200D02*
X70902171Y-57604819D01*
X70902171Y-57604819D02*
X71092647Y-57604819D01*
X71092647Y-57604819D02*
X71187885Y-57557200D01*
X71187885Y-57557200D02*
X71235504Y-57509580D01*
X71235504Y-57509580D02*
X71283123Y-57414342D01*
X71283123Y-57414342D02*
X71283123Y-56604819D01*
X71664076Y-56604819D02*
X72283123Y-56604819D01*
X72283123Y-56604819D02*
X71949790Y-56985771D01*
X71949790Y-56985771D02*
X72092647Y-56985771D01*
X72092647Y-56985771D02*
X72187885Y-57033390D01*
X72187885Y-57033390D02*
X72235504Y-57081009D01*
X72235504Y-57081009D02*
X72283123Y-57176247D01*
X72283123Y-57176247D02*
X72283123Y-57414342D01*
X72283123Y-57414342D02*
X72235504Y-57509580D01*
X72235504Y-57509580D02*
X72187885Y-57557200D01*
X72187885Y-57557200D02*
X72092647Y-57604819D01*
X72092647Y-57604819D02*
X71806933Y-57604819D01*
X71806933Y-57604819D02*
X71711695Y-57557200D01*
X71711695Y-57557200D02*
X71664076Y-57509580D01*
X138080761Y-57954057D02*
X137985523Y-57906438D01*
X137985523Y-57906438D02*
X137890285Y-57811200D01*
X137890285Y-57811200D02*
X137747428Y-57668342D01*
X137747428Y-57668342D02*
X137652190Y-57620723D01*
X137652190Y-57620723D02*
X137556952Y-57620723D01*
X137604571Y-57858819D02*
X137509333Y-57811200D01*
X137509333Y-57811200D02*
X137414095Y-57715961D01*
X137414095Y-57715961D02*
X137366476Y-57525485D01*
X137366476Y-57525485D02*
X137366476Y-57192152D01*
X137366476Y-57192152D02*
X137414095Y-57001676D01*
X137414095Y-57001676D02*
X137509333Y-56906438D01*
X137509333Y-56906438D02*
X137604571Y-56858819D01*
X137604571Y-56858819D02*
X137795047Y-56858819D01*
X137795047Y-56858819D02*
X137890285Y-56906438D01*
X137890285Y-56906438D02*
X137985523Y-57001676D01*
X137985523Y-57001676D02*
X138033142Y-57192152D01*
X138033142Y-57192152D02*
X138033142Y-57525485D01*
X138033142Y-57525485D02*
X137985523Y-57715961D01*
X137985523Y-57715961D02*
X137890285Y-57811200D01*
X137890285Y-57811200D02*
X137795047Y-57858819D01*
X137795047Y-57858819D02*
X137604571Y-57858819D01*
X138414095Y-56954057D02*
X138461714Y-56906438D01*
X138461714Y-56906438D02*
X138556952Y-56858819D01*
X138556952Y-56858819D02*
X138795047Y-56858819D01*
X138795047Y-56858819D02*
X138890285Y-56906438D01*
X138890285Y-56906438D02*
X138937904Y-56954057D01*
X138937904Y-56954057D02*
X138985523Y-57049295D01*
X138985523Y-57049295D02*
X138985523Y-57144533D01*
X138985523Y-57144533D02*
X138937904Y-57287390D01*
X138937904Y-57287390D02*
X138366476Y-57858819D01*
X138366476Y-57858819D02*
X138985523Y-57858819D01*
X64422495Y-70371619D02*
X64993923Y-70371619D01*
X64708209Y-71371619D02*
X64708209Y-70371619D01*
X65327257Y-71371619D02*
X65327257Y-70371619D01*
X65327257Y-70371619D02*
X65708209Y-70371619D01*
X65708209Y-70371619D02*
X65803447Y-70419238D01*
X65803447Y-70419238D02*
X65851066Y-70466857D01*
X65851066Y-70466857D02*
X65898685Y-70562095D01*
X65898685Y-70562095D02*
X65898685Y-70704952D01*
X65898685Y-70704952D02*
X65851066Y-70800190D01*
X65851066Y-70800190D02*
X65803447Y-70847809D01*
X65803447Y-70847809D02*
X65708209Y-70895428D01*
X65708209Y-70895428D02*
X65327257Y-70895428D01*
X66851066Y-71371619D02*
X66279638Y-71371619D01*
X66565352Y-71371619D02*
X66565352Y-70371619D01*
X66565352Y-70371619D02*
X66470114Y-70514476D01*
X66470114Y-70514476D02*
X66374876Y-70609714D01*
X66374876Y-70609714D02*
X66279638Y-70657333D01*
X73826761Y-45158819D02*
X73493428Y-44682628D01*
X73255333Y-45158819D02*
X73255333Y-44158819D01*
X73255333Y-44158819D02*
X73636285Y-44158819D01*
X73636285Y-44158819D02*
X73731523Y-44206438D01*
X73731523Y-44206438D02*
X73779142Y-44254057D01*
X73779142Y-44254057D02*
X73826761Y-44349295D01*
X73826761Y-44349295D02*
X73826761Y-44492152D01*
X73826761Y-44492152D02*
X73779142Y-44587390D01*
X73779142Y-44587390D02*
X73731523Y-44635009D01*
X73731523Y-44635009D02*
X73636285Y-44682628D01*
X73636285Y-44682628D02*
X73255333Y-44682628D01*
X74112476Y-44158819D02*
X74445809Y-45158819D01*
X74445809Y-45158819D02*
X74779142Y-44158819D01*
X75064857Y-44254057D02*
X75112476Y-44206438D01*
X75112476Y-44206438D02*
X75207714Y-44158819D01*
X75207714Y-44158819D02*
X75445809Y-44158819D01*
X75445809Y-44158819D02*
X75541047Y-44206438D01*
X75541047Y-44206438D02*
X75588666Y-44254057D01*
X75588666Y-44254057D02*
X75636285Y-44349295D01*
X75636285Y-44349295D02*
X75636285Y-44444533D01*
X75636285Y-44444533D02*
X75588666Y-44587390D01*
X75588666Y-44587390D02*
X75017238Y-45158819D01*
X75017238Y-45158819D02*
X75636285Y-45158819D01*
X118022761Y-45158819D02*
X117689428Y-44682628D01*
X117451333Y-45158819D02*
X117451333Y-44158819D01*
X117451333Y-44158819D02*
X117832285Y-44158819D01*
X117832285Y-44158819D02*
X117927523Y-44206438D01*
X117927523Y-44206438D02*
X117975142Y-44254057D01*
X117975142Y-44254057D02*
X118022761Y-44349295D01*
X118022761Y-44349295D02*
X118022761Y-44492152D01*
X118022761Y-44492152D02*
X117975142Y-44587390D01*
X117975142Y-44587390D02*
X117927523Y-44635009D01*
X117927523Y-44635009D02*
X117832285Y-44682628D01*
X117832285Y-44682628D02*
X117451333Y-44682628D01*
X118308476Y-44158819D02*
X118641809Y-45158819D01*
X118641809Y-45158819D02*
X118975142Y-44158819D01*
X119737047Y-44492152D02*
X119737047Y-45158819D01*
X119498952Y-44111200D02*
X119260857Y-44825485D01*
X119260857Y-44825485D02*
X119879904Y-44825485D01*
X131010819Y-103544666D02*
X130534628Y-103877999D01*
X131010819Y-104116094D02*
X130010819Y-104116094D01*
X130010819Y-104116094D02*
X130010819Y-103735142D01*
X130010819Y-103735142D02*
X130058438Y-103639904D01*
X130058438Y-103639904D02*
X130106057Y-103592285D01*
X130106057Y-103592285D02*
X130201295Y-103544666D01*
X130201295Y-103544666D02*
X130344152Y-103544666D01*
X130344152Y-103544666D02*
X130439390Y-103592285D01*
X130439390Y-103592285D02*
X130487009Y-103639904D01*
X130487009Y-103639904D02*
X130534628Y-103735142D01*
X130534628Y-103735142D02*
X130534628Y-104116094D01*
X130344152Y-102687523D02*
X131010819Y-102687523D01*
X129963200Y-102925618D02*
X130677485Y-103163713D01*
X130677485Y-103163713D02*
X130677485Y-102544666D01*
X89781142Y-37792819D02*
X89447809Y-37316628D01*
X89209714Y-37792819D02*
X89209714Y-36792819D01*
X89209714Y-36792819D02*
X89590666Y-36792819D01*
X89590666Y-36792819D02*
X89685904Y-36840438D01*
X89685904Y-36840438D02*
X89733523Y-36888057D01*
X89733523Y-36888057D02*
X89781142Y-36983295D01*
X89781142Y-36983295D02*
X89781142Y-37126152D01*
X89781142Y-37126152D02*
X89733523Y-37221390D01*
X89733523Y-37221390D02*
X89685904Y-37269009D01*
X89685904Y-37269009D02*
X89590666Y-37316628D01*
X89590666Y-37316628D02*
X89209714Y-37316628D01*
X90114476Y-36792819D02*
X90733523Y-36792819D01*
X90733523Y-36792819D02*
X90400190Y-37173771D01*
X90400190Y-37173771D02*
X90543047Y-37173771D01*
X90543047Y-37173771D02*
X90638285Y-37221390D01*
X90638285Y-37221390D02*
X90685904Y-37269009D01*
X90685904Y-37269009D02*
X90733523Y-37364247D01*
X90733523Y-37364247D02*
X90733523Y-37602342D01*
X90733523Y-37602342D02*
X90685904Y-37697580D01*
X90685904Y-37697580D02*
X90638285Y-37745200D01*
X90638285Y-37745200D02*
X90543047Y-37792819D01*
X90543047Y-37792819D02*
X90257333Y-37792819D01*
X90257333Y-37792819D02*
X90162095Y-37745200D01*
X90162095Y-37745200D02*
X90114476Y-37697580D01*
X91352571Y-36792819D02*
X91447809Y-36792819D01*
X91447809Y-36792819D02*
X91543047Y-36840438D01*
X91543047Y-36840438D02*
X91590666Y-36888057D01*
X91590666Y-36888057D02*
X91638285Y-36983295D01*
X91638285Y-36983295D02*
X91685904Y-37173771D01*
X91685904Y-37173771D02*
X91685904Y-37411866D01*
X91685904Y-37411866D02*
X91638285Y-37602342D01*
X91638285Y-37602342D02*
X91590666Y-37697580D01*
X91590666Y-37697580D02*
X91543047Y-37745200D01*
X91543047Y-37745200D02*
X91447809Y-37792819D01*
X91447809Y-37792819D02*
X91352571Y-37792819D01*
X91352571Y-37792819D02*
X91257333Y-37745200D01*
X91257333Y-37745200D02*
X91209714Y-37697580D01*
X91209714Y-37697580D02*
X91162095Y-37602342D01*
X91162095Y-37602342D02*
X91114476Y-37411866D01*
X91114476Y-37411866D02*
X91114476Y-37173771D01*
X91114476Y-37173771D02*
X91162095Y-36983295D01*
X91162095Y-36983295D02*
X91209714Y-36888057D01*
X91209714Y-36888057D02*
X91257333Y-36840438D01*
X91257333Y-36840438D02*
X91352571Y-36792819D01*
X79702819Y-103544666D02*
X79226628Y-103877999D01*
X79702819Y-104116094D02*
X78702819Y-104116094D01*
X78702819Y-104116094D02*
X78702819Y-103735142D01*
X78702819Y-103735142D02*
X78750438Y-103639904D01*
X78750438Y-103639904D02*
X78798057Y-103592285D01*
X78798057Y-103592285D02*
X78893295Y-103544666D01*
X78893295Y-103544666D02*
X79036152Y-103544666D01*
X79036152Y-103544666D02*
X79131390Y-103592285D01*
X79131390Y-103592285D02*
X79179009Y-103639904D01*
X79179009Y-103639904D02*
X79226628Y-103735142D01*
X79226628Y-103735142D02*
X79226628Y-104116094D01*
X78702819Y-103211332D02*
X78702819Y-102544666D01*
X78702819Y-102544666D02*
X79702819Y-102973237D01*
X127708819Y-103544666D02*
X127232628Y-103877999D01*
X127708819Y-104116094D02*
X126708819Y-104116094D01*
X126708819Y-104116094D02*
X126708819Y-103735142D01*
X126708819Y-103735142D02*
X126756438Y-103639904D01*
X126756438Y-103639904D02*
X126804057Y-103592285D01*
X126804057Y-103592285D02*
X126899295Y-103544666D01*
X126899295Y-103544666D02*
X127042152Y-103544666D01*
X127042152Y-103544666D02*
X127137390Y-103592285D01*
X127137390Y-103592285D02*
X127185009Y-103639904D01*
X127185009Y-103639904D02*
X127232628Y-103735142D01*
X127232628Y-103735142D02*
X127232628Y-104116094D01*
X126708819Y-102639904D02*
X126708819Y-103116094D01*
X126708819Y-103116094D02*
X127185009Y-103163713D01*
X127185009Y-103163713D02*
X127137390Y-103116094D01*
X127137390Y-103116094D02*
X127089771Y-103020856D01*
X127089771Y-103020856D02*
X127089771Y-102782761D01*
X127089771Y-102782761D02*
X127137390Y-102687523D01*
X127137390Y-102687523D02*
X127185009Y-102639904D01*
X127185009Y-102639904D02*
X127280247Y-102592285D01*
X127280247Y-102592285D02*
X127518342Y-102592285D01*
X127518342Y-102592285D02*
X127613580Y-102639904D01*
X127613580Y-102639904D02*
X127661200Y-102687523D01*
X127661200Y-102687523D02*
X127708819Y-102782761D01*
X127708819Y-102782761D02*
X127708819Y-103020856D01*
X127708819Y-103020856D02*
X127661200Y-103116094D01*
X127661200Y-103116094D02*
X127613580Y-103163713D01*
X140120761Y-45158819D02*
X139787428Y-44682628D01*
X139549333Y-45158819D02*
X139549333Y-44158819D01*
X139549333Y-44158819D02*
X139930285Y-44158819D01*
X139930285Y-44158819D02*
X140025523Y-44206438D01*
X140025523Y-44206438D02*
X140073142Y-44254057D01*
X140073142Y-44254057D02*
X140120761Y-44349295D01*
X140120761Y-44349295D02*
X140120761Y-44492152D01*
X140120761Y-44492152D02*
X140073142Y-44587390D01*
X140073142Y-44587390D02*
X140025523Y-44635009D01*
X140025523Y-44635009D02*
X139930285Y-44682628D01*
X139930285Y-44682628D02*
X139549333Y-44682628D01*
X140406476Y-44158819D02*
X140739809Y-45158819D01*
X140739809Y-45158819D02*
X141073142Y-44158819D01*
X141882666Y-44158819D02*
X141406476Y-44158819D01*
X141406476Y-44158819D02*
X141358857Y-44635009D01*
X141358857Y-44635009D02*
X141406476Y-44587390D01*
X141406476Y-44587390D02*
X141501714Y-44539771D01*
X141501714Y-44539771D02*
X141739809Y-44539771D01*
X141739809Y-44539771D02*
X141835047Y-44587390D01*
X141835047Y-44587390D02*
X141882666Y-44635009D01*
X141882666Y-44635009D02*
X141930285Y-44730247D01*
X141930285Y-44730247D02*
X141930285Y-44968342D01*
X141930285Y-44968342D02*
X141882666Y-45063580D01*
X141882666Y-45063580D02*
X141835047Y-45111200D01*
X141835047Y-45111200D02*
X141739809Y-45158819D01*
X141739809Y-45158819D02*
X141501714Y-45158819D01*
X141501714Y-45158819D02*
X141406476Y-45111200D01*
X141406476Y-45111200D02*
X141358857Y-45063580D01*
X45218819Y-51990857D02*
X44742628Y-52324190D01*
X45218819Y-52562285D02*
X44218819Y-52562285D01*
X44218819Y-52562285D02*
X44218819Y-52181333D01*
X44218819Y-52181333D02*
X44266438Y-52086095D01*
X44266438Y-52086095D02*
X44314057Y-52038476D01*
X44314057Y-52038476D02*
X44409295Y-51990857D01*
X44409295Y-51990857D02*
X44552152Y-51990857D01*
X44552152Y-51990857D02*
X44647390Y-52038476D01*
X44647390Y-52038476D02*
X44695009Y-52086095D01*
X44695009Y-52086095D02*
X44742628Y-52181333D01*
X44742628Y-52181333D02*
X44742628Y-52562285D01*
X44314057Y-51609904D02*
X44266438Y-51562285D01*
X44266438Y-51562285D02*
X44218819Y-51467047D01*
X44218819Y-51467047D02*
X44218819Y-51228952D01*
X44218819Y-51228952D02*
X44266438Y-51133714D01*
X44266438Y-51133714D02*
X44314057Y-51086095D01*
X44314057Y-51086095D02*
X44409295Y-51038476D01*
X44409295Y-51038476D02*
X44504533Y-51038476D01*
X44504533Y-51038476D02*
X44647390Y-51086095D01*
X44647390Y-51086095D02*
X45218819Y-51657523D01*
X45218819Y-51657523D02*
X45218819Y-51038476D01*
X45218819Y-50562285D02*
X45218819Y-50371809D01*
X45218819Y-50371809D02*
X45171200Y-50276571D01*
X45171200Y-50276571D02*
X45123580Y-50228952D01*
X45123580Y-50228952D02*
X44980723Y-50133714D01*
X44980723Y-50133714D02*
X44790247Y-50086095D01*
X44790247Y-50086095D02*
X44409295Y-50086095D01*
X44409295Y-50086095D02*
X44314057Y-50133714D01*
X44314057Y-50133714D02*
X44266438Y-50181333D01*
X44266438Y-50181333D02*
X44218819Y-50276571D01*
X44218819Y-50276571D02*
X44218819Y-50467047D01*
X44218819Y-50467047D02*
X44266438Y-50562285D01*
X44266438Y-50562285D02*
X44314057Y-50609904D01*
X44314057Y-50609904D02*
X44409295Y-50657523D01*
X44409295Y-50657523D02*
X44647390Y-50657523D01*
X44647390Y-50657523D02*
X44742628Y-50609904D01*
X44742628Y-50609904D02*
X44790247Y-50562285D01*
X44790247Y-50562285D02*
X44837866Y-50467047D01*
X44837866Y-50467047D02*
X44837866Y-50276571D01*
X44837866Y-50276571D02*
X44790247Y-50181333D01*
X44790247Y-50181333D02*
X44742628Y-50133714D01*
X44742628Y-50133714D02*
X44647390Y-50086095D01*
X140789819Y-103544666D02*
X140313628Y-103877999D01*
X140789819Y-104116094D02*
X139789819Y-104116094D01*
X139789819Y-104116094D02*
X139789819Y-103735142D01*
X139789819Y-103735142D02*
X139837438Y-103639904D01*
X139837438Y-103639904D02*
X139885057Y-103592285D01*
X139885057Y-103592285D02*
X139980295Y-103544666D01*
X139980295Y-103544666D02*
X140123152Y-103544666D01*
X140123152Y-103544666D02*
X140218390Y-103592285D01*
X140218390Y-103592285D02*
X140266009Y-103639904D01*
X140266009Y-103639904D02*
X140313628Y-103735142D01*
X140313628Y-103735142D02*
X140313628Y-104116094D01*
X140789819Y-102592285D02*
X140789819Y-103163713D01*
X140789819Y-102877999D02*
X139789819Y-102877999D01*
X139789819Y-102877999D02*
X139932676Y-102973237D01*
X139932676Y-102973237D02*
X140027914Y-103068475D01*
X140027914Y-103068475D02*
X140075533Y-103163713D01*
X67002819Y-64396857D02*
X66526628Y-64730190D01*
X67002819Y-64968285D02*
X66002819Y-64968285D01*
X66002819Y-64968285D02*
X66002819Y-64587333D01*
X66002819Y-64587333D02*
X66050438Y-64492095D01*
X66050438Y-64492095D02*
X66098057Y-64444476D01*
X66098057Y-64444476D02*
X66193295Y-64396857D01*
X66193295Y-64396857D02*
X66336152Y-64396857D01*
X66336152Y-64396857D02*
X66431390Y-64444476D01*
X66431390Y-64444476D02*
X66479009Y-64492095D01*
X66479009Y-64492095D02*
X66526628Y-64587333D01*
X66526628Y-64587333D02*
X66526628Y-64968285D01*
X66098057Y-64015904D02*
X66050438Y-63968285D01*
X66050438Y-63968285D02*
X66002819Y-63873047D01*
X66002819Y-63873047D02*
X66002819Y-63634952D01*
X66002819Y-63634952D02*
X66050438Y-63539714D01*
X66050438Y-63539714D02*
X66098057Y-63492095D01*
X66098057Y-63492095D02*
X66193295Y-63444476D01*
X66193295Y-63444476D02*
X66288533Y-63444476D01*
X66288533Y-63444476D02*
X66431390Y-63492095D01*
X66431390Y-63492095D02*
X67002819Y-64063523D01*
X67002819Y-64063523D02*
X67002819Y-63444476D01*
X66431390Y-62873047D02*
X66383771Y-62968285D01*
X66383771Y-62968285D02*
X66336152Y-63015904D01*
X66336152Y-63015904D02*
X66240914Y-63063523D01*
X66240914Y-63063523D02*
X66193295Y-63063523D01*
X66193295Y-63063523D02*
X66098057Y-63015904D01*
X66098057Y-63015904D02*
X66050438Y-62968285D01*
X66050438Y-62968285D02*
X66002819Y-62873047D01*
X66002819Y-62873047D02*
X66002819Y-62682571D01*
X66002819Y-62682571D02*
X66050438Y-62587333D01*
X66050438Y-62587333D02*
X66098057Y-62539714D01*
X66098057Y-62539714D02*
X66193295Y-62492095D01*
X66193295Y-62492095D02*
X66240914Y-62492095D01*
X66240914Y-62492095D02*
X66336152Y-62539714D01*
X66336152Y-62539714D02*
X66383771Y-62587333D01*
X66383771Y-62587333D02*
X66431390Y-62682571D01*
X66431390Y-62682571D02*
X66431390Y-62873047D01*
X66431390Y-62873047D02*
X66479009Y-62968285D01*
X66479009Y-62968285D02*
X66526628Y-63015904D01*
X66526628Y-63015904D02*
X66621866Y-63063523D01*
X66621866Y-63063523D02*
X66812342Y-63063523D01*
X66812342Y-63063523D02*
X66907580Y-63015904D01*
X66907580Y-63015904D02*
X66955200Y-62968285D01*
X66955200Y-62968285D02*
X67002819Y-62873047D01*
X67002819Y-62873047D02*
X67002819Y-62682571D01*
X67002819Y-62682571D02*
X66955200Y-62587333D01*
X66955200Y-62587333D02*
X66907580Y-62539714D01*
X66907580Y-62539714D02*
X66812342Y-62492095D01*
X66812342Y-62492095D02*
X66621866Y-62492095D01*
X66621866Y-62492095D02*
X66526628Y-62539714D01*
X66526628Y-62539714D02*
X66479009Y-62587333D01*
X66479009Y-62587333D02*
X66431390Y-62682571D01*
X59389180Y-77037866D02*
X59436800Y-77085485D01*
X59436800Y-77085485D02*
X59484419Y-77228342D01*
X59484419Y-77228342D02*
X59484419Y-77323580D01*
X59484419Y-77323580D02*
X59436800Y-77466437D01*
X59436800Y-77466437D02*
X59341561Y-77561675D01*
X59341561Y-77561675D02*
X59246323Y-77609294D01*
X59246323Y-77609294D02*
X59055847Y-77656913D01*
X59055847Y-77656913D02*
X58912990Y-77656913D01*
X58912990Y-77656913D02*
X58722514Y-77609294D01*
X58722514Y-77609294D02*
X58627276Y-77561675D01*
X58627276Y-77561675D02*
X58532038Y-77466437D01*
X58532038Y-77466437D02*
X58484419Y-77323580D01*
X58484419Y-77323580D02*
X58484419Y-77228342D01*
X58484419Y-77228342D02*
X58532038Y-77085485D01*
X58532038Y-77085485D02*
X58579657Y-77037866D01*
X59484419Y-76561675D02*
X59484419Y-76371199D01*
X59484419Y-76371199D02*
X59436800Y-76275961D01*
X59436800Y-76275961D02*
X59389180Y-76228342D01*
X59389180Y-76228342D02*
X59246323Y-76133104D01*
X59246323Y-76133104D02*
X59055847Y-76085485D01*
X59055847Y-76085485D02*
X58674895Y-76085485D01*
X58674895Y-76085485D02*
X58579657Y-76133104D01*
X58579657Y-76133104D02*
X58532038Y-76180723D01*
X58532038Y-76180723D02*
X58484419Y-76275961D01*
X58484419Y-76275961D02*
X58484419Y-76466437D01*
X58484419Y-76466437D02*
X58532038Y-76561675D01*
X58532038Y-76561675D02*
X58579657Y-76609294D01*
X58579657Y-76609294D02*
X58674895Y-76656913D01*
X58674895Y-76656913D02*
X58912990Y-76656913D01*
X58912990Y-76656913D02*
X59008228Y-76609294D01*
X59008228Y-76609294D02*
X59055847Y-76561675D01*
X59055847Y-76561675D02*
X59103466Y-76466437D01*
X59103466Y-76466437D02*
X59103466Y-76275961D01*
X59103466Y-76275961D02*
X59055847Y-76180723D01*
X59055847Y-76180723D02*
X59008228Y-76133104D01*
X59008228Y-76133104D02*
X58912990Y-76085485D01*
X76400819Y-103544666D02*
X75924628Y-103877999D01*
X76400819Y-104116094D02*
X75400819Y-104116094D01*
X75400819Y-104116094D02*
X75400819Y-103735142D01*
X75400819Y-103735142D02*
X75448438Y-103639904D01*
X75448438Y-103639904D02*
X75496057Y-103592285D01*
X75496057Y-103592285D02*
X75591295Y-103544666D01*
X75591295Y-103544666D02*
X75734152Y-103544666D01*
X75734152Y-103544666D02*
X75829390Y-103592285D01*
X75829390Y-103592285D02*
X75877009Y-103639904D01*
X75877009Y-103639904D02*
X75924628Y-103735142D01*
X75924628Y-103735142D02*
X75924628Y-104116094D01*
X75829390Y-102973237D02*
X75781771Y-103068475D01*
X75781771Y-103068475D02*
X75734152Y-103116094D01*
X75734152Y-103116094D02*
X75638914Y-103163713D01*
X75638914Y-103163713D02*
X75591295Y-103163713D01*
X75591295Y-103163713D02*
X75496057Y-103116094D01*
X75496057Y-103116094D02*
X75448438Y-103068475D01*
X75448438Y-103068475D02*
X75400819Y-102973237D01*
X75400819Y-102973237D02*
X75400819Y-102782761D01*
X75400819Y-102782761D02*
X75448438Y-102687523D01*
X75448438Y-102687523D02*
X75496057Y-102639904D01*
X75496057Y-102639904D02*
X75591295Y-102592285D01*
X75591295Y-102592285D02*
X75638914Y-102592285D01*
X75638914Y-102592285D02*
X75734152Y-102639904D01*
X75734152Y-102639904D02*
X75781771Y-102687523D01*
X75781771Y-102687523D02*
X75829390Y-102782761D01*
X75829390Y-102782761D02*
X75829390Y-102973237D01*
X75829390Y-102973237D02*
X75877009Y-103068475D01*
X75877009Y-103068475D02*
X75924628Y-103116094D01*
X75924628Y-103116094D02*
X76019866Y-103163713D01*
X76019866Y-103163713D02*
X76210342Y-103163713D01*
X76210342Y-103163713D02*
X76305580Y-103116094D01*
X76305580Y-103116094D02*
X76353200Y-103068475D01*
X76353200Y-103068475D02*
X76400819Y-102973237D01*
X76400819Y-102973237D02*
X76400819Y-102782761D01*
X76400819Y-102782761D02*
X76353200Y-102687523D01*
X76353200Y-102687523D02*
X76305580Y-102639904D01*
X76305580Y-102639904D02*
X76210342Y-102592285D01*
X76210342Y-102592285D02*
X76019866Y-102592285D01*
X76019866Y-102592285D02*
X75924628Y-102639904D01*
X75924628Y-102639904D02*
X75877009Y-102687523D01*
X75877009Y-102687523D02*
X75829390Y-102782761D01*
X113815905Y-96466819D02*
X113815905Y-95466819D01*
X113815905Y-95466819D02*
X114054000Y-95466819D01*
X114054000Y-95466819D02*
X114196857Y-95514438D01*
X114196857Y-95514438D02*
X114292095Y-95609676D01*
X114292095Y-95609676D02*
X114339714Y-95704914D01*
X114339714Y-95704914D02*
X114387333Y-95895390D01*
X114387333Y-95895390D02*
X114387333Y-96038247D01*
X114387333Y-96038247D02*
X114339714Y-96228723D01*
X114339714Y-96228723D02*
X114292095Y-96323961D01*
X114292095Y-96323961D02*
X114196857Y-96419200D01*
X114196857Y-96419200D02*
X114054000Y-96466819D01*
X114054000Y-96466819D02*
X113815905Y-96466819D01*
X114768286Y-95562057D02*
X114815905Y-95514438D01*
X114815905Y-95514438D02*
X114911143Y-95466819D01*
X114911143Y-95466819D02*
X115149238Y-95466819D01*
X115149238Y-95466819D02*
X115244476Y-95514438D01*
X115244476Y-95514438D02*
X115292095Y-95562057D01*
X115292095Y-95562057D02*
X115339714Y-95657295D01*
X115339714Y-95657295D02*
X115339714Y-95752533D01*
X115339714Y-95752533D02*
X115292095Y-95895390D01*
X115292095Y-95895390D02*
X114720667Y-96466819D01*
X114720667Y-96466819D02*
X115339714Y-96466819D01*
X126490980Y-63388374D02*
X126538600Y-63435993D01*
X126538600Y-63435993D02*
X126586219Y-63578850D01*
X126586219Y-63578850D02*
X126586219Y-63674088D01*
X126586219Y-63674088D02*
X126538600Y-63816945D01*
X126538600Y-63816945D02*
X126443361Y-63912183D01*
X126443361Y-63912183D02*
X126348123Y-63959802D01*
X126348123Y-63959802D02*
X126157647Y-64007421D01*
X126157647Y-64007421D02*
X126014790Y-64007421D01*
X126014790Y-64007421D02*
X125824314Y-63959802D01*
X125824314Y-63959802D02*
X125729076Y-63912183D01*
X125729076Y-63912183D02*
X125633838Y-63816945D01*
X125633838Y-63816945D02*
X125586219Y-63674088D01*
X125586219Y-63674088D02*
X125586219Y-63578850D01*
X125586219Y-63578850D02*
X125633838Y-63435993D01*
X125633838Y-63435993D02*
X125681457Y-63388374D01*
X125681457Y-63007421D02*
X125633838Y-62959802D01*
X125633838Y-62959802D02*
X125586219Y-62864564D01*
X125586219Y-62864564D02*
X125586219Y-62626469D01*
X125586219Y-62626469D02*
X125633838Y-62531231D01*
X125633838Y-62531231D02*
X125681457Y-62483612D01*
X125681457Y-62483612D02*
X125776695Y-62435993D01*
X125776695Y-62435993D02*
X125871933Y-62435993D01*
X125871933Y-62435993D02*
X126014790Y-62483612D01*
X126014790Y-62483612D02*
X126586219Y-63055040D01*
X126586219Y-63055040D02*
X126586219Y-62435993D01*
X96334342Y-74507219D02*
X96001009Y-74031028D01*
X95762914Y-74507219D02*
X95762914Y-73507219D01*
X95762914Y-73507219D02*
X96143866Y-73507219D01*
X96143866Y-73507219D02*
X96239104Y-73554838D01*
X96239104Y-73554838D02*
X96286723Y-73602457D01*
X96286723Y-73602457D02*
X96334342Y-73697695D01*
X96334342Y-73697695D02*
X96334342Y-73840552D01*
X96334342Y-73840552D02*
X96286723Y-73935790D01*
X96286723Y-73935790D02*
X96239104Y-73983409D01*
X96239104Y-73983409D02*
X96143866Y-74031028D01*
X96143866Y-74031028D02*
X95762914Y-74031028D01*
X97286723Y-74507219D02*
X96715295Y-74507219D01*
X97001009Y-74507219D02*
X97001009Y-73507219D01*
X97001009Y-73507219D02*
X96905771Y-73650076D01*
X96905771Y-73650076D02*
X96810533Y-73745314D01*
X96810533Y-73745314D02*
X96715295Y-73792933D01*
X97620057Y-73507219D02*
X98286723Y-73507219D01*
X98286723Y-73507219D02*
X97858152Y-74507219D01*
X67064095Y-49746819D02*
X67635523Y-49746819D01*
X67349809Y-50746819D02*
X67349809Y-49746819D01*
X67968857Y-50746819D02*
X67968857Y-49746819D01*
X67968857Y-49746819D02*
X68349809Y-49746819D01*
X68349809Y-49746819D02*
X68445047Y-49794438D01*
X68445047Y-49794438D02*
X68492666Y-49842057D01*
X68492666Y-49842057D02*
X68540285Y-49937295D01*
X68540285Y-49937295D02*
X68540285Y-50080152D01*
X68540285Y-50080152D02*
X68492666Y-50175390D01*
X68492666Y-50175390D02*
X68445047Y-50223009D01*
X68445047Y-50223009D02*
X68349809Y-50270628D01*
X68349809Y-50270628D02*
X67968857Y-50270628D01*
X68921238Y-49842057D02*
X68968857Y-49794438D01*
X68968857Y-49794438D02*
X69064095Y-49746819D01*
X69064095Y-49746819D02*
X69302190Y-49746819D01*
X69302190Y-49746819D02*
X69397428Y-49794438D01*
X69397428Y-49794438D02*
X69445047Y-49842057D01*
X69445047Y-49842057D02*
X69492666Y-49937295D01*
X69492666Y-49937295D02*
X69492666Y-50032533D01*
X69492666Y-50032533D02*
X69445047Y-50175390D01*
X69445047Y-50175390D02*
X68873619Y-50746819D01*
X68873619Y-50746819D02*
X69492666Y-50746819D01*
X103428895Y-68085619D02*
X103428895Y-68895142D01*
X103428895Y-68895142D02*
X103476514Y-68990380D01*
X103476514Y-68990380D02*
X103524133Y-69038000D01*
X103524133Y-69038000D02*
X103619371Y-69085619D01*
X103619371Y-69085619D02*
X103809847Y-69085619D01*
X103809847Y-69085619D02*
X103905085Y-69038000D01*
X103905085Y-69038000D02*
X103952704Y-68990380D01*
X103952704Y-68990380D02*
X104000323Y-68895142D01*
X104000323Y-68895142D02*
X104000323Y-68085619D01*
X105000323Y-69085619D02*
X104428895Y-69085619D01*
X104714609Y-69085619D02*
X104714609Y-68085619D01*
X104714609Y-68085619D02*
X104619371Y-68228476D01*
X104619371Y-68228476D02*
X104524133Y-68323714D01*
X104524133Y-68323714D02*
X104428895Y-68371333D01*
X83004819Y-104020857D02*
X82528628Y-104354190D01*
X83004819Y-104592285D02*
X82004819Y-104592285D01*
X82004819Y-104592285D02*
X82004819Y-104211333D01*
X82004819Y-104211333D02*
X82052438Y-104116095D01*
X82052438Y-104116095D02*
X82100057Y-104068476D01*
X82100057Y-104068476D02*
X82195295Y-104020857D01*
X82195295Y-104020857D02*
X82338152Y-104020857D01*
X82338152Y-104020857D02*
X82433390Y-104068476D01*
X82433390Y-104068476D02*
X82481009Y-104116095D01*
X82481009Y-104116095D02*
X82528628Y-104211333D01*
X82528628Y-104211333D02*
X82528628Y-104592285D01*
X82100057Y-103639904D02*
X82052438Y-103592285D01*
X82052438Y-103592285D02*
X82004819Y-103497047D01*
X82004819Y-103497047D02*
X82004819Y-103258952D01*
X82004819Y-103258952D02*
X82052438Y-103163714D01*
X82052438Y-103163714D02*
X82100057Y-103116095D01*
X82100057Y-103116095D02*
X82195295Y-103068476D01*
X82195295Y-103068476D02*
X82290533Y-103068476D01*
X82290533Y-103068476D02*
X82433390Y-103116095D01*
X82433390Y-103116095D02*
X83004819Y-103687523D01*
X83004819Y-103687523D02*
X83004819Y-103068476D01*
X82004819Y-102449428D02*
X82004819Y-102354190D01*
X82004819Y-102354190D02*
X82052438Y-102258952D01*
X82052438Y-102258952D02*
X82100057Y-102211333D01*
X82100057Y-102211333D02*
X82195295Y-102163714D01*
X82195295Y-102163714D02*
X82385771Y-102116095D01*
X82385771Y-102116095D02*
X82623866Y-102116095D01*
X82623866Y-102116095D02*
X82814342Y-102163714D01*
X82814342Y-102163714D02*
X82909580Y-102211333D01*
X82909580Y-102211333D02*
X82957200Y-102258952D01*
X82957200Y-102258952D02*
X83004819Y-102354190D01*
X83004819Y-102354190D02*
X83004819Y-102449428D01*
X83004819Y-102449428D02*
X82957200Y-102544666D01*
X82957200Y-102544666D02*
X82909580Y-102592285D01*
X82909580Y-102592285D02*
X82814342Y-102639904D01*
X82814342Y-102639904D02*
X82623866Y-102687523D01*
X82623866Y-102687523D02*
X82385771Y-102687523D01*
X82385771Y-102687523D02*
X82195295Y-102639904D01*
X82195295Y-102639904D02*
X82100057Y-102592285D01*
X82100057Y-102592285D02*
X82052438Y-102544666D01*
X82052438Y-102544666D02*
X82004819Y-102449428D01*
X73098819Y-103544666D02*
X72622628Y-103877999D01*
X73098819Y-104116094D02*
X72098819Y-104116094D01*
X72098819Y-104116094D02*
X72098819Y-103735142D01*
X72098819Y-103735142D02*
X72146438Y-103639904D01*
X72146438Y-103639904D02*
X72194057Y-103592285D01*
X72194057Y-103592285D02*
X72289295Y-103544666D01*
X72289295Y-103544666D02*
X72432152Y-103544666D01*
X72432152Y-103544666D02*
X72527390Y-103592285D01*
X72527390Y-103592285D02*
X72575009Y-103639904D01*
X72575009Y-103639904D02*
X72622628Y-103735142D01*
X72622628Y-103735142D02*
X72622628Y-104116094D01*
X73098819Y-103068475D02*
X73098819Y-102877999D01*
X73098819Y-102877999D02*
X73051200Y-102782761D01*
X73051200Y-102782761D02*
X73003580Y-102735142D01*
X73003580Y-102735142D02*
X72860723Y-102639904D01*
X72860723Y-102639904D02*
X72670247Y-102592285D01*
X72670247Y-102592285D02*
X72289295Y-102592285D01*
X72289295Y-102592285D02*
X72194057Y-102639904D01*
X72194057Y-102639904D02*
X72146438Y-102687523D01*
X72146438Y-102687523D02*
X72098819Y-102782761D01*
X72098819Y-102782761D02*
X72098819Y-102973237D01*
X72098819Y-102973237D02*
X72146438Y-103068475D01*
X72146438Y-103068475D02*
X72194057Y-103116094D01*
X72194057Y-103116094D02*
X72289295Y-103163713D01*
X72289295Y-103163713D02*
X72527390Y-103163713D01*
X72527390Y-103163713D02*
X72622628Y-103116094D01*
X72622628Y-103116094D02*
X72670247Y-103068475D01*
X72670247Y-103068475D02*
X72717866Y-102973237D01*
X72717866Y-102973237D02*
X72717866Y-102782761D01*
X72717866Y-102782761D02*
X72670247Y-102687523D01*
X72670247Y-102687523D02*
X72622628Y-102639904D01*
X72622628Y-102639904D02*
X72527390Y-102592285D01*
X95924761Y-45158819D02*
X95591428Y-44682628D01*
X95353333Y-45158819D02*
X95353333Y-44158819D01*
X95353333Y-44158819D02*
X95734285Y-44158819D01*
X95734285Y-44158819D02*
X95829523Y-44206438D01*
X95829523Y-44206438D02*
X95877142Y-44254057D01*
X95877142Y-44254057D02*
X95924761Y-44349295D01*
X95924761Y-44349295D02*
X95924761Y-44492152D01*
X95924761Y-44492152D02*
X95877142Y-44587390D01*
X95877142Y-44587390D02*
X95829523Y-44635009D01*
X95829523Y-44635009D02*
X95734285Y-44682628D01*
X95734285Y-44682628D02*
X95353333Y-44682628D01*
X96210476Y-44158819D02*
X96543809Y-45158819D01*
X96543809Y-45158819D02*
X96877142Y-44158819D01*
X97115238Y-44158819D02*
X97734285Y-44158819D01*
X97734285Y-44158819D02*
X97400952Y-44539771D01*
X97400952Y-44539771D02*
X97543809Y-44539771D01*
X97543809Y-44539771D02*
X97639047Y-44587390D01*
X97639047Y-44587390D02*
X97686666Y-44635009D01*
X97686666Y-44635009D02*
X97734285Y-44730247D01*
X97734285Y-44730247D02*
X97734285Y-44968342D01*
X97734285Y-44968342D02*
X97686666Y-45063580D01*
X97686666Y-45063580D02*
X97639047Y-45111200D01*
X97639047Y-45111200D02*
X97543809Y-45158819D01*
X97543809Y-45158819D02*
X97258095Y-45158819D01*
X97258095Y-45158819D02*
X97162857Y-45111200D01*
X97162857Y-45111200D02*
X97115238Y-45063580D01*
X48111580Y-63489374D02*
X48159200Y-63536993D01*
X48159200Y-63536993D02*
X48206819Y-63679850D01*
X48206819Y-63679850D02*
X48206819Y-63775088D01*
X48206819Y-63775088D02*
X48159200Y-63917945D01*
X48159200Y-63917945D02*
X48063961Y-64013183D01*
X48063961Y-64013183D02*
X47968723Y-64060802D01*
X47968723Y-64060802D02*
X47778247Y-64108421D01*
X47778247Y-64108421D02*
X47635390Y-64108421D01*
X47635390Y-64108421D02*
X47444914Y-64060802D01*
X47444914Y-64060802D02*
X47349676Y-64013183D01*
X47349676Y-64013183D02*
X47254438Y-63917945D01*
X47254438Y-63917945D02*
X47206819Y-63775088D01*
X47206819Y-63775088D02*
X47206819Y-63679850D01*
X47206819Y-63679850D02*
X47254438Y-63536993D01*
X47254438Y-63536993D02*
X47302057Y-63489374D01*
X47206819Y-62632231D02*
X47206819Y-62822707D01*
X47206819Y-62822707D02*
X47254438Y-62917945D01*
X47254438Y-62917945D02*
X47302057Y-62965564D01*
X47302057Y-62965564D02*
X47444914Y-63060802D01*
X47444914Y-63060802D02*
X47635390Y-63108421D01*
X47635390Y-63108421D02*
X48016342Y-63108421D01*
X48016342Y-63108421D02*
X48111580Y-63060802D01*
X48111580Y-63060802D02*
X48159200Y-63013183D01*
X48159200Y-63013183D02*
X48206819Y-62917945D01*
X48206819Y-62917945D02*
X48206819Y-62727469D01*
X48206819Y-62727469D02*
X48159200Y-62632231D01*
X48159200Y-62632231D02*
X48111580Y-62584612D01*
X48111580Y-62584612D02*
X48016342Y-62536993D01*
X48016342Y-62536993D02*
X47778247Y-62536993D01*
X47778247Y-62536993D02*
X47683009Y-62584612D01*
X47683009Y-62584612D02*
X47635390Y-62632231D01*
X47635390Y-62632231D02*
X47587771Y-62727469D01*
X47587771Y-62727469D02*
X47587771Y-62917945D01*
X47587771Y-62917945D02*
X47635390Y-63013183D01*
X47635390Y-63013183D02*
X47683009Y-63060802D01*
X47683009Y-63060802D02*
X47778247Y-63108421D01*
X110863142Y-74368819D02*
X110529809Y-73892628D01*
X110291714Y-74368819D02*
X110291714Y-73368819D01*
X110291714Y-73368819D02*
X110672666Y-73368819D01*
X110672666Y-73368819D02*
X110767904Y-73416438D01*
X110767904Y-73416438D02*
X110815523Y-73464057D01*
X110815523Y-73464057D02*
X110863142Y-73559295D01*
X110863142Y-73559295D02*
X110863142Y-73702152D01*
X110863142Y-73702152D02*
X110815523Y-73797390D01*
X110815523Y-73797390D02*
X110767904Y-73845009D01*
X110767904Y-73845009D02*
X110672666Y-73892628D01*
X110672666Y-73892628D02*
X110291714Y-73892628D01*
X111244095Y-73464057D02*
X111291714Y-73416438D01*
X111291714Y-73416438D02*
X111386952Y-73368819D01*
X111386952Y-73368819D02*
X111625047Y-73368819D01*
X111625047Y-73368819D02*
X111720285Y-73416438D01*
X111720285Y-73416438D02*
X111767904Y-73464057D01*
X111767904Y-73464057D02*
X111815523Y-73559295D01*
X111815523Y-73559295D02*
X111815523Y-73654533D01*
X111815523Y-73654533D02*
X111767904Y-73797390D01*
X111767904Y-73797390D02*
X111196476Y-74368819D01*
X111196476Y-74368819D02*
X111815523Y-74368819D01*
X112148857Y-73368819D02*
X112815523Y-73368819D01*
X112815523Y-73368819D02*
X112386952Y-74368819D01*
X111493819Y-46108857D02*
X111017628Y-46442190D01*
X111493819Y-46680285D02*
X110493819Y-46680285D01*
X110493819Y-46680285D02*
X110493819Y-46299333D01*
X110493819Y-46299333D02*
X110541438Y-46204095D01*
X110541438Y-46204095D02*
X110589057Y-46156476D01*
X110589057Y-46156476D02*
X110684295Y-46108857D01*
X110684295Y-46108857D02*
X110827152Y-46108857D01*
X110827152Y-46108857D02*
X110922390Y-46156476D01*
X110922390Y-46156476D02*
X110970009Y-46204095D01*
X110970009Y-46204095D02*
X111017628Y-46299333D01*
X111017628Y-46299333D02*
X111017628Y-46680285D01*
X110589057Y-45727904D02*
X110541438Y-45680285D01*
X110541438Y-45680285D02*
X110493819Y-45585047D01*
X110493819Y-45585047D02*
X110493819Y-45346952D01*
X110493819Y-45346952D02*
X110541438Y-45251714D01*
X110541438Y-45251714D02*
X110589057Y-45204095D01*
X110589057Y-45204095D02*
X110684295Y-45156476D01*
X110684295Y-45156476D02*
X110779533Y-45156476D01*
X110779533Y-45156476D02*
X110922390Y-45204095D01*
X110922390Y-45204095D02*
X111493819Y-45775523D01*
X111493819Y-45775523D02*
X111493819Y-45156476D01*
X110493819Y-44299333D02*
X110493819Y-44489809D01*
X110493819Y-44489809D02*
X110541438Y-44585047D01*
X110541438Y-44585047D02*
X110589057Y-44632666D01*
X110589057Y-44632666D02*
X110731914Y-44727904D01*
X110731914Y-44727904D02*
X110922390Y-44775523D01*
X110922390Y-44775523D02*
X111303342Y-44775523D01*
X111303342Y-44775523D02*
X111398580Y-44727904D01*
X111398580Y-44727904D02*
X111446200Y-44680285D01*
X111446200Y-44680285D02*
X111493819Y-44585047D01*
X111493819Y-44585047D02*
X111493819Y-44394571D01*
X111493819Y-44394571D02*
X111446200Y-44299333D01*
X111446200Y-44299333D02*
X111398580Y-44251714D01*
X111398580Y-44251714D02*
X111303342Y-44204095D01*
X111303342Y-44204095D02*
X111065247Y-44204095D01*
X111065247Y-44204095D02*
X110970009Y-44251714D01*
X110970009Y-44251714D02*
X110922390Y-44299333D01*
X110922390Y-44299333D02*
X110874771Y-44394571D01*
X110874771Y-44394571D02*
X110874771Y-44585047D01*
X110874771Y-44585047D02*
X110922390Y-44680285D01*
X110922390Y-44680285D02*
X110970009Y-44727904D01*
X110970009Y-44727904D02*
X111065247Y-44775523D01*
X43813980Y-63358374D02*
X43861600Y-63405993D01*
X43861600Y-63405993D02*
X43909219Y-63548850D01*
X43909219Y-63548850D02*
X43909219Y-63644088D01*
X43909219Y-63644088D02*
X43861600Y-63786945D01*
X43861600Y-63786945D02*
X43766361Y-63882183D01*
X43766361Y-63882183D02*
X43671123Y-63929802D01*
X43671123Y-63929802D02*
X43480647Y-63977421D01*
X43480647Y-63977421D02*
X43337790Y-63977421D01*
X43337790Y-63977421D02*
X43147314Y-63929802D01*
X43147314Y-63929802D02*
X43052076Y-63882183D01*
X43052076Y-63882183D02*
X42956838Y-63786945D01*
X42956838Y-63786945D02*
X42909219Y-63644088D01*
X42909219Y-63644088D02*
X42909219Y-63548850D01*
X42909219Y-63548850D02*
X42956838Y-63405993D01*
X42956838Y-63405993D02*
X43004457Y-63358374D01*
X43337790Y-62786945D02*
X43290171Y-62882183D01*
X43290171Y-62882183D02*
X43242552Y-62929802D01*
X43242552Y-62929802D02*
X43147314Y-62977421D01*
X43147314Y-62977421D02*
X43099695Y-62977421D01*
X43099695Y-62977421D02*
X43004457Y-62929802D01*
X43004457Y-62929802D02*
X42956838Y-62882183D01*
X42956838Y-62882183D02*
X42909219Y-62786945D01*
X42909219Y-62786945D02*
X42909219Y-62596469D01*
X42909219Y-62596469D02*
X42956838Y-62501231D01*
X42956838Y-62501231D02*
X43004457Y-62453612D01*
X43004457Y-62453612D02*
X43099695Y-62405993D01*
X43099695Y-62405993D02*
X43147314Y-62405993D01*
X43147314Y-62405993D02*
X43242552Y-62453612D01*
X43242552Y-62453612D02*
X43290171Y-62501231D01*
X43290171Y-62501231D02*
X43337790Y-62596469D01*
X43337790Y-62596469D02*
X43337790Y-62786945D01*
X43337790Y-62786945D02*
X43385409Y-62882183D01*
X43385409Y-62882183D02*
X43433028Y-62929802D01*
X43433028Y-62929802D02*
X43528266Y-62977421D01*
X43528266Y-62977421D02*
X43718742Y-62977421D01*
X43718742Y-62977421D02*
X43813980Y-62929802D01*
X43813980Y-62929802D02*
X43861600Y-62882183D01*
X43861600Y-62882183D02*
X43909219Y-62786945D01*
X43909219Y-62786945D02*
X43909219Y-62596469D01*
X43909219Y-62596469D02*
X43861600Y-62501231D01*
X43861600Y-62501231D02*
X43813980Y-62453612D01*
X43813980Y-62453612D02*
X43718742Y-62405993D01*
X43718742Y-62405993D02*
X43528266Y-62405993D01*
X43528266Y-62405993D02*
X43433028Y-62453612D01*
X43433028Y-62453612D02*
X43385409Y-62501231D01*
X43385409Y-62501231D02*
X43337790Y-62596469D01*
X122067980Y-63381374D02*
X122115600Y-63428993D01*
X122115600Y-63428993D02*
X122163219Y-63571850D01*
X122163219Y-63571850D02*
X122163219Y-63667088D01*
X122163219Y-63667088D02*
X122115600Y-63809945D01*
X122115600Y-63809945D02*
X122020361Y-63905183D01*
X122020361Y-63905183D02*
X121925123Y-63952802D01*
X121925123Y-63952802D02*
X121734647Y-64000421D01*
X121734647Y-64000421D02*
X121591790Y-64000421D01*
X121591790Y-64000421D02*
X121401314Y-63952802D01*
X121401314Y-63952802D02*
X121306076Y-63905183D01*
X121306076Y-63905183D02*
X121210838Y-63809945D01*
X121210838Y-63809945D02*
X121163219Y-63667088D01*
X121163219Y-63667088D02*
X121163219Y-63571850D01*
X121163219Y-63571850D02*
X121210838Y-63428993D01*
X121210838Y-63428993D02*
X121258457Y-63381374D01*
X122163219Y-62428993D02*
X122163219Y-63000421D01*
X122163219Y-62714707D02*
X121163219Y-62714707D01*
X121163219Y-62714707D02*
X121306076Y-62809945D01*
X121306076Y-62809945D02*
X121401314Y-62905183D01*
X121401314Y-62905183D02*
X121448933Y-63000421D01*
X96334342Y-70812819D02*
X96001009Y-70336628D01*
X95762914Y-70812819D02*
X95762914Y-69812819D01*
X95762914Y-69812819D02*
X96143866Y-69812819D01*
X96143866Y-69812819D02*
X96239104Y-69860438D01*
X96239104Y-69860438D02*
X96286723Y-69908057D01*
X96286723Y-69908057D02*
X96334342Y-70003295D01*
X96334342Y-70003295D02*
X96334342Y-70146152D01*
X96334342Y-70146152D02*
X96286723Y-70241390D01*
X96286723Y-70241390D02*
X96239104Y-70289009D01*
X96239104Y-70289009D02*
X96143866Y-70336628D01*
X96143866Y-70336628D02*
X95762914Y-70336628D01*
X96715295Y-69908057D02*
X96762914Y-69860438D01*
X96762914Y-69860438D02*
X96858152Y-69812819D01*
X96858152Y-69812819D02*
X97096247Y-69812819D01*
X97096247Y-69812819D02*
X97191485Y-69860438D01*
X97191485Y-69860438D02*
X97239104Y-69908057D01*
X97239104Y-69908057D02*
X97286723Y-70003295D01*
X97286723Y-70003295D02*
X97286723Y-70098533D01*
X97286723Y-70098533D02*
X97239104Y-70241390D01*
X97239104Y-70241390D02*
X96667676Y-70812819D01*
X96667676Y-70812819D02*
X97286723Y-70812819D01*
X98143866Y-70146152D02*
X98143866Y-70812819D01*
X97905771Y-69765200D02*
X97667676Y-70479485D01*
X97667676Y-70479485D02*
X98286723Y-70479485D01*
D11*
%TO.C,SW1*%
X88192800Y-81256000D02*
X88192800Y-82756000D01*
X89442800Y-85256000D02*
X93942800Y-85256000D01*
X93942800Y-78756000D02*
X89442800Y-78756000D01*
X95192800Y-82756000D02*
X95192800Y-81256000D01*
%TO.C,J5*%
X42040000Y-80224000D02*
X42040000Y-79364000D01*
X42040000Y-80224000D02*
X42840000Y-80224000D01*
X45190000Y-74494000D02*
X45190000Y-78274000D01*
X45190000Y-74494000D02*
X55690000Y-74494000D01*
X45190000Y-79714000D02*
X45190000Y-83494000D01*
X45190000Y-83494000D02*
X55690000Y-83494000D01*
X55690000Y-74494000D02*
X55690000Y-78194000D01*
X55690000Y-79794000D02*
X55690000Y-83494000D01*
X51490000Y-78994000D02*
G75*
G02*
X47890000Y-78994000I-1800000J0D01*
G01*
X47890000Y-78994000D02*
G75*
G02*
X51490000Y-78994000I1800000J0D01*
G01*
%TO.C,Q1*%
X132820000Y-62810000D02*
X136420000Y-62810000D01*
X132263600Y-59861193D02*
G75*
G02*
X134620000Y-58360000I2356400J-1098807D01*
G01*
X132820000Y-62810000D02*
G75*
G02*
X132295816Y-62082795I1800000J1850000D01*
G01*
X134620000Y-58360000D02*
G75*
G02*
X136976400Y-59861193I0J-2600000D01*
G01*
X136944184Y-62082795D02*
G75*
G02*
X136420000Y-62810000I-2324184J1122795D01*
G01*
%TO.C,R37*%
X130834000Y-66040000D02*
X131604000Y-66040000D01*
X138914000Y-66040000D02*
X138144000Y-66040000D01*
X131604000Y-64670000D02*
X138144000Y-64670000D01*
X138144000Y-67410000D01*
X131604000Y-67410000D01*
X131604000Y-64670000D01*
%TO.C,R25*%
X136398000Y-41680000D02*
X136398000Y-42450000D01*
X136398000Y-49760000D02*
X136398000Y-48990000D01*
X135028000Y-48990000D02*
X137768000Y-48990000D01*
X137768000Y-42450000D01*
X135028000Y-42450000D01*
X135028000Y-48990000D01*
%TO.C,R16*%
X154432000Y-47268000D02*
X154432000Y-48038000D01*
X154432000Y-55348000D02*
X154432000Y-54578000D01*
X155802000Y-48038000D02*
X153062000Y-48038000D01*
X153062000Y-54578000D01*
X155802000Y-54578000D01*
X155802000Y-48038000D01*
%TO.C,C3*%
X95412000Y-58062000D02*
X99152000Y-58062000D01*
X95412000Y-65302000D02*
X95412000Y-58062000D01*
X99152000Y-58062000D02*
X99152000Y-65302000D01*
X99152000Y-65302000D02*
X95412000Y-65302000D01*
%TO.C,R22*%
X63246000Y-59968000D02*
X63246000Y-60738000D01*
X63246000Y-68048000D02*
X63246000Y-67278000D01*
X61876000Y-67278000D02*
X64616000Y-67278000D01*
X64616000Y-60738000D01*
X61876000Y-60738000D01*
X61876000Y-67278000D01*
%TO.C,R11*%
X66040000Y-99338000D02*
X66040000Y-100108000D01*
X66040000Y-107418000D02*
X66040000Y-106648000D01*
X64670000Y-106648000D02*
X67410000Y-106648000D01*
X67410000Y-100108000D01*
X64670000Y-100108000D01*
X64670000Y-106648000D01*
%TO.C,D1*%
X87101000Y-94635000D02*
X90191000Y-94635000D01*
X87101170Y-94635000D02*
G75*
G02*
X88646000Y-89085000I1544830J2560000D01*
G01*
X88646000Y-89085000D02*
G75*
G02*
X90190830Y-94635000I0J-2990000D01*
G01*
X91146000Y-92075000D02*
G75*
G02*
X86146000Y-92075000I-2500000J0D01*
G01*
X86146000Y-92075000D02*
G75*
G02*
X91146000Y-92075000I2500000J0D01*
G01*
%TO.C,R14*%
X132842000Y-41680000D02*
X132842000Y-42450000D01*
X132842000Y-49760000D02*
X132842000Y-48990000D01*
X134212000Y-42450000D02*
X131472000Y-42450000D01*
X131472000Y-48990000D01*
X134212000Y-48990000D01*
X134212000Y-42450000D01*
%TO.C,C5*%
X143486000Y-65040000D02*
X141946000Y-65040000D01*
X143486000Y-65080000D02*
X141946000Y-65080000D01*
X143486000Y-65120000D02*
X141947000Y-65120000D01*
X143486000Y-65160000D02*
X141949000Y-65160000D01*
X143486000Y-65200000D02*
X141951000Y-65200000D01*
X143486000Y-65240000D02*
X141954000Y-65240000D01*
X143486000Y-65280000D02*
X141957000Y-65280000D01*
X143486000Y-65320000D02*
X141961000Y-65320000D01*
X143486000Y-65360000D02*
X141966000Y-65360000D01*
X143486000Y-65400000D02*
X141971000Y-65400000D01*
X143486000Y-65440000D02*
X141977000Y-65440000D01*
X143486000Y-65480000D02*
X141983000Y-65480000D01*
X143486000Y-65520000D02*
X141990000Y-65520000D01*
X143486000Y-65560000D02*
X141998000Y-65560000D01*
X143486000Y-65600000D02*
X142007000Y-65600000D01*
X143486000Y-65640000D02*
X142016000Y-65640000D01*
X143486000Y-65680000D02*
X142025000Y-65680000D01*
X143486000Y-65720000D02*
X142036000Y-65720000D01*
X143486000Y-65760000D02*
X142047000Y-65760000D01*
X143486000Y-65800000D02*
X142059000Y-65800000D01*
X143486000Y-65840000D02*
X142071000Y-65840000D01*
X143486000Y-65880000D02*
X142084000Y-65880000D01*
X143486000Y-65920000D02*
X142098000Y-65920000D01*
X143486000Y-65960000D02*
X142113000Y-65960000D01*
X143486000Y-66000000D02*
X142128000Y-66000000D01*
X143486000Y-66040000D02*
X142144000Y-66040000D01*
X143486000Y-66080000D02*
X142161000Y-66080000D01*
X143486000Y-66120000D02*
X142179000Y-66120000D01*
X143486000Y-66160000D02*
X142197000Y-66160000D01*
X143486000Y-66200000D02*
X142217000Y-66200000D01*
X143486000Y-66240000D02*
X142237000Y-66240000D01*
X143486000Y-66280000D02*
X142258000Y-66280000D01*
X143486000Y-66320000D02*
X142280000Y-66320000D01*
X143486000Y-66360000D02*
X142303000Y-66360000D01*
X143486000Y-66400000D02*
X142327000Y-66400000D01*
X143486000Y-66440000D02*
X142351000Y-66440000D01*
X143486000Y-66480000D02*
X142377000Y-66480000D01*
X143486000Y-66520000D02*
X142404000Y-66520000D01*
X143486000Y-66560000D02*
X142432000Y-66560000D01*
X143486000Y-66600000D02*
X142461000Y-66600000D01*
X143486000Y-66640000D02*
X142491000Y-66640000D01*
X143486000Y-66680000D02*
X142523000Y-66680000D01*
X143486000Y-66720000D02*
X142556000Y-66720000D01*
X143486000Y-66760000D02*
X142590000Y-66760000D01*
X143486000Y-66800000D02*
X142625000Y-66800000D01*
X143486000Y-66840000D02*
X142662000Y-66840000D01*
X143486000Y-66880000D02*
X142701000Y-66880000D01*
X143486000Y-66920000D02*
X142741000Y-66920000D01*
X143486000Y-66960000D02*
X142783000Y-66960000D01*
X143486000Y-67000000D02*
X142827000Y-67000000D01*
X143486000Y-67040000D02*
X142874000Y-67040000D01*
X144809000Y-67640000D02*
X144243000Y-67640000D01*
X145043000Y-67600000D02*
X144009000Y-67600000D01*
X145203000Y-67560000D02*
X143849000Y-67560000D01*
X145331000Y-67520000D02*
X143721000Y-67520000D01*
X145440000Y-67480000D02*
X143612000Y-67480000D01*
X145537000Y-67440000D02*
X143515000Y-67440000D01*
X145624000Y-67400000D02*
X143428000Y-67400000D01*
X145703000Y-67360000D02*
X143349000Y-67360000D01*
X145777000Y-67320000D02*
X143275000Y-67320000D01*
X145845000Y-67280000D02*
X143207000Y-67280000D01*
X145909000Y-67240000D02*
X143143000Y-67240000D01*
X145969000Y-67200000D02*
X143083000Y-67200000D01*
X146001000Y-62235225D02*
X146001000Y-62735225D01*
X146025000Y-67160000D02*
X143027000Y-67160000D01*
X146079000Y-67120000D02*
X142973000Y-67120000D01*
X146130000Y-67080000D02*
X142922000Y-67080000D01*
X146178000Y-67040000D02*
X145566000Y-67040000D01*
X146225000Y-67000000D02*
X145566000Y-67000000D01*
X146251000Y-62485225D02*
X145751000Y-62485225D01*
X146269000Y-66960000D02*
X145566000Y-66960000D01*
X146311000Y-66920000D02*
X145566000Y-66920000D01*
X146351000Y-66880000D02*
X145566000Y-66880000D01*
X146390000Y-66840000D02*
X145566000Y-66840000D01*
X146427000Y-66800000D02*
X145566000Y-66800000D01*
X146462000Y-66760000D02*
X145566000Y-66760000D01*
X146496000Y-66720000D02*
X145566000Y-66720000D01*
X146529000Y-66680000D02*
X145566000Y-66680000D01*
X146561000Y-66640000D02*
X145566000Y-66640000D01*
X146591000Y-66600000D02*
X145566000Y-66600000D01*
X146620000Y-66560000D02*
X145566000Y-66560000D01*
X146648000Y-66520000D02*
X145566000Y-66520000D01*
X146675000Y-66480000D02*
X145566000Y-66480000D01*
X146701000Y-66440000D02*
X145566000Y-66440000D01*
X146725000Y-66400000D02*
X145566000Y-66400000D01*
X146749000Y-66360000D02*
X145566000Y-66360000D01*
X146772000Y-66320000D02*
X145566000Y-66320000D01*
X146794000Y-66280000D02*
X145566000Y-66280000D01*
X146815000Y-66240000D02*
X145566000Y-66240000D01*
X146835000Y-66200000D02*
X145566000Y-66200000D01*
X146855000Y-66160000D02*
X145566000Y-66160000D01*
X146873000Y-66120000D02*
X145566000Y-66120000D01*
X146891000Y-66080000D02*
X145566000Y-66080000D01*
X146908000Y-66040000D02*
X145566000Y-66040000D01*
X146924000Y-66000000D02*
X145566000Y-66000000D01*
X146939000Y-65960000D02*
X145566000Y-65960000D01*
X146954000Y-65920000D02*
X145566000Y-65920000D01*
X146968000Y-65880000D02*
X145566000Y-65880000D01*
X146981000Y-65840000D02*
X145566000Y-65840000D01*
X146993000Y-65800000D02*
X145566000Y-65800000D01*
X147005000Y-65760000D02*
X145566000Y-65760000D01*
X147016000Y-65720000D02*
X145566000Y-65720000D01*
X147027000Y-65680000D02*
X145566000Y-65680000D01*
X147036000Y-65640000D02*
X145566000Y-65640000D01*
X147045000Y-65600000D02*
X145566000Y-65600000D01*
X147054000Y-65560000D02*
X145566000Y-65560000D01*
X147062000Y-65520000D02*
X145566000Y-65520000D01*
X147069000Y-65480000D02*
X145566000Y-65480000D01*
X147075000Y-65440000D02*
X145566000Y-65440000D01*
X147081000Y-65400000D02*
X145566000Y-65400000D01*
X147086000Y-65360000D02*
X145566000Y-65360000D01*
X147091000Y-65320000D02*
X145566000Y-65320000D01*
X147095000Y-65280000D02*
X145566000Y-65280000D01*
X147098000Y-65240000D02*
X145566000Y-65240000D01*
X147101000Y-65200000D02*
X145566000Y-65200000D01*
X147103000Y-65160000D02*
X145566000Y-65160000D01*
X147105000Y-65120000D02*
X145566000Y-65120000D01*
X147106000Y-65040000D02*
X145566000Y-65040000D01*
X147106000Y-65080000D02*
X145566000Y-65080000D01*
X147146000Y-65040000D02*
G75*
G02*
X141906000Y-65040000I-2620000J0D01*
G01*
X141906000Y-65040000D02*
G75*
G02*
X147146000Y-65040000I2620000J0D01*
G01*
%TO.C,R15*%
X107466000Y-70510400D02*
X108236000Y-70510400D01*
X115546000Y-70510400D02*
X114776000Y-70510400D01*
X108236000Y-69140400D02*
X114776000Y-69140400D01*
X114776000Y-71880400D01*
X108236000Y-71880400D01*
X108236000Y-69140400D01*
%TO.C,R3*%
X133858000Y-99338000D02*
X133858000Y-100108000D01*
X133858000Y-107418000D02*
X133858000Y-106648000D01*
X132488000Y-106648000D02*
X135228000Y-106648000D01*
X135228000Y-100108000D01*
X132488000Y-100108000D01*
X132488000Y-106648000D01*
%TO.C,R19*%
X75462000Y-41656000D02*
X76232000Y-41656000D01*
X83542000Y-41656000D02*
X82772000Y-41656000D01*
X76232000Y-40286000D02*
X82772000Y-40286000D01*
X82772000Y-43026000D01*
X76232000Y-43026000D01*
X76232000Y-40286000D01*
%TO.C,C10*%
X88222913Y-53846200D02*
X88722913Y-53846200D01*
X88472913Y-53596200D02*
X88472913Y-54096200D01*
X91027688Y-52741200D02*
X91027688Y-54281200D01*
X91027688Y-56361200D02*
X91027688Y-57901200D01*
X91067688Y-52741200D02*
X91067688Y-54281200D01*
X91067688Y-56361200D02*
X91067688Y-57901200D01*
X91107688Y-52742200D02*
X91107688Y-54281200D01*
X91107688Y-56361200D02*
X91107688Y-57900200D01*
X91147688Y-52744200D02*
X91147688Y-54281200D01*
X91147688Y-56361200D02*
X91147688Y-57898200D01*
X91187688Y-52746200D02*
X91187688Y-54281200D01*
X91187688Y-56361200D02*
X91187688Y-57896200D01*
X91227688Y-52749200D02*
X91227688Y-54281200D01*
X91227688Y-56361200D02*
X91227688Y-57893200D01*
X91267688Y-52752200D02*
X91267688Y-54281200D01*
X91267688Y-56361200D02*
X91267688Y-57890200D01*
X91307688Y-52756200D02*
X91307688Y-54281200D01*
X91307688Y-56361200D02*
X91307688Y-57886200D01*
X91347688Y-52761200D02*
X91347688Y-54281200D01*
X91347688Y-56361200D02*
X91347688Y-57881200D01*
X91387688Y-52766200D02*
X91387688Y-54281200D01*
X91387688Y-56361200D02*
X91387688Y-57876200D01*
X91427688Y-52772200D02*
X91427688Y-54281200D01*
X91427688Y-56361200D02*
X91427688Y-57870200D01*
X91467688Y-52778200D02*
X91467688Y-54281200D01*
X91467688Y-56361200D02*
X91467688Y-57864200D01*
X91507688Y-52785200D02*
X91507688Y-54281200D01*
X91507688Y-56361200D02*
X91507688Y-57857200D01*
X91547688Y-52793200D02*
X91547688Y-54281200D01*
X91547688Y-56361200D02*
X91547688Y-57849200D01*
X91587688Y-52802200D02*
X91587688Y-54281200D01*
X91587688Y-56361200D02*
X91587688Y-57840200D01*
X91627688Y-52811200D02*
X91627688Y-54281200D01*
X91627688Y-56361200D02*
X91627688Y-57831200D01*
X91667688Y-52820200D02*
X91667688Y-54281200D01*
X91667688Y-56361200D02*
X91667688Y-57822200D01*
X91707688Y-52831200D02*
X91707688Y-54281200D01*
X91707688Y-56361200D02*
X91707688Y-57811200D01*
X91747688Y-52842200D02*
X91747688Y-54281200D01*
X91747688Y-56361200D02*
X91747688Y-57800200D01*
X91787688Y-52854200D02*
X91787688Y-54281200D01*
X91787688Y-56361200D02*
X91787688Y-57788200D01*
X91827688Y-52866200D02*
X91827688Y-54281200D01*
X91827688Y-56361200D02*
X91827688Y-57776200D01*
X91867688Y-52879200D02*
X91867688Y-54281200D01*
X91867688Y-56361200D02*
X91867688Y-57763200D01*
X91907688Y-52893200D02*
X91907688Y-54281200D01*
X91907688Y-56361200D02*
X91907688Y-57749200D01*
X91947688Y-52908200D02*
X91947688Y-54281200D01*
X91947688Y-56361200D02*
X91947688Y-57734200D01*
X91987688Y-52923200D02*
X91987688Y-54281200D01*
X91987688Y-56361200D02*
X91987688Y-57719200D01*
X92027688Y-52939200D02*
X92027688Y-54281200D01*
X92027688Y-56361200D02*
X92027688Y-57703200D01*
X92067688Y-52956200D02*
X92067688Y-54281200D01*
X92067688Y-56361200D02*
X92067688Y-57686200D01*
X92107688Y-52974200D02*
X92107688Y-54281200D01*
X92107688Y-56361200D02*
X92107688Y-57668200D01*
X92147688Y-52992200D02*
X92147688Y-54281200D01*
X92147688Y-56361200D02*
X92147688Y-57650200D01*
X92187688Y-53012200D02*
X92187688Y-54281200D01*
X92187688Y-56361200D02*
X92187688Y-57630200D01*
X92227688Y-53032200D02*
X92227688Y-54281200D01*
X92227688Y-56361200D02*
X92227688Y-57610200D01*
X92267688Y-53053200D02*
X92267688Y-54281200D01*
X92267688Y-56361200D02*
X92267688Y-57589200D01*
X92307688Y-53075200D02*
X92307688Y-54281200D01*
X92307688Y-56361200D02*
X92307688Y-57567200D01*
X92347688Y-53098200D02*
X92347688Y-54281200D01*
X92347688Y-56361200D02*
X92347688Y-57544200D01*
X92387688Y-53122200D02*
X92387688Y-54281200D01*
X92387688Y-56361200D02*
X92387688Y-57520200D01*
X92427688Y-53146200D02*
X92427688Y-54281200D01*
X92427688Y-56361200D02*
X92427688Y-57496200D01*
X92467688Y-53172200D02*
X92467688Y-54281200D01*
X92467688Y-56361200D02*
X92467688Y-57470200D01*
X92507688Y-53199200D02*
X92507688Y-54281200D01*
X92507688Y-56361200D02*
X92507688Y-57443200D01*
X92547688Y-53227200D02*
X92547688Y-54281200D01*
X92547688Y-56361200D02*
X92547688Y-57415200D01*
X92587688Y-53256200D02*
X92587688Y-54281200D01*
X92587688Y-56361200D02*
X92587688Y-57386200D01*
X92627688Y-53286200D02*
X92627688Y-54281200D01*
X92627688Y-56361200D02*
X92627688Y-57356200D01*
X92667688Y-53318200D02*
X92667688Y-54281200D01*
X92667688Y-56361200D02*
X92667688Y-57324200D01*
X92707688Y-53351200D02*
X92707688Y-54281200D01*
X92707688Y-56361200D02*
X92707688Y-57291200D01*
X92747688Y-53385200D02*
X92747688Y-54281200D01*
X92747688Y-56361200D02*
X92747688Y-57257200D01*
X92787688Y-53420200D02*
X92787688Y-54281200D01*
X92787688Y-56361200D02*
X92787688Y-57222200D01*
X92827688Y-53457200D02*
X92827688Y-54281200D01*
X92827688Y-56361200D02*
X92827688Y-57185200D01*
X92867688Y-53496200D02*
X92867688Y-54281200D01*
X92867688Y-56361200D02*
X92867688Y-57146200D01*
X92907688Y-53536200D02*
X92907688Y-54281200D01*
X92907688Y-56361200D02*
X92907688Y-57106200D01*
X92947688Y-53578200D02*
X92947688Y-54281200D01*
X92947688Y-56361200D02*
X92947688Y-57064200D01*
X92987688Y-53622200D02*
X92987688Y-54281200D01*
X92987688Y-56361200D02*
X92987688Y-57020200D01*
X93027688Y-53669200D02*
X93027688Y-54281200D01*
X93027688Y-56361200D02*
X93027688Y-56973200D01*
X93067688Y-53717200D02*
X93067688Y-56925200D01*
X93107688Y-53768200D02*
X93107688Y-56874200D01*
X93147688Y-53822200D02*
X93147688Y-56820200D01*
X93187688Y-53878200D02*
X93187688Y-56764200D01*
X93227688Y-53938200D02*
X93227688Y-56704200D01*
X93267688Y-54002200D02*
X93267688Y-56640200D01*
X93307688Y-54070200D02*
X93307688Y-56572200D01*
X93347688Y-54144200D02*
X93347688Y-56498200D01*
X93387688Y-54223200D02*
X93387688Y-56419200D01*
X93427688Y-54310200D02*
X93427688Y-56332200D01*
X93467688Y-54407200D02*
X93467688Y-56235200D01*
X93507688Y-54516200D02*
X93507688Y-56126200D01*
X93547688Y-54644200D02*
X93547688Y-55998200D01*
X93587688Y-54804200D02*
X93587688Y-55838200D01*
X93627688Y-55038200D02*
X93627688Y-55604200D01*
X93647688Y-55321200D02*
G75*
G02*
X88407688Y-55321200I-2620000J0D01*
G01*
X88407688Y-55321200D02*
G75*
G02*
X93647688Y-55321200I2620000J0D01*
G01*
%TO.C,R10*%
X69342000Y-99338000D02*
X69342000Y-100108000D01*
X69342000Y-107418000D02*
X69342000Y-106648000D01*
X67972000Y-106648000D02*
X70712000Y-106648000D01*
X70712000Y-100108000D01*
X67972000Y-100108000D01*
X67972000Y-106648000D01*
%TO.C,R23*%
X111784000Y-37592000D02*
X112554000Y-37592000D01*
X119864000Y-37592000D02*
X119094000Y-37592000D01*
X112554000Y-36222000D02*
X119094000Y-36222000D01*
X119094000Y-38962000D01*
X112554000Y-38962000D01*
X112554000Y-36222000D01*
%TO.C,R18*%
X48006000Y-47268000D02*
X48006000Y-48038000D01*
X48006000Y-55348000D02*
X48006000Y-54578000D01*
X46636000Y-54578000D02*
X49376000Y-54578000D01*
X49376000Y-48038000D01*
X46636000Y-48038000D01*
X46636000Y-54578000D01*
%TO.C,C4*%
X84301225Y-69645000D02*
X84801225Y-69645000D01*
X84551225Y-69395000D02*
X84551225Y-69895000D01*
X87106000Y-68540000D02*
X87106000Y-70080000D01*
X87106000Y-72160000D02*
X87106000Y-73700000D01*
X87146000Y-68540000D02*
X87146000Y-70080000D01*
X87146000Y-72160000D02*
X87146000Y-73700000D01*
X87186000Y-68541000D02*
X87186000Y-70080000D01*
X87186000Y-72160000D02*
X87186000Y-73699000D01*
X87226000Y-68543000D02*
X87226000Y-70080000D01*
X87226000Y-72160000D02*
X87226000Y-73697000D01*
X87266000Y-68545000D02*
X87266000Y-70080000D01*
X87266000Y-72160000D02*
X87266000Y-73695000D01*
X87306000Y-68548000D02*
X87306000Y-70080000D01*
X87306000Y-72160000D02*
X87306000Y-73692000D01*
X87346000Y-68551000D02*
X87346000Y-70080000D01*
X87346000Y-72160000D02*
X87346000Y-73689000D01*
X87386000Y-68555000D02*
X87386000Y-70080000D01*
X87386000Y-72160000D02*
X87386000Y-73685000D01*
X87426000Y-68560000D02*
X87426000Y-70080000D01*
X87426000Y-72160000D02*
X87426000Y-73680000D01*
X87466000Y-68565000D02*
X87466000Y-70080000D01*
X87466000Y-72160000D02*
X87466000Y-73675000D01*
X87506000Y-68571000D02*
X87506000Y-70080000D01*
X87506000Y-72160000D02*
X87506000Y-73669000D01*
X87546000Y-68577000D02*
X87546000Y-70080000D01*
X87546000Y-72160000D02*
X87546000Y-73663000D01*
X87586000Y-68584000D02*
X87586000Y-70080000D01*
X87586000Y-72160000D02*
X87586000Y-73656000D01*
X87626000Y-68592000D02*
X87626000Y-70080000D01*
X87626000Y-72160000D02*
X87626000Y-73648000D01*
X87666000Y-68601000D02*
X87666000Y-70080000D01*
X87666000Y-72160000D02*
X87666000Y-73639000D01*
X87706000Y-68610000D02*
X87706000Y-70080000D01*
X87706000Y-72160000D02*
X87706000Y-73630000D01*
X87746000Y-68619000D02*
X87746000Y-70080000D01*
X87746000Y-72160000D02*
X87746000Y-73621000D01*
X87786000Y-68630000D02*
X87786000Y-70080000D01*
X87786000Y-72160000D02*
X87786000Y-73610000D01*
X87826000Y-68641000D02*
X87826000Y-70080000D01*
X87826000Y-72160000D02*
X87826000Y-73599000D01*
X87866000Y-68653000D02*
X87866000Y-70080000D01*
X87866000Y-72160000D02*
X87866000Y-73587000D01*
X87906000Y-68665000D02*
X87906000Y-70080000D01*
X87906000Y-72160000D02*
X87906000Y-73575000D01*
X87946000Y-68678000D02*
X87946000Y-70080000D01*
X87946000Y-72160000D02*
X87946000Y-73562000D01*
X87986000Y-68692000D02*
X87986000Y-70080000D01*
X87986000Y-72160000D02*
X87986000Y-73548000D01*
X88026000Y-68707000D02*
X88026000Y-70080000D01*
X88026000Y-72160000D02*
X88026000Y-73533000D01*
X88066000Y-68722000D02*
X88066000Y-70080000D01*
X88066000Y-72160000D02*
X88066000Y-73518000D01*
X88106000Y-68738000D02*
X88106000Y-70080000D01*
X88106000Y-72160000D02*
X88106000Y-73502000D01*
X88146000Y-68755000D02*
X88146000Y-70080000D01*
X88146000Y-72160000D02*
X88146000Y-73485000D01*
X88186000Y-68773000D02*
X88186000Y-70080000D01*
X88186000Y-72160000D02*
X88186000Y-73467000D01*
X88226000Y-68791000D02*
X88226000Y-70080000D01*
X88226000Y-72160000D02*
X88226000Y-73449000D01*
X88266000Y-68811000D02*
X88266000Y-70080000D01*
X88266000Y-72160000D02*
X88266000Y-73429000D01*
X88306000Y-68831000D02*
X88306000Y-70080000D01*
X88306000Y-72160000D02*
X88306000Y-73409000D01*
X88346000Y-68852000D02*
X88346000Y-70080000D01*
X88346000Y-72160000D02*
X88346000Y-73388000D01*
X88386000Y-68874000D02*
X88386000Y-70080000D01*
X88386000Y-72160000D02*
X88386000Y-73366000D01*
X88426000Y-68897000D02*
X88426000Y-70080000D01*
X88426000Y-72160000D02*
X88426000Y-73343000D01*
X88466000Y-68921000D02*
X88466000Y-70080000D01*
X88466000Y-72160000D02*
X88466000Y-73319000D01*
X88506000Y-68945000D02*
X88506000Y-70080000D01*
X88506000Y-72160000D02*
X88506000Y-73295000D01*
X88546000Y-68971000D02*
X88546000Y-70080000D01*
X88546000Y-72160000D02*
X88546000Y-73269000D01*
X88586000Y-68998000D02*
X88586000Y-70080000D01*
X88586000Y-72160000D02*
X88586000Y-73242000D01*
X88626000Y-69026000D02*
X88626000Y-70080000D01*
X88626000Y-72160000D02*
X88626000Y-73214000D01*
X88666000Y-69055000D02*
X88666000Y-70080000D01*
X88666000Y-72160000D02*
X88666000Y-73185000D01*
X88706000Y-69085000D02*
X88706000Y-70080000D01*
X88706000Y-72160000D02*
X88706000Y-73155000D01*
X88746000Y-69117000D02*
X88746000Y-70080000D01*
X88746000Y-72160000D02*
X88746000Y-73123000D01*
X88786000Y-69150000D02*
X88786000Y-70080000D01*
X88786000Y-72160000D02*
X88786000Y-73090000D01*
X88826000Y-69184000D02*
X88826000Y-70080000D01*
X88826000Y-72160000D02*
X88826000Y-73056000D01*
X88866000Y-69219000D02*
X88866000Y-70080000D01*
X88866000Y-72160000D02*
X88866000Y-73021000D01*
X88906000Y-69256000D02*
X88906000Y-70080000D01*
X88906000Y-72160000D02*
X88906000Y-72984000D01*
X88946000Y-69295000D02*
X88946000Y-70080000D01*
X88946000Y-72160000D02*
X88946000Y-72945000D01*
X88986000Y-69335000D02*
X88986000Y-70080000D01*
X88986000Y-72160000D02*
X88986000Y-72905000D01*
X89026000Y-69377000D02*
X89026000Y-70080000D01*
X89026000Y-72160000D02*
X89026000Y-72863000D01*
X89066000Y-69421000D02*
X89066000Y-70080000D01*
X89066000Y-72160000D02*
X89066000Y-72819000D01*
X89106000Y-69468000D02*
X89106000Y-70080000D01*
X89106000Y-72160000D02*
X89106000Y-72772000D01*
X89146000Y-69516000D02*
X89146000Y-72724000D01*
X89186000Y-69567000D02*
X89186000Y-72673000D01*
X89226000Y-69621000D02*
X89226000Y-72619000D01*
X89266000Y-69677000D02*
X89266000Y-72563000D01*
X89306000Y-69737000D02*
X89306000Y-72503000D01*
X89346000Y-69801000D02*
X89346000Y-72439000D01*
X89386000Y-69869000D02*
X89386000Y-72371000D01*
X89426000Y-69943000D02*
X89426000Y-72297000D01*
X89466000Y-70022000D02*
X89466000Y-72218000D01*
X89506000Y-70109000D02*
X89506000Y-72131000D01*
X89546000Y-70206000D02*
X89546000Y-72034000D01*
X89586000Y-70315000D02*
X89586000Y-71925000D01*
X89626000Y-70443000D02*
X89626000Y-71797000D01*
X89666000Y-70603000D02*
X89666000Y-71637000D01*
X89706000Y-70837000D02*
X89706000Y-71403000D01*
X89726000Y-71120000D02*
G75*
G02*
X84486000Y-71120000I-2620000J0D01*
G01*
X84486000Y-71120000D02*
G75*
G02*
X89726000Y-71120000I2620000J0D01*
G01*
%TO.C,R2*%
X137160000Y-99338000D02*
X137160000Y-100108000D01*
X137160000Y-107418000D02*
X137160000Y-106648000D01*
X135790000Y-106648000D02*
X138530000Y-106648000D01*
X138530000Y-100108000D01*
X135790000Y-100108000D01*
X135790000Y-106648000D01*
%TO.C,C11*%
X53062000Y-68691200D02*
X60302000Y-68691200D01*
X53062000Y-72431200D02*
X53062000Y-68691200D01*
X60302000Y-68691200D02*
X60302000Y-72431200D01*
X60302000Y-72431200D02*
X53062000Y-72431200D01*
%TO.C,J4*%
X98524000Y-36244000D02*
X98524000Y-33514000D01*
X98524000Y-39844000D02*
X98524000Y-38944000D01*
X107594000Y-42924000D02*
X98644000Y-42924000D01*
X107714000Y-33514000D02*
X98524000Y-33514000D01*
X107714000Y-36244000D02*
X107714000Y-33514000D01*
X107714000Y-39844000D02*
X107714000Y-38944000D01*
%TO.C,R12*%
X62738000Y-99338000D02*
X62738000Y-100108000D01*
X62738000Y-107418000D02*
X62738000Y-106648000D01*
X61368000Y-106648000D02*
X64108000Y-106648000D01*
X64108000Y-100108000D01*
X61368000Y-100108000D01*
X61368000Y-106648000D01*
%TO.C,R21*%
X120650000Y-99338000D02*
X120650000Y-100108000D01*
X120650000Y-107418000D02*
X120650000Y-106648000D01*
X122020000Y-100108000D02*
X119280000Y-100108000D01*
X119280000Y-106648000D01*
X122020000Y-106648000D01*
X122020000Y-100108000D01*
%TO.C,R13*%
X114554000Y-41426000D02*
X114554000Y-42196000D01*
X114554000Y-49506000D02*
X114554000Y-48736000D01*
X113184000Y-48736000D02*
X115924000Y-48736000D01*
X115924000Y-42196000D01*
X113184000Y-42196000D01*
X113184000Y-48736000D01*
%TO.C,SW2*%
X108004800Y-81256000D02*
X108004800Y-82756000D01*
X109254800Y-85256000D02*
X113754800Y-85256000D01*
X113754800Y-78756000D02*
X109254800Y-78756000D01*
X115004800Y-82756000D02*
X115004800Y-81256000D01*
%TO.C,TP3*%
X45543600Y-70002400D02*
G75*
G02*
X42543600Y-70002400I-1500000J0D01*
G01*
X42543600Y-70002400D02*
G75*
G02*
X45543600Y-70002400I1500000J0D01*
G01*
%TO.C,RV1*%
X52534000Y-45584000D02*
X52534000Y-50304000D01*
X52534000Y-45584000D02*
X54024000Y-45584000D01*
X52534000Y-54114000D02*
X52534000Y-57174000D01*
X52534000Y-57174000D02*
X62274000Y-57174000D01*
X55744000Y-45584000D02*
X56574000Y-45584000D01*
X58194000Y-45584000D02*
X58724000Y-45584000D01*
X61094000Y-45584000D02*
X62274000Y-45584000D01*
X62274000Y-54114000D02*
X62274000Y-57174000D01*
X62284000Y-45584000D02*
X62284000Y-50304000D01*
%TO.C,R6*%
X123952000Y-99338000D02*
X123952000Y-100108000D01*
X123952000Y-107418000D02*
X123952000Y-106648000D01*
X122582000Y-106648000D02*
X125322000Y-106648000D01*
X125322000Y-100108000D01*
X122582000Y-100108000D01*
X122582000Y-106648000D01*
%TO.C,C7*%
X88554000Y-58316000D02*
X92294000Y-58316000D01*
X88554000Y-65556000D02*
X88554000Y-58316000D01*
X92294000Y-58316000D02*
X92294000Y-65556000D01*
X92294000Y-65556000D02*
X88554000Y-65556000D01*
%TO.C,J3*%
X147510000Y-78194000D02*
X147510000Y-74494000D01*
X147510000Y-83494000D02*
X147510000Y-79794000D01*
X158010000Y-74494000D02*
X147510000Y-74494000D01*
X158010000Y-78274000D02*
X158010000Y-74494000D01*
X158010000Y-83494000D02*
X147510000Y-83494000D01*
X158010000Y-83494000D02*
X158010000Y-79714000D01*
X161160000Y-77764000D02*
X160360000Y-77764000D01*
X161160000Y-77764000D02*
X161160000Y-78624000D01*
X155310000Y-78994000D02*
G75*
G02*
X151710000Y-78994000I-1800000J0D01*
G01*
X151710000Y-78994000D02*
G75*
G02*
X155310000Y-78994000I1800000J0D01*
G01*
%TO.C,U2*%
X50740000Y-60342000D02*
X50740000Y-61992000D01*
X50740000Y-63992000D02*
X50740000Y-65642000D01*
X50740000Y-65642000D02*
X61020000Y-65642000D01*
X61020000Y-60342000D02*
X50740000Y-60342000D01*
X61020000Y-65642000D02*
X61020000Y-60342000D01*
X50740000Y-61992000D02*
G75*
G02*
X50740000Y-63992000I0J-1000000D01*
G01*
%TO.C,U3*%
X70044000Y-60342000D02*
X70044000Y-65642000D01*
X70044000Y-65642000D02*
X87944000Y-65642000D01*
X87944000Y-60342000D02*
X70044000Y-60342000D01*
X87944000Y-61992000D02*
X87944000Y-60342000D01*
X87944000Y-65642000D02*
X87944000Y-63992000D01*
X87944000Y-63992000D02*
G75*
G02*
X87944000Y-61992000I0J1000000D01*
G01*
%TO.C,Q2*%
X136420000Y-53522000D02*
X132820000Y-53522000D01*
X132295816Y-54249205D02*
G75*
G02*
X132820000Y-53522000I2324184J-1122795D01*
G01*
X134620000Y-57972000D02*
G75*
G02*
X132263600Y-56470807I0J2600000D01*
G01*
X136420000Y-53522000D02*
G75*
G02*
X136944184Y-54249205I-1800000J-1850000D01*
G01*
X136976400Y-56470807D02*
G75*
G02*
X134620000Y-57972000I-2356400J1098807D01*
G01*
%TO.C,TP1*%
X64441200Y-72237600D02*
G75*
G02*
X61441200Y-72237600I-1500000J0D01*
G01*
X61441200Y-72237600D02*
G75*
G02*
X64441200Y-72237600I1500000J0D01*
G01*
%TO.C,RV2*%
X74632000Y-45584000D02*
X74632000Y-50304000D01*
X74632000Y-45584000D02*
X76122000Y-45584000D01*
X74632000Y-54114000D02*
X74632000Y-57174000D01*
X74632000Y-57174000D02*
X84372000Y-57174000D01*
X77842000Y-45584000D02*
X78672000Y-45584000D01*
X80292000Y-45584000D02*
X80822000Y-45584000D01*
X83192000Y-45584000D02*
X84372000Y-45584000D01*
X84372000Y-54114000D02*
X84372000Y-57174000D01*
X84382000Y-45584000D02*
X84382000Y-50304000D01*
%TO.C,RV4*%
X118828000Y-45584000D02*
X118828000Y-50304000D01*
X118828000Y-45584000D02*
X120318000Y-45584000D01*
X118828000Y-54114000D02*
X118828000Y-57174000D01*
X118828000Y-57174000D02*
X128568000Y-57174000D01*
X122038000Y-45584000D02*
X122868000Y-45584000D01*
X124488000Y-45584000D02*
X125018000Y-45584000D01*
X127388000Y-45584000D02*
X128568000Y-45584000D01*
X128568000Y-45584000D02*
X128568000Y-50304000D01*
X128568000Y-54114000D02*
X128568000Y-57174000D01*
%TO.C,R4*%
X130556000Y-99338000D02*
X130556000Y-100108000D01*
X130556000Y-107418000D02*
X130556000Y-106648000D01*
X129186000Y-106648000D02*
X131926000Y-106648000D01*
X131926000Y-100108000D01*
X129186000Y-100108000D01*
X129186000Y-106648000D01*
%TO.C,R30*%
X86384000Y-37338000D02*
X87154000Y-37338000D01*
X94464000Y-37338000D02*
X93694000Y-37338000D01*
X93694000Y-38708000D02*
X87154000Y-38708000D01*
X87154000Y-35968000D01*
X93694000Y-35968000D01*
X93694000Y-38708000D01*
%TO.C,R7*%
X79248000Y-99338000D02*
X79248000Y-100108000D01*
X79248000Y-107418000D02*
X79248000Y-106648000D01*
X77878000Y-106648000D02*
X80618000Y-106648000D01*
X80618000Y-100108000D01*
X77878000Y-100108000D01*
X77878000Y-106648000D01*
%TO.C,R5*%
X127254000Y-99338000D02*
X127254000Y-100108000D01*
X127254000Y-107418000D02*
X127254000Y-106648000D01*
X125884000Y-106648000D02*
X128624000Y-106648000D01*
X128624000Y-100108000D01*
X125884000Y-100108000D01*
X125884000Y-106648000D01*
%TO.C,RV5*%
X140926000Y-45584000D02*
X140926000Y-50304000D01*
X140926000Y-45584000D02*
X142416000Y-45584000D01*
X140926000Y-54114000D02*
X140926000Y-57174000D01*
X140926000Y-57174000D02*
X150666000Y-57174000D01*
X144136000Y-45584000D02*
X144966000Y-45584000D01*
X146586000Y-45584000D02*
X147116000Y-45584000D01*
X149486000Y-45584000D02*
X150666000Y-45584000D01*
X150666000Y-54114000D02*
X150666000Y-57174000D01*
X150676000Y-45584000D02*
X150676000Y-50304000D01*
%TO.C,R29*%
X44704000Y-47268000D02*
X44704000Y-48038000D01*
X44704000Y-55348000D02*
X44704000Y-54578000D01*
X43334000Y-54578000D02*
X46074000Y-54578000D01*
X46074000Y-48038000D01*
X43334000Y-48038000D01*
X43334000Y-54578000D01*
%TO.C,R1*%
X140462000Y-99338000D02*
X140462000Y-100108000D01*
X140462000Y-107418000D02*
X140462000Y-106648000D01*
X139092000Y-106648000D02*
X141832000Y-106648000D01*
X141832000Y-100108000D01*
X139092000Y-100108000D01*
X139092000Y-106648000D01*
%TO.C,R28*%
X66548000Y-59968000D02*
X66548000Y-60738000D01*
X66548000Y-68048000D02*
X66548000Y-67278000D01*
X65178000Y-67278000D02*
X67918000Y-67278000D01*
X67918000Y-60738000D01*
X65178000Y-60738000D01*
X65178000Y-67278000D01*
D12*
%TO.C,REF\u002A\u002A*%
G36*
X72567800Y-52181666D02*
G01*
X72567800Y-52400200D01*
X68572333Y-52400200D01*
X64541400Y-52400200D01*
X64541400Y-52181666D01*
X64541400Y-51993800D01*
X68572333Y-51993800D01*
X72567800Y-51993800D01*
X72567800Y-52181666D01*
G37*
G36*
X94564200Y-52207066D02*
G01*
X94564200Y-52400200D01*
X90560266Y-52400200D01*
X86537800Y-52400200D01*
X86537800Y-52197000D01*
X86537800Y-51993800D01*
X90551000Y-51993800D01*
X94564200Y-51993800D01*
X94564200Y-52207066D01*
G37*
G36*
X116662200Y-52171600D02*
G01*
X116662200Y-52400200D01*
X112674400Y-52400200D01*
X108635800Y-52400200D01*
X108635800Y-52197000D01*
X108635800Y-51993800D01*
X112674400Y-51993800D01*
X116662200Y-51993800D01*
X116662200Y-52171600D01*
G37*
G36*
X138658600Y-52197000D02*
G01*
X138658600Y-52400200D01*
X134569200Y-52400200D01*
X130632200Y-52400200D01*
X130632200Y-52197000D01*
X130632200Y-51993800D01*
X134543800Y-51993800D01*
X138658600Y-51993800D01*
X138658600Y-52197000D01*
G37*
G36*
X48632084Y-70357527D02*
G01*
X49970267Y-71693749D01*
X49970267Y-70953908D01*
X49972081Y-70599546D01*
X49983832Y-70381450D01*
X50014979Y-70266550D01*
X50074984Y-70221781D01*
X50173306Y-70214073D01*
X50181934Y-70214067D01*
X50393600Y-70214067D01*
X50393600Y-71314734D01*
X50393600Y-72415400D01*
X49250600Y-72415400D01*
X48107600Y-72415400D01*
X48107600Y-72203734D01*
X48113943Y-72102350D01*
X48155017Y-72039953D01*
X48263890Y-72007081D01*
X48473630Y-71994273D01*
X48817308Y-71992069D01*
X48847409Y-71992067D01*
X49587218Y-71992067D01*
X48280616Y-70683422D01*
X47854056Y-70255495D01*
X47534233Y-69930532D01*
X47308175Y-69691730D01*
X47162910Y-69522284D01*
X47085468Y-69405393D01*
X47062877Y-69324253D01*
X47082166Y-69262061D01*
X47130364Y-69202015D01*
X47133957Y-69198040D01*
X47293901Y-69021304D01*
X48632084Y-70357527D01*
G37*
G36*
X156514800Y-70281800D02*
G01*
X156514800Y-71424800D01*
X156303134Y-71424800D01*
X156201750Y-71418457D01*
X156139353Y-71377383D01*
X156106481Y-71268510D01*
X156093673Y-71058770D01*
X156091469Y-70715092D01*
X156091467Y-70684991D01*
X156091467Y-69945182D01*
X154782822Y-71251784D01*
X154354895Y-71678344D01*
X154029932Y-71998167D01*
X153791130Y-72224225D01*
X153621684Y-72369490D01*
X153504793Y-72446932D01*
X153423653Y-72469523D01*
X153361461Y-72450234D01*
X153301415Y-72402036D01*
X153297440Y-72398443D01*
X153120704Y-72238499D01*
X154456927Y-70900316D01*
X155793149Y-69562133D01*
X155053308Y-69562133D01*
X154698946Y-69560319D01*
X154480850Y-69548568D01*
X154365950Y-69517421D01*
X154321181Y-69457416D01*
X154313473Y-69359094D01*
X154313467Y-69350466D01*
X154313467Y-69138800D01*
X155414134Y-69138800D01*
X156514800Y-69138800D01*
X156514800Y-70281800D01*
G37*
G36*
X50741425Y-90495964D02*
G01*
X50742490Y-91704084D01*
X50745721Y-92756522D01*
X50751676Y-93666919D01*
X50760911Y-94448920D01*
X50773986Y-95116166D01*
X50791456Y-95682302D01*
X50813879Y-96160968D01*
X50841813Y-96565810D01*
X50875815Y-96910468D01*
X50916442Y-97208587D01*
X50964252Y-97473810D01*
X51019803Y-97719778D01*
X51039776Y-97798464D01*
X51237644Y-98416461D01*
X51512555Y-99081902D01*
X51829427Y-99715340D01*
X52049426Y-100084886D01*
X52185059Y-100259916D01*
X52435813Y-100546380D01*
X52795392Y-100937678D01*
X53257501Y-101427210D01*
X53815846Y-102008375D01*
X54464131Y-102674571D01*
X55196063Y-103419200D01*
X56005346Y-104235660D01*
X56067103Y-104297716D01*
X56836567Y-105071650D01*
X57493688Y-105734978D01*
X58046453Y-106296237D01*
X58502847Y-106763962D01*
X58870855Y-107146692D01*
X59158462Y-107452963D01*
X59373654Y-107691312D01*
X59524416Y-107870275D01*
X59618734Y-107998389D01*
X59664592Y-108084192D01*
X59669978Y-108136219D01*
X59665897Y-108145010D01*
X59553758Y-108276627D01*
X59496012Y-108313814D01*
X59423612Y-108260195D01*
X59242617Y-108096420D01*
X58963513Y-107832720D01*
X58596788Y-107479327D01*
X58152928Y-107046471D01*
X57642422Y-106544384D01*
X57075757Y-105983296D01*
X56463420Y-105373438D01*
X55815899Y-104725041D01*
X55769240Y-104678187D01*
X54958614Y-103862769D01*
X54258714Y-103155053D01*
X53659789Y-102543749D01*
X53152086Y-102017569D01*
X52725853Y-101565223D01*
X52371339Y-101175423D01*
X52078792Y-100836880D01*
X51838459Y-100538303D01*
X51640589Y-100268405D01*
X51475429Y-100015897D01*
X51333228Y-99769489D01*
X51204234Y-99517892D01*
X51078695Y-99249817D01*
X51077280Y-99246697D01*
X50727790Y-98303050D01*
X50484794Y-97259602D01*
X50404792Y-96697797D01*
X50388532Y-96467089D01*
X50373431Y-96082208D01*
X50359703Y-95558311D01*
X50347562Y-94910556D01*
X50337220Y-94154101D01*
X50328891Y-93304103D01*
X50322788Y-92375720D01*
X50319125Y-91384109D01*
X50318092Y-90538297D01*
X50317397Y-85140797D01*
X50529064Y-85140797D01*
X50740731Y-85140797D01*
X50741425Y-90495964D01*
G37*
G36*
X152881905Y-90538300D02*
G01*
X152880872Y-91384112D01*
X152877209Y-92375723D01*
X152871106Y-93304106D01*
X152862777Y-94154104D01*
X152852435Y-94910559D01*
X152840294Y-95558314D01*
X152826566Y-96082211D01*
X152811465Y-96467092D01*
X152795205Y-96697800D01*
X152715203Y-97259605D01*
X152472207Y-98303053D01*
X152122717Y-99246700D01*
X152121302Y-99249820D01*
X151995763Y-99517895D01*
X151866769Y-99769492D01*
X151724568Y-100015900D01*
X151559408Y-100268408D01*
X151361538Y-100538306D01*
X151121205Y-100836883D01*
X150828658Y-101175426D01*
X150474144Y-101565226D01*
X150047911Y-102017572D01*
X149540208Y-102543752D01*
X148941283Y-103155056D01*
X148241383Y-103862772D01*
X147430757Y-104678190D01*
X147384098Y-104725044D01*
X146736577Y-105373441D01*
X146124240Y-105983299D01*
X145557575Y-106544387D01*
X145047069Y-107046474D01*
X144603209Y-107479330D01*
X144236484Y-107832723D01*
X143957380Y-108096423D01*
X143776385Y-108260198D01*
X143703985Y-108313817D01*
X143646239Y-108276630D01*
X143534100Y-108145013D01*
X143530019Y-108136222D01*
X143535405Y-108084195D01*
X143581263Y-107998392D01*
X143675581Y-107870278D01*
X143826343Y-107691315D01*
X144041535Y-107452966D01*
X144329142Y-107146695D01*
X144697150Y-106763965D01*
X145153544Y-106296240D01*
X145706309Y-105734981D01*
X146363430Y-105071653D01*
X147132894Y-104297719D01*
X147194651Y-104235663D01*
X148003934Y-103419203D01*
X148735866Y-102674574D01*
X149384151Y-102008378D01*
X149942496Y-101427213D01*
X150404605Y-100937681D01*
X150764184Y-100546383D01*
X151014938Y-100259919D01*
X151150571Y-100084889D01*
X151370570Y-99715343D01*
X151687442Y-99081905D01*
X151962353Y-98416464D01*
X152160221Y-97798467D01*
X152180194Y-97719781D01*
X152235745Y-97473813D01*
X152283555Y-97208590D01*
X152324182Y-96910471D01*
X152358184Y-96565813D01*
X152386118Y-96160971D01*
X152408541Y-95682305D01*
X152426011Y-95116169D01*
X152439086Y-94448923D01*
X152448321Y-93666922D01*
X152454276Y-92756525D01*
X152457507Y-91704087D01*
X152458572Y-90495967D01*
X152459266Y-85140800D01*
X152670933Y-85140800D01*
X152882600Y-85140800D01*
X152881905Y-90538300D01*
G37*
D11*
%TO.C,C9*%
X57159600Y-73251200D02*
X60899600Y-73251200D01*
X57159600Y-80491200D02*
X57159600Y-73251200D01*
X60899600Y-73251200D02*
X60899600Y-80491200D01*
X60899600Y-80491200D02*
X57159600Y-80491200D01*
%TO.C,R8*%
X75946000Y-99338000D02*
X75946000Y-100108000D01*
X75946000Y-107418000D02*
X75946000Y-106648000D01*
X74576000Y-106648000D02*
X77316000Y-106648000D01*
X77316000Y-100108000D01*
X74576000Y-100108000D01*
X74576000Y-106648000D01*
%TO.C,D2*%
X113009000Y-94635000D02*
X116099000Y-94635000D01*
X113009170Y-94635000D02*
G75*
G02*
X114554000Y-89085000I1544830J2560000D01*
G01*
X114554000Y-89085000D02*
G75*
G02*
X116098830Y-94635000I0J-2990000D01*
G01*
X117054000Y-92075000D02*
G75*
G02*
X112054000Y-92075000I-2500000J0D01*
G01*
X112054000Y-92075000D02*
G75*
G02*
X117054000Y-92075000I2500000J0D01*
G01*
%TO.C,C2*%
X124374400Y-59601708D02*
X128114400Y-59601708D01*
X124374400Y-66841708D02*
X124374400Y-59601708D01*
X128114400Y-59601708D02*
X128114400Y-66841708D01*
X128114400Y-66841708D02*
X124374400Y-66841708D01*
%TO.C,R17*%
X92937200Y-74066400D02*
X93707200Y-74066400D01*
X101017200Y-74066400D02*
X100247200Y-74066400D01*
X100247200Y-75436400D02*
X93707200Y-75436400D01*
X93707200Y-72696400D01*
X100247200Y-72696400D01*
X100247200Y-75436400D01*
%TO.C,TP2*%
X69826000Y-47498000D02*
G75*
G02*
X66826000Y-47498000I-1500000J0D01*
G01*
X66826000Y-47498000D02*
G75*
G02*
X69826000Y-47498000I1500000J0D01*
G01*
%TO.C,U1*%
X99762000Y-60342000D02*
X99762000Y-61992000D01*
X99762000Y-63992000D02*
X99762000Y-65642000D01*
X99762000Y-65642000D02*
X117662000Y-65642000D01*
X117662000Y-60342000D02*
X99762000Y-60342000D01*
X117662000Y-65642000D02*
X117662000Y-60342000D01*
X99762000Y-61992000D02*
G75*
G02*
X99762000Y-63992000I0J-1000000D01*
G01*
%TO.C,R20*%
X82550000Y-99338000D02*
X82550000Y-100108000D01*
X82550000Y-107418000D02*
X82550000Y-106648000D01*
X83920000Y-100108000D02*
X81180000Y-100108000D01*
X81180000Y-106648000D01*
X83920000Y-106648000D01*
X83920000Y-100108000D01*
%TO.C,R9*%
X72644000Y-99338000D02*
X72644000Y-100108000D01*
X72644000Y-107418000D02*
X72644000Y-106648000D01*
X71274000Y-106648000D02*
X74014000Y-106648000D01*
X74014000Y-100108000D01*
X71274000Y-100108000D01*
X71274000Y-106648000D01*
%TO.C,RV3*%
X96730000Y-45584000D02*
X96730000Y-50304000D01*
X96730000Y-45584000D02*
X98220000Y-45584000D01*
X96730000Y-54114000D02*
X96730000Y-57174000D01*
X96730000Y-57174000D02*
X106470000Y-57174000D01*
X99940000Y-45584000D02*
X100770000Y-45584000D01*
X102390000Y-45584000D02*
X102920000Y-45584000D01*
X105290000Y-45584000D02*
X106470000Y-45584000D01*
X106470000Y-54114000D02*
X106470000Y-57174000D01*
X106480000Y-45584000D02*
X106480000Y-50304000D01*
%TO.C,C6*%
X45882000Y-59575708D02*
X49622000Y-59575708D01*
X45882000Y-66815708D02*
X45882000Y-59575708D01*
X49622000Y-59575708D02*
X49622000Y-66815708D01*
X49622000Y-66815708D02*
X45882000Y-66815708D01*
%TO.C,J2*%
X87266000Y-48116000D02*
X87266000Y-40276000D01*
X89916000Y-45466000D02*
X89916000Y-48116000D01*
X89916000Y-48116000D02*
X87266000Y-48116000D01*
X92566000Y-40276000D02*
X87266000Y-40276000D01*
X92566000Y-45466000D02*
X89916000Y-45466000D01*
X92566000Y-45466000D02*
X92566000Y-40276000D01*
X92566000Y-46736000D02*
X92566000Y-48116000D01*
X92566000Y-48116000D02*
X91186000Y-48116000D01*
%TO.C,R27*%
X107466000Y-73914000D02*
X108236000Y-73914000D01*
X115546000Y-73914000D02*
X114776000Y-73914000D01*
X108236000Y-72544000D02*
X114776000Y-72544000D01*
X114776000Y-75284000D01*
X108236000Y-75284000D01*
X108236000Y-72544000D01*
%TO.C,R26*%
X110998000Y-41426000D02*
X110998000Y-42196000D01*
X110998000Y-49506000D02*
X110998000Y-48736000D01*
X109628000Y-48736000D02*
X112368000Y-48736000D01*
X112368000Y-42196000D01*
X109628000Y-42196000D01*
X109628000Y-48736000D01*
%TO.C,C8*%
X41584400Y-59571708D02*
X45324400Y-59571708D01*
X41584400Y-66811708D02*
X41584400Y-59571708D01*
X45324400Y-59571708D02*
X45324400Y-66811708D01*
X45324400Y-66811708D02*
X41584400Y-66811708D01*
%TO.C,C1*%
X119824400Y-59601708D02*
X123564400Y-59601708D01*
X119824400Y-66841708D02*
X119824400Y-59601708D01*
X123564400Y-59601708D02*
X123564400Y-66841708D01*
X123564400Y-66841708D02*
X119824400Y-66841708D01*
%TO.C,R24*%
X92937200Y-70358000D02*
X93707200Y-70358000D01*
X101017200Y-70358000D02*
X100247200Y-70358000D01*
X100247200Y-71728000D02*
X93707200Y-71728000D01*
X93707200Y-68988000D01*
X100247200Y-68988000D01*
X100247200Y-71728000D01*
%TD*%
M02*
